<svg width="49" height="48" viewBox="0 0 49 48" xmlns="http://www.w3.org/2000/svg" xmlns:xlink="http://www.w3.org/1999/xlink" xmlns:figma="http://www.figma.com/figma/ns">
    <title>
        android
    </title>
    <desc>
        Created using Figma
    </desc>
    <g transform="translate(-211 -115)" figma:type="canvas">
        <mask id="a">
            <path d="M211.798 115h48v48h-48v-48z" fill="#FFF"/>
        </mask>
        <g style="mix-blend-mode:normal" mask="url(#a)" figma:type="frame">
            <use xlink:href="#b" transform="translate(215.481 115)" fill="#3BB75E" style="mix-blend-mode:normal" figma:type="vector"/>
        </g>
    </g>
    <defs>
        <path id="b" d="M40.627 18.479a2.956 2.956 0 0 0-2.958-2.958 2.963 2.963 0 0 0-2.964 2.964v12.404a2.968 2.968 0 0 0 2.97 2.964 2.961 2.961 0 0 0 2.958-2.964v-12.41h-.006zM7.08 16.088l.006 19.223a3.156 3.156 0 0 0 3.162 3.161h2.15v6.564A2.966 2.966 0 0 0 15.36 48a2.968 2.968 0 0 0 2.964-2.964v-6.564h3.996v6.564a2.966 2.966 0 0 0 2.964 2.961 2.968 2.968 0 0 0 2.963-2.97V38.47h2.16a3.164 3.164 0 0 0 3.16-3.164V16.079l-26.49.006.004.003zm19.316-5.871a1.118 1.118 0 0 1-1.122-1.119c0-.612.5-1.119 1.119-1.122a1.118 1.118 0 1 1 0 2.238m-12.15 0a1.116 1.116 0 1 1-.003-2.235 1.12 1.12 0 1 1 0 2.24m12.615-5.834l2.064-3.78a.41.41 0 0 0-.163-.557.414.414 0 0 0-.555.165L26.108 4.03a14.22 14.22 0 0 0-5.805-1.218c-2.07 0-4.04.435-5.79 1.212L12.428.222a.41.41 0 1 0-.72.393l2.07 3.77c-4.065 2.1-6.81 6.09-6.81 10.674h26.687c0-4.584-2.742-8.568-6.8-10.668M2.964 15.524A2.965 2.965 0 0 0 0 18.488v12.404a2.964 2.964 0 0 0 2.97 2.964 2.957 2.957 0 0 0 2.958-2.964V18.485a2.964 2.964 0 0 0-2.964-2.961"/>
    </defs>
</svg>
