<svg width="96px" height="32px" viewBox="0 0 96 32" version="1.1" xmlns="http://www.w3.org/2000/svg" xmlns:xlink="http://www.w3.org/1999/xlink">
    <!-- Generator: sketchtool 3.7.1 (28215) - http://www.bohemiancoding.com/sketch -->
    <title>EB95CEC3-2915-4EDE-A1FD-69B106B86716</title>
    <desc>Created with sketchtool.</desc>
    <defs>
        <polyline id="path-1" points="0 0.2924 95.6967785 0.2924 95.6967785 32 0 32"></polyline>
        <polygon id="path-3" points="0 0.2924 95.6967785 0.2924 95.6967785 32 0 32"></polygon>
    </defs>
    <g id="Symbols" stroke="none" stroke-width="1" fill="none" fill-rule="evenodd">
        <g id="header" transform="translate(-20.000000, -14.000000)">
            <g id="logo" transform="translate(20.000000, 14.000000)">
                <path d="M67.0155705,26.52424 L64.5986577,26.52424 C64.3002685,26.52424 64.0558389,26.28144 64.0558389,25.98424 L64.0558389,22.93664 C64.0558389,22.63984 64.3002685,22.42424 64.5986577,22.42424 L67.0155705,22.42424 C67.3143624,22.42424 67.5587919,22.63984 67.5587919,22.93664 L67.5587919,25.98424 C67.5587919,26.28144 67.3143624,26.52424 67.0155705,26.52424" id="Fill-1" fill="#ffffff"></path>
                <g id="Group-5">
                    <mask id="mask-2" fill="white">
                        <use xlink:href="#path-1"></use>
                    </mask>
                    <g id="Clip-4"></g>
                    <path d="M12.0020537,26.52424 L9.50379866,26.52424 C9.2054094,26.52424 8.96057718,26.25464 8.96057718,25.95784 L8.96057718,17.08344 C8.96057718,14.73744 8.55346309,14.14384 6.73413423,14.14384 C5.81118121,14.14384 4.72473826,14.46704 3.58433557,15.06104 L3.58433557,25.95784 C3.58433557,26.25464 3.33990604,26.52424 3.04111409,26.52424 L0.543261745,26.52424 C0.244469799,26.52424 4.02684564e-05,26.25464 4.02684564e-05,25.95784 L4.02684564e-05,0.83144 C4.02684564e-05,0.53424 0.244469799,0.29224 0.543261745,0.29224 L3.04111409,0.29224 C3.33990604,0.29224 3.58433557,0.53424 3.58433557,0.83144 L3.58433557,12.12104 C4.61601342,11.49984 5.75681879,11.12264 7.6844698,11.12264 C11.4314497,11.12264 12.5452752,13.76624 12.5452752,17.08344 L12.5452752,25.95784 C12.5452752,26.25464 12.3008456,26.52424 12.0020537,26.52424" id="Fill-3" fill="#ffffff" mask="url(#mask-2)"></path>
                </g>
                <path d="M22.3550336,17.83908 C22.3550336,15.62748 21.3507383,14.19748 19.4496644,14.19748 C17.5485906,14.19748 16.5438926,15.62748 16.5438926,17.83908 L16.5438926,20.02348 C16.5438926,22.23588 17.5485906,23.66468 19.4496644,23.66468 C21.3507383,23.66468 22.3550336,22.23588 22.3550336,20.02348 L22.3550336,17.83908 Z M19.4496644,26.73988 C15.186443,26.73988 12.96,23.88068 12.96,20.02348 L12.96,17.83908 C12.96,13.98188 15.186443,11.12268 19.4496644,11.12268 C23.7128859,11.12268 25.9393289,13.98188 25.9393289,17.83908 L25.9393289,20.02348 C25.9393289,23.88068 23.7128859,26.73988 19.4496644,26.73988 L19.4496644,26.73988 Z" id="Fill-6" fill="#ffffff"></path>
                <path d="M33.9288725,26.5516 C33.2769262,26.6588 32.679745,26.74 32.0825638,26.74 C29.0141074,26.74 27.7649799,26.0656 27.7649799,22.4516 L27.7649799,13.982 L25.2123624,13.604 C24.9139732,13.5508 24.6691409,13.3616 24.6691409,13.0648 L24.6691409,11.8508 C24.6691409,11.5548 24.9139732,11.3116 25.2123624,11.3116 L27.7649799,11.3116 L27.7649799,9.0992 C27.7649799,8.8032 28.0094094,8.614 28.3082013,8.56 L30.8334362,8.1288 L30.9417584,8.1288 C31.1861879,8.1288 31.376255,8.2632 31.376255,8.5336 L31.376255,11.3116 L33.8201477,11.3116 C34.1189396,11.3116 34.3633691,11.5548 34.3633691,11.8508 L34.3633691,13.4424 C34.3633691,13.7392 34.1189396,13.982 33.8201477,13.982 L31.376255,13.982 L31.376255,22.4516 C31.376255,23.8 31.4575973,23.9616 32.4353154,23.9616 L33.8745101,23.9616 C34.2276644,23.9616 34.4447114,24.0968 34.4447114,24.3664 L34.4447114,26.0656 C34.4447114,26.3352 34.2820268,26.4976 33.9288725,26.5516" id="Fill-8" fill="#ffffff"></path>
                <path d="M44.0056107,17.51488 C44.0056107,15.41168 42.8382282,14.19768 41.154604,14.19768 C39.4709799,14.19768 38.2488322,15.38448 38.2488322,17.51488 L38.2488322,17.62248 L44.0056107,17.62248 L44.0056107,17.51488 Z M47.0740671,20.15848 L38.2218523,20.15848 L38.2218523,20.23928 C38.2218523,21.80408 38.873396,23.66488 41.4803758,23.66488 C43.4623893,23.66488 45.3360805,23.50328 46.4764832,23.39528 L46.5582282,23.39528 C46.8296376,23.39528 47.0466846,23.53048 47.0466846,23.80008 L47.0466846,25.58048 C47.0466846,26.01168 46.9653423,26.20088 46.4764832,26.28128 C44.7115168,26.60568 43.6524564,26.73968 41.2089664,26.73968 C38.4932617,26.73968 34.637557,25.28368 34.637557,19.96968 L34.637557,17.97328 C34.637557,13.76648 37.0001074,11.12248 41.154604,11.12248 C45.3360805,11.12248 47.6168859,13.95488 47.6168859,17.97328 L47.6168859,19.48448 C47.6168859,19.91568 47.4542013,20.15848 47.0740671,20.15848 L47.0740671,20.15848 Z" id="Fill-10" fill="#ffffff"></path>
                <path d="M51.4519329,31.88988 L48.926698,31.88988 C48.6275034,31.88988 48.3834765,31.62028 48.3834765,31.32348 L48.3834765,6.53748 C48.3834765,6.24068 48.6275034,5.99748 48.926698,5.99748 L51.4519329,5.99748 C51.7503221,5.99748 51.9677718,6.24068 51.9677718,6.53748 L51.9677718,31.32348 C51.9677718,31.62028 51.7503221,31.88988 51.4519329,31.88988" id="Fill-12" fill="#ffffff"></path>
                <path d="M57.9483624,26.73988 C56.8897047,26.73988 54.6084966,26.60548 53.087557,26.20068 C52.7621879,26.11948 52.5717181,25.90388 52.5717181,25.58068 L52.5717181,23.96188 C52.5717181,23.74628 52.7621879,23.53068 53.0335973,23.53068 L53.1423221,23.53068 C54.4458121,23.69228 56.8897047,23.82668 57.7039329,23.82668 C59.387557,23.82668 59.6319866,23.26028 59.6319866,22.53188 C59.6319866,22.01948 59.3062148,21.69628 58.4372215,21.15628 L54.7172215,18.89068 C53.386349,18.08148 52.4360134,16.73268 52.4360134,15.16868 C52.4360134,12.47108 54.1466174,11.12268 57.5956107,11.12268 C59.7946711,11.12268 61.0437987,11.36548 62.4286309,11.66268 C62.7548054,11.74308 62.9174899,11.95868 62.9174899,12.28188 L62.9174899,13.84708 C62.9174899,14.17108 62.7548054,14.35948 62.4829933,14.35948 L62.3746711,14.35948 C61.6144027,14.25148 59.4419195,14.03588 57.894,14.03588 C56.5905101,14.03588 56.0203087,14.33188 56.0203087,15.16868 C56.0203087,15.59988 56.4278255,15.86948 57.1067517,16.27428 L60.6636644,18.43188 C62.9448725,19.80788 63.2702416,21.15628 63.2702416,22.53188 C63.2702416,24.87908 61.5056779,26.73988 57.9483624,26.73988" id="Fill-14" fill="#ffffff"></path>
                <path d="M80.5126711,26.52424 L78.0140134,26.52424 C77.7156242,26.52424 77.4715973,26.25464 77.4715973,25.95784 L77.4715973,17.16424 C77.4715973,14.81784 77.2541477,14.14384 75.1630067,14.14384 C74.239651,14.14384 73.234953,14.52104 72.0945503,15.11504 L72.0945503,25.95784 C72.0945503,26.25464 71.8505235,26.52424 71.5517315,26.52424 L69.0534765,26.52424 C68.7546846,26.52424 68.510255,26.25464 68.510255,25.95784 L68.510255,11.85064 C68.510255,11.55464 68.7546846,11.31184 69.0534765,11.31184 L71.4160268,11.31184 C71.7144161,11.31184 71.9588456,11.55464 71.9588456,11.85064 L71.9588456,12.41704 C73.533745,11.41944 74.5658255,11.12264 76.3577718,11.12264 C80.2682416,11.12264 81.0554899,13.73904 81.0554899,17.16424 L81.0554899,25.95784 C81.0554899,26.25464 80.8106577,26.52424 80.5126711,26.52424" id="Fill-16" fill="#ffffff"></path>
                <g id="Group-20">
                    <mask id="mask-4" fill="white">
                        <use xlink:href="#path-3"></use>
                    </mask>
                    <g id="Clip-19"></g>
                    <path d="M91.5149396,16.32816 C91.5149396,15.03376 90.9447383,14.03616 88.6095705,14.03616 C86.3013826,14.03616 85.6768188,15.06096 85.6768188,16.32816 L85.6768188,16.54456 C85.6768188,17.54216 86.0843356,18.67496 88.6095705,18.67496 C90.8629933,18.67496 91.5149396,17.89296 91.5149396,16.54456 L91.5149396,16.32816 Z M91.8137315,27.57576 C91.8137315,26.98296 91.4605772,26.63216 88.6095705,25.95776 L86.1926577,25.39136 C85.7851409,25.95776 85.5141342,26.30856 85.5141342,27.27976 L85.5141342,27.52176 C85.5141342,28.62816 86.1926577,29.30256 88.7456779,29.30256 C91.352255,29.30256 91.8137315,28.73616 91.8137315,27.76496 L91.8137315,27.57576 Z M95.2627248,13.76656 L94.3659463,14.11656 C94.8008456,14.73736 95.0448725,15.33056 95.0448725,16.27416 L95.0448725,16.46336 C95.0448725,19.83536 92.7097047,21.37256 88.6095705,21.37256 C87.1703758,21.37256 86.1926577,21.12976 85.6502416,20.91416 C85.3236644,21.12976 85.1883624,21.37256 85.1883624,21.61496 C85.1883624,22.15456 85.486349,22.37016 86.1117181,22.50536 L89.3158792,23.26016 C93.0084966,24.12336 95.3976242,24.68976 95.3976242,27.57576 L95.3976242,27.76496 C95.3976242,30.51656 93.361651,32.00016 88.7456779,32.00016 C84.3459463,32.00016 82.0107785,30.35456 82.0107785,27.52176 L82.0107785,27.27976 C82.0107785,26.17336 82.5270201,25.09456 83.3960134,24.31256 C82.6353423,23.74616 82.1738658,22.80176 82.1738658,21.83056 L82.1738658,21.80376 C82.1738658,20.96816 82.5270201,20.13136 83.259906,19.61976 C82.4452752,18.78296 82.1468859,17.81176 82.1468859,16.46336 L82.1468859,16.27416 C82.1468859,13.57736 83.9118523,11.31176 88.6095705,11.31176 L94.9635302,11.31176 C95.371047,11.31176 95.6968188,11.63496 95.6968188,12.03976 L95.6968188,13.17256 C95.6968188,13.57736 95.588094,13.63136 95.2627248,13.76656 L95.2627248,13.76656 Z" id="Fill-18" fill="#ffffff" mask="url(#mask-4)"></path>
                </g>
            </g>
        </g>
    </g>
</svg>