<?xml version="1.0" encoding="utf-8"?><svg width="336" height="288" viewBox="0 0 336 288" xmlns="http://www.w3.org/2000/svg" xmlns:xlink="http://www.w3.org/1999/xlink"><svg width="48" height="48" viewBox="0 0 48 48" xmlns:figma="http://www.figma.com/figma/ns" id="calculator" y="144"><title>calculator</title><desc>Created using Figma</desc><g transform="translate(145 -35)" figma:type="canvas"><mask id="aaa"><path d="M-145 35h48v48h-48V35z" fill="#FFF"/></mask><g style="mix-blend-mode:normal" mask="url(#aaa)" figma:type="frame"><g style="mix-blend-mode:normal" figma:type="vector" transform="translate(-145 35)" fill="#3BB75E"><use xlink:href="#aab" style="mix-blend-mode:normal"/><use xlink:href="#aac" style="mix-blend-mode:normal"/><use xlink:href="#aad" style="mix-blend-mode:normal"/><use xlink:href="#aae" style="mix-blend-mode:normal"/><use xlink:href="#aaf" style="mix-blend-mode:normal"/><use xlink:href="#aag" style="mix-blend-mode:normal"/></g></g></g><defs><path id="aab" d="M42.936 0H5.064A5.07 5.07 0 0 0 0 5.064v37.872A5.07 5.07 0 0 0 5.064 48h37.872A5.07 5.07 0 0 0 48 42.936V5.064A5.07 5.07 0 0 0 42.936 0zM23.03 45.06a1 1 0 0 1-1 1H5.064a3.128 3.128 0 0 1-3.125-3.124V25.97a1 1 0 0 1 1-1H22.03a1 1 0 0 1 1 1v19.09zm0-23.03a1 1 0 0 1-1 1H2.94a1 1 0 0 1-1-1V5.064a3.128 3.128 0 0 1 3.124-3.125H22.03a1 1 0 0 1 1 1V22.03zm23.03 20.906a3.128 3.128 0 0 1-3.124 3.125H25.97a1 1 0 0 1-1-1V25.97a1 1 0 0 1 1-1h19.09a1 1 0 0 1 1 1v16.966zm0-20.906a1 1 0 0 1-1 1H25.97a1 1 0 0 1-1-1V2.94a1 1 0 0 1 1-1h16.966a3.128 3.128 0 0 1 3.125 3.124V22.03z"/><path id="aac" d="M11.408 17.374a.97.97 0 1 0 1.94 0l-.001-2.878a1 1 0 0 1 1-1h2.879a.97.97 0 0 0 0-1.94h-2.88a1 1 0 0 1-1-1V7.677a.97.97 0 0 0-1.94 0l.002 2.88a1 1 0 0 1-1 1h-2.88a.97.97 0 0 0 0 1.94l2.88-.001a1 1 0 0 1 1 1v2.878z"/><path id="aad" d="M8.263 39.536a.97.97 0 0 0 1.372 0L11.67 37.5a1 1 0 0 1 1.414 0l2.037 2.036a.97.97 0 1 0 1.371-1.371l-2.036-2.036a1 1 0 0 1 0-1.414l2.036-2.037a.97.97 0 0 0-1.371-1.371l-2.037 2.036a1 1 0 0 1-1.414 0l-2.035-2.036a.97.97 0 1 0-1.371 1.371l2.035 2.037a1 1 0 0 1 0 1.414l-2.036 2.036a.97.97 0 0 0 0 1.371z"/><path id="aae" d="M41.576 12.526a.97.97 0 0 0-.97-.97H30.91a.97.97 0 0 0 0 1.94h9.697a.97.97 0 0 0 .97-.97z"/><path id="aaf" d="M41.576 32.503a.97.97 0 0 0-.97-.97H30.91a.97.97 0 0 0 0 1.94h9.697a.97.97 0 0 0 .97-.97z"/><path id="aag" d="M41.576 38.341a.97.97 0 0 0-.97-.97H30.91a.97.97 0 0 0 0 1.94h9.697a.97.97 0 0 0 .97-.97z"/></defs></svg><svg width="48" height="48" viewBox="0 0 48 48" xmlns:figma="http://www.figma.com/figma/ns" id="card" x="144" y="192"><title>card</title><desc>Created using Figma</desc><g transform="translate(321 45)" figma:type="canvas"><mask id="aba"><path d="M-321-45h48V3h-48v-48z" fill="#FFF"/></mask><g style="mix-blend-mode:normal" mask="url(#aba)" figma:type="frame"><g style="mix-blend-mode:normal" figma:type="vector" transform="translate(-321 -39)" fill="#3BB75E"><use xlink:href="#abb" style="mix-blend-mode:normal"/><use xlink:href="#abc" style="mix-blend-mode:normal"/><use xlink:href="#abd" style="mix-blend-mode:normal"/><use xlink:href="#abe" style="mix-blend-mode:normal"/><use xlink:href="#abf" style="mix-blend-mode:normal"/><use xlink:href="#abg" style="mix-blend-mode:normal"/><use xlink:href="#abh" style="mix-blend-mode:normal"/><use xlink:href="#abi" style="mix-blend-mode:normal"/></g></g></g><defs><path id="abb" fill-rule="evenodd" d="M45 2H3a1 1 0 0 0-1 1v30a1 1 0 0 0 1 1h42a1 1 0 0 0 1-1V3a1 1 0 0 0-1-1zM3 0a3 3 0 0 0-3 3v30a3 3 0 0 0 3 3h42a3 3 0 0 0 3-3V3a3 3 0 0 0-3-3H3z"/><path id="abc" fill-rule="evenodd" d="M16.976 27a9 9 0 1 0 0-18 9 9 0 0 0 0 18zm0 2c6.075 0 11-4.925 11-11s-4.925-11-11-11-11 4.925-11 11 4.925 11 11 11z"/><path id="abd" fill-rule="evenodd" d="M25.404 25.069c-.432.514-.91.989-1.428 1.417a10.955 10.955 0 0 0 7 2.514c6.075 0 11-4.925 11-11s-4.925-11-11-11c-2.66 0-5.098.944-7 2.514.518.428.996.903 1.428 1.417A9 9 0 1 1 30.975 27a8.962 8.962 0 0 1-5.57-1.931z"/><path id="abe" d="M24.248 18.89h-4.94a.539.539 0 1 1 0-1.079h4.94a.54.54 0 0 1 0 1.079z"/><path id="abf" d="M23.752 16.42h-4.444a.539.539 0 1 1 0-1.079h4.444a.54.54 0 0 1 0 1.079z"/><path id="abg" d="M23.752 21.36h-4.444a.539.539 0 1 1 0-1.079h4.444a.54.54 0 0 1 0 1.079z"/><path id="abh" d="M22.765 14.446h-3.457a.54.54 0 1 1 0-1.079h3.457a.539.539 0 1 1 0 1.079z"/><path id="abi" d="M22.765 23.334h-3.457a.54.54 0 1 1 0-1.079h3.457a.54.54 0 1 1 0 1.079z"/></defs></svg><svg width="12" height="12" viewBox="0 0 12 12" xmlns:figma="http://www.figma.com/figma/ns" id="card-small" x="324" y="94"><title>card-small</title><desc>Created using Figma</desc><g transform="translate(-34 120)" figma:type="canvas"><mask id="aca"><path d="M34-120h12v12H34v-12z" fill="#FFF"/></mask><g style="mix-blend-mode:normal" mask="url(#aca)" figma:type="frame"><g style="mix-blend-mode:normal" figma:type="vector" transform="translate(34 -118)" fill="#3BB75E"><use xlink:href="#acb" style="mix-blend-mode:normal"/><use xlink:href="#acc" style="mix-blend-mode:normal"/><use xlink:href="#acd" style="mix-blend-mode:normal"/><use xlink:href="#ace" style="mix-blend-mode:normal"/><use xlink:href="#acf" style="mix-blend-mode:normal"/><use xlink:href="#acg" style="mix-blend-mode:normal"/><use xlink:href="#ach" style="mix-blend-mode:normal"/><use xlink:href="#aci" style="mix-blend-mode:normal"/></g></g></g><defs><path id="acb" fill-rule="evenodd" d="M11.25.5H.75A.25.25 0 0 0 .5.75v7.5c0 .138.112.25.25.25h10.5a.25.25 0 0 0 .25-.25V.75a.25.25 0 0 0-.25-.25zM.75 0A.75.75 0 0 0 0 .75v7.5c0 .414.336.75.75.75h10.5a.75.75 0 0 0 .75-.75V.75a.75.75 0 0 0-.75-.75H.75z"/><path id="acc" fill-rule="evenodd" d="M4.244 6.75a2.25 2.25 0 1 0 0-4.5 2.25 2.25 0 0 0 0 4.5zm0 .5a2.75 2.75 0 1 0 0-5.5 2.75 2.75 0 0 0 0 5.5z"/><path id="acd" fill-rule="evenodd" d="M6.351 6.267a2.767 2.767 0 0 1-.357.354 2.75 2.75 0 1 0 0-4.243c.13.108.25.226.357.355a2.25 2.25 0 1 1 0 3.534z"/><path id="ace" d="M6.062 4.722H4.827a.135.135 0 1 1 0-.27h1.235a.135.135 0 1 1 0 .27z"/><path id="acf" d="M5.938 4.105H4.827a.135.135 0 1 1 0-.27h1.111a.135.135 0 0 1 0 .27z"/><path id="acg" d="M5.938 5.34H4.827a.135.135 0 0 1 0-.27h1.111a.135.135 0 1 1 0 .27z"/><path id="ach" d="M5.691 3.611h-.864a.135.135 0 1 1 0-.27h.864a.135.135 0 1 1 0 .27z"/><path id="aci" d="M5.691 5.833h-.864a.135.135 0 1 1 0-.27h.864a.135.135 0 0 1 0 .27z"/></defs></svg><svg width="48" height="48" viewBox="0 0 48 48" xmlns:figma="http://www.figma.com/figma/ns" id="cards" y="240"><title>cards</title><desc>Created using Figma</desc><g transform="translate(145 45)" figma:type="canvas"><mask id="ada"><path d="M-145-45h48V3h-48v-48z" fill="#FFF"/></mask><g style="mix-blend-mode:normal" mask="url(#ada)" figma:type="frame"><g style="mix-blend-mode:normal" figma:type="vector" transform="translate(-145 -42)" fill="#3BB75E"><use xlink:href="#adb" style="mix-blend-mode:normal"/><use xlink:href="#adc" style="mix-blend-mode:normal"/></g></g></g><defs><path id="adb" d="M44.09 11.064h-2.427l-2.195-8.167A3.882 3.882 0 0 0 37.644.524a3.88 3.88 0 0 0-2.968-.388L2.897 8.68a3.89 3.89 0 0 0-2.373 1.824 3.882 3.882 0 0 0-.388 2.966l.458 1.705c.003.013-.001.027.003.04.004.016.014.028.02.044l1.343 5c.003.012 0 .024.002.038.005.014.014.025.019.039l3.534 13.146a3.886 3.886 0 0 0 1.766 2.312 3.91 3.91 0 0 0 3.901 3.814h32.907A3.916 3.916 0 0 0 48 35.697V14.975a3.913 3.913 0 0 0-3.91-3.91zm-4.477-1.687l-6.278 1.687h-14.33l19.642-5.281.966 3.594zm.4 1.489l.054.198h-.793l.739-.198zm-38.153.408a2.36 2.36 0 0 1 1.438-1.105l31.778-8.543a2.354 2.354 0 0 1 1.797.235c.549.315.942.825 1.105 1.436l.268.997-25.178 6.77h-1.885a3.89 3.89 0 0 0-2.874 1.28l-6.415 1.725-.269-1a2.344 2.344 0 0 1 .235-1.795zm5.412 3.7v3.097L3.26 19.149l-.966-3.592 5.058-1.359c-.05.251-.079.51-.079.777zM3.66 20.64l3.613-.972v14.017a2.325 2.325 0 0 1-.267-.601L3.659 20.639zm42.8 15.058a2.37 2.37 0 0 1-2.368 2.369H11.183a2.371 2.371 0 0 1-2.369-2.369V14.975a2.371 2.371 0 0 1 2.37-2.368H44.09a2.371 2.371 0 0 1 2.369 2.368v20.722z"/><path id="adc" d="M20.075 16.464h-6.923a.772.772 0 0 0 0 1.543h6.922a.771.771 0 0 0 0-1.543z"/></defs></svg><svg width="46" height="46" viewBox="0 0 46 46" xmlns:figma="http://www.figma.com/figma/ns" id="check" x="288" y="48"><title>Untitled</title><desc>Created using Figma</desc><g transform="translate(309 199)" figma:type="canvas"><path fill="#E5E5E5" d="M-309-199h46v46h-46z"/><mask id="aea"><path d="M-309-199h46v46h-46v-46z" fill="#FFF"/></mask><g style="mix-blend-mode:normal" mask="url(#aea)" figma:type="frame"><path d="M-309-199h46v46h-46v-46z" fill="#FFF"/><use xlink:href="#aeb" transform="translate(-309 -199)" fill="#3BB75E" style="mix-blend-mode:normal" figma:type="vector"/></g></g><defs><path id="aeb" d="M23 0C10.297 0 0 10.297 0 23s10.297 23 23 23 23-10.297 23-23S35.703 0 23 0zm10.969 12.75l2.812 2.844-19.093 19.093c-2.796-2.86-5.641-5.671-8.47-8.5l2.813-2.812 5.656 5.656L33.97 12.75z"/></defs></svg><svg width="48" height="48" viewBox="0 0 48 48" xmlns:figma="http://www.figma.com/figma/ns" id="cheers" x="144" y="48"><title>cheers</title><desc>Created using Figma</desc><g transform="translate(-119 45)" figma:type="canvas"><mask id="afa"><path d="M119-45h48V3h-48v-48z" fill="#FFF"/></mask><g style="mix-blend-mode:normal" mask="url(#afa)" figma:type="frame"><use xlink:href="#afb" transform="translate(121.425 -45)" fill="#3BB75E" style="mix-blend-mode:normal" figma:type="vector"/></g></g><defs><path id="afb" d="M26.04 6.216l3.835-2.376a.886.886 0 1 1 .934 1.507l-3.834 2.376a.886.886 0 0 1-.934-1.508zm-1.89-.744a.886.886 0 0 0 .997-.76l.5-3.707A.887.887 0 1 0 23.89.768l-.5 3.707a.887.887 0 0 0 .76.997zm-5.77-3.377a.888.888 0 0 0-1.218 1.29l2.592 2.447a.885.885 0 0 0 1.253-.036.887.887 0 0 0-.036-1.254L18.38 2.095zm2.657 10.658a.89.89 0 0 1 .075.674l-3.034 10.497c-1.07 3.7-4.247 6.285-7.727 6.285-.351 0-.701-.03-1.048-.083l-3.638 12.59 2.828.818A.886.886 0 1 1 8 45.238L.64 43.11a.887.887 0 0 1 .493-1.704l2.828.818 3.64-12.594c-1.584-.686-2.867-1.94-3.662-3.611-.912-1.92-1.073-4.163-.452-6.314l.089-.306-.016-.028.028-.015L6.521 9.21a.884.884 0 0 1 1.097-.605l12.888 3.724a.883.883 0 0 1 .53.424zm-4.643 10.614c-.884.214-1.596.354-2.258.354-1.293 0-2.431-.518-4.467-1.972-2.026-1.448-3.722-1.309-4.593-1.076-.353 1.585-.195 3.196.466 4.586.709 1.492 1.911 2.55 3.386 2.974a5.12 5.12 0 0 0 1.423.203c2.696 0 5.172-2.058 6.024-5.004l.019-.065zm2.769-9.58L7.979 10.555 5.6 18.79c1.296-.132 3.098.085 5.101 1.515 2.77 1.98 3.18 1.874 5.85 1.196l.413-.104 2.2-7.61zm23.556 32.16l-7.389 2.022a.887.887 0 0 1-.467-1.711l2.839-.777-3.46-12.642a6.84 6.84 0 0 1-.949.068c-3.525 0-6.705-2.63-7.734-6.396l-2.883-10.539a.887.887 0 0 1 .622-1.09l12.938-3.538a.889.889 0 0 1 1.09.621l2.883 10.539c.59 2.16.398 4.398-.544 6.306-.818 1.66-2.119 2.895-3.712 3.56l3.46 12.643 2.84-.777a.89.89 0 0 1 1.09.622.888.888 0 0 1-.624 1.089zm-16.013-22.85c2.67.677 3.081.782 5.85-1.196 2.075-1.481 3.934-1.661 5.237-1.5l-1.946-7.113L24.62 16.36l1.826 6.671.26.066zm7.942 7.854c1.48-.405 2.696-1.444 3.427-2.925.749-1.518.899-3.313.422-5.054l-.181-.663c-.823-.253-2.59-.491-4.727 1.036-2.037 1.454-3.175 1.971-4.47 1.971-.632 0-1.307-.126-2.136-.324l.287 1.05c.819 2.998 3.295 5.092 6.023 5.092.456 0 .91-.062 1.35-.182l.003-.001h.002z"/></defs></svg><svg width="48" height="48" viewBox="0 0 48 48" xmlns:figma="http://www.figma.com/figma/ns" id="custom" x="144" y="96"><title>custom</title><desc>Created using Figma</desc><g transform="translate(233 -195)" figma:type="canvas"><mask id="aga"><path d="M-233 195h48v48h-48v-48z" fill="#FFF"/></mask><g style="mix-blend-mode:normal" mask="url(#aga)" figma:type="frame" fill="#3BB75E"><use xlink:href="#agb" transform="translate(-233 200)" style="mix-blend-mode:normal" figma:type="vector"/><use xlink:href="#agc" transform="translate(-212.879 219.953)" style="mix-blend-mode:normal" figma:type="vector"/><use xlink:href="#agd" transform="translate(-232.998 201.714)" style="mix-blend-mode:normal" figma:type="vector"/><use xlink:href="#age" transform="rotate(90 -219.5 6.5)" style="mix-blend-mode:normal" figma:type="line"/><use xlink:href="#agf" transform="translate(-206 219)" style="mix-blend-mode:normal" figma:type="line"/></g></g><defs><path id="agb" d="M8.571 17.143a8.514 8.514 0 0 0 3.4-.708c.34.392.685.785 1.052 1.184.398-.41.805-.819 1.22-1.224-.254-.276-.513-.555-.748-.824a8.533 8.533 0 0 0 1.747-1.678l.89.708c.426-.393.86-.779 1.294-1.161l-1.248-.994c.596-1.17.965-2.47.965-3.875A8.57 8.57 0 0 0 8.57 0 8.57 8.57 0 0 0 0 8.571a8.57 8.57 0 0 0 8.571 8.572zm0-15.429a6.864 6.864 0 0 1 6.858 6.857A6.864 6.864 0 0 1 8.57 15.43a6.864 6.864 0 0 1-6.856-6.86 6.864 6.864 0 0 1 6.857-6.857z"/><path id="agc" d="M4.107 1.095l16.46 13.11c-3.417-.669-9.914-3.513-18.092-10.027-.389-.31-.725-.607-1.095-.912L0 4.366c.465.386.926.772 1.406 1.154 10.368 8.26 20.683 12.552 23.043 9.59L5.481 0 4.107 1.095z"/><path id="agd" d="M16.178 23.555L44.57.938c-2.36-2.964-12.677 1.329-23.044 9.59-3.785 3.015-7.045 6.139-9.555 9.038a8.4 8.4 0 0 0-1.776-.544 8.447 8.447 0 0 0-1.624-.164A8.57 8.57 0 0 0 0 27.429 8.57 8.57 0 0 0 8.571 36a8.57 8.57 0 0 0 8.572-8.571c0-.763-.132-1.491-.32-2.196a8.43 8.43 0 0 0-.645-1.678zm6.416-11.687C30.771 5.354 37.27 2.51 40.685 1.842L15.242 22.108a8.53 8.53 0 0 0-1.747-1.678c2.225-2.55 5.2-5.457 9.1-8.562zM8.57 34.286a6.864 6.864 0 0 1-6.857-6.857 6.864 6.864 0 0 1 6.857-6.857 6.864 6.864 0 0 1 6.857 6.857 6.864 6.864 0 0 1-6.857 6.857z"/><path id="age" d="M0 0h2.125v-2H0v2zm6.375 0h4.25v-2h-4.25v2zm8.5 0H17v-2h-2.125v2z"/><path id="agf" d="M0 0h1.313v-2H0v2zm3.938 0h2.624v-2H3.938v2zm5.25 0h2.624v-2H9.188v2zm5.25 0h2.624v-2h-2.625v2zm5.25 0H21v-2h-1.313v2z"/></defs></svg><svg width="72" height="72" viewBox="0 0 72 72" xmlns:figma="http://www.figma.com/figma/ns" id="cv"><title>cv</title><desc>Created using Figma</desc><g transform="translate(-255 205)" figma:type="canvas"><mask id="aha"><path d="M255-205h72v72h-72v-72z" fill="#FFF"/></mask><g style="mix-blend-mode:normal" mask="url(#aha)" figma:type="frame" fill="#3BB75E"><use xlink:href="#ahb" transform="translate(265 -205)" style="mix-blend-mode:normal" figma:type="vector"/><use xlink:href="#ahc" transform="translate(278.747 -199.189)" style="mix-blend-mode:normal" figma:type="vector"/><use xlink:href="#ahd" transform="translate(271.866 -165.513)" style="mix-blend-mode:normal" figma:type="vector"/><use xlink:href="#ahe" transform="translate(271.866 -155.068)" style="mix-blend-mode:normal" figma:type="vector"/><use xlink:href="#ahf" transform="translate(281.04 -144.608)" style="mix-blend-mode:normal" figma:type="vector"/><use xlink:href="#ahg" transform="translate(285.613 -144.608)" style="mix-blend-mode:normal" figma:type="vector"/><use xlink:href="#ahg" transform="translate(276.453 -144.608)" style="mix-blend-mode:normal" figma:type="vector"/></g></g><defs><path id="ahb" d="M0 0v72h35.995L55 52.739V0H0zm2.28 2.324h50.413v48.77h-18.32v18.582H2.28V2.324zM51.083 53.42l-14.43 14.61V53.42h14.431z"/><path id="ahc" d="M13.746 27.865c7.58 0 13.747-6.25 13.747-13.933C27.493 6.25 21.326 0 13.747 0 6.166 0 0 6.25 0 13.932s6.167 13.933 13.746 13.933zM6.181 22.62c.084-4.168 3.44-7.526 7.565-7.526 4.126 0 7.496 3.358 7.58 7.525-2.028 1.815-4.67 2.92-7.58 2.92a11.255 11.255 0 0 1-7.565-2.92zm4.839-12.615c0-1.53 1.23-2.763 2.726-2.763 1.51 0 2.727 1.247 2.727 2.763 0 1.531-1.23 2.764-2.726 2.764-1.51 0-2.727-1.247-2.727-2.764zm2.726-7.682c6.321 0 11.454 5.216 11.454 11.608 0 2.353-.7 4.55-1.902 6.392-.783-3.118-3.007-5.655-5.916-6.831a5.09 5.09 0 0 0 1.385-3.487c0-2.806-2.252-5.088-5.02-5.088-2.77 0-5.02 2.282-5.02 5.088a5.11 5.11 0 0 0 1.384 3.487c-2.91 1.176-5.133 3.713-5.916 6.831a11.59 11.59 0 0 1-1.902-6.392c0-6.406 5.133-11.608 11.454-11.608z"/><path id="ahd" d="M41.254 0H0v2.324h41.254V0z"/><path id="ahe" d="M20.627 0H0v2.324h20.627V0z"/><path id="ahf" d="M2.293 0H0v2.324h2.293V0z"/><path id="ahg" d="M2.293 0H0v2.324h2.293V0z"/></defs></svg><svg width="48" height="48" viewBox="0 0 48 48" xmlns:figma="http://www.figma.com/figma/ns" id="date" x="48" y="144"><title>date</title><desc>Created using Figma</desc><g transform="translate(321 -115)" figma:type="canvas"><mask id="aia"><path d="M-321 115h48v48h-48v-48z" fill="#FFF"/></mask><g style="mix-blend-mode:normal" mask="url(#aia)" figma:type="frame"><g style="mix-blend-mode:normal" figma:type="vector" transform="translate(-321 116.5)" fill="#3BB75E"><use xlink:href="#aib" style="mix-blend-mode:normal"/><use xlink:href="#aic" style="mix-blend-mode:normal"/><use xlink:href="#aid" style="mix-blend-mode:normal"/><use xlink:href="#aie" style="mix-blend-mode:normal"/><use xlink:href="#aif" style="mix-blend-mode:normal"/><use xlink:href="#aig" style="mix-blend-mode:normal"/><use xlink:href="#aih" style="mix-blend-mode:normal"/><use xlink:href="#aii" style="mix-blend-mode:normal"/><use xlink:href="#aij" style="mix-blend-mode:normal"/><use xlink:href="#aik" style="mix-blend-mode:normal"/><use xlink:href="#ail" style="mix-blend-mode:normal"/><use xlink:href="#aim" style="mix-blend-mode:normal"/><use xlink:href="#ain" style="mix-blend-mode:normal"/><use xlink:href="#aio" style="mix-blend-mode:normal"/><use xlink:href="#aip" style="mix-blend-mode:normal"/></g></g></g><defs><path id="aib" fill-rule="evenodd" d="M46 5H2v38h44V5zM2 3a2 2 0 0 0-2 2v38a2 2 0 0 0 2 2h44a2 2 0 0 0 2-2V5a2 2 0 0 0-2-2H2z"/><path id="aic" fill-rule="evenodd" d="M10.5 0a1 1 0 0 1 1 1v6a1 1 0 1 1-2 0V1a1 1 0 0 1 1-1z"/><path id="aid" fill-rule="evenodd" d="M37.5 0a1 1 0 0 1 1 1v6a1 1 0 1 1-2 0V1a1 1 0 0 1 1-1z"/><path id="aie" d="M9.5 17.2c0-.11.09-.2.2-.2h1.6c.11 0 .2.09.2.2v1.6a.2.2 0 0 1-.2.2H9.7a.2.2 0 0 1-.2-.2v-1.6z"/><path id="aif" d="M18.5 17.2c0-.11.09-.2.2-.2h1.6c.11 0 .2.09.2.2v1.6a.2.2 0 0 1-.2.2h-1.6a.2.2 0 0 1-.2-.2v-1.6z"/><path id="aig" d="M27.5 17.2c0-.11.09-.2.2-.2h1.6c.11 0 .2.09.2.2v1.6a.2.2 0 0 1-.2.2h-1.6a.2.2 0 0 1-.2-.2v-1.6z"/><path id="aih" d="M36.5 17.2c0-.11.09-.2.2-.2h1.6c.11 0 .2.09.2.2v1.6a.2.2 0 0 1-.2.2h-1.6a.2.2 0 0 1-.2-.2v-1.6z"/><path id="aii" d="M9.5 24.2c0-.11.09-.2.2-.2h1.6c.11 0 .2.09.2.2v1.6a.2.2 0 0 1-.2.2H9.7a.2.2 0 0 1-.2-.2v-1.6z"/><path id="aij" d="M18.5 24.2c0-.11.09-.2.2-.2h1.6c.11 0 .2.09.2.2v1.6a.2.2 0 0 1-.2.2h-1.6a.2.2 0 0 1-.2-.2v-1.6z"/><path id="aik" d="M27.5 24.2c0-.11.09-.2.2-.2h1.6c.11 0 .2.09.2.2v1.6a.2.2 0 0 1-.2.2h-1.6a.2.2 0 0 1-.2-.2v-1.6z"/><path id="ail" d="M36.5 24.2c0-.11.09-.2.2-.2h1.6c.11 0 .2.09.2.2v1.6a.2.2 0 0 1-.2.2h-1.6a.2.2 0 0 1-.2-.2v-1.6z"/><path id="aim" d="M9.5 31.2c0-.11.09-.2.2-.2h1.6c.11 0 .2.09.2.2v1.6a.2.2 0 0 1-.2.2H9.7a.2.2 0 0 1-.2-.2v-1.6z"/><path id="ain" d="M18.5 31.2c0-.11.09-.2.2-.2h1.6c.11 0 .2.09.2.2v1.6a.2.2 0 0 1-.2.2h-1.6a.2.2 0 0 1-.2-.2v-1.6z"/><path id="aio" d="M27.5 31.2c0-.11.09-.2.2-.2h1.6c.11 0 .2.09.2.2v1.6a.2.2 0 0 1-.2.2h-1.6a.2.2 0 0 1-.2-.2v-1.6z"/><path id="aip" d="M36.5 31.2c0-.11.09-.2.2-.2h1.6c.11 0 .2.09.2.2v1.6a.2.2 0 0 1-.2.2h-1.6a.2.2 0 0 1-.2-.2v-1.6z"/></defs></svg><svg width="12" height="12" viewBox="0 0 12 12" xmlns:figma="http://www.figma.com/figma/ns" id="date-small" x="312" y="94"><title>date-small</title><desc>Created using Figma</desc><g transform="translate(-88 120)" figma:type="canvas"><mask id="aja"><path d="M88-120h12v12H88v-12z" fill="#FFF"/></mask><g style="mix-blend-mode:normal" mask="url(#aja)" figma:type="frame"><g style="mix-blend-mode:normal" figma:type="vector" transform="translate(88 -119.125)" fill="#3BB75E"><use xlink:href="#ajb" style="mix-blend-mode:normal"/><use xlink:href="#ajc" style="mix-blend-mode:normal"/><use xlink:href="#ajd" style="mix-blend-mode:normal"/><use xlink:href="#aje" style="mix-blend-mode:normal"/><use xlink:href="#ajf" style="mix-blend-mode:normal"/><use xlink:href="#ajg" style="mix-blend-mode:normal"/><use xlink:href="#ajh" style="mix-blend-mode:normal"/><use xlink:href="#aji" style="mix-blend-mode:normal"/><use xlink:href="#ajj" style="mix-blend-mode:normal"/><use xlink:href="#ajk" style="mix-blend-mode:normal"/><use xlink:href="#ajl" style="mix-blend-mode:normal"/><use xlink:href="#ajm" style="mix-blend-mode:normal"/><use xlink:href="#ajn" style="mix-blend-mode:normal"/><use xlink:href="#ajo" style="mix-blend-mode:normal"/><use xlink:href="#ajp" style="mix-blend-mode:normal"/></g></g></g><defs><path id="ajb" fill-rule="evenodd" d="M11.5 1.222H.5v9.29h11v-9.29zM.5.733c-.276 0-.5.22-.5.49v9.288c0 .27.224.489.5.489h11c.276 0 .5-.219.5-.489V1.222a.495.495 0 0 0-.5-.489H.5z"/><path id="ajc" fill-rule="evenodd" d="M2.625 0c.138 0 .25.11.25.244v1.467a.247.247 0 0 1-.25.245.247.247 0 0 1-.25-.245V.244c0-.135.112-.244.25-.244z"/><path id="ajd" fill-rule="evenodd" d="M9.375 0c.138 0 .25.11.25.244v1.467a.247.247 0 0 1-.25.245.247.247 0 0 1-.25-.245V.244c0-.135.112-.244.25-.244z"/><path id="aje" d="M2.375 4.204a.05.05 0 0 1 .05-.048h.4a.05.05 0 0 1 .05.048v.392a.05.05 0 0 1-.05.048h-.4a.05.05 0 0 1-.05-.048v-.392z"/><path id="ajf" d="M4.625 4.204a.05.05 0 0 1 .05-.048h.4a.05.05 0 0 1 .05.048v.392a.05.05 0 0 1-.05.048h-.4a.05.05 0 0 1-.05-.048v-.392z"/><path id="ajg" d="M6.875 4.204a.05.05 0 0 1 .05-.048h.4a.05.05 0 0 1 .05.048v.392a.05.05 0 0 1-.05.048h-.4a.05.05 0 0 1-.05-.048v-.392z"/><path id="ajh" d="M9.125 4.204a.05.05 0 0 1 .05-.048h.4a.05.05 0 0 1 .05.048v.392a.05.05 0 0 1-.05.048h-.4a.05.05 0 0 1-.05-.048v-.392z"/><path id="aji" d="M2.375 5.916a.05.05 0 0 1 .05-.05h.4a.05.05 0 0 1 .05.05v.39a.05.05 0 0 1-.05.05h-.4a.05.05 0 0 1-.05-.05v-.39z"/><path id="ajj" d="M4.625 5.916a.05.05 0 0 1 .05-.05h.4a.05.05 0 0 1 .05.05v.39a.05.05 0 0 1-.05.05h-.4a.05.05 0 0 1-.05-.05v-.39z"/><path id="ajk" d="M6.875 5.916a.05.05 0 0 1 .05-.05h.4a.05.05 0 0 1 .05.05v.39a.05.05 0 0 1-.05.05h-.4a.05.05 0 0 1-.05-.05v-.39z"/><path id="ajl" d="M9.125 5.916a.05.05 0 0 1 .05-.05h.4a.05.05 0 0 1 .05.05v.39a.05.05 0 0 1-.05.05h-.4a.05.05 0 0 1-.05-.05v-.39z"/><path id="ajm" d="M2.375 7.627a.05.05 0 0 1 .05-.05h.4a.05.05 0 0 1 .05.05v.39a.05.05 0 0 1-.05.05h-.4a.05.05 0 0 1-.05-.05v-.39z"/><path id="ajn" d="M4.625 7.627a.05.05 0 0 1 .05-.05h.4a.05.05 0 0 1 .05.05v.39a.05.05 0 0 1-.05.05h-.4a.05.05 0 0 1-.05-.05v-.39z"/><path id="ajo" d="M6.875 7.627a.05.05 0 0 1 .05-.05h.4a.05.05 0 0 1 .05.05v.39a.05.05 0 0 1-.05.05h-.4a.05.05 0 0 1-.05-.05v-.39z"/><path id="ajp" d="M9.125 7.627a.05.05 0 0 1 .05-.05h.4a.05.05 0 0 1 .05.05v.39a.05.05 0 0 1-.05.05h-.4a.05.05 0 0 1-.05-.05v-.39z"/></defs></svg><svg width="48" height="48" viewBox="0 0 48 48" xmlns:figma="http://www.figma.com/figma/ns" id="decision-tree" x="144" y="144"><title>decision-tree</title><desc>Created using Figma</desc><g transform="translate(145 -195)" figma:type="canvas"><mask id="aka"><path d="M-145 195h48v48h-48v-48z" fill="#FFF"/></mask><g style="mix-blend-mode:normal" mask="url(#aka)" figma:type="frame" fill="#3BB75E"><use xlink:href="#akb" transform="translate(-126.766 196.448)" style="mix-blend-mode:normal" figma:type="vector"/><use xlink:href="#akc" transform="translate(-135.038 209.603)" style="mix-blend-mode:normal" figma:type="vector"/><use xlink:href="#akd" transform="translate(-109.877 195)" style="mix-blend-mode:normal" figma:type="vector"/><use xlink:href="#ake" transform="translate(-143.907 208.477)" style="mix-blend-mode:normal" figma:type="vector"/><use xlink:href="#akf" transform="translate(-117.808 230.824)" style="mix-blend-mode:normal" figma:type="vector"/></g></g><defs><path id="akb" d="M.287 10.488a.926.926 0 0 0 .657.28.926.926 0 0 0 .656-.28l3.8-3.8 3.798 3.8a.926.926 0 0 0 .656.28.926.926 0 0 0 .657-.28c.352-.352.352-.938 0-1.314L6.712 5.376l3.799-3.8c.352-.35.352-.937 0-1.312-.352-.352-.938-.352-1.313 0L5.399 4.063 1.577.287C1.225-.064.639-.064.264.287c-.352.352-.352.938 0 1.313l3.799 3.8-3.8 3.798a.9.9 0 0 0 .024 1.29z"/><path id="akc" d="M36.768 5.282L31.75.264c-.352-.352-.938-.352-1.313 0l-5.018 5.018c-.352.352-.352.938 0 1.313a.926.926 0 0 0 .656.281c.235 0 .516-.093.704-.281l3.47-3.447V5c0 4.643-3.845 8.395-8.488 8.395H10.224C4.549 13.395 0 18.015 0 23.69v8.794a.92.92 0 0 0 .938.914c.516 0 .938-.422.938-.914V23.69c0-4.643 3.681-8.418 8.324-8.418h11.537c5.651 0 10.365-4.62 10.365-10.27V3.147l3.376 3.447a.875.875 0 0 0 .633.281.837.837 0 0 0 .634-.281.907.907 0 0 0 .023-1.313z"/><path id="akd" d="M5.933 11.865a5.94 5.94 0 0 0 5.932-5.932A5.924 5.924 0 0 0 5.933 0C2.65 0 0 2.697 0 5.956c0 3.26 2.673 5.91 5.933 5.91zm0-9.99a4.083 4.083 0 0 1 4.08 4.081 4.083 4.083 0 0 1-4.08 4.08 4.083 4.083 0 0 1-4.08-4.08 4.083 4.083 0 0 1 4.08-4.08z"/><path id="ake" d="M9.174 10.511a.906.906 0 0 0 1.29-.023c.352-.352.352-.938 0-1.314L6.665 5.376l3.8-3.8c.35-.35.35-.937 0-1.312-.353-.352-.939-.352-1.314 0L5.352 4.063 1.577.31C1.225-.041.639-.041.264.31c-.352.351-.352.938 0 1.313l3.799 3.799-3.8 3.798c-.35.352-.35.938 0 1.313a.926.926 0 0 0 .657.282.926.926 0 0 0 .657-.282l3.799-3.798 3.798 3.775z"/><path id="akf" d="M10.488.264c-.352-.352-.938-.352-1.314 0L5.376 4.063l-3.8-3.8c-.35-.35-.937-.35-1.312 0-.352.353-.352.939 0 1.314l3.799 3.799-3.8 3.798c-.35.352-.35.938 0 1.314a.926.926 0 0 0 .657.28.926.926 0 0 0 .657-.28l3.799-3.8 3.798 3.8a.926.926 0 0 0 .657.28.926.926 0 0 0 .657-.28c.351-.352.351-.938 0-1.314l-3.8-3.798 3.8-3.8c.375-.374.375-.96 0-1.312z"/></defs></svg><svg width="48" height="48" viewBox="0 0 48 48" xmlns:figma="http://www.figma.com/figma/ns" id="easy-integration" x="192"><title>easy-integration</title><desc>Created using Figma</desc><g transform="translate(233 205)" figma:type="canvas"><mask id="ala"><path d="M-233-205h48v48h-48v-48z" fill="#FFF"/></mask><g style="mix-blend-mode:normal" mask="url(#ala)" figma:type="frame"><g style="mix-blend-mode:normal" figma:type="vector" transform="translate(-233 -205)" fill="#3BB75E"><use xlink:href="#alb" style="mix-blend-mode:normal"/><use xlink:href="#alc" style="mix-blend-mode:normal"/><use xlink:href="#ald" style="mix-blend-mode:normal"/><use xlink:href="#ale" style="mix-blend-mode:normal"/></g></g></g><defs><path id="alb" fill-rule="evenodd" d="M35.998 30.232l-2-.026a16.021 16.021 0 0 1-.486 3.734l1.938.49c.345-1.363.53-2.77.548-4.198zm-1.856-8.205l-1.792.887c.557 1.126.98 2.315 1.257 3.547l1.951-.44a17.882 17.882 0 0 0-1.416-3.994zm-5.413-6.482l-1.194 1.606c1.011.75 1.93 1.619 2.74 2.585l1.533-1.284a18.099 18.099 0 0 0-3.08-2.907zm-7.963-3.334l-.305 1.977c1.25.193 2.466.533 3.625 1.01l.762-1.85a17.878 17.878 0 0 0-4.082-1.137zm-7.418.396l.515 1.933a15.961 15.961 0 0 1 2.963-.498l-.144-1.994a17.92 17.92 0 0 0-3.334.56z"/><path id="alc" fill-rule="evenodd" d="M12.012 17.323l2 .074c.046-1.27.242-2.516.579-3.72l-1.926-.54c-.38 1.356-.6 2.758-.652 4.186zm1.653 8.249l1.815-.842a15.875 15.875 0 0 1-1.17-3.577l-1.96.392a17.871 17.871 0 0 0 1.316 4.027zm5.249 6.61l1.232-1.575a16.1 16.1 0 0 1-2.673-2.652L15.908 29.2a18.103 18.103 0 0 0 3.006 2.982zm7.864 3.53l.356-1.968a15.871 15.871 0 0 1-3.598-1.103l-.81 1.829c1.293.571 2.651.989 4.052 1.242zm7.931-.335l-.522-1.93a15.975 15.975 0 0 1-3.406.534l.096 1.998a17.983 17.983 0 0 0 3.832-.602z"/><path id="ald" fill-rule="evenodd" d="M0 30c0 9.941 8.059 18 18 18a18.006 18.006 0 0 0 17.45-13.57l-1.939-.49A16.006 16.006 0 0 1 18 46C9.163 46 2 38.837 2 30a16.007 16.007 0 0 1 11.856-15.459l-.516-1.932A18.006 18.006 0 0 0 0 30z"/><path id="ale" fill-rule="evenodd" d="M48 18c0-9.941-8.059-18-18-18a18.007 18.007 0 0 0-17.335 13.138l1.926.539A16.007 16.007 0 0 1 30 2c8.837 0 16 7.163 16 16 0 7.27-4.892 13.573-11.807 15.445l.522 1.93A18.006 18.006 0 0 0 48 18z"/></defs></svg><svg width="48" height="48" viewBox="0 0 48 48" xmlns:figma="http://www.figma.com/figma/ns" id="export" x="192" y="48"><title>export</title><desc>Created using Figma</desc><g transform="translate(233 -115)" figma:type="canvas"><mask id="ama"><path d="M-233 115h48v48h-48v-48z" fill="#FFF"/></mask><g style="mix-blend-mode:normal" mask="url(#ama)" figma:type="frame"><use xlink:href="#amb" transform="translate(-233 121.247)" fill="#3BB75E" style="mix-blend-mode:normal" figma:type="vector"/></g></g><defs><path id="amb" d="M19.428 0C14.278 0 9.631.566 6.18 1.54c-1.726.486-3.149 1.065-4.232 1.79C.924 4.013.107 4.94.02 6.103v.018A1.196 1.196 0 0 0 0 6.3v20.62c0 1.26.812 2.244 1.876 3.08 1.063.835 2.483 1.564 4.214 2.201 3.461 1.276 8.144 2.166 13.338 2.166 3.754 0 7.04-.45 9.982-1.181a1.145 1.145 0 0 0 .872-.939 1.153 1.153 0 0 0-.959-1.318 1.145 1.145 0 0 0-.449.02c-2.767.688-5.873 1.127-9.446 1.127-4.935 0-9.404-.862-12.553-2.022-1.574-.58-2.807-1.23-3.589-1.844-.782-.614-1-1.121-1-1.289v-1.324c1.03.742 2.326 1.322 3.84 1.825 3.48 1.158 8.144 1.79 13.302 1.79 3.37 0 5.981-.066 8.786-.59a1.145 1.145 0 0 0 .9-1.34 1.148 1.148 0 0 0-1.329-.916c-2.59.484-5.018.555-8.357.555-4.971 0-9.46-.624-12.588-1.665-1.565-.52-2.78-1.16-3.536-1.79-.756-.63-1.018-1.157-1.018-1.7V20.37c1.036.761 2.303 1.387 3.84 1.898 3.48 1.157 8.144 1.79 13.302 1.79 4.304 0 7.39-.373 10.571-1.182a1.141 1.141 0 0 0 .847-.95 1.15 1.15 0 0 0-.973-1.294 1.14 1.14 0 0 0-.445.025c-3.007.764-5.825 1.11-10 1.11-4.971 0-9.46-.625-12.588-1.665-1.565-.52-2.78-1.16-3.536-1.79-.756-.63-1.018-1.159-1.018-1.7a1.154 1.154 0 0 0 0-.108v-1.217c1.03.743 2.326 1.322 3.84 1.826 3.48 1.157 8.144 1.79 13.302 1.79 5.159 0 9.822-.633 13.303-1.79 1.514-.504 2.81-1.083 3.84-1.826v1.897a1.15 1.15 0 0 0 .7 1.073 1.14 1.14 0 0 0 1.585-1.073v-5.727a1.131 1.131 0 0 0 0-.108V6.193a1.147 1.147 0 0 0-.018-.107c-.095-1.154-.91-2.076-1.928-2.757-1.084-.724-2.507-1.303-4.232-1.79C29.226.566 24.58 0 19.428 0zm0 2.291c4.979 0 9.466.56 12.625 1.45 1.579.445 2.826.994 3.589 1.503.762.51.928.89.928 1.057 0 .542-.261 1.07-1.018 1.7-.756.63-1.97 1.27-3.535 1.79-3.129 1.04-7.617 1.665-12.589 1.665-4.971 0-9.46-.625-12.588-1.665C5.275 9.27 4.06 8.63 3.304 8c-.756-.63-1.018-1.158-1.018-1.7 0-.168.167-.547.929-1.057.762-.51 2.01-1.058 3.59-1.503 3.158-.89 7.645-1.45 12.623-1.45zm-17.142 7.84c1.03.743 2.326 1.322 3.84 1.826 3.48 1.157 8.144 1.79 13.302 1.79 5.159 0 9.822-.633 13.303-1.79 1.514-.504 2.81-1.083 3.84-1.826v1.253a.433.433 0 0 0 0 .072c0 .542-.262 1.07-1.019 1.7-.756.63-1.97 1.27-3.535 1.79-3.129 1.04-7.617 1.664-12.589 1.664-4.971 0-9.46-.624-12.588-1.664-1.565-.52-2.78-1.16-3.536-1.79-.756-.63-1.018-1.158-1.018-1.7a1.152 1.152 0 0 0 0-.108v-1.217zm37.659 10.471a1.14 1.14 0 0 0-1.035.76 1.148 1.148 0 0 0 .32 1.245l4.68 4.313H32a1.143 1.143 0 0 0-1.207 1.2 1.148 1.148 0 0 0 1.206 1.091h11.91l-4.678 4.296a1.148 1.148 0 0 0 1.152 1.932c.142-.051.272-.13.383-.231l6.857-6.3a1.148 1.148 0 0 0 0-1.701l-6.857-6.3a1.143 1.143 0 0 0-.821-.305z"/></defs></svg><svg width="48" height="48" viewBox="0 0 48 48" xmlns:figma="http://www.figma.com/figma/ns" id="fast" x="192" y="96"><title>fast</title><desc>Created using Figma</desc><g transform="translate(321 -185)" figma:type="canvas"><mask id="ana"><path d="M-321 185h48v48h-48v-48z" fill="#FFF"/></mask><g style="mix-blend-mode:normal" mask="url(#ana)" figma:type="frame"><g style="mix-blend-mode:normal" figma:type="vector" transform="translate(-321 196)" fill="#3BB75E"><use xlink:href="#anb" style="mix-blend-mode:normal"/><use xlink:href="#anc" style="mix-blend-mode:normal"/><use xlink:href="#and" style="mix-blend-mode:normal"/><use xlink:href="#ane" style="mix-blend-mode:normal"/><use xlink:href="#anf" style="mix-blend-mode:normal"/><use xlink:href="#ang" style="mix-blend-mode:normal"/></g></g></g><defs><path id="anb" fill-rule="evenodd" d="M45 2H15a1 1 0 0 0-1 1v20a1 1 0 0 0 1 1h30a1 1 0 0 0 1-1V3a1 1 0 0 0-1-1zM15 0a3 3 0 0 0-3 3v20a3 3 0 0 0 3 3h30a3 3 0 0 0 3-3V3a3 3 0 0 0-3-3H15z"/><path id="anc" fill-rule="evenodd" d="M12.454 8.955a1 1 0 0 1 1-1h33.483a1 1 0 1 1 0 2H13.454a1 1 0 0 1-1-1z"/><path id="and" fill-rule="evenodd" d="M16 5a1 1 0 0 1 1-1h4a1 1 0 1 1 0 2h-4a1 1 0 0 1-1-1z"/><path id="ane" fill-rule="evenodd" d="M3 5a1 1 0 0 1 1-1h6a1 1 0 1 1 0 2H4a1 1 0 0 1-1-1z"/><path id="anf" fill-rule="evenodd" d="M0 13a1 1 0 0 1 1-1h6a1 1 0 1 1 0 2H1a1 1 0 0 1-1-1z"/><path id="ang" fill-rule="evenodd" d="M4 21a1 1 0 0 1 1-1h3a1 1 0 1 1 0 2H5a1 1 0 0 1-1-1z"/></defs></svg><svg width="48" height="48" viewBox="0 0 48 48" xmlns:figma="http://www.figma.com/figma/ns" id="flexible" x="192" y="144"><title>flexible</title><desc>Created using Figma</desc><g transform="translate(233 -185)" figma:type="canvas"><mask id="aoa"><path d="M-233 185h48v48h-48v-48z" fill="#FFF"/></mask><g style="mix-blend-mode:normal" mask="url(#aoa)" figma:type="frame"><g style="mix-blend-mode:normal" figma:type="vector" transform="translate(-233.009 185)" fill="#3BB75E"><use xlink:href="#aob" style="mix-blend-mode:normal"/><use xlink:href="#aoc" style="mix-blend-mode:normal"/><use xlink:href="#aod" style="mix-blend-mode:normal"/><use xlink:href="#aoe" style="mix-blend-mode:normal"/></g></g></g><defs><path id="aob" d="M13.294 33.849l-.029-2.136h-.123c-4.627 0-9.887.246-12.83 3.188-.2.2-.311.469-.312.755 0 .285.111.553.314.756.201.201.469.31.754.31.285 0 .553-.11.756-.311 2.363-2.364 7.126-2.561 11.335-2.561l.135-.001z"/><path id="aoc" d="M36.421 1.812a1.07 1.07 0 0 0 0-1.51 1.095 1.095 0 0 0-1.511 0c-4.48 4.482-3.826 9.87-3.194 15.084.609 5.007 1.184 9.736-2.7 13.62-2.52 2.521-7.362 2.732-11.702 2.732l-.303-.002v2.135l.302.003c4.768 0 10.114-.26 13.213-3.358 4.62-4.619 3.953-10.093 3.309-15.388-.596-4.921-1.16-9.57 2.586-13.316z"/><path id="aod" d="M18.994 18.984c2.142-2.143 4.637-3.098 8.089-3.098 1.297 0 2.619.127 3.993.291l-.304-2.183c-1.217-.136-2.449-.239-3.668-.239-4.027 0-7.084 1.181-9.62 3.719-3.45 3.45-3.397 9.502-3.346 15.371.047 5.255.094 10.688-2.549 13.333A1.07 1.07 0 0 0 12.344 48c.285 0 .554-.111.755-.313 3.277-3.276 3.225-9.167 3.175-14.872-.048-5.415-.098-11.014 2.72-13.831z"/><path id="aoe" d="M47.696 11.579a1.095 1.095 0 0 0-1.51 0c-2.153 2.153-4.656 3.113-8.117 3.113-1.194 0-2.408-.108-3.662-.254l.253 2.175c1.126.12 2.26.208 3.386.208 4.038 0 7.104-1.186 9.65-3.732a1.064 1.064 0 0 0 0-1.51z"/></defs></svg><svg width="48" height="48" viewBox="0 0 48 48" xmlns:figma="http://www.figma.com/figma/ns" id="infrastructure" y="192"><title>infrastructure</title><desc>Created using Figma</desc><g transform="translate(233 45)" figma:type="canvas"><mask id="apa"><path d="M-233-45h48V3h-48v-48z" fill="#FFF"/></mask><g style="mix-blend-mode:normal" mask="url(#apa)" figma:type="frame"><g style="mix-blend-mode:normal" figma:type="vector" transform="translate(-233 -45)" fill="#3BB75E"><use xlink:href="#apb" style="mix-blend-mode:normal"/><use xlink:href="#apc" style="mix-blend-mode:normal"/><use xlink:href="#apd" style="mix-blend-mode:normal"/><use xlink:href="#ape" style="mix-blend-mode:normal"/></g></g></g><defs><path id="apb" d="M6 9a1 1 0 0 1 1-1h14a1 1 0 1 1 0 2H7a1 1 0 0 1-1-1z"/><path id="apc" d="M6 24a1 1 0 0 1 1-1h14a1 1 0 1 1 0 2H7a1 1 0 0 1-1-1z"/><path id="apd" d="M6 39a1 1 0 0 1 1-1h14a1 1 0 1 1 0 2H7a1 1 0 0 1-1-1z"/><path id="ape" d="M1 0a1 1 0 0 0-1 1v46a1 1 0 0 0 1 1h46a1 1 0 0 0 1-1V1a1 1 0 0 0-1-1H1zm44 2a1 1 0 0 1 1 1v11.97a1 1 0 0 1-1 1L3 16a1 1 0 0 1-1-1V3a1 1 0 0 1 1-1h42zm0 16a1 1 0 0 1 1 1v10.976a1 1 0 0 1-1 1L3 31a1 1 0 0 1-1-1V19.017a1 1 0 0 1 1-1L45 18zM3 45.983a1 1 0 0 1-1-1v-10.96a1 1 0 0 1 1-1L45 33a1 1 0 0 1 1 1v11a1 1 0 0 1-1 1l-42-.017z"/></defs></svg><svg width="48" height="48" viewBox="0 0 48 48" xmlns:figma="http://www.figma.com/figma/ns" id="libraries" x="48" y="192"><title>libraries</title><desc>Created using Figma</desc><g transform="translate(57 -115)" figma:type="canvas"><mask id="aqa"><path d="M-57 115h48v48h-48v-48z" fill="#FFF"/></mask><g style="mix-blend-mode:normal" mask="url(#aqa)" figma:type="frame" fill="#3BB75E"><g style="mix-blend-mode:normal" figma:type="vector" transform="translate(-55 115)"><use xlink:href="#aqb" style="mix-blend-mode:normal"/><use xlink:href="#aqc" style="mix-blend-mode:normal"/><use xlink:href="#aqd" style="mix-blend-mode:normal"/></g><g style="mix-blend-mode:normal" figma:type="vector" transform="translate(-55 141)"><use xlink:href="#aqb" style="mix-blend-mode:normal"/><use xlink:href="#aqc" style="mix-blend-mode:normal"/><use xlink:href="#aqd" style="mix-blend-mode:normal"/></g></g></g><defs><path id="aqb" fill-rule="evenodd" d="M2 8v12h40V8H2zM1 6a1 1 0 0 0-1 1v14a1 1 0 0 0 1 1h42a1 1 0 0 0 1-1V7a1 1 0 0 0-1-1H1z"/><path id="aqc" fill-rule="evenodd" d="M7 2v4h10V2H7zM6 0a1 1 0 0 0-1 1v6a1 1 0 0 0 1 1h12a1 1 0 0 0 1-1V1a1 1 0 0 0-1-1H6z"/><path id="aqd" fill-rule="evenodd" d="M27 2v4h10V2H27zm-1-2a1 1 0 0 0-1 1v6a1 1 0 0 0 1 1h12a1 1 0 0 0 1-1V1a1 1 0 0 0-1-1H26z"/></defs></svg><svg width="72" height="72" viewBox="0 0 72 72" xmlns:figma="http://www.figma.com/figma/ns" id="magic-hat" x="72"><title>magic-hat</title><desc>Created using Figma</desc><g transform="translate(57 45)" figma:type="canvas"><mask id="ara"><path d="M-57-45h72v72h-72v-72z" fill="#FFF"/></mask><g style="mix-blend-mode:normal" mask="url(#ara)" figma:type="frame"><g style="mix-blend-mode:normal" figma:type="vector" transform="translate(-57 -45)" fill="#3BB75E"><use xlink:href="#arb" style="mix-blend-mode:normal"/><use xlink:href="#arc" style="mix-blend-mode:normal"/></g></g></g><defs><path id="arb" fill-rule="evenodd" d="M36 70c18.778 0 34-15.222 34-34S54.778 2 36 2 2 17.222 2 36s15.222 34 34 34zm0 2c19.882 0 36-16.118 36-36S55.882 0 36 0 0 16.118 0 36s16.118 36 36 36z"/><path id="arc" fill-rule="evenodd" d="M22.255 21.177a.732.732 0 0 1 .972-1.093l3.15 2.804a.731.731 0 1 1-.971 1.092l-3.151-2.803zm5.328-6.51a.731.731 0 1 1 1.371-.508l2.803 7.557a.73.73 0 1 1-1.37.509l-2.804-7.557zm17.98 9.253a.731.731 0 0 1 .06-1.032l3.151-2.804a.731.731 0 1 1 .972 1.093l-3.151 2.803a.73.73 0 0 1-1.033-.06zm-5.32-2.204l2.803-7.557a.731.731 0 1 1 1.371.509l-2.803 7.557a.732.732 0 1 1-1.371-.509zm-4.974-.721V11.73a.731.731 0 1 1 1.463 0v9.264a.731.731 0 1 1-1.463 0zm11.374 9.277c0 2.979-10.001 3.013-10.427 3.013-.425 0-10.427-.034-10.427-3.013a.731.731 0 0 1 1.461-.04c.082.139.335.303.742.473 1.15-.69 4.297-1.185 8.008-1.185 3.898 0 7.173.546 8.166 1.29.568-.206.917-.41 1.015-.579a.732.732 0 0 1 1.462.04zM36 59.537c-7.266 0-11.264-1.641-11.343-2.51l1.685-16.229a40.12 40.12 0 0 0 3.416.53c1.98.225 4.08.34 6.242.34 3.486 0 6.871-.31 9.659-.872l1.685 16.232c-.08.868-4.077 2.51-11.344 2.51zm0-24.058c-9.414 0-15.195-2.423-15.195-4.162 0-1.737 5.781-4.161 15.195-4.161 9.415 0 15.196 2.424 15.196 4.162s-5.781 4.16-15.196 4.16zm0-9.786c-8.075 0-16.658 1.971-16.658 5.624 0 1.97 2.495 3.449 6.057 4.395l-2.203 21.214-.003.075C23.193 59.748 29.832 61 36 61c6.17 0 12.808-1.252 12.808-3.998l-2.207-21.29c3.563-.946 6.057-2.425 6.057-4.395 0-3.653-8.582-5.624-16.658-5.624z"/></defs></svg><svg width="48" height="48" viewBox="0 0 48 48" xmlns:figma="http://www.figma.com/figma/ns" id="multi-business" x="72" y="72"><title>multi-business</title><desc>Created using Figma</desc><g transform="translate(145 -115)" figma:type="canvas"><mask id="asa"><path d="M-145 115h48v48h-48v-48z" fill="#FFF"/></mask><g style="mix-blend-mode:normal" mask="url(#asa)" figma:type="frame"><g style="mix-blend-mode:normal" figma:type="vector" transform="translate(-145 119)" fill="#3BB75E"><use xlink:href="#asb" style="mix-blend-mode:normal"/><use xlink:href="#asc" style="mix-blend-mode:normal"/><use xlink:href="#asd" style="mix-blend-mode:normal"/><use xlink:href="#ase" style="mix-blend-mode:normal"/></g></g></g><defs><path id="asb" fill-rule="evenodd" d="M15 27.668H2v-18h8.435l3.414 2.94c.47.363 1.365.695 1.958.727H31v7.273h2v-8.273a1 1 0 0 0-1-1H15.807a1 1 0 0 1-.653-.243L11.46 7.91a1 1 0 0 0-.653-.242H1a1 1 0 0 0-1 1v20a1 1 0 0 0 1 1h14v-2z"/><path id="asc" fill-rule="evenodd" d="M17 36.941h29V22.608H30.807c-.593-.032-1.488-.364-1.958-.727l-3.414-2.94H17v18zm-2 1v-20a1 1 0 0 1 1-1h9.806a1 1 0 0 1 .653.242l3.695 3.182a1 1 0 0 0 .653.243H47a1 1 0 0 1 1 1V37.94a1 1 0 0 1-1 1H16a1 1 0 0 1-1-1z"/><path id="asd" fill-rule="evenodd" d="M36.603 3.084c-2.915-1.782-7.391-1.683-11.358 2.75a1 1 0 1 1-1.49-1.333C28.288-.565 33.812-.966 37.647 1.377c3.796 2.32 5.741 7.251 3.247 12.238a1 1 0 1 1-1.788-.894c2.006-4.013.451-7.832-2.503-9.637z"/><path id="ase" fill-rule="evenodd" d="M37.053 8.774a1 1 0 0 1 1.341.447l1.642 3.282 3.221-.805a1 1 0 1 1 .486 1.94l-4 1a1 1 0 0 1-1.137-.523l-2-4a1 1 0 0 1 .447-1.341z"/></defs></svg><svg width="48" height="48" viewBox="0 0 48 48" xmlns:figma="http://www.figma.com/figma/ns" id="multicurrency" x="192" y="192"><title>mullticurrency</title><desc>Created using Figma</desc><g transform="translate(57 205)" figma:type="canvas"><mask id="ata"><path d="M-57-205h48v48h-48v-48z" fill="#FFF"/></mask><g style="mix-blend-mode:normal" mask="url(#ata)" figma:type="frame"><g style="mix-blend-mode:normal" figma:type="vector" transform="translate(-56.52 -204.52)" fill="#3BB75E"><use xlink:href="#atb" style="mix-blend-mode:normal"/><use xlink:href="#atc" style="mix-blend-mode:normal"/><use xlink:href="#atd" style="mix-blend-mode:normal"/><use xlink:href="#ate" style="mix-blend-mode:normal"/><use xlink:href="#atf" style="mix-blend-mode:normal"/></g></g></g><defs><path id="atb" fill-rule="evenodd" d="M47.537 31.624c0 8.56-6.94 15.5-15.5 15.5-8.56 0-15.5-6.94-15.5-15.5 0-8.56 6.94-15.5 15.5-15.5 8.56 0 15.5 6.94 15.5 15.5zm-15.5 13.5c7.456 0 13.5-6.045 13.5-13.5 0-7.456-6.044-13.5-13.5-13.5s-13.5 6.044-13.5 13.5c0 7.455 6.044 13.5 13.5 13.5z"/><path id="atc" fill-rule="evenodd" d="M14.546 2.008c-7.175.25-12.788 6.27-12.538 13.446.198 5.655 3.98 10.343 9.09 11.95a12.52 12.52 0 0 0 3.488.59 1 1 0 1 1-.062 2 15.384 15.384 0 0 1-4.027-.682C4.604 27.458.237 22.052.009 15.524-.28 7.244 6.197.298 14.477.009 22.756-.28 29.702 6.197 29.99 14.477a1 1 0 0 1-1.999.07c-.25-7.176-6.27-12.79-13.446-12.539z"/><path id="atd" d="M35.761 35.59h-5.42a4.24 4.24 0 0 0 .869-2.484 5.137 5.137 0 0 0-.075-.827h2.144a.828.828 0 0 0 0-1.655h-2.592c-.041-.12-.082-.242-.124-.36a7.768 7.768 0 0 1-.595-2.537 2.28 2.28 0 0 1 2.483-2.069 4 4 0 0 1 2.72.994.827.827 0 0 0 1.185-1.156 5.672 5.672 0 0 0-3.905-1.493 3.904 3.904 0 0 0-4.138 3.724c.04.994.25 1.974.624 2.897h-.624a.828.828 0 0 0 0 1.655h1.135a3.9 3.9 0 0 1 .107.827 3.759 3.759 0 0 1-1.69 2.615.828.828 0 0 0 .448 1.523h7.448a.828.828 0 0 0 0-1.655z"/><path id="ate" d="M19.382 17.45c0-2.243-2.062-3.172-4.032-3.933l.426-3.842a1.593 1.593 0 0 1 1.262 1.155.828.828 0 0 0 1.655 0 3.224 3.224 0 0 0-2.73-2.828l.104-.942a.828.828 0 0 0-.731-.914.844.844 0 0 0-.914.73l-.103.927c-2.502.035-4.179 1.35-4.179 3.303 0 1.903 1.687 2.796 3.423 3.492l-.51 4.594a2.278 2.278 0 0 1-1.947-1.741.828.828 0 0 0-1.655 0 3.87 3.87 0 0 0 3.418 3.397l-.103.925a.83.83 0 0 0 .824.92.829.829 0 0 0 .822-.736l.103-.927c2.735-.037 4.867-1.593 4.867-3.58zm-7.586-6.344c0-1.354 1.607-1.601 2.338-1.645l-.38 3.422c-1.211-.522-1.958-1.021-1.958-1.777zm2.904 8.258l.46-4.142c1.574.638 2.567 1.222 2.567 2.229 0 .973-1.386 1.823-3.027 1.913z"/><path id="atf" d="M39.9 11.796a8.405 8.405 0 0 0-11.935-7.497.828.828 0 1 0 .698 1.502 6.634 6.634 0 0 1 2.82-.626 6.7 6.7 0 0 1 6.762 6.621h-3.31l4.138 4.966 4.138-4.966h-3.31z"/></defs></svg><svg width="48" height="48" viewBox="0 0 48 48" xmlns:figma="http://www.figma.com/figma/ns" id="network" x="240"><title>network</title><desc>Created using Figma</desc><g transform="translate(321 -195)" figma:type="canvas"><mask id="aua"><path d="M-321 195h48v48h-48v-48z" fill="#FFF"/></mask><g style="mix-blend-mode:normal" mask="url(#aua)" figma:type="frame" fill="#3BB75E"><use xlink:href="#aub" transform="translate(-307 214)" style="mix-blend-mode:normal" figma:type="vector"/><use xlink:href="#auc" transform="translate(-285 225)" style="mix-blend-mode:normal" figma:type="vector"/><use xlink:href="#auc" transform="translate(-321 231)" style="mix-blend-mode:normal" figma:type="vector"/><use xlink:href="#aud" transform="translate(-321 200)" style="mix-blend-mode:normal" figma:type="vector"/><use xlink:href="#aud" transform="translate(-284 205)" style="mix-blend-mode:normal" figma:type="vector"/><use xlink:href="#aud" transform="translate(-297 195)" style="mix-blend-mode:normal" figma:type="vector"/><use xlink:href="#aue" transform="rotate(-48.814 99.036 460.186)" style="mix-blend-mode:normal" figma:type="vector"/><use xlink:href="#auf" transform="rotate(-153.435 -114.324 148.286)" style="mix-blend-mode:normal" figma:type="vector"/><use xlink:href="#aug" transform="rotate(-135 -107.472 172.46)" style="mix-blend-mode:normal" figma:type="vector"/><use xlink:href="#auh" transform="rotate(-65.556 16.894 339.121)" style="mix-blend-mode:normal" figma:type="vector"/><use xlink:href="#aui" transform="rotate(-28.443 281.156 690.669)" style="mix-blend-mode:normal" figma:type="vector"/></g></g><defs><path id="aub" fill-rule="evenodd" d="M7.5 13a5.5 5.5 0 1 0 0-11 5.5 5.5 0 0 0 0 11zm0 2a7.5 7.5 0 1 0 0-15 7.5 7.5 0 0 0 0 15z"/><path id="auc" fill-rule="evenodd" d="M6 10a4 4 0 1 0 0-8 4 4 0 0 0 0 8zm0 2A6 6 0 1 0 6 0a6 6 0 0 0 0 12z"/><path id="aud" fill-rule="evenodd" d="M5 8a3 3 0 1 0 0-6 3 3 0 0 0 0 6zm0 2A5 5 0 1 0 5 0a5 5 0 0 0 0 10z"/><path id="aue" fill-rule="evenodd" d="M10.63 2H0V0h10.63v2z"/><path id="auf" fill-rule="evenodd" d="M11.18 2H0V0h11.18v2z"/><path id="aug" fill-rule="evenodd" d="M12.728 2H0V0h12.728v2z"/><path id="auh" fill-rule="evenodd" d="M12.083 2H0V0h12.083v2z"/><path id="aui" fill-rule="evenodd" d="M13.793 1.995l-13.647 1L0 1l13.647-1 .146 1.995z"/></defs></svg><svg width="48" height="48" viewBox="0 0 48 48" xmlns:figma="http://www.figma.com/figma/ns" id="next-day-payouts" x="240" y="48"><title>next-day-payouts</title><desc>Created using Figma</desc><g transform="translate(321 125)" figma:type="canvas"><mask id="ava"><path d="M-321-125h48v48h-48v-48z" fill="#FFF"/></mask><g style="mix-blend-mode:normal" mask="url(#ava)" figma:type="frame"><g style="mix-blend-mode:normal" figma:type="vector" transform="translate(-317.964 -125)" fill="#3BB75E"><use xlink:href="#avb" style="mix-blend-mode:normal"/><use xlink:href="#avc" style="mix-blend-mode:normal"/><use xlink:href="#avd" style="mix-blend-mode:normal"/><use xlink:href="#ave" style="mix-blend-mode:normal"/><use xlink:href="#avf" style="mix-blend-mode:normal"/><use xlink:href="#avg" style="mix-blend-mode:normal"/><use xlink:href="#avh" style="mix-blend-mode:normal"/><use xlink:href="#avi" style="mix-blend-mode:normal"/></g></g></g><defs><path id="avb" fill-rule="evenodd" d="M29.79 15.961a.876.876 0 1 1 0-1.751h11.137a1 1 0 0 1 1 1v24.159c0 5.452-2.287 8.631-7.781 8.631-5.184 0-7.782-3.003-7.782-8.631V2.751a1 1 0 0 0-1-1H2.751a1 1 0 0 0-1 1v36.562c0 4.861 1.968 6.936 6.957 6.936h20.101c.197 0 .895.88 2.24 1.291 4.038 1.233 3.097.46 3.097.46H8.708C2.73 48 0 45.122 0 39.313V1a1 1 0 0 1 1-1h26.115a1 1 0 0 1 1 1v38.369c0 4.712 1.876 6.88 6.03 6.88 4.38 0 6.031-2.294 6.031-6.88V16.961a1 1 0 0 0-1-1h-9.385z"/><path id="avc" fill-rule="evenodd" d="M4.39 34.18c0 .483.393.875.876.875h17.786a.876.876 0 0 0 0-1.751H5.266a.876.876 0 0 0-.875.876z"/><path id="avd" fill-rule="evenodd" d="M37.777 22.785a.876.876 0 0 0 0-1.75h-7.904a.876.876 0 0 0 0 1.75h7.904z"/><path id="ave" fill-rule="evenodd" d="M37.777 28.044a.876.876 0 1 0 0-1.751h-7.904a.876.876 0 1 0 0 1.75h7.904z"/><path id="avf" fill-rule="evenodd" d="M37.777 33.302a.876.876 0 1 0 0-1.75h-7.904a.876.876 0 1 0 0 1.75h7.904z"/><path id="avg" fill-rule="evenodd" d="M37.777 38.561a.876.876 0 0 0 0-1.751h-7.904a.876.876 0 0 0 0 1.751h7.904z"/><path id="avh" fill-rule="evenodd" d="M23.052 40.314a.876.876 0 1 0 0-1.751H5.266a.876.876 0 1 0 0 1.75h17.786z"/><path id="avi" d="M9.306 24.364l5.112-5.382c.588-.624 1.044-1.236 1.368-1.836.324-.6.486-1.23.486-1.89 0-.72-.204-1.284-.612-1.692-.396-.408-.96-.612-1.692-.612-.756 0-1.368.222-1.836.666-.456.444-.75 1.176-.882 2.196H9.792c.096-1.272.504-2.274 1.224-3.006.732-.744 1.716-1.116 2.952-1.116 1.2 0 2.148.324 2.844.972.696.648 1.044 1.53 1.044 2.646 0 .792-.234 1.578-.702 2.358-.468.768-1.098 1.542-1.89 2.322l-3.546 3.456h6.21v1.278H9.306v-.36z"/></defs></svg><svg width="48" height="48" viewBox="0 0 48 48" xmlns:figma="http://www.figma.com/figma/ns" id="people" x="240" y="96"><title>people</title><desc>Created using Figma</desc><g transform="translate(145 205)" figma:type="canvas"><mask id="awa"><path d="M-145-205h48v48h-48v-48z" fill="#FFF"/></mask><g style="mix-blend-mode:normal" mask="url(#awa)" figma:type="frame"><use xlink:href="#awb" transform="translate(-145 -200)" fill="#3BB75E" style="mix-blend-mode:normal" figma:type="vector-operation"/></g></g><defs><path id="awb" fill-rule="evenodd" d="M27 10c0 3.597-1.769 6.948-4.552 8.71a17.46 17.46 0 0 1 6.296 3.38c1.026.861 2.343 1.307 3.689 1.378C30.919 22.151 30 20.13 30 18c0-3.663 2.717-7 6.5-7s6.5 3.337 6.5 7c0 2.178-.961 4.242-2.536 5.556C44.842 25.008 48 29.135 48 34v2a2 2 0 0 1-2-2 9 9 0 0 0-9.794-8.965c-2.225.194-2.814 2.792-2.106 4.91.584 1.745.9 3.613.9 5.555 0 .278-.229.5-.507.5h-1a.497.497 0 0 1-.493-.5C33 26.94 26.06 20 17.5 20 9.613 20 3.109 26.315 2.134 34.004 1.995 35.1 1.112 36 .007 36A17.853 17.853 0 0 1 0 35.5c0-8.203 5.644-15.088 13.261-16.983C10.646 16.71 9 13.47 9 10c0-5.264 3.787-10 9-10s9 4.736 9 10zm-2 0c0 4.418-3.134 8-7 8s-7-3.582-7-8 3.134-8 7-8 7 3.582 7 8zm16 8c0 2.761-2.015 5-4.5 5S32 20.761 32 18s2.015-5 4.5-5 4.5 2.239 4.5 5z"/></defs></svg><svg width="12" height="12" viewBox="0 0 12 12" xmlns:figma="http://www.figma.com/figma/ns" id="play-small" x="300" y="94"><title>play-small</title><desc>Created using Figma</desc><g transform="translate(-70 120)" figma:type="canvas"><mask id="axa"><path d="M70-120h12v12H70v-12z" fill="#FFF"/></mask><g style="mix-blend-mode:normal" mask="url(#axa)" figma:type="frame"><use xlink:href="#axb" transform="rotate(90 100.25 -19.75)" fill="#3BB75E" style="mix-blend-mode:normal" figma:type="regular-polygon"/></g></g><defs><path id="axb" d="M5.208 1.03a1 1 0 0 1 1.584 0l3.165 4.11a1 1 0 0 1-.793 1.61H2.836a1 1 0 0 1-.793-1.61l3.165-4.11z"/></defs></svg><svg width="48" height="48" viewBox="0 0 48 48" xmlns:figma="http://www.figma.com/figma/ns" id="plugins" x="240" y="192"><title>plugins</title><desc>Created using Figma</desc><g transform="translate(-31 -115)" figma:type="canvas"><mask id="aya"><path d="M31 115h48v48H31v-48z" fill="#FFF"/></mask><g style="mix-blend-mode:normal" mask="url(#aya)" figma:type="frame"><use xlink:href="#ayb" transform="rotate(-44.288 215.16 41.272)" fill="#3BB75E" style="mix-blend-mode:normal" figma:type="vector"/><use xlink:href="#ayc" transform="rotate(-44.288 189.276 -20.238)" fill="#3BB75E" style="mix-blend-mode:normal" figma:type="vector"/><g style="mix-blend-mode:normal" figma:type="vector-operation"><mask id="aye"><path fill="#fff" transform="rotate(-45 198.1 28.774)" d="M-2-3h40v18H-2z"/><use xlink:href="#ayd" transform="rotate(-45 198.1 28.774)"/></mask><g mask="url(#aye)"><use xlink:href="#ayf" transform="rotate(-45 198.1 28.774)" fill="#3BB75E" style="mix-blend-mode:normal"/></g></g><use xlink:href="#ayg" transform="rotate(-44.288 196.127 6.174)" fill="#3BB75E" style="mix-blend-mode:normal" figma:type="vector"/><use xlink:href="#ayg" transform="rotate(-44.288 204.77 2.53)" fill="#3BB75E" style="mix-blend-mode:normal" figma:type="vector"/></g></g><defs><path id="ayb" d="M-.002-.979a1 1 0 1 0 .004 2l-.004-2zM12.126 1a1 1 0 0 0-.003-2l.003 2zM.002 1.021L12.126 1l-.003-2-12.125.021.004 2z"/><path id="ayc" d="M-.009-.88a1 1 0 1 0 .018 2l-.018-2zM13.517 1a1 1 0 1 0-.018-2l.018 2zM.009 1.12L13.517 1l-.018-2L-.01-.88l.018 2z"/><path id="ayd" fill-rule="evenodd" d="M12 0H6.5a6.5 6.5 0 0 0 0 13H12V0zm12 13h5.5a6.5 6.5 0 0 0 0-13H24v13z"/><path id="ayf" d="M12 0h2a2 2 0 0 0-2-2v2zm0 13v2a2 2 0 0 0 2-2h-2zm12 0h-2a2 2 0 0 0 2 2v-2zm0-13v-2a2 2 0 0 0-2 2h2zM6.5 2H12v-4H6.5v4zM2 6.5A4.5 4.5 0 0 1 6.5 2v-4A8.5 8.5 0 0 0-2 6.5h4zM6.5 11A4.5 4.5 0 0 1 2 6.5h-4A8.5 8.5 0 0 0 6.5 15v-4zm5.5 0H6.5v4H12v-4zm2 2V0h-4v13h4zm15.5-2H24v4h5.5v-4zM34 6.5a4.5 4.5 0 0 1-4.5 4.5v4A8.5 8.5 0 0 0 38 6.5h-4zM29.5 2A4.5 4.5 0 0 1 34 6.5h4A8.5 8.5 0 0 0 29.5-2v4zM24 2h5.5v-4H24v4zm-2-2v13h4V0h-4z"/><path id="ayg" d="M-.024-.88a1 1 0 1 0 .048 2l-.048-2zM5.024 1a1 1 0 1 0-.048-2l.048 2zm-5 .12l5-.12-.048-2-5 .12.048 2z"/></defs></svg><svg width="72" height="72" viewBox="0 0 72 72" xmlns:figma="http://www.figma.com/figma/ns" id="price-tag" y="72"><title>price-tag</title><desc>Created using Figma</desc><g transform="translate(-143 205)" figma:type="canvas"><mask id="aza"><path d="M143-205h72v72h-72v-72z" fill="#FFF"/></mask><g style="mix-blend-mode:normal" mask="url(#aza)" figma:type="frame" fill="#3BB75E"><use xlink:href="#azb" transform="translate(145 -191)" style="mix-blend-mode:normal" figma:type="vector"/><use xlink:href="#azc" transform="translate(180.303 -180.199)" style="mix-blend-mode:normal" figma:type="vector"/><use xlink:href="#azd" transform="translate(152.28 -191)" style="mix-blend-mode:normal" figma:type="vector"/><use xlink:href="#aze" transform="translate(161.798 -203)" style="mix-blend-mode:normal" figma:type="vector-operation"/></g></g><defs><path id="azb" d="M50.853 0H34.648a1.048 1.048 0 0 0 0 2.098h16.205c2.111 0 4.349 2.238 4.349 4.347V19.95c0 2.612 0 3.8-.566 4.934-.6 1.197-1.911 2.508-4.53 5.126L25.804 54.305c-1.84 1.841-3.582.321-3.912 0l-18.9-18.893c-.32-.333-1.845-2.078-.005-3.917l2.097-2.097L27.289 7.192a1.047 1.047 0 0 0 0-1.487 1.048 1.048 0 0 0-1.487 0c-.847.85-16.421 16.424-22.204 22.208l-2.091 2.095C.117 31.392-.327 33.09.24 34.795c.398 1.21 1.177 2.014 1.267 2.097l18.9 18.899c.084.09.881.863 2.096 1.268.483.161.959.239 1.435.239 1.202 0 2.361-.509 3.35-1.507l24.303-24.296c5.494-5.495 5.707-5.714 5.707-11.547V6.445C57.3 3.19 54.108 0 50.853 0z"/><path id="azc" d="M6.446 10.801a4.354 4.354 0 0 1-4.349-4.348c0-.58-.47-1.056-1.049-1.056C.468 5.397 0 5.872 0 6.453a6.453 6.453 0 0 0 6.446 6.445c3.556 0 6.452-2.895 6.452-6.445A6.46 6.46 0 0 0 6.446 0a1.048 1.048 0 1 0 0 2.097 4.358 4.358 0 0 1 4.349 4.356 4.356 4.356 0 0 1-4.35 4.348z"/><path id="azd" d="M2.066 21.002a1.053 1.053 0 0 0 1.022-1.304C1.46 13.2 1.879 7.752 4.22 4.749c1.377-1.756 3.372-2.65 5.945-2.65 6.291 0 19.144 11.475 23.562 15.895a1.05 1.05 0 0 0 1.487 0 1.061 1.061 0 0 0 0-1.487C34.54 15.832 18.604 0 10.164 0 6.962 0 4.33 1.196 2.568 3.455-.218 7.026-.758 12.977 1.05 20.206a1.05 1.05 0 0 0 1.017.796z"/><path id="aze" fill-rule="evenodd" d="M26 52c14.36 0 26-11.64 26-26S40.36 0 26 0 0 11.64 0 26c0 1.24.087 2.46.255 3.654L1.702 27l.33.24A23.243 23.243 0 0 1 2 26C2 12.745 12.745 2 26 2s24 10.745 24 24c0 13.08-10.464 23.716-23.477 23.994l-1.768 1.977c.412.02.828.029 1.245.029z"/></defs></svg><svg width="48" height="48" viewBox="0 0 48 48" xmlns:figma="http://www.figma.com/figma/ns" id="recurring" x="48" y="240"><title>recurring-payments</title><desc>Created using Figma</desc><g transform="translate(233 125)" figma:type="canvas"><mask id="baa"><path d="M-233-125h48v48h-48v-48z" fill="#FFF"/></mask><g style="mix-blend-mode:normal" mask="url(#baa)" figma:type="frame"><use xlink:href="#bab" transform="translate(-229 -122)" fill="#3BB75E" style="mix-blend-mode:normal" figma:type="vector"/></g></g><defs><path id="bab" d="M38.874 33.829a1 1 0 0 0-1.623-1.168l1.623 1.168zm-1.623-24.49a1 1 0 1 0 1.623-1.168L37.252 9.34zM31.957 8.13a1 1 0 1 0 0 2v-2zm6.39 1v1h1v-1h-1zm1-6.847a1 1 0 1 0-2 0h2zM20.914 21c0-.048.039-.087.087-.087v2A1.913 1.913 0 0 0 22.913 21h-2zm.087-.087c.048 0 .087.039.087.087h-2c0 1.056.857 1.913 1.913 1.913v-2zm.087.087a.087.087 0 0 1-.087.087v-2A1.913 1.913 0 0 0 19.087 21h2zm-.087.087a.087.087 0 0 1-.087-.087h2A1.913 1.913 0 0 0 21 19.087v2zM21 41C9.954 41 1 32.046 1 21h-2c0 12.15 9.85 22 22 22v-2zM1 21C1 9.954 9.954 1 21 1v-2C8.85-1-1 8.85-1 21h2zm36.25 11.661C33.62 37.713 27.694 41 21 41v2c7.364 0 13.883-3.62 17.874-9.171l-1.623-1.168zM21 1c6.693 0 12.619 3.287 16.25 8.339l1.624-1.168C34.883 2.62 28.364-1 21-1v2zm10.956 9.13h6.392v-2h-6.392v2zm7.392-1V2.283h-2V9.13h2z"/></defs></svg><svg width="48" height="48" viewBox="0 0 48 48" xmlns:figma="http://www.figma.com/figma/ns" id="reporting" x="96" y="240"><title>reporting</title><desc>Created using Figma</desc><g transform="translate(57 125)" figma:type="canvas"><mask id="bba"><path d="M-57-125h48v48h-48v-48z" fill="#FFF"/></mask><g style="mix-blend-mode:normal" mask="url(#bba)" figma:type="frame"><g style="mix-blend-mode:normal" figma:type="vector" transform="translate(-57 -120)" fill="#3BB75E"><use xlink:href="#bbb" style="mix-blend-mode:normal"/><use xlink:href="#bbc" style="mix-blend-mode:normal"/><use xlink:href="#bbd" style="mix-blend-mode:normal"/><use xlink:href="#bbe" style="mix-blend-mode:normal"/><use xlink:href="#bbf" style="mix-blend-mode:normal"/><use xlink:href="#bbg" style="mix-blend-mode:normal"/><use xlink:href="#bbh" style="mix-blend-mode:normal"/></g></g></g><defs><path id="bbb" d="M48 41.828a1 1 0 0 0-1-1H1a1 1 0 0 0-1 1V42a1 1 0 0 0 1 1h46a1 1 0 0 0 1-1v-.172z"/><path id="bbc" d="M8.727 35.312a1 1 0 0 0-1-1h-.182a1 1 0 0 0-1 1v2.344a1 1 0 0 0 1 1h.182a1 1 0 0 0 1-1v-2.344z"/><path id="bbd" d="M19.636 28.797a1 1 0 0 0-1-1h-.181a1 1 0 0 0-1 1v8.86a1 1 0 0 0 1 1h.181a1 1 0 0 0 1-1v-8.86z"/><path id="bbe" d="M30.546 20.109a1 1 0 0 0-1-1h-.182a1 1 0 0 0-1 1v17.547a1 1 0 0 0 1 1h.181a1 1 0 0 0 1-1V20.11z"/><path id="bbf" d="M41.455 9.25a1 1 0 0 0-1-1h-.182a1 1 0 0 0-1 1v28.406a1 1 0 0 0 1 1h.181a1 1 0 0 0 1-1V9.25z"/><path id="bbg" fill-rule="evenodd" d="M31.858.388a1 1 0 0 1 1.309.529l2.625 6.157a1 1 0 0 1-.53 1.314l-.166.07a1 1 0 0 1-1.31-.53l-1.775-4.163a1 1 0 0 0-1.31-.53l-4.188 1.77a1 1 0 0 1-1.31-.528l-.067-.16a1 1 0 0 1 .53-1.313L31.858.388z"/><path id="bbh" fill-rule="evenodd" d="M7.051 27.39a35.746 35.746 0 0 0 3.452-1.293 41.822 41.822 0 0 0 10.425-6.457c4.804-4.06 8.698-9.21 11.35-15.57l.031-.078a1 1 0 0 0-.541-1.309l-.167-.068a1 1 0 0 0-1.304.539l-.035.083c-2.514 6.032-6.198 10.904-10.746 14.747a39.652 39.652 0 0 1-9.88 6.12 33.578 33.578 0 0 1-3.24 1.214 16.6 16.6 0 0 1-1.182.333l-.086.02a1 1 0 0 0-.756 1.197l.038.168a1 1 0 0 0 1.194.754l.09-.02c.26-.058.722-.181 1.357-.38z"/></defs></svg><svg width="48" height="48" viewBox="0 0 48 48" xmlns:figma="http://www.figma.com/figma/ns" id="retry" x="144" y="240"><title>retry</title><desc>Created using Figma</desc><g transform="translate(321 -35)" figma:type="canvas"><mask id="bca"><path d="M-321 35h48v48h-48V35z" fill="#FFF"/></mask><g style="mix-blend-mode:normal" mask="url(#bca)" figma:type="frame"><use xlink:href="#bcb" transform="translate(-321 38)" fill="#3BB75E" style="mix-blend-mode:normal" figma:type="vector"/></g></g><defs><path id="bcb" d="M8.595 20.67l-3.454 3.5c-.216.218-.485.328-.701.328-.216 0-.54-.11-.702-.328l-3.455-3.5c-.377-.382-.377-1.039 0-1.476.378-.383 1.026-.383 1.458 0l1.673 1.695C3.414 9.35 12.698 0 24.087 0c.54 0 1.026.437 1.026 1.039 0 .11 0 .219-.055.274a.991.991 0 0 1-.97.765c-10.256 0-18.622 8.476-18.622 18.866l1.727-1.75c.377-.383 1.025-.383 1.457 0 .377.438.377 1.094-.055 1.476zM27.92 2.515h.216c.486 0 .918-.327.972-.82.108-.547-.217-1.093-.81-1.203a.99.99 0 0 0-1.187.82c-.11.547.216 1.094.81 1.203zm7.017 3.118c.162.11.378.218.593.218.325 0 .649-.164.81-.437.325-.493.217-1.094-.215-1.422-.486-.328-1.08-.22-1.404.219-.377.492-.269 1.093.216 1.422zm3.616 2.952c.27 0 .486-.11.702-.273.432-.383.432-1.04.054-1.477-.378-.437-1.025-.437-1.458-.055-.431.384-.431 1.04-.053 1.477.216.22.486.328.755.328zm3.185 6.344c.162.437.54.71.971.71.108 0 .216 0 .324-.054.54-.165.81-.766.649-1.313-.162-.546-.757-.82-1.296-.656-.54.22-.863.821-.648 1.313zM6.544 27.506c-.215-.547-.756-.82-1.295-.602-.54.219-.81.766-.593 1.313.161.437.54.656.97.656.108 0 .217 0 .378-.055.487-.219.756-.82.54-1.312zm34.438-15.584c.16 0 .377-.055.54-.165.485-.273.647-.93.378-1.421-.27-.493-.918-.656-1.404-.383-.485.274-.647.93-.378 1.422.161.328.54.547.864.547zm-9.393-8.204c.108.055.27.11.432.11a.997.997 0 0 0 .918-.602c.216-.547 0-1.148-.54-1.367-.54-.218-1.134 0-1.35.547-.215.438.002 1.094.54 1.312zM17.016 38.443a1.052 1.052 0 0 0-1.35.546 1.076 1.076 0 0 0 .54 1.367c.108.055.271.055.379.055.377 0 .81-.219.917-.656.27-.492.054-1.094-.486-1.312zm3.724 1.093c-.539-.11-1.08.273-1.187.82-.108.547.27 1.094.81 1.203h.161c.486 0 .918-.328 1.026-.874.109-.493-.27-1.04-.81-1.149zM9.189 34.068c-.431.382-.431 1.038-.054 1.476.216.219.486.328.756.328s.486-.109.702-.273c.432-.383.432-1.04 0-1.476-.324-.438-.972-.493-1.404-.055zm-2.32-3.39c-.487.328-.649.929-.325 1.42.216.33.54.493.864.493.162 0 .378-.055.54-.164.486-.329.594-.93.324-1.422-.324-.492-.918-.656-1.404-.328zm6.747 5.905c-.486-.328-1.08-.218-1.404.273-.324.493-.216 1.094.27 1.422.161.11.377.164.593.164.325 0 .648-.164.864-.438.27-.437.108-1.093-.323-1.42zm34.113-15.256l-3.455-3.5c-.377-.383-1.025-.383-1.458 0l-3.453 3.5c-.378.383-.378 1.039 0 1.476.216.22.485.329.701.329.216 0 .54-.11.702-.329l1.727-1.75c0 10.39-8.366 18.866-18.622 18.866-.54 0-1.026.437-1.026 1.04 0 .6.432 1.038 1.026 1.038 11.39 0 20.673-9.35 20.673-20.889l1.674 1.695c.216.22.485.329.701.329.216 0 .54-.11.702-.329.486-.437.486-1.094.108-1.476z"/></defs></svg><svg width="48" height="48" viewBox="0 0 48 48" xmlns:figma="http://www.figma.com/figma/ns" id="safe" x="192" y="240"><title>safe</title><desc>Created using Figma</desc><g transform="translate(57 45)" figma:type="canvas"><mask id="bda"><path d="M-57-45h48V3h-48v-48z" fill="#FFF"/></mask><g style="mix-blend-mode:normal" mask="url(#bda)" figma:type="frame"><g style="mix-blend-mode:normal" figma:type="vector" transform="translate(-55 -43)" fill="#3BB75E"><use xlink:href="#bdb" style="mix-blend-mode:normal"/><use xlink:href="#bdc" style="mix-blend-mode:normal"/><use xlink:href="#bdd" style="mix-blend-mode:normal"/><use xlink:href="#bde" style="mix-blend-mode:normal"/><use xlink:href="#bdf" style="mix-blend-mode:normal"/><use xlink:href="#bdg" style="mix-blend-mode:normal"/><use xlink:href="#bdh" style="mix-blend-mode:normal"/></g></g></g><defs><path id="bdb" fill-rule="evenodd" d="M36 6H9a1 1 0 0 0-1 1v27a1 1 0 0 0 1 1h27a1 1 0 0 0 1-1V7a1 1 0 0 0-1-1zM9 4a3 3 0 0 0-3 3v27a3 3 0 0 0 3 3h27a3 3 0 0 0 3-3V7a3 3 0 0 0-3-3H9z"/><path id="bdc" fill-rule="evenodd" d="M4 12a1 1 0 0 1 1-1h4a1 1 0 1 1 0 2H5a1 1 0 0 1-1-1z"/><path id="bdd" fill-rule="evenodd" d="M4 30a1 1 0 0 1 1-1h4a1 1 0 1 1 0 2H5a1 1 0 0 1-1-1z"/><path id="bde" fill-rule="evenodd" d="M41 2H3a1 1 0 0 0-1 1v35a1 1 0 0 0 1 1h38a1 1 0 0 0 1-1V3a1 1 0 0 0-1-1zM3 0a3 3 0 0 0-3 3v35a3 3 0 0 0 3 3h38a3 3 0 0 0 3-3V3a3 3 0 0 0-3-3H3z"/><path id="bdf" fill-rule="evenodd" d="M5 39a1 1 0 0 1 1 1v2h4v-2a1 1 0 1 1 2 0v3a1 1 0 0 1-1 1H5a1 1 0 0 1-1-1v-3a1 1 0 0 1 1-1z"/><path id="bdg" fill-rule="evenodd" d="M33 39a1 1 0 0 1 1 1v2h4v-2a1 1 0 1 1 2 0v3a1 1 0 0 1-1 1h-6a1 1 0 0 1-1-1v-3a1 1 0 0 1 1-1z"/><path id="bdh" d="M30.313 13.542l-.091-.069-.104-.046a7.83 7.83 0 1 0-.402 13.716h.104a7.819 7.819 0 0 0 .489-13.55l.005-.05zm-4.156.569c.825 0 1.641.167 2.4.493l-2.595 4.283c-.24.035-.467.134-.655.287l-4.909-.964a6.114 6.114 0 0 1 5.764-4.145l-.005.046zm-6.103 6.062v-.327l4.903.965a1.353 1.353 0 0 0 .918.689l2.297 4.415a6.097 6.097 0 0 1-8.118-5.742zm9.668 4.96l-2.297-4.426a1.315 1.315 0 0 0 0-.976l2.595-4.277a6.098 6.098 0 0 1-.315 9.686l.017-.006z"/></defs></svg><svg width="48" height="48" viewBox="0 0 48 48" xmlns:figma="http://www.figma.com/figma/ns" id="security" x="240" y="240"><title>security</title><desc>Created using Figma</desc><g transform="translate(145 125)" figma:type="canvas"><mask id="bea"><path d="M-145-125h48v48h-48v-48z" fill="#FFF"/></mask><g style="mix-blend-mode:normal" mask="url(#bea)" figma:type="frame"><g style="mix-blend-mode:normal" figma:type="vector" transform="translate(-139.375 -123)" fill="#3BB75E"><use xlink:href="#beb" style="mix-blend-mode:normal"/><use xlink:href="#bec" style="mix-blend-mode:normal"/><use xlink:href="#bed" style="mix-blend-mode:normal"/></g></g></g><defs><path id="beb" d="M19.25 0h-.875C12.093 0 7 5.093 7 11.375V17.5h1.75v-6.125a9.625 9.625 0 0 1 9.625-9.625h.875a9.625 9.625 0 0 1 9.625 9.625V17.5h1.75v-6.125C30.625 5.093 25.532 0 19.25 0z"/><path id="bec" fill-rule="evenodd" d="M18.375 34.125a4.375 4.375 0 1 0 0-8.75 4.375 4.375 0 0 0 0 8.75zM21 29.75a2.625 2.625 0 1 1-5.25 0 2.625 2.625 0 0 1 5.25 0z"/><path id="bed" fill-rule="evenodd" d="M33.25 17.5H3.5A3.5 3.5 0 0 0 0 21v17.5A3.5 3.5 0 0 0 3.5 42h29.75a3.5 3.5 0 0 0 3.5-3.5V21a3.5 3.5 0 0 0-3.5-3.5zM1.75 21c0-.966.784-1.75 1.75-1.75h29.75c.967 0 1.75.784 1.75 1.75v17.5a1.75 1.75 0 0 1-1.75 1.75H3.5a1.75 1.75 0 0 1-1.75-1.75V21z"/></defs></svg><svg width="12" height="12" viewBox="0 0 12 12" xmlns:figma="http://www.figma.com/figma/ns" id="security-small" x="288" y="94"><title>security-small</title><desc>Created using Figma</desc><g transform="translate(-52 120)" figma:type="canvas"><mask id="bfa"><path d="M52-120h12v12H52v-12z" fill="#FFF"/></mask><g style="mix-blend-mode:normal" mask="url(#bfa)" figma:type="frame"><g style="mix-blend-mode:normal" figma:type="vector" transform="translate(52.75 -120)" fill="#3BB75E"><use xlink:href="#bfb" style="mix-blend-mode:normal"/><use xlink:href="#bfc" style="mix-blend-mode:normal"/><use xlink:href="#bfd" style="mix-blend-mode:normal"/></g></g></g><defs><path id="bfb" d="M5.5 0h-.25A3.25 3.25 0 0 0 2 3.25V5h.5V3.25A2.75 2.75 0 0 1 5.25.5h.25a2.75 2.75 0 0 1 2.75 2.75V5h.5V3.25A3.25 3.25 0 0 0 5.5 0z"/><path id="bfc" fill-rule="evenodd" d="M5.25 9.75a1.25 1.25 0 1 0 0-2.5 1.25 1.25 0 0 0 0 2.5zM6 8.5a.75.75 0 1 1-1.5 0 .75.75 0 0 1 1.5 0z"/><path id="bfd" fill-rule="evenodd" d="M9.5 5H1a1 1 0 0 0-1 1v5a1 1 0 0 0 1 1h8.5a1 1 0 0 0 1-1V6a1 1 0 0 0-1-1zm-9 1a.5.5 0 0 1 .5-.5h8.5a.5.5 0 0 1 .5.5v5a.5.5 0 0 1-.5.5H1a.5.5 0 0 1-.5-.5V6z"/></defs></svg><svg width="48" height="48" viewBox="0 0 48 48" xmlns:figma="http://www.figma.com/figma/ns" id="split" x="240" y="144"><title>split</title><desc>Created using Figma</desc><g transform="translate(233 -35)" figma:type="canvas"><mask id="bga"><path d="M-233 35h48v48h-48V35z" fill="#FFF"/></mask><g style="mix-blend-mode:normal" mask="url(#bga)" figma:type="frame"><g style="mix-blend-mode:normal" figma:type="vector" transform="translate(-228.79 38)" fill="#3BB75E"><use xlink:href="#bgb" style="mix-blend-mode:normal"/><use xlink:href="#bgc" style="mix-blend-mode:normal"/><use xlink:href="#bgd" style="mix-blend-mode:normal"/></g></g></g><defs><path id="bgb" fill-rule="evenodd" d="M1.587 4.203a1 1 0 0 0 0 1.414l1.398 1.4A1 1 0 0 0 4.4 5.603L3 4.203a1 1 0 0 0-1.413 0zm4.197 4.199a1 1 0 0 0 0 1.414l2.798 2.8a1 1 0 1 0 1.414-1.414l-2.798-2.8a1 1 0 0 0-1.414 0zm5.596 5.599a1 1 0 0 0 0 1.414l2.798 2.8a1 1 0 0 0 1.415-1.414L12.794 14a1 1 0 0 0-1.414 0zm5.597 5.599a1 1 0 0 0 0 1.414l2.797 2.8A1 1 0 1 0 21.19 22.4l-2.798-2.8a1 1 0 0 0-1.414 0zm5.596 5.599a1 1 0 0 0 0 1.414l2.798 2.8a1 1 0 0 0 1.414-1.414l-2.798-2.8a1 1 0 0 0-1.414 0zm5.596 5.599a1 1 0 0 0 0 1.414l2.798 2.8a1 1 0 0 0 1.415-1.414l-2.799-2.8a1 1 0 0 0-1.414 0zm5.597 5.599a1 1 0 0 0 0 1.414l1.398 1.4a1 1 0 1 0 1.415-1.414l-1.4-1.4a1 1 0 0 0-1.413 0z"/><path id="bgc" fill-rule="evenodd" d="M6.194 27.454a2 2 0 0 1 3.192 0l5.786 7.664c.995 1.318.055 3.206-1.596 3.206H2.004c-1.651 0-2.591-1.888-1.597-3.206l5.787-7.664zM7.79 28.66l-5.786 7.664h11.572L7.79 28.66z"/><path id="bgd" fill-rule="evenodd" d="M31.79 16a7 7 0 1 0 0-14 7 7 0 0 0 0 14zm0 2a9 9 0 1 0 0-18 9 9 0 0 0 0 18z"/></defs></svg><svg width="48" height="48" viewBox="0 0 48 48" xmlns:figma="http://www.figma.com/figma/ns" id="subscribe" x="96" y="144"><title>subscribe</title><desc>Created using Figma</desc><g transform="translate(57 -35)" figma:type="canvas"><mask id="bha"><path d="M-57 35h48v48h-48V35z" fill="#FFF"/></mask><g style="mix-blend-mode:normal" mask="url(#bha)" figma:type="frame"><g style="mix-blend-mode:normal" figma:type="vector" transform="translate(-56 35.552)" fill="#3BB75E"><use xlink:href="#bhb" style="mix-blend-mode:normal"/><use xlink:href="#bhc" style="mix-blend-mode:normal"/><use xlink:href="#bhd" style="mix-blend-mode:normal"/></g></g></g><defs><path id="bhb" fill-rule="evenodd" d="M36.8 16.194c0 8.462-5.518 16.195-13.289 16.195s-13.289-7.733-13.289-16.195S15.74 0 23.511 0 36.8 7.732 36.8 16.194zm-13.29 14.17c6.21 0 11.244-6.344 11.244-14.17S29.72 2.024 23.51 2.024s-11.244 6.344-11.244 14.17 5.034 14.17 11.244 14.17z"/><path id="bhc" fill-rule="evenodd" d="M16.355 32.54a1.01 1.01 0 0 1-.67 1.268l-.305-.966-.305-.966a1.024 1.024 0 0 1 1.28.665zm-1.28-.664l.305.966.305.966h-.002l-.004.002-.017.005-.068.022a99.564 99.564 0 0 0-1.225.387c-.813.26-1.923.622-3.13 1.031-2.42.82-5.167 1.807-6.647 2.541-1.17.58-2.291 2.273-2.51 3.851-.107.765.023 1.334.287 1.687.236.316.718.642 1.766.642h21.466l.001 1.012V46H4.135c-1.507 0-2.687-.496-3.409-1.461-.694-.928-.82-2.099-.67-3.168.291-2.09 1.725-4.446 3.622-5.385 1.587-.784 4.462-1.82 6.899-2.646a203.28 203.28 0 0 1 4.403-1.434l.07-.022.018-.006.005-.001h.002zm11.55 13.112c0 .56-.459 1.012-1.023 1.012v-2.024c.564 0 1.022.453 1.022 1.012z"/><path id="bhd" fill-rule="evenodd" d="M44.864 35.766h-5.906v-5.848c0-.6-.53-1.124-1.136-1.124-.606 0-1.136.525-1.136 1.124v5.848H30.78c-.606 0-1.136.525-1.136 1.125s.53 1.125 1.136 1.125h5.906v5.848c0 .6.53 1.124 1.136 1.124.606 0 1.136-.525 1.136-1.124v-5.848h5.906c.606 0 1.136-.525 1.136-1.125s-.53-1.125-1.136-1.125z"/></defs></svg><svg width="48" height="48" viewBox="0 0 48 48" xmlns:figma="http://www.figma.com/figma/ns" id="ussd" x="144"><title>ussd</title><desc>Created using Figma</desc><g transform="translate(-31 45)" figma:type="canvas"><mask id="bia"><path d="M31-45h48V3H31v-48z" fill="#FFF"/></mask><g style="mix-blend-mode:normal" mask="url(#bia)" figma:type="frame"><g style="mix-blend-mode:normal" figma:type="vector" transform="translate(38 -45)" fill="#3BB75E"><use xlink:href="#bib" style="mix-blend-mode:normal"/><use xlink:href="#bic" style="mix-blend-mode:normal"/><use xlink:href="#bid" style="mix-blend-mode:normal"/><use xlink:href="#bie" style="mix-blend-mode:normal"/></g></g></g><defs><path id="bib" d="M12 40a1 1 0 1 0 0 2h6a1 1 0 1 0 0-2h-6z"/><path id="bic" d="M26 14h-6a1 1 0 1 0 0 2h13a1 1 0 1 0 0-2h-7z"/><path id="bid" d="M28 20h-8a1 1 0 1 0 0 2h13a1 1 0 1 0 0-2h-5z"/><path id="bie" fill-rule="evenodd" d="M30 27v17a4 4 0 0 1-4 4H4a4 4 0 0 1-4-4V4a4 4 0 0 1 4-4h22a4 4 0 0 1 4 4v5h6.763a3 3 0 0 1 3 3v12a3 3 0 0 1-3 3H30zM4 2h22a2 2 0 0 1 2 2v5H16.763a3 3 0 0 0-3 3v12a3 3 0 0 0 3 3H18v6a1 1 0 0 0 1.832.555L24.202 27H28v17a2 2 0 0 1-2 2H4a2 2 0 0 1-2-2V4a2 2 0 0 1 2-2zm29 9h3.763a1 1 0 0 1 1 1v12a1 1 0 0 1-1 1H23.25l-.082-.055-.037.055H23v.197l-3 4.5V25h-3.237a1 1 0 0 1-1-1V12a1 1 0 0 1 1-1H33z"/></defs></svg><svg width="48" height="48" viewBox="0 0 48 48" xmlns:figma="http://www.figma.com/figma/ns" id="webhooks" x="96" y="192"><title>webhooks</title><desc>Created using Figma</desc><g transform="translate(-31 -35)" figma:type="canvas"><mask id="bja"><path d="M31 35h48v48H31V35z" fill="#FFF"/></mask><g style="mix-blend-mode:normal" mask="url(#bja)" figma:type="frame" fill="#3BB75E"><use xlink:href="#bjb" transform="translate(31 44)" style="mix-blend-mode:normal" figma:type="vector-operation"/><use xlink:href="#bjc" transform="rotate(-41.009 104.861 -42.085)" style="mix-blend-mode:normal" figma:type="vector"/></g></g><defs><path id="bjb" fill-rule="evenodd" d="M27 1a1 1 0 0 1-1 1H3a1 1 0 0 0-1 1v33a1 1 0 0 0 1 1h33a1 1 0 0 0 1-1V13a1 1 0 1 1 2 0v25a1 1 0 0 1-1 1H1a1 1 0 0 1-1-1V1a1 1 0 0 1 1-1h25a1 1 0 0 1 1 1z"/><path id="bjc" d="M-.032.015a1 1 0 0 0 .064 1.999l-.064-2zm32 .669A1 1 0 0 0 31.92-.73l-6.567-6.154a1 1 0 1 0-1.367 1.46l5.837 5.47-5.47 5.837a1 1 0 0 0 1.46 1.368L31.966.684zM.031 2.014L31.27.999l-.065-1.998L-.032.015l.064 1.999z"/></defs></svg><svg width="48" height="48" viewBox="0 0 48 48" xmlns:figma="http://www.figma.com/figma/ns" id="zero-setup" x="288"><title>zero-setup</title><desc>Created using Figma</desc><g transform="translate(321 205)" figma:type="canvas"><mask id="bka"><path d="M-321-205h48v48h-48v-48z" fill="#FFF"/></mask><g style="mix-blend-mode:normal" mask="url(#bka)" figma:type="frame"><g style="mix-blend-mode:normal" figma:type="ellipse"><mask id="bkc"><use xlink:href="#bkb" fill="#fff" transform="translate(-319 -203)"/></mask><g mask="url(#bkc)"><use xlink:href="#bkd" transform="translate(-319 -203)" fill="#3BB75E" style="mix-blend-mode:normal"/></g></g><use xlink:href="#bke" transform="rotate(-45 -350.723 307.274)" fill="#3BB75E" style="mix-blend-mode:normal" figma:type="vector"/></g></g><defs><path id="bkb" d="M44 22c0 12.15-9.85 22-22 22S0 34.15 0 22 9.85 0 22 0s22 9.85 22 22z"/><path id="bkd" d="M42 22c0 11.046-8.954 20-20 20v4c13.255 0 24-10.745 24-24h-4zM22 42C10.954 42 2 33.046 2 22h-4c0 13.255 10.745 24 24 24v-4zM2 22C2 10.954 10.954 2 22 2v-4C8.745-2-2 8.745-2 22h4zM22 2c11.046 0 20 8.954 20 20h4C46 8.745 35.255-2 22-2v4z"/><path id="bke" d="M0-1a1 1 0 1 0 0 2v-2zm65.054 2a1 1 0 1 0 0-2v2zM0 1h65.054v-2H0v2z"/></defs></svg></svg>