<svg xmlns="http://www.w3.org/2000/svg" viewBox="0 0 100 125"><path style="text-indent:0;text-align:start;line-height:normal;text-transform:none;block-progression:tb;-inkscape-font-specification:Sans" d="M27.969 11.969a1 1 0 0 0-.625.25l-20 17a1 1 0 0 0 0 1.531l20 17a1.008 1.008 0 1 0 1.313-1.531l-17.906-15.219h71.25c.528.007 1-.472 1-1s-.472-1.007-1-1h-71.25l17.906-15.25a1 1 0 0 0-.688-1.781zm43.938 40a1 1 0 0 0-.563 1.781l17.906 15.25h-71.438c-.524.049-.955.57-.906 1.094.049.524.57.955 1.094.906h71.25l-17.906 15.219a1.008 1.008 0 1 0 1.313 1.531l20-17a1 1 0 0 0 0-1.531l-20-17a1 1 0 0 0-.75-.25z" transform="translate(0 -952.362) translate(0 952.362)" color="#000" overflow="visible" enable-background="accumulate" font-family="Sans"/></svg>