<svg xmlns="http://www.w3.org/2000/svg" viewBox="-306.2 331.3 84 49.6" enable-background="new -306.2 331.3 84 49.6"><style type="text/css">.st0{fill:#3BB75E;}</style><path class="st0" d="M-237.675 336.544l.507.243 1.485 1.023c.978.78 1.831 1.604 2.684 2.428l.64.618c.044.125.044.125.213.206l.213.206.132.375.044.125-.081.169-2.59 3.022.257.331c.044.125.213.206.301.456l.904 1.368c.346.581.522 1.081.743 1.706l.044.125 3.972-.698.125-.044.125-.044.338.162.044.125.132.375c.221.625.397 1.125.492 1.795.272 1.169.419 2.383.566 3.597-.037.294.051.544.059.964.044.125.044.125-.037.294l-.037.294c.044.125-.081.169-.162.338l-.125.044-.125.044-3.972.698.007.419-.118.463c-.074.588-.147 1.177-.346 1.809-.074.588-.316 1.096-.434 1.559l.044.125 3.39 2.038.044.125.044.125.132.375c.044.125.044.125-.081.169-.081.169-.081.169-.118.463-.243.507-.442 1.14-.809 1.691-.611 1.059-1.221 2.118-1.876 3.052l-.574.765-.081.169s-.081.169-.206.213l-.375.132-.125.044s-.125.044-.169-.081l-3.39-2.038c-.081.169-.206.213-.331.257l-.287.382-1.28 1.154s-.993.772-1.449 1.074l-.125.044 1.323 3.751.044.125.044.125c.044.125-.081.169-.162.338l-.125.044c-.25.088-.25.088-.331.257-.456.301-1.081.522-1.706.743-1.081.522-2.251.794-3.42 1.066l-.919.184-.25.088-.25.088c-.125.044-.294-.037-.338-.162l-.044-.125-.044-.125-1.323-3.751-.419.007c-.125.044-.294-.037-.544.051-.544.051-1.089.103-1.677.029l-1.89-.177-.125.044-1.361 3.714-.125.044s-.206.213-.375.132l-.125.044c-.169-.081-.169-.081-.463-.118-.588-.074-1.221-.272-1.728-.515-1.096-.316-2.236-.758-3.295-1.369l-.846-.405-.169-.081s-.169-.081-.213-.206-.213-.206-.132-.375l-.044-.125s-.044-.125.081-.169l1.361-3.714-.382-.287-.382-.287c-.382-.287-.934-.655-1.36-1.067s-.853-.824-1.324-1.361l-.044-.125-3.531 1.948-.125.044-.125.044-.294-.037s-.044-.125-.169-.081c-.213-.206-.213-.206-.257-.331l-1.074-1.449c-.647-1.037-1.294-2.074-1.691-3.2l-.309-.875-.088-.25-.088-.25c-.044-.125.037-.294.037-.294l.125-.044.125-.044 3.531-1.948-.132-.375-.176-.5c-.176-.5-.228-1.044-.323-1.714s-.147-1.214-.242-1.883l-.044-.125-3.913-.729-.125.044c-.169-.081-.213-.206-.213-.206l-.044-.125c.037-.294.037-.294-.007-.419l.221-1.765c.147-1.177.42-2.398.736-3.493.037-.294.199-.632.28-.802l.081-.169.162-.338.206-.213.125-.044.125-.044 3.913.729c.081-.169.037-.294.162-.338l.243-.507.853-1.566s.655-.934.942-1.316l.125-.044-2.485-3.06-.044-.125-.044-.125c-.044-.125.037-.294.037-.294l.125-.044c.081-.169.081-.169.287-.382l1.236-1.28c.824-.853 1.817-1.625 2.854-2.272.206-.213.456-.301.787-.559l.25-.088.25-.088c.125-.044.25-.088.294.037 0 0 .044.125.169.081l2.485 3.06.375-.132.5-.176 1.751-.617c.5-.176 1-.353 1.67-.448l.125-.044.016-3.942-.044-.125s-.044-.125.081-.169c.081-.169.206-.213.206-.213l.125-.044c.25-.088.25-.088.419-.007l1.758-.198c1.258-.022 2.39 0 3.567.148l.883.111c.125-.044.169.081.169.081l.294.037c.169.081.169.081.213.206l.044.125.044.125-.016 3.942.463.118s.294.037.463.118l1.772.64 1.522.728.044.125 2.59-3.022.125-.044.125-.044.25-.088c-.176-.5-.176-.5-.051-.544zm1.663 30.626l3.515 1.994.861-1.147c.655-.934 1.185-1.824 1.67-2.839l.567-1.184-3.39-2.038-.044-.125-.044-.125-.088-.25-.044-.125.118-.463c.199-.632.353-1.39.508-2.148.155-.758.265-1.64.295-2.354l-.044-.125-.044-.125c.081-.169.081-.169.206-.213l.125-.044 3.972-.698-.11-1.508c-.103-1.089-.331-2.133-.558-3.177-.132-.375-.265-.75-.316-1.295l-3.972.698-.125.044c-.125.044-.125.044-.169-.081-.169-.081-.169-.081-.213-.206l-.044-.125-.176-.5c-.265-.75-.654-1.456-1.044-2.163-.39-.706-.86-1.243-1.206-1.824l-.044-.125-.044-.125s-.088-.25.037-.294l.081-.169 2.59-3.022c-.301-.456-.684-.743-1.066-1.03l-2.427-2.097-1.103-.736-2.59 3.022-.125.044-.125.044c-.125.044-.25.088-.294-.037-.169-.081-.338-.162-.382-.287-.677-.324-1.353-.648-2.155-.927-.677-.324-1.434-.478-2.192-.633l-.125.044c-.169-.081-.213-.206-.213-.206l-.044-.125.016-3.942-1.471-.184c-1.008-.066-2.14-.089-3.229.014-.419.007-.838.015-1.214.147l-.016 3.942.044.125s.044.125-.081.169c-.081.169-.206.213-.206.213l-.125.044-.5.176c-.794.14-1.545.404-2.295.669s-1.331.61-2.082.875l-.125.044-.125.044c-.125.044-.169-.081-.338-.162l-.044-.125-2.485-3.06-1.243.86c-.912.603-1.655 1.287-2.523 2.015l-.949.897 2.485 3.06.044.125.044.125s.088.25-.037.294l-.081.169-.287.382c-.493.596-.942 1.316-1.265 1.993l-.971 2.03-.125.044s-.206.213-.25.088l-.125.044-3.913-.729-.478 1.434c-.316 1.096-.508 2.148-.574 3.155l-.103 1.302 3.913.729.125-.044c.169.081.213.206.213.206l.044.125.007.419c.015.838.154 1.633.25 2.302l.5 2.214.044.125.044.125c.044.125-.081.169-.162.338l-.125.044-3.531 1.948c.176.5.353 1 .61 1.331.478.956.956 1.912 1.559 2.825l.772.993 3.531-1.948.125-.044.125-.044.294.037s.044.125.169.081l.257.331c.471.537 1.11 1.155 1.706 1.648s1.147.861 1.868 1.31l.044.125.044.125.132.375c.044.125.044.125-.081.169l-1.361 3.714c.507.243.89.53 1.353.648 1.015.486 1.986.846 3.081 1.163.463.118.802.28 1.221.272l1.361-3.714s.125-.044.081-.169l.375-.132.125-.044.463.118c.758.155 1.596.14 2.434.126.713.03 1.508-.11 2.177-.205l.125-.044c.125-.044.125-.044.169.081.169.081.169.081.213.206l.044.125 1.323 3.751c.544-.051 1.044-.228 1.42-.36 1.044-.228 2.045-.581 3.001-1.059.375-.132.706-.39 1.206-.566l-1.323-3.751-.044-.125-.044-.125s.037-.294.162-.338l.125-.044c.125-.044.206-.213.456-.301.706-.39 1.368-.904 1.905-1.375s1.074-.941 1.567-1.537l.125-.044.125-.044.25-.088c-.118.463-.118.463.051.544-.169-.081-.125.044 0 0zm-13.161-21.369l1.008.066c.713.03 1.471.184 2.148.508 1.096.316 2.155.927 3.133 1.707.809.699 1.493 1.442 2.096 2.354.603.912 1.081 1.868 1.309 2.913s.411 1.964.345 2.971c-.022 1.133-.295 2.354-.736 3.493-.442 1.14-1.177 2.243-2.001 3.096-.905 1.022-2.067 1.713-3.273 2.279-1.206.566-2.67.801-4.053.867-1.258.022-2.479-.251-3.618-.692-1.14-.442-2.199-1.052-3.052-1.876-.809-.699-1.368-1.486-1.971-2.398-.478-.956-.912-1.787-1.139-2.832-.184-.919-.286-2.008-.22-3.016.214-2.184 1.141-4.339 2.539-5.957.905-1.022 1.898-1.794 3.104-2.36.831-.434 1.876-.662 2.795-.845l1.383-.066c.037-.294.037-.294.206-.213zm-.236.927c-.419.007-.838.015-1.214.147-.919.184-1.714.323-2.545.757-1.081.522-2.074 1.294-2.898 2.147-1.317 1.449-2.163 3.434-2.296 5.45-.111.883.073 1.802.213 2.596.184.919.492 1.795 1.051 2.582.434.831 1.074 1.449 1.757 2.192.809.699 1.743 1.354 2.714 1.714 1.015.486 2.192.633 3.324.655 1.258-.022 2.552-.338 3.678-.735 1.081-.522 2.118-1.169 2.942-2.022.824-.853 1.354-1.743 1.795-2.883.361-.971.677-2.067.618-3.03-.015-.838-.073-1.802-.257-2.721s-.662-1.876-1.22-2.663c-1.118-1.574-2.691-2.847-4.633-3.568-.632-.199-1.265-.397-1.978-.427l-.883-.111-.169-.081zM-273.484 354.862l.174.105.097.153.242.384c.388.614.699 1.276.933 1.986.234.711.517 1.498.675 2.257l.048.077c.048.077.048.077-.028.125-.028.125-.056.25-.133.299l-.153.097-2.39.973.04.404.089.48c.061.606.045 1.26-.02 1.837l-.028.125 2.524.767c.048.077.125.028.125.028.125.028.222.182.242.384.048.077.048.077-.028.125l-.036.452c-.093.703-.311 1.377-.48 2.128l-.884 2.168-.077.048-.153.097s-.23.145-.355.117c-.077.048-.125-.028-.125-.028l-2.524-.767-.21.347-.287.396c-.315.521-.755 1.014-1.167 1.381l-.077.048-.077.048 1.405 2.224.097.153c.097.153-.008.327-.085.375l-.077.048-.335.319c-.565.464-1.13.929-1.792 1.24-.69.436-1.352.747-2.091 1.107l-.077.048c-.077.048-.077.048-.125-.028-.125-.028-.25-.056-.299-.133l-.097-.153-1.405-2.224-.355.117-.432.166c-.634.186-1.239.247-1.845.307l-.125-.028-.077.048-.391 2.608-.028.125c-.028.125-.182.222-.258.271s-.077.048-.125-.028l-.452-.036c-.731.032-1.433-.06-2.136-.153-.828-.121-1.579-.29-2.253-.508l-.048-.077c-.048-.077-.048-.077-.125-.028l-.194-.307s-.048-.077.028-.125l.391-2.608c-.125-.028-.25-.056-.424-.161l-.424-.161c-.598-.266-1.118-.581-1.639-.896l-.125-.028-.048-.077-1.905 1.74-.153.097c-.153.097-.279.069-.404.04-.048-.077-.048-.077-.125-.028l-.396-.287-1.575-1.473c-.464-.565-.977-1.207-1.413-1.897l-.048-.077-.097-.153c.028-.125-.02-.202.085-.375l.077-.048 1.905-1.74-.194-.307c-.097-.153-.145-.23-.166-.432-.263-.585-.477-1.094-.662-1.728l-.048-.077-.048-.077-2.596.138c-.077.048-.077.048-.125-.028-.125-.028-.299-.133-.347-.21l-.097-.153-.089-.48c-.109-.682-.19-1.49-.174-2.144-.032-.731.012-1.51.133-2.338l.028-.125c.077-.048.028-.125.028-.125.028-.125.182-.222.307-.194.077-.048.077-.048.125.028l2.596-.138.085-.375.113-.501c.141-.626.331-1.175.597-1.773l.028-.125.077-.048-2.076-1.586-.097-.153c-.097-.153-.145-.23-.04-.404l.028-.125c.028-.125.133-.299.287-.396.343-.646.735-1.215 1.203-1.833.468-.618.985-1.159 1.578-1.748l.077-.048.153-.097s.202-.02.327.008c.048.077.048.077.125.028l2.076 1.586.307-.194.384-.242c.537-.339 1.074-.678 1.583-.893l.077-.048.077-.048-.541-2.556c-.048-.077-.048-.077.028-.125.028-.125.056-.25.21-.347l.153-.097.432-.166c.711-.234 1.421-.469 2.103-.578.759-.158 1.566-.238 2.297-.271l.077-.048c.077-.048.125.028.125.028.125.028.174.105.271.258l.097.153.541 2.556c.125.028.25.056.452.036l.452.036c.577.064 1.28.157 1.829.347l.125.028 1.239-2.285c.077-.048.077-.048.028-.125.153-.097.23-.145.355-.117.077-.048.125.028.125.028l.424.161c.674.218 1.32.561 1.966.904.646.343 1.341.763 1.958 1.231l.048.077.097.153c.048.077.069.279-.008.327.048.077-.028.125-.028.125l-1.239 2.285.271.258.319.335 1.199 1.389.048.077.048.077 2.39-.973.077-.048c.279-.069.327.008.452.036-.125-.028-.048-.077 0 0zm-24.578 10.7c.048.077.125.028.125.028.048.077.174.105.145.23l.048.077.166.432c.089.48.303.989.469 1.421s.456.892.699 1.276l.048.077c.048.077.048.077.02.202s.02.202-.056.25-.077.048-.105.174l-1.905 1.74c.755 1.025 1.587 2.002 2.524 2.806l1.905-1.74.077-.048.153-.097s.202-.02.327.008c.048.077.125.028.125.028l.347.21c.396.287.868.525 1.341.763s.896.4 1.369.638l.048.077c.048.077.048.077.174.105l.145.23c.048.077.048.077-.028.125l-.314 2.56c1.175.331 2.455.488 3.763.52l.314-2.56.028-.125c.077-.048.028-.125.028-.125.077-.048.105-.174.23-.145.077-.048.077-.048.202-.02s.279-.069.404-.04c.48-.089 1.009-.101 1.441-.267.48-.089.989-.303 1.421-.469l.077-.048c.077-.048.077-.048.125.028.125.028.25.056.299.133l.097.153 1.405 2.224c1.171-.525 2.245-1.204 3.221-2.035l-1.405-2.224-.048-.077-.097-.153s-.02-.202.056-.25.077-.048.105-.174l.335-.319c.335-.319.698-.763.985-1.159s.573-.791.811-1.264l.077-.048.153-.097s.153-.097.279-.069c.077-.048.125.028.125.028l2.447.815c.581-1.118.94-2.419 1.146-3.622l-2.447-.815-.048-.077c-.048-.077-.048-.077-.174-.105l-.145-.23c-.048-.077-.048-.077.028-.125.028-.125.056-.25.036-.452.036-.452.024-.981.012-1.51s-.101-1.009-.19-1.49l-.048-.077c-.048-.077.028-.125.028-.125.028-.125.105-.174.182-.222l.153-.097 2.39-.973c-.323-1.191-.772-2.41-1.45-3.484l-2.39.973-.077.048c-.077.048-.077.048-.125-.028-.125-.028-.25-.056-.299-.133l-.097-.153-.242-.384c-.291-.46-.61-.795-.929-1.13s-.686-.747-1.082-1.033l-.048-.077-.097-.153-.069-.279.028-.125 1.239-2.285c-1.014-.755-2.132-1.336-3.355-1.744l-1.239 2.285-.077.048-.153.097s-.153.097-.279.069c-.077.048-.125-.028-.125-.028l-.375-.085c-.501-.113-1.001-.226-1.454-.262-.452-.036-1.03-.101-1.558-.089l-.077.048-.125-.028c-.125-.028-.174-.105-.222-.182l-.097-.153-.541-2.556c-1.26.045-2.527.416-3.67.816l.541 2.556.048.077c.048.077.048.077-.028.125-.028.125-.105.174-.182.222l-.153.097c-.153.097-.23.145-.432.166-.432.166-.892.456-1.276.699-.46.291-.795.61-1.179.852l-.077.048-.153.097s-.202.02-.327-.008c-.048-.077-.048-.077-.125-.028l-2.076-1.586c-.928.909-1.683 1.922-2.313 2.964l2.076 1.586.048.077.097.153s.02.202.069.279l-.028.125-.161.424c-.238.472-.4.896-.513 1.397l-.339 1.502-.028.125c-.077.048-.028.125-.028.125-.077.048-.105.174-.23.145-.077.048-.077.048-.202.02l-2.596.138c-.157 1.28-.113 2.54.134 3.779l2.596-.138.174.105zm11.61-9.482c.981.024 1.857.222 2.705.545.598.266 1.292.686 1.785 1.126.985.88 1.789 1.982 2.161 3.25.234.711.315 1.518.271 2.297-.044.779-.165 1.607-.537 2.378-.323.848-.743 1.542-1.336 2.132-.622.715-1.389 1.199-2.204 1.607-.892.456-1.853.634-2.834.61-1.587.037-3.234-.532-4.518-1.546-.569-.392-1.034-.957-1.421-1.57-.339-.537-.678-1.074-.864-1.708-.234-.711-.392-1.47-.348-2.249-.004-.856.117-1.684.44-2.532.246-.799.743-1.542 1.288-2.209.622-.715 1.34-1.276 2.156-1.684.585-.263 1.296-.497 1.853-.634.279-.069.606-.061.933-.053.271.258.396.287.472.238zm-.177 1.078c-.856.004-1.692.21-2.43.57-.739.359-1.381.872-1.897 1.413-.517.541-.86 1.187-1.203 1.833-.218.674-.387 1.425-.403 2.079s.045 1.26.23 1.894c.137.557.428 1.017.67 1.401.339.537.707.949 1.199 1.389 1.11.908 2.507 1.421 3.892 1.404.856-.004 1.692-.21 2.479-.493.739-.359 1.429-.796 1.946-1.337.517-.541.908-1.11 1.203-1.833.266-.598.436-1.349.452-2.003.064-.577-.045-1.26-.182-1.817-.275-1.114-.905-2.111-1.716-2.886-.493-.44-1.062-.832-1.66-1.098-.723-.295-1.522-.541-2.301-.585l-.279.069z"/></svg>