<svg xmlns="http://www.w3.org/2000/svg" viewBox="-299 288 100 103" enable-background="new -299 288 100 103"><style type="text/css">.st0{fill:#3BB75E;}</style><path class="st0" d="M-269 295.038c-.6 0-1 .4-1 1v10.1c-2.8.5-5 2.9-5 5.9 0 3.3 2.7 6 6 6s6-2.7 6-6c0-3-2.2-5.4-5-5.9v-10.1c0-.6-.4-1-1-1zm40 0c-.6 0-1 .4-1 1v10.1c-2.8.5-5 2.9-5 5.9 0 3.3 2.7 6 6 6s6-2.7 6-6c0-3-2.2-5.4-5-5.9v-10.1c0-.6-.4-1-1-1zm-52 4c-5 0-9 4-9 9v63.9c0 5 4 9 9 9h63.9c5 0 9-4 9-9v-63.9c0-5-4-9-9-9h-6c-.5 0-1 .5-1 1s.5 1 1 1h6c3.9 0 7 3.1 7 7v15h-78v-15c0-3.9 3.1-7 7-7h6c.5 0 1-.5 1-1s-.5-1-1-1h-5.9zm18 0c-.5.1-.9.5-1 1 0 .4.5 1.1 1 1h28c.5 0 1-.5 1-1s-.5-1-1-1h-28zm-6 9c2.2 0 4 1.8 4 4s-1.8 4-4 4-4-1.8-4-4c0-2.3 1.8-4 4-4zm40 0c2.2 0 4 1.8 4 4s-1.8 4-4 4-4-1.8-4-4c0-2.3 1.8-4 4-4zm-59 17h78v47c0 3.9-3.1 7-7 7h-64c-3.9 0-7-3.1-7-7v-47zm43 17c-.3 0-.5.1-.7.3-.4.4-.4 1 0 1.4l8.3 8.3h-25.6c-.6 0-1 .4-1 1s.4 1 1 1h25.6l-8.3 8.3c-.4.4-.4 1 0 1.4.4.4 1.1.4 1.4 0l9.9-9.9c.2-.2.4-.5.4-.8 0-.3-.2-.5-.4-.8l-9.9-9.9c-.2-.2-.4-.3-.7-.3z"/></svg>