<svg xmlns="http://www.w3.org/2000/svg" viewBox="-299 288 100 102" enable-background="new -299 288 100 102"><style type="text/css">.st0{fill:#3BB75E;}</style><path class="st0" d="M-218 330h-6.7v-12.2c-1.3-12.4-11.8-21.7-24.2-21.7-12.5 0-23 9.4-24.2 22v11.9h-6.7c-2.3 0-4.1 1.9-4.1 4.1v41.6c0 2.3 1.9 4.1 4.1 4.1h61.9c2.3 0 4.1-1.9 4.1-4.1v-41.6c-.1-2.2-2-4.1-4.2-4.1zm-53.6-11.8c1.2-11.6 10.9-20.4 22.6-20.4 11.6 0 21.3 8.7 22.6 20.1v12.1h-5.4v-12.299999999999999c-1.9-8-8.9-13.5-17.1-13.5-8.2 0-15.2 5.6-17.1 13.5v12.299999999999999h-5.4l-.2-11.8zm7.1 11.8v-12c1.7-7.2 8.1-12.2 15.5-12.2s13.8 5 15.5 12.2v12h-31zm48.9 45.7c0 1.4-1.1 2.5-2.5 2.5h-61.9c-1.4 0-2.5-1.1-2.5-2.5v-41.6c0-1.4 1.1-2.5 2.5-2.5h61.9c1.4 0 2.5 1.1 2.5 2.5v41.6zM-273.4 343.2c-.5 0-.8.4-.8.8v22c0 .5.4.8.8.8.5 0 .8-.4.8-.8v-22c.1-.4-.3-.8-.8-.8zM-265.6 343.2c-.5 0-.8.4-.8.8v22c0 .5.4.8.8.8.5 0 .8-.4.8-.8v-22c0-.4-.4-.8-.8-.8zM-232.1 343.2c-.5 0-.8.4-.8.8v22c0 .5.4.8.8.8s.8-.4.8-.8v-22c.1-.4-.3-.8-.8-.8zM-224.4 343.2c-.5 0-.8.4-.8.8v22c0 .5.4.8.8.8.5 0 .8-.4.8-.8v-22c.1-.4-.3-.8-.8-.8zM-248.6 341.9c-3.4 0-6.2 2.8-6.2 6.2 0 2 .9 3.8 2.5 5v14c0 .5.4.8.8.8h5.5c.5 0 .8-.4.8-.8v-13.9c1.7-1.1 2.7-3.1 2.7-5.1.1-3.5-2.7-6.2-6.1-6.2zm2.5 9.9c-.4.1-.7.4-.7.8v13.6h-3.9v-13.799999999999999l-.1-.2v-.1l-.2-.2c-1.3-.8-2.1-2.3-2.1-3.8 0-2.5 2-4.5 4.5-4.5s4.5 2 4.5 4.5c0 1.4-.8 2.8-2 3.7z"/></svg>