<svg xmlns="http://www.w3.org/2000/svg" viewBox="-299 288 100 103.9" enable-background="new -299 288 100 103.9"><style type="text/css">.st0{fill:#3BB75E;}</style><path class="st0" d="M-226.5 324.6c.3-2.9 1.2-16.5-6.2-25-3.8-4.4-9.3-6.6-16.3-6.6s-12.5 2.2-16.3 6.6c-7.4 8.5-6.5 22.1-6.2 25-10 4-17.1 13.8-17.1 25.2v6c0 15 12.2 27.2 27.2 27.2h24.9c15 0 27.2-12.2 27.2-27.2v-6c-.1-11.4-7.2-21.2-17.2-25.2zm-37.8-24.1c3.6-4.1 8.8-6.2 15.3-6.2 6.6 0 11.7 2.1 15.3 6.2 6.7 7.7 6.2 20.3 5.9 23.6-2.8-1-5.7-1.5-8.8-1.5h-24.8c-3.1 0-6.1.5-8.8 1.5-.3-3.3-.9-15.9 5.9-23.6zm53.6 55.3c0 14.3-11.6 25.8-25.8 25.8h-24.9c-14.3 0-25.8-11.6-25.8-25.8v-6c0-11 7-20.5 16.7-24.2 2.8-1.1 5.9-1.6 9.1-1.6h24.9c3.2 0 6.2.6 9.1 1.6 9.8 3.7 16.7 13.1 16.7 24.2v6zM-240.3 346.1c0-4.8-3.9-8.7-8.7-8.7s-8.7 3.9-8.7 8.7c0 3.4 1.3 5.8 3.8 7.2l-3.1 13.7c0 .2 0 .4.1.6.1.2.3.3.5.3h14.7c.2 0 .4-.1.5-.3.1-.2.2-.4.1-.6l-3.2-13.7c2.6-1.5 4-4 4-7.2zm-4.9 6.3l-.1.1-.1.1s0 .1-.1.1v.30000000000000004l3.1 13.3h-13.1l3.1-13.3c.1-.4-.1-.7-.5-.8-.1-.1-.1-.1-.2-.1-2.2-1.2-3.2-3.2-3.2-6.1 0-4.1 3.3-7.4 7.4-7.4 4.1 0 7.4 3.3 7.4 7.4-.1 3-1.4 5.2-3.7 6.4z"/></svg>