<svg xmlns="http://www.w3.org/2000/svg" viewBox="-299 294.1 100 94.9" enable-background="new -299 294.1 100 94.9"><style type="text/css">.st0{fill:#3BB75E;}</style><path class="st0" d="M-249 381l-.2-.1c-24.8-12.2-23.2-47.7-23.2-48v-.2l.2-.1c.3-.2 8-5.6 23.2-5.6s22.9 5.4 23.2 5.6l.2.1v.2c0 .4 1.6 35.8-23.2 48l-.2.1zm-22.4-47.8c-.1 3.2-.4 35.2 22.4 46.7 22.9-11.5 22.5-43.5 22.4-46.7-1.3-.8-8.9-5.3-22.4-5.3-13.5 0-21.1 4.5-22.4 5.3zM-268.3 331.5c-.1 0-.2 0-.3-.1-.1-.1-.2-.2-.2-.4v-7.3c0-10.4 8.8-18.9 19.6-18.9s19.6 8.5 19.6 18.9v7.2c0 .2-.1.3-.2.4-.1.1-.3.1-.5 0-1.8-.8-3.8-1.4-6-1.9-.2-.1-.4-.3-.4-.5v-5.2c0-6.6-5.6-12.1-12.6-12.1-6.9 0-12.6 5.4-12.6 12.1v5.3c0 .2-.2.4-.4.5-2.2.5-4.2 1.2-6 2zm19.2-25.7c-10.3 0-18.6 8-18.6 17.9v6.5c1.6-.6 3.3-1.2 5.1-1.7v-4.9c0-7.2 6.1-13.1 13.6-13.1s13.6 5.9 13.6 13.1v4.8c1.8.5 3.5 1 5.1 1.6v-6.4c-.2-9.7-8.6-17.8-18.8-17.8zM-249.1 360.8c-7.3 0-13.2-5.9-13.2-13.2 0-7.3 5.9-13.2 13.2-13.2 7.3 0 13.2 5.9 13.2 13.2 0 7.2-5.9 13.2-13.2 13.2zm0-25.5c-6.8 0-12.2 5.5-12.2 12.2 0 6.8 5.5 12.2 12.2 12.2 6.8 0 12.2-5.5 12.2-12.2 0-6.7-5.5-12.2-12.2-12.2zM-249.1 347.5"/><path class="st0" d="M-249.6 334.8h1v4.7h-1zM-249.1 347.5"/><path class="st0" d="M-255.196 342.154l-3.324-3.322.707-.707 3.324 3.322zM-249.1 347.5"/><path class="st0" d="M-261.9 347h4.7v1h-4.7zM-249.1 347.5"/><path class="st0" d="M-257.799 356.895l-.707-.707 3.323-3.323.707.707zM-249.1 347.5"/><path class="st0" d="M-249.6 355.5h1v4.7h-1zM-249.1 347.5"/><path class="st0" d="M-240.441 356.886l-3.323-3.323.707-.707 3.323 3.323zM-249.1 347.5"/><path class="st0" d="M-241.1 347h4.7v1h-4.7zM-249.1 347.5"/><path class="st0" d="M-243.115 342.201l-.707-.707 3.323-3.323.707.707z"/></svg>