<svg xmlns="http://www.w3.org/2000/svg" viewBox="-299 291.3 100 91.7" enable-background="new -299 291.3 100 91.7"><style type="text/css">.st0{fill:#3BB75E;}</style><path class="st0" d="M-235.5 366.9c-8.7 0-15.8-7.1-15.8-15.8 0-2 .4-3.9 1.1-5.8l1.9.7c-.6 1.6-.9 3.3-.9 5 0 7.6 6.2 13.8 13.8 13.8 7.6 0 13.8-6.2 13.8-13.8s-6.2-13.8-13.8-13.8c-.3 0-1.9.4-3.2.7l-.6-1.9c1.4-.4 3.2-.8 3.7-.8 8.7 0 15.8 7.1 15.8 15.8.1 8.8-7 15.9-15.8 15.9zM-236.2 352.3c-2 0-3.6-.4-3.8-.5l-.2-.1-19.1-10.5-15.5-3.6c-1.2-.3-2.3-1-2.9-2.1-.6-1.1-.8-2.4-.5-3.6l3.4-14.1c.5-1.7 2-3 3.7-3.2l22.7-5.4c3.4-.5 6.7.5 9.3 2.6l12.2 8.6c2.1 1.7 3.5 2.9 3 6.1l-2.3 11.7-2-.4 2.2-11.7c.3-2.1-.3-2.6-2.3-4.3l-.2-.2-11.9-8.4c-2.2-1.8-5-2.6-7.7-2.2l-22.7 5.4c-1.1.2-1.9.8-2.1 1.8l-3.4 14.1c-.2.7-.1 1.4.2 2 .3.6.9 1 1.6 1.2l15.9 3.7 19.1 10.5c1.6.4 5.8.9 7.2-1.1 2.1-2.9.4-5.3.1-5.7l-17.3-13.5.2-.7c.6-1.8 1.9-3.1 3.7-3.6.1-.1.6-.5.9-.8.9-.9 1.6-1.5 2.4-1.3.4.1.7.3.8.7 1.1 2.6 4.2 3.4 6 3.9 1.1.3 1.9.5 2 1.4v.1l-1 8.1-2-.2.9-7.3c-.1 0-.3-.1-.5-.1-1.9-.5-5.2-1.4-7-4.2-.2.2-.4.3-.5.5-.7.7-1.2 1.1-1.7 1.3-1.1.3-1.7 1.1-2.1 1.7l16.6 13c1.2 1.3 2.7 4.7.1 8.3-1.1 1.7-3.5 2.1-5.5 2.1z"/></svg>