<svg xmlns="http://www.w3.org/2000/svg" viewBox="-299 288 100 91" enable-background="new -299 288 100 91"><style type="text/css">.st0{fill:#3BB75E;}</style><path class="st0" d="M-291.9 356.4v5.1l.5.3c3.2 2.2 8.6 3.5 14.2 3.5 3.5 0 6.9-.5 9.7-1.4 4.8 2.4 11.4 3.8 18.5 3.8s13.7-1.4 18.5-3.8c2.8.9 6.2 1.4 9.7 1.4 5.7 0 11-1.3 14.2-3.5l.5-.3v-5.1c0-6.4-4.2-11.9-10-13.9 2.9-1.6 4.8-4.7 4.8-8.3 0-5.2-4.3-9.5-9.5-9.5s-9.5 4.3-9.5 9.5c0 3.5 1.9 6.6 4.8 8.3-1.7.6-3.3 1.4-4.6 2.6-2.7-5.2-7.5-9.2-13.3-10.7 4.7-2.2 8-6.9 8-12.4 0-7.5-6.1-13.7-13.7-13.7s-13.7 6.1-13.7 13.7c0 5.5 3.3 10.3 8 12.4-5.8 1.6-10.6 5.5-13.3 10.7-1.4-1.1-2.9-2-4.6-2.6 2.9-1.6 4.8-4.7 4.8-8.3 0-5.2-4.3-9.5-9.5-9.5s-9.5 4.3-9.5 9.5c0 3.5 1.9 6.6 4.8 8.3-5.6 2-9.8 7.5-9.8 13.9zm14.7-29.5c4.1 0 7.4 3.3 7.4 7.4 0 4.1-3.3 7.4-7.4 7.4-4.1 0-7.4-3.3-7.4-7.4 0-4.1 3.3-7.4 7.4-7.4zm8.4 20.2c-1 2.4-1.5 5.1-1.5 7.8v7.3l.3.2c-2.2.5-4.7.8-7.2.8-5 0-9.6-1.1-12.6-2.9v-3.9c0-6.9 5.6-12.6 12.6-12.6 3.2.1 6.1 1.3 8.4 3.3zm19.8-11.4c10.6 0 19.2 8.6 19.2 19.2v6.1c-4.5 2.8-11.6 4.5-19.2 4.5s-14.8-1.7-19.2-4.5v-6.1c0-10.6 8.6-19.2 19.2-19.2zm0-25.3c6.4 0 11.5 5.2 11.5 11.5 0 6.4-5.2 11.5-11.5 11.5s-11.5-5.2-11.5-11.5 5.1-11.5 11.5-11.5zm28.2 16.5c4.1 0 7.4 3.3 7.4 7.4 0 4.1-3.3 7.4-7.4 7.4s-7.4-3.3-7.4-7.4c0-4.1 3.4-7.4 7.4-7.4zm12.6 29.5v3.9c-2.9 1.8-7.6 2.9-12.6 2.9-2.6 0-5-.3-7.2-.8l.3-.2v-7.3c0-2.8-.5-5.4-1.5-7.8 2.2-2 5.2-3.2 8.4-3.2 7 0 12.6 5.6 12.6 12.5z"/></svg>