<svg xmlns="http://www.w3.org/2000/svg" viewBox="-299 292.1 100 90.9" enable-background="new -299 292.1 100 90.9"><style type="text/css">.st0{fill:#3BB75E;}</style><path class="st0" d="M-249 378c-9.2 0-17.8-3-25-8.8l1.6-2c6.7 5.4 14.8 8.2 23.4 8.2 8.6 0 16.7-2.8 23.4-8.2l1.6 2c-7.2 5.8-15.8 8.8-25 8.8zM-274 369.2c-9.5-7.6-15-19-15-31.2 0-22.1 17.9-40 40-40s40 17.9 40 40c0 12.2-5.5 23.6-15 31.2l-1.6-2c8.9-7.2 14-17.8 14-29.2 0-20.6-16.8-37.4-37.4-37.4s-37.4 16.8-37.4 37.4c0 11.4 5.1 22.1 14 29.2l-1.6 2zM-274.7 346.3c-5.2 0-9.4-4.2-9.4-9.4s4.2-9.4 9.4-9.4 9.4 4.2 9.4 9.4-4.2 9.4-9.4 9.4zm0-16.1c-3.7 0-6.8 3-6.8 6.8 0 3.7 3 6.8 6.8 6.8 3.7 0 6.8-3 6.8-6.8s-3-6.8-6.8-6.8zM-265.3 354c-2.5-2.4-5.9-3.8-9.4-3.8-3.3 0-6.6 1.2-9 3.5l-1.7-1.9c3-2.7 6.8-4.1 10.8-4.1 4.2 0 8.1 1.6 11.1 4.5l-1.8 1.8zM-223.3 346.3c-5.2 0-9.4-4.2-9.4-9.4s4.2-9.4 9.4-9.4 9.4 4.2 9.4 9.4-4.2 9.4-9.4 9.4zm0-16.1c-3.7 0-6.8 3-6.8 6.8 0 3.7 3 6.8 6.8 6.8 3.7 0 6.8-3 6.8-6.8s-3.1-6.8-6.8-6.8zM-232.6 353.9l-1.8-1.9c3-2.8 6.9-4.4 11-4.4 4 0 7.8 1.5 10.8 4.1l-1.7 1.9c-2.5-2.2-5.7-3.5-9-3.5-3.5.1-6.8 1.4-9.3 3.8zM-249 346.4c-8.2 0-14.8-6.7-14.8-14.8s6.7-14.8 14.8-14.8c8.2 0 14.8 6.7 14.8 14.8 0 8.1-6.6 14.8-14.8 14.8zm0-27.1c-6.8 0-12.3 5.5-12.3 12.3 0 6.8 5.5 12.3 12.3 12.3 6.8 0 12.3-5.5 12.3-12.3 0-6.8-5.5-12.3-12.3-12.3zM-271.9 368.5l-2.5-.6c2.7-11.9 13.2-20.3 25.4-20.3s22.7 8.3 25.4 20.3l-2.5.6c-2.5-10.8-11.9-18.3-22.9-18.3-11 0-20.5 7.6-22.9 18.3z"/></svg>