<svg xmlns="http://www.w3.org/2000/svg" viewBox="-299 288 100 94.5" enable-background="new -299 288 100 94.5"><style type="text/css">.st0{fill:#3BB75E;}</style><path class="st0" d="M-227 301.038c-11.6 0-21 9.4-21 21s9.4 21 21 21 21-9.4 21-21-9.4-21-21-21zm0 2c10.5 0 19 8.5 19 19s-8.5 19-19 19-19-8.5-19-19 8.5-19 19-19zm0 4c-.5 0-1 .5-1 1v2.1c-1.7.2-3.3.7-4.5 1.6-1.5 1-2.5 2.6-2.5 4.4 0 2.2 1.2 3.8 2.7 4.8s3.3 1.6 5.1 2.1c1.7.5 3.4 1.1 4.5 1.8s1.8 1.7 1.8 3.2c0 1-.6 2-1.6 2.7s-2.6 1.3-4.4 1.3c-2.8 0-5-2.1-5-4 0-.6-.4-1-1-1s-1 .4-1 1c0 3 2.7 5.5 6 5.9v2.1c0 .5.5 1 1 1s1-.5 1-1v-2.1c1.7-.2 3.3-.7 4.5-1.6 1.5-1 2.5-2.6 2.5-4.3 0-2.2-1.2-3.8-2.7-4.8s-3.3-1.6-5.1-2.1c-1.7-.5-3.4-1.1-4.5-1.8s-1.8-1.7-1.8-3.2c0-1 .6-2 1.6-2.8s2.6-1.2 4.4-1.2c2.8 0 5 2.1 5 4 0 .6.4 1 1 1s1-.4 1-1c0-3-2.7-5.5-6-5.9v-2.1c0-.7-.5-1.1-1-1.1zm-38 6c-3.3 0-6 2.7-6 6v4.6l-2.3-2.3c-.2-.2-.5-.3-.8-.3-.5 0-.9.5-.9 1 0 .2.1.5.2.7l4 4c.2.2.4.3.7.3.3 0 .6-.1.8-.3l4-4c.4-.4.4-1 0-1.4s-1.1-.3-1.4 0l-2.3 2.3v-4.6c0-2.2 1.8-4 4-4h11c.5 0 1-.5 1-1s-.5-1-1-1h-11zm-6 20c-11.6 0-21 9.4-21 21s9.4 21 21 21 21-9.4 21-21-9.4-21-21-21zm0 2c10.5 0 19 8.5 19 19s-8.5 19-19 19-19-8.5-19-19 8.5-19 19-19zm0 6c-5.7 0-10.6 3.8-12.3 9h-1.7c-.8 0-1 .5-1 1s.5 1 1 1h1.2c-.1.7-.2 1.3-.2 2s.1 1.3.2 2h-1.2c-.8 0-1 .5-1 1s.5 1 1 1h1.6c1.7 5.2 6.6 9 12.4 9 3.9 0 7.4-1.6 9.8-4.3.4-.4.4-1 0-1.4-.4-.4-1-.4-1.4 0l-.1.1c-2 2.3-4.9 3.7-8.2 3.7-4.7 0-8.6-2.9-10.2-7h9.2c.5 0 1-.5 1-1s-.5-1-1-1h-9.8c-.1-.6-.2-1.3-.2-2s.1-1.4.2-2h9.8c.5 0 1-.5 1-1s-.5-1-1-1h-9.2c1.6-4.1 5.6-7 10.2-7 3.3 0 6.3 1.4 8.2 3.7.3.4 1 .5 1.4.2.4-.3.5-1 .2-1.4l-.1-.1c-2.4-2.9-5.9-4.5-9.8-4.5zm43 8c-.3 0-.6.1-.8.3l-4 4c-.4.4-.4 1 0 1.4s1.1.3 1.4 0l2.3-2.3v4.6c0 2.2-1.8 4-4 4h-11c-.5 0-1 .5-1 1s.5 1 1 1h11c3.3 0 6-2.7 6-6v-4.6l2.3 2.3c.2.2.5.3.8.3.5 0 .9-.5.9-1 0-.2-.1-.5-.2-.7l-4-4c-.2-.2-.4-.3-.7-.3z"/></svg>