<svg xmlns="http://www.w3.org/2000/svg" viewBox="-299 288 100 100.3" enable-background="new -299 288 100 100.3"><style type="text/css">.st0{fill:#3BB75E;}</style><path class="st0" d="M-248.2 296.038c-.5 0-1 .6-.9 1.1s.6 1 1.1.9c22.1 0 40 17.9 40 40s-17.9 40-40 40-40-17.9-40-40c0-10.6 5.3-21.5 12.2-28.8l1.8 13.9c.1.6.6.9 1.1.9s.9-.6.9-1.1l-2-16c-.1-.5-.6-.9-1.1-.9h-.1l-16 3c-.5.1-.9.6-.8 1.2s.6.9 1.2.8l12.9-2.4c-7 7.6-12.1 18.5-12.1 29.5 0 23.2 18.8 42 42 42s42-18.8 42-42-18.8-42-42-42c-.1-.1-.1-.1-.2-.1zm-2.9 15.7c-.5.1-.9.5-.9 1v28.2c0 .6.4 1 1 1h21.8c.6 0 1-.4 1-1s-.4-1-1-1h-20.8v-27.2c0-.6-.4-1-1-1h-.1z"/></svg>