<svg xmlns="http://www.w3.org/2000/svg" viewBox="-304 294.5 90 88.3" enable-background="new -304 294.5 90 88.3"><style type="text/css">.st0{fill:#3BB75E;}</style><path class="st0" d="M-223 376h-72c-.3 0-.5-.2-.5-.5v-72c0-.3.2-.5.5-.5s.5.2.5.5v71.5h71.5c.3 0 .5.2.5.5s-.2.5-.5.5zM-268 358c-.1 0-.3 0-.4-.1l-17.6-17.6-8.6 8.6c-.2.2-.5.2-.7 0s-.2-.5 0-.7l9-9c.2-.2.5-.2.7 0l17.6 17.6 35.6-35.6c.2-.2.5-.2.7 0s.2.5 0 .7l-36 36c0 .1-.2.1-.3.1zM-232 331c-.3 0-.5-.2-.5-.5v-8.5h-8.5c-.3 0-.5-.2-.5-.5s.2-.5.5-.5h9c.3 0 .5.2.5.5v9c0 .3-.2.5-.5.5z"/></svg>