<svg xmlns="http://www.w3.org/2000/svg" viewBox="-317 311 64 64" enable-background="new -317 311 64 64"><style type="text/css">.st0{display:none;} .st1{display:inline;} .st2{display:inline;fill:none;stroke:#000000;stroke-width:1.4;stroke-miterlimit:10;} .st3{fill:#3BB75E;}</style><path class="st1" d="M-345.1 282.9h824.6v414.1h-824.6z"/><g class="st0"><path d="M-294.1 346.1l-4.5 5.5-1.9-1.9-1.3 1.4 3.3 3.2 5.8-7zM-294.1 356.8l-4.5 5.5-1.9-1.9-1.3 1.4 3.3 3.2 5.8-7z" class="st1"/><path class="st2" d="M-289.1 348.4h20.9M-289.1 351.9h20.9M-289.1 359.1h20.9M-289.1 362.6h20.9"/><path d="M-295.8 321.3v9h9c-.7 3.6-3.8 6.3-7.6 6.3-4.3 0-7.7-3.5-7.7-7.7 0-3.7 2.7-6.9 6.3-7.6m1.4-1.5c-5.1 0-9.1 4.1-9.1 9.1 0 5.1 4.1 9.1 9.1 9.1s9.1-4.1 9.1-9.1h-9.1v-9.1zM-292 320.4c3.2.6 5.6 3.1 6.2 6.2h-6.2v-6.2m-1.4-1.6v9.1h9.1c.1-5-4-9.1-9.1-9.1z" class="st1"/><path class="st2" d="M-280.3 333.3v3.2M-277.5 325.8v10.7M-274.7 320.4v16.1M-271.8 325.5v11M-269 330.7v5.8"/><path d="M-265.8 312.4c1.9 0 3.4 1.5 3.4 3.4v54.5c0 1.9-1.5 3.4-3.4 3.4h-38.5c-1.9 0-3.4-1.5-3.4-3.4v-54.5c0-1.9 1.5-3.4 3.4-3.4h38.5m0-1.4h-38.5c-2.6 0-4.8 2.1-4.8 4.8v54.5c0 2.6 2.1 4.8 4.8 4.8h38.5c2.6 0 4.8-2.1 4.8-4.8v-54.5c0-2.7-2.1-4.8-4.8-4.8z" class="st1"/></g><path class="st3" d="M-294.4 338.1c5.1 0 9.1-4.1 9.1-9.1h-9.1v-9.1c-5.1 0-9.1 4.1-9.1 9.1s4.1 9.1 9.1 9.1zm-1-17.2v9.1h9.1c-.5 4-3.9 7.1-8.1 7.1-4.5 0-8.1-3.7-8.1-8.1 0-4.2 3.1-7.6 7.1-8.1zM-293.4 318.8v9.1h9.1c.1-5-4-9.1-9.1-9.1zm1 1.1c3.7.5 6.6 3.4 7.1 7.1h-7.1v-7.1zM-280.8 333.3h1v3.2h-1zM-278 325.8h1v10.7h-1zM-275.2 320.4h1v16.1h-1zM-272.3 325.5h1v11h-1zM-269.5 330.7h1v5.8h-1zM-292.7 345.3l-.8-.7-.7.8-3.8 4.7-1.1-1.1-.7-.7-.7.8-1.3 1.4-.7.7.7.7 3.3 3.2.8.8.7-.8 5.8-7 .6-.8-.7-.6-1.4-1.4zm-5.1 9l-3.3-3.2 1.3-1.4 1.9 1.9 4.5-5.5 1.4 1.2-5.8 7zM-288.4 347.9h20.9v1h-20.9zM-288.4 351.4h20.9v1h-20.9zM-292.7 358l-.8-.7-.7.8-3.8 4.7-1.1-1.1-.7-.7-.7.8-1.3 1.4-.7.7.7.7 3.3 3.2.8.8.7-.8 5.8-7 .6-.8-.7-.6-1.4-1.4zm-5.1 9l-3.3-3.2 1.3-1.4 1.9 1.9 4.5-5.5 1.4 1.2-5.8 7zM-288.4 360.6h20.9v1h-20.9zM-288.4 364.1h20.9v1h-20.9zM-304.2 375h38.5c2.6 0 4.8-2.1 4.8-4.8v-54.5c0-2.6-2.1-4.8-4.8-4.8h-38.5c-2.6 0-4.8 2.1-4.8 4.8v54.5c0 2.7 2.1 4.8 4.8 4.8zm-3.8-59.2c0-2.1 1.7-3.8 3.8-3.8h38.5c2.1 0 3.8 1.7 3.8 3.8v54.5c0 2.1-1.7 3.8-3.8 3.8h-38.5c-2.1 0-3.8-1.7-3.8-3.8v-54.5z"/></svg>