<svg width="511" height="654" viewBox="0 0 511 654" version="1.1" xmlns="http://www.w3.org/2000/svg" xmlns:xlink="http://www.w3.org/1999/xlink" xmlns:figma="http://www.figma.com/figma/ns">
<title>5</title>
<desc>Created using Figma</desc>
<g id="Canvas" transform="translate(-3365 -139)" figma:type="canvas">
<rect x="3365" y="139" width="511" height="654" fill="#FFFFFF"/>
<mask id="mask0_alpha" mask-type="alpha">
<path d="M 3365 139L 3876 139L 3876 793L 3365 793L 3365 139Z" fill="#FFFFFF"/>
</mask>
<g id="5" style="mix-blend-mode:normal;" mask="url(#mask0_alpha)" figma:type="frame">
<path d="M 3365 139L 3876 139L 3876 793L 3365 793L 3365 139Z" fill="#FFFFFF"/>
<g id="card" style="mix-blend-mode:normal;" figma:type="frame">
<g id="Rectangle 2" style="mix-blend-mode:normal;" figma:type="rounded-rectangle">
<use xlink:href="#path0_fill" transform="matrix(0.994522 0.104528 -0.104528 0.994522 3522.19 262.922)" fill="#162F47" style="mix-blend-mode:normal;"/>
</g>
<g id="Subscription Businesses" style="mix-blend-mode:normal;" figma:type="text">
<use xlink:href="#path1_fill" transform="matrix(0.994522 0.104528 -0.104528 0.994522 3524.24 559.138)" fill="#5699D7" style="mix-blend-mode:normal;"/>
</g>
<g id="Use Paystack for Lorem Ipsum dolor amet for Lorem Ipsum dolor amet." style="mix-blend-mode:normal;" figma:type="text">
<use xlink:href="#path2_fill" transform="matrix(0.994522 0.104528 -0.104528 0.994522 3517.38 624.399)" fill="#5E8AB4" style="mix-blend-mode:normal;"/>
</g>
</g>
<g id="card" style="mix-blend-mode:normal;" figma:type="frame">
<g id="Rectangle 2" style="mix-blend-mode:normal;" figma:type="rounded-rectangle">
<use xlink:href="#path0_fill" transform="translate(3452.73 223.198)" fill="#0B2339" style="mix-blend-mode:normal;"/>
</g>
<g id="Subscription Businesses" style="mix-blend-mode:normal;" figma:type="text">
<use xlink:href="#path1_fill" transform="translate(3485.73 517.577)" fill="#5699D7" style="mix-blend-mode:normal;"/>
</g>
<g id="Use Paystack for Lorem Ipsum dolor amet for Lorem Ipsum dolor amet." style="mix-blend-mode:normal;" figma:type="text">
<use xlink:href="#path2_fill" transform="translate(3485.73 583.198)" fill="#FFFFFF" style="mix-blend-mode:normal;"/>
</g>
</g>
<g id="card" style="mix-blend-mode:normal;" figma:type="frame">
<g id="Rectangle 2" style="mix-blend-mode:normal;" figma:type="rounded-rectangle">
<use xlink:href="#path0_fill" transform="matrix(0.994522 -0.104528 0.104528 0.994522 3430 209.494)" fill="#3BB75E" style="mix-blend-mode:normal;"/>
</g>
<g id="Ideal for Subscription Businesses" style="mix-blend-mode:normal;" figma:type="text">
<use xlink:href="#path3_fill" transform="matrix(0.994522 -0.104528 0.104528 0.994522 3495.55 425.686)" fill="#E7FFEE" style="mix-blend-mode:normal;"/>
</g>
<g id="Vector" style="mix-blend-mode:normal;" figma:type="vector">
<use xlink:href="#path4_stroke" transform="matrix(0.994522 -0.104528 0.104528 0.994522 3508.96 526.508)" fill="#D2FFDF" style="mix-blend-mode:normal;"/>
</g>
</g>
</g>
</g>
<defs>
<path id="path0_fill" d="M 0 0L 300 0L 300 441L 0 441L 0 0Z"/>
<path id="path1_fill" d="M 7.392 19.824C 6.336 19.824 5.424 19.688 4.656 19.416C 3.888 19.144 3.248 18.776 2.736 18.312C 2.224 17.848 1.832 17.312 1.56 16.704C 1.288 16.08 1.104 15.416 1.008 14.712L 2.328 14.712C 2.408 15.256 2.544 15.768 2.736 16.248C 2.944 16.728 3.24 17.152 3.624 17.52C 4.024 17.888 4.528 18.184 5.136 18.408C 5.744 18.616 6.496 18.72 7.392 18.72C 8.064 18.72 8.672 18.632 9.216 18.456C 9.76 18.264 10.224 18.008 10.608 17.688C 11.008 17.352 11.312 16.96 11.52 16.512C 11.728 16.064 11.832 15.576 11.832 15.048C 11.832 14.44 11.752 13.928 11.592 13.512C 11.448 13.096 11.192 12.744 10.824 12.456C 10.472 12.168 10 11.936 9.408 11.76C 8.816 11.568 8.088 11.408 7.224 11.28C 5.336 11.008 3.936 10.528 3.024 9.84C 2.128 9.152 1.68 8.128 1.68 6.768C 1.68 6.096 1.808 5.488 2.064 4.944C 2.336 4.4 2.704 3.928 3.168 3.528C 3.648 3.128 4.216 2.824 4.872 2.616C 5.544 2.392 6.28 2.28 7.08 2.28C 8.68 2.28 9.952 2.656 10.896 3.408C 11.84 4.16 12.408 5.224 12.6 6.6L 11.376 6.6C 11.168 5.528 10.72 4.728 10.032 4.2C 9.344 3.656 8.36 3.384 7.08 3.384C 5.752 3.384 4.728 3.672 4.008 4.248C 3.288 4.824 2.928 5.632 2.928 6.672C 2.928 7.136 2.992 7.552 3.12 7.92C 3.264 8.288 3.504 8.608 3.84 8.88C 4.176 9.152 4.632 9.392 5.208 9.6C 5.8 9.792 6.544 9.952 7.44 10.08C 8.4 10.224 9.232 10.408 9.936 10.632C 10.656 10.856 11.248 11.152 11.712 11.52C 12.192 11.888 12.544 12.352 12.768 12.912C 13.008 13.472 13.128 14.152 13.128 14.952C 13.128 15.624 12.992 16.256 12.72 16.848C 12.448 17.44 12.056 17.96 11.544 18.408C 11.048 18.84 10.448 19.184 9.744 19.44C 9.04 19.696 8.256 19.824 7.392 19.824ZM 20.5843 19.824C 19.9443 19.824 19.3523 19.736 18.8083 19.56C 18.2643 19.384 17.7923 19.104 17.3923 18.72C 17.0083 18.336 16.7043 17.84 16.4803 17.232C 16.2723 16.624 16.1683 15.888 16.1683 15.024L 16.1683 7.08L 17.4403 7.08L 17.4403 14.952C 17.4403 16.296 17.7363 17.264 18.3283 17.856C 18.9203 18.432 19.7683 18.72 20.8723 18.72C 21.3843 18.72 21.8803 18.64 22.3603 18.48C 22.8563 18.304 23.2963 18.048 23.6803 17.712C 24.0643 17.376 24.3763 16.96 24.6163 16.464C 24.8563 15.952 24.9763 15.368 24.9763 14.712L 24.9763 7.08L 26.2483 7.08L 26.2483 19.632L 24.9763 19.632L 24.9763 17.232C 24.8323 17.568 24.6243 17.896 24.3523 18.216C 24.0803 18.52 23.7603 18.792 23.3923 19.032C 23.0243 19.272 22.6003 19.464 22.1203 19.608C 21.6563 19.752 21.1443 19.824 20.5843 19.824ZM 36.2347 19.824C 35.6107 19.824 35.0427 19.736 34.5308 19.56C 34.0187 19.384 33.5627 19.16 33.1628 18.888C 32.7628 18.6 32.4187 18.272 32.1308 17.904C 31.8588 17.536 31.6347 17.16 31.4588 16.776L 31.4588 19.632L 30.1868 19.632L 30.1868 1.08L 31.4588 1.08L 31.4588 10.008C 31.6347 9.592 31.8748 9.2 32.1788 8.832C 32.4987 8.448 32.8668 8.112 33.2827 7.824C 33.6988 7.536 34.1547 7.312 34.6508 7.152C 35.1628 6.976 35.6907 6.888 36.2347 6.888C 37.0347 6.888 37.7708 7.04 38.4427 7.344C 39.1308 7.632 39.7308 8.048 40.2427 8.592C 40.7547 9.136 41.1547 9.8 41.4427 10.584C 41.7308 11.368 41.8748 12.248 41.8748 13.224L 41.8748 13.416C 41.8748 14.392 41.7308 15.28 41.4427 16.08C 41.1707 16.864 40.7787 17.536 40.2667 18.096C 39.7708 18.656 39.1788 19.088 38.4908 19.392C 37.8027 19.68 37.0508 19.824 36.2347 19.824ZM 36.1388 18.744C 37.4667 18.744 38.5308 18.288 39.3307 17.376C 40.1468 16.464 40.5547 15.16 40.5547 13.464L 40.5547 13.272C 40.5547 12.408 40.4348 11.648 40.1948 10.992C 39.9547 10.32 39.6348 9.768 39.2347 9.336C 38.8348 8.888 38.3628 8.552 37.8188 8.328C 37.2907 8.088 36.7228 7.968 36.1147 7.968C 35.5068 7.968 34.9148 8.088 34.3387 8.328C 33.7788 8.552 33.2827 8.888 32.8508 9.336C 32.4187 9.768 32.0747 10.32 31.8188 10.992C 31.5628 11.648 31.4348 12.408 31.4348 13.272L 31.4348 13.464C 31.4348 14.328 31.5547 15.088 31.7948 15.744C 32.0508 16.4 32.3868 16.952 32.8027 17.4C 33.2348 17.832 33.7307 18.168 34.2907 18.408C 34.8668 18.632 35.4827 18.744 36.1388 18.744ZM 48.6501 19.848C 47.1621 19.848 46.0021 19.488 45.1701 18.768C 44.3541 18.048 43.9061 17.088 43.8261 15.888L 45.0501 15.888C 45.1621 16.752 45.4981 17.448 46.0581 17.976C 46.6181 18.504 47.4821 18.768 48.6501 18.768C 49.7061 18.768 50.4981 18.552 51.0261 18.12C 51.5701 17.672 51.8421 17.064 51.8421 16.296C 51.8421 15.896 51.7781 15.56 51.6501 15.288C 51.5381 15.016 51.3461 14.784 51.0741 14.592C 50.8181 14.4 50.4821 14.24 50.0661 14.112C 49.6501 13.984 49.1461 13.864 48.5541 13.752C 47.7861 13.608 47.1301 13.448 46.5861 13.272C 46.0421 13.096 45.5941 12.872 45.2421 12.6C 44.8901 12.328 44.6341 12.008 44.4741 11.64C 44.3141 11.256 44.2341 10.792 44.2341 10.248C 44.2341 9.72 44.3461 9.248 44.5701 8.832C 44.8101 8.416 45.1221 8.064 45.5061 7.776C 45.8901 7.488 46.3301 7.272 46.8261 7.128C 47.3221 6.968 47.8341 6.888 48.3621 6.888C 48.9221 6.888 49.4501 6.952 49.9461 7.08C 50.4421 7.192 50.8821 7.384 51.2661 7.656C 51.6501 7.928 51.9701 8.28 52.2261 8.712C 52.4821 9.144 52.6501 9.672 52.7301 10.296L 51.5061 10.296C 51.3461 9.48 51.0021 8.888 50.4741 8.52C 49.9621 8.152 49.2501 7.968 48.3381 7.968C 47.4581 7.968 46.7461 8.176 46.2021 8.592C 45.6741 8.992 45.4101 9.528 45.4101 10.2C 45.4101 10.552 45.4661 10.856 45.5781 11.112C 45.7061 11.368 45.8981 11.592 46.1541 11.784C 46.4261 11.96 46.7781 12.12 47.2101 12.264C 47.6581 12.392 48.2021 12.512 48.8421 12.624C 49.5141 12.736 50.1141 12.872 50.6421 13.032C 51.1701 13.192 51.6101 13.408 51.9621 13.68C 52.3301 13.936 52.6021 14.272 52.7781 14.688C 52.9701 15.088 53.0661 15.592 53.0661 16.2C 53.0661 17.256 52.6901 18.128 51.9381 18.816C 51.1861 19.504 50.0901 19.848 48.6501 19.848ZM 61.1023 19.824C 60.2543 19.824 59.4623 19.672 58.7263 19.368C 58.0063 19.064 57.3743 18.64 56.8303 18.096C 56.2863 17.536 55.8623 16.872 55.5583 16.104C 55.2543 15.32 55.1023 14.448 55.1023 13.488L 55.1023 13.296C 55.1023 12.336 55.2543 11.464 55.5583 10.68C 55.8783 9.896 56.3103 9.224 56.8543 8.664C 57.3983 8.088 58.0303 7.648 58.7503 7.344C 59.4863 7.04 60.2703 6.888 61.1023 6.888C 61.7423 6.888 62.3583 6.976 62.9503 7.152C 63.5423 7.312 64.0703 7.568 64.5343 7.92C 65.0143 8.256 65.4143 8.688 65.7343 9.216C 66.0543 9.744 66.2543 10.36 66.3343 11.064L 65.0863 11.064C 65.0063 10.536 64.8463 10.08 64.6063 9.696C 64.3663 9.296 64.0703 8.976 63.7183 8.736C 63.3663 8.48 62.9663 8.288 62.5183 8.16C 62.0703 8.032 61.5983 7.968 61.1023 7.968C 60.4463 7.968 59.8303 8.096 59.2543 8.352C 58.6943 8.592 58.1983 8.944 57.7663 9.408C 57.3503 9.856 57.0223 10.408 56.7823 11.064C 56.5423 11.72 56.4223 12.464 56.4223 13.296L 56.4223 13.488C 56.4223 14.32 56.5423 15.064 56.7823 15.72C 57.0223 16.36 57.3503 16.904 57.7663 17.352C 58.1983 17.8 58.6943 18.144 59.2543 18.384C 59.8303 18.624 60.4463 18.744 61.1023 18.744C 61.6303 18.744 62.1263 18.672 62.5903 18.528C 63.0703 18.368 63.4943 18.144 63.8623 17.856C 64.2303 17.568 64.5343 17.208 64.7743 16.776C 65.0303 16.344 65.1983 15.848 65.2783 15.288L 66.4543 15.288C 66.3743 15.96 66.1823 16.576 65.8783 17.136C 65.5743 17.696 65.1903 18.176 64.7263 18.576C 64.2623 18.96 63.7183 19.264 63.0943 19.488C 62.4863 19.712 61.8223 19.824 61.1023 19.824ZM 69.3743 7.08L 70.6463 7.08L 70.6463 9.72C 70.9983 8.952 71.5022 8.304 72.1582 7.776C 72.8302 7.232 73.7422 6.944 74.8943 6.912L 74.8943 8.112C 74.2862 8.128 73.7183 8.224 73.1902 8.4C 72.6782 8.56 72.2303 8.824 71.8463 9.192C 71.4782 9.544 71.1822 10.008 70.9583 10.584C 70.7503 11.144 70.6463 11.84 70.6463 12.672L 70.6463 19.632L 69.3743 19.632L 69.3743 7.08ZM 77.766 7.08L 79.038 7.08L 79.038 19.632L 77.766 19.632L 77.766 7.08ZM 78.39 4.392C 78.134 4.392 77.918 4.304 77.742 4.128C 77.566 3.952 77.478 3.736 77.478 3.48C 77.478 3.24 77.566 3.032 77.742 2.856C 77.918 2.68 78.134 2.592 78.39 2.592C 78.646 2.592 78.854 2.68 79.014 2.856C 79.19 3.032 79.278 3.24 79.278 3.48C 79.278 3.736 79.19 3.952 79.014 4.128C 78.854 4.304 78.646 4.392 78.39 4.392ZM 83.0149 7.08L 84.2869 7.08L 84.2869 10.008C 84.4629 9.592 84.7029 9.2 85.0069 8.832C 85.3269 8.448 85.6949 8.112 86.1109 7.824C 86.5269 7.536 86.9829 7.312 87.4789 7.152C 87.9909 6.976 88.5189 6.888 89.0629 6.888C 89.8629 6.888 90.5989 7.04 91.2709 7.344C 91.9589 7.632 92.5589 8.048 93.0709 8.592C 93.5829 9.136 93.9829 9.8 94.2709 10.584C 94.5589 11.368 94.7029 12.248 94.7029 13.224L 94.7029 13.416C 94.7029 14.392 94.5589 15.28 94.2709 16.08C 93.9989 16.864 93.6069 17.536 93.0949 18.096C 92.5989 18.656 92.0069 19.088 91.3189 19.392C 90.6309 19.68 89.8789 19.824 89.0629 19.824C 88.4389 19.824 87.8709 19.736 87.3589 19.56C 86.8469 19.384 86.3909 19.16 85.9909 18.888C 85.5909 18.6 85.2469 18.272 84.9589 17.904C 84.6869 17.536 84.4629 17.16 84.2869 16.776L 84.2869 24L 83.0149 24L 83.0149 7.08ZM 88.9669 18.744C 90.2949 18.744 91.3589 18.288 92.1589 17.376C 92.9749 16.464 93.3829 15.16 93.3829 13.464L 93.3829 13.272C 93.3829 12.408 93.2629 11.648 93.0229 10.992C 92.7829 10.32 92.4629 9.768 92.0629 9.336C 91.6629 8.888 91.1909 8.552 90.6469 8.328C 90.1189 8.088 89.5509 7.968 88.9429 7.968C 88.3349 7.968 87.7429 8.088 87.1669 8.328C 86.6069 8.552 86.1109 8.888 85.6789 9.336C 85.2469 9.768 84.9029 10.32 84.6469 10.992C 84.3909 11.648 84.2629 12.408 84.2629 13.272L 84.2629 13.464C 84.2629 14.328 84.3829 15.088 84.6229 15.744C 84.8789 16.4 85.2149 16.952 85.6309 17.4C 86.0629 17.832 86.5589 18.168 87.1189 18.408C 87.6949 18.632 88.3109 18.744 88.9669 18.744ZM 101.262 19.8C 100.254 19.8 99.4862 19.52 98.9582 18.96C 98.4462 18.4 98.1902 17.616 98.1902 16.608L 98.1902 8.16L 96.3422 8.16L 96.3422 7.08L 98.1902 7.08L 98.1902 4.224L 99.4622 4.224L 99.4622 7.08L 102.75 7.08L 102.75 8.16L 99.4622 8.16L 99.4622 16.512C 99.4622 17.28 99.6302 17.84 99.9662 18.192C 100.302 18.544 100.758 18.72 101.334 18.72C 101.654 18.72 101.942 18.696 102.198 18.648C 102.454 18.6 102.694 18.536 102.918 18.456L 102.918 19.536C 102.71 19.616 102.478 19.68 102.222 19.728C 101.966 19.776 101.646 19.8 101.262 19.8ZM 105.868 7.08L 107.14 7.08L 107.14 19.632L 105.868 19.632L 105.868 7.08ZM 106.492 4.392C 106.236 4.392 106.02 4.304 105.844 4.128C 105.668 3.952 105.58 3.736 105.58 3.48C 105.58 3.24 105.668 3.032 105.844 2.856C 106.02 2.68 106.236 2.592 106.492 2.592C 106.748 2.592 106.956 2.68 107.116 2.856C 107.292 3.032 107.38 3.24 107.38 3.48C 107.38 3.736 107.292 3.952 107.116 4.128C 106.956 4.304 106.748 4.392 106.492 4.392ZM 116.252 18.744C 116.924 18.744 117.548 18.624 118.124 18.384C 118.7 18.128 119.196 17.776 119.612 17.328C 120.044 16.864 120.38 16.312 120.62 15.672C 120.86 15.016 120.98 14.28 120.98 13.464L 120.98 13.272C 120.98 12.44 120.86 11.696 120.62 11.04C 120.38 10.384 120.044 9.832 119.612 9.384C 119.196 8.92 118.7 8.568 118.124 8.328C 117.548 8.088 116.924 7.968 116.252 7.968C 115.58 7.968 114.956 8.096 114.38 8.352C 113.804 8.592 113.3 8.944 112.868 9.408C 112.436 9.856 112.1 10.408 111.86 11.064C 111.62 11.72 111.5 12.456 111.5 13.272L 111.5 13.464C 111.5 14.264 111.62 14.992 111.86 15.648C 112.1 16.304 112.428 16.864 112.844 17.328C 113.276 17.776 113.78 18.128 114.356 18.384C 114.932 18.624 115.564 18.744 116.252 18.744ZM 116.228 19.824C 115.38 19.824 114.588 19.664 113.852 19.344C 113.116 19.024 112.476 18.584 111.932 18.024C 111.388 17.464 110.956 16.8 110.636 16.032C 110.332 15.248 110.18 14.392 110.18 13.464L 110.18 13.272C 110.18 12.328 110.34 11.464 110.66 10.68C 110.98 9.896 111.412 9.224 111.956 8.664C 112.5 8.104 113.14 7.672 113.876 7.368C 114.628 7.048 115.42 6.888 116.252 6.888C 117.1 6.888 117.892 7.04 118.628 7.344C 119.364 7.648 120.004 8.08 120.548 8.64C 121.092 9.2 121.516 9.872 121.82 10.656C 122.14 11.424 122.3 12.288 122.3 13.248L 122.3 13.44C 122.3 14.384 122.14 15.248 121.82 16.032C 121.516 16.816 121.084 17.488 120.524 18.048C 119.98 18.608 119.34 19.048 118.604 19.368C 117.868 19.672 117.076 19.824 116.228 19.824ZM 125.296 7.08L 126.568 7.08L 126.568 9.528C 126.712 9.192 126.92 8.864 127.192 8.544C 127.464 8.224 127.784 7.944 128.152 7.704C 128.536 7.448 128.968 7.248 129.448 7.104C 129.928 6.96 130.448 6.888 131.008 6.888C 131.68 6.888 132.288 6.984 132.832 7.176C 133.376 7.352 133.84 7.648 134.224 8.064C 134.624 8.464 134.928 8.984 135.136 9.624C 135.36 10.248 135.472 11.008 135.472 11.904L 135.472 19.632L 134.2 19.632L 134.2 11.832C 134.2 10.488 133.896 9.512 133.288 8.904C 132.696 8.296 131.84 7.992 130.72 7.992C 130.192 7.992 129.68 8.08 129.184 8.256C 128.688 8.432 128.248 8.688 127.864 9.024C 127.48 9.36 127.168 9.784 126.928 10.296C 126.688 10.792 126.568 11.368 126.568 12.024L 126.568 19.632L 125.296 19.632L 125.296 7.08ZM 2.208 28.872L 7.08 28.872C 7.832 28.872 8.528 28.952 9.168 29.112C 9.808 29.272 10.36 29.528 10.824 29.88C 11.288 30.216 11.648 30.664 11.904 31.224C 12.16 31.768 12.288 32.432 12.288 33.216L 12.288 33.312C 12.288 34.272 12.04 35.064 11.544 35.688C 11.048 36.312 10.32 36.76 9.36 37.032C 10.656 37.272 11.608 37.736 12.216 38.424C 12.824 39.112 13.128 40.04 13.128 41.208L 13.128 41.304C 13.128 42.888 12.648 44.072 11.688 44.856C 10.744 45.64 9.448 46.032 7.8 46.032L 2.208 46.032L 2.208 28.872ZM 7.776 44.952C 9.136 44.952 10.152 44.648 10.824 44.04C 11.496 43.416 11.832 42.504 11.832 41.304L 11.832 41.208C 11.832 38.84 10.328 37.656 7.32 37.656L 3.528 37.656L 3.528 44.952L 7.776 44.952ZM 7.104 36.6C 8.416 36.6 9.384 36.32 10.008 35.76C 10.648 35.2 10.968 34.376 10.968 33.288L 10.968 33.192C 10.968 32.072 10.632 31.256 9.96 30.744C 9.288 30.216 8.32 29.952 7.056 29.952L 3.528 29.952L 3.528 36.6L 7.104 36.6ZM 20.6312 46.224C 19.9912 46.224 19.3992 46.136 18.8552 45.96C 18.3112 45.784 17.8392 45.504 17.4392 45.12C 17.0552 44.736 16.7512 44.24 16.5272 43.632C 16.3192 43.024 16.2152 42.288 16.2152 41.424L 16.2152 33.48L 17.4872 33.48L 17.4872 41.352C 17.4872 42.696 17.7832 43.664 18.3752 44.256C 18.9672 44.832 19.8152 45.12 20.9192 45.12C 21.4312 45.12 21.9272 45.04 22.4072 44.88C 22.9032 44.704 23.3432 44.448 23.7272 44.112C 24.1112 43.776 24.4232 43.36 24.6632 42.864C 24.9032 42.352 25.0232 41.768 25.0232 41.112L 25.0232 33.48L 26.2952 33.48L 26.2952 46.032L 25.0232 46.032L 25.0232 43.632C 24.8792 43.968 24.6712 44.296 24.3992 44.616C 24.1272 44.92 23.8072 45.192 23.4392 45.432C 23.0712 45.672 22.6472 45.864 22.1672 46.008C 21.7032 46.152 21.1912 46.224 20.6312 46.224ZM 34.0016 46.248C 32.5136 46.248 31.3536 45.888 30.5216 45.168C 29.7056 44.448 29.2576 43.488 29.1776 42.288L 30.4016 42.288C 30.5136 43.152 30.8496 43.848 31.4096 44.376C 31.9696 44.904 32.8336 45.168 34.0016 45.168C 35.0576 45.168 35.8496 44.952 36.3776 44.52C 36.9216 44.072 37.1936 43.464 37.1936 42.696C 37.1936 42.296 37.1296 41.96 37.0016 41.688C 36.8896 41.416 36.6976 41.184 36.4256 40.992C 36.1696 40.8 35.8336 40.64 35.4176 40.512C 35.0016 40.384 34.4976 40.264 33.9056 40.152C 33.1376 40.008 32.4816 39.848 31.9376 39.672C 31.3936 39.496 30.9456 39.272 30.5936 39C 30.2416 38.728 29.9856 38.408 29.8256 38.04C 29.6656 37.656 29.5856 37.192 29.5856 36.648C 29.5856 36.12 29.6976 35.648 29.9216 35.232C 30.1616 34.816 30.4736 34.464 30.8576 34.176C 31.2416 33.888 31.6816 33.672 32.1776 33.528C 32.6736 33.368 33.1856 33.288 33.7136 33.288C 34.2736 33.288 34.8016 33.352 35.2976 33.48C 35.7936 33.592 36.2336 33.784 36.6176 34.056C 37.0016 34.328 37.3216 34.68 37.5776 35.112C 37.8336 35.544 38.0016 36.072 38.0816 36.696L 36.8576 36.696C 36.6976 35.88 36.3536 35.288 35.8256 34.92C 35.3136 34.552 34.6016 34.368 33.6896 34.368C 32.8096 34.368 32.0976 34.576 31.5536 34.992C 31.0256 35.392 30.7616 35.928 30.7616 36.6C 30.7616 36.952 30.8176 37.256 30.9296 37.512C 31.0576 37.768 31.2496 37.992 31.5056 38.184C 31.7776 38.36 32.1296 38.52 32.5616 38.664C 33.0096 38.792 33.5536 38.912 34.1936 39.024C 34.8656 39.136 35.4656 39.272 35.9936 39.432C 36.5216 39.592 36.9616 39.808 37.3136 40.08C 37.6816 40.336 37.9536 40.672 38.1296 41.088C 38.3216 41.488 38.4176 41.992 38.4176 42.6C 38.4176 43.656 38.0416 44.528 37.2896 45.216C 36.5376 45.904 35.4416 46.248 34.0016 46.248ZM 41.4379 33.48L 42.7099 33.48L 42.7099 46.032L 41.4379 46.032L 41.4379 33.48ZM 42.0619 30.792C 41.8059 30.792 41.5899 30.704 41.4139 30.528C 41.2379 30.352 41.1499 30.136 41.1499 29.88C 41.1499 29.64 41.2379 29.432 41.4139 29.256C 41.5899 29.08 41.8059 28.992 42.0619 28.992C 42.3179 28.992 42.5259 29.08 42.6859 29.256C 42.8619 29.432 42.9499 29.64 42.9499 29.88C 42.9499 30.136 42.8619 30.352 42.6859 30.528C 42.5259 30.704 42.3179 30.792 42.0619 30.792ZM 46.6868 33.48L 47.9588 33.48L 47.9588 35.928C 48.1028 35.592 48.3108 35.264 48.5827 34.944C 48.8547 34.624 49.1747 34.344 49.5428 34.104C 49.9267 33.848 50.3587 33.648 50.8387 33.504C 51.3188 33.36 51.8387 33.288 52.3987 33.288C 53.0707 33.288 53.6788 33.384 54.2227 33.576C 54.7667 33.752 55.2307 34.048 55.6147 34.464C 56.0148 34.864 56.3187 35.384 56.5268 36.024C 56.7508 36.648 56.8627 37.408 56.8627 38.304L 56.8627 46.032L 55.5908 46.032L 55.5908 38.232C 55.5908 36.888 55.2868 35.912 54.6787 35.304C 54.0867 34.696 53.2308 34.392 52.1107 34.392C 51.5828 34.392 51.0708 34.48 50.5748 34.656C 50.0787 34.832 49.6387 35.088 49.2547 35.424C 48.8707 35.76 48.5587 36.184 48.3188 36.696C 48.0788 37.192 47.9588 37.768 47.9588 38.424L 47.9588 46.032L 46.6868 46.032L 46.6868 33.48ZM 65.6949 46.224C 64.7829 46.224 63.9589 46.072 63.2229 45.768C 62.5029 45.464 61.8789 45.032 61.3509 44.472C 60.8389 43.912 60.4389 43.248 60.1509 42.48C 59.8789 41.696 59.7429 40.832 59.7429 39.888L 59.7429 39.696C 59.7429 38.752 59.8869 37.888 60.1749 37.104C 60.4629 36.304 60.8549 35.624 61.3509 35.064C 61.8629 34.504 62.4709 34.072 63.1749 33.768C 63.8949 33.448 64.6709 33.288 65.5029 33.288C 66.2549 33.288 66.9669 33.416 67.6389 33.672C 68.3109 33.912 68.8949 34.288 69.3909 34.8C 69.8869 35.296 70.2789 35.928 70.5669 36.696C 70.8549 37.464 70.9989 38.368 70.9989 39.408L 70.9989 39.864L 61.0629 39.864C 61.0949 41.56 61.4949 42.864 62.2629 43.776C 63.0469 44.688 64.1909 45.144 65.6949 45.144C 66.7509 45.144 67.6149 44.928 68.2869 44.496C 68.9589 44.064 69.4069 43.408 69.6309 42.528L 70.9029 42.528C 70.6309 43.728 70.0309 44.648 69.1029 45.288C 68.1909 45.912 67.0549 46.224 65.6949 46.224ZM 69.6789 38.832C 69.6149 37.296 69.2069 36.168 68.4549 35.448C 67.7189 34.728 66.7349 34.368 65.5029 34.368C 64.2869 34.368 63.2789 34.768 62.4789 35.568C 61.6949 36.368 61.2389 37.456 61.1109 38.832L 69.6789 38.832ZM 77.8532 46.248C 76.3652 46.248 75.2052 45.888 74.3732 45.168C 73.5572 44.448 73.1092 43.488 73.0292 42.288L 74.2532 42.288C 74.3652 43.152 74.7012 43.848 75.2612 44.376C 75.8212 44.904 76.6852 45.168 77.8532 45.168C 78.9092 45.168 79.7012 44.952 80.2292 44.52C 80.7732 44.072 81.0452 43.464 81.0452 42.696C 81.0452 42.296 80.9812 41.96 80.8532 41.688C 80.7412 41.416 80.5492 41.184 80.2772 40.992C 80.0212 40.8 79.6852 40.64 79.2692 40.512C 78.8532 40.384 78.3492 40.264 77.7572 40.152C 76.9892 40.008 76.3332 39.848 75.7892 39.672C 75.2452 39.496 74.7972 39.272 74.4452 39C 74.0932 38.728 73.8372 38.408 73.6772 38.04C 73.5172 37.656 73.4372 37.192 73.4372 36.648C 73.4372 36.12 73.5492 35.648 73.7732 35.232C 74.0132 34.816 74.3252 34.464 74.7092 34.176C 75.0932 33.888 75.5332 33.672 76.0292 33.528C 76.5252 33.368 77.0372 33.288 77.5652 33.288C 78.1252 33.288 78.6532 33.352 79.1492 33.48C 79.6452 33.592 80.0852 33.784 80.4692 34.056C 80.8532 34.328 81.1732 34.68 81.4292 35.112C 81.6852 35.544 81.8532 36.072 81.9332 36.696L 80.7092 36.696C 80.5492 35.88 80.2052 35.288 79.6772 34.92C 79.1652 34.552 78.4532 34.368 77.5412 34.368C 76.6612 34.368 75.9492 34.576 75.4052 34.992C 74.8772 35.392 74.6132 35.928 74.6132 36.6C 74.6132 36.952 74.6692 37.256 74.7812 37.512C 74.9092 37.768 75.1012 37.992 75.3572 38.184C 75.6292 38.36 75.9812 38.52 76.4132 38.664C 76.8612 38.792 77.4052 38.912 78.0452 39.024C 78.7172 39.136 79.3172 39.272 79.8452 39.432C 80.3732 39.592 80.8132 39.808 81.1652 40.08C 81.5332 40.336 81.8052 40.672 81.9812 41.088C 82.1732 41.488 82.2692 41.992 82.2692 42.6C 82.2692 43.656 81.8932 44.528 81.1412 45.216C 80.3892 45.904 79.2932 46.248 77.8532 46.248ZM 89.0094 46.248C 87.5214 46.248 86.3614 45.888 85.5294 45.168C 84.7134 44.448 84.2654 43.488 84.1854 42.288L 85.4094 42.288C 85.5214 43.152 85.8574 43.848 86.4174 44.376C 86.9774 44.904 87.8414 45.168 89.0094 45.168C 90.0654 45.168 90.8574 44.952 91.3854 44.52C 91.9294 44.072 92.2014 43.464 92.2014 42.696C 92.2014 42.296 92.1374 41.96 92.0094 41.688C 91.8974 41.416 91.7054 41.184 91.4334 40.992C 91.1774 40.8 90.8414 40.64 90.4254 40.512C 90.0094 40.384 89.5054 40.264 88.9134 40.152C 88.1454 40.008 87.4894 39.848 86.9454 39.672C 86.4014 39.496 85.9534 39.272 85.6014 39C 85.2494 38.728 84.9934 38.408 84.8334 38.04C 84.6734 37.656 84.5934 37.192 84.5934 36.648C 84.5934 36.12 84.7054 35.648 84.9294 35.232C 85.1694 34.816 85.4814 34.464 85.8654 34.176C 86.2494 33.888 86.6894 33.672 87.1854 33.528C 87.6814 33.368 88.1934 33.288 88.7214 33.288C 89.2814 33.288 89.8094 33.352 90.3054 33.48C 90.8014 33.592 91.2414 33.784 91.6254 34.056C 92.0094 34.328 92.3294 34.68 92.5854 35.112C 92.8414 35.544 93.0094 36.072 93.0894 36.696L 91.8654 36.696C 91.7054 35.88 91.3614 35.288 90.8334 34.92C 90.3214 34.552 89.6094 34.368 88.6974 34.368C 87.8174 34.368 87.1054 34.576 86.5614 34.992C 86.0334 35.392 85.7694 35.928 85.7694 36.6C 85.7694 36.952 85.8254 37.256 85.9374 37.512C 86.0654 37.768 86.2574 37.992 86.5134 38.184C 86.7854 38.36 87.1374 38.52 87.5694 38.664C 88.0174 38.792 88.5614 38.912 89.2014 39.024C 89.8734 39.136 90.4734 39.272 91.0014 39.432C 91.5294 39.592 91.9694 39.808 92.3214 40.08C 92.6894 40.336 92.9614 40.672 93.1374 41.088C 93.3294 41.488 93.4254 41.992 93.4254 42.6C 93.4254 43.656 93.0494 44.528 92.2974 45.216C 91.5454 45.904 90.4494 46.248 89.0094 46.248ZM 101.414 46.224C 100.502 46.224 99.6777 46.072 98.9417 45.768C 98.2217 45.464 97.5977 45.032 97.0697 44.472C 96.5577 43.912 96.1577 43.248 95.8697 42.48C 95.5977 41.696 95.4617 40.832 95.4617 39.888L 95.4617 39.696C 95.4617 38.752 95.6057 37.888 95.8937 37.104C 96.1817 36.304 96.5737 35.624 97.0697 35.064C 97.5817 34.504 98.1897 34.072 98.8937 33.768C 99.6137 33.448 100.39 33.288 101.222 33.288C 101.974 33.288 102.686 33.416 103.358 33.672C 104.03 33.912 104.614 34.288 105.11 34.8C 105.606 35.296 105.998 35.928 106.286 36.696C 106.574 37.464 106.718 38.368 106.718 39.408L 106.718 39.864L 96.7817 39.864C 96.8137 41.56 97.2137 42.864 97.9817 43.776C 98.7657 44.688 99.9097 45.144 101.414 45.144C 102.47 45.144 103.334 44.928 104.006 44.496C 104.678 44.064 105.126 43.408 105.35 42.528L 106.622 42.528C 106.35 43.728 105.75 44.648 104.822 45.288C 103.91 45.912 102.774 46.224 101.414 46.224ZM 105.398 38.832C 105.334 37.296 104.926 36.168 104.174 35.448C 103.438 34.728 102.454 34.368 101.222 34.368C 100.006 34.368 98.9977 34.768 98.1977 35.568C 97.4137 36.368 96.9577 37.456 96.8297 38.832L 105.398 38.832ZM 113.572 46.248C 112.084 46.248 110.924 45.888 110.092 45.168C 109.276 44.448 108.828 43.488 108.748 42.288L 109.972 42.288C 110.084 43.152 110.42 43.848 110.98 44.376C 111.54 44.904 112.404 45.168 113.572 45.168C 114.628 45.168 115.42 44.952 115.948 44.52C 116.492 44.072 116.764 43.464 116.764 42.696C 116.764 42.296 116.7 41.96 116.572 41.688C 116.46 41.416 116.268 41.184 115.996 40.992C 115.74 40.8 115.404 40.64 114.988 40.512C 114.572 40.384 114.068 40.264 113.476 40.152C 112.708 40.008 112.052 39.848 111.508 39.672C 110.964 39.496 110.516 39.272 110.164 39C 109.812 38.728 109.556 38.408 109.396 38.04C 109.236 37.656 109.156 37.192 109.156 36.648C 109.156 36.12 109.268 35.648 109.492 35.232C 109.732 34.816 110.044 34.464 110.428 34.176C 110.812 33.888 111.252 33.672 111.748 33.528C 112.244 33.368 112.756 33.288 113.284 33.288C 113.844 33.288 114.372 33.352 114.868 33.48C 115.364 33.592 115.804 33.784 116.188 34.056C 116.572 34.328 116.892 34.68 117.148 35.112C 117.404 35.544 117.572 36.072 117.652 36.696L 116.428 36.696C 116.268 35.88 115.924 35.288 115.396 34.92C 114.884 34.552 114.172 34.368 113.26 34.368C 112.38 34.368 111.668 34.576 111.124 34.992C 110.596 35.392 110.332 35.928 110.332 36.6C 110.332 36.952 110.388 37.256 110.5 37.512C 110.628 37.768 110.82 37.992 111.076 38.184C 111.348 38.36 111.7 38.52 112.132 38.664C 112.58 38.792 113.124 38.912 113.764 39.024C 114.436 39.136 115.036 39.272 115.564 39.432C 116.092 39.592 116.532 39.808 116.884 40.08C 117.252 40.336 117.524 40.672 117.7 41.088C 117.892 41.488 117.988 41.992 117.988 42.6C 117.988 43.656 117.612 44.528 116.86 45.216C 116.108 45.904 115.012 46.248 113.572 46.248Z"/>
<path id="path2_fill" d="M 5.456 13.232C 4.13333 13.232 3.11467 12.864 2.4 12.128C 1.696 11.3813 1.344 10.3093 1.344 8.912L 1.344 1.648L 2.736 1.648L 2.736 8.752C 2.736 9.94667 2.95467 10.8 3.392 11.312C 3.84 11.824 4.53867 12.08 5.488 12.08C 5.94667 12.08 6.352 12.0267 6.704 11.92C 7.06667 11.8133 7.37067 11.6267 7.616 11.36C 7.872 11.0933 8.064 10.736 8.192 10.288C 8.33067 9.82933 8.4 9.248 8.4 8.544L 8.4 1.648L 9.792 1.648L 9.792 8.736C 9.792 10.1227 9.43467 11.2213 8.72 12.032C 8.016 12.832 6.928 13.232 5.456 13.232ZM 14.9985 13.232C 13.9958 13.232 13.2065 12.9973 12.6305 12.528C 12.0652 12.048 11.7612 11.376 11.7185 10.512L 13.0145 10.512C 13.0678 11.0133 13.2385 11.408 13.5265 11.696C 13.8252 11.984 14.3105 12.128 14.9825 12.128C 15.6225 12.128 16.0865 12.0213 16.3745 11.808C 16.6625 11.584 16.8065 11.248 16.8065 10.8C 16.8065 10.352 16.6412 10.0373 16.3105 9.856C 15.9905 9.664 15.5052 9.50933 14.8545 9.392C 14.3105 9.296 13.8518 9.184 13.4785 9.056C 13.1052 8.91733 12.8065 8.752 12.5825 8.56C 12.3585 8.368 12.1932 8.13867 12.0865 7.872C 11.9905 7.60533 11.9425 7.29067 11.9425 6.928C 11.9425 6.544 12.0278 6.208 12.1985 5.92C 12.3692 5.62133 12.5878 5.376 12.8545 5.184C 13.1318 4.98133 13.4358 4.832 13.7665 4.736C 14.1078 4.62933 14.4438 4.576 14.7745 4.576C 15.1478 4.576 15.5052 4.61867 15.8465 4.704C 16.1878 4.77867 16.4918 4.912 16.7585 5.104C 17.0358 5.296 17.2652 5.54667 17.4465 5.856C 17.6278 6.16533 17.7452 6.544 17.7985 6.992L 16.5185 6.992C 16.4225 6.53333 16.2358 6.20267 15.9585 6C 15.6918 5.78667 15.2918 5.68 14.7585 5.68C 14.2785 5.68 13.8945 5.792 13.6065 6.016C 13.3185 6.22933 13.1745 6.51733 13.1745 6.88C 13.1745 7.072 13.2012 7.23733 13.2545 7.376C 13.3185 7.504 13.4252 7.62133 13.5745 7.728C 13.7238 7.824 13.9212 7.91467 14.1665 8C 14.4225 8.07467 14.7425 8.144 15.1265 8.208C 15.5638 8.28267 15.9585 8.37333 16.3105 8.48C 16.6732 8.58667 16.9825 8.73067 17.2385 8.912C 17.5052 9.08267 17.7078 9.312 17.8465 9.6C 17.9958 9.87733 18.0705 10.24 18.0705 10.688C 18.0705 11.456 17.8145 12.0747 17.3025 12.544C 16.7905 13.0027 16.0225 13.232 14.9985 13.232ZM 23.518 13.232C 22.9313 13.232 22.3873 13.1307 21.886 12.928C 21.3953 12.7253 20.9687 12.4427 20.606 12.08C 20.2433 11.7067 19.9607 11.2587 19.758 10.736C 19.566 10.2133 19.47 9.632 19.47 8.992L 19.47 8.864C 19.47 8.23467 19.566 7.65867 19.758 7.136C 19.95 6.60267 20.2167 6.14933 20.558 5.776C 20.91 5.392 21.326 5.09867 21.806 4.896C 22.286 4.68267 22.814 4.576 23.39 4.576C 23.87 4.576 24.334 4.656 24.782 4.816C 25.2407 4.96533 25.646 5.20533 25.998 5.536C 26.35 5.86667 26.6273 6.29867 26.83 6.832C 27.0433 7.35467 27.15 7.98933 27.15 8.736L 27.15 9.168L 20.846 9.168C 20.878 10.128 21.118 10.864 21.566 11.376C 22.014 11.8773 22.67 12.128 23.534 12.128C 24.846 12.128 25.5873 11.6427 25.758 10.672L 27.086 10.672C 26.9367 11.5147 26.542 12.1547 25.902 12.592C 25.262 13.0187 24.4673 13.232 23.518 13.232ZM 25.79 8.096C 25.726 7.232 25.4807 6.61333 25.054 6.24C 24.638 5.86667 24.0833 5.68 23.39 5.68C 22.7073 5.68 22.1473 5.89867 21.71 6.336C 21.2833 6.76267 21.0113 7.34933 20.894 8.096L 25.79 8.096ZM 33.5181 1.648L 36.7661 1.648C 37.3101 1.648 37.8221 1.712 38.3021 1.84C 38.7928 1.95733 39.2195 2.15467 39.5821 2.432C 39.9448 2.69867 40.2328 3.04533 40.4461 3.472C 40.6595 3.888 40.7661 4.39467 40.7661 4.992L 40.7661 5.056C 40.7661 5.664 40.6595 6.18133 40.4461 6.608C 40.2328 7.03467 39.9448 7.38667 39.5821 7.664C 39.2195 7.93067 38.7928 8.128 38.3021 8.256C 37.8221 8.37333 37.3101 8.432 36.7661 8.432L 34.9101 8.432L 34.9101 13.088L 33.5181 13.088L 33.5181 1.648ZM 36.8621 7.328C 37.6835 7.328 38.3075 7.136 38.7341 6.752C 39.1608 6.35733 39.3741 5.792 39.3741 5.056L 39.3741 4.992C 39.3741 4.18133 39.1501 3.61067 38.7021 3.28C 38.2541 2.93867 37.6408 2.768 36.8621 2.768L 34.9101 2.768L 34.9101 7.328L 36.8621 7.328ZM 44.7369 13.232C 44.3529 13.232 43.9902 13.184 43.6489 13.088C 43.3075 12.992 43.0089 12.8427 42.7529 12.64C 42.5075 12.4373 42.3102 12.1813 42.1609 11.872C 42.0222 11.5627 41.9529 11.1947 41.9529 10.768C 41.9529 10.288 42.0702 9.88267 42.3049 9.552C 42.5395 9.22133 42.8489 8.95467 43.2329 8.752C 43.6275 8.54933 44.0755 8.40533 44.5769 8.32C 45.0889 8.224 45.6115 8.176 46.1449 8.176L 47.3449 8.176L 47.3449 7.568C 47.3449 6.896 47.2062 6.416 46.9289 6.128C 46.6515 5.82933 46.1929 5.68 45.5529 5.68C 44.4009 5.68 43.7609 6.18133 43.6329 7.184L 42.3049 7.184C 42.3475 6.704 42.4649 6.29867 42.6569 5.968C 42.8595 5.63733 43.1102 5.37067 43.4089 5.168C 43.7182 4.95467 44.0595 4.80533 44.4329 4.72C 44.8169 4.624 45.2115 4.576 45.6169 4.576C 46.0222 4.576 46.4062 4.624 46.7689 4.72C 47.1422 4.80533 47.4675 4.96533 47.7449 5.2C 48.0222 5.424 48.2462 5.728 48.4169 6.112C 48.5875 6.496 48.6729 6.98133 48.6729 7.568L 48.6729 13.088L 47.3449 13.088L 47.3449 12.032C 47.0355 12.4267 46.6782 12.7253 46.2729 12.928C 45.8675 13.1307 45.3555 13.232 44.7369 13.232ZM 44.8649 12.176C 45.2169 12.176 45.5422 12.1333 45.8409 12.048C 46.1502 11.952 46.4115 11.8187 46.6249 11.648C 46.8489 11.4773 47.0249 11.2693 47.1529 11.024C 47.2809 10.768 47.3449 10.48 47.3449 10.16L 47.3449 9.12L 46.1929 9.12C 45.7769 9.12 45.3875 9.152 45.0249 9.216C 44.6729 9.26933 44.3635 9.36 44.0969 9.488C 43.8409 9.616 43.6382 9.78667 43.4889 10C 43.3502 10.2027 43.2809 10.4587 43.2809 10.768C 43.2809 11.2053 43.3982 11.552 43.6329 11.808C 43.8675 12.0533 44.2782 12.176 44.8649 12.176ZM 53.3831 12.224L 50.1031 4.72L 51.5271 4.72L 54.0871 10.72L 56.4071 4.72L 57.7671 4.72L 53.1431 16L 51.7991 16L 53.3831 12.224ZM 62.1079 13.232C 61.1052 13.232 60.3159 12.9973 59.7399 12.528C 59.1745 12.048 58.8705 11.376 58.8279 10.512L 60.1239 10.512C 60.1772 11.0133 60.3479 11.408 60.6359 11.696C 60.9345 11.984 61.4199 12.128 62.0919 12.128C 62.7319 12.128 63.1959 12.0213 63.4839 11.808C 63.7719 11.584 63.9159 11.248 63.9159 10.8C 63.9159 10.352 63.7505 10.0373 63.4199 9.856C 63.0999 9.664 62.6145 9.50933 61.9639 9.392C 61.4199 9.296 60.9612 9.184 60.5879 9.056C 60.2145 8.91733 59.9159 8.752 59.6919 8.56C 59.4679 8.368 59.3025 8.13867 59.1959 7.872C 59.0999 7.60533 59.0519 7.29067 59.0519 6.928C 59.0519 6.544 59.1372 6.208 59.3079 5.92C 59.4785 5.62133 59.6972 5.376 59.9639 5.184C 60.2412 4.98133 60.5452 4.832 60.8759 4.736C 61.2172 4.62933 61.5532 4.576 61.8839 4.576C 62.2572 4.576 62.6145 4.61867 62.9559 4.704C 63.2972 4.77867 63.6012 4.912 63.8679 5.104C 64.1452 5.296 64.3745 5.54667 64.5559 5.856C 64.7372 6.16533 64.8545 6.544 64.9079 6.992L 63.6279 6.992C 63.5319 6.53333 63.3452 6.20267 63.0679 6C 62.8012 5.78667 62.4012 5.68 61.8679 5.68C 61.3879 5.68 61.0039 5.792 60.7159 6.016C 60.4279 6.22933 60.2839 6.51733 60.2839 6.88C 60.2839 7.072 60.3105 7.23733 60.3639 7.376C 60.4279 7.504 60.5345 7.62133 60.6839 7.728C 60.8332 7.824 61.0305 7.91467 61.2759 8C 61.5319 8.07467 61.8519 8.144 62.2359 8.208C 62.6732 8.28267 63.0679 8.37333 63.4199 8.48C 63.7825 8.58667 64.0919 8.73067 64.3479 8.912C 64.6145 9.08267 64.8172 9.312 64.9559 9.6C 65.1052 9.87733 65.1799 10.24 65.1799 10.688C 65.1799 11.456 64.9239 12.0747 64.4119 12.544C 63.8999 13.0027 63.1319 13.232 62.1079 13.232ZM 69.7474 13.2C 68.9794 13.2 68.4087 12.9973 68.0354 12.592C 67.6727 12.1867 67.4914 11.6533 67.4914 10.992L 67.4914 5.84L 66.2914 5.84L 66.2914 4.72L 67.4914 4.72L 67.4914 2.816L 68.8194 2.816L 68.8194 4.72L 70.7714 4.72L 70.7714 5.84L 68.8194 5.84L 68.8194 10.864C 68.8194 11.6747 69.166 12.08 69.8594 12.08C 70.0727 12.08 70.2594 12.064 70.4194 12.032C 70.5794 12 70.734 11.9573 70.8834 11.904L 70.8834 13.024C 70.7447 13.0773 70.59 13.12 70.4194 13.152C 70.2487 13.184 70.0247 13.2 69.7474 13.2ZM 75.065 13.232C 74.681 13.232 74.3183 13.184 73.977 13.088C 73.6357 12.992 73.337 12.8427 73.081 12.64C 72.8357 12.4373 72.6383 12.1813 72.489 11.872C 72.3503 11.5627 72.281 11.1947 72.281 10.768C 72.281 10.288 72.3983 9.88267 72.633 9.552C 72.8677 9.22133 73.177 8.95467 73.561 8.752C 73.9557 8.54933 74.4037 8.40533 74.905 8.32C 75.417 8.224 75.9397 8.176 76.473 8.176L 77.673 8.176L 77.673 7.568C 77.673 6.896 77.5343 6.416 77.257 6.128C 76.9797 5.82933 76.521 5.68 75.881 5.68C 74.729 5.68 74.089 6.18133 73.961 7.184L 72.633 7.184C 72.6757 6.704 72.793 6.29867 72.985 5.968C 73.1877 5.63733 73.4383 5.37067 73.737 5.168C 74.0463 4.95467 74.3877 4.80533 74.761 4.72C 75.145 4.624 75.5397 4.576 75.945 4.576C 76.3503 4.576 76.7343 4.624 77.097 4.72C 77.4703 4.80533 77.7957 4.96533 78.073 5.2C 78.3503 5.424 78.5743 5.728 78.745 6.112C 78.9157 6.496 79.001 6.98133 79.001 7.568L 79.001 13.088L 77.673 13.088L 77.673 12.032C 77.3637 12.4267 77.0063 12.7253 76.601 12.928C 76.1957 13.1307 75.6837 13.232 75.065 13.232ZM 75.193 12.176C 75.545 12.176 75.8703 12.1333 76.169 12.048C 76.4783 11.952 76.7397 11.8187 76.953 11.648C 77.177 11.4773 77.353 11.2693 77.481 11.024C 77.609 10.768 77.673 10.48 77.673 10.16L 77.673 9.12L 76.521 9.12C 76.105 9.12 75.7157 9.152 75.353 9.216C 75.001 9.26933 74.6917 9.36 74.425 9.488C 74.169 9.616 73.9663 9.78667 73.817 10C 73.6783 10.2027 73.609 10.4587 73.609 10.768C 73.609 11.2053 73.7263 11.552 73.961 11.808C 74.1957 12.0533 74.6063 12.176 75.193 12.176ZM 85.0816 13.232C 84.495 13.232 83.951 13.136 83.4496 12.944C 82.959 12.7413 82.527 12.4587 82.1536 12.096C 81.791 11.7227 81.503 11.2747 81.2896 10.752C 81.087 10.2293 80.9856 9.64267 80.9856 8.992L 80.9856 8.864C 80.9856 8.224 81.0923 7.64267 81.3056 7.12C 81.519 6.58667 81.807 6.13333 82.1696 5.76C 82.543 5.38667 82.975 5.09867 83.4656 4.896C 83.967 4.68267 84.495 4.576 85.0496 4.576C 85.487 4.576 85.9083 4.62933 86.3136 4.736C 86.7296 4.84267 87.0976 5.01333 87.4176 5.248C 87.7483 5.472 88.0256 5.77067 88.2496 6.144C 88.4736 6.51733 88.6176 6.97067 88.6816 7.504L 87.3696 7.504C 87.263 6.84267 86.991 6.37333 86.5536 6.096C 86.127 5.81867 85.6256 5.68 85.0496 5.68C 84.6656 5.68 84.3083 5.75467 83.9776 5.904C 83.6576 6.05333 83.375 6.26667 83.1296 6.544C 82.895 6.81067 82.7083 7.14133 82.5696 7.536C 82.431 7.93067 82.3616 8.37333 82.3616 8.864L 82.3616 8.992C 82.3616 10.0267 82.6123 10.8107 83.1136 11.344C 83.6256 11.8667 84.287 12.128 85.0976 12.128C 85.3963 12.128 85.679 12.0853 85.9456 12C 86.223 11.9147 86.4683 11.7867 86.6816 11.616C 86.9056 11.4453 87.087 11.232 87.2256 10.976C 87.375 10.72 87.4656 10.4213 87.4976 10.08L 88.7296 10.08C 88.687 10.528 88.5643 10.9493 88.3616 11.344C 88.1696 11.728 87.9136 12.0587 87.5936 12.336C 87.2736 12.6133 86.9003 12.832 86.4736 12.992C 86.047 13.152 85.583 13.232 85.0816 13.232ZM 90.7346 0.72L 92.0626 0.72L 92.0626 8.576L 95.5346 4.72L 97.0866 4.72L 93.5026 8.608L 97.3906 13.088L 95.7746 13.088L 92.0626 8.752L 92.0626 13.088L 90.7346 13.088L 90.7346 0.72ZM 103.507 5.84L 102.307 5.84L 102.307 4.72L 103.507 4.72L 103.507 3.36C 103.507 2.50667 103.715 1.84533 104.131 1.376C 104.547 0.906667 105.171 0.672 106.003 0.672C 106.216 0.672 106.392 0.688001 106.531 0.72C 106.67 0.741334 106.824 0.778666 106.995 0.832001L 106.995 1.952C 106.878 1.89867 106.734 1.856 106.563 1.824C 106.403 1.792 106.232 1.776 106.051 1.776C 105.614 1.776 105.299 1.90933 105.107 2.176C 104.926 2.44267 104.835 2.78933 104.835 3.216L 104.835 4.72L 106.883 4.72L 106.883 5.84L 104.835 5.84L 104.835 13.088L 103.507 13.088L 103.507 5.84ZM 111.848 12.128C 112.264 12.128 112.642 12.0533 112.984 11.904C 113.325 11.7547 113.613 11.5413 113.848 11.264C 114.082 10.9867 114.264 10.656 114.392 10.272C 114.52 9.87733 114.584 9.44533 114.584 8.976L 114.584 8.864C 114.584 7.89333 114.333 7.12 113.832 6.544C 113.341 5.968 112.68 5.68 111.848 5.68C 111.005 5.68 110.338 5.968 109.848 6.544C 109.357 7.10933 109.112 7.87733 109.112 8.848L 109.112 8.976C 109.112 9.936 109.352 10.704 109.832 11.28C 110.322 11.8453 110.994 12.128 111.848 12.128ZM 111.832 13.232C 111.234 13.232 110.685 13.1253 110.184 12.912C 109.682 12.6987 109.25 12.4053 108.888 12.032C 108.525 11.648 108.242 11.1947 108.04 10.672C 107.837 10.1493 107.736 9.584 107.736 8.976L 107.736 8.848C 107.736 8.21867 107.837 7.64267 108.04 7.12C 108.253 6.59733 108.541 6.14933 108.904 5.776C 109.266 5.392 109.698 5.09867 110.2 4.896C 110.712 4.68267 111.261 4.576 111.848 4.576C 112.445 4.576 112.994 4.68267 113.496 4.896C 113.997 5.09867 114.429 5.38667 114.792 5.76C 115.154 6.13333 115.437 6.58133 115.64 7.104C 115.853 7.62667 115.96 8.20267 115.96 8.832L 115.96 8.96C 115.96 9.58933 115.853 10.1653 115.64 10.688C 115.437 11.2107 115.149 11.664 114.776 12.048C 114.413 12.4213 113.981 12.7147 113.48 12.928C 112.978 13.1307 112.429 13.232 111.832 13.232ZM 118.016 4.72L 119.344 4.72L 119.344 6.224C 119.611 5.75467 119.947 5.37067 120.352 5.072C 120.768 4.76267 121.349 4.59733 122.096 4.576L 122.096 5.824C 121.68 5.84533 121.301 5.89867 120.96 5.984C 120.619 6.06933 120.325 6.21333 120.08 6.416C 119.845 6.61867 119.664 6.89067 119.536 7.232C 119.408 7.56267 119.344 7.984 119.344 8.496L 119.344 13.088L 118.016 13.088L 118.016 4.72ZM 128.362 1.648L 129.754 1.648L 129.754 11.952L 134.986 11.952L 134.986 13.088L 128.362 13.088L 128.362 1.648ZM 140.16 12.128C 140.576 12.128 140.955 12.0533 141.296 11.904C 141.637 11.7547 141.925 11.5413 142.16 11.264C 142.395 10.9867 142.576 10.656 142.704 10.272C 142.832 9.87733 142.896 9.44533 142.896 8.976L 142.896 8.864C 142.896 7.89333 142.645 7.12 142.144 6.544C 141.653 5.968 140.992 5.68 140.16 5.68C 139.317 5.68 138.651 5.968 138.16 6.544C 137.669 7.10933 137.424 7.87733 137.424 8.848L 137.424 8.976C 137.424 9.936 137.664 10.704 138.144 11.28C 138.635 11.8453 139.307 12.128 140.16 12.128ZM 140.144 13.232C 139.547 13.232 138.997 13.1253 138.496 12.912C 137.995 12.6987 137.563 12.4053 137.2 12.032C 136.837 11.648 136.555 11.1947 136.352 10.672C 136.149 10.1493 136.048 9.584 136.048 8.976L 136.048 8.848C 136.048 8.21867 136.149 7.64267 136.352 7.12C 136.565 6.59733 136.853 6.14933 137.216 5.776C 137.579 5.392 138.011 5.09867 138.512 4.896C 139.024 4.68267 139.573 4.576 140.16 4.576C 140.757 4.576 141.307 4.68267 141.808 4.896C 142.309 5.09867 142.741 5.38667 143.104 5.76C 143.467 6.13333 143.749 6.58133 143.952 7.104C 144.165 7.62667 144.272 8.20267 144.272 8.832L 144.272 8.96C 144.272 9.58933 144.165 10.1653 143.952 10.688C 143.749 11.2107 143.461 11.664 143.088 12.048C 142.725 12.4213 142.293 12.7147 141.792 12.928C 141.291 13.1307 140.741 13.232 140.144 13.232ZM 146.328 4.72L 147.656 4.72L 147.656 6.224C 147.923 5.75467 148.259 5.37067 148.664 5.072C 149.08 4.76267 149.662 4.59733 150.408 4.576L 150.408 5.824C 149.992 5.84533 149.614 5.89867 149.272 5.984C 148.931 6.06933 148.638 6.21333 148.392 6.416C 148.158 6.61867 147.976 6.89067 147.848 7.232C 147.72 7.56267 147.656 7.984 147.656 8.496L 147.656 13.088L 146.328 13.088L 146.328 4.72ZM 155.534 13.232C 154.947 13.232 154.403 13.1307 153.902 12.928C 153.411 12.7253 152.984 12.4427 152.622 12.08C 152.259 11.7067 151.976 11.2587 151.774 10.736C 151.582 10.2133 151.486 9.632 151.486 8.992L 151.486 8.864C 151.486 8.23467 151.582 7.65867 151.774 7.136C 151.966 6.60267 152.232 6.14933 152.574 5.776C 152.926 5.392 153.342 5.09867 153.822 4.896C 154.302 4.68267 154.83 4.576 155.406 4.576C 155.886 4.576 156.35 4.656 156.798 4.816C 157.256 4.96533 157.662 5.20533 158.014 5.536C 158.366 5.86667 158.643 6.29867 158.846 6.832C 159.059 7.35467 159.166 7.98933 159.166 8.736L 159.166 9.168L 152.862 9.168C 152.894 10.128 153.134 10.864 153.582 11.376C 154.03 11.8773 154.686 12.128 155.55 12.128C 156.862 12.128 157.603 11.6427 157.774 10.672L 159.102 10.672C 158.952 11.5147 158.558 12.1547 157.918 12.592C 157.278 13.0187 156.483 13.232 155.534 13.232ZM 157.806 8.096C 157.742 7.232 157.496 6.61333 157.07 6.24C 156.654 5.86667 156.099 5.68 155.406 5.68C 154.723 5.68 154.163 5.89867 153.726 6.336C 153.299 6.76267 153.027 7.34933 152.91 8.096L 157.806 8.096ZM 161.203 4.72L 162.531 4.72L 162.531 6C 162.723 5.60533 163.033 5.26933 163.459 4.992C 163.897 4.71467 164.419 4.576 165.027 4.576C 165.571 4.576 166.062 4.69867 166.499 4.944C 166.937 5.17867 167.262 5.57867 167.475 6.144C 167.625 5.86667 167.806 5.632 168.019 5.44C 168.243 5.23733 168.483 5.072 168.739 4.944C 168.995 4.816 169.262 4.72533 169.539 4.672C 169.817 4.608 170.083 4.576 170.339 4.576C 170.713 4.576 171.07 4.63467 171.411 4.752C 171.753 4.86933 172.051 5.06133 172.307 5.328C 172.563 5.59467 172.766 5.94133 172.915 6.368C 173.075 6.784 173.155 7.296 173.155 7.904L 173.155 13.088L 171.827 13.088L 171.827 7.808C 171.827 7.072 171.673 6.544 171.363 6.224C 171.065 5.89333 170.627 5.728 170.051 5.728C 169.785 5.728 169.518 5.776 169.251 5.872C 168.985 5.95733 168.745 6.096 168.531 6.288C 168.329 6.46933 168.163 6.704 168.035 6.992C 167.907 7.26933 167.843 7.59467 167.843 7.968L 167.843 13.088L 166.515 13.088L 166.515 7.808C 166.515 7.072 166.361 6.544 166.051 6.224C 165.753 5.89333 165.315 5.728 164.739 5.728C 164.473 5.728 164.206 5.776 163.939 5.872C 163.673 5.95733 163.433 6.096 163.219 6.288C 163.017 6.46933 162.851 6.704 162.723 6.992C 162.595 7.26933 162.531 7.59467 162.531 7.968L 162.531 13.088L 161.203 13.088L 161.203 4.72ZM 180.176 1.648L 181.568 1.648L 181.568 13.088L 180.176 13.088L 180.176 1.648ZM 184.438 4.72L 185.766 4.72L 185.766 6.128C 185.883 5.92533 186.038 5.73333 186.23 5.552C 186.432 5.36 186.656 5.19467 186.902 5.056C 187.158 4.90667 187.43 4.78933 187.718 4.704C 188.006 4.61867 188.299 4.576 188.598 4.576C 189.142 4.576 189.648 4.672 190.118 4.864C 190.587 5.056 190.987 5.33333 191.318 5.696C 191.659 6.05867 191.926 6.50133 192.118 7.024C 192.31 7.54667 192.406 8.13333 192.406 8.784L 192.406 8.912C 192.406 9.552 192.315 10.1387 192.134 10.672C 191.952 11.1947 191.696 11.648 191.366 12.032C 191.035 12.416 190.635 12.7147 190.166 12.928C 189.696 13.1307 189.174 13.232 188.598 13.232C 187.904 13.232 187.318 13.0827 186.838 12.784C 186.368 12.4853 186.011 12.128 185.766 11.712L 185.766 16L 184.438 16L 184.438 4.72ZM 188.47 12.128C 189.302 12.128 189.936 11.8613 190.374 11.328C 190.811 10.784 191.03 10 191.03 8.976L 191.03 8.848C 191.03 8.31467 190.96 7.85067 190.822 7.456C 190.683 7.06133 190.496 6.736 190.262 6.48C 190.038 6.21333 189.766 6.016 189.446 5.888C 189.136 5.74933 188.806 5.68 188.454 5.68C 188.07 5.68 187.707 5.744 187.366 5.872C 187.035 6 186.747 6.19733 186.502 6.464C 186.256 6.72 186.064 7.05067 185.926 7.456C 185.787 7.85067 185.718 8.31467 185.718 8.848L 185.718 8.976C 185.718 10.0427 185.974 10.8373 186.486 11.36C 186.998 11.872 187.659 12.128 188.47 12.128ZM 197.061 13.232C 196.058 13.232 195.269 12.9973 194.693 12.528C 194.128 12.048 193.824 11.376 193.781 10.512L 195.077 10.512C 195.13 11.0133 195.301 11.408 195.589 11.696C 195.888 11.984 196.373 12.128 197.045 12.128C 197.685 12.128 198.149 12.0213 198.437 11.808C 198.725 11.584 198.869 11.248 198.869 10.8C 198.869 10.352 198.704 10.0373 198.373 9.856C 198.053 9.664 197.568 9.50933 196.917 9.392C 196.373 9.296 195.914 9.184 195.541 9.056C 195.168 8.91733 194.869 8.752 194.645 8.56C 194.421 8.368 194.256 8.13867 194.149 7.872C 194.053 7.60533 194.005 7.29067 194.005 6.928C 194.005 6.544 194.09 6.208 194.261 5.92C 194.432 5.62133 194.65 5.376 194.917 5.184C 195.194 4.98133 195.498 4.832 195.829 4.736C 196.17 4.62933 196.506 4.576 196.837 4.576C 197.21 4.576 197.568 4.61867 197.909 4.704C 198.25 4.77867 198.554 4.912 198.821 5.104C 199.098 5.296 199.328 5.54667 199.509 5.856C 199.69 6.16533 199.808 6.544 199.861 6.992L 198.581 6.992C 198.485 6.53333 198.298 6.20267 198.021 6C 197.754 5.78667 197.354 5.68 196.821 5.68C 196.341 5.68 195.957 5.792 195.669 6.016C 195.381 6.22933 195.237 6.51733 195.237 6.88C 195.237 7.072 195.264 7.23733 195.317 7.376C 195.381 7.504 195.488 7.62133 195.637 7.728C 195.786 7.824 195.984 7.91467 196.229 8C 196.485 8.07467 196.805 8.144 197.189 8.208C 197.626 8.28267 198.021 8.37333 198.373 8.48C 198.736 8.58667 199.045 8.73067 199.301 8.912C 199.568 9.08267 199.77 9.312 199.909 9.6C 200.058 9.87733 200.133 10.24 200.133 10.688C 200.133 11.456 199.877 12.0747 199.365 12.544C 198.853 13.0027 198.085 13.232 197.061 13.232ZM 204.989 13.232C 204.572 13.232 204.183 13.1733 203.82 13.056C 203.468 12.9387 203.164 12.752 202.908 12.496C 202.653 12.2293 202.45 11.8933 202.301 11.488C 202.151 11.0827 202.077 10.592 202.077 10.016L 202.077 4.72L 203.405 4.72L 203.405 9.952C 203.405 10.688 203.559 11.2267 203.868 11.568C 204.188 11.9093 204.679 12.08 205.34 12.08C 205.639 12.08 205.927 12.032 206.205 11.936C 206.482 11.84 206.727 11.696 206.94 11.504C 207.154 11.312 207.325 11.072 207.452 10.784C 207.581 10.496 207.644 10.1653 207.644 9.792L 207.644 4.72L 208.972 4.72L 208.972 13.088L 207.644 13.088L 207.644 11.76C 207.452 12.1547 207.127 12.5013 206.668 12.8C 206.22 13.088 205.661 13.232 204.989 13.232ZM 211.656 4.72L 212.984 4.72L 212.984 6C 213.177 5.60533 213.486 5.26933 213.912 4.992C 214.35 4.71467 214.872 4.576 215.481 4.576C 216.024 4.576 216.515 4.69867 216.952 4.944C 217.39 5.17867 217.715 5.57867 217.929 6.144C 218.078 5.86667 218.259 5.632 218.472 5.44C 218.696 5.23733 218.936 5.072 219.193 4.944C 219.448 4.816 219.715 4.72533 219.993 4.672C 220.27 4.608 220.536 4.576 220.792 4.576C 221.166 4.576 221.523 4.63467 221.865 4.752C 222.206 4.86933 222.505 5.06133 222.76 5.328C 223.017 5.59467 223.219 5.94133 223.368 6.368C 223.528 6.784 223.608 7.296 223.608 7.904L 223.608 13.088L 222.281 13.088L 222.281 7.808C 222.281 7.072 222.126 6.544 221.816 6.224C 221.518 5.89333 221.08 5.728 220.505 5.728C 220.238 5.728 219.971 5.776 219.705 5.872C 219.438 5.95733 219.198 6.096 218.984 6.288C 218.782 6.46933 218.616 6.704 218.488 6.992C 218.361 7.26933 218.297 7.59467 218.297 7.968L 218.297 13.088L 216.969 13.088L 216.969 7.808C 216.969 7.072 216.814 6.544 216.504 6.224C 216.206 5.89333 215.768 5.728 215.193 5.728C 214.926 5.728 214.659 5.776 214.392 5.872C 214.126 5.95733 213.886 6.096 213.672 6.288C 213.47 6.46933 213.305 6.704 213.177 6.992C 213.049 7.26933 212.984 7.59467 212.984 7.968L 212.984 13.088L 211.656 13.088L 211.656 4.72ZM 4.496 30.832C 3.952 30.832 3.44533 30.7413 2.976 30.56C 2.51733 30.368 2.11733 30.096 1.776 29.744C 1.44533 29.3813 1.184 28.944 0.992 28.432C 0.810667 27.9093 0.72 27.3227 0.72 26.672L 0.72 26.544C 0.72 25.904 0.816 25.3173 1.008 24.784C 1.2 24.2507 1.46667 23.792 1.808 23.408C 2.14933 23.0133 2.56 22.7093 3.04 22.496C 3.52 22.2827 4.048 22.176 4.624 22.176C 5.328 22.176 5.89867 22.3253 6.336 22.624C 6.77333 22.912 7.11467 23.2587 7.36 23.664L 7.36 18.32L 8.688 18.32L 8.688 30.688L 7.36 30.688L 7.36 29.248C 7.24267 29.4507 7.08267 29.648 6.88 29.84C 6.67733 30.032 6.448 30.2027 6.192 30.352C 5.94667 30.4907 5.68 30.6027 5.392 30.688C 5.104 30.784 4.80533 30.832 4.496 30.832ZM 4.64 29.728C 5.024 29.728 5.38667 29.664 5.728 29.536C 6.06933 29.408 6.36267 29.216 6.608 28.96C 6.85333 28.6933 7.04533 28.3627 7.184 27.968C 7.33333 27.5627 7.408 27.0933 7.408 26.56L 7.408 26.432C 7.408 25.3547 7.168 24.56 6.688 24.048C 6.21867 23.536 5.57333 23.28 4.752 23.28C 3.92 23.28 3.26933 23.5573 2.8 24.112C 2.33067 24.6667 2.096 25.456 2.096 26.48L 2.096 26.608C 2.096 27.1307 2.16 27.5893 2.288 27.984C 2.42667 28.3787 2.608 28.704 2.832 28.96C 3.06667 29.216 3.33867 29.408 3.648 29.536C 3.95733 29.664 4.288 29.728 4.64 29.728ZM 14.8632 29.728C 15.2793 29.728 15.6579 29.6533 15.9992 29.504C 16.3406 29.3547 16.6286 29.1413 16.8632 28.864C 17.0979 28.5867 17.2793 28.256 17.4072 27.872C 17.5353 27.4773 17.5992 27.0453 17.5992 26.576L 17.5992 26.464C 17.5992 25.4933 17.3486 24.72 16.8472 24.144C 16.3566 23.568 15.6953 23.28 14.8632 23.28C 14.0206 23.28 13.3539 23.568 12.8633 24.144C 12.3726 24.7093 12.1272 25.4773 12.1272 26.448L 12.1272 26.576C 12.1272 27.536 12.3672 28.304 12.8472 28.88C 13.3379 29.4453 14.0099 29.728 14.8632 29.728ZM 14.8472 30.832C 14.2499 30.832 13.7006 30.7253 13.1992 30.512C 12.6979 30.2987 12.2659 30.0053 11.9032 29.632C 11.5406 29.248 11.2579 28.7947 11.0553 28.272C 10.8526 27.7493 10.7513 27.184 10.7513 26.576L 10.7513 26.448C 10.7513 25.8187 10.8526 25.2427 11.0553 24.72C 11.2686 24.1973 11.5566 23.7493 11.9193 23.376C 12.2819 22.992 12.7139 22.6987 13.2153 22.496C 13.7273 22.2827 14.2766 22.176 14.8632 22.176C 15.4606 22.176 16.0099 22.2827 16.5113 22.496C 17.0126 22.6987 17.4446 22.9867 17.8073 23.36C 18.1699 23.7333 18.4526 24.1813 18.6552 24.704C 18.8686 25.2267 18.9753 25.8027 18.9753 26.432L 18.9753 26.56C 18.9753 27.1893 18.8686 27.7653 18.6552 28.288C 18.4526 28.8107 18.1646 29.264 17.7913 29.648C 17.4286 30.0213 16.9966 30.3147 16.4953 30.528C 15.9939 30.7307 15.4446 30.832 14.8472 30.832ZM 21.0635 18.32L 22.4075 18.32L 22.4075 30.688L 21.0635 30.688L 21.0635 18.32ZM 28.6132 29.728C 29.0293 29.728 29.4079 29.6533 29.7492 29.504C 30.0906 29.3547 30.3786 29.1413 30.6132 28.864C 30.8479 28.5867 31.0293 28.256 31.1572 27.872C 31.2853 27.4773 31.3492 27.0453 31.3492 26.576L 31.3492 26.464C 31.3492 25.4933 31.0986 24.72 30.5972 24.144C 30.1066 23.568 29.4453 23.28 28.6132 23.28C 27.7706 23.28 27.1039 23.568 26.6133 24.144C 26.1226 24.7093 25.8772 25.4773 25.8772 26.448L 25.8772 26.576C 25.8772 27.536 26.1172 28.304 26.5972 28.88C 27.0879 29.4453 27.7599 29.728 28.6132 29.728ZM 28.5972 30.832C 27.9999 30.832 27.4506 30.7253 26.9492 30.512C 26.4479 30.2987 26.0159 30.0053 25.6532 29.632C 25.2906 29.248 25.0079 28.7947 24.8053 28.272C 24.6026 27.7493 24.5013 27.184 24.5013 26.576L 24.5013 26.448C 24.5013 25.8187 24.6026 25.2427 24.8053 24.72C 25.0186 24.1973 25.3066 23.7493 25.6693 23.376C 26.0319 22.992 26.4639 22.6987 26.9653 22.496C 27.4773 22.2827 28.0266 22.176 28.6132 22.176C 29.2106 22.176 29.7599 22.2827 30.2613 22.496C 30.7626 22.6987 31.1946 22.9867 31.5573 23.36C 31.9199 23.7333 32.2026 24.1813 32.4052 24.704C 32.6186 25.2267 32.7253 25.8027 32.7253 26.432L 32.7253 26.56C 32.7253 27.1893 32.6186 27.7653 32.4052 28.288C 32.2026 28.8107 31.9146 29.264 31.5413 29.648C 31.1786 30.0213 30.7466 30.3147 30.2453 30.528C 29.7439 30.7307 29.1946 30.832 28.5972 30.832ZM 34.7815 22.32L 36.1095 22.32L 36.1095 23.824C 36.3762 23.3547 36.7122 22.9707 37.1175 22.672C 37.5335 22.3627 38.1148 22.1973 38.8615 22.176L 38.8615 23.424C 38.4455 23.4453 38.0668 23.4987 37.7255 23.584C 37.3842 23.6693 37.0908 23.8133 36.8455 24.016C 36.6108 24.2187 36.4295 24.4907 36.3015 24.832C 36.1735 25.1627 36.1095 25.584 36.1095 26.096L 36.1095 30.688L 34.7815 30.688L 34.7815 22.32ZM 47.1275 30.832C 46.7435 30.832 46.3808 30.784 46.0395 30.688C 45.6982 30.592 45.3995 30.4427 45.1435 30.24C 44.8982 30.0373 44.7008 29.7813 44.5515 29.472C 44.4128 29.1627 44.3435 28.7947 44.3435 28.368C 44.3435 27.888 44.4608 27.4827 44.6955 27.152C 44.9302 26.8213 45.2395 26.5547 45.6235 26.352C 46.0182 26.1493 46.4662 26.0053 46.9675 25.92C 47.4795 25.824 48.0022 25.776 48.5355 25.776L 49.7355 25.776L 49.7355 25.168C 49.7355 24.496 49.5968 24.016 49.3195 23.728C 49.0422 23.4293 48.5835 23.28 47.9435 23.28C 46.7915 23.28 46.1515 23.7813 46.0235 24.784L 44.6955 24.784C 44.7382 24.304 44.8555 23.8987 45.0475 23.568C 45.2502 23.2373 45.5008 22.9707 45.7995 22.768C 46.1088 22.5547 46.4502 22.4053 46.8235 22.32C 47.2075 22.224 47.6022 22.176 48.0075 22.176C 48.4128 22.176 48.7968 22.224 49.1595 22.32C 49.5328 22.4053 49.8582 22.5653 50.1355 22.8C 50.4128 23.024 50.6368 23.328 50.8075 23.712C 50.9782 24.096 51.0635 24.5813 51.0635 25.168L 51.0635 30.688L 49.7355 30.688L 49.7355 29.632C 49.4262 30.0267 49.0688 30.3253 48.6635 30.528C 48.2582 30.7307 47.7462 30.832 47.1275 30.832ZM 47.2555 29.776C 47.6075 29.776 47.9328 29.7333 48.2315 29.648C 48.5408 29.552 48.8022 29.4187 49.0155 29.248C 49.2395 29.0773 49.4155 28.8693 49.5435 28.624C 49.6715 28.368 49.7355 28.08 49.7355 27.76L 49.7355 26.72L 48.5835 26.72C 48.1675 26.72 47.7782 26.752 47.4155 26.816C 47.0635 26.8693 46.7542 26.96 46.4875 27.088C 46.2315 27.216 46.0288 27.3867 45.8795 27.6C 45.7408 27.8027 45.6715 28.0587 45.6715 28.368C 45.6715 28.8053 45.7888 29.152 46.0235 29.408C 46.2582 29.6533 46.6688 29.776 47.2555 29.776ZM 53.6721 22.32L 55.0001 22.32L 55.0001 23.6C 55.1921 23.2053 55.5015 22.8693 55.9281 22.592C 56.3655 22.3147 56.8881 22.176 57.4961 22.176C 58.0401 22.176 58.5308 22.2987 58.9681 22.544C 59.4055 22.7787 59.7308 23.1787 59.9441 23.744C 60.0935 23.4667 60.2748 23.232 60.4881 23.04C 60.7121 22.8373 60.9521 22.672 61.2081 22.544C 61.4641 22.416 61.7308 22.3253 62.0081 22.272C 62.2855 22.208 62.5521 22.176 62.8081 22.176C 63.1815 22.176 63.5388 22.2347 63.8801 22.352C 64.2215 22.4693 64.5201 22.6613 64.7761 22.928C 65.0321 23.1947 65.2348 23.5413 65.3841 23.968C 65.5441 24.384 65.6241 24.896 65.6241 25.504L 65.6241 30.688L 64.2961 30.688L 64.2961 25.408C 64.2961 24.672 64.1415 24.144 63.8321 23.824C 63.5335 23.4933 63.0961 23.328 62.5201 23.328C 62.2535 23.328 61.9868 23.376 61.7201 23.472C 61.4535 23.5573 61.2135 23.696 61.0001 23.888C 60.7975 24.0693 60.6321 24.304 60.5041 24.592C 60.3761 24.8693 60.3121 25.1947 60.3121 25.568L 60.3121 30.688L 58.9841 30.688L 58.9841 25.408C 58.9841 24.672 58.8295 24.144 58.5201 23.824C 58.2215 23.4933 57.7841 23.328 57.2081 23.328C 56.9415 23.328 56.6748 23.376 56.4081 23.472C 56.1415 23.5573 55.9015 23.696 55.6881 23.888C 55.4855 24.0693 55.3201 24.304 55.1921 24.592C 55.0641 24.8693 55.0001 25.1947 55.0001 25.568L 55.0001 30.688L 53.6721 30.688L 53.6721 22.32ZM 71.6586 30.832C 71.072 30.832 70.528 30.7307 70.0266 30.528C 69.536 30.3253 69.1093 30.0427 68.7466 29.68C 68.384 29.3067 68.1013 28.8587 67.8986 28.336C 67.7066 27.8133 67.6106 27.232 67.6106 26.592L 67.6106 26.464C 67.6106 25.8347 67.7066 25.2587 67.8986 24.736C 68.0906 24.2027 68.3573 23.7493 68.6986 23.376C 69.0506 22.992 69.4666 22.6987 69.9466 22.496C 70.4266 22.2827 70.9546 22.176 71.5306 22.176C 72.0106 22.176 72.4746 22.256 72.9226 22.416C 73.3813 22.5653 73.7866 22.8053 74.1386 23.136C 74.4906 23.4667 74.768 23.8987 74.9706 24.432C 75.184 24.9547 75.2906 25.5893 75.2906 26.336L 75.2906 26.768L 68.9866 26.768C 69.0186 27.728 69.2586 28.464 69.7066 28.976C 70.1546 29.4773 70.8106 29.728 71.6746 29.728C 72.9866 29.728 73.728 29.2427 73.8986 28.272L 75.2266 28.272C 75.0773 29.1147 74.6826 29.7547 74.0426 30.192C 73.4026 30.6187 72.608 30.832 71.6586 30.832ZM 73.9306 25.696C 73.8666 24.832 73.6213 24.2133 73.1946 23.84C 72.7786 23.4667 72.224 23.28 71.5306 23.28C 70.848 23.28 70.288 23.4987 69.8506 23.936C 69.424 24.3627 69.152 24.9493 69.0346 25.696L 73.9306 25.696ZM 79.8724 30.8C 79.1044 30.8 78.5337 30.5973 78.1604 30.192C 77.7977 29.7867 77.6164 29.2533 77.6164 28.592L 77.6164 23.44L 76.4164 23.44L 76.4164 22.32L 77.6164 22.32L 77.6164 20.416L 78.9444 20.416L 78.9444 22.32L 80.8964 22.32L 80.8964 23.44L 78.9444 23.44L 78.9444 28.464C 78.9444 29.2747 79.291 29.68 79.9844 29.68C 80.1977 29.68 80.3844 29.664 80.5444 29.632C 80.7044 29.6 80.859 29.5573 81.0084 29.504L 81.0084 30.624C 80.8697 30.6773 80.715 30.72 80.5444 30.752C 80.3737 30.784 80.1497 30.8 79.8724 30.8ZM 91.7726 23.44L 90.5726 23.44L 90.5726 22.32L 91.7726 22.32L 91.7726 20.96C 91.7726 20.1067 91.9806 19.4453 92.3966 18.976C 92.8126 18.5067 93.4366 18.272 94.2686 18.272C 94.482 18.272 94.658 18.288 94.7966 18.32C 94.9353 18.3413 95.09 18.3787 95.2606 18.432L 95.2606 19.552C 95.1433 19.4987 94.9993 19.456 94.8286 19.424C 94.6686 19.392 94.498 19.376 94.3166 19.376C 93.8793 19.376 93.5646 19.5093 93.3726 19.776C 93.1913 20.0427 93.1006 20.3893 93.1006 20.816L 93.1006 22.32L 95.1486 22.32L 95.1486 23.44L 93.1006 23.44L 93.1006 30.688L 91.7726 30.688L 91.7726 23.44ZM 100.113 29.728C 100.529 29.728 100.908 29.6533 101.249 29.504C 101.591 29.3547 101.879 29.1413 102.113 28.864C 102.348 28.5867 102.529 28.256 102.657 27.872C 102.785 27.4773 102.849 27.0453 102.849 26.576L 102.849 26.464C 102.849 25.4933 102.599 24.72 102.097 24.144C 101.607 23.568 100.945 23.28 100.113 23.28C 99.2706 23.28 98.6039 23.568 98.1133 24.144C 97.6226 24.7093 97.3772 25.4773 97.3772 26.448L 97.3772 26.576C 97.3772 27.536 97.6172 28.304 98.0972 28.88C 98.5879 29.4453 99.2599 29.728 100.113 29.728ZM 100.097 30.832C 99.4999 30.832 98.9506 30.7253 98.4492 30.512C 97.9479 30.2987 97.5159 30.0053 97.1532 29.632C 96.7906 29.248 96.5079 28.7947 96.3053 28.272C 96.1026 27.7493 96.0013 27.184 96.0013 26.576L 96.0013 26.448C 96.0013 25.8187 96.1026 25.2427 96.3053 24.72C 96.5186 24.1973 96.8066 23.7493 97.1693 23.376C 97.5319 22.992 97.9639 22.6987 98.4653 22.496C 98.9773 22.2827 99.5266 22.176 100.113 22.176C 100.711 22.176 101.26 22.2827 101.761 22.496C 102.263 22.6987 102.695 22.9867 103.057 23.36C 103.42 23.7333 103.703 24.1813 103.905 24.704C 104.119 25.2267 104.225 25.8027 104.225 26.432L 104.225 26.56C 104.225 27.1893 104.119 27.7653 103.905 28.288C 103.703 28.8107 103.415 29.264 103.041 29.648C 102.679 30.0213 102.247 30.3147 101.745 30.528C 101.244 30.7307 100.695 30.832 100.097 30.832ZM 106.281 22.32L 107.609 22.32L 107.609 23.824C 107.876 23.3547 108.212 22.9707 108.618 22.672C 109.034 22.3627 109.615 22.1973 110.361 22.176L 110.361 23.424C 109.945 23.4453 109.567 23.4987 109.226 23.584C 108.884 23.6693 108.591 23.8133 108.345 24.016C 108.111 24.2187 107.93 24.4907 107.802 24.832C 107.674 25.1627 107.609 25.584 107.609 26.096L 107.609 30.688L 106.281 30.688L 106.281 22.32ZM 116.628 19.248L 118.02 19.248L 118.02 29.552L 123.252 29.552L 123.252 30.688L 116.628 30.688L 116.628 19.248ZM 128.426 29.728C 128.842 29.728 129.22 29.6533 129.562 29.504C 129.903 29.3547 130.191 29.1413 130.426 28.864C 130.66 28.5867 130.842 28.256 130.97 27.872C 131.098 27.4773 131.162 27.0453 131.162 26.576L 131.162 26.464C 131.162 25.4933 130.911 24.72 130.41 24.144C 129.919 23.568 129.258 23.28 128.426 23.28C 127.583 23.28 126.916 23.568 126.426 24.144C 125.935 24.7093 125.69 25.4773 125.69 26.448L 125.69 26.576C 125.69 27.536 125.93 28.304 126.41 28.88C 126.9 29.4453 127.572 29.728 128.426 29.728ZM 128.41 30.832C 127.812 30.832 127.263 30.7253 126.762 30.512C 126.26 30.2987 125.828 30.0053 125.466 29.632C 125.103 29.248 124.82 28.7947 124.618 28.272C 124.415 27.7493 124.314 27.184 124.314 26.576L 124.314 26.448C 124.314 25.8187 124.415 25.2427 124.618 24.72C 124.831 24.1973 125.119 23.7493 125.482 23.376C 125.844 22.992 126.276 22.6987 126.778 22.496C 127.29 22.2827 127.839 22.176 128.426 22.176C 129.023 22.176 129.572 22.2827 130.074 22.496C 130.575 22.6987 131.007 22.9867 131.37 23.36C 131.732 23.7333 132.015 24.1813 132.218 24.704C 132.431 25.2267 132.538 25.8027 132.538 26.432L 132.538 26.56C 132.538 27.1893 132.431 27.7653 132.218 28.288C 132.015 28.8107 131.727 29.264 131.354 29.648C 130.991 30.0213 130.559 30.3147 130.058 30.528C 129.556 30.7307 129.007 30.832 128.41 30.832ZM 134.594 22.32L 135.922 22.32L 135.922 23.824C 136.189 23.3547 136.525 22.9707 136.93 22.672C 137.346 22.3627 137.927 22.1973 138.674 22.176L 138.674 23.424C 138.258 23.4453 137.879 23.4987 137.538 23.584C 137.197 23.6693 136.903 23.8133 136.658 24.016C 136.423 24.2187 136.242 24.4907 136.114 24.832C 135.986 25.1627 135.922 25.584 135.922 26.096L 135.922 30.688L 134.594 30.688L 134.594 22.32ZM 143.799 30.832C 143.213 30.832 142.669 30.7307 142.167 30.528C 141.677 30.3253 141.25 30.0427 140.887 29.68C 140.525 29.3067 140.242 28.8587 140.039 28.336C 139.847 27.8133 139.751 27.232 139.751 26.592L 139.751 26.464C 139.751 25.8347 139.847 25.2587 140.039 24.736C 140.231 24.2027 140.498 23.7493 140.839 23.376C 141.191 22.992 141.607 22.6987 142.087 22.496C 142.567 22.2827 143.095 22.176 143.671 22.176C 144.151 22.176 144.615 22.256 145.063 22.416C 145.522 22.5653 145.927 22.8053 146.279 23.136C 146.631 23.4667 146.909 23.8987 147.111 24.432C 147.325 24.9547 147.431 25.5893 147.431 26.336L 147.431 26.768L 141.127 26.768C 141.159 27.728 141.399 28.464 141.847 28.976C 142.295 29.4773 142.951 29.728 143.815 29.728C 145.127 29.728 145.869 29.2427 146.039 28.272L 147.367 28.272C 147.218 29.1147 146.823 29.7547 146.183 30.192C 145.543 30.6187 144.749 30.832 143.799 30.832ZM 146.071 25.696C 146.007 24.832 145.762 24.2133 145.335 23.84C 144.919 23.4667 144.365 23.28 143.671 23.28C 142.989 23.28 142.429 23.4987 141.991 23.936C 141.565 24.3627 141.293 24.9493 141.175 25.696L 146.071 25.696ZM 149.469 22.32L 150.797 22.32L 150.797 23.6C 150.989 23.2053 151.298 22.8693 151.725 22.592C 152.162 22.3147 152.685 22.176 153.293 22.176C 153.837 22.176 154.328 22.2987 154.765 22.544C 155.202 22.7787 155.528 23.1787 155.741 23.744C 155.89 23.4667 156.072 23.232 156.285 23.04C 156.509 22.8373 156.749 22.672 157.005 22.544C 157.261 22.416 157.528 22.3253 157.805 22.272C 158.082 22.208 158.349 22.176 158.605 22.176C 158.978 22.176 159.336 22.2347 159.677 22.352C 160.018 22.4693 160.317 22.6613 160.573 22.928C 160.829 23.1947 161.032 23.5413 161.181 23.968C 161.341 24.384 161.421 24.896 161.421 25.504L 161.421 30.688L 160.093 30.688L 160.093 25.408C 160.093 24.672 159.938 24.144 159.629 23.824C 159.33 23.4933 158.893 23.328 158.317 23.328C 158.05 23.328 157.784 23.376 157.517 23.472C 157.25 23.5573 157.01 23.696 156.797 23.888C 156.594 24.0693 156.429 24.304 156.301 24.592C 156.173 24.8693 156.109 25.1947 156.109 25.568L 156.109 30.688L 154.781 30.688L 154.781 25.408C 154.781 24.672 154.626 24.144 154.317 23.824C 154.018 23.4933 153.581 23.328 153.005 23.328C 152.738 23.328 152.472 23.376 152.205 23.472C 151.938 23.5573 151.698 23.696 151.485 23.888C 151.282 24.0693 151.117 24.304 150.989 24.592C 150.861 24.8693 150.797 25.1947 150.797 25.568L 150.797 30.688L 149.469 30.688L 149.469 22.32ZM 168.442 19.248L 169.834 19.248L 169.834 30.688L 168.442 30.688L 168.442 19.248ZM 172.703 22.32L 174.031 22.32L 174.031 23.728C 174.149 23.5253 174.303 23.3333 174.495 23.152C 174.698 22.96 174.922 22.7947 175.167 22.656C 175.423 22.5067 175.695 22.3893 175.983 22.304C 176.271 22.2187 176.565 22.176 176.863 22.176C 177.407 22.176 177.914 22.272 178.383 22.464C 178.853 22.656 179.253 22.9333 179.583 23.296C 179.925 23.6587 180.191 24.1013 180.383 24.624C 180.575 25.1467 180.671 25.7333 180.671 26.384L 180.671 26.512C 180.671 27.152 180.581 27.7387 180.399 28.272C 180.218 28.7947 179.962 29.248 179.631 29.632C 179.301 30.016 178.901 30.3147 178.431 30.528C 177.962 30.7307 177.439 30.832 176.863 30.832C 176.17 30.832 175.583 30.6827 175.103 30.384C 174.634 30.0853 174.277 29.728 174.031 29.312L 174.031 33.6L 172.703 33.6L 172.703 22.32ZM 176.735 29.728C 177.567 29.728 178.202 29.4613 178.639 28.928C 179.077 28.384 179.295 27.6 179.295 26.576L 179.295 26.448C 179.295 25.9147 179.226 25.4507 179.087 25.056C 178.949 24.6613 178.762 24.336 178.527 24.08C 178.303 23.8133 178.031 23.616 177.711 23.488C 177.402 23.3493 177.071 23.28 176.719 23.28C 176.335 23.28 175.973 23.344 175.631 23.472C 175.301 23.6 175.013 23.7973 174.767 24.064C 174.522 24.32 174.33 24.6507 174.191 25.056C 174.053 25.4507 173.983 25.9147 173.983 26.448L 173.983 26.576C 173.983 27.6427 174.239 28.4373 174.751 28.96C 175.263 29.472 175.925 29.728 176.735 29.728ZM 185.327 30.832C 184.324 30.832 183.535 30.5973 182.959 30.128C 182.393 29.648 182.089 28.976 182.047 28.112L 183.343 28.112C 183.396 28.6133 183.567 29.008 183.855 29.296C 184.153 29.584 184.639 29.728 185.311 29.728C 185.951 29.728 186.415 29.6213 186.703 29.408C 186.991 29.184 187.135 28.848 187.135 28.4C 187.135 27.952 186.969 27.6373 186.639 27.456C 186.319 27.264 185.833 27.1093 185.183 26.992C 184.639 26.896 184.18 26.784 183.807 26.656C 183.433 26.5173 183.135 26.352 182.911 26.16C 182.687 25.968 182.521 25.7387 182.415 25.472C 182.319 25.2053 182.271 24.8907 182.271 24.528C 182.271 24.144 182.356 23.808 182.527 23.52C 182.697 23.2213 182.916 22.976 183.183 22.784C 183.46 22.5813 183.764 22.432 184.095 22.336C 184.436 22.2293 184.772 22.176 185.103 22.176C 185.476 22.176 185.833 22.2187 186.175 22.304C 186.516 22.3787 186.82 22.512 187.087 22.704C 187.364 22.896 187.593 23.1467 187.775 23.456C 187.956 23.7653 188.073 24.144 188.127 24.592L 186.847 24.592C 186.751 24.1333 186.564 23.8027 186.287 23.6C 186.02 23.3867 185.62 23.28 185.087 23.28C 184.607 23.28 184.223 23.392 183.935 23.616C 183.647 23.8293 183.503 24.1173 183.503 24.48C 183.503 24.672 183.529 24.8373 183.583 24.976C 183.647 25.104 183.753 25.2213 183.903 25.328C 184.052 25.424 184.249 25.5147 184.495 25.6C 184.751 25.6747 185.071 25.744 185.455 25.808C 185.892 25.8827 186.287 25.9733 186.639 26.08C 187.001 26.1867 187.311 26.3307 187.567 26.512C 187.833 26.6827 188.036 26.912 188.175 27.2C 188.324 27.4773 188.399 27.84 188.399 28.288C 188.399 29.056 188.143 29.6747 187.631 30.144C 187.119 30.6027 186.351 30.832 185.327 30.832ZM 193.254 30.832C 192.838 30.832 192.449 30.7733 192.086 30.656C 191.734 30.5387 191.43 30.352 191.174 30.096C 190.918 29.8293 190.715 29.4933 190.566 29.088C 190.417 28.6827 190.342 28.192 190.342 27.616L 190.342 22.32L 191.67 22.32L 191.67 27.552C 191.67 28.288 191.825 28.8267 192.134 29.168C 192.454 29.5093 192.945 29.68 193.606 29.68C 193.905 29.68 194.193 29.632 194.47 29.536C 194.747 29.44 194.993 29.296 195.206 29.104C 195.419 28.912 195.59 28.672 195.718 28.384C 195.846 28.096 195.91 27.7653 195.91 27.392L 195.91 22.32L 197.238 22.32L 197.238 30.688L 195.91 30.688L 195.91 29.36C 195.718 29.7547 195.393 30.1013 194.934 30.4C 194.486 30.688 193.926 30.832 193.254 30.832ZM 199.922 22.32L 201.25 22.32L 201.25 23.6C 201.442 23.2053 201.751 22.8693 202.178 22.592C 202.615 22.3147 203.138 22.176 203.746 22.176C 204.29 22.176 204.781 22.2987 205.218 22.544C 205.655 22.7787 205.981 23.1787 206.194 23.744C 206.343 23.4667 206.525 23.232 206.738 23.04C 206.962 22.8373 207.202 22.672 207.458 22.544C 207.714 22.416 207.981 22.3253 208.258 22.272C 208.535 22.208 208.802 22.176 209.058 22.176C 209.431 22.176 209.789 22.2347 210.13 22.352C 210.471 22.4693 210.77 22.6613 211.026 22.928C 211.282 23.1947 211.485 23.5413 211.634 23.968C 211.794 24.384 211.874 24.896 211.874 25.504L 211.874 30.688L 210.546 30.688L 210.546 25.408C 210.546 24.672 210.391 24.144 210.082 23.824C 209.783 23.4933 209.346 23.328 208.77 23.328C 208.503 23.328 208.237 23.376 207.97 23.472C 207.703 23.5573 207.463 23.696 207.25 23.888C 207.047 24.0693 206.882 24.304 206.754 24.592C 206.626 24.8693 206.562 25.1947 206.562 25.568L 206.562 30.688L 205.234 30.688L 205.234 25.408C 205.234 24.672 205.079 24.144 204.77 23.824C 204.471 23.4933 204.034 23.328 203.458 23.328C 203.191 23.328 202.925 23.376 202.658 23.472C 202.391 23.5573 202.151 23.696 201.938 23.888C 201.735 24.0693 201.57 24.304 201.442 24.592C 201.314 24.8693 201.25 25.1947 201.25 25.568L 201.25 30.688L 199.922 30.688L 199.922 22.32ZM 4.496 48.432C 3.952 48.432 3.44533 48.3413 2.976 48.16C 2.51733 47.968 2.11733 47.696 1.776 47.344C 1.44533 46.9813 1.184 46.544 0.992 46.032C 0.810667 45.5093 0.72 44.9227 0.72 44.272L 0.72 44.144C 0.72 43.504 0.816 42.9173 1.008 42.384C 1.2 41.8507 1.46667 41.392 1.808 41.008C 2.14933 40.6133 2.56 40.3093 3.04 40.096C 3.52 39.8827 4.048 39.776 4.624 39.776C 5.328 39.776 5.89867 39.9253 6.336 40.224C 6.77333 40.512 7.11467 40.8587 7.36 41.264L 7.36 35.92L 8.688 35.92L 8.688 48.288L 7.36 48.288L 7.36 46.848C 7.24267 47.0507 7.08267 47.248 6.88 47.44C 6.67733 47.632 6.448 47.8027 6.192 47.952C 5.94667 48.0907 5.68 48.2027 5.392 48.288C 5.104 48.384 4.80533 48.432 4.496 48.432ZM 4.64 47.328C 5.024 47.328 5.38667 47.264 5.728 47.136C 6.06933 47.008 6.36267 46.816 6.608 46.56C 6.85333 46.2933 7.04533 45.9627 7.184 45.568C 7.33333 45.1627 7.408 44.6933 7.408 44.16L 7.408 44.032C 7.408 42.9547 7.168 42.16 6.688 41.648C 6.21867 41.136 5.57333 40.88 4.752 40.88C 3.92 40.88 3.26933 41.1573 2.8 41.712C 2.33067 42.2667 2.096 43.056 2.096 44.08L 2.096 44.208C 2.096 44.7307 2.16 45.1893 2.288 45.584C 2.42667 45.9787 2.608 46.304 2.832 46.56C 3.06667 46.816 3.33867 47.008 3.648 47.136C 3.95733 47.264 4.288 47.328 4.64 47.328ZM 14.8632 47.328C 15.2793 47.328 15.6579 47.2533 15.9992 47.104C 16.3406 46.9547 16.6286 46.7413 16.8632 46.464C 17.0979 46.1867 17.2793 45.856 17.4072 45.472C 17.5353 45.0773 17.5992 44.6453 17.5992 44.176L 17.5992 44.064C 17.5992 43.0933 17.3486 42.32 16.8472 41.744C 16.3566 41.168 15.6953 40.88 14.8632 40.88C 14.0206 40.88 13.3539 41.168 12.8633 41.744C 12.3726 42.3093 12.1272 43.0773 12.1272 44.048L 12.1272 44.176C 12.1272 45.136 12.3672 45.904 12.8472 46.48C 13.3379 47.0453 14.0099 47.328 14.8632 47.328ZM 14.8472 48.432C 14.2499 48.432 13.7006 48.3253 13.1992 48.112C 12.6979 47.8987 12.2659 47.6053 11.9032 47.232C 11.5406 46.848 11.2579 46.3947 11.0553 45.872C 10.8526 45.3493 10.7513 44.784 10.7513 44.176L 10.7513 44.048C 10.7513 43.4187 10.8526 42.8427 11.0553 42.32C 11.2686 41.7973 11.5566 41.3493 11.9193 40.976C 12.2819 40.592 12.7139 40.2987 13.2153 40.096C 13.7273 39.8827 14.2766 39.776 14.8632 39.776C 15.4606 39.776 16.0099 39.8827 16.5113 40.096C 17.0126 40.2987 17.4446 40.5867 17.8073 40.96C 18.1699 41.3333 18.4526 41.7813 18.6552 42.304C 18.8686 42.8267 18.9753 43.4027 18.9753 44.032L 18.9753 44.16C 18.9753 44.7893 18.8686 45.3653 18.6552 45.888C 18.4526 46.4107 18.1646 46.864 17.7913 47.248C 17.4286 47.6213 16.9966 47.9147 16.4953 48.128C 15.9939 48.3307 15.4446 48.432 14.8472 48.432ZM 21.0635 35.92L 22.4075 35.92L 22.4075 48.288L 21.0635 48.288L 21.0635 35.92ZM 28.6132 47.328C 29.0293 47.328 29.4079 47.2533 29.7492 47.104C 30.0906 46.9547 30.3786 46.7413 30.6132 46.464C 30.8479 46.1867 31.0293 45.856 31.1572 45.472C 31.2853 45.0773 31.3492 44.6453 31.3492 44.176L 31.3492 44.064C 31.3492 43.0933 31.0986 42.32 30.5972 41.744C 30.1066 41.168 29.4453 40.88 28.6132 40.88C 27.7706 40.88 27.1039 41.168 26.6133 41.744C 26.1226 42.3093 25.8772 43.0773 25.8772 44.048L 25.8772 44.176C 25.8772 45.136 26.1172 45.904 26.5972 46.48C 27.0879 47.0453 27.7599 47.328 28.6132 47.328ZM 28.5972 48.432C 27.9999 48.432 27.4506 48.3253 26.9492 48.112C 26.4479 47.8987 26.0159 47.6053 25.6532 47.232C 25.2906 46.848 25.0079 46.3947 24.8053 45.872C 24.6026 45.3493 24.5013 44.784 24.5013 44.176L 24.5013 44.048C 24.5013 43.4187 24.6026 42.8427 24.8053 42.32C 25.0186 41.7973 25.3066 41.3493 25.6693 40.976C 26.0319 40.592 26.4639 40.2987 26.9653 40.096C 27.4773 39.8827 28.0266 39.776 28.6132 39.776C 29.2106 39.776 29.7599 39.8827 30.2613 40.096C 30.7626 40.2987 31.1946 40.5867 31.5573 40.96C 31.9199 41.3333 32.2026 41.7813 32.4052 42.304C 32.6186 42.8267 32.7253 43.4027 32.7253 44.032L 32.7253 44.16C 32.7253 44.7893 32.6186 45.3653 32.4052 45.888C 32.2026 46.4107 31.9146 46.864 31.5413 47.248C 31.1786 47.6213 30.7466 47.9147 30.2453 48.128C 29.7439 48.3307 29.1946 48.432 28.5972 48.432ZM 34.7815 39.92L 36.1095 39.92L 36.1095 41.424C 36.3762 40.9547 36.7122 40.5707 37.1175 40.272C 37.5335 39.9627 38.1148 39.7973 38.8615 39.776L 38.8615 41.024C 38.4455 41.0453 38.0668 41.0987 37.7255 41.184C 37.3842 41.2693 37.0908 41.4133 36.8455 41.616C 36.6108 41.8187 36.4295 42.0907 36.3015 42.432C 36.1735 42.7627 36.1095 43.184 36.1095 43.696L 36.1095 48.288L 34.7815 48.288L 34.7815 39.92ZM 47.1275 48.432C 46.7435 48.432 46.3808 48.384 46.0395 48.288C 45.6982 48.192 45.3995 48.0427 45.1435 47.84C 44.8982 47.6373 44.7008 47.3813 44.5515 47.072C 44.4128 46.7627 44.3435 46.3947 44.3435 45.968C 44.3435 45.488 44.4608 45.0827 44.6955 44.752C 44.9302 44.4213 45.2395 44.1547 45.6235 43.952C 46.0182 43.7493 46.4662 43.6053 46.9675 43.52C 47.4795 43.424 48.0022 43.376 48.5355 43.376L 49.7355 43.376L 49.7355 42.768C 49.7355 42.096 49.5968 41.616 49.3195 41.328C 49.0422 41.0293 48.5835 40.88 47.9435 40.88C 46.7915 40.88 46.1515 41.3813 46.0235 42.384L 44.6955 42.384C 44.7382 41.904 44.8555 41.4987 45.0475 41.168C 45.2502 40.8373 45.5008 40.5707 45.7995 40.368C 46.1088 40.1547 46.4502 40.0053 46.8235 39.92C 47.2075 39.824 47.6022 39.776 48.0075 39.776C 48.4128 39.776 48.7968 39.824 49.1595 39.92C 49.5328 40.0053 49.8582 40.1653 50.1355 40.4C 50.4128 40.624 50.6368 40.928 50.8075 41.312C 50.9782 41.696 51.0635 42.1813 51.0635 42.768L 51.0635 48.288L 49.7355 48.288L 49.7355 47.232C 49.4262 47.6267 49.0688 47.9253 48.6635 48.128C 48.2582 48.3307 47.7462 48.432 47.1275 48.432ZM 47.2555 47.376C 47.6075 47.376 47.9328 47.3333 48.2315 47.248C 48.5408 47.152 48.8022 47.0187 49.0155 46.848C 49.2395 46.6773 49.4155 46.4693 49.5435 46.224C 49.6715 45.968 49.7355 45.68 49.7355 45.36L 49.7355 44.32L 48.5835 44.32C 48.1675 44.32 47.7782 44.352 47.4155 44.416C 47.0635 44.4693 46.7542 44.56 46.4875 44.688C 46.2315 44.816 46.0288 44.9867 45.8795 45.2C 45.7408 45.4027 45.6715 45.6587 45.6715 45.968C 45.6715 46.4053 45.7888 46.752 46.0235 47.008C 46.2582 47.2533 46.6688 47.376 47.2555 47.376ZM 53.6721 39.92L 55.0001 39.92L 55.0001 41.2C 55.1921 40.8053 55.5015 40.4693 55.9281 40.192C 56.3655 39.9147 56.8881 39.776 57.4961 39.776C 58.0401 39.776 58.5308 39.8987 58.9681 40.144C 59.4055 40.3787 59.7308 40.7787 59.9441 41.344C 60.0935 41.0667 60.2748 40.832 60.4881 40.64C 60.7121 40.4373 60.9521 40.272 61.2081 40.144C 61.4641 40.016 61.7308 39.9253 62.0081 39.872C 62.2855 39.808 62.5521 39.776 62.8081 39.776C 63.1815 39.776 63.5388 39.8347 63.8801 39.952C 64.2215 40.0693 64.5201 40.2613 64.7761 40.528C 65.0321 40.7947 65.2348 41.1413 65.3841 41.568C 65.5441 41.984 65.6241 42.496 65.6241 43.104L 65.6241 48.288L 64.2961 48.288L 64.2961 43.008C 64.2961 42.272 64.1415 41.744 63.8321 41.424C 63.5335 41.0933 63.0961 40.928 62.5201 40.928C 62.2535 40.928 61.9868 40.976 61.7201 41.072C 61.4535 41.1573 61.2135 41.296 61.0001 41.488C 60.7975 41.6693 60.6321 41.904 60.5041 42.192C 60.3761 42.4693 60.3121 42.7947 60.3121 43.168L 60.3121 48.288L 58.9841 48.288L 58.9841 43.008C 58.9841 42.272 58.8295 41.744 58.5201 41.424C 58.2215 41.0933 57.7841 40.928 57.2081 40.928C 56.9415 40.928 56.6748 40.976 56.4081 41.072C 56.1415 41.1573 55.9015 41.296 55.6881 41.488C 55.4855 41.6693 55.3201 41.904 55.1921 42.192C 55.0641 42.4693 55.0001 42.7947 55.0001 43.168L 55.0001 48.288L 53.6721 48.288L 53.6721 39.92ZM 71.6586 48.432C 71.072 48.432 70.528 48.3307 70.0266 48.128C 69.536 47.9253 69.1093 47.6427 68.7466 47.28C 68.384 46.9067 68.1013 46.4587 67.8986 45.936C 67.7066 45.4133 67.6106 44.832 67.6106 44.192L 67.6106 44.064C 67.6106 43.4347 67.7066 42.8587 67.8986 42.336C 68.0906 41.8027 68.3573 41.3493 68.6986 40.976C 69.0506 40.592 69.4666 40.2987 69.9466 40.096C 70.4266 39.8827 70.9546 39.776 71.5306 39.776C 72.0106 39.776 72.4746 39.856 72.9226 40.016C 73.3813 40.1653 73.7866 40.4053 74.1386 40.736C 74.4906 41.0667 74.768 41.4987 74.9706 42.032C 75.184 42.5547 75.2906 43.1893 75.2906 43.936L 75.2906 44.368L 68.9866 44.368C 69.0186 45.328 69.2586 46.064 69.7066 46.576C 70.1546 47.0773 70.8106 47.328 71.6746 47.328C 72.9866 47.328 73.728 46.8427 73.8986 45.872L 75.2266 45.872C 75.0773 46.7147 74.6826 47.3547 74.0426 47.792C 73.4026 48.2187 72.608 48.432 71.6586 48.432ZM 73.9306 43.296C 73.8666 42.432 73.6213 41.8133 73.1946 41.44C 72.7786 41.0667 72.224 40.88 71.5306 40.88C 70.848 40.88 70.288 41.0987 69.8506 41.536C 69.424 41.9627 69.152 42.5493 69.0346 43.296L 73.9306 43.296ZM 79.8724 48.4C 79.1044 48.4 78.5337 48.1973 78.1604 47.792C 77.7977 47.3867 77.6164 46.8533 77.6164 46.192L 77.6164 41.04L 76.4164 41.04L 76.4164 39.92L 77.6164 39.92L 77.6164 38.016L 78.9444 38.016L 78.9444 39.92L 80.8964 39.92L 80.8964 41.04L 78.9444 41.04L 78.9444 46.064C 78.9444 46.8747 79.291 47.28 79.9844 47.28C 80.1977 47.28 80.3844 47.264 80.5444 47.232C 80.7044 47.2 80.859 47.1573 81.0084 47.104L 81.0084 48.224C 80.8697 48.2773 80.715 48.32 80.5444 48.352C 80.3737 48.384 80.1497 48.4 79.8724 48.4ZM 83.9279 48.368C 83.6505 48.368 83.4105 48.272 83.2079 48.08C 83.0052 47.8773 82.9039 47.632 82.9039 47.344C 82.9039 47.056 83.0052 46.816 83.2079 46.624C 83.4105 46.4213 83.6505 46.32 83.9279 46.32C 84.2052 46.32 84.4452 46.4213 84.6479 46.624C 84.8505 46.816 84.9519 47.056 84.9519 47.344C 84.9519 47.632 84.8505 47.8773 84.6479 48.08C 84.4452 48.272 84.2052 48.368 83.9279 48.368Z"/>
<path id="path3_fill" d="M 2.064 19.704L 5.28 19.704L 5.28 2.544L 2.064 2.544L 2.064 19.704ZM 13.7914 19.944C 15.6394 19.944 17.2474 18.84 17.9194 17.592L 17.9194 19.704L 20.8234 19.704L 20.8234 1.344L 17.9194 1.344L 17.9194 9.072C 17.2234 7.824 15.9514 6.888 13.9114 6.888C 10.6474 6.888 8.27137 9.432 8.27137 13.44L 8.27137 13.632C 8.27137 17.712 10.6474 19.944 13.7914 19.944ZM 14.5114 17.64C 12.6394 17.64 11.2474 16.32 11.2474 13.56L 11.2474 13.368C 11.2474 10.656 12.4954 9.168 14.6314 9.168C 16.7434 9.168 18.0154 10.536 18.0154 13.296L 18.0154 13.488C 18.0154 16.296 16.5274 17.64 14.5114 17.64ZM 29.7949 19.944C 33.0109 19.944 35.1469 18.504 35.5549 15.864L 32.7469 15.864C 32.5309 17.088 31.6189 17.784 29.8669 17.784C 27.7069 17.784 26.5069 16.44 26.4109 14.064L 35.6029 14.064L 35.6029 13.224C 35.6029 8.736 32.7949 6.888 29.6749 6.888C 26.0989 6.888 23.4349 9.48 23.4349 13.368L 23.4349 13.56C 23.4349 17.52 26.0989 19.944 29.7949 19.944ZM 26.4589 12.12C 26.7469 10.176 27.9229 9 29.6749 9C 31.4749 9 32.5789 9.96 32.7229 12.12L 26.4589 12.12ZM 41.6019 19.944C 43.5219 19.944 44.6259 19.248 45.4419 18.168L 45.4419 19.704L 48.2979 19.704L 48.2979 11.472C 48.2979 8.04 46.0899 6.888 43.2819 6.888C 40.4739 6.888 38.1459 8.112 37.9059 11.04L 40.7139 11.04C 40.8579 9.792 41.6019 9.072 43.1139 9.072C 44.8179 9.072 45.3939 9.912 45.3939 11.592L 45.3939 12.24L 43.8339 12.24C 40.2339 12.24 37.4019 13.296 37.4019 16.224C 37.4019 18.84 39.2979 19.944 41.6019 19.944ZM 42.2979 17.856C 40.8579 17.856 40.2819 17.16 40.2819 16.104C 40.2819 14.568 41.6979 14.064 43.9059 14.064L 45.3939 14.064L 45.3939 15.312C 45.3939 16.92 44.0739 17.856 42.2979 17.856ZM 51.6984 19.704L 54.6024 19.704L 54.6024 1.344L 51.6984 1.344L 51.6984 19.704ZM 64.3648 19.704L 67.2688 19.704L 67.2688 9.336L 70.1248 9.336L 70.1248 7.152L 67.2688 7.152L 67.2688 5.352C 67.2688 4.272 67.7488 3.504 68.9248 3.504C 69.4528 3.504 69.9088 3.6 70.2448 3.72L 70.2448 1.464C 69.7168 1.296 69.2848 1.224 68.5888 1.224C 65.9008 1.224 64.3648 2.712 64.3648 5.472L 64.3648 7.152L 62.6608 7.152L 62.6608 9.336L 64.3648 9.336L 64.3648 19.704ZM 77.7034 17.688C 75.4954 17.688 74.2234 16.08 74.2234 13.512L 74.2234 13.32C 74.2234 10.728 75.5434 9.168 77.7034 9.168C 79.8634 9.168 81.1594 10.752 81.1594 13.344L 81.1594 13.512C 81.1594 16.08 79.8634 17.688 77.7034 17.688ZM 77.6794 19.944C 81.3754 19.944 84.1354 17.4 84.1354 13.488L 84.1354 13.296C 84.1354 9.456 81.3754 6.888 77.7034 6.888C 74.0074 6.888 71.2474 9.48 71.2474 13.368L 71.2474 13.56C 71.2474 17.376 73.9834 19.944 77.6794 19.944ZM 86.7592 19.704L 89.6633 19.704L 89.6633 13.176C 89.6633 10.512 91.1992 9.696 93.7433 9.672L 93.7433 6.96C 91.6313 6.984 90.4552 7.92 89.6633 9.504L 89.6633 7.152L 86.7592 7.152L 86.7592 19.704ZM 7.8 46.344C 11.592 46.344 14.112 44.016 14.112 41.04C 14.112 37.608 12.024 36.456 7.992 35.904C 5.016 35.472 4.44 34.776 4.44 33.384C 4.44 32.064 5.448 31.128 7.392 31.128C 9.36 31.128 10.392 31.896 10.704 33.696L 13.632 33.696C 13.296 30.408 11.088 28.728 7.392 28.728C 3.816 28.728 1.416 30.84 1.416 33.648C 1.416 36.864 3.36 38.112 7.464 38.664C 10.248 39.12 11.04 39.72 11.04 41.304C 11.04 42.888 9.696 43.944 7.8 43.944C 4.896 43.944 4.2 42.504 3.984 40.776L 0.912 40.776C 1.152 44.016 3.12 46.344 7.8 46.344ZM 21.0452 46.344C 23.0852 46.344 24.4052 45.36 25.0292 44.136L 25.0292 46.104L 27.9332 46.104L 27.9332 33.552L 25.0292 33.552L 25.0292 41.016C 25.0292 43.008 23.6612 44.016 22.1012 44.016C 20.4212 44.016 19.6292 43.152 19.6292 41.256L 19.6292 33.552L 16.7252 33.552L 16.7252 41.592C 16.7252 44.928 18.5732 46.344 21.0452 46.344ZM 38.3844 46.344C 41.6244 46.344 43.9524 43.896 43.9524 39.864L 43.9524 39.672C 43.9524 35.616 41.5284 33.288 38.3844 33.288C 36.5364 33.288 34.9764 34.368 34.2804 35.568L 34.2804 27.744L 31.3764 27.744L 31.3764 46.104L 34.2804 46.104L 34.2804 44.088C 34.9524 45.36 36.3924 46.344 38.3844 46.344ZM 37.6644 44.04C 35.5524 44.04 34.1844 42.72 34.1844 39.912L 34.1844 39.72C 34.1844 36.936 35.6244 35.568 37.6404 35.568C 39.5364 35.568 40.9764 36.936 40.9764 39.72L 40.9764 39.912C 40.9764 42.6 39.8004 44.04 37.6644 44.04ZM 50.8599 46.344C 54.0759 46.344 55.8759 44.88 55.8759 42.336C 55.8759 39.672 54.1239 38.952 51.1719 38.496C 49.1799 38.16 48.5799 37.8 48.5799 36.888C 48.5799 36 49.3239 35.4 50.5719 35.4C 51.9159 35.4 52.5639 35.928 52.8039 37.08L 55.4919 37.08C 55.1799 34.248 53.1399 33.288 50.5719 33.288C 48.2199 33.288 45.8679 34.536 45.8679 37.056C 45.8679 39.408 47.0919 40.344 50.4039 40.872C 52.2519 41.184 53.0919 41.568 53.0919 42.6C 53.0919 43.656 52.3959 44.208 50.8359 44.208C 49.1319 44.208 48.4839 43.464 48.3399 42.192L 45.6039 42.192C 45.7239 44.856 47.6199 46.344 50.8599 46.344ZM 63.9193 46.344C 67.3273 46.344 69.5113 44.304 69.7273 41.424L 67.0633 41.424C 66.8953 43.2 65.5753 44.112 64.0393 44.112C 61.9033 44.112 60.5593 42.672 60.5593 39.936L 60.5593 39.744C 60.5593 37.152 61.9753 35.616 63.9673 35.616C 65.5033 35.616 66.6073 36.312 66.8473 37.992L 69.6553 37.992C 69.3193 34.536 66.7033 33.288 63.9193 33.288C 60.4153 33.288 57.5833 35.808 57.5833 39.792L 57.5833 39.984C 57.5833 43.992 60.3193 46.344 63.9193 46.344ZM 72.228 46.104L 75.132 46.104L 75.132 39.576C 75.132 36.912 76.668 36.096 79.212 36.072L 79.212 33.36C 77.1 33.384 75.924 34.32 75.132 35.904L 75.132 33.552L 72.228 33.552L 72.228 46.104ZM 81.8391 46.104L 84.7431 46.104L 84.7431 33.552L 81.8391 33.552L 81.8391 46.104ZM 83.2551 31.488C 84.2151 31.488 84.9831 30.768 84.9831 29.832C 84.9831 28.872 84.2151 28.152 83.2551 28.152C 82.2951 28.152 81.5271 28.872 81.5271 29.832C 81.5271 30.768 82.2951 31.488 83.2551 31.488ZM 88.2827 50.4L 91.1867 50.4L 91.1867 44.136C 91.8587 45.36 93.2987 46.344 95.2907 46.344C 98.5307 46.344 100.859 43.896 100.859 39.864L 100.859 39.672C 100.859 35.616 98.4347 33.288 95.2907 33.288C 93.4427 33.288 91.8827 34.368 91.1867 35.568L 91.1867 33.552L 88.2827 33.552L 88.2827 50.4ZM 94.5707 44.04C 92.4587 44.04 91.0907 42.72 91.0907 39.912L 91.0907 39.72C 91.0907 36.936 92.5307 35.568 94.5467 35.568C 96.4427 35.568 97.8827 36.936 97.8827 39.72L 97.8827 39.912C 97.8827 42.6 96.7067 44.04 94.5707 44.04ZM 107.742 46.32C 108.63 46.32 109.254 46.176 109.71 46.008L 109.71 43.704C 109.302 43.872 108.87 43.944 108.294 43.944C 107.382 43.944 106.854 43.44 106.854 42.336L 106.854 35.736L 109.614 35.736L 109.614 33.552L 106.854 33.552L 106.854 30.792L 103.95 30.792L 103.95 33.552L 102.27 33.552L 102.27 35.736L 103.95 35.736L 103.95 42.6C 103.95 44.976 105.246 46.32 107.742 46.32ZM 112.402 46.104L 115.306 46.104L 115.306 33.552L 112.402 33.552L 112.402 46.104ZM 113.818 31.488C 114.778 31.488 115.546 30.768 115.546 29.832C 115.546 28.872 114.778 28.152 113.818 28.152C 112.858 28.152 112.09 28.872 112.09 29.832C 112.09 30.768 112.858 31.488 113.818 31.488ZM 124.461 44.088C 122.253 44.088 120.981 42.48 120.981 39.912L 120.981 39.72C 120.981 37.128 122.301 35.568 124.461 35.568C 126.621 35.568 127.917 37.152 127.917 39.744L 127.917 39.912C 127.917 42.48 126.621 44.088 124.461 44.088ZM 124.437 46.344C 128.133 46.344 130.893 43.8 130.893 39.888L 130.893 39.696C 130.893 35.856 128.133 33.288 124.461 33.288C 120.765 33.288 118.005 35.88 118.005 39.768L 118.005 39.96C 118.005 43.776 120.741 46.344 124.437 46.344ZM 133.517 46.104L 136.421 46.104L 136.421 38.712C 136.421 36.72 137.741 35.712 139.373 35.712C 141.101 35.712 141.869 36.576 141.869 38.472L 141.869 46.104L 144.773 46.104L 144.773 38.208C 144.773 34.752 142.997 33.288 140.477 33.288C 138.413 33.288 137.021 34.32 136.421 35.544L 136.421 33.552L 133.517 33.552L 133.517 46.104ZM 1.968 72.504L 8.568 72.504C 12.336 72.504 14.448 70.896 14.448 67.704L 14.448 67.608C 14.448 65.328 13.344 64.056 11.016 63.552C 12.96 62.952 13.728 61.608 13.728 59.904L 13.728 59.808C 13.728 56.688 11.64 55.344 8.112 55.344L 1.968 55.344L 1.968 72.504ZM 5.088 70.224L 5.088 64.728L 7.968 64.728C 10.32 64.728 11.304 65.616 11.304 67.392L 11.304 67.488C 11.304 69.264 10.32 70.224 8.184 70.224L 5.088 70.224ZM 5.088 62.568L 5.088 57.624L 7.68 57.624C 9.72 57.624 10.656 58.32 10.656 59.952L 10.656 60.048C 10.656 61.8 9.84 62.568 7.728 62.568L 5.088 62.568ZM 21.3967 72.744C 23.4367 72.744 24.7567 71.76 25.3807 70.536L 25.3807 72.504L 28.2847 72.504L 28.2847 59.952L 25.3807 59.952L 25.3807 67.416C 25.3807 69.408 24.0128 70.416 22.4528 70.416C 20.7728 70.416 19.9807 69.552 19.9807 67.656L 19.9807 59.952L 17.0768 59.952L 17.0768 67.992C 17.0768 71.328 18.9247 72.744 21.3967 72.744ZM 36.024 72.744C 39.24 72.744 41.04 71.28 41.04 68.736C 41.04 66.072 39.288 65.352 36.336 64.896C 34.344 64.56 33.744 64.2 33.744 63.288C 33.744 62.4 34.488 61.8 35.736 61.8C 37.08 61.8 37.728 62.328 37.968 63.48L 40.656 63.48C 40.344 60.648 38.304 59.688 35.736 59.688C 33.384 59.688 31.032 60.936 31.032 63.456C 31.032 65.808 32.256 66.744 35.568 67.272C 37.416 67.584 38.256 67.968 38.256 69C 38.256 70.056 37.56 70.608 36 70.608C 34.296 70.608 33.648 69.864 33.504 68.592L 30.768 68.592C 30.888 71.256 32.784 72.744 36.024 72.744ZM 43.6594 72.504L 46.5634 72.504L 46.5634 59.952L 43.6594 59.952L 43.6594 72.504ZM 45.0754 57.888C 46.0354 57.888 46.8034 57.168 46.8034 56.232C 46.8034 55.272 46.0354 54.552 45.0754 54.552C 44.1154 54.552 43.3474 55.272 43.3474 56.232C 43.3474 57.168 44.1154 57.888 45.0754 57.888ZM 50.103 72.504L 53.007 72.504L 53.007 65.112C 53.007 63.12 54.327 62.112 55.959 62.112C 57.687 62.112 58.455 62.976 58.455 64.872L 58.455 72.504L 61.359 72.504L 61.359 64.608C 61.359 61.152 59.583 59.688 57.063 59.688C 54.999 59.688 53.607 60.72 53.007 61.944L 53.007 59.952L 50.103 59.952L 50.103 72.504ZM 70.2246 72.744C 73.4406 72.744 75.5766 71.304 75.9846 68.664L 73.1766 68.664C 72.9606 69.888 72.0486 70.584 70.2966 70.584C 68.1366 70.584 66.9366 69.24 66.8406 66.864L 76.0326 66.864L 76.0326 66.024C 76.0326 61.536 73.2246 59.688 70.1046 59.688C 66.5286 59.688 63.8646 62.28 63.8646 66.168L 63.8646 66.36C 63.8646 70.32 66.5286 72.744 70.2246 72.744ZM 66.8886 64.92C 67.1766 62.976 68.3526 61.8 70.1046 61.8C 71.9046 61.8 73.0086 62.76 73.1526 64.92L 66.8886 64.92ZM 83.0396 72.744C 86.2556 72.744 88.0556 71.28 88.0556 68.736C 88.0556 66.072 86.3036 65.352 83.3516 64.896C 81.3596 64.56 80.7596 64.2 80.7596 63.288C 80.7596 62.4 81.5036 61.8 82.7516 61.8C 84.0956 61.8 84.7436 62.328 84.9836 63.48L 87.6716 63.48C 87.3596 60.648 85.3196 59.688 82.7516 59.688C 80.3996 59.688 78.0476 60.936 78.0476 63.456C 78.0476 65.808 79.2716 66.744 82.5836 67.272C 84.4316 67.584 85.2716 67.968 85.2716 69C 85.2716 70.056 84.5756 70.608 83.0156 70.608C 81.3116 70.608 80.6636 69.864 80.5196 68.592L 77.7836 68.592C 77.9036 71.256 79.7996 72.744 83.0396 72.744ZM 94.899 72.744C 98.115 72.744 99.915 71.28 99.915 68.736C 99.915 66.072 98.163 65.352 95.211 64.896C 93.219 64.56 92.619 64.2 92.619 63.288C 92.619 62.4 93.363 61.8 94.611 61.8C 95.955 61.8 96.603 62.328 96.843 63.48L 99.531 63.48C 99.219 60.648 97.179 59.688 94.611 59.688C 92.259 59.688 89.907 60.936 89.907 63.456C 89.907 65.808 91.131 66.744 94.443 67.272C 96.291 67.584 97.131 67.968 97.131 69C 97.131 70.056 96.435 70.608 94.875 70.608C 93.171 70.608 92.523 69.864 92.379 68.592L 89.643 68.592C 89.763 71.256 91.659 72.744 94.899 72.744ZM 107.982 72.744C 111.198 72.744 113.334 71.304 113.742 68.664L 110.934 68.664C 110.718 69.888 109.806 70.584 108.054 70.584C 105.894 70.584 104.694 69.24 104.598 66.864L 113.79 66.864L 113.79 66.024C 113.79 61.536 110.982 59.688 107.862 59.688C 104.286 59.688 101.622 62.28 101.622 66.168L 101.622 66.36C 101.622 70.32 104.286 72.744 107.982 72.744ZM 104.646 64.92C 104.934 62.976 106.11 61.8 107.862 61.8C 109.662 61.8 110.766 62.76 110.91 64.92L 104.646 64.92ZM 120.797 72.744C 124.013 72.744 125.813 71.28 125.813 68.736C 125.813 66.072 124.061 65.352 121.109 64.896C 119.117 64.56 118.517 64.2 118.517 63.288C 118.517 62.4 119.261 61.8 120.509 61.8C 121.853 61.8 122.501 62.328 122.741 63.48L 125.429 63.48C 125.117 60.648 123.077 59.688 120.509 59.688C 118.157 59.688 115.805 60.936 115.805 63.456C 115.805 65.808 117.029 66.744 120.341 67.272C 122.189 67.584 123.029 67.968 123.029 69C 123.029 70.056 122.333 70.608 120.773 70.608C 119.069 70.608 118.421 69.864 118.277 68.592L 115.541 68.592C 115.661 71.256 117.557 72.744 120.797 72.744Z"/>
<path id="path4_stroke" d="M 0 2.5L 208 2.5L 208 -2.5L 0 -2.5L 0 2.5ZM 0 12.5L 208 12.5L 208 7.5L 0 7.5L 0 12.5ZM 0 22.5L 208 22.5L 208 17.5L 0 17.5L 0 22.5ZM 0 32.5L 208 32.5L 208 27.5L 0 27.5L 0 32.5ZM 0 42.5L 208 42.5L 208 37.5L 0 37.5L 0 42.5ZM 0 52.5L 208 52.5L 208 47.5L 0 47.5L 0 52.5Z"/>
</defs>
</svg>
