<svg width="320" height="128" viewBox="0 0 320 128" version="1.1" xmlns="http://www.w3.org/2000/svg" xmlns:xlink="http://www.w3.org/1999/xlink" xmlns:figma="http://www.figma.com/figma/ns">
<title>marketplace</title>
<desc>Created using Figma</desc>
<g id="Canvas" transform="translate(-255 45)" figma:type="canvas">
<mask id="mask0_alpha" mask-type="alpha">
<path d="M 255 -45L 575 -45L 575 83L 255 83L 255 -45Z" fill="#FFFFFF"/>
</mask>
<g id="marketplace" style="mix-blend-mode:normal;" mask="url(#mask0_alpha)" figma:type="frame">
<g id="logo_icon" style="mix-blend-mode:normal;" figma:type="frame">
<g id="Group" style="mix-blend-mode:normal;isolation:isolate;" figma:type="frame">
<g id="Group" style="mix-blend-mode:normal;isolation:isolate;" figma:type="frame">
<g id="Vector" style="mix-blend-mode:normal;isolation:isolate;" figma:type="vector">
<use xlink:href="#path0_fill" transform="translate(408 11)" fill="#3BB75E" style="mix-blend-mode:normal;"/>
</g>
<g id="Vector" style="mix-blend-mode:normal;isolation:isolate;" figma:type="vector">
<use xlink:href="#path1_fill" transform="translate(408 19.5072)" fill="#3BB75E" style="mix-blend-mode:normal;"/>
</g>
<g id="Vector" style="mix-blend-mode:normal;isolation:isolate;" figma:type="vector">
<use xlink:href="#path2_fill" transform="translate(408 23.76)" fill="#3BB75E" style="mix-blend-mode:normal;"/>
</g>
<g id="Vector" style="mix-blend-mode:normal;isolation:isolate;" figma:type="vector">
<use xlink:href="#path3_fill" transform="translate(408 15.2533)" fill="#3BB75E" style="mix-blend-mode:normal;"/>
</g>
</g>
<g id="Vector" style="mix-blend-mode:normal;isolation:isolate;" figma:type="vector">
<use xlink:href="#path0_fill" transform="translate(408 11)" fill="#3BB75E" style="mix-blend-mode:normal;"/>
</g>
</g>
</g>
<g id="Ellipse 3" style="mix-blend-mode:normal;" figma:type="ellipse">
<mask id="mask1_outline_ins">
<use xlink:href="#path4_fill" fill="white" transform="translate(391 -5)"/>
</mask>
<g mask="url(#mask1_outline_ins)">
<use xlink:href="#path5_stroke_2x" transform="translate(391 -5)" fill="#3BB75E" style="mix-blend-mode:normal;"/>
</g>
</g>
<g id="noun_631511_cc" style="mix-blend-mode:normal;" figma:type="frame">
<g id="Vector" style="mix-blend-mode:normal;" figma:type="vector">
<use xlink:href="#path6_fill" transform="translate(255.866 6)" fill="#3BB75E" style="mix-blend-mode:normal;"/>
<use xlink:href="#path7_stroke" transform="translate(255.866 6)" fill="#3BB75E" style="mix-blend-mode:normal;"/>
</g>
</g>
<g id="noun_101409_cc" style="mix-blend-mode:normal;" figma:type="frame">
<g id="Subtract" style="mix-blend-mode:normal;" figma:type="vector-operation">
<use xlink:href="#path8_fill" transform="translate(551.086 -45)" fill="#3BB75E" style="mix-blend-mode:normal;"/>
<use xlink:href="#path9_stroke" transform="translate(551.086 -45)" fill="#3BB75E" style="mix-blend-mode:normal;"/>
</g>
</g>
<g id="noun_101409_cc" style="mix-blend-mode:normal;" figma:type="frame">
<g id="Subtract" style="mix-blend-mode:normal;" figma:type="vector-operation">
<use xlink:href="#path8_fill" transform="translate(551.086 8)" fill="#3BB75E" style="mix-blend-mode:normal;"/>
<use xlink:href="#path9_stroke" transform="translate(551.086 8)" fill="#3BB75E" style="mix-blend-mode:normal;"/>
</g>
</g>
<g id="noun_101409_cc" style="mix-blend-mode:normal;" figma:type="frame">
<g id="Subtract" style="mix-blend-mode:normal;" figma:type="vector-operation">
<use xlink:href="#path10_fill" transform="translate(551.086 61)" fill="#3BB75E" style="mix-blend-mode:normal;"/>
<use xlink:href="#path11_stroke" transform="translate(551.086 61)" fill="#3BB75E" style="mix-blend-mode:normal;"/>
</g>
</g>
<g id="Line 5" style="mix-blend-mode:normal;" figma:type="line">
<use xlink:href="#path12_stroke" transform="translate(306 19)" fill="#3BB75E" style="mix-blend-mode:normal;"/>
</g>
<g id="Line 5" style="mix-blend-mode:normal;" figma:type="line">
<use xlink:href="#path13_stroke" transform="translate(447.566 19)" fill="#3BB75E" style="mix-blend-mode:normal;"/>
</g>
<g id="Vector 3" style="mix-blend-mode:normal;" figma:type="vector">
<use xlink:href="#path14_stroke" transform="translate(447 -35)" fill="#3BB75E" style="mix-blend-mode:normal;"/>
</g>
<g id="Vector 3" style="mix-blend-mode:normal;" figma:type="vector">
<use xlink:href="#path14_stroke" transform="matrix(1 0 0 -1 447 73)" fill="#3BB75E" style="mix-blend-mode:normal;"/>
</g>
</g>
</g>
<defs>
<path id="path0_fill" d="M 14.3163 0L 0.842133 0C 0.377067 0 0 0.384 0 0.8576L 0 2.38213C 0 2.85573 0.377067 3.24 0.842133 3.24L 14.3163 3.24C 14.7811 3.24 15.1581 2.85573 15.1581 2.38213L 15.1581 0.8576C 15.1581 0.384 14.7811 0 14.3163 0Z"/>
<path id="path1_fill" d="M 14.3163 0L 0.842133 0C 0.377067 0 0 0.383467 0 0.857334L 0 2.38267C 0 2.85547 0.377067 3.23947 0.842133 3.23947L 14.3163 3.23947C 14.7811 3.23947 15.1581 2.85547 15.1581 2.38267L 15.1581 0.857334C 15.1581 0.383467 14.7811 0 14.3163 0Z"/>
<path id="path2_fill" d="M 8.42133 0L 0.842133 0C 0.377067 0 0 0.384 0 0.857867L 0 2.3824C 0 2.856 0.377067 3.24 0.842133 3.24L 8.42133 3.24C 8.8864 3.24 9.2632 2.856 9.2632 2.3824L 9.2632 0.857867C 9.2632 0.384 8.88667 0 8.42133 0Z"/>
<path id="path3_fill" d="M 15.1581 0L 0.842133 0C 0.377067 0 0 0.384 0 0.857333L 0 2.38267C 0 2.85573 0.377067 3.24 0.842133 3.24L 15.1581 3.24C 15.6235 3.24 16 2.85573 16 2.38267L 16 0.857333C 16 0.384 15.6235 0 15.1581 0Z"/>
<path id="path4_fill" d="M 48 24C 48 37.2548 37.2548 48 24 48C 10.7452 48 0 37.2548 0 24C 0 10.7452 10.7452 0 24 0C 37.2548 0 48 10.7452 48 24Z"/>
<path id="path5_stroke_2x" d="M 46 24C 46 36.1503 36.1503 46 24 46L 24 50C 38.3594 50 50 38.3594 50 24L 46 24ZM 24 46C 11.8497 46 2 36.1503 2 24L -2 24C -2 38.3594 9.6406 50 24 50L 24 46ZM 2 24C 2 11.8497 11.8497 2 24 2L 24 -2C 9.6406 -2 -2 9.6406 -2 24L 2 24ZM 24 2C 36.1503 2 46 11.8497 46 24L 50 24C 50 9.6406 38.3594 -2 24 -2L 24 2Z"/>
<path id="path6_fill" d="M 10.1144 23.5142C 10.2392 21.3341 11.1726 18.9646 12.6225 17.1479C 12.9802 16.6997 13.9148 15.7563 14.3383 15.4159C 14.5035 15.2832 14.6386 15.1582 14.6386 15.1382C 14.6386 15.0644 13.6435 14.6059 13.0604 14.4111C 12.0504 14.0736 11.2685 13.946 10.2115 13.946C 9.15178 13.946 8.37297 14.0735 7.35488 14.4136C 4.50589 15.3655 2.31898 17.7312 1.578 20.6629C 1.47167 21.0836 1.36986 21.7034 1.31306 22.2758L 1.28325 22.5762L 0.641627 22.5762L 4.44944e-08 22.5762L 4.44944e-08 22.3337C 4.44944e-08 22.0334 0.114167 21.1468 0.206549 20.7297C 0.647455 18.7387 1.64727 16.9467 3.0999 15.5438C 4.67129 14.0262 6.53288 13.1057 8.73376 12.7579C 9.43131 12.6477 11.0361 12.6477 11.7337 12.7579C 13.2188 12.9926 14.5618 13.4964 15.7987 14.283C 15.908 14.3525 15.9218 14.3504 16.1023 14.2364C 16.3144 14.1025 16.8113 13.8688 17.3007 13.6726C 19.8802 12.6389 22.7253 12.5566 25.3173 13.4406C 25.8976 13.6385 26.8242 14.0395 27.117 14.2194C 27.3276 14.3489 27.342 14.3516 27.4507 14.2824C 28.6855 13.4969 30.0302 12.9925 31.5149 12.7579C 32.2124 12.6477 33.8172 12.6477 34.5148 12.7579C 36.7156 13.1057 38.5772 14.0262 40.1486 15.5438C 41.6013 16.9467 42.6011 18.7387 43.042 20.7297C 43.1344 21.1468 43.2485 22.0334 43.2485 22.3337L 43.2485 22.5762L 42.5846 22.5762L 41.9208 22.5762L 41.891 22.2758C 41.8342 21.7034 41.7324 21.0836 41.626 20.6629C 40.8851 17.7312 38.6981 15.3655 35.8492 14.4136C 35.514 14.3017 35.0946 14.1791 34.9171 14.1412C 33.6962 13.8807 32.289 13.8807 31.068 14.1412C 30.5303 14.2559 29.5712 14.5974 29.044 14.8618L 28.5462 15.1115L 28.6782 15.2223C 30.1439 16.453 31.0163 17.4879 31.8015 18.9276C 32.5296 20.2628 33.0507 22.0561 33.1341 23.5142L 33.1619 24L 32.4025 24L 31.6431 24L 31.6135 23.6552C 31.4552 21.8123 30.9027 20.2011 29.9238 18.7274C 29.3615 17.8808 28.683 17.1464 27.7867 16.4143C 27.6399 16.2943 27.4297 16.1127 27.3195 16.0107C 27.0944 15.802 26.4317 15.403 26.1488 15.3056C 26.0463 15.2704 25.729 15.1509 25.4436 15.0402C 24.6979 14.7507 23.9888 14.5447 23.3318 14.4265C 22.8293 14.3362 22.6167 14.3235 21.602 14.3235C 20.2954 14.3235 19.749 14.3932 18.7998 14.681C 17.3674 15.1152 16.5364 15.5014 15.8458 16.0537C 14.3119 17.2804 13.4634 18.2542 12.7453 19.6125C 12.0728 20.8843 11.7344 22.0736 11.5888 23.6774L 11.5595 24L 10.8231 24L 10.0866 24L 10.1144 23.5142ZM 9.58854 11.1355C 8.54702 11.0054 7.48234 10.4786 6.71985 9.7161C 4.7811 7.77733 4.7811 4.62716 6.71985 2.6884C 8.65861 0.749644 11.8088 0.749644 13.7476 2.6884C 15.6863 4.62716 15.6863 7.77733 13.7476 9.7161C 12.6578 10.8058 11.1283 11.3278 9.58854 11.1355ZM 11.2126 9.76318C 12.222 9.47472 13.0349 8.80347 13.5044 7.8708C 13.7917 7.29987 13.8898 6.88102 13.8898 6.2245C 13.8898 5.568 13.7917 5.14914 13.5044 4.57821C 13.0309 3.63767 12.223 2.97455 11.1903 2.67895C 10.8983 2.59536 10.7264 2.57704 10.2337 2.57704C 9.55026 2.57704 9.15968 2.66304 8.60966 2.93462C 7.66692 3.40009 6.93551 4.30489 6.66955 5.33462C 6.54165 5.82984 6.5419 6.621 6.67012 7.11439C 7.02802 8.49157 8.09218 9.50916 9.50506 9.82526C 9.93318 9.92105 10.7662 9.89076 11.2126 9.76318L 11.2126 9.76318ZM 21.1348 11.1603C 21.0736 11.1496 20.8734 11.1189 20.6899 11.0921C 20.2122 11.0223 19.5794 10.8107 19.0714 10.5509C 17.7512 9.87587 16.7398 8.6808 16.2946 7.27012C 16.1026 6.66188 16.0428 6.26039 16.0428 5.57934C 16.0428 4.89828 16.1026 4.4968 16.2946 3.88855C 16.9177 1.91392 18.6286 0.422534 20.6899 0.0570647C 21.119 -0.0190206 22.1295 -0.0190206 22.5586 0.0570647C 24.6199 0.422534 26.3308 1.91392 26.954 3.88855C 27.1459 4.4968 27.2057 4.89828 27.2057 5.57934C 27.2057 6.26039 27.1459 6.66188 26.954 7.27012C 26.3418 9.20997 24.6769 10.6904 22.6735 11.0763C 22.3173 11.1449 21.3491 11.1978 21.1348 11.1603ZM 22.4604 9.64676C 23.2153 9.49151 23.8554 9.15724 24.4263 8.62013C 25.0368 8.04585 25.4122 7.42489 25.6172 6.65029C 25.7729 6.06192 25.7808 5.20866 25.6361 4.62537C 25.1761 2.77117 23.5345 1.48702 21.6243 1.48702C 20.5559 1.48702 19.6037 1.85645 18.8389 2.56776C 18.2197 3.14362 17.8092 3.83232 17.6124 4.62537C 17.4677 5.20866 17.4757 6.06192 17.6314 6.65029C 17.8366 7.42595 18.2117 8.04577 18.8246 8.6224C 19.3858 9.15028 20.0273 9.48705 20.7789 9.64821C 21.1802 9.73426 22.0386 9.73354 22.4604 9.64676ZM 32.3697 11.1354C 31.3281 11.0054 30.2635 10.4786 29.501 9.7161C 27.5622 7.77733 27.5622 4.62715 29.501 2.68838C 31.4397 0.749627 34.5899 0.749627 36.5287 2.68838C 38.4674 4.62715 38.4674 7.77733 36.5287 9.7161C 35.4389 10.8058 33.9095 11.3278 32.3697 11.1354ZM 33.9937 9.76318C 35.0031 9.47472 35.816 8.80345 36.2855 7.87078C 36.5728 7.29985 36.6709 6.881 36.6709 6.22449C 36.6709 5.56798 36.5728 5.14913 36.2855 4.5782C 35.8121 3.63765 35.0041 2.97454 33.9715 2.67893C 33.6795 2.59534 33.5076 2.57704 33.0148 2.57704C 32.3314 2.57704 31.9408 2.66303 31.3908 2.9346C 30.448 3.40008 29.7166 4.30487 29.4507 5.3346C 29.3228 5.82982 29.323 6.62098 29.4512 7.11437C 29.8091 8.49156 30.8733 9.50914 32.2862 9.82525C 32.7143 9.92103 33.5473 9.89076 33.9937 9.76318Z"/>
<path id="path7_stroke" d="M 12.6225 17.1479L 13.0133 17.4598L 13.0133 17.4598L 12.6225 17.1479ZM 14.3383 15.4159L 14.6515 15.8057L 14.6515 15.8057L 14.3383 15.4159ZM 13.0604 14.4111L 13.2189 13.9369L 13.2189 13.9369L 13.0604 14.4111ZM 7.35488 14.4136L 7.19644 13.9394L 7.19644 13.9394L 7.35488 14.4136ZM 1.578 20.6629L 1.09324 20.5404L 1.578 20.6629ZM 1.31306 22.2758L 0.815499 22.2265L 0.815499 22.2265L 1.31306 22.2758ZM 1.28325 22.5762L 1.28325 23.0762L 1.7361 23.0762L 1.78081 22.6256L 1.28325 22.5762ZM 4.44944e-08 22.5762L -0.5 22.5762L -0.5 23.0762L 4.44944e-08 23.0762L 4.44944e-08 22.5762ZM 0.206549 20.7297L 0.694721 20.8378L 0.694721 20.8378L 0.206549 20.7297ZM 3.0999 15.5438L 2.75256 15.1842L 2.75256 15.1842L 3.0999 15.5438ZM 8.73376 12.7579L 8.65572 12.264L 8.65572 12.264L 8.73376 12.7579ZM 11.7337 12.7579L 11.6556 13.2517L 11.7337 12.7579ZM 15.7987 14.283L 16.0671 13.8611L 16.067 13.8611L 15.7987 14.283ZM 16.1023 14.2364L 16.3692 14.6592L 16.3692 14.6592L 16.1023 14.2364ZM 17.3007 13.6726L 17.1147 13.2085L 17.1147 13.2085L 17.3007 13.6726ZM 25.3173 13.4406L 25.1559 13.9138L 25.1559 13.9138L 25.3173 13.4406ZM 27.117 14.2194L 26.8552 14.6454L 26.8552 14.6454L 27.117 14.2194ZM 27.4507 14.2824L 27.1823 13.8606L 27.1823 13.8606L 27.4507 14.2824ZM 31.5149 12.7579L 31.4368 12.264L 31.5149 12.7579ZM 34.5148 12.7579L 34.5928 12.264L 34.5148 12.7579ZM 40.1486 15.5438L 40.496 15.1842L 40.1486 15.5438ZM 43.042 20.7297L 42.5538 20.8378L 42.5538 20.8378L 43.042 20.7297ZM 43.2485 22.5762L 43.2485 23.0762L 43.7485 23.0762L 43.7485 22.5762L 43.2485 22.5762ZM 41.9208 22.5762L 41.4232 22.6256L 41.4679 23.0762L 41.9208 23.0762L 41.9208 22.5762ZM 41.891 22.2758L 42.3885 22.2265L 41.891 22.2758ZM 41.626 20.6629L 41.1413 20.7854L 41.1413 20.7854L 41.626 20.6629ZM 35.8492 14.4136L 36.0076 13.9394L 36.0076 13.9394L 35.8492 14.4136ZM 34.9171 14.1412L 35.0215 13.6522L 35.0215 13.6522L 34.9171 14.1412ZM 31.068 14.1412L 30.9637 13.6522L 31.068 14.1412ZM 29.044 14.8618L 28.8199 14.4149L 28.8199 14.4149L 29.044 14.8618ZM 28.5462 15.1115L 28.3221 14.6645L 27.6423 15.0055L 28.2247 15.4944L 28.5462 15.1115ZM 28.6782 15.2223L 28.9997 14.8393L 28.9996 14.8393L 28.6782 15.2223ZM 31.8015 18.9276L 31.3625 19.167L 31.8015 18.9276ZM 33.1341 23.5142L 32.6349 23.5427L 32.6349 23.5427L 33.1341 23.5142ZM 33.1619 24L 33.1619 24.5L 33.6913 24.5L 33.6611 23.9714L 33.1619 24ZM 31.6431 24L 31.1449 24.0428L 31.1842 24.5L 31.6431 24.5L 31.6431 24ZM 31.6135 23.6552L 31.1153 23.698L 31.1153 23.698L 31.6135 23.6552ZM 29.9238 18.7274L 29.5073 19.0041L 29.5073 19.0041L 29.9238 18.7274ZM 27.7867 16.4143L 28.1031 16.0271L 27.7867 16.4143ZM 27.3195 16.0107L 26.9797 16.3774L 27.3195 16.0107ZM 26.1488 15.3056L 25.9861 15.7784L 25.9861 15.7784L 26.1488 15.3056ZM 25.4436 15.0402L 25.6246 14.574L 25.6246 14.574L 25.4436 15.0402ZM 23.3318 14.4265L 23.4203 13.9344L 23.4203 13.9344L 23.3318 14.4265ZM 18.7998 14.681L 18.6547 14.2025L 18.6547 14.2025L 18.7998 14.681ZM 15.8458 16.0537L 15.5335 15.6632L 15.5335 15.6632L 15.8458 16.0537ZM 12.7453 19.6125L 13.1873 19.8462L 12.7453 19.6125ZM 11.5888 23.6774L 12.0867 23.7226L 12.0867 23.7226L 11.5888 23.6774ZM 11.5595 24L 11.5595 24.5L 12.0162 24.5L 12.0575 24.0452L 11.5595 24ZM 10.0866 24L 9.58744 23.9714L 9.5572 24.5L 10.0866 24.5L 10.0866 24ZM 9.58854 11.1355L 9.65051 10.6393L 9.65051 10.6393L 9.58854 11.1355ZM 6.71985 9.7161L 6.3663 10.0696L 6.3663 10.0696L 6.71985 9.7161ZM 6.71985 2.6884L 6.3663 2.33485L 6.3663 2.33485L 6.71985 2.6884ZM 13.7476 2.6884L 14.1011 2.33485L 14.1011 2.33485L 13.7476 2.6884ZM 13.7476 9.7161L 14.1011 10.0696L 14.1011 10.0696L 13.7476 9.7161ZM 11.2126 9.76318L 11.0752 9.28242L 11.2126 10.2632L 11.2126 9.76318ZM 13.5044 7.8708L 13.0577 7.646L 13.0577 7.646L 13.5044 7.8708ZM 13.5044 4.57821L 13.0577 4.80301L 13.5044 4.57821ZM 11.1903 2.67895L 11.0527 3.15964L 11.0527 3.15964L 11.1903 2.67895ZM 8.60966 2.93462L 8.3883 2.48629L 8.3883 2.48629L 8.60966 2.93462ZM 6.66955 5.33462L 7.15367 5.45965L 6.66955 5.33462ZM 6.67012 7.11439L 7.15405 6.98863L 7.15405 6.98863L 6.67012 7.11439ZM 9.50506 9.82526L 9.61422 9.33733L 9.50506 9.82526ZM 11.2126 9.76318L 11.35 10.2439L 11.2126 9.26318L 11.2126 9.76318ZM 20.6899 11.0921L 20.7622 10.5973L 20.6899 11.0921ZM 19.0714 10.5509L 19.299 10.1058L 19.0714 10.5509ZM 16.2946 7.27012L 16.7714 7.11964L 16.7714 7.11964L 16.2946 7.27012ZM 16.2946 3.88855L 15.8177 3.73807L 15.8177 3.73807L 16.2946 3.88855ZM 20.6899 0.0570647L 20.7772 0.549386L 20.7772 0.549386L 20.6899 0.0570647ZM 22.5586 0.0570647L 22.6459 -0.435257L 22.6459 -0.435257L 22.5586 0.0570647ZM 26.954 3.88855L 26.4771 4.03903L 26.4771 4.03903L 26.954 3.88855ZM 26.954 7.27012L 26.4771 7.11964L 26.4771 7.11964L 26.954 7.27012ZM 22.6735 11.0763L 22.579 10.5853L 22.579 10.5853L 22.6735 11.0763ZM 24.4263 8.62013L 24.7689 8.98431L 24.4263 8.62013ZM 25.6172 6.65029L 26.1005 6.77821L 26.1005 6.77821L 25.6172 6.65029ZM 25.6361 4.62537L 25.1508 4.74578L 25.1508 4.74578L 25.6361 4.62537ZM 18.8389 2.56776L 18.4984 2.20163L 18.4984 2.20163L 18.8389 2.56776ZM 17.6124 4.62537L 18.0977 4.74578L 18.0977 4.74577L 17.6124 4.62537ZM 17.6314 6.65029L 17.148 6.77821L 17.148 6.77821L 17.6314 6.65029ZM 18.8246 8.6224L 18.482 8.98658L 18.482 8.98658L 18.8246 8.6224ZM 20.7789 9.64821L 20.8837 9.15932L 20.8837 9.15932L 20.7789 9.64821ZM 29.501 9.7161L 29.8545 9.36254L 29.501 9.7161ZM 36.5287 2.68838L 36.1751 3.04194L 36.5287 2.68838ZM 33.9937 9.76318L 34.1311 10.2439L 33.9937 9.76318ZM 36.2855 7.87078L 35.8389 7.64598L 35.8389 7.64598L 36.2855 7.87078ZM 36.2855 4.5782L 36.7321 4.3534L 36.7321 4.3534L 36.2855 4.5782ZM 33.9715 2.67893L 33.8338 3.15962L 33.8339 3.15962L 33.9715 2.67893ZM 31.3908 2.9346L 31.1694 2.48627L 31.1694 2.48627L 31.3908 2.9346ZM 29.4507 5.3346L 29.9348 5.45964L 29.4507 5.3346ZM 29.4512 7.11437L 29.9352 6.98861L 29.9352 6.98861L 29.4512 7.11437ZM 32.2862 9.82525L 32.3953 9.33731L 32.3953 9.33731L 32.2862 9.82525ZM 10.6136 23.5427C 10.7275 21.4413 11.6054 19.2149 13.0133 17.4598L 12.2317 16.836C 10.7398 18.7142 9.7508 21.2268 9.61524 23.4856L 10.6136 23.5427ZM 13.0133 17.4598C 13.3537 17.032 14.2495 16.1277 14.6515 15.8057L 14.0251 15.0262C 13.58 15.3849 12.6067 16.3673 12.2317 16.836L 13.0133 17.4598ZM 14.6515 15.8057C 14.7404 15.7342 14.8286 15.6585 14.8899 15.6019C 14.9225 15.5717 14.959 15.5357 14.9832 15.5096C 14.9981 15.4932 15.0231 15.4631 15.0385 15.4423C 15.0492 15.427 15.0714 15.3912 15.0837 15.368C 15.0942 15.3471 15.1386 15.2595 15.1386 15.1382L 14.1386 15.1382C 14.1386 15.0719 14.152 15.0198 14.1614 14.99C 14.1714 14.9584 14.1827 14.9339 14.1905 14.9183C 14.2057 14.8882 14.2204 14.8671 14.2265 14.8586C 14.2339 14.8484 14.2397 14.8414 14.2422 14.8383C 14.245 14.835 14.2467 14.8331 14.2467 14.8331C 14.2492 14.8303 14.2438 14.8363 14.2368 14.8432C 14.2289 14.8509 14.2221 14.8574 14.211 14.8677C 14.1669 14.9084 14.101 14.9652 14.0251 15.0262L 14.6515 15.8057ZM 15.1386 15.1382C 15.1386 15.0021 15.0847 14.905 15.0597 14.865C 15.0388 14.8338 15.0006 14.7869 14.9816 14.7672C 14.954 14.7406 14.9096 14.7042 14.8828 14.6851C 14.8394 14.6549 14.7747 14.6157 14.7153 14.5829C 14.6029 14.5211 14.4442 14.4428 14.2774 14.3659C 13.9468 14.2137 13.5269 14.0401 13.2189 13.9369L 12.902 14.8853C 13.177 14.9769 13.5463 15.13 13.859 15.2741C 14.0138 15.3455 14.1404 15.4078 14.2328 15.4588C 14.2758 15.4824 14.2934 15.4927 14.3067 15.5024C 14.3114 15.5058 14.2954 15.4953 14.2731 15.4729C 14.2621 15.4619 14.237 15.4356 14.2119 15.3953C 14.1907 15.3615 14.1386 15.2697 14.1386 15.1382L 15.1386 15.1382ZM 13.2189 13.9369C 12.1703 13.5882 11.3089 13.4476 10.2115 13.446L 10.2115 14.446C 11.2281 14.4444 11.9305 14.5591 12.902 14.8853L 13.2189 13.9369ZM 10.2115 13.446C 9.11126 13.4477 8.25298 13.5881 7.19644 13.9394L 7.51332 14.8879C 8.49296 14.5589 9.1923 14.4444 10.2115 14.446L 10.2115 13.446ZM 7.19644 13.9394C 4.18455 14.9457 1.87563 17.4449 1.09324 20.5404L 2.06275 20.7854C 2.76233 18.0176 4.82724 15.7853 7.51332 14.8879L 7.19644 13.9394ZM 1.09324 20.5404C 0.982159 20.9817 0.874131 21.6382 0.815499 22.2265L 1.81061 22.3252C 1.86558 21.7687 1.96118 21.1855 2.06275 20.7854L 1.09324 20.5404ZM 0.815499 22.2265L 0.785697 22.5268L 1.78081 22.6256L 1.81061 22.3252L 0.815499 22.2265ZM 1.28325 22.0762L 0.641627 22.0762L 0.641627 23.0762L 1.28325 23.0762L 1.28325 22.0762ZM 0.641627 22.0762L 4.44944e-08 22.0762L 4.44944e-08 23.0762L 0.641627 23.0762L 0.641627 22.0762ZM 0.5 22.5762L 0.5 22.3337L -0.5 22.3337L -0.5 22.5762L 0.5 22.5762ZM 0.5 22.3337C 0.5 22.0815 0.607192 21.233 0.694721 20.8378L -0.281623 20.6216C -0.378858 21.0606 -0.5 21.9854 -0.5 22.3337L 0.5 22.3337ZM 0.694721 20.8378C 1.1148 18.9165 2.04353 17.2517 3.44725 15.9035L 2.75256 15.1842C 1.251 16.6418 0.180113 18.561 -0.281623 20.6216L 0.694721 20.8378ZM 3.44725 15.9035C 4.9592 14.435 6.68444 13.5821 8.8118 13.2517L 8.65572 12.264C 6.38131 12.6292 4.38338 13.6174 2.75256 15.1842L 3.44725 15.9035ZM 8.8118 13.2517C 9.45764 13.1497 11.0098 13.1497 11.6556 13.2517L 11.8117 12.264C 11.0624 12.1456 9.40497 12.1456 8.65572 12.264L 8.8118 13.2517ZM 11.6556 13.2517C 13.0913 13.476 14.3387 13.9439 15.5304 14.7049L 16.067 13.8611C 14.785 13.049 13.3463 12.5091 11.8117 12.264L 11.6556 13.2517ZM 15.5304 14.7049C 15.5594 14.7233 15.7469 14.8615 15.9996 14.8227C 16.0748 14.808 16.1761 14.7703 16.2294 14.7427C 16.2719 14.7198 16.3223 14.6889 16.3692 14.6592L 15.8354 13.8136C 15.7876 13.8438 15.7683 13.8553 15.7588 13.8604C 15.7474 13.8664 15.7845 13.844 15.848 13.8343C 15.8837 13.8288 15.9226 13.8279 15.9626 13.8334C 16.0016 13.8387 16.0324 13.8487 16.0527 13.8568C 16.0829 13.8689 16.0991 13.8814 16.0671 13.8611L 15.5304 14.7049ZM 16.3692 14.6592C 16.5406 14.5511 17.0018 14.3311 17.4867 14.1368L 17.1147 13.2085C 16.6209 13.4064 16.0882 13.654 15.8354 13.8136L 16.3692 14.6592ZM 17.4867 14.1368C 19.982 13.1284 22.6507 13.051 25.1559 13.9138L 25.4787 12.9674C 22.8 12.0622 19.7783 12.1494 17.1147 13.2085L 17.4867 14.1368ZM 25.1559 13.9138C 25.7239 14.1076 26.6095 14.4944 26.8552 14.6454L 27.3787 13.7934C 27.039 13.5846 26.0714 13.1695 25.4787 12.9674L 25.1559 13.9138ZM 26.8552 14.6454C 26.9206 14.6857 27.0722 14.7871 27.2293 14.8167C 27.4902 14.866 27.68 14.7291 27.719 14.7043L 27.1823 13.8606C 27.171 13.8677 27.1673 13.8697 27.169 13.8689C 27.1708 13.8679 27.1849 13.86 27.2072 13.8516C 27.2313 13.8426 27.2647 13.8332 27.3052 13.8293C 27.3462 13.8254 27.3835 13.8282 27.4148 13.8341C 27.4685 13.8442 27.4971 13.8626 27.4775 13.8522C 27.4609 13.8434 27.4338 13.8273 27.3787 13.7934L 26.8552 14.6454ZM 27.719 14.7043C 28.9087 13.9443 30.1577 13.476 31.5929 13.2517L 31.4368 12.264C 29.9027 12.509 28.4624 13.0495 27.1823 13.8606L 27.719 14.7043ZM 31.5929 13.2517C 32.2388 13.1497 33.7909 13.1497 34.4367 13.2517L 34.5928 12.264C 33.8435 12.1456 32.1861 12.1456 31.4368 12.264L 31.5929 13.2517ZM 34.4367 13.2517C 36.5641 13.5821 38.2893 14.435 39.8013 15.9035L 40.496 15.1842C 38.8651 13.6174 36.8672 12.6292 34.5928 12.264L 34.4367 13.2517ZM 39.8013 15.9035C 41.205 17.2517 42.1337 18.9165 42.5538 20.8378L 43.5301 20.6216C 43.0684 18.561 41.9975 16.6418 40.496 15.1842L 39.8013 15.9035ZM 42.5538 20.8378C 42.6413 21.233 42.7485 22.0815 42.7485 22.3337L 43.7485 22.3337C 43.7485 21.9854 43.6274 21.0606 43.5301 20.6216L 42.5538 20.8378ZM 42.7485 22.3337L 42.7485 22.5762L 43.7485 22.5762L 43.7485 22.3337L 42.7485 22.3337ZM 43.2485 22.0762L 42.5846 22.0762L 42.5846 23.0762L 43.2485 23.0762L 43.2485 22.0762ZM 42.5846 22.0762L 41.9208 22.0762L 41.9208 23.0762L 42.5846 23.0762L 42.5846 22.0762ZM 42.4183 22.5268L 42.3885 22.2265L 41.3934 22.3252L 41.4232 22.6256L 42.4183 22.5268ZM 42.3885 22.2265C 42.3299 21.6382 42.2219 20.9817 42.1108 20.5404L 41.1413 20.7854C 41.2429 21.1855 41.3384 21.7687 41.3934 22.3252L 42.3885 22.2265ZM 42.1108 20.5404C 41.3284 17.4449 39.0195 14.9457 36.0076 13.9394L 35.6907 14.8879C 38.3768 15.7853 40.4417 18.0176 41.1413 20.7854L 42.1108 20.5404ZM 36.0076 13.9394C 35.6634 13.8245 35.217 13.6943 35.0215 13.6522L 34.8127 14.6302C 34.9722 14.6639 35.3646 14.7788 35.6907 14.8879L 36.0076 13.9394ZM 35.0215 13.6522C 33.7486 13.3834 32.2365 13.3834 30.9637 13.6522L 31.1724 14.6302C 32.3415 14.3779 33.6437 14.3779 34.8128 14.6302L 35.0215 13.6522ZM 30.9637 13.6522C 30.394 13.7749 29.3749 14.1376 28.8199 14.4149L 29.2682 15.3088C 29.7675 15.0573 30.6667 14.737 31.1724 14.6302L 30.9637 13.6522ZM 28.8199 14.4149L 28.3221 14.6645L 28.7704 15.5584L 29.2682 15.3088L 28.8199 14.4149ZM 28.2247 15.4944L 28.3567 15.6052L 28.9996 14.8393L 28.8677 14.7285L 28.2247 15.4944ZM 28.3566 15.6052C 29.7907 16.8068 30.6036 17.7701 31.3625 19.167L 32.2404 18.6882C 31.429 17.2056 30.4971 16.0991 28.9997 14.8393L 28.3566 15.6052ZM 31.3625 19.167C 32.0674 20.4533 32.5579 22.1407 32.6349 23.5427L 33.6333 23.4856C 33.5435 21.9715 32.9919 20.0722 32.2404 18.6882L 31.3625 19.167ZM 32.6349 23.5427L 32.6627 24.0286L 33.6611 23.9714L 33.6333 23.4856L 32.6349 23.5427ZM 33.1619 23.5L 32.4025 23.5L 32.4025 24.5L 33.1619 24.5L 33.1619 23.5ZM 32.4025 23.5L 31.6431 23.5L 31.6431 24.5L 32.4025 24.5L 32.4025 23.5ZM 32.1413 23.9572L 32.1116 23.6124L 31.1153 23.698L 31.1449 24.0428L 32.1413 23.9572ZM 32.1116 23.6124C 31.9444 21.7091 31.3511 19.9799 30.3403 18.4508L 29.5073 19.0041C 30.4543 20.4223 30.9659 21.9156 31.1153 23.698L 32.1116 23.6124ZM 30.3403 18.4508C 29.7546 17.5719 29.0256 16.7823 28.1031 16.0271L 27.4704 16.8015C 28.3403 17.5106 28.9683 18.1898 29.5073 19.0041L 30.3403 18.4508ZM 28.1031 16.0271C 27.9615 15.9115 27.7631 15.7401 27.6594 15.6439L 26.9797 16.3774C 27.0962 16.4853 27.3183 16.6772 27.4704 16.8015L 28.1031 16.0271ZM 27.6594 15.6439C 27.519 15.5156 27.2553 15.3338 27.0138 15.1881C 26.7813 15.0481 26.5064 14.8999 26.3114 14.8328L 25.9861 15.7784C 26.0741 15.8087 26.272 15.9087 26.4979 16.0447C 26.7147 16.1751 26.895 16.2971 26.9797 16.3774L 27.6594 15.6439ZM 26.3114 14.8328C 26.2157 14.8 25.9075 14.6839 25.6246 14.574L 25.2627 15.5063C 25.5504 15.618 25.8769 15.7408 25.9861 15.7784L 26.3114 14.8328ZM 25.6246 14.574C 24.8583 14.2771 24.103 14.0579 23.4203 13.9344L 23.2433 14.9186C 23.8747 15.0315 24.5375 15.2243 25.2627 15.5063L 25.6246 14.574ZM 23.4203 13.9344C 22.8885 13.8397 22.6316 13.8237 21.602 13.8235L 21.602 14.8235C 22.6019 14.8233 22.7701 14.8327 23.2433 14.9186L 23.4203 13.9344ZM 21.602 13.8235C 20.2637 13.8245 19.6444 13.9043 18.6547 14.2025L 18.9448 15.1595C 19.8535 14.8822 20.3271 14.8225 21.602 14.8235L 21.602 13.8235ZM 18.6547 14.2025C 17.1978 14.6441 16.2966 15.0529 15.5335 15.6632L 16.1581 16.4441C 16.7762 15.9498 17.537 15.5862 18.9448 15.1594L 18.6547 14.2025ZM 15.5335 15.6632C 13.9658 16.9195 13.0512 17.9713 12.3033 19.3788L 13.1873 19.8462C 13.8757 18.5372 14.6579 17.6413 16.1581 16.4441L 15.5335 15.6632ZM 12.3033 19.3788C 11.6088 20.698 11.2429 21.9822 11.0908 23.6322L 12.0867 23.7226C 12.226 22.165 12.5368 21.0706 13.1873 19.8462L 12.3033 19.3788ZM 11.0908 23.6322L 11.0616 23.9548L 12.0575 24.0452L 12.0867 23.7226L 11.0908 23.6322ZM 11.5595 23.5L 10.8231 23.5L 10.8231 24.5L 11.5595 24.5L 11.5595 23.5ZM 10.8231 23.5L 10.0866 23.5L 10.0866 24.5L 10.8231 24.5L 10.8231 23.5ZM 10.5858 24.0286L 10.6136 23.5427L 9.61524 23.4856L 9.58744 23.9714L 10.5858 24.0286ZM 9.65051 10.6393C 8.69089 10.5265 7.77385 10.0723 7.07341 9.36254L 6.3663 10.0696C 7.19083 10.8848 8.40314 11.4842 9.52656 11.6316L 9.65051 10.6393ZM 7.07341 9.36254C 5.32991 7.61904 5.32991 4.78545 7.07341 3.04196L 6.3663 2.33485C 4.23228 4.46887 4.23228 7.93563 6.3663 10.0696L 7.07341 9.36254ZM 7.07341 3.04196C 8.81691 1.29846 11.6505 1.29846 13.394 3.04196L 14.1011 2.33485C 11.9671 0.200828 8.50032 0.200828 6.3663 2.33485L 7.07341 3.04196ZM 13.394 3.04196C 15.1375 4.78545 15.1375 7.61904 13.394 9.36254L 14.1011 10.0696C 16.2351 7.93562 16.2351 4.46887 14.1011 2.33485L 13.394 3.04196ZM 13.394 9.36254C 12.4142 10.3423 11.0385 10.8127 9.65051 10.6393L 9.52656 11.6316C 11.2182 11.8429 12.9014 11.2694 14.1011 10.0696L 13.394 9.36254ZM 11.35 10.2439C 12.4928 9.91733 13.4183 9.1538 13.951 8.0956L 13.0577 7.646C 12.6515 8.45313 11.9511 9.03211 11.0752 9.28242L 11.35 10.2439ZM 13.951 8.0956C 14.2617 7.47045 14.3865 6.93839 14.3898 6.2245L 13.3898 6.2245C 13.3931 6.82365 13.3217 7.12929 13.0577 7.646L 13.951 8.0956ZM 14.3898 6.2245C 14.3865 5.51063 14.2617 4.97856 13.951 4.35341L 13.0577 4.80301C 13.3217 5.31972 13.3931 5.62537 13.3898 6.2245L 14.3898 6.2245ZM 13.951 4.35341C 13.4134 3.28535 12.4918 2.5314 11.3279 2.19825L 11.0527 3.15964C 11.9543 3.41771 12.6485 3.98999 13.0577 4.80301L 13.951 4.35341ZM 11.3279 2.19825C 10.994 2.1046 10.753 2.07775 10.2337 2.07704L 10.2337 3.07704C 10.6999 3.07634 10.8027 3.08613 11.0527 3.15964L 11.3279 2.19825ZM 10.2337 2.07704C 9.49619 2.07998 8.99403 2.19128 8.3883 2.48629L 8.83102 3.38294C 9.32533 3.13481 9.60434 3.07411 10.2337 3.07704L 10.2337 2.07704ZM 8.3883 2.48629C 7.31339 3.01703 6.4873 4.04087 6.18544 5.20958L 7.15367 5.45965C 7.38373 4.56891 8.02046 3.78316 8.83102 3.38294L 8.3883 2.48629ZM 6.18544 5.20958C 6.03636 5.78677 6.03653 6.66425 6.1862 7.24015L 7.15405 6.98863C 7.04727 6.57775 7.04693 5.8729 7.15367 5.45965L 6.18544 5.20958ZM 6.1862 7.24015C 6.59228 8.80275 7.80413 9.95708 9.39589 10.3132L 9.61422 9.33733C 8.38022 9.06124 7.46376 8.1804 7.15405 6.98863L 6.1862 7.24015ZM 9.39589 10.3132C 9.91029 10.4283 10.8281 10.3931 11.35 10.2439L 11.0752 9.28242C 10.7042 9.38844 9.95608 9.41381 9.61422 9.33733L 9.39589 10.3132ZM 11.2126 9.26318L 11.2126 9.26318L 11.2126 10.2632L 11.2126 10.2632L 11.2126 9.26318ZM 21.221 10.6678C 21.1546 10.6562 20.9475 10.6244 20.7622 10.5973L 20.6176 11.5868C 20.7994 11.6134 20.9927 11.643 21.0487 11.6528L 21.221 10.6678ZM 20.7622 10.5973C 20.3281 10.5359 19.773 10.3497 19.299 10.1058L 18.8437 10.9961C 19.3858 11.2717 20.0963 11.5087 20.6176 11.5868L 20.7622 10.5973ZM 19.299 10.1058C 18.0977 9.49146 17.1762 8.40237 16.7714 7.11964L 15.8177 7.4206C 16.3033 8.95924 17.4048 10.2603 18.8437 10.9961L 19.299 10.1058ZM 16.7714 7.11964C 16.5898 6.54948 16.5415 6.22347 16.5428 5.57934L 15.5428 5.57934C 15.5442 6.2973 15.6154 6.77429 15.8177 7.4206L 16.7714 7.11964ZM 16.5428 5.57934C 16.5415 4.9352 16.5898 4.6092 16.7714 4.03903L 15.8177 3.73807C 15.6154 4.38439 15.5442 4.86137 15.5428 5.57934L 16.5428 5.57934ZM 16.7714 4.03903C 17.3377 2.24446 18.8967 0.882796 20.7772 0.549386L 20.6026 -0.435257C 18.3605 -0.0377277 16.4978 1.58338 15.8177 3.73807L 16.7714 4.03903ZM 20.7772 0.549386C 21.1486 0.483539 22.1 0.483539 22.4714 0.549386L 22.6459 -0.435257C 22.1591 -0.52158 21.0895 -0.52158 20.6026 -0.435257L 20.7772 0.549386ZM 22.4714 0.549386C 24.3518 0.882796 25.9108 2.24446 26.4771 4.03903L 27.4308 3.73807C 26.7508 1.58338 24.888 -0.0377277 22.6459 -0.435257L 22.4714 0.549386ZM 26.4771 4.03903C 26.6587 4.6092 26.7071 4.9352 26.7057 5.57934L 27.7057 5.57934C 27.7043 4.86137 27.6331 4.38439 27.4308 3.73807L 26.4771 4.03903ZM 26.7057 5.57934C 26.7071 6.22347 26.6587 6.54947 26.4771 7.11964L 27.4308 7.4206C 27.6331 6.77429 27.7043 6.29731 27.7057 5.57934L 26.7057 5.57934ZM 26.4771 7.11964C 25.9204 8.88378 24.4027 10.234 22.579 10.5853L 22.7681 11.5673C 24.951 11.1468 26.7631 9.53616 27.4308 7.4206L 26.4771 7.11964ZM 22.579 10.5853C 22.4252 10.6156 22.1278 10.6423 21.8237 10.6588C 21.672 10.6672 21.5319 10.672 21.4126 10.6727C 21.2968 10.6735 21.2012 10.6631 21.221 10.6678L 21.0486 11.6528C 21.1527 11.671 21.2964 11.6734 21.4185 11.6726C 21.5521 11.6718 21.7165 11.6662 21.8782 11.6574C 22.2008 11.6397 22.5656 11.6057 22.7681 11.5673L 22.579 10.5853ZM 22.5611 10.1365C 23.383 9.96254 24.1451 9.56474 24.7689 8.98431L 24.0837 8.25594C 23.5656 8.74974 23.0476 9.02047 22.3597 9.15702L 22.5611 10.1365ZM 24.7689 8.98431C 25.4256 8.36018 25.8725 7.62016 26.1005 6.77821L 25.1338 6.52238C 24.9519 7.22962 24.6479 7.73152 24.0837 8.25595L 24.7689 8.98431ZM 26.1005 6.77821C 26.2684 6.12874 26.2774 5.15034 26.1214 4.50496L 25.1508 4.74578C 25.2843 5.26699 25.2773 5.9951 25.1338 6.52238L 26.1005 6.77821ZM 26.1214 4.50496C 25.606 2.4278 23.7643 0.98702 21.6243 0.98702L 21.6243 1.98702C 23.3047 1.98702 24.7461 3.11455 25.1508 4.74578L 26.1214 4.50496ZM 21.6243 0.98702C 20.4639 0.995557 19.3383 1.43273 18.4984 2.20163L 19.1794 2.9339C 19.8692 2.28018 20.6479 1.97848 21.6243 1.98702L 21.6243 0.98702ZM 18.4984 2.20163C 17.8308 2.82939 17.3468 3.64205 17.1271 4.50496L 18.0977 4.74577C 18.2716 4.02258 18.6086 3.45786 19.1794 2.9339L 18.4984 2.20163ZM 17.1271 4.50496C 16.9711 5.15034 16.9802 6.12874 17.148 6.77821L 18.1147 6.52238C 17.9712 5.9951 17.9643 5.26699 18.0977 4.74578L 17.1271 4.50496ZM 17.148 6.77821C 17.3764 7.62132 17.8229 8.36018 18.482 8.98658L 19.1672 8.25822C 18.6005 7.73136 18.2969 7.23059 18.1147 6.52238L 17.148 6.77821ZM 18.482 8.98658C 19.0956 9.55748 19.8572 9.95719 20.674 10.1371L 20.8837 9.15932C 20.1975 9.0169 19.6759 8.74309 19.1672 8.25822L 18.482 8.98658ZM 20.674 10.1371C 21.1464 10.2384 22.0749 10.2365 22.5612 10.1365L 22.3597 9.15702C 22.0023 9.23054 21.214 9.23014 20.8837 9.15932L 20.674 10.1371ZM 32.4316 10.6393C 31.472 10.5265 30.555 10.0723 29.8545 9.36254L 29.1474 10.0696C 29.972 10.8848 31.1843 11.4842 32.3077 11.6316L 32.4316 10.6393ZM 29.8545 9.36254C 28.111 7.61904 28.111 4.78544 29.8545 3.04194L 29.1474 2.33483C 27.0134 4.46885 27.0134 7.93563 29.1474 10.0696L 29.8545 9.36254ZM 29.8545 3.04194C 31.598 1.29844 34.4316 1.29844 36.1751 3.04194L 36.8822 2.33483C 34.7482 0.200811 31.2814 0.200811 29.1474 2.33483L 29.8545 3.04194ZM 36.1751 3.04194C 37.9186 4.78544 37.9186 7.61904 36.1751 9.36254L 36.8822 10.0696C 39.0162 7.93563 39.0162 4.46885 36.8822 2.33483L 36.1751 3.04194ZM 36.1751 9.36254C 35.1954 10.3423 33.8196 10.8127 32.4316 10.6393L 32.3077 11.6316C 33.9993 11.8429 35.6825 11.2694 36.8822 10.0696L 36.1751 9.36254ZM 34.1311 10.2439C 35.274 9.91733 36.1994 9.15378 36.7321 8.09558L 35.8389 7.64598C 35.4326 8.45312 34.7322 9.03211 33.8563 9.28242L 34.1311 10.2439ZM 36.7321 8.09558C 37.0429 7.47043 37.1676 6.93837 37.1709 6.22449L 36.1709 6.22449C 36.1742 6.82363 36.1028 7.12927 35.8389 7.64598L 36.7321 8.09558ZM 37.1709 6.22449C 37.1676 5.51061 37.0429 4.97855 36.7321 4.3534L 35.8389 4.803C 36.1028 5.31971 36.1742 5.62535 36.1709 6.22449L 37.1709 6.22449ZM 36.7321 4.3534C 36.1945 3.28533 35.2729 2.53138 34.109 2.19824L 33.8339 3.15962C 34.7354 3.41769 35.4296 3.98997 35.8389 4.803L 36.7321 4.3534ZM 34.1091 2.19824C 33.7751 2.10457 33.5341 2.07775 33.0148 2.07704L 33.0148 3.07704C 33.4811 3.07634 33.5838 3.08612 33.8338 3.15962L 34.1091 2.19824ZM 33.0148 2.07704C 32.2773 2.07998 31.7752 2.19126 31.1694 2.48627L 31.6121 3.38293C 32.1064 3.13479 32.3854 3.07411 33.0148 3.07704L 33.0148 2.07704ZM 31.1694 2.48627C 30.0945 3.01701 29.2684 4.04085 28.9666 5.20956L 29.9348 5.45964C 30.1648 4.56889 30.8016 3.78315 31.6121 3.38293L 31.1694 2.48627ZM 28.9666 5.20956C 28.8175 5.78675 28.8176 6.66423 28.9673 7.24014L 29.9352 6.98861C 29.8284 6.57773 29.8281 5.87288 29.9348 5.45964L 28.9666 5.20956ZM 28.9673 7.24013C 29.3734 8.80273 30.5852 9.95706 32.177 10.3132L 32.3953 9.33731C 31.1613 9.06123 30.2449 8.18038 29.9352 6.98861L 28.9673 7.24013ZM 32.177 10.3132C 32.6914 10.4283 33.6092 10.3931 34.1311 10.2439L 33.8563 9.28242C 33.4853 9.38844 32.7372 9.41379 32.3953 9.33731L 32.177 10.3132Z"/>
<path id="path8_fill" fill-rule="evenodd" d="M 17.1447 6.76923C 17.1447 9.01538 15.8524 11.4462 13.8524 12.6769C 18.1561 13.8227 21.4193 17.5068 21.9818 22L 20.7296 22C 20.0616 17.2283 15.9285 13.5385 10.9908 13.5385C 6.05322 13.5385 1.92004 17.2283 1.2522 22L 0 22C 0.5625 17.5068 3.82562 13.8227 8.12933 12.6769C 6.12933 11.4462 4.83704 9.01538 4.83704 6.76923C 4.83704 3.56923 7.45239 0 10.9908 0C 14.5293 0 17.1447 3.56923 17.1447 6.76923ZM 10.9908 1.23077C 8.68317 1.23077 6.06781 3.6 6.06781 6.76923C 6.06781 9.93846 8.68317 12.3077 10.9908 12.3077C 13.2986 12.3077 15.9139 9.93846 15.9139 6.76923C 15.9139 3.6 13.2986 1.23077 10.9908 1.23077Z"/>
<path id="path9_stroke" d="M 13.8524 12.6769L 13.5904 12.2511L 12.5996 12.8608L 13.7238 13.1601L 13.8524 12.6769ZM 21.9818 22L 21.9818 22.5L 22.5482 22.5L 22.4779 21.9379L 21.9818 22ZM 20.7296 22L 20.2344 22.0693L 20.2947 22.5L 20.7296 22.5L 20.7296 22ZM 1.2522 22L 1.2522 22.5L 1.68709 22.5L 1.74737 22.0693L 1.2522 22ZM 0 22L -0.496127 21.9379L -0.566497 22.5L 0 22.5L 0 22ZM 8.12933 12.6769L 8.25797 13.1601L 9.38215 12.8608L 8.39138 12.2511L 8.12933 12.6769ZM 14.1145 13.1028C 16.2668 11.7783 17.6447 9.18373 17.6447 6.76923L 16.6447 6.76923C 16.6447 8.84703 15.4381 11.1141 13.5904 12.2511L 14.1145 13.1028ZM 22.4779 21.9379C 21.8899 17.2411 18.4802 13.3916 13.9811 12.1938L 13.7238 13.1601C 17.832 14.2539 20.9486 17.7724 21.4856 22.0621L 22.4779 21.9379ZM 20.7296 22.5L 21.9818 22.5L 21.9818 21.5L 20.7296 21.5L 20.7296 22.5ZM 10.9908 14.0385C 15.6761 14.0385 19.6006 17.5415 20.2344 22.0693L 21.2247 21.9307C 20.5227 16.9151 16.181 13.0385 10.9908 13.0385L 10.9908 14.0385ZM 1.74737 22.0693C 2.38108 17.5415 6.30569 14.0385 10.9908 14.0385L 10.9908 13.0385C 5.80076 13.0385 1.459 16.9151 0.757024 21.9307L 1.74737 22.0693ZM 0 22.5L 1.2522 22.5L 1.2522 21.5L 0 21.5L 0 22.5ZM 8.0007 12.1938C 3.50152 13.3916 0.091848 17.2411 -0.496127 21.9379L 0.496127 22.0621C 1.03315 17.7724 4.14972 14.2539 8.25797 13.1601L 8.0007 12.1938ZM 4.33704 6.76923C 4.33704 9.18373 5.71497 11.7783 7.86729 13.1028L 8.39138 12.2511C 6.5437 11.1141 5.33704 8.84703 5.33704 6.76923L 4.33704 6.76923ZM 10.9908 -0.5C 9.0439 -0.5 7.3749 0.482764 6.20571 1.86119C 5.03949 3.23611 4.33704 5.04101 4.33704 6.76923L 5.33704 6.76923C 5.33704 5.29745 5.94226 3.71774 6.96833 2.50804C 7.99143 1.30185 9.39934 0.5 10.9908 0.5L 10.9908 -0.5ZM 17.6447 6.76923C 17.6447 5.041 16.9422 3.2361 15.776 1.86118C 14.6068 0.482763 12.9378 -0.5 10.9908 -0.5L 10.9908 0.5C 12.5823 0.5 13.9903 1.30185 15.0134 2.50804C 16.0395 3.71774 16.6447 5.29746 16.6447 6.76923L 17.6447 6.76923ZM 6.56781 6.76923C 6.56781 3.85334 8.98157 1.73077 10.9908 1.73077L 10.9908 0.73077C 8.38476 0.73077 5.56781 3.34666 5.56781 6.76923L 6.56781 6.76923ZM 10.9908 11.8077C 8.98158 11.8077 6.56781 9.68512 6.56781 6.76923L 5.56781 6.76923C 5.56781 10.1918 8.38476 12.8077 10.9908 12.8077L 10.9908 11.8077ZM 15.4139 6.76923C 15.4139 9.68512 13.0002 11.8077 10.9908 11.8077L 10.9908 12.8077C 13.597 12.8077 16.4139 10.1918 16.4139 6.76923L 15.4139 6.76923ZM 10.9908 1.73077C 13.0002 1.73077 15.4139 3.85334 15.4139 6.76923L 16.4139 6.76923C 16.4139 3.34666 13.597 0.73077 10.9908 0.73077L 10.9908 1.73077Z"/>
<path id="path10_fill" fill-rule="evenodd" d="M 17.1447 6.76923C 17.1447 9.01538 15.8524 11.4462 13.8524 12.6769C 18.1561 13.8227 21.4193 17.5068 21.9818 22L 20.7296 22C 20.0616 17.2283 15.9285 13.5385 10.9908 13.5385C 6.05322 13.5385 1.92004 17.2283 1.2522 22L 0 22C 0.5625 17.5068 3.82562 13.8227 8.12933 12.6769C 6.12933 11.4462 4.83704 9.01538 4.83704 6.76923C 4.83704 3.56923 7.45239 0 10.9908 0C 14.5293 0 17.1447 3.56923 17.1447 6.76923ZM 10.9908 1.23077C 8.68317 1.23077 6.06781 3.6 6.06781 6.76923C 6.06781 9.93846 8.68317 12.3077 10.9908 12.3077C 13.2986 12.3077 15.9139 9.93846 15.9139 6.76923C 15.9139 3.6 13.2986 1.23077 10.9908 1.23077Z"/>
<path id="path11_stroke" d="M 13.8524 12.6769L 13.5904 12.2511L 12.5996 12.8608L 13.7238 13.1601L 13.8524 12.6769ZM 21.9818 22L 21.9818 22.5L 22.5482 22.5L 22.4779 21.9379L 21.9818 22ZM 20.7296 22L 20.2344 22.0693L 20.2947 22.5L 20.7296 22.5L 20.7296 22ZM 1.2522 22L 1.2522 22.5L 1.68709 22.5L 1.74737 22.0693L 1.2522 22ZM 0 22L -0.496127 21.9379L -0.566497 22.5L 0 22.5L 0 22ZM 8.12933 12.6769L 8.25797 13.1601L 9.38215 12.8608L 8.39138 12.2511L 8.12933 12.6769ZM 14.1145 13.1028C 16.2668 11.7783 17.6447 9.18374 17.6447 6.76923L 16.6447 6.76923C 16.6447 8.84703 15.4381 11.1141 13.5904 12.2511L 14.1145 13.1028ZM 22.4779 21.9379C 21.8899 17.2411 18.4802 13.3916 13.9811 12.1938L 13.7238 13.1601C 17.832 14.2539 20.9486 17.7724 21.4856 22.0621L 22.4779 21.9379ZM 20.7296 22.5L 21.9818 22.5L 21.9818 21.5L 20.7296 21.5L 20.7296 22.5ZM 10.9908 14.0385C 15.6761 14.0385 19.6006 17.5415 20.2344 22.0693L 21.2247 21.9307C 20.5227 16.9151 16.181 13.0385 10.9908 13.0385L 10.9908 14.0385ZM 1.74737 22.0693C 2.38108 17.5415 6.30569 14.0385 10.9908 14.0385L 10.9908 13.0385C 5.80076 13.0385 1.459 16.9151 0.757024 21.9307L 1.74737 22.0693ZM 0 22.5L 1.2522 22.5L 1.2522 21.5L 0 21.5L 0 22.5ZM 8.0007 12.1938C 3.50152 13.3916 0.091848 17.2411 -0.496127 21.9379L 0.496127 22.0621C 1.03315 17.7724 4.14972 14.2539 8.25797 13.1601L 8.0007 12.1938ZM 4.33704 6.76923C 4.33704 9.18374 5.71497 11.7783 7.86728 13.1028L 8.39138 12.2511C 6.5437 11.1141 5.33704 8.84703 5.33704 6.76923L 4.33704 6.76923ZM 10.9908 -0.5C 9.0439 -0.5 7.3749 0.482764 6.20571 1.86119C 5.03949 3.23611 4.33704 5.04101 4.33704 6.76923L 5.33704 6.76923C 5.33704 5.29745 5.94226 3.71774 6.96833 2.50804C 7.99143 1.30185 9.39934 0.5 10.9908 0.5L 10.9908 -0.5ZM 17.6447 6.76923C 17.6447 5.04101 16.9422 3.23611 15.776 1.86119C 14.6068 0.482763 12.9378 -0.5 10.9908 -0.5L 10.9908 0.5C 12.5823 0.5 13.9903 1.30185 15.0134 2.50805C 16.0395 3.71774 16.6447 5.29746 16.6447 6.76923L 17.6447 6.76923ZM 6.56781 6.76923C 6.56781 3.85334 8.98158 1.73077 10.9908 1.73077L 10.9908 0.730769C 8.38476 0.730769 5.56781 3.34666 5.56781 6.76923L 6.56781 6.76923ZM 10.9908 11.8077C 8.98158 11.8077 6.56781 9.68512 6.56781 6.76923L 5.56781 6.76923C 5.56781 10.1918 8.38476 12.8077 10.9908 12.8077L 10.9908 11.8077ZM 15.4139 6.76923C 15.4139 9.68512 13.0002 11.8077 10.9908 11.8077L 10.9908 12.8077C 13.597 12.8077 16.4139 10.1918 16.4139 6.76923L 15.4139 6.76923ZM 10.9908 1.73077C 13.0002 1.73077 15.4139 3.85334 15.4139 6.76923L 16.4139 6.76923C 16.4139 3.34666 13.597 0.730769 10.9908 0.730769L 10.9908 1.73077Z"/>
<path id="path12_stroke" d="M 1 -2C 0.447715 -2 0 -1.55228 0 -1C 0 -0.447715 0.447715 0 1 0L 1 -2ZM 77 0C 77.5523 0 78 -0.447715 78 -1C 78 -1.55228 77.5523 -2 77 -2L 77 0ZM 1 0L 77 0L 77 -2L 1 -2L 1 0Z"/>
<path id="path13_stroke" d="M 1 -2C 0.447715 -2 0 -1.55228 0 -1C 0 -0.447715 0.447715 0 1 0L 1 -2ZM 79.4336 0C 79.9859 0 80.4336 -0.447715 80.4336 -1C 80.4336 -1.55228 79.9859 -2 79.4336 -2L 79.4336 0ZM 1.98042 0C 2.5327 0 2.98042 -0.447715 2.98042 -1C 2.98042 -1.55228 2.5327 -2 1.98042 -2L 1.98042 0ZM 7.86294 -2C 7.31065 -2 6.86294 -1.55228 6.86294 -1C 6.86294 -0.447715 7.31065 0 7.86294 0L 7.86294 -2ZM 9.82378 0C 10.3761 0 10.8238 -0.447715 10.8238 -1C 10.8238 -1.55228 10.3761 -2 9.82378 -2L 9.82378 0ZM 15.7063 -2C 15.154 -2 14.7063 -1.55228 14.7063 -1C 14.7063 -0.447715 15.154 0 15.7063 0L 15.7063 -2ZM 17.6671 0C 18.2194 0 18.6671 -0.447715 18.6671 -1C 18.6671 -1.55228 18.2194 -2 17.6671 -2L 17.6671 0ZM 23.5497 -2C 22.9974 -2 22.5497 -1.55228 22.5497 -1C 22.5497 -0.447715 22.9974 0 23.5497 0L 23.5497 -2ZM 25.5105 0C 26.0628 0 26.5105 -0.447715 26.5105 -1C 26.5105 -1.55228 26.0628 -2 25.5105 -2L 25.5105 0ZM 31.393 -2C 30.8407 -2 30.393 -1.55228 30.393 -1C 30.393 -0.447715 30.8407 0 31.393 0L 31.393 -2ZM 33.3538 0C 33.9061 0 34.3538 -0.447715 34.3538 -1C 34.3538 -1.55228 33.9061 -2 33.3538 -2L 33.3538 0ZM 39.2364 -2C 38.6841 -2 38.2364 -1.55228 38.2364 -1C 38.2364 -0.447715 38.6841 0 39.2364 0L 39.2364 -2ZM 41.1972 0C 41.7495 0 42.1972 -0.447715 42.1972 -1C 42.1972 -1.55228 41.7495 -2 41.1972 -2L 41.1972 0ZM 47.0797 -2C 46.5274 -2 46.0797 -1.55228 46.0797 -1C 46.0797 -0.447715 46.5274 0 47.0797 0L 47.0797 -2ZM 49.0406 0C 49.5928 0 50.0406 -0.447715 50.0406 -1C 50.0406 -1.55228 49.5928 -2 49.0406 -2L 49.0406 0ZM 54.9231 -2C 54.3708 -2 53.9231 -1.55228 53.9231 -1C 53.9231 -0.447715 54.3708 0 54.9231 0L 54.9231 -2ZM 56.8839 0C 57.4362 0 57.8839 -0.447715 57.8839 -1C 57.8839 -1.55228 57.4362 -2 56.8839 -2L 56.8839 0ZM 62.7664 -2C 62.2142 -2 61.7664 -1.55228 61.7664 -1C 61.7664 -0.447715 62.2142 0 62.7664 0L 62.7664 -2ZM 64.7273 0C 65.2796 0 65.7273 -0.447715 65.7273 -1C 65.7273 -1.55228 65.2796 -2 64.7273 -2L 64.7273 0ZM 70.6098 -2C 70.0575 -2 69.6098 -1.55228 69.6098 -1C 69.6098 -0.447715 70.0575 0 70.6098 0L 70.6098 -2ZM 72.5706 0C 73.1229 0 73.5706 -0.447715 73.5706 -1C 73.5706 -1.55228 73.1229 -2 72.5706 -2L 72.5706 0ZM 78.4531 -2C 77.9009 -2 77.4531 -1.55228 77.4531 -1C 77.4531 -0.447715 77.9009 0 78.4531 0L 78.4531 -2ZM 1 -1.11022e-16L 1.98042 -1.11022e-16L 1.98042 -2L 1 -2L 1 -1.11022e-16ZM 7.86294 -1.11022e-16L 9.82378 -1.11022e-16L 9.82378 -2L 7.86294 -2L 7.86294 -1.11022e-16ZM 15.7063 -1.11022e-16L 17.6671 -1.11022e-16L 17.6671 -2L 15.7063 -2L 15.7063 -1.11022e-16ZM 23.5497 -1.11022e-16L 25.5105 -1.11022e-16L 25.5105 -2L 23.5497 -2L 23.5497 -1.11022e-16ZM 31.393 -1.11022e-16L 33.3538 -1.11022e-16L 33.3538 -2L 31.393 -2L 31.393 -1.11022e-16ZM 39.2364 -1.11022e-16L 41.1972 -1.11022e-16L 41.1972 -2L 39.2364 -2L 39.2364 -1.11022e-16ZM 47.0797 -1.11022e-16L 49.0406 -1.11022e-16L 49.0406 -2L 47.0797 -2L 47.0797 -1.11022e-16ZM 54.9231 -1.11022e-16L 56.8839 -1.11022e-16L 56.8839 -2L 54.9231 -2L 54.9231 -1.11022e-16ZM 62.7664 -1.11022e-16L 64.7273 -1.11022e-16L 64.7273 -2L 62.7664 -2L 62.7664 -1.11022e-16ZM 70.6098 -1.11022e-16L 72.5706 -1.11022e-16L 72.5706 -2L 70.6098 -2L 70.6098 -1.11022e-16ZM 78.4531 -1.11022e-16L 79.4336 -1.11022e-16L 79.4336 -2L 78.4531 -2L 78.4531 -1.11022e-16Z"/>
<path id="path14_stroke" d="M -0.727154 29.3135C -1.10628 29.7151 -1.08807 30.348 -0.686474 30.7272C -0.284878 31.1063 0.348025 31.0881 0.727154 30.6865L -0.727154 29.3135ZM 77.6014 1C 78.1537 1 78.6014 0.552285 78.6014 0C 78.6014 -0.552285 78.1537 -1 77.6014 -1L 77.6014 1ZM 1.41117 29.9762C 1.79807 29.5821 1.79223 28.949 1.39811 28.5621C 1.004 28.1752 0.370864 28.181 -0.0160393 28.5751L 1.41117 29.9762ZM 3.7483 25.0408C 3.33217 25.4039 3.28921 26.0356 3.65234 26.4517C 4.01547 26.8679 4.64717 26.9108 5.0633 26.5477L 3.7483 25.0408ZM 6.58782 25.2514C 7.013 24.8989 7.07194 24.2685 6.71947 23.8433C 6.36699 23.4181 5.73658 23.3592 5.31139 23.7117L 6.58782 25.2514ZM 9.3586 20.5507C 8.91401 20.8784 8.81923 21.5044 9.14689 21.949C 9.47455 22.3936 10.1006 22.4884 10.5452 22.1607L 9.3586 20.5507ZM 12.1757 20.9856C 12.6271 20.6674 12.7351 20.0435 12.417 19.5921C 12.0988 19.1407 11.4749 19.0327 11.0235 19.3508L 12.1757 20.9856ZM 15.2963 16.4995C 14.8294 16.7944 14.69 17.4121 14.985 17.879C 15.2799 18.3459 15.8976 18.4853 16.3645 18.1903L 15.2963 16.4995ZM 18.0726 17.1343C 18.5452 16.8484 18.6965 16.2336 18.4107 15.7611C 18.1248 15.2885 17.51 15.1372 17.0375 15.423L 18.0726 17.1343ZM 21.4872 12.8745C 21.0016 13.1376 20.8212 13.7445 21.0843 14.2301C 21.3473 14.7157 21.9543 14.8961 22.4399 14.633L 21.4872 12.8745ZM 24.2145 13.6929C 24.7049 13.4389 24.8966 12.8354 24.6426 12.345C 24.3886 11.8546 23.7852 11.6629 23.2947 11.9169L 24.2145 13.6929ZM 27.898 9.66598C 27.3964 9.89714 27.1772 10.4911 27.4083 10.9927C 27.6395 11.4943 28.2335 11.7135 28.7351 11.4824L 27.898 9.66598ZM 30.5723 10.6559C 31.078 10.4339 31.3081 9.84401 31.0861 9.3383C 30.8641 8.83259 30.2742 8.60257 29.7685 8.82455L 30.5723 10.6559ZM 34.5105 6.87002C 33.9952 7.0689 33.7388 7.6478 33.9377 8.16303C 34.1365 8.67827 34.7154 8.93472 35.2307 8.73584L 34.5105 6.87002ZM 37.1126 8.02874C 37.6313 7.83913 37.8981 7.26491 37.7084 6.7462C 37.5188 6.22748 36.9446 5.9607 36.4259 6.15032L 37.1126 8.02874ZM 41.2738 4.49983C 40.7472 4.66615 40.4551 5.22791 40.6214 5.75455C 40.7877 6.2812 41.3494 6.5733 41.8761 6.40699L 41.2738 4.49983ZM 43.807 5.81602C 44.3365 5.65909 44.6386 5.10261 44.4817 4.57309C 44.3247 4.04357 43.7682 3.74153 43.2387 3.89846L 43.807 5.81602ZM 48.1771 2.55249C 47.6412 2.68598 47.315 3.22864 47.4485 3.76455C 47.582 4.30046 48.1246 4.62668 48.6605 4.49319L 48.1771 2.55249ZM 50.6192 4.02347C 51.1574 3.89937 51.493 3.3625 51.3689 2.82434C 51.2448 2.28618 50.708 1.95051 50.1698 2.07461L 50.6192 4.02347ZM 55.1874 1.03193C 54.6444 1.13256 54.2857 1.65435 54.3864 2.19739C 54.487 2.74043 55.0088 3.09908 55.5518 2.99846L 55.1874 1.03193ZM 57.532 2.64911C 58.0767 2.55782 58.4442 2.04227 58.353 1.49758C 58.2617 0.95289 57.7461 0.585332 57.2014 0.676616L 57.532 2.64911ZM 62.2744 -0.0624687C 61.7263 0.00551198 61.3371 0.504932 61.4051 1.05302C 61.4731 1.6011 61.9725 1.9903 62.5206 1.92232L 62.2744 -0.0624687ZM 64.5168 1.69177C 65.0659 1.63301 65.4635 1.1402 65.4047 0.591054C 65.346 0.0419039 64.8532 -0.355638 64.304 -0.296881L 64.5168 1.69177ZM 69.4102 -0.735529C 68.859 -0.699697 68.4413 -0.223877 68.4771 0.327244C 68.513 0.878365 68.9888 1.29609 69.5399 1.26026L 69.4102 -0.735529ZM 71.5475 1.14627C 72.0992 1.11948 72.5246 0.650567 72.4978 0.098933C 72.4711 -0.452702 72.0021 -0.87817 71.4505 -0.851377L 71.5475 1.14627ZM 76.5694 -0.995851C 76.0172 -0.991406 75.5731 -0.540102 75.5775 0.012165C 75.582 0.564432 76.0333 1.00853 76.5855 1.00408L 76.5694 -0.995851ZM 0.727154 30.6865C 0.946608 30.454 1.17237 30.2195 1.41117 29.9762L -0.0160393 28.5751C -0.261703 28.8254 -0.501013 29.074 -0.727154 29.3135L 0.727154 30.6865ZM 5.0633 26.5477C 5.5515 26.1216 6.05651 25.6918 6.58782 25.2514L 5.31139 23.7117C 4.77013 24.1604 4.24584 24.6066 3.7483 25.0408L 5.0633 26.5477ZM 10.5452 22.1607C 11.0751 21.7701 11.6158 21.3802 12.1757 20.9856L 11.0235 19.3508C 10.4548 19.7517 9.89692 20.154 9.3586 20.5507L 10.5452 22.1607ZM 16.3645 18.1903C 16.9237 17.837 17.4903 17.4865 18.0726 17.1343L 17.0375 15.423C 16.4467 15.7804 15.8635 16.1411 15.2963 16.4995L 16.3645 18.1903ZM 22.4399 14.633C 23.0233 14.3169 23.6121 14.0048 24.2145 13.6929L 23.2947 11.9169C 22.6839 12.2333 22.0786 12.5541 21.4872 12.8745L 22.4399 14.633ZM 28.7351 11.4824C 29.3407 11.2032 29.9504 10.9289 30.5723 10.6559L 29.7685 8.82455C 29.1381 9.10127 28.5118 9.38312 27.898 9.66598L 28.7351 11.4824ZM 35.2307 8.73584C 35.8523 8.49589 36.4768 8.26114 37.1126 8.02874L 36.4259 6.15032C 35.7816 6.38586 35.1403 6.6269 34.5105 6.87002L 35.2307 8.73584ZM 41.8761 6.40699C 42.5148 6.20527 43.1556 6.00906 43.807 5.81602L 43.2387 3.89846C 42.5787 4.09408 41.9209 4.29549 41.2738 4.49983L 41.8761 6.40699ZM 48.6605 4.49319C 49.3092 4.33161 49.9592 4.17564 50.6192 4.02347L 50.1698 2.07461C 49.5012 2.22879 48.8342 2.38884 48.1771 2.55249L 48.6605 4.49319ZM 55.5518 2.99846C 56.2082 2.87682 56.8655 2.7608 57.532 2.64911L 57.2014 0.676616C 56.5263 0.789764 55.8522 0.908765 55.1874 1.03193L 55.5518 2.99846ZM 62.5206 1.92232C 63.1828 1.84018 63.8454 1.76359 64.5168 1.69177L 64.304 -0.296881C 63.6242 -0.224134 62.9449 -0.145619 62.2744 -0.0624687L 62.5206 1.92232ZM 69.5399 1.26026C 70.2063 1.21692 70.8728 1.17903 71.5475 1.14627L 71.4505 -0.851377C 70.7675 -0.818196 70.0847 -0.779375 69.4102 -0.735529L 69.5399 1.26026ZM 76.5855 1.00408C 76.9238 1.00136 77.2611 0.999998 77.6014 1L 77.6014 -1C 77.2571 -0.999998 76.9118 -0.998604 76.5694 -0.995851L 76.5855 1.00408Z"/>
</defs>
</svg>
