<svg width="189" height="128" viewBox="0 0 189 128" version="1.1" xmlns="http://www.w3.org/2000/svg" xmlns:xlink="http://www.w3.org/1999/xlink" xmlns:figma="http://www.figma.com/figma/ns">
<title>multicurrency</title>
<desc>Created using Figma</desc>
<g id="Canvas" transform="translate(-447 205)" figma:type="canvas">
<mask id="mask0_alpha" mask-type="alpha">
<path d="M 447 -205L 636 -205L 636 -77L 447 -77L 447 -205Z" fill="#FFFFFF"/>
</mask>
<g id="multicurrency" style="mix-blend-mode:normal;" mask="url(#mask0_alpha)" figma:type="frame">
<g id="paystack" style="mix-blend-mode:normal;" figma:type="frame">
<g id="logo_icon" style="mix-blend-mode:normal;" figma:type="frame">
<g id="Group" style="mix-blend-mode:normal;isolation:isolate;" figma:type="frame">
<g id="Group" style="mix-blend-mode:normal;isolation:isolate;" figma:type="frame">
<g id="Vector" style="mix-blend-mode:normal;isolation:isolate;" figma:type="vector">
<use xlink:href="#path0_fill" transform="translate(534.75 -137)" fill="#3BB75E" style="mix-blend-mode:normal;"/>
</g>
<g id="Vector" style="mix-blend-mode:normal;isolation:isolate;" figma:type="vector">
<use xlink:href="#path1_fill" transform="translate(534.75 -128.493)" fill="#3BB75E" style="mix-blend-mode:normal;"/>
</g>
<g id="Vector" style="mix-blend-mode:normal;isolation:isolate;" figma:type="vector">
<use xlink:href="#path2_fill" transform="translate(534.75 -124.24)" fill="#3BB75E" style="mix-blend-mode:normal;"/>
</g>
<g id="Vector" style="mix-blend-mode:normal;isolation:isolate;" figma:type="vector">
<use xlink:href="#path3_fill" transform="translate(534.75 -132.747)" fill="#3BB75E" style="mix-blend-mode:normal;"/>
</g>
</g>
<g id="Vector" style="mix-blend-mode:normal;isolation:isolate;" figma:type="vector">
<use xlink:href="#path0_fill" transform="translate(534.75 -137)" fill="#3BB75E" style="mix-blend-mode:normal;"/>
</g>
</g>
</g>
<g id="Ellipse 3" style="mix-blend-mode:normal;" figma:type="ellipse">
<mask id="mask1_outline_ins">
<use xlink:href="#path4_fill" fill="white" transform="translate(518.75 -153)"/>
</mask>
<g mask="url(#mask1_outline_ins)">
<use xlink:href="#path5_stroke_2x" transform="translate(518.75 -153)" fill="#3BB75E" style="mix-blend-mode:normal;"/>
</g>
</g>
</g>
<g id="pound" style="mix-blend-mode:normal;" opacity="0.5" figma:type="frame">
<g id="Vector" style="mix-blend-mode:normal;" figma:type="vector">
<use xlink:href="#path6_fill" transform="translate(509.739 -173.5)" fill="#3BB75E" style="mix-blend-mode:normal;"/>
<mask id="mask2_outline_ins">
<use xlink:href="#path6_fill" fill="white" transform="translate(509.739 -173.5)"/>
</mask>
<g mask="url(#mask2_outline_ins)">
<use xlink:href="#path7_stroke_2x" transform="translate(509.739 -173.5)" fill="#3BB75E" style="mix-blend-mode:normal;"/>
</g>
</g>
<g id="Vector" style="mix-blend-mode:normal;" figma:type="vector">
<use xlink:href="#path8_fill" transform="translate(497.25 -185)" fill="#3BB75E" style="mix-blend-mode:normal;"/>
<mask id="mask3_outline_ins">
<use xlink:href="#path8_fill" fill="white" transform="translate(497.25 -185)"/>
</mask>
<g mask="url(#mask3_outline_ins)">
<use xlink:href="#path9_stroke_2x" transform="translate(497.25 -185)" fill="#3BB75E" style="mix-blend-mode:normal;"/>
</g>
</g>
</g>
<g id="dollar" style="mix-blend-mode:normal;" opacity="0.5" figma:type="frame">
<g id="Vector" style="mix-blend-mode:normal;" figma:type="vector">
<use xlink:href="#path10_fill" transform="translate(476.25 -144.493)" fill="#3BB75E" style="mix-blend-mode:normal;"/>
<mask id="mask4_outline_ins">
<use xlink:href="#path10_fill" fill="white" transform="translate(476.25 -144.493)"/>
</mask>
<g mask="url(#mask4_outline_ins)">
<use xlink:href="#path11_stroke_2x" transform="translate(476.25 -144.493)" fill="#3BB75E" style="mix-blend-mode:normal;"/>
</g>
</g>
<g id="Vector" style="mix-blend-mode:normal;" figma:type="vector">
<use xlink:href="#path12_fill" transform="translate(489.874 -135)" fill="#3BB75E" style="mix-blend-mode:normal;"/>
<mask id="mask5_outline_ins">
<use xlink:href="#path12_fill" fill="white" transform="translate(489.874 -135)"/>
</mask>
<g mask="url(#mask5_outline_ins)">
<use xlink:href="#path13_stroke_2x" transform="translate(489.874 -135)" fill="#3BB75E" style="mix-blend-mode:normal;"/>
</g>
</g>
</g>
<g id="euro" style="mix-blend-mode:normal;" opacity="0.5" figma:type="frame">
<g id="Vector" style="mix-blend-mode:normal;" figma:type="vector">
<use xlink:href="#path10_fill" transform="translate(552.25 -185)" fill="#3BB75E" style="mix-blend-mode:normal;"/>
<mask id="mask6_outline_ins">
<use xlink:href="#path10_fill" fill="white" transform="translate(552.25 -185)"/>
</mask>
<g mask="url(#mask6_outline_ins)">
<use xlink:href="#path11_stroke_2x" transform="translate(552.25 -185)" fill="#3BB75E" style="mix-blend-mode:normal;"/>
</g>
</g>
<g id="Vector" style="mix-blend-mode:normal;" figma:type="vector">
<use xlink:href="#path14_fill" transform="translate(565.375 -174)" fill="#3BB75E" style="mix-blend-mode:normal;"/>
<mask id="mask7_outline_ins">
<use xlink:href="#path14_fill" fill="white" transform="translate(565.375 -174)"/>
</mask>
<g mask="url(#mask7_outline_ins)">
<use xlink:href="#path15_stroke_2x" transform="translate(565.375 -174)" fill="#3BB75E" style="mix-blend-mode:normal;"/>
</g>
</g>
</g>
<g id="naira" style="mix-blend-mode:normal;" opacity="0.5" figma:type="frame">
<g id="Group" style="mix-blend-mode:normal;" figma:type="frame">
<g id="Vector" style="mix-blend-mode:normal;" figma:type="vector">
<use xlink:href="#path16_fill" transform="translate(574.75 -145.507)" fill="#3BB75E" style="mix-blend-mode:normal;"/>
<mask id="mask8_outline_ins">
<use xlink:href="#path16_fill" fill="white" transform="translate(574.75 -145.507)"/>
</mask>
<g mask="url(#mask8_outline_ins)">
<use xlink:href="#path17_stroke_2x" transform="translate(574.75 -145.507)" fill="#3BB75E" style="mix-blend-mode:normal;"/>
</g>
</g>
<g id="Vector" style="mix-blend-mode:normal;" figma:type="vector">
<use xlink:href="#path18_fill" transform="translate(585.448 -134)" fill="#3BB75E" style="mix-blend-mode:normal;"/>
<mask id="mask9_outline_ins">
<use xlink:href="#path18_fill" fill="white" transform="translate(585.448 -134)"/>
</mask>
<g mask="url(#mask9_outline_ins)">
<use xlink:href="#path19_stroke_2x" transform="translate(585.448 -134)" fill="#3BB75E" style="mix-blend-mode:normal;"/>
</g>
</g>
</g>
</g>
</g>
</g>
<defs>
<path id="path0_fill" d="M 14.3163 0L 0.842133 0C 0.377067 0 0 0.384 0 0.8576L 0 2.38213C 0 2.85573 0.377067 3.24 0.842133 3.24L 14.3163 3.24C 14.7811 3.24 15.1581 2.85573 15.1581 2.38213L 15.1581 0.8576C 15.1581 0.384 14.7811 0 14.3163 0Z"/>
<path id="path1_fill" d="M 14.3163 0L 0.842133 0C 0.377067 0 0 0.383467 0 0.857334L 0 2.38267C 0 2.85547 0.377067 3.23947 0.842133 3.23947L 14.3163 3.23947C 14.7811 3.23947 15.1581 2.85547 15.1581 2.38267L 15.1581 0.857334C 15.1581 0.383467 14.7811 0 14.3163 0Z"/>
<path id="path2_fill" d="M 8.42133 0L 0.842133 0C 0.377067 0 0 0.384 0 0.857867L 0 2.3824C 0 2.856 0.377067 3.24 0.842133 3.24L 8.42133 3.24C 8.8864 3.24 9.2632 2.856 9.2632 2.3824L 9.2632 0.857867C 9.2632 0.384 8.88667 0 8.42133 0Z"/>
<path id="path3_fill" d="M 15.1581 0L 0.842133 0C 0.377067 0 0 0.384 0 0.857333L 0 2.38267C 0 2.85573 0.377067 3.24 0.842133 3.24L 15.1581 3.24C 15.6235 3.24 16 2.85573 16 2.38267L 16 0.857333C 16 0.384 15.6235 0 15.1581 0Z"/>
<path id="path4_fill" d="M 48 24C 48 37.2548 37.2548 48 24 48C 10.7452 48 0 37.2548 0 24C 0 10.7452 10.7452 0 24 0C 37.2548 0 48 10.7452 48 24Z"/>
<path id="path5_stroke_2x" d="M 46 24C 46 36.1503 36.1503 46 24 46L 24 50C 38.3594 50 50 38.3594 50 24L 46 24ZM 24 46C 11.8497 46 2 36.1503 2 24L -2 24C -2 38.3594 9.6406 50 24 50L 24 46ZM 2 24C 2 11.8497 11.8497 2 24 2L 24 -2C 9.6406 -2 -2 9.6406 -2 24L 2 24ZM 24 2C 36.1503 2 46 11.8497 46 24L 50 24C 50 9.6406 38.3594 -2 24 -2L 24 2Z"/>
<path id="path6_fill" d="M 6.85475 8.89379C 6.67575 8.74575 6.42006 8.76391 6.26179 8.9269C 6.22479 8.9508 5.99518 9.08046 5.35005 9.08046C 4.89463 9.08046 4.53216 8.94644 4.1483 8.80414C 3.78115 8.66828 3.40152 8.52782 2.9617 8.52598C 3.2136 8.06529 3.39929 7.48644 3.39929 6.78161C 3.39929 6.55655 3.37477 6.34874 3.33999 6.14943L 4.90421 6.14943C 5.15032 6.14943 5.35005 5.94345 5.35005 5.68966C 5.35005 5.43586 5.15032 5.22989 4.90421 5.22989L 3.05778 5.22989C 2.87677 4.82805 2.65184 4.48345 2.44921 4.17632C 2.12174 3.68023 1.83908 3.25172 1.83908 2.75862C 1.83908 1.6531 3.14739 0.91954 4.01254 0.91954C 4.85049 0.91954 5.24439 1.33609 5.56071 1.67057L 5.64787 1.76184C 5.82175 1.94138 6.10441 1.94138 6.27829 1.76184C 6.45239 1.5823 6.45239 1.29126 6.27829 1.11172L 6.19915 1.02874C 5.83535 0.643908 5.22655 0 4.01254 0C 2.73254 0 0.947405 1.04943 0.947405 2.75862C 0.947405 3.53494 1.33618 4.12414 1.71202 4.69379C 1.82994 4.87241 1.94474 5.04897 2.05018 5.22989L 0.445838 5.22989C 0.199735 5.22989 0 5.43586 0 5.68966C 0 5.94345 0.199735 6.14943 0.445838 6.14943L 2.43517 6.14943C 2.48086 6.34437 2.50784 6.55264 2.50784 6.78161C 2.50784 8.07908 1.65651 8.80851 1.31767 9.04736C 1.21312 9.11012 1.14959 9.15494 1.14023 9.16161C 0.945399 9.3 0.889446 9.57126 1.0125 9.77954C 1.09609 9.92115 1.24277 10 1.39347 10C 1.46458 10 1.5368 9.9823 1.60368 9.94552C 1.61661 9.93839 1.68081 9.90207 1.778 9.8354C 2.00605 9.69954 2.49424 9.44552 2.95367 9.44552C 3.24169 9.44552 3.52234 9.54943 3.84713 9.66966C 4.26533 9.82437 4.73925 10 5.35005 10C 6.44882 10 6.81708 9.67839 6.9243 9.54023C 7.07812 9.34184 7.04691 9.05241 6.85475 8.89379Z"/>
<path id="path7_stroke_2x" d="M 6.85475 8.89379L 5.5801 10.435L 5.58155 10.4362L 6.85475 8.89379ZM 6.26179 8.9269L 7.34714 10.6068L 7.53817 10.4834L 7.69661 10.3202L 6.26179 8.9269ZM 4.1483 8.80414L 4.84347 6.92884L 4.84239 6.92844L 4.1483 8.80414ZM 2.9617 8.52598L 1.20689 7.56647L -0.403637 10.5119L 2.95334 10.526L 2.9617 8.52598ZM 3.33999 6.14943L 3.33999 4.14943L 0.960822 4.14943L 1.36976 6.49319L 3.33999 6.14943ZM 3.05778 5.22989L 1.23424 6.0513L 1.76514 7.22989L 3.05778 7.22989L 3.05778 5.22989ZM 2.44921 4.17632L 4.1186 3.0749L 4.11836 3.07453L 2.44921 4.17632ZM 5.56071 1.67057L 4.10758 3.04481L 4.11435 3.05189L 5.56071 1.67057ZM 5.64787 1.76184L 4.20148 3.14319L 4.21118 3.15321L 5.64787 1.76184ZM 6.27829 1.76184L 4.84249 0.369548L 4.84159 0.370467L 6.27829 1.76184ZM 6.27829 1.11172L 4.83088 2.49195L 4.83666 2.49801L 4.84249 2.50402L 6.27829 1.11172ZM 6.19915 1.02874L 4.74578 2.4027L 4.75175 2.40896L 6.19915 1.02874ZM 1.71202 4.69379L 0.042621 5.79521L 0.0429457 5.7957L 1.71202 4.69379ZM 2.05018 5.22989L 2.05018 7.22989L 5.53067 7.22989L 3.77814 4.22283L 2.05018 5.22989ZM 2.43517 6.14943L 4.38238 5.69296L 4.02054 4.14943L 2.43517 4.14943L 2.43517 6.14943ZM 1.31767 9.04736L 2.34702 10.7621L 2.40997 10.7243L 2.46998 10.682L 1.31767 9.04736ZM 1.14023 9.16161L 2.29841 10.7921L 2.3003 10.7908L 1.14023 9.16161ZM 1.0125 9.77954L 2.7348 8.76284L 2.73443 8.76221L 1.0125 9.77954ZM 1.60368 9.94552L 2.56752 11.6979L 2.56911 11.6971L 1.60368 9.94552ZM 1.778 9.8354L 0.754363 8.11721L 0.699435 8.14994L 0.64671 8.1861L 1.778 9.8354ZM 3.84713 9.66966L 3.15283 11.5453L 3.15319 11.5454L 3.84713 9.66966ZM 6.9243 9.54023L 8.50431 10.7664L 8.5049 10.7657L 6.9243 9.54023ZM 8.1294 7.3526C 7.13062 6.52656 5.697 6.63763 4.82697 7.53359L 7.69661 10.3202C 7.14312 10.8902 6.22088 10.9649 5.5801 10.435L 8.1294 7.3526ZM 5.17644 7.24701C 5.55708 7.00109 5.74019 7.08046 5.35005 7.08046L 5.35005 11.0805C 6.25017 11.0805 6.89249 10.9005 7.34714 10.6068L 5.17644 7.24701ZM 5.35005 7.08046C 5.2987 7.08046 5.24968 7.07942 4.84347 6.92884L 3.45313 10.6794C 3.83777 10.822 4.54231 11.0492 5.35005 11.0805L 5.35005 7.08046ZM 4.84239 6.92844C 4.4752 6.79256 3.75815 6.55987 2.97006 6.52599L 2.95334 10.526C 2.95921 10.526 2.98901 10.5264 3.06582 10.547C 3.15697 10.5713 3.25754 10.6071 3.4542 10.6798L 4.84239 6.92844ZM 4.71651 9.48548C 5.05149 8.85405 5.37525 7.79562 5.39929 6.78161L 1.39929 6.78161C 1.39929 7.11905 1.31403 7.37053 1.20689 7.56647L 4.71651 9.48548ZM 5.39929 6.78161C 5.39584 6.43917 5.35375 6.05956 5.31023 5.80566L 1.36976 6.49319C 1.39578 6.63791 1.40274 6.67393 1.39929 6.78161L 5.39929 6.78161ZM 3.33999 8.14943L 4.90421 8.14943L 4.90421 4.14943L 3.33999 4.14943L 3.33999 8.14943ZM 4.90421 8.14943C 6.31245 8.14943 7.35005 6.98956 7.35005 5.68966L 3.35005 5.68966C 3.35005 4.89734 3.98818 4.14943 4.90421 4.14943L 4.90421 8.14943ZM 7.35005 5.68966C 7.35005 4.38975 6.31245 3.22989 4.90421 3.22989L 4.90421 7.22989C 3.98818 7.22989 3.35005 6.48197 3.35005 5.68966L 7.35005 5.68966ZM 4.90421 3.22989L 3.05778 3.22989L 3.05778 7.22989L 4.90421 7.22989L 4.90421 3.22989ZM 4.88131 4.40847C 4.63121 3.86787 4.32395 3.38615 4.1186 3.0749L 0.779815 5.27774C 0.979738 5.58075 1.12233 5.78823 1.23424 6.0513L 4.88131 4.40847ZM 4.11836 3.07453C 4.03653 2.95056 3.97424 2.85662 3.91804 2.76503C 3.866 2.68066 3.83759 2.62817 3.82187 2.59565C 3.79237 2.53464 3.83908 2.60799 3.83908 2.75862L -0.16092 2.75862C -0.16092 3.96697 0.543394 4.91958 0.780063 5.27812L 4.11836 3.07453ZM 3.83908 2.75862C 3.83908 2.82015 3.82964 2.8798 3.81387 2.93278C 3.79846 2.98453 3.77963 3.02137 3.7665 3.04299C 3.7431 3.08152 3.73946 3.07032 3.78991 3.03305C 3.83882 2.99691 3.90501 2.96157 3.97233 2.93786C 4.00388 2.92675 4.02705 2.92126 4.0391 2.91901C 4.05217 2.91656 4.04321 2.91954 4.01254 2.91954L 4.01254 -1.08046C 3.09649 -1.08046 2.14457 -0.724691 1.41285 -0.184026C 0.670401 0.364561 -0.16092 1.35525 -0.16092 2.75862L 3.83908 2.75862ZM 4.01254 2.91954C 4.05369 2.91954 4.05485 2.92428 4.02914 2.91715C 4.00235 2.90973 3.97408 2.89714 3.95172 2.8837C 3.93234 2.87205 3.93193 2.86838 3.95635 2.89062C 3.96899 2.90214 3.98643 2.91886 4.01173 2.94459C 4.03856 2.97188 4.06617 3.00099 4.1076 3.04479L 7.01382 0.29636C 6.6295 -0.11003 5.72904 -1.08046 4.01254 -1.08046L 4.01254 2.91954ZM 4.11435 3.05189L 4.20151 3.14316L 7.09423 0.38052L 7.00707 0.289255L 4.11435 3.05189ZM 4.21118 3.15321C 5.17096 4.14426 6.7552 4.14426 7.71498 3.15321L 4.84159 0.370467C 5.45362 -0.261496 6.47253 -0.261496 7.08456 0.370467L 4.21118 3.15321ZM 7.71409 3.15413C 8.64045 2.19882 8.64045 0.674746 7.71409 -0.280568L 4.84249 2.50402C 4.26432 1.90778 4.26432 0.965781 4.84249 0.369548L 7.71409 3.15413ZM 7.72569 -0.268503L 7.64655 -0.351492L 4.75175 2.40896L 4.83088 2.49195L 7.72569 -0.268503ZM 7.65251 -0.345221C 7.21496 -0.808053 6.10093 -2 4.01254 -2L 4.01254 2C 4.23771 2 4.3409 2.05227 4.39776 2.08629C 4.48634 2.13929 4.56395 2.21034 4.74579 2.40269L 7.65251 -0.345221ZM 4.01254 -2C 2.88905 -2 1.69439 -1.56449 0.764906 -0.834728C -0.194987 -0.0810956 -1.05259 1.14252 -1.05259 2.75862L 2.94741 2.75862C 2.94741 2.66553 2.98236 2.50983 3.23504 2.31145C 3.51812 2.0892 3.85602 2 4.01254 2L 4.01254 -2ZM -1.05259 2.75862C -1.05259 4.21982 -0.291669 5.28853 0.042621 5.79521L 3.38141 3.59238C 3.17934 3.28609 3.077 3.12382 3.00789 2.97255C 2.95266 2.85168 2.94741 2.79515 2.94741 2.75862L -1.05259 2.75862ZM 0.0429457 5.7957C 0.157047 5.96851 0.241909 6.09794 0.322228 6.23694L 3.77814 4.22283C 3.64758 3.99999 3.50283 3.77632 3.38109 3.59188L 0.0429457 5.7957ZM 2.05018 3.22989L 0.445838 3.22989L 0.445838 7.22989L 2.05018 7.22989L 2.05018 3.22989ZM 0.445838 3.22989C -0.9624 3.22989 -2 4.38975 -2 5.68966L 2 5.68966C 2 6.48197 1.36187 7.22989 0.445838 7.22989L 0.445838 3.22989ZM -2 5.68966C -2 6.98956 -0.9624 8.14943 0.445838 8.14943L 0.445838 4.14943C 1.36187 4.14943 2 4.89734 2 5.68966L -2 5.68966ZM 0.445838 8.14943L 2.43517 8.14943L 2.43517 4.14943L 0.445838 4.14943L 0.445838 8.14943ZM 0.487952 6.60589C 0.500361 6.65883 0.507837 6.71395 0.507837 6.78161L 4.50784 6.78161C 4.50369 6.42394 4.44872 5.98724 4.38238 5.69296L 0.487952 6.60589ZM 0.507837 6.78161C 0.507837 6.96543 0.454388 7.08646 0.387191 7.18505C 0.307388 7.30213 0.207657 7.38286 0.165364 7.41268L 2.46998 10.682C 3.01275 10.2994 4.50784 9.04704 4.50784 6.78161L 0.507837 6.78161ZM 0.288329 7.33258C 0.121192 7.4345 -0.00695984 7.52326 -0.019837 7.53242L 2.3003 10.7908C 2.27582 10.8082 2.29536 10.7931 2.34702 10.7621L 0.288329 7.33258ZM -0.0179517 7.53108C -1.07813 8.28414 -1.35005 9.71257 -0.709431 10.7969L 2.73443 8.76221C 3.12894 9.42996 2.96893 10.3159 2.29841 10.7921L -0.0179517 7.53108ZM -0.709801 10.7962C -0.26217 11.5545 0.543675 12 1.39347 12L 1.39347 8C 1.94187 8 2.45435 8.28777 2.7348 8.76284L -0.709801 10.7962ZM 1.39347 12C 1.70434 11.9856 2.263 11.8458 2.56752 11.6979L 0.639841 8.19309C 0.871154 8.06586 1.13089 8 1.39347 8L 1.39347 12ZM 2.56911 11.6971C 2.59176 11.6846 2.73986 11.5987 2.90929 11.4847L 0.64671 8.1861C 0.627687 8.19915 0.61576 8.20658 0.612836 8.20837C 0.611401 8.20925 0.612408 8.20861 0.616117 8.20645C 0.619397 8.20454 0.626701 8.20033 0.638247 8.19396L 2.56911 11.6971ZM 2.80164 11.5536C 2.85488 11.5219 2.93 11.4821 3.00089 11.4547C 3.01653 11.4487 3.02918 11.4443 3.03868 11.4413C 3.04826 11.4383 3.05272 11.4373 3.05215 11.4374C 3.05166 11.4376 3.04357 11.4394 3.02836 11.4413C 3.01321 11.4432 2.98791 11.4455 2.95367 11.4455L 2.95367 7.44552C 1.90689 7.44552 1.00974 7.96507 0.754363 8.11721L 2.80164 11.5536ZM 2.95367 11.4455C 2.85676 11.4455 2.80912 11.4277 2.84842 11.4387C 2.86776 11.4441 2.89981 11.454 2.95297 11.4726C 3.01128 11.4928 3.07162 11.5152 3.15283 11.5453L 4.54144 7.79404C 4.2167 7.67383 3.59442 7.47687 2.95367 7.44552L 2.95367 11.4455ZM 3.15319 11.5454C 3.57086 11.6999 4.38622 11.9686 5.35005 12L 5.35005 8C 5.13403 8 4.96168 7.94951 4.54107 7.7939L 3.15319 11.5454ZM 5.35005 12C 6.83417 12 7.89542 11.551 8.50431 10.7664L 5.3443 8.31402C 5.42842 8.20563 5.51559 8.1238 5.59529 8.06462C 5.67453 8.00578 5.73564 7.97727 5.76263 7.96642C 5.81248 7.94636 5.71109 8 5.35005 8L 5.35005 12ZM 8.5049 10.7657C 9.31327 9.72303 9.16318 8.20596 8.12796 7.35141L 5.58155 10.4362C 4.93064 9.89887 4.84296 8.96065 5.34371 8.31478L 8.5049 10.7657Z"/>
<path id="path8_fill" d="M 16 0C 7.32724 0 0 7.55621 0 16.5C 0 25.4438 7.32724 33 16 33C 24.6728 33 32 25.4438 32 16.5C 32 7.55621 24.6728 0 16 0ZM 16 31.4286C 8.15314 31.4286 1.52381 24.5921 1.52381 16.5C 1.52381 8.40793 8.15314 1.57143 16 1.57143C 23.8469 1.57143 30.4762 8.40793 30.4762 16.5C 30.4762 24.5921 23.8469 31.4286 16 31.4286Z"/>
<path id="path9_stroke_2x" d="M 16 -2C 6.1651 -2 -2 6.5101 -2 16.5L 2 16.5C 2 8.60233 8.48937 2 16 2L 16 -2ZM -2 16.5C -2 26.4899 6.1651 35 16 35L 16 31C 8.48937 31 2 24.3977 2 16.5L -2 16.5ZM 16 35C 25.8349 35 34 26.4899 34 16.5L 30 16.5C 30 24.3977 23.5106 31 16 31L 16 35ZM 34 16.5C 34 6.5101 25.8349 -2 16 -2L 16 2C 23.5106 2 30 8.60233 30 16.5L 34 16.5ZM 16 29.4286C 9.31528 29.4286 3.52381 23.546 3.52381 16.5L -0.47619 16.5C -0.47619 25.6382 6.99101 33.4286 16 33.4286L 16 29.4286ZM 3.52381 16.5C 3.52381 9.45404 9.31528 3.57143 16 3.57143L 16 -0.428571C 6.99101 -0.428571 -0.47619 7.36182 -0.47619 16.5L 3.52381 16.5ZM 16 3.57143C 22.6847 3.57143 28.4762 9.45404 28.4762 16.5L 32.4762 16.5C 32.4762 7.36182 25.009 -0.428571 16 -0.428571L 16 3.57143ZM 28.4762 16.5C 28.4762 23.546 22.6847 29.4286 16 29.4286L 16 33.4286C 25.009 33.4286 32.4762 25.6382 32.4762 16.5L 28.4762 16.5Z"/>
<path id="path10_fill" d="M 16.5 0C 7.40165 0 0 7.17736 0 16C 0 24.8222 7.40165 32 16.5 32C 25.5979 32 33 24.8222 33 16C 33 7.17736 25.5979 0 16.5 0ZM 16.5 30.7243C 8.12743 30.7243 1.31561 24.1193 1.31561 16C 1.31561 7.88114 8.12743 1.27575 16.5 1.27575C 24.873 1.27575 31.6844 7.88114 31.6844 16C 31.6844 24.1193 24.873 30.7243 16.5 30.7243Z"/>
<path id="path11_stroke_2x" d="M 16.5 -2C 6.35554 -2 -2 6.01522 -2 16L 2 16C 2 8.33949 8.44776 2 16.5 2L 16.5 -2ZM -2 16C -2 25.9843 6.3555 34 16.5 34L 16.5 30C 8.44779 30 2 23.6601 2 16L -2 16ZM 16.5 34C 26.644 34 35 25.9844 35 16L 31 16C 31 23.6601 24.5518 30 16.5 30L 16.5 34ZM 35 16C 35 6.01519 26.644 -2 16.5 -2L 16.5 2C 24.5518 2 31 8.33953 31 16L 35 16ZM 16.5 28.7243C 9.1735 28.7243 3.31561 22.9571 3.31561 16L -0.684385 16C -0.684385 25.2815 7.08136 32.7243 16.5 32.7243L 16.5 28.7243ZM 3.31561 16C 3.31561 9.04328 9.17354 3.27575 16.5 3.27575L 16.5 -0.724252C 7.08132 -0.724252 -0.684385 6.71901 -0.684385 16L 3.31561 16ZM 16.5 3.27575C 23.8269 3.27575 29.6844 9.04324 29.6844 16L 33.6844 16C 33.6844 6.71904 25.9192 -0.724252 16.5 -0.724252L 16.5 3.27575ZM 29.6844 16C 29.6844 22.9571 23.8269 28.7243 16.5 28.7243L 16.5 32.7243C 25.9191 32.7243 33.6844 25.2814 33.6844 16L 29.6844 16Z"/>
<path id="path12_fill" d="M 3.28175 5.4808L 3.28175 3.16318C 3.9 3.23314 4.30803 3.46608 4.67822 3.81195C 4.81035 3.94008 4.94276 3.95607 5.02517 3.95607C 5.28971 3.95607 5.50453 3.74776 5.50453 3.49123C 5.50453 3.34686 5.43833 3.25096 5.38861 3.18676C 4.93979 2.61083 4.21156 2.25683 3.28148 2.17796L 3.28148 0.393039C 3.28148 0.175819 3.10017 -1.87915e-07 2.87616 -1.87915e-07C 2.65215 -1.87915e-07 2.47084 0.175819 2.47084 0.393039L 2.47084 2.18058C 1.26136 2.28984 0.347225 2.90115 0.347225 4.10044C 0.347225 5.39459 1.40106 5.89191 2.47084 6.26085L 2.47084 8.83053C 1.78639 8.74773 1.26325 8.48335 0.843068 8.07564C 0.710933 7.94725 0.578529 7.91554 0.47936 7.91554C 0.214821 7.91554 -1.23694e-07 8.12385 -1.23694e-07 8.38011C -1.23694e-07 8.49226 0.0332365 8.57244 0.115922 8.68459C 0.494222 9.15047 1.34756 9.68946 2.47111 9.81208L 2.47111 11.607C 2.47111 11.8239 2.65242 12 2.87643 12C 3.10044 12 3.28175 11.8239 3.28175 11.607L 3.28175 9.82702C 4.68741 9.73688 5.75286 9.07474 5.75286 7.72321C 5.75286 6.32321 4.45826 5.8741 3.28175 5.4808ZM 1.40538 4.10044C 1.40538 3.49909 1.88934 3.2389 2.47111 3.16344L 2.47111 5.19257C 1.85826 4.94574 1.40538 4.6431 1.40538 4.10044ZM 3.28175 8.84678L 3.28175 6.53152C 4.06321 6.79983 4.6947 7.09383 4.6947 7.72295C 4.6947 8.454 4.07105 8.77839 3.28175 8.84678Z"/>
<path id="path13_stroke_2x" d="M 3.28175 5.4808L 1.28175 5.4808L 1.28175 6.921L 2.64766 7.37762L 3.28175 5.4808ZM 3.28175 3.16318L 3.50664 1.17586L 1.28175 0.924093L 1.28175 3.16318L 3.28175 3.16318ZM 4.67822 3.81195L 6.07051 2.37615L 6.05718 2.36323L 6.04362 2.35055L 4.67822 3.81195ZM 5.38861 3.18676L 6.96984 1.96211L 6.96615 1.95738L 5.38861 3.18676ZM 3.28148 2.17796L 1.28148 2.17796L 1.28148 4.01554L 3.11249 4.17081L 3.28148 2.17796ZM 2.47084 2.18058L 2.65079 4.17247L 4.47084 4.00804L 4.47084 2.18058L 2.47084 2.18058ZM 2.47084 6.26085L 4.47084 6.26085L 4.47084 4.83499L 3.12289 4.37012L 2.47084 6.26085ZM 2.47084 8.83053L 2.23064 10.8161L 4.47084 11.0871L 4.47084 8.83053L 2.47084 8.83053ZM 0.843068 8.07564L -0.550689 9.51002L -0.549685 9.51099L 0.843068 8.07564ZM 0.115922 8.68459L -1.49384 9.87146L -1.46612 9.90905L -1.43668 9.94531L 0.115922 8.68459ZM 2.47111 9.81208L 4.47111 9.81208L 4.47111 8.01849L 2.68811 7.82389L 2.47111 9.81208ZM 3.28175 9.82702L 3.15377 7.83112L 1.28175 7.95116L 1.28175 9.82702L 3.28175 9.82702ZM 5.75286 7.72321L 3.75286 7.72321L 5.75286 7.72321ZM 2.47111 3.16344L 4.47111 3.16344L 4.47111 0.887256L 2.21384 1.18005L 2.47111 3.16344ZM 2.47111 5.19257L 1.72392 7.04775L 4.47111 8.1542L 4.47111 5.19257L 2.47111 5.19257ZM 3.28175 8.84678L 1.28175 8.84678L 1.28175 11.0276L 3.4544 10.8393L 3.28175 8.84678ZM 3.28175 6.53152L 3.93124 4.63991L 1.28175 3.73021L 1.28175 6.53152L 3.28175 6.53152ZM 5.28175 5.4808L 5.28175 3.16318L 1.28175 3.16318L 1.28175 5.4808L 5.28175 5.4808ZM 3.05687 5.15049C 3.16018 5.16218 3.19297 5.18008 3.19497 5.18105C 3.20062 5.18382 3.23428 5.19997 3.31282 5.27335L 6.04362 2.35055C 5.49454 1.85605 4.52099 1.33199 3.50664 1.17586L 3.05687 5.15049ZM 3.28593 5.24775C 3.91058 5.85348 4.61713 5.95607 5.02517 5.95607L 5.02517 1.95607C 5.11819 1.95607 5.29468 1.96518 5.5039 2.03506C 5.72199 2.1079 5.91673 2.22703 6.07051 2.37615L 3.28593 5.24775ZM 5.02517 5.95607C 6.33582 5.95607 7.50453 4.90989 7.50453 3.49123L 3.50453 3.49123C 3.50453 2.58562 4.2436 1.95607 5.02517 1.95607L 5.02517 5.95607ZM 7.50453 3.49123C 7.41396 2.7518 7.0525 2.07009 6.96983 1.96212L 3.80739 4.4114C 3.77741 4.37268 3.50453 4.02523 3.50453 3.49123L 7.50453 3.49123ZM 6.96615 1.95738C 6.09254 0.836363 4.78704 0.298452 3.45047 0.185112L 3.11249 4.17081C 3.63608 4.21521 3.78703 4.38529 3.81107 4.41614L 6.96615 1.95738ZM 5.28148 2.17796L 5.28148 0.393039L 1.28148 0.393039L 1.28148 2.17796L 5.28148 2.17796ZM 5.28148 0.393039C 5.28148 -0.986316 4.14628 -2 2.87616 -2L 2.87616 2C 2.05406 2 1.28148 1.33795 1.28148 0.393039L 5.28148 0.393039ZM 2.87616 -2C 1.60604 -2 0.470839 -0.986316 0.470839 0.393039L 4.47084 0.393039C 4.47084 1.33795 3.69826 2 2.87616 2L 2.87616 -2ZM 0.470839 0.393039L 0.470839 2.18058L 4.47084 2.18058L 4.47084 0.393039L 0.470839 0.393039ZM 2.29089 0.188691C 1.42908 0.266547 0.464061 0.537923 -0.324805 1.19524C -1.17714 1.90543 -1.65277 2.92912 -1.65277 4.10044L 2.34723 4.10044C 2.34723 4.05943 2.35377 4.08512 2.32633 4.14484C 2.29839 4.20564 2.25972 4.2483 2.23576 4.26826C 2.21696 4.28393 2.22985 4.26708 2.30186 4.24134C 2.37428 4.21546 2.489 4.18708 2.65079 4.17247L 2.29089 0.188691ZM -1.65277 4.10044C -1.65277 5.39963 -1.07881 6.38962 -0.275309 7.0617C 0.37345 7.57324 1.23196 7.94838 1.81879 8.15157L 3.12289 4.37012C 2.88165 4.28713 2.71988 4.22797 2.54783 4.14403C 2.39687 4.07212 2.32185 4.01927 2.29104 3.9935C 2.2672 3.97356 2.29432 3.99065 2.32256 4.04795C 2.35317 4.11005 2.34723 4.14222 2.34723 4.10044L -1.65277 4.10044ZM 0.470839 6.26085L 0.470839 8.83053L 4.47084 8.83053L 4.47084 6.26085L 0.470839 6.26085ZM 2.71103 6.84501C 2.36627 6.83365 2.42392 6.8546 2.23582 6.64028L -0.549685 9.51099C 0.10258 10.1121 1.2065 10.6618 2.23064 10.8161L 2.71103 6.84501ZM 2.23682 6.64126C 1.69783 6.11753 1.05025 5.91554 0.47936 5.91554L 0.47936 9.91554C 0.31319 9.91554 0.122833 9.88834 -0.0723507 9.81288C -0.270476 9.73628 -0.43108 9.62624 -0.550689 9.51002L 2.23682 6.64126ZM 0.47936 5.91554C -0.83054 5.91554 -2 6.96099 -2 8.38011L 2 8.38011C 2 9.28671 1.26018 9.91554 0.47936 9.91554L 0.47936 5.91554ZM -2 8.38011C -2 9.05439 -1.73607 9.54292 -1.49384 9.87146L 1.72568 7.49771C 1.73715 7.51326 1.82071 7.62628 1.89166 7.80926C 1.97264 8.01809 2 8.21876 2 8.38011L -2 8.38011ZM -1.43668 9.94531C -0.691397 10.8631 0.664754 11.6268 2.25411 11.8003L 2.68811 7.82389C 2.38482 7.79079 2.12855 7.70224 1.93591 7.60218C 1.72757 7.49398 1.65228 7.40386 1.66852 7.42386L -1.43668 9.94531ZM 0.471109 9.81208L 0.471109 11.607L 4.47111 11.607L 4.47111 9.81208L 0.471109 9.81208ZM 0.471109 11.607C 0.471109 12.9852 1.60543 14 2.87643 14L 2.87643 10C 3.69941 10 4.47111 10.6626 4.47111 11.607L 0.471109 11.607ZM 2.87643 14C 4.14743 14 5.28175 12.9852 5.28175 11.607L 1.28175 11.607C 1.28175 10.6626 2.05345 10 2.87643 10L 2.87643 14ZM 5.28175 11.607L 5.28175 9.82702L 1.28175 9.82702L 1.28175 11.607L 5.28175 11.607ZM 3.40974 11.8229C 4.35695 11.7622 5.41215 11.4996 6.27655 10.8235C 7.21614 10.0887 7.75286 8.99776 7.75286 7.72321L 3.75286 7.72321C 3.75286 7.79291 3.74064 7.78711 3.76179 7.74311C 3.76627 7.72512 3.77803 7.70642 3.79445 7.69165C 3.80602 7.67752 3.81365 7.67169 3.81231 7.67274C 3.79256 7.68818 3.6122 7.80172 3.15377 7.83112L 3.40974 11.8229ZM 7.75286 7.72321C 7.75286 6.25389 7.00812 5.23111 6.12147 4.59738C 5.40167 4.10905 4.50973 3.78252 3.91585 3.58398L 2.64766 7.37762C 2.9389 7.47497 3.17303 7.5528 3.39618 7.64688C 3.60637 7.7343 3.72832 7.80357 3.79552 7.8516C 3.89879 7.91678 3.78869 7.85275 3.79473 7.82808C 3.76361 7.80415 3.77127 7.64396 3.75286 7.72321L 7.75286 7.72321ZM 3.40538 4.10044C 3.40538 4.22552 3.37827 4.40457 3.28288 4.59746C 3.18791 4.78954 3.05856 4.92801 2.9428 5.01744C 2.74361 5.17132 2.61497 5.16153 2.72838 5.14682L 2.21384 1.18005C 1.74548 1.24081 1.08397 1.39884 0.497368 1.85202C -0.180171 2.37545 -0.594616 3.17225 -0.594616 4.10044L 3.40538 4.10044ZM 0.471109 3.16344L 0.471109 5.19257L 4.47111 5.19257L 4.47111 3.16344L 0.471109 3.16344ZM 3.2183 3.33738C 3.113 3.29497 3.05107 3.26456 3.01832 3.24634C 2.98434 3.22743 3.00951 3.23687 3.06131 3.28444C 3.11721 3.33579 3.21145 3.43856 3.2892 3.60074C 3.37049 3.77032 3.40538 3.94615 3.40538 4.10044L -0.594616 4.10044C -0.594616 6.07526 1.16632 6.82317 1.72392 7.04775L 3.2183 3.33738ZM 5.28175 8.84678L 5.28175 6.53152L 1.28175 6.53152L 1.28175 8.84678L 5.28175 8.84678ZM 2.63227 8.42312C 2.80591 8.48261 2.9103 8.52019 3.02019 8.57015C 3.12234 8.61404 3.12048 8.62644 3.10568 8.60995C 3.07826 8.59002 2.96752 8.50427 2.86429 8.33049C 2.75038 8.13872 2.6947 7.92173 2.6947 7.72295L 6.6947 7.72295C 6.6947 6.58682 6.0637 5.81482 5.45687 5.37392C 4.99078 5.0545 4.36719 4.79021 3.93124 4.63991L 2.63227 8.42312ZM 2.6947 7.72295C 2.6947 7.61252 2.72076 7.44476 2.81576 7.26457C 2.90941 7.08695 3.03163 6.96996 3.12518 6.90344C 3.27699 6.79549 3.3235 6.83567 3.10911 6.85425L 3.4544 10.8393C 4.0293 10.7895 4.78228 10.6333 5.44324 10.1633C 6.20354 9.62265 6.6947 8.76227 6.6947 7.72295L 2.6947 7.72295Z"/>
<path id="path14_fill" d="M 6.74822 7.21289C 6.74822 6.89713 6.49237 6.64129 6.17661 6.64129C 5.86085 6.64129 5.605 6.89713 5.605 7.21289L 5.60546 7.38231C 5.6082 7.97288 5.59974 8.34465 5.40539 8.53968C 5.26249 8.6835 4.89803 8.85429 3.97774 8.85635C 3.97248 8.85635 3.96745 8.85474 3.96219 8.85474C 2.76637 8.85474 2.31869 8.85475 2.31869 7.21106C 2.31869 7.20648 2.31732 7.20237 2.31732 7.1978L 2.31732 6.56309L 3.93658 6.56309C 4.25234 6.56309 4.50819 6.30725 4.50819 5.99149C 4.50819 5.67574 4.25234 5.4199 3.93658 5.4199L 2.31755 5.4199L 2.31777 4.73581L 3.93658 4.73581C 4.25234 4.73581 4.50819 4.47996 4.50819 4.16421C 4.50819 3.84846 4.25234 3.59261 3.93658 3.59261L 2.318 3.59261L 2.31823 2.78894C 2.31823 2.78871 2.31823 2.78871 2.31823 2.78871C 2.31823 1.5927 2.31823 1.14503 3.96173 1.14503C 3.96745 1.14503 3.97293 1.14343 3.97865 1.1432C 5.14748 1.14343 5.58717 1.15989 5.58717 2.78666C 5.58717 3.10241 5.84302 3.35826 6.15878 3.35826C 6.47454 3.35826 6.73039 3.10241 6.73039 2.78666C 6.73039 6.54142e-07 5.11959 -2.79101e-07 3.94367 -2.79101e-07C 3.93475 -2.79101e-07 3.92675 0.00228648 3.91783 0.00251512C 1.2077 0.0194344 1.17523 1.58173 1.175 2.74756C 1.175 2.74779 1.175 2.74802 1.175 2.74802L 1.17478 3.59261L 0.571613 3.59261C 0.255854 3.59261 6.69858e-07 3.84846 6.69858e-07 4.16421C 6.69858e-07 4.47996 0.255854 4.73581 0.571613 4.73581L 1.17455 4.73581L 1.17432 5.4199L 0.571613 5.4199C 0.255854 5.4199 6.69858e-07 5.67574 6.69858e-07 5.99149C 6.69858e-07 6.30725 0.255854 6.56309 0.571613 6.56309L 1.17409 6.56309L 1.17409 7.23049C 1.17409 7.23758 1.17592 7.24421 1.17615 7.2513C 1.1917 9.98239 2.77461 9.99794 3.94344 9.99817C 3.94938 9.9984 3.9551 10 3.96127 10C 5.05534 10 5.77168 9.7924 6.21548 9.34678C 6.75485 8.80513 6.75188 8.0792 6.74868 7.37751L 6.74822 7.21289Z"/>
<path id="path15_stroke_2x" d="M 6.74822 7.21289L 4.74822 7.21289L 4.74823 7.21844L 6.74822 7.21289ZM 5.605 7.21289L 3.60499 7.21289L 3.60501 7.21828L 5.605 7.21289ZM 5.60546 7.38231L 3.60546 7.3877L 3.60548 7.3916L 5.60546 7.38231ZM 5.40539 8.53968L 3.98871 7.12794L 3.98669 7.12997L 5.40539 8.53968ZM 3.97774 8.85635L 3.97774 10.8564L 3.98221 10.8563L 3.97774 8.85635ZM 2.31732 6.56309L 2.31732 4.56309L 0.317315 4.56309L 0.317315 6.56309L 2.31732 6.56309ZM 2.31755 5.4199L 0.317546 5.41923L 0.316882 7.4199L 2.31755 7.4199L 2.31755 5.4199ZM 2.31777 4.73581L 2.31777 2.73581L 0.318435 2.73581L 0.317772 4.73514L 2.31777 4.73581ZM 2.318 3.59261L 0.318003 3.59205L 0.317438 5.59261L 2.318 5.59261L 2.318 3.59261ZM 2.31823 2.78894L 4.31823 2.78951L 4.31823 2.78894L 2.31823 2.78894ZM 3.97865 1.1432L 3.97904 -0.856803L 3.93886 -0.856811L 3.89872 -0.855205L 3.97865 1.1432ZM 3.91783 0.00251512L 3.93032 2.00248L 3.94971 2.00236L 3.96909 2.00186L 3.91783 0.00251512ZM 1.175 2.74756L -0.824995 2.74717L -0.824995 2.74756L 1.175 2.74756ZM 1.175 2.74802L 3.175 2.74855L 3.175 2.74802L 1.175 2.74802ZM 1.17478 3.59261L 1.17478 5.59261L 3.17424 5.59261L 3.17478 3.59315L 1.17478 3.59261ZM 1.17455 4.73581L 3.17455 4.73647L 3.17521 2.73581L 1.17455 2.73581L 1.17455 4.73581ZM 1.17432 5.4199L 1.17432 7.4199L 3.17366 7.4199L 3.17432 5.42056L 1.17432 5.4199ZM 1.17409 6.56309L 3.17409 6.56309L 3.17409 4.56309L 1.17409 4.56309L 1.17409 6.56309ZM 1.17615 7.2513L 3.17612 7.23991L 3.17597 7.21335L 3.17511 7.18681L 1.17615 7.2513ZM 3.94344 9.99817L 4.0203 7.99965L 3.98208 7.99818L 3.94383 7.99817L 3.94344 9.99817ZM 6.21548 9.34678L 7.63258 10.7581L 7.63267 10.758L 6.21548 9.34678ZM 6.74868 7.37751L 4.74869 7.38306L 4.7487 7.38663L 6.74868 7.37751ZM 8.74822 7.21289C 8.74822 5.79252 7.59689 4.64129 6.17661 4.64129L 6.17661 8.64129C 5.38785 8.64129 4.74822 8.00175 4.74822 7.21289L 8.74822 7.21289ZM 6.17661 4.64129C 4.75633 4.64129 3.605 5.79252 3.605 7.21289L 7.605 7.21289C 7.605 8.00175 6.96538 8.64129 6.17661 8.64129L 6.17661 4.64129ZM 3.60501 7.21828L 3.60546 7.3877L 7.60545 7.37691L 7.60499 7.20749L 3.60501 7.21828ZM 3.60548 7.3916C 3.60615 7.53449 3.60633 7.63535 3.60349 7.72794C 3.60105 7.81384 3.59716 7.84289 3.59767 7.83909C 3.59794 7.83715 3.60858 7.75294 3.65742 7.62857C 3.71048 7.49345 3.81036 7.30691 3.98871 7.12794L 6.82208 9.95142C 7.37476 9.3968 7.51257 8.73463 7.56099 8.37956C 7.6004 8.05953 7.60683 7.67889 7.60544 7.37302L 3.60548 7.3916ZM 3.98669 7.12997C 4.11207 7.00379 4.23219 6.92608 4.31714 6.88119C 4.40059 6.8371 4.45437 6.82232 4.45816 6.82129C 4.4623 6.82016 4.42929 6.82937 4.34663 6.83862C 4.26462 6.84779 4.14307 6.85597 3.97326 6.85635L 3.98221 10.8563C 5.00125 10.8541 6.08469 10.6935 6.82409 9.94939L 3.98669 7.12997ZM 3.97774 6.85635C 4.02772 6.85635 4.07222 6.85825 4.10996 6.86078C 4.14756 6.86331 4.17965 6.86656 4.20441 6.86943C 4.22893 6.87228 4.24858 6.87504 4.26021 6.87673C 4.26616 6.8776 4.2709 6.87832 4.27364 6.87874C 4.27612 6.87912 4.2782 6.87944 4.27747 6.87933C 4.27731 6.8793 4.27655 6.87918 4.27579 6.87907C 4.27503 6.87895 4.27307 6.87865 4.27171 6.87844C 4.26833 6.87792 4.26294 6.8771 4.25635 6.87614C 4.24343 6.87426 4.22249 6.87133 4.19668 6.86833C 4.17063 6.86531 4.13724 6.86194 4.09834 6.85932C 4.05929 6.85669 4.01348 6.85474 3.96219 6.85474L 3.96219 10.8547C 3.9122 10.8547 3.86771 10.8528 3.82996 10.8503C 3.79236 10.8478 3.76027 10.8445 3.73551 10.8417C 3.71099 10.8388 3.69135 10.8361 3.67971 10.8344C 3.67377 10.8335 3.66902 10.8328 3.66628 10.8324C 3.6638 10.832 3.66173 10.8317 3.66245 10.8318C 3.66261 10.8318 3.66337 10.8319 3.66413 10.832C 3.66489 10.8321 3.66685 10.8324 3.66821 10.8327C 3.6716 10.8332 3.67698 10.834 3.68357 10.8349C 3.69649 10.8368 3.71743 10.8398 3.74324 10.8428C 3.7693 10.8458 3.80269 10.8492 3.84159 10.8518C 3.88063 10.8544 3.92644 10.8563 3.97774 10.8563L 3.97774 6.85635ZM 3.96219 6.85474C 3.81271 6.85474 3.70026 6.85491 3.5989 6.85218C 3.50322 6.84975 3.45877 6.8457 3.44354 6.84383C 3.39719 6.83817 3.64676 6.85587 3.92793 7.07687C 4.07087 7.18922 4.17606 7.31846 4.24688 7.43876C 4.31312 7.55127 4.33676 7.63439 4.34182 7.65367C 4.35049 7.67805 4.33856 7.65631 4.33173 7.56906C 4.32436 7.48956 4.31869 7.374 4.31869 7.21106L 0.318686 7.21106C 0.320735 7.71249 0.376723 8.2756 0.472819 8.66895C 0.606956 9.18012 0.883187 9.7714 1.45608 10.2217C 1.99865 10.6482 2.58436 10.7686 2.95827 10.8143C 3.2895 10.851 3.66323 10.8547 3.96219 10.8547L 3.96219 6.85474ZM 4.31869 7.21106C 4.31869 7.11061 4.31115 7.02862 4.30496 6.97563C 4.30187 6.94914 4.29882 6.92764 4.29685 6.91428C 4.29585 6.90748 4.295 6.90194 4.29446 6.89847C 4.29425 6.89708 4.29393 6.89507 4.29381 6.89431C 4.29369 6.89355 4.29357 6.89279 4.29355 6.89265C 4.29344 6.89196 4.29379 6.89419 4.29421 6.89684C 4.29466 6.89976 4.29543 6.90476 4.29635 6.91101C 4.29816 6.92329 4.30105 6.94369 4.30402 6.96908C 4.30995 7.01987 4.31732 7.09964 4.31732 7.1978L 0.317315 7.1978C 0.317315 7.29824 0.324849 7.38024 0.331039 7.43323C 0.334134 7.45972 0.337177 7.48121 0.339148 7.49458C 0.34015 7.50137 0.341002 7.50692 0.34154 7.51039C 0.341756 7.51177 0.342071 7.51378 0.34219 7.51454C 0.34231 7.51531 0.34243 7.51607 0.342451 7.5162C 0.34256 7.51689 0.342207 7.51466 0.341796 7.51202C 0.341342 7.50909 0.340573 7.50409 0.339651 7.49784C 0.337841 7.48556 0.334948 7.46516 0.331982 7.43977C 0.326049 7.38898 0.318686 7.30922 0.318686 7.21106L 4.31869 7.21106ZM 4.31732 7.1978L 4.31732 6.56309L 0.317315 6.56309L 0.317315 7.1978L 4.31732 7.1978ZM 2.31732 8.56309L 3.93658 8.56309L 3.93658 4.56309L 2.31732 4.56309L 2.31732 8.56309ZM 3.93658 8.56309C 5.35686 8.56309 6.50819 7.41186 6.50819 5.99149L 2.50819 5.99149C 2.50819 5.20263 3.14781 4.56309 3.93658 4.56309L 3.93658 8.56309ZM 6.50819 5.99149C 6.50819 4.57113 5.35686 3.4199 3.93658 3.4199L 3.93658 7.4199C 3.14781 7.4199 2.50819 6.78036 2.50819 5.99149L 6.50819 5.99149ZM 3.93658 3.4199L 2.31755 3.4199L 2.31755 7.4199L 3.93658 7.4199L 3.93658 3.4199ZM 4.31755 5.42056L 4.31777 4.73647L 0.317772 4.73514L 0.317546 5.41923L 4.31755 5.42056ZM 2.31777 6.73581L 3.93658 6.73581L 3.93658 2.73581L 2.31777 2.73581L 2.31777 6.73581ZM 3.93658 6.73581C 5.35686 6.73581 6.50819 5.58457 6.50819 4.16421L 2.50819 4.16421C 2.50819 3.37534 3.14781 2.73581 3.93658 2.73581L 3.93658 6.73581ZM 6.50819 4.16421C 6.50819 2.74384 5.35686 1.59261 3.93658 1.59261L 3.93658 5.59261C 3.14781 5.59261 2.50819 4.95307 2.50819 4.16421L 6.50819 4.16421ZM 3.93658 1.59261L 2.318 1.59261L 2.318 5.59261L 3.93658 5.59261L 3.93658 1.59261ZM 4.318 3.59317L 4.31823 2.78951L 0.318229 2.78838L 0.318003 3.59205L 4.318 3.59317ZM 4.31823 2.78894C 4.31823 2.78883 4.31823 2.78877 4.31823 2.78874C 4.31823 2.78873 4.31823 2.78872 4.31823 2.78872C 4.31823 2.78872 4.31823 2.78871 4.31823 2.78871C 4.31823 2.78871 4.31823 2.78871 4.31823 2.78871C 4.31823 2.78871 4.31823 2.78871 4.31823 2.78871C 4.31823 2.78871 4.31823 2.78871 4.31823 2.78871C 4.31823 2.78871 4.31823 2.78871 4.31823 2.78871C 4.31823 2.78871 4.31823 2.78871 4.31823 2.78871C 4.31823 2.78871 4.31823 2.78871 4.31823 2.78871C 2.31823 2.78871 0.318229 2.78871 2.31823 2.78871C 4.31823 2.78871 2.31823 2.78871 0.318229 2.78871C 0.318229 2.78871 0.318229 2.78871 0.318229 2.78871C 0.318229 2.78871 0.318229 2.78871 0.318229 2.78871C 0.318229 2.78871 0.318229 2.78871 0.318229 2.78871C 0.318229 2.78871 0.318229 2.78871 0.318229 2.78871C 0.318229 2.78871 0.318229 2.78871 0.318229 2.78871C 0.318229 2.78871 0.318229 2.78871 0.318229 2.78871C 0.318229 2.78871 0.318229 2.78872 0.318229 2.78872C 0.318229 2.78872 0.318229 2.78873 0.318229 2.78874C 0.318229 2.78877 0.318229 2.78883 0.318229 2.78894L 4.31823 2.78894ZM 4.31823 2.78871C 4.31823 2.63921 4.31807 2.52673 4.3208 2.42535C 4.32322 2.32965 4.32728 2.28516 4.32914 2.2699C 4.33482 2.22346 4.31715 2.47298 4.0962 2.75414C 3.98387 2.89709 3.85462 3.0023 3.7343 3.07315C 3.62176 3.13942 3.53861 3.16308 3.51929 3.16815C 3.49494 3.17681 3.51659 3.1649 3.60381 3.15806C 3.68328 3.1507 3.79881 3.14503 3.96173 3.14503L 3.96173 -0.854974C 3.46034 -0.852924 2.89723 -0.79693 2.50387 -0.700821C 1.99267 -0.566655 1.40139 -0.290364 0.951136 0.282588C 0.524748 0.825168 0.404359 1.41087 0.358675 1.78474C 0.321924 2.11596 0.318229 2.48971 0.318229 2.78871L 4.31823 2.78871ZM 3.96173 3.14503C 4.05545 3.14503 4.13232 3.1385 4.18304 3.13296C 4.23085 3.12774 4.26912 3.12173 4.27288 3.12116C 4.28028 3.12003 4.27196 3.1213 4.26844 3.12183C 4.26206 3.12278 4.24853 3.12478 4.23121 3.12702C 4.19723 3.13142 4.13589 3.13851 4.05858 3.1416L 3.89872 -0.855205C 3.81856 -0.851999 3.75439 -0.844629 3.71759 -0.839865C 3.69886 -0.83744 3.68392 -0.835241 3.67614 -0.834076C 3.67122 -0.83334 3.6615 -0.831846 3.6675 -0.832765C 3.66923 -0.83303 3.679 -0.83453 3.6917 -0.836302C 3.70488 -0.838141 3.72469 -0.840769 3.74892 -0.843414C 3.79682 -0.848643 3.87087 -0.854974 3.96173 -0.854974L 3.96173 3.14503ZM 3.97826 3.1432C 4.12246 3.14322 4.22792 3.14326 4.32446 3.14629C 4.41432 3.14894 4.45324 3.15305 4.46272 3.1543C 4.49411 3.15842 4.24119 3.13506 3.96198 2.90878C 3.82192 2.79527 3.72064 2.66691 3.65333 2.55004C 3.59031 2.44062 3.56816 2.36084 3.56375 2.34374C 3.55496 2.31817 3.56756 2.34429 3.57433 2.43147C 3.58161 2.51083 3.58717 2.62557 3.58717 2.78666L 7.58717 2.78666C 7.58516 2.29044 7.53047 1.73328 7.43666 1.34347C 7.30676 0.840528 7.03951 0.254239 6.48047 -0.198827C 5.94523 -0.632599 5.36323 -0.761794 4.98345 -0.811661C 4.65229 -0.851127 4.2754 -0.856741 3.97904 -0.856803L 3.97826 3.1432ZM 3.58717 2.78666C 3.58717 4.20702 4.7385 5.35826 6.15878 5.35826L 6.15878 1.35826C 6.94755 1.35826 7.58717 1.99779 7.58717 2.78666L 3.58717 2.78666ZM 6.15878 5.35826C 7.57906 5.35826 8.73039 4.20702 8.73039 2.78666L 4.73039 2.78666C 4.73039 1.99779 5.37001 1.35826 6.15878 1.35826L 6.15878 5.35826ZM 8.73039 2.78666C 8.73039 1.0218 8.19975 -0.484787 6.84853 -1.34104C 5.72383 -2.05374 4.40641 -2 3.94367 -2L 3.94367 2C 4.25841 2 4.44367 2.00301 4.6025 2.02487C 4.78512 2.04535 4.72488 2.07398 4.70747 2.0377C 4.64789 2.021 4.61096 1.86895 4.62449 1.96916C 4.65374 2.03681 4.73039 2.26923 4.73039 2.78666L 8.73039 2.78666ZM 3.94367 -2C 3.85632 -2 3.7841 -1.99439 3.73482 -1.98938C 3.71022 -1.98688 3.68986 -1.98437 3.67598 -1.98256C 3.66273 -1.98084 3.65204 -1.97932 3.64977 -1.97899C 3.64426 -1.97821 3.65106 -1.97918 3.65652 -1.97993C 3.66377 -1.98092 3.67788 -1.98281 3.69587 -1.98488C 3.73183 -1.98901 3.79181 -1.99491 3.86657 -1.99683L 3.96909 2.00186C 4.04831 1.99983 4.11263 1.99356 4.15288 1.98893C 4.17301 1.98661 4.18925 1.98445 4.19863 1.98317C 4.2034 1.98251 4.20726 1.98197 4.20929 1.98168C 4.21018 1.98156 4.21117 1.98142 4.21154 1.98136C 4.21191 1.98131 4.21158 1.98136 4.21173 1.98134C 4.21157 1.98136 4.203 1.98258 4.19187 1.98403C 4.18012 1.98556 4.16188 1.98782 4.13943 1.9901C 4.09443 1.99468 4.02655 2 3.94367 2L 3.94367 -2ZM 3.90534 -1.99745C 2.17765 -1.98666 0.699898 -1.45973 -0.151034 -0.139058C -0.866837 0.971889 -0.824901 2.26503 -0.824995 2.74717L 3.175 2.74795C 3.17506 2.44681 3.17984 2.26677 3.20152 2.11852C 3.22229 1.94355 3.24634 2.01184 3.21144 2.02745C 3.16316 2.10239 3.10818 2.12408 3.14355 2.1087C 3.20841 2.08049 3.43228 2.00559 3.93032 2.00248L 3.90534 -1.99745ZM -0.824995 2.74756C -0.824995 2.74767 -0.824995 2.74779 -0.824995 2.74787C -0.824995 2.74792 -0.824995 2.74795 -0.824995 2.74798C -0.824995 2.74799 -0.824995 2.748 -0.824995 2.74801C -0.824995 2.74801 -0.824995 2.74801 -0.824995 2.74801C -0.824995 2.74802 -0.824995 2.74802 -0.824995 2.74802C -0.824995 2.74802 -0.824995 2.74802 -0.824995 2.74802C -0.824995 2.74802 -0.824995 2.74802 -0.824995 2.74802C -0.824995 2.74802 -0.824995 2.74802 -0.824995 2.74802C -0.824995 2.74802 -0.824995 2.74802 -0.824995 2.74802C -0.824995 2.74802 -0.824995 2.74802 1.175 2.74802C 3.175 2.74802 3.175 2.74802 3.175 2.74802C 3.175 2.74802 3.175 2.74802 3.175 2.74802C 3.175 2.74802 3.175 2.74802 3.175 2.74802C 3.175 2.74802 3.175 2.74802 3.175 2.74802C 3.175 2.74802 3.175 2.74802 3.175 2.74802C 3.175 2.74802 3.175 2.74802 3.175 2.74801C 3.175 2.74801 3.175 2.74801 3.175 2.74801C 3.175 2.748 3.175 2.74799 3.175 2.74798C 3.175 2.74795 3.175 2.74792 3.175 2.74787C 3.175 2.74779 3.175 2.74767 3.175 2.74756L -0.824995 2.74756ZM -0.824995 2.74748L -0.825222 3.59207L 3.17478 3.59315L 3.175 2.74855L -0.824995 2.74748ZM 1.17478 1.59261L 0.571613 1.59261L 0.571613 5.59261L 1.17478 5.59261L 1.17478 1.59261ZM 0.571613 1.59261C -0.848669 1.59261 -2 2.74384 -2 4.16421L 2 4.16421C 2 4.95307 1.36038 5.59261 0.571613 5.59261L 0.571613 1.59261ZM -2 4.16421C -2 5.58457 -0.84867 6.73581 0.571613 6.73581L 0.571613 2.73581C 1.36038 2.73581 2 3.37534 2 4.16421L -2 4.16421ZM 0.571613 6.73581L 1.17455 6.73581L 1.17455 2.73581L 0.571613 2.73581L 0.571613 6.73581ZM -0.825452 4.73514L -0.825679 5.41923L 3.17432 5.42056L 3.17455 4.73647L -0.825452 4.73514ZM 1.17432 3.4199L 0.571613 3.4199L 0.571613 7.4199L 1.17432 7.4199L 1.17432 3.4199ZM 0.571613 3.4199C -0.84867 3.4199 -2 4.57113 -2 5.99149L 2 5.99149C 2 6.78036 1.36038 7.4199 0.571613 7.4199L 0.571613 3.4199ZM -2 5.99149C -2 7.41186 -0.84867 8.56309 0.571613 8.56309L 0.571613 4.56309C 1.36038 4.56309 2 5.20263 2 5.99149L -2 5.99149ZM 0.571613 8.56309L 1.17409 8.56309L 1.17409 4.56309L 0.571613 4.56309L 0.571613 8.56309ZM -0.825909 6.56309L -0.825909 7.23049L 3.17409 7.23049L 3.17409 6.56309L -0.825909 6.56309ZM -0.825909 7.23049C -0.825909 7.31757 -0.820303 7.38926 -0.815438 7.43729C -0.810883 7.48225 -0.805604 7.51853 -0.805172 7.52157C -0.804287 7.52782 -0.805294 7.52074 -0.805879 7.5165C -0.806765 7.51007 -0.808547 7.49691 -0.81053 7.48008C -0.814452 7.44679 -0.820459 7.38868 -0.822811 7.31578L 3.17511 7.18681C 3.17264 7.11037 3.16632 7.04878 3.16199 7.01203C 3.15981 6.99347 3.1578 6.97859 3.15667 6.97044C 3.15621 6.96709 3.1556 6.96278 3.15541 6.96139C 3.15531 6.9607 3.15521 6.96002 3.15519 6.95982C 3.15516 6.95962 3.15528 6.96051 3.15524 6.96021C 3.15538 6.96119 3.15664 6.97001 3.15812 6.98149C 3.15968 6.99349 3.16193 7.01177 3.1642 7.03419C 3.16871 7.07876 3.17409 7.14696 3.17409 7.23049L -0.825909 7.23049ZM -0.823818 7.26268C -0.813905 9.00405 -0.279932 10.4894 1.05519 11.3372C 2.17091 12.0457 3.47158 11.9981 3.94305 11.9982L 3.94383 7.99817C 3.63624 7.99811 3.45343 7.99426 3.29955 7.97255C 3.12059 7.95198 3.18227 7.92478 3.19944 7.96045C 3.27439 8.00805 3.29737 8.06371 3.28273 8.03028C 3.25484 7.96662 3.17898 7.74238 3.17612 7.23991L -0.823818 7.26268ZM 3.86657 11.9967C 3.79247 11.9938 3.73375 11.9873 3.70172 11.9833C 3.68541 11.9813 3.67272 11.9795 3.66706 11.9787C 3.66499 11.9784 3.65574 11.9771 3.66424 11.9783C 3.66924 11.9791 3.70623 11.9845 3.75268 11.9893C 3.8019 11.9944 3.87402 12 3.96127 12L 3.96127 8C 4.04544 8 4.11453 8.00544 4.16076 8.01018C 4.18398 8.01256 4.20308 8.01495 4.21605 8.01666C 4.22859 8.01831 4.2382 8.01972 4.2403 8.02002C 4.24083 8.0201 4.24275 8.02038 4.24064 8.02007C 4.23965 8.01993 4.23604 8.0194 4.23307 8.01897C 4.22594 8.01796 4.21179 8.01596 4.19401 8.01376C 4.15904 8.00942 4.09738 8.00261 4.0203 7.99965L 3.86657 11.9967ZM 3.96127 12C 5.22214 12 6.61697 11.7779 7.63258 10.7581L 4.79838 7.93546C 4.81375 7.89335 4.92944 7.88878 4.77556 7.91953C 4.64543 7.95724 4.39516 8 3.96127 8L 3.96127 12ZM 7.63267 10.758C 8.84958 9.53597 8.75113 7.91048 8.74866 7.36838L 4.7487 7.38663C 4.7495 7.56193 4.75066 7.6904 4.7445 7.81726C 4.73948 7.93147 4.73062 7.99821 4.72316 8.0361C 4.71631 8.07093 4.71394 8.06388 4.72843 8.0341C 4.74499 8.00007 4.77023 7.96372 4.7983 7.93554L 7.63267 10.758ZM 8.74867 7.37195L 8.74822 7.20733L 4.74823 7.21844L 4.74869 7.38306L 8.74867 7.37195Z"/>
<path id="path16_fill" d="M 16 0C 7.17754 0 0 7.17754 0 16C 0 24.8225 7.17754 32 16 32C 24.8225 32 32 24.8225 32 16C 32 7.17754 24.8225 0 16 0ZM 16 30.5841C 7.95824 30.5841 1.41593 24.0415 1.41593 16C 1.41593 7.95852 7.95824 1.41593 16 1.41593C 24.0415 1.41593 30.5841 7.95852 30.5841 16C 30.5841 24.0415 24.0415 30.5841 16 30.5841Z"/>
<path id="path17_stroke_2x" d="M 16 -2C 6.07297 -2 -2 6.07297 -2 16L 2 16C 2 8.28211 8.28211 2 16 2L 16 -2ZM -2 16C -2 25.927 6.07297 34 16 34L 16 30C 8.28211 30 2 23.7179 2 16L -2 16ZM 16 34C 25.927 34 34 25.927 34 16L 30 16C 30 23.7179 23.7179 30 16 30L 16 34ZM 34 16C 34 6.07297 25.927 -2 16 -2L 16 2C 23.7179 2 30 8.28211 30 16L 34 16ZM 16 28.5841C 9.06284 28.5841 3.41593 22.9369 3.41593 16L -0.584071 16C -0.584071 25.146 6.85365 32.5841 16 32.5841L 16 28.5841ZM 3.41593 16C 3.41593 9.06306 9.06284 3.41593 16 3.41593L 16 -0.584071C 6.85365 -0.584071 -0.584071 6.85397 -0.584071 16L 3.41593 16ZM 16 3.41593C 22.9369 3.41593 28.5841 9.06309 28.5841 16L 32.5841 16C 32.5841 6.85395 25.1461 -0.584071 16 -0.584071L 16 3.41593ZM 28.5841 16C 28.5841 22.9369 22.9369 28.5841 16 28.5841L 16 32.5841C 25.1461 32.5841 32.5841 25.1461 32.5841 16L 28.5841 16Z"/>
<path id="path18_fill" d="M 10.199 4.34824C 10.4227 4.34824 10.6039 4.167 10.6039 3.94339C 10.6039 3.71977 10.4227 3.53854 10.199 3.53854L 8.69952 3.53854L 8.69952 0.405063C 8.69952 0.181447 8.51829 0.00021343 8.29467 0.00021343C 8.07106 0.00021343 7.88982 0.181447 7.88982 0.405063L 7.88982 3.53854L 4.96299 3.53854L 2.85609 0.189354C 2.75994 0.0365866 2.57396 -0.0342621 2.40126 0.0160279C 2.22794 0.0660015 2.10854 0.224778 2.10854 0.405063L 2.10854 3.53854L 0.40485 3.53854C 0.181233 3.53854 4.0485e-09 3.71977 4.0485e-09 3.94339C 4.0485e-09 4.167 0.181233 4.34824 0.40485 4.34824L 2.10854 4.34824L 2.10854 5.71492L 0.40485 5.71492C 0.181233 5.71492 4.0485e-09 5.89615 4.0485e-09 6.11977C 4.0485e-09 6.34339 0.181233 6.52462 0.40485 6.52462L 2.10854 6.52462L 2.10854 9.59515C 2.10854 9.81877 2.28977 10 2.51339 10C 2.73701 10 2.91824 9.81877 2.91824 9.59515L 2.91824 6.52462L 5.88477 6.52462L 7.95213 9.81086C 8.02741 9.93073 8.15804 10 8.29467 10C 8.332 10 8.36963 9.99494 8.40696 9.98419C 8.58028 9.93421 8.69952 9.77543 8.69952 9.59515L 8.69952 6.52462L 10.199 6.52462C 10.4227 6.52462 10.6039 6.34339 10.6039 6.11977C 10.6039 5.89615 10.4227 5.71492 10.199 5.71492L 8.69952 5.71492L 8.69952 4.34824L 10.199 4.34824L 10.199 4.34824ZM 2.91824 1.80907L 4.00623 3.53854L 2.91824 3.53854L 2.91824 1.80907ZM 2.91824 5.71492L 2.91824 4.34824L 4.51562 4.34824L 5.37539 5.71492L 2.91824 5.71492ZM 7.88982 8.19114L 6.84145 6.52462L 7.88982 6.52462L 7.88982 8.19114ZM 7.88982 5.71492L 6.33208 5.71492L 5.47235 4.34824L 7.88982 4.34824L 7.88982 5.71492L 7.88982 5.71492Z"/>
<path id="path19_stroke_2x" d="M 8.69952 3.53854L 6.69952 3.53854L 6.69952 5.53854L 8.69952 5.53854L 8.69952 3.53854ZM 7.88982 3.53854L 7.88982 5.53854L 9.88982 5.53854L 9.88982 3.53854L 7.88982 3.53854ZM 4.96299 3.53854L 3.2701 4.60349L 3.85831 5.53854L 4.96299 5.53854L 4.96299 3.53854ZM 2.85609 0.189354L 4.54897 -0.875604L 4.54873 -0.875994L 2.85609 0.189354ZM 2.40126 0.0160279L 2.95534 1.93775L 2.96045 1.93626L 2.40126 0.0160279ZM 2.10854 3.53854L 2.10854 5.53854L 4.10854 5.53854L 4.10854 3.53854L 2.10854 3.53854ZM 2.10854 4.34824L 4.10854 4.34824L 4.10854 2.34824L 2.10854 2.34824L 2.10854 4.34824ZM 2.10854 5.71492L 2.10854 7.71492L 4.10854 7.71492L 4.10854 5.71492L 2.10854 5.71492ZM 2.10854 6.52462L 4.10854 6.52462L 4.10854 4.52462L 2.10854 4.52462L 2.10854 6.52462ZM 2.91824 6.52462L 2.91824 4.52462L 0.918239 4.52462L 0.918239 6.52462L 2.91824 6.52462ZM 5.88477 6.52462L 7.57764 5.45964L 6.98943 4.52462L 5.88477 4.52462L 5.88477 6.52462ZM 7.95213 9.81086L 9.64587 8.74725L 9.64501 8.74588L 7.95213 9.81086ZM 8.40696 9.98419L 8.9607 11.906L 8.96103 11.9059L 8.40696 9.98419ZM 8.69952 6.52462L 8.69952 4.52462L 6.69952 4.52462L 6.69952 6.52462L 8.69952 6.52462ZM 8.69952 5.71492L 6.69952 5.71492L 6.69952 7.71492L 8.69952 7.71492L 8.69952 5.71492ZM 8.69952 4.34824L 8.69952 2.34824L 6.69952 2.34824L 6.69952 4.34824L 8.69952 4.34824ZM 2.91824 1.80907L 4.61111 0.744094L 0.918239 -5.12607L 0.918239 1.80907L 2.91824 1.80907ZM 4.00623 3.53854L 4.00623 5.53854L 7.62726 5.53854L 5.69911 2.47356L 4.00623 3.53854ZM 2.91824 3.53854L 0.918239 3.53854L 0.918239 5.53854L 2.91824 5.53854L 2.91824 3.53854ZM 2.91824 5.71492L 0.918239 5.71492L 0.918239 7.71492L 2.91824 7.71492L 2.91824 5.71492ZM 2.91824 4.34824L 2.91824 2.34824L 0.918239 2.34824L 0.918239 4.34824L 2.91824 4.34824ZM 4.51562 4.34824L 6.20849 3.28326L 5.62027 2.34824L 4.51562 2.34824L 4.51562 4.34824ZM 5.37539 5.71492L 5.37539 7.71492L 8.99642 7.71492L 7.06826 4.64994L 5.37539 5.71492ZM 7.88982 8.19114L 6.19694 9.25611L 9.88982 15.1264L 9.88982 8.19114L 7.88982 8.19114ZM 6.84145 6.52462L 6.84145 4.52462L 3.22045 4.52462L 5.14856 7.58958L 6.84145 6.52462ZM 7.88982 6.52462L 9.88982 6.52462L 9.88982 4.52462L 7.88982 4.52462L 7.88982 6.52462ZM 6.33208 5.71492L 4.63918 6.77986L 5.2274 7.71492L 6.33208 7.71492L 6.33208 5.71492ZM 5.47235 4.34824L 5.47235 2.34824L 1.85141 2.34824L 3.77945 5.41318L 5.47235 4.34824ZM 7.88982 4.34824L 9.88982 4.34824L 9.88982 2.34824L 7.88982 2.34824L 7.88982 4.34824ZM 10.199 6.34824C 11.5272 6.34824 12.6039 5.27157 12.6039 3.94339L 8.6039 3.94339C 8.6039 3.06243 9.31809 2.34824 10.199 2.34824L 10.199 6.34824ZM 12.6039 3.94339C 12.6039 2.6152 11.5272 1.53854 10.199 1.53854L 10.199 5.53854C 9.31809 5.53854 8.6039 4.82434 8.6039 3.94339L 12.6039 3.94339ZM 10.199 1.53854L 8.69952 1.53854L 8.69952 5.53854L 10.199 5.53854L 10.199 1.53854ZM 10.6995 3.53854L 10.6995 0.405063L 6.69952 0.405063L 6.69952 3.53854L 10.6995 3.53854ZM 10.6995 0.405063C 10.6995 -0.923122 9.62286 -1.99979 8.29467 -1.99979L 8.29467 2.00021C 7.41372 2.00021 6.69952 1.28602 6.69952 0.405063L 10.6995 0.405063ZM 8.29467 -1.99979C 6.96649 -1.99979 5.88982 -0.923122 5.88982 0.405063L 9.88982 0.405063C 9.88982 1.28602 9.17563 2.00021 8.29467 2.00021L 8.29467 -1.99979ZM 5.88982 0.405063L 5.88982 3.53854L 9.88982 3.53854L 9.88982 0.405063L 5.88982 0.405063ZM 7.88982 1.53854L 4.96299 1.53854L 4.96299 5.53854L 7.88982 5.53854L 7.88982 1.53854ZM 6.65587 2.47358L 4.54897 -0.875604L 1.1632 1.25431L 3.2701 4.60349L 6.65587 2.47358ZM 4.54873 -0.875994C 3.97914 -1.78097 2.87599 -2.20529 1.84207 -1.90421L 2.96045 1.93626C 2.27193 2.13677 1.54073 1.85414 1.16345 1.2547L 4.54873 -0.875994ZM 1.84719 -1.90569C 0.817358 -1.60877 0.108539 -0.666175 0.108539 0.405063L 4.10854 0.405063C 4.10854 1.11573 3.63852 1.74077 2.95534 1.93775L 1.84719 -1.90569ZM 0.108539 0.405063L 0.108539 3.53854L 4.10854 3.53854L 4.10854 0.405063L 0.108539 0.405063ZM 2.10854 1.53854L 0.40485 1.53854L 0.40485 5.53854L 2.10854 5.53854L 2.10854 1.53854ZM 0.40485 1.53854C -0.923336 1.53854 -2 2.6152 -2 3.94339L 2 3.94339C 2 4.82434 1.2858 5.53854 0.40485 5.53854L 0.40485 1.53854ZM -2 3.94339C -2 5.27157 -0.923336 6.34824 0.40485 6.34824L 0.40485 2.34824C 1.2858 2.34824 2 3.06243 2 3.94339L -2 3.94339ZM 0.40485 6.34824L 2.10854 6.34824L 2.10854 2.34824L 0.40485 2.34824L 0.40485 6.34824ZM 0.108539 4.34824L 0.108539 5.71492L 4.10854 5.71492L 4.10854 4.34824L 0.108539 4.34824ZM 2.10854 3.71492L 0.40485 3.71492L 0.40485 7.71492L 2.10854 7.71492L 2.10854 3.71492ZM 0.40485 3.71492C -0.923336 3.71492 -2 4.79158 -2 6.11977L 2 6.11977C 2 7.00072 1.2858 7.71492 0.40485 7.71492L 0.40485 3.71492ZM -2 6.11977C -2 7.44795 -0.923336 8.52462 0.40485 8.52462L 0.40485 4.52462C 1.2858 4.52462 2 5.23882 2 6.11977L -2 6.11977ZM 0.40485 8.52462L 2.10854 8.52462L 2.10854 4.52462L 0.40485 4.52462L 0.40485 8.52462ZM 0.108539 6.52462L 0.108539 9.59515L 4.10854 9.59515L 4.10854 6.52462L 0.108539 6.52462ZM 0.108539 9.59515C 0.108539 10.9233 1.1852 12 2.51339 12L 2.51339 8C 3.39434 8 4.10854 8.7142 4.10854 9.59515L 0.108539 9.59515ZM 2.51339 12C 3.84157 12 4.91824 10.9233 4.91824 9.59515L 0.918239 9.59515C 0.918239 8.7142 1.63244 8 2.51339 8L 2.51339 12ZM 4.91824 9.59515L 4.91824 6.52462L 0.918239 6.52462L 0.918239 9.59515L 4.91824 9.59515ZM 2.91824 8.52462L 5.88477 8.52462L 5.88477 4.52462L 2.91824 4.52462L 2.91824 8.52462ZM 4.1919 7.5896L 6.25926 10.8758L 9.64501 8.74588L 7.57764 5.45964L 4.1919 7.5896ZM 6.2584 10.8745C 6.70793 11.5903 7.4858 12 8.29467 12L 8.29467 8C 8.83027 8 9.34689 8.27114 9.64587 8.74725L 6.2584 10.8745ZM 8.29467 12C 8.46555 11.9955 8.78087 11.9522 8.9607 11.906L 7.85321 8.06237C 8.00083 8.01984 8.14986 8 8.29467 8L 8.29467 12ZM 8.96103 11.9059C 9.99204 11.6086 10.6995 10.6652 10.6995 9.59515L 6.69952 9.59515C 6.69952 8.88571 7.16852 8.25978 7.85288 8.06247L 8.96103 11.9059ZM 10.6995 9.59515L 10.6995 6.52462L 6.69952 6.52462L 6.69952 9.59515L 10.6995 9.59515ZM 8.69952 8.52462L 10.199 8.52462L 10.199 4.52462L 8.69952 4.52462L 8.69952 8.52462ZM 10.199 8.52462C 11.5272 8.52462 12.6039 7.44795 12.6039 6.11977L 8.6039 6.11977C 8.6039 5.23882 9.31809 4.52462 10.199 4.52462L 10.199 8.52462ZM 12.6039 6.11977C 12.6039 4.79158 11.5272 3.71492 10.199 3.71492L 10.199 7.71492C 9.31809 7.71492 8.6039 7.00072 8.6039 6.11977L 12.6039 6.11977ZM 10.199 3.71492L 8.69952 3.71492L 8.69952 7.71492L 10.199 7.71492L 10.199 3.71492ZM 10.6995 5.71492L 10.6995 4.34824L 6.69952 4.34824L 6.69952 5.71492L 10.6995 5.71492ZM 8.69952 6.34824L 10.199 6.34824L 10.199 2.34824L 8.69952 2.34824L 8.69952 6.34824ZM 1.22536 2.87404L 2.31336 4.60351L 5.69911 2.47356L 4.61111 0.744094L 1.22536 2.87404ZM 4.00623 1.53854L 2.91824 1.53854L 2.91824 5.53854L 4.00623 5.53854L 4.00623 1.53854ZM 4.91824 3.53854L 4.91824 1.80907L 0.918239 1.80907L 0.918239 3.53854L 4.91824 3.53854ZM 4.91824 5.71492L 4.91824 4.34824L 0.918239 4.34824L 0.918239 5.71492L 4.91824 5.71492ZM 2.91824 6.34824L 4.51562 6.34824L 4.51562 2.34824L 2.91824 2.34824L 2.91824 6.34824ZM 2.82274 5.41321L 3.68251 6.7799L 7.06826 4.64994L 6.20849 3.28326L 2.82274 5.41321ZM 5.37539 3.71492L 2.91824 3.71492L 2.91824 7.71492L 5.37539 7.71492L 5.37539 3.71492ZM 9.58271 7.12618L 8.53433 5.45966L 5.14856 7.58958L 6.19694 9.25611L 9.58271 7.12618ZM 6.84145 8.52462L 7.88982 8.52462L 7.88982 4.52462L 6.84145 4.52462L 6.84145 8.52462ZM 5.88982 6.52462L 5.88982 8.19114L 9.88982 8.19114L 9.88982 6.52462L 5.88982 6.52462ZM 7.88982 3.71492L 6.33208 3.71492L 6.33208 7.71492L 7.88982 7.71492L 7.88982 3.71492ZM 8.02498 4.64998L 7.16525 3.28329L 3.77945 5.41318L 4.63918 6.77986L 8.02498 4.64998ZM 5.47235 6.34824L 7.88982 6.34824L 7.88982 2.34824L 5.47235 2.34824L 5.47235 6.34824ZM 5.88982 4.34824L 5.88982 5.71492L 9.88982 5.71492L 9.88982 4.34824L 5.88982 4.34824Z"/>
</defs>
</svg>
