<svg width="48" height="48" viewBox="0 0 48 48" version="1.1" xmlns="http://www.w3.org/2000/svg" xmlns:xlink="http://www.w3.org/1999/xlink" xmlns:figma="http://www.figma.com/figma/ns">
<title>shopify</title>
<desc>Created using Figma</desc>
<g id="Canvas" transform="translate(-121 -35)" figma:type="canvas">
<mask id="mask0_alpha" mask-type="alpha">
<path d="M 121 35L 169 35L 169 83L 121 83L 121 35Z" fill="#FFFFFF"/>
</mask>
<g id="shopify" style="mix-blend-mode:normal;" mask="url(#mask0_alpha)" figma:type="frame">
<g id="Group" style="mix-blend-mode:normal;" figma:type="frame">
<g id="Vector" style="mix-blend-mode:normal;" figma:type="vector">
<mask id="mask1_outline_ins">
<use xlink:href="#path0_fill" fill="white" transform="translate(124 35)"/>
</mask>
<g mask="url(#mask1_outline_ins)">
<use xlink:href="#path1_stroke_2x" transform="translate(124 35)" fill="#3BB75E" style="mix-blend-mode:normal;"/>
</g>
</g>
<g id="Vector" style="mix-blend-mode:normal;" figma:type="vector">
<use xlink:href="#path2_stroke" transform="translate(130.585 51.4241)" fill="#3BB75E" style="mix-blend-mode:normal;"/>
</g>
<g id="Line 4" style="mix-blend-mode:normal;" figma:type="vector">
<use xlink:href="#path3_stroke" transform="translate(152 42)" fill="#3BB75E" style="mix-blend-mode:normal;"/>
</g>
</g>
</g>
</g>
<defs>
<path id="path0_fill" d="M 37.3674 9.33012C 37.3285 9.0988 37.1336 8.94458 36.9388 8.94458C 36.744 8.94458 33.0423 8.6747 33.0423 8.6747C 33.0423 8.6747 30.4706 6.13012 30.1589 5.86024C 29.8862 5.59036 29.3017 5.66747 29.1068 5.74458C 29.0679 5.74458 28.5224 5.8988 27.6651 6.16867C 26.8079 3.7012 25.2883 1.42651 22.5997 1.42651C 22.5218 1.42651 22.4438 1.42651 22.3659 1.42651C 21.5866 0.424096 20.6514 0 19.8332 0C 13.5598 0 10.5595 7.7494 9.62435 11.6819C 7.20852 12.4145 5.4551 12.9542 5.26027 13.0313C 3.8965 13.4554 3.85753 13.494 3.70167 14.7663C 3.54581 15.6916 0 42.8723 0 42.8723L 27.6651 48L 42.6667 44.8C 42.6667 44.8 37.4064 9.6 37.3674 9.33012ZM 26.1065 6.63133C 25.4052 6.86265 24.6259 7.09398 23.7686 7.36386C 23.7686 7.20964 23.7686 7.05542 23.7686 6.86265C 23.7686 5.32048 23.5349 4.08675 23.2231 3.12289C 24.6259 3.27711 25.5221 4.81928 26.1065 6.63133ZM 21.5087 3.39277C 21.8983 4.35663 22.1321 5.70602 22.1321 7.55663C 22.1321 7.63374 22.1321 7.7494 22.1321 7.82651C 20.6125 8.28916 18.937 8.79036 17.3005 9.29157C 18.2356 5.78313 19.989 4.04819 21.5087 3.39277ZM 19.6384 1.65783C 19.9111 1.65783 20.1839 1.73494 20.4566 1.92771C 18.4694 2.85301 16.2874 5.20482 15.3912 9.90843C 14.0664 10.3325 12.7805 10.7181 11.5726 11.0651C 12.6247 7.47952 15.1574 1.65783 19.6384 1.65783Z"/>
<path id="path1_stroke_2x" d="M 37.3674 9.33012L 39.3469 9.04431L 39.3435 9.02108L 39.3396 8.99793L 37.3674 9.33012ZM 33.0423 8.6747L 31.6356 10.0964L 32.1605 10.6157L 32.8969 10.6694L 33.0423 8.6747ZM 30.1589 5.86024L 28.7522 7.28193L 28.7995 7.32873L 28.8498 7.37229L 30.1589 5.86024ZM 29.1068 5.74458L 29.1068 7.74458L 29.4882 7.74458L 29.8429 7.60422L 29.1068 5.74458ZM 27.6651 6.16867L 25.7759 6.82502L 26.4133 8.65958L 28.2657 8.07637L 27.6651 6.16867ZM 22.3659 1.42651L 20.7869 2.65404L 21.3875 3.42651L 22.3659 3.42651L 22.3659 1.42651ZM 9.62435 11.6819L 10.2047 13.5959L 11.3043 13.2625L 11.5701 12.1446L 9.62435 11.6819ZM 5.26027 13.0313L 5.85417 14.9411L 5.92617 14.9187L 5.99629 14.891L 5.26027 13.0313ZM 3.70167 14.7663L 5.67389 15.0985L 5.68136 15.0541L 5.68683 15.0095L 3.70167 14.7663ZM 0 42.8723L -1.9832 42.6136L -2.22841 44.4933L -0.36449 44.8388L 0 42.8723ZM 27.6651 48L 27.3007 49.9665L 27.6926 50.0391L 28.0824 49.956L 27.6651 48ZM 42.6667 44.8L 43.0839 46.756L 44.9226 46.3638L 44.6447 44.5044L 42.6667 44.8ZM 26.1065 6.63133L 26.733 8.53069L 28.6199 7.90834L 28.01 6.01737L 26.1065 6.63133ZM 23.7686 7.36386L 21.7686 7.36386L 21.7686 10.0903L 24.3692 9.27155L 23.7686 7.36386ZM 23.2231 3.12289L 23.4417 1.13487L 20.3689 0.797052L 21.3202 3.73833L 23.2231 3.12289ZM 21.5087 3.39277L 23.3629 2.64318L 22.5958 0.745781L 20.7166 1.5563L 21.5087 3.39277ZM 22.1321 7.82651L 22.7146 9.7398L 24.1321 9.30824L 24.1321 7.82651L 22.1321 7.82651ZM 17.3005 9.29157L 15.3679 8.77646L 14.4396 12.2594L 17.8861 11.2039L 17.3005 9.29157ZM 20.4566 1.92771L 21.3008 3.7408L 24.4274 2.28499L 21.6109 0.294448L 20.4566 1.92771ZM 15.3912 9.90843L 16.0009 11.8132L 17.1333 11.4507L 17.3558 10.2828L 15.3912 9.90843ZM 11.5726 11.0651L 9.65351 10.502L 8.62967 13.9913L 12.1248 12.9873L 11.5726 11.0651ZM 39.3396 8.99793C 39.1453 7.84409 38.1503 6.94458 36.9388 6.94458L 36.9388 10.9446C 36.117 10.9446 35.5116 10.3535 35.3952 9.66231L 39.3396 8.99793ZM 36.9388 6.94458C 36.9671 6.94338 36.0072 6.88201 35.0592 6.81467C 34.5853 6.781 34.1177 6.74735 33.7679 6.72207C 33.5931 6.70944 33.4481 6.69892 33.3466 6.69155C 33.2959 6.68787 33.2562 6.68498 33.2291 6.68301C 33.2156 6.68202 33.2052 6.68127 33.1982 6.68076C 33.1948 6.6805 33.1921 6.68031 33.1904 6.68018C 33.1895 6.68012 33.1888 6.68007 33.1884 6.68004C 33.1882 6.68002 33.188 6.68001 33.1879 6.68C 33.1878 6.68 33.1878 6.68 33.1878 6.68C 33.1878 6.67999 33.1877 6.67999 33.0423 8.6747C 32.8969 10.6694 32.8969 10.6694 32.8969 10.6694C 32.897 10.6694 32.897 10.6694 32.8971 10.6694C 32.8972 10.6694 32.8974 10.6694 32.8976 10.6695C 32.898 10.6695 32.8987 10.6695 32.8996 10.6696C 32.9014 10.6697 32.9041 10.6699 32.9076 10.6702C 32.9147 10.6707 32.9251 10.6715 32.9388 10.6725C 32.966 10.6744 33.006 10.6773 33.0569 10.681C 33.1586 10.6884 33.3043 10.699 33.4796 10.7117C 33.83 10.737 34.3 10.7708 34.7758 10.8046C 35.6491 10.8666 36.7473 10.9446 36.9388 10.9446L 36.9388 6.94458ZM 33.0423 8.6747C 34.449 7.25301 34.449 7.253 34.449 7.25297C 34.449 7.25295 34.4489 7.25292 34.4489 7.25287C 34.4488 7.25279 34.4487 7.25267 34.4485 7.25251C 34.4482 7.25219 34.4477 7.25171 34.4471 7.25108C 34.4458 7.24984 34.4439 7.24797 34.4415 7.24553C 34.4366 7.24068 34.4292 7.23343 34.4197 7.22401C 34.4007 7.20525 34.3727 7.17758 34.3371 7.14239C 34.2661 7.07214 34.1639 6.97119 34.0406 6.84946C 33.7942 6.60627 33.4613 6.27812 33.1191 5.94195C 32.4349 5.26982 31.6684 4.52289 31.468 4.3482L 28.8498 7.37229C 28.809 7.33773 29.0684 7.57766 29.3481 7.84913C 29.6298 8.12252 29.9761 8.46161 30.3159 8.79539C 30.6556 9.12911 30.9851 9.45397 31.2307 9.69632C 31.3533 9.81736 31.4545 9.91732 31.5253 9.98728C 31.5606 10.0222 31.5882 10.0495 31.607 10.0681C 31.6164 10.0774 31.6236 10.0845 31.6284 10.0893C 31.6308 10.0916 31.6326 10.0934 31.6338 10.0946C 31.6344 10.0952 31.6349 10.0957 31.6352 10.096C 31.6353 10.0961 31.6354 10.0962 31.6355 10.0963C 31.6356 10.0963 31.6356 10.0964 31.6356 10.0964C 31.6356 10.0964 31.6356 10.0964 33.0423 8.6747ZM 31.5656 4.43855C 30.8822 3.76236 30.0285 3.68174 29.6508 3.67284C 29.2288 3.6629 28.7602 3.73082 28.3708 3.88494L 29.8429 7.60422C 29.7144 7.65506 29.6361 7.66625 29.6316 7.66697C 29.619 7.67039 29.551 7.67451 29.5565 7.67173C 29.5285 7.67107 29.4431 7.6672 29.3201 7.62948C 29.1975 7.59186 28.9725 7.4999 28.7522 7.28193L 31.5656 4.43855ZM 29.1068 3.74458C 29.0179 3.7465 28.8812 3.75717 28.8316 3.76335C 28.7996 3.76794 28.7469 3.77664 28.7234 3.78095C 28.6909 3.78725 28.6405 3.79804 28.6142 3.80411C 28.5749 3.81338 28.5167 3.8281 28.4703 3.84045C 28.3875 3.86258 28.2671 3.89636 28.134 3.93509C 27.8756 4.01031 27.5041 4.12265 27.0646 4.26098L 28.2657 8.07637C 28.6835 7.94482 29.0133 7.84511 29.2517 7.77576C 29.367 7.74219 29.4439 7.72055 29.5011 7.70533C 29.5247 7.699 29.5249 7.69914 29.5236 7.69936C 29.5204 7.7001 29.4976 7.70547 29.4639 7.7118C 29.4473 7.71493 29.4144 7.7209 29.3718 7.7267C 29.3449 7.73037 29.2414 7.74458 29.1068 7.74458L 29.1068 3.74458ZM 29.5544 5.51233C 28.6597 2.93697 26.6958 -0.573494 22.5997 -0.573494L 22.5997 3.42651C 23.8808 3.42651 24.9562 4.46544 25.7759 6.82502L 29.5544 5.51233ZM 22.5997 -0.573494C 22.5218 -0.573494 22.4438 -0.573494 22.3659 -0.573494L 22.3659 3.42651C 22.4438 3.42651 22.5218 3.42651 22.5997 3.42651L 22.5997 -0.573494ZM 23.9449 0.19897C 22.8531 -1.20534 21.3695 -2 19.8332 -2L 19.8332 2C 19.9334 2 20.3201 2.05353 20.7869 2.65404L 23.9449 0.19897ZM 19.8332 -2C 15.7551 -2 12.9058 0.545664 11.0729 3.24189C 9.28457 5.90552 8.16938 9.16448 7.67861 11.2192L 11.5701 12.1446C 12.0145 10.2668 12.867 7.68484 14.381 5.49064C 15.8504 3.32903 17.6379 2 19.8332 2L 19.8332 -2ZM 9.044 9.76798C 6.70816 10.4763 4.82058 11.0544 4.52426 11.1717L 5.99629 14.891C 5.87476 14.9407 7.79291 14.3272 10.2047 13.5959L 9.044 9.76798ZM 4.66638 11.1215C 4.31988 11.2293 3.97064 11.3423 3.68864 11.4585C 3.35289 11.6059 2.84907 11.9321 2.54201 12.2421C 2.25408 12.5973 1.97644 13.1737 1.87791 13.537C 1.80709 13.8358 1.75656 14.1963 1.71651 14.5231L 5.68683 15.0095C 5.70638 14.8499 5.72106 14.7351 5.7351 14.642C 5.74922 14.5484 5.75805 14.5088 5.76045 14.4992C 5.76242 14.4912 5.75077 14.5423 5.71278 14.6229C 5.67111 14.7113 5.60667 14.8164 5.514 14.9193C 5.42312 15.0202 5.33557 15.085 5.27861 15.1211C 5.22758 15.1534 5.20446 15.1604 5.238 15.1463C 5.27163 15.1322 5.33301 15.1088 5.44272 15.0721C 5.55178 15.0356 5.68258 14.9945 5.85417 14.9411L 4.66638 11.1215ZM 1.72946 14.4341C 1.64588 14.9322 0.715371 21.9949 -0.190644 28.9063C -0.643653 32.362 -1.0918 35.789 -1.42667 38.3517C -1.59411 39.6331 -1.73324 40.6986 -1.83051 41.4437C -1.87914 41.8162 -1.91732 42.1087 -1.94333 42.308C -1.95633 42.4077 -1.9663 42.4841 -1.97301 42.5355C -1.97637 42.5613 -1.97892 42.5808 -1.98062 42.5938C -1.98148 42.6004 -1.98212 42.6053 -1.98255 42.6086C -1.98276 42.6103 -1.98293 42.6115 -1.98303 42.6123C -1.98309 42.6127 -1.98313 42.6131 -1.98316 42.6133C -1.98318 42.6135 -1.9832 42.6136 0 42.8723C 1.9832 43.131 1.98321 43.1309 1.98324 43.1307C 1.98326 43.1305 1.9833 43.1302 1.98336 43.1298C 1.98347 43.1289 1.98363 43.1277 1.98384 43.1261C 1.98427 43.1228 1.98491 43.1178 1.98576 43.1113C 1.98747 43.0983 1.99001 43.0788 1.99337 43.053C 2.00008 43.0016 2.01004 42.9252 2.02304 42.8256C 2.04905 42.6263 2.08721 42.3339 2.13584 41.9615C 2.23309 41.2165 2.37219 40.1512 2.53961 38.87C 2.87445 36.3074 3.3225 32.8813 3.77542 29.4262C 4.22835 25.9711 4.68604 22.4879 5.04026 19.8105C 5.21734 18.472 5.36835 17.3365 5.48002 16.5062C 5.59146 15.6776 5.68862 15.0124 5.67389 15.0985L 1.72946 14.4341ZM -0.36449 44.8388L 27.3007 49.9665L 28.0296 46.0335L 0.36449 40.9058L -0.36449 44.8388ZM 28.0824 49.956L 43.0839 46.756L 42.2494 42.844L 27.2479 46.044L 28.0824 49.956ZM 42.6667 44.8C 44.6447 44.5044 44.6447 44.5043 44.6446 44.504C 44.6446 44.5037 44.6445 44.5033 44.6445 44.5028C 44.6443 44.5017 44.6441 44.5001 44.6437 44.498C 44.6431 44.4937 44.6422 44.4874 44.6409 44.4789C 44.6384 44.462 44.6346 44.4367 44.6296 44.4034C 44.6197 44.3368 44.6049 44.238 44.5856 44.109C 44.5471 43.8512 44.4906 43.4729 44.4186 42.9914C 44.2747 42.0284 44.0691 40.6523 43.8222 39.0002C 43.3284 35.696 42.6697 31.2876 42.0097 26.8707C 41.3497 22.4538 40.6886 18.0286 40.1899 14.6907C 39.6913 11.3528 39.3379 8.98162 39.3469 9.04431L 35.388 9.61593C 35.4081 9.75573 36.7337 18.6281 38.0536 27.4618C 38.7136 31.8787 39.3723 36.2871 39.8661 39.5914C 40.113 41.2435 40.3186 42.6195 40.4625 43.5826C 40.5345 44.0641 40.591 44.4423 40.6295 44.7002C 40.6488 44.8292 40.6636 44.928 40.6735 44.9946C 40.6785 45.0279 40.6823 45.0532 40.6848 45.0701C 40.6861 45.0785 40.687 45.0849 40.6877 45.0892C 40.688 45.0913 40.6882 45.0929 40.6884 45.094C 40.6885 45.0945 40.6885 45.0949 40.6886 45.0952C 40.6886 45.0955 40.6886 45.0956 42.6667 44.8ZM 25.4801 4.73197C 24.8073 4.9541 24.041 5.18141 23.1681 5.45616L 24.3692 9.27155C 25.2108 9.00654 26.003 8.7712 26.733 8.53069L 25.4801 4.73197ZM 25.7686 7.36386C 25.7686 7.20964 25.7686 7.05542 25.7686 6.86265L 21.7686 6.86265C 21.7686 7.05542 21.7686 7.20964 21.7686 7.36386L 25.7686 7.36386ZM 25.7686 6.86265C 25.7599 5.13348 25.4727 3.59187 25.1261 2.50746L 21.3202 3.73833C 21.597 4.58162 21.7774 5.50749 21.7686 6.86265L 25.7686 6.86265ZM 23.0046 5.11091C 23.0948 5.10323 22.9652 5.05862 23.07 5.14286C 23.2009 5.21863 23.2213 5.2464 23.3704 5.45373C 23.6544 5.8332 23.9422 6.43625 24.2031 7.24528L 28.01 6.01737C 27.6834 5.01353 27.1707 3.87728 26.573 3.05712C 25.9032 2.16218 24.8825 1.29328 23.4417 1.13487L 23.0046 5.11091ZM 19.6545 4.14236C 19.9131 4.78203 20.1321 5.85017 20.1321 7.55663L 24.1321 7.55663C 24.1321 5.56188 23.8836 3.93122 23.3629 2.64318L 19.6545 4.14236ZM 20.1321 7.55663C 20.1321 7.63374 20.1321 7.7494 20.1321 7.82651L 24.1321 7.82651C 24.1321 7.7494 24.1321 7.63374 24.1321 7.55663L 20.1321 7.55663ZM 21.5496 5.91321C 20.0346 6.37445 18.3576 6.87614 16.7148 7.37924L 17.8861 11.2039C 19.5164 10.7046 21.1903 10.2039 22.7146 9.7398L 21.5496 5.91321ZM 19.233 9.80667C 20.0497 6.74267 21.4702 5.58747 22.3008 5.22924L 20.7166 1.5563C 18.5079 2.50891 16.4216 4.82359 15.3679 8.77646L 19.233 9.80667ZM 19.6384 3.65783C 19.5825 3.65783 19.5133 3.64932 19.4413 3.62641C 19.3696 3.60362 19.3226 3.5753 19.3023 3.56097L 21.6109 0.294448C 21.0455 -0.0699547 20.1858 -0.323222 19.6384 -0.342169L 19.6384 3.65783ZM 19.6124 0.114623C 16.913 1.37152 14.4137 4.35281 13.4265 9.5341L 17.3558 10.2828C 18.161 6.05683 20.0258 4.3345 21.3008 3.7408L 19.6124 0.114623ZM 14.7814 8.00365C 13.4743 8.42219 12.2172 8.79904 11.0204 9.1428L 12.1248 12.9873C 13.3438 12.6371 14.6585 12.2429 16.0009 11.8132L 14.7814 8.00365ZM 13.4917 11.6282C 13.9941 9.91042 14.7632 7.85474 15.9612 6.15932C 17.1338 4.47448 18.3626 3.65783 19.6384 3.65783L 19.6384 -0.342169C 16.4331 -0.342169 14.1551 1.75203 12.6781 3.87442C 11.2264 5.98623 10.2032 8.63416 9.65351 10.502L 13.4917 11.6282Z"/>
<path id="path2_stroke" d="M 15.9756 0.73253L 16.9233 1.05179L 17.1827 0.281855L 16.4822 -0.129684L 15.9756 0.73253ZM 14.1443 6.16867L 13.6841 7.05651L 14.7196 7.59319L 15.092 6.48793L 14.1443 6.16867ZM -1.4864e-07 21.4361L -0.955478 21.1411L -1.11457 21.6563L -0.77157 22.0723L -1.4864e-07 21.4361ZM 1.28584 17.2723L 1.93363 16.5105L 0.777969 15.5278L 0.330367 16.9772L 1.28584 17.2723ZM 15.028 0.413275L 13.1966 5.84942L 15.092 6.48793L 16.9233 1.05179L 15.028 0.413275ZM 14.1443 6.16867C 14.6044 5.28084 14.6042 5.28072 14.604 5.28061C 14.6039 5.28056 14.6037 5.28045 14.6035 5.28036C 14.6033 5.28026 14.6028 5.28 14.6025 5.27981C 14.602 5.27956 14.6008 5.27896 14.5998 5.27846C 14.5985 5.27776 14.5956 5.27627 14.5928 5.27487C 14.5885 5.27267 14.5802 5.26849 14.5716 5.26419C 14.5567 5.25676 14.5306 5.24394 14.5012 5.22989C 14.4473 5.20415 14.3587 5.16321 14.2551 5.1183C 14.0582 5.03328 13.749 4.91023 13.3915 4.79352C 12.6997 4.56963 11.6495 4.32722 10.5595 4.32048L 10.5595 6.32048C 11.4177 6.31374 12.16 6.49543 12.7735 6.69564C 13.0687 6.79098 13.2903 6.87997 13.4612 6.95399C 13.5414 6.9886 13.596 7.01392 13.6391 7.03457C 13.6583 7.04371 13.6693 7.04912 13.6793 7.05411C 13.6831 7.05602 13.6843 7.0566 13.6863 7.05761C 13.6867 7.05782 13.6866 7.05777 13.6863 7.05765C 13.6865 7.05774 13.6854 7.05719 13.6855 7.05723C 13.6857 7.05733 13.6848 7.05686 13.6849 7.05691C 13.6848 7.05685 13.6846 7.05675 13.6845 7.05672C 13.6843 7.05662 13.6841 7.05651 14.1443 6.16867ZM 10.5595 4.32048C 8.88165 4.32048 7.78686 4.85175 7.15254 5.67311C 6.61164 6.44808 6.52057 7.33819 6.52024 7.59518L 8.52024 7.59518C 8.51991 7.38952 8.48729 7.14228 8.73544 6.89557C 8.89015 6.69524 9.315 6.32048 10.5595 6.32048L 10.5595 4.32048ZM 6.52024 7.59518C 6.52024 8.68542 7.24799 9.46786 7.89066 10.0211C 8.55608 10.591 9.39374 11.139 10.1781 11.7522C 11.73 12.9633 13.0664 14.4018 13.0664 16.8482L 15.0664 16.8482C 15.0664 13.4729 13.1297 11.5187 11.4085 10.1755C 10.5563 9.51161 9.75747 8.99209 9.19549 8.50539C 8.61076 8.00202 8.52024 7.73868 8.52024 7.59518L 6.52024 7.59518ZM 13.0664 16.8482C 13.0664 18.9276 12.4073 20.5495 11.3797 21.6429C 10.3551 22.7331 8.90158 23.3663 7.16956 23.3663L 7.16956 25.3663C 9.41197 25.3663 11.4069 24.5343 12.8371 23.0125C 14.2643 21.4939 15.0664 19.3568 15.0664 16.8482L 13.0664 16.8482ZM 7.16956 23.3663C 4.98547 23.385 3.45173 22.7414 2.32374 22.048C 1.78055 21.7186 1.40538 21.4112 1.12614 21.1556C 0.994708 21.036 0.908641 20.9484 0.841585 20.877C 0.811689 20.8453 0.794758 20.8264 0.779541 20.809C 0.773639 20.8023 0.771781 20.8002 0.768771 20.7966C 0.768092 20.7958 0.768118 20.7958 0.768471 20.7963C 0.768241 20.796 0.769707 20.7978 0.769595 20.7976C 0.769338 20.7973 0.770604 20.7988 0.770476 20.7987C 0.770641 20.7989 0.770914 20.7992 0.770996 20.7993C 0.771279 20.7996 0.77157 20.8 -1.4864e-07 21.4361C -0.77157 22.0723 -0.77126 22.0727 -0.770941 22.0731C -0.770823 22.0732 -0.770493 22.0736 -0.770255 22.0739C -0.76998 22.0742 -0.769263 22.0751 -0.768711 22.0757C -0.76801 22.0766 -0.766342 22.0786 -0.764933 22.0803C -0.762928 22.0827 -0.758658 22.0877 -0.754621 22.0925C -0.748199 22.1 -0.735911 22.1143 -0.722959 22.1291C -0.700466 22.1546 -0.660853 22.1987 -0.615406 22.2471C -0.531777 22.3359 -0.391969 22.4772 -0.222641 22.6324C 0.0996413 22.9261 0.625541 23.3513 1.28052 23.7544C 2.54888 24.5261 4.59992 25.3475 7.16956 25.3663L 7.16956 23.3663ZM 0.955478 21.7312L 2.24132 17.5674L 0.330367 16.9772L -0.955478 21.1411L 0.955478 21.7312ZM 1.28584 17.2723C 0.638057 18.0341 0.638222 18.0343 0.638396 18.0344C 0.638467 18.0345 0.638651 18.0346 0.638792 18.0347C 0.638972 18.0349 0.639399 18.0353 0.639759 18.0356C 0.640272 18.036 0.641358 18.0369 0.642384 18.0378C 0.644016 18.0392 0.64711 18.0418 0.650365 18.0445C 0.656027 18.0492 0.665842 18.0574 0.67704 18.0667C 0.697692 18.0838 0.731345 18.1113 0.771471 18.1435C 0.848048 18.2049 0.967623 18.2986 1.11069 18.4054C 1.38881 18.6126 1.80819 18.9063 2.28249 19.1908C 3.20066 19.7399 4.54726 20.3928 5.88371 20.3928L 5.88371 18.3928C 5.11606 18.3928 4.16372 17.9854 3.30899 17.4743C 2.89683 17.2286 2.56127 16.9923 2.30605 16.8019C 2.18245 16.7098 2.09077 16.6379 2.02275 16.5833C 1.99057 16.5575 1.96859 16.5395 1.95169 16.5255C 1.94411 16.5192 1.93966 16.5155 1.93576 16.5123C 1.93423 16.511 1.93372 16.5105 1.93294 16.5099C 1.93276 16.5097 1.93275 16.5097 1.93284 16.5098C 1.93278 16.5098 1.93315 16.5101 1.93313 16.51C 1.93319 16.5101 1.93332 16.5102 1.93335 16.5102C 1.93349 16.5103 1.93363 16.5105 1.28584 17.2723ZM 5.88371 20.3928C 7.93161 20.3928 8.83196 18.7238 8.83196 17.5422L 6.83196 17.5422C 6.83196 17.6993 6.76475 17.9268 6.61271 18.1027C 6.48457 18.2509 6.27285 18.3928 5.88371 18.3928L 5.88371 20.3928ZM 8.83196 17.5422C 8.80102 16.4857 8.31034 15.5354 7.73081 14.889C 7.15481 14.2647 6.4281 13.7301 5.77955 13.1947C 4.52024 12.1564 3.45479 11.0429 3.45479 8.82892L 1.45479 8.82892C 1.45479 11.9355 3.07794 13.5593 4.5072 14.7378C 5.20294 15.3109 5.82053 15.7546 6.25275 16.2363C 6.68144 16.6959 6.86291 16.9794 6.83196 17.5422L 8.83196 17.5422ZM 3.45479 8.82892C 3.45479 6.83115 4.17627 4.88473 5.60564 3.44088C 7.02567 2.00646 9.21253 0.999999 12.274 0.999999L 12.274 -1C 8.75033 -1 6.02761 0.171847 4.18431 2.03382C 2.35036 3.88635 1.45479 6.35439 1.45479 8.82892L 3.45479 8.82892ZM 12.274 0.999999C 13.4038 0.995232 14.1875 1.15409 14.7615 1.32512C 15.0292 1.4034 15.2017 1.4721 15.3379 1.53259C 15.3974 1.55869 15.4291 1.57441 15.4594 1.59006C 15.4704 1.59571 15.4726 1.59691 15.4782 1.60003C 15.4791 1.60048 15.4776 1.59968 15.4772 1.59943C 15.4779 1.59986 15.4736 1.5974 15.474 1.59761C 15.4747 1.598 15.4714 1.59612 15.4718 1.59631C 15.4722 1.59655 15.4703 1.59544 15.4705 1.59556C 15.4703 1.59543 15.4699 1.59523 15.4698 1.59516C 15.4695 1.59495 15.4691 1.59474 15.9756 0.73253C 16.4822 -0.129684 16.4818 -0.1299 16.4814 -0.130118C 16.4813 -0.130194 16.4809 -0.130415 16.4807 -0.130568C 16.4804 -0.130732 16.4796 -0.13119 16.4791 -0.131518C 16.4784 -0.13189 16.4767 -0.132871 16.4754 -0.133612C 16.4739 -0.13453 16.47 -0.13675 16.4668 -0.138569C 16.4624 -0.141082 16.4527 -0.146512 16.4438 -0.151427C 16.43 -0.15903 16.403 -0.173567 16.3752 -0.187953C 16.3277 -0.212365 16.2428 -0.253875 16.147 -0.29645C 15.9727 -0.373302 15.6801 -0.487739 15.3292 -0.592595C 14.666 -0.787824 13.5989 -0.995233 12.274 -1L 12.274 0.999999Z"/>
<path id="path3_stroke" d="M 1.00125 -0.0499376L -0.998752 39.9501L 0.998752 40.0499L 2.99875 0.0499376L 1.00125 -0.0499376Z"/>
</defs>
</svg>
