<svg width="48" height="48" viewBox="0 0 48 48" version="1.1" xmlns="http://www.w3.org/2000/svg" xmlns:xlink="http://www.w3.org/1999/xlink" xmlns:figma="http://www.figma.com/figma/ns">
<title>sage</title>
<desc>Created using Figma</desc>
<g id="Canvas" transform="translate(-119 -188)" figma:type="canvas">
<mask id="mask0_alpha" mask-type="alpha">
<path d="M 119 188L 167 188L 167 236L 119 236L 119 188Z" fill="#FFFFFF"/>
</mask>
<g id="sage" style="mix-blend-mode:normal;" mask="url(#mask0_alpha)" figma:type="frame">
<g id="Sage" style="mix-blend-mode:normal;" figma:type="frame">
<g id="Vector" style="mix-blend-mode:normal;" figma:type="vector">
<use xlink:href="#path0_fill" transform="translate(119 202)" fill="#3BB75E" style="mix-blend-mode:normal;"/>
</g>
</g>
</g>
</g>
<defs>
<path id="path0_fill" fill-rule="evenodd" d="M 21.5523 9.50301L 21.5523 8.4719L 17.5775 8.4719C 15.6271 8.4719 14.7203 9.14286 14.7203 10.174C 14.7203 11.1305 15.5898 11.9627 17.8382 11.9627C 20.6083 11.9623 21.5523 11.714 21.5523 9.50301ZM 13.0556 2.58361L 11.6519 3.99974C 10.3476 3.21727 9.01854 2.68307 7.22982 2.68307C 5.10544 2.68307 4.39757 3.40375 4.39757 4.38476C 4.39757 5.00599 4.90691 5.61478 6.57168 5.72667L 9.30447 5.90034C 10.9937 5.98737 12.1865 6.47184 12.9565 7.21701C 13.8509 6.44698 15.1924 5.96213 16.9562 5.96213L 21.5523 5.96213L 21.5523 4.5087C 21.5523 3.16717 20.5461 2.69513 18.1614 2.69513C 16.4348 2.69513 15.3167 3.20446 14.4472 4.01217L 13.0556 2.58361ZM 37.7506 6.17385L 45.4276 6.17385C 45.4276 3.71418 43.6016 2.49697 41.5767 2.49697C 39.5517 2.49697 37.7506 3.70175 37.7506 6.17385ZM 26.2603 7.25469C 26.2976 9.5776 26.3349 9.93776 26.9309 10.5835C 27.403 11.0932 28.4216 11.6892 29.8005 11.6892C 31.142 11.6892 32.0115 11.0928 32.4835 10.5835C 33.0799 9.93776 33.1541 9.53993 33.1541 7.25469C 33.1541 4.9442 33.0799 4.54675 32.4835 3.90066C 32.0115 3.39132 31.1416 2.79496 29.8005 2.79496C 28.4216 2.79496 27.403 3.39132 26.9309 3.90066C 26.3349 4.54638 26.2355 4.91934 26.2603 7.25469ZM 24.1736 2.1613C 24.2855 2.02492 24.397 1.88817 24.5342 1.73899C 25.279 0.93203 26.7448 0 28.8937 0C 30.5829 0 31.9248 0.559067 33.1545 1.6772L 33.1545 0.174049L 36.4837 0.174049L 36.4837 1.72693C 37.8003 0.484475 39.5645 0 41.2165 0C 44.8561 0 47.9863 2.49697 47.9988 6.67076C 48.0112 7.39106 47.9246 8.67082 47.9246 8.67082L 37.7506 8.67082C 37.7506 10.9813 39.3283 11.8508 41.6015 11.8508C 42.8685 11.8508 44.4711 11.2793 45.44 10.4098L 47.6759 12.0369C 46.0488 13.6519 43.8747 14.5214 41.6637 14.5214C 39.8505 14.5214 37.9002 14.0991 36.4837 12.8069L 36.4837 13.9997C 36.4837 18.2729 33.0927 20.2357 29.3164 20.2357C 27.2048 20.2357 25.0556 19.2792 23.5897 17.863L 26.1613 16.0992C 26.9686 16.7946 28.1116 17.3786 29.3785 17.3786C 31.602 17.3786 33.1545 16.2977 33.1545 14.3101L 33.1545 12.8567C 32.1238 13.838 30.5833 14.509 28.8937 14.509C 27.0304 14.509 25.6888 13.8132 24.8691 13.1053L 24.8691 14.5339L 21.5523 14.5339L 21.5523 13.0929L 21.4902 13.0929C 20.8072 14.0743 19.6642 14.5214 17.4158 14.5214C 15.3163 14.5214 13.7141 13.9126 12.7327 12.9313C 11.4906 13.9499 9.51544 14.4966 7.25469 14.4966C 4.58405 14.4966 2.11195 13.6644 0 11.9623L 2.31048 9.99992C 3.73904 11.2047 5.30436 11.8259 7.51538 11.8259C 9.40355 11.8259 10.77 11.2047 10.77 9.99992C 10.77 8.99367 9.88803 8.69568 8.75746 8.60865L 5.82575 8.38525C 3.09333 8.18596 1.06841 6.79508 1.06841 4.36027C 1.06841 1.47829 3.73904 0 7.22982 0C 9.73922 0 11.54 0.571499 13.0431 1.49072C 14.2607 0.397827 15.8505 0.0124321 17.9998 0.0124321C 20.8693 0.0124321 23.1052 0.596363 24.1736 2.1613Z"/>
</defs>
</svg>
