<svg width="48" height="48" viewBox="0 0 48 48" version="1.1" xmlns="http://www.w3.org/2000/svg" xmlns:xlink="http://www.w3.org/1999/xlink" xmlns:figma="http://www.figma.com/figma/ns">
<title>woocommerce</title>
<desc>Created using Figma</desc>
<g id="Canvas" transform="translate(-119 -113)" figma:type="canvas">
<mask id="mask0_alpha" mask-type="alpha">
<path d="M 119 113L 167 113L 167 161L 119 161L 119 113Z" fill="#FFFFFF"/>
</mask>
<g id="woocommerce" style="mix-blend-mode:normal;" mask="url(#mask0_alpha)" figma:type="frame">
<g id="woocommerce_logo_white" style="mix-blend-mode:normal;" figma:type="frame">
<g id="Vector" style="mix-blend-mode:normal;" figma:type="vector">
<use xlink:href="#path0_fill" transform="translate(124 127)" fill="#3BB75E" style="mix-blend-mode:normal;"/>
</g>
<g id="Vector" style="mix-blend-mode:normal;" figma:type="vector">
<use xlink:href="#path1_fill" transform="translate(151.88 128.676)" fill="#3BB75E" style="mix-blend-mode:normal;"/>
</g>
<g id="Vector" style="mix-blend-mode:normal;isolation:isolate;" figma:type="vector">
<use xlink:href="#path2_fill" transform="translate(141.22 128.676)" fill="#3BB75E" style="mix-blend-mode:normal;"/>
</g>
<g id="Vector" style="mix-blend-mode:normal;" figma:type="vector">
<mask id="mask1_outline_ins">
<use xlink:href="#path3_fill" fill="white" transform="translate(119 124)"/>
</mask>
<g mask="url(#mask1_outline_ins)">
<use xlink:href="#path4_stroke_2x" transform="translate(119 124)" fill="#3BB75E" style="mix-blend-mode:normal;"/>
</g>
</g>
</g>
</g>
</g>
<defs>
<path id="path0_fill" d="M 0.286262 1.13457C 0.524287 0.840618 0.881323 0.685906 1.35737 0.654963C 2.22446 0.593079 2.71751 0.964388 2.83652 1.76889C 3.36358 5.00235 3.94164 7.74074 4.5537 9.98405L 8.27708 3.53259C 8.61711 2.94469 9.04215 2.63527 9.55221 2.60433C 10.3003 2.55791 10.7593 2.9911 10.9463 3.9039C 11.3714 5.96156 11.9154 7.70979 12.5615 9.19502C 13.0036 5.26536 13.7516 2.43414 14.8057 0.685908C 15.0608 0.252716 15.4348 0.0361216 15.9279 0.0051794C 16.3189 -0.0257628 16.6759 0.082535 16.999 0.314602C 17.322 0.546668 17.492 0.840617 17.526 1.19645C 17.543 1.47493 17.492 1.707 17.356 1.93907C 16.6929 3.05299 16.1489 4.925 15.7068 7.52414C 15.2818 10.0459 15.1288 12.0108 15.2308 13.4186C 15.2648 13.8054 15.1968 14.1458 15.0268 14.4397C 14.8227 14.7801 14.5167 14.9657 14.1257 14.9967C 13.6836 15.0276 13.2246 14.842 12.7825 14.4243C 11.2014 12.9545 9.94325 10.7576 9.02515 7.83357C 7.92004 9.81387 7.10396 11.2991 6.5769 12.2892C 5.5738 14.0375 4.72372 14.9348 4.00964 14.9812C 3.5506 15.0122 3.15956 14.6563 2.81952 13.9137C 1.95243 11.887 1.01734 7.9728 0.0142361 2.17114C -0.0367691 1.76889 0.048238 1.41305 0.286262 1.13457Z"/>
<path id="path1_fill" d="M 8.95992 1.88748C 8.34785 0.912797 7.44676 0.324893 6.23964 0.0928267C 5.9166 0.0309422 5.61057 -9.44282e-07 5.32154 -9.44282e-07C 3.68937 -9.44282e-07 2.36324 0.773555 1.32613 2.32067C 0.442043 3.63571 0 5.09 0 6.68352C 0 7.8748 0.272026 8.89589 0.816081 9.7468C 1.42814 10.7215 2.32924 11.3094 3.53636 11.5415C 3.85939 11.6033 4.16543 11.6343 4.45446 11.6343C 6.10362 11.6343 7.42976 10.8607 8.44986 9.31361C 9.33395 7.9831 9.776 6.52881 9.776 4.93528C 9.776 3.72854 9.50397 2.72292 8.95992 1.88748ZM 6.8177 6.17297C 6.57967 7.19407 6.15463 7.95215 5.52556 8.4627C 5.03251 8.86495 4.57346 9.03513 4.14842 8.95777C 3.74038 8.88042 3.40035 8.55552 3.14532 7.95215C 2.9413 7.47255 2.83929 6.99295 2.83929 6.54428C 2.83929 6.15751 2.87329 5.77072 2.9583 5.41489C 3.11132 4.78057 3.40035 4.16173 3.8594 3.57383C 4.42045 2.81574 5.01551 2.50632 5.62757 2.61462C 6.03562 2.69197 6.37565 3.01687 6.63068 3.62024C 6.8347 4.09984 6.9367 4.57945 6.9367 5.02811C 6.9367 5.43036 6.8857 5.81714 6.8177 6.17297Z"/>
<path id="path2_fill" d="M 8.95991 1.88748C 8.34785 0.912797 7.42976 0.324893 6.23964 0.0928267C 5.9166 0.0309422 5.61057 -9.44282e-07 5.32154 -9.44282e-07C 3.68938 -9.44282e-07 2.36324 0.773555 1.32614 2.32067C 0.442046 3.63571 5.18852e-07 5.09 5.18852e-07 6.68352C 5.18852e-07 7.8748 0.272029 8.89589 0.816084 9.7468C 1.42815 10.7215 2.32924 11.3094 3.53636 11.5415C 3.85939 11.6033 4.16542 11.6343 4.45445 11.6343C 6.10362 11.6343 7.42976 10.8607 8.44986 9.31361C 9.33395 7.9831 9.77599 6.52881 9.77599 4.93528C 9.77599 3.72854 9.50397 2.72292 8.95991 1.88748ZM 6.81769 6.17297C 6.57967 7.19407 6.15463 7.95215 5.52556 8.4627C 5.03251 8.86495 4.57347 9.03513 4.14843 8.95777C 3.74038 8.88042 3.40034 8.55552 3.14532 7.95215C 2.9413 7.47255 2.83929 6.99295 2.83929 6.54428C 2.83929 6.15751 2.8733 5.77072 2.9583 5.41489C 3.11132 4.78057 3.40035 4.16173 3.85939 3.57383C 4.42045 2.81574 5.01551 2.50632 5.62757 2.61462C 6.03561 2.69197 6.37565 3.01687 6.63067 3.62024C 6.83469 4.09984 6.93671 4.57945 6.93671 5.02811C 6.93671 5.43036 6.9027 5.81714 6.81769 6.17297Z"/>
<path id="path3_fill" fill-rule="evenodd" d="M 4.45475 2.17983e-06L 43.5258 2.17983e-06C 45.9984 2.17983e-06 48 1.82143 48 4.07143L 48 17.6429C 48 19.8929 45.9984 21.7143 43.5258 21.7143L 29.5144 21.7143L 31.4375 26L 22.9796 21.7143L 4.47437 21.7143C 2.00177 21.7143 0.00014307 19.8929 0.00014307 17.6429L 0.00014307 4.07143C -0.0194807 1.83929 1.98215 2.17983e-06 4.45475 2.17983e-06Z"/>
<path id="path4_stroke_2x" d="M 29.5144 21.7143L 29.5144 19.7143L 26.4248 19.7143L 27.6897 22.5331L 29.5144 21.7143ZM 31.4375 26L 30.5335 27.784L 35.577 30.3396L 33.2622 25.1812L 31.4375 26ZM 22.9796 21.7143L 23.8836 19.9302L 23.4574 19.7143L 22.9796 19.7143L 22.9796 21.7143ZM 0.00014307 4.07143L 2.00014 4.07143L 2.00014 4.06264L 2.00007 4.05385L 0.00014307 4.07143ZM 4.45475 2L 43.5258 2L 43.5258 -2L 4.45475 -2L 4.45475 2ZM 43.5258 2C 45.0755 2 46 3.09938 46 4.07143L 50 4.07143C 50 0.543477 46.9212 -2 43.5258 -2L 43.5258 2ZM 46 4.07143L 46 17.6429L 50 17.6429L 50 4.07143L 46 4.07143ZM 46 17.6429C 46 18.6149 45.0755 19.7143 43.5258 19.7143L 43.5258 23.7143C 46.9212 23.7143 50 21.1708 50 17.6429L 46 17.6429ZM 43.5258 19.7143L 29.5144 19.7143L 29.5144 23.7143L 43.5258 23.7143L 43.5258 19.7143ZM 27.6897 22.5331L 29.6128 26.8188L 33.2622 25.1812L 31.3391 20.8955L 27.6897 22.5331ZM 32.3415 24.216L 23.8836 19.9302L 22.0756 23.4983L 30.5335 27.784L 32.3415 24.216ZM 22.9796 19.7143L 4.47437 19.7143L 4.47437 23.7143L 22.9796 23.7143L 22.9796 19.7143ZM 4.47437 19.7143C 2.9246 19.7143 2.00014 18.6149 2.00014 17.6429L -1.99986 17.6429C -1.99986 21.1708 1.07895 23.7143 4.47437 23.7143L 4.47437 19.7143ZM 2.00014 17.6429L 2.00014 4.07143L -1.99986 4.07143L -1.99986 17.6429L 2.00014 17.6429ZM 2.00007 4.05385C 1.99179 3.11225 2.90562 2 4.45475 2L 4.45475 -2C 1.05868 -2 -2.03075 0.566325 -1.99978 4.08901L 2.00007 4.05385Z"/>
</defs>
</svg>
