<svg width="48" height="48" viewBox="0 0 48 48" version="1.1" xmlns="http://www.w3.org/2000/svg" xmlns:xlink="http://www.w3.org/1999/xlink" xmlns:figma="http://www.figma.com/figma/ns">
<title>xero</title>
<desc>Created using Figma</desc>
<g id="Canvas" transform="translate(-119 -267)" figma:type="canvas">
<mask id="mask0_alpha" mask-type="alpha">
<path d="M 119 267L 167 267L 167 315L 119 315L 119 267Z" fill="#FFFFFF"/>
</mask>
<g id="xero" style="mix-blend-mode:normal;" mask="url(#mask0_alpha)" figma:type="frame">
<g id="Vector" style="mix-blend-mode:normal;" figma:type="vector">
<mask id="mask1_outline_ins">
<use xlink:href="#path0_fill" fill="white" transform="translate(119 267)"/>
</mask>
<g mask="url(#mask1_outline_ins)">
<use xlink:href="#path1_stroke_2x" transform="translate(119 267)" fill="#3BB75E" style="mix-blend-mode:normal;"/>
</g>
</g>
<g id="Group" style="mix-blend-mode:normal;" figma:type="frame">
<g id="Vector" style="mix-blend-mode:normal;" figma:type="vector">
<use xlink:href="#path2_fill" transform="translate(125 286.011)" fill="#3BB75E" style="mix-blend-mode:normal;"/>
</g>
<g id="Vector" style="mix-blend-mode:normal;" figma:type="vector">
<use xlink:href="#path3_fill" transform="translate(135.403 286.063)" fill="#3BB75E" style="mix-blend-mode:normal;"/>
</g>
<g id="Vector" style="mix-blend-mode:normal;" figma:type="vector">
<use xlink:href="#path4_fill" transform="translate(150.706 286)" fill="#3BB75E" style="mix-blend-mode:normal;"/>
</g>
<g id="Vector" style="mix-blend-mode:normal;" figma:type="vector">
<use xlink:href="#path5_fill" transform="translate(146.937 286.096)" fill="#3BB75E" style="mix-blend-mode:normal;"/>
</g>
<g id="Vector" style="mix-blend-mode:normal;" figma:type="vector">
<use xlink:href="#path6_fill" transform="translate(154.6 289.653)" fill="#3BB75E" style="mix-blend-mode:normal;"/>
<mask id="mask2_outline_ins">
<use xlink:href="#path6_fill" fill="white" transform="translate(154.6 289.653)"/>
</mask>
<g mask="url(#mask2_outline_ins)">
<use xlink:href="#path7_stroke_2x" transform="translate(154.6 289.653)" fill="#3BB75E" style="mix-blend-mode:normal;"/>
</g>
</g>
</g>
</g>
</g>
<defs>
<path id="path0_fill" d="M 21.8137 0.110126C 25.0914 -0.228947 28.4821 0.223151 31.6468 1.35339C 36.3938 2.93573 40.6887 6.21344 43.5143 10.3953C 44.9837 12.5428 46.1139 15.0293 46.9051 17.5159C 48.2614 22.2629 48.0353 27.349 46.453 31.983C 45.2097 35.5997 43.0622 38.8775 40.3497 41.477C 37.298 44.3026 33.5682 46.3371 29.4993 47.3543C 24.1872 48.5975 18.536 48.0324 13.6759 45.7719C 9.15497 43.6245 5.42517 40.1207 2.93863 35.7128C 1.58234 33.2262 0.678146 30.5137 0.226048 27.575C -0.226049 24.2973 -6.73677e-08 20.7936 0.904194 17.6289C 2.03444 13.2209 4.52097 9.26509 7.79868 6.21344C 11.6415 2.70968 16.6146 0.562223 21.8137 0.110126Z"/>
<path id="path1_stroke_2x" d="M 21.8137 0.110126L 21.9869 2.10261L 22.0032 2.10119L 22.0195 2.09951L 21.8137 0.110126ZM 31.6468 1.35339L 30.9741 3.23688L 30.9942 3.24403L 31.0143 3.25076L 31.6468 1.35339ZM 43.5143 10.3953L 41.8571 11.5151L 41.8637 11.5247L 43.5143 10.3953ZM 46.9051 17.5159L 48.8281 16.9664L 48.8199 16.9378L 48.8109 16.9095L 46.9051 17.5159ZM 46.453 31.983L 48.3444 32.6331L 48.3457 32.6293L 46.453 31.983ZM 40.3497 41.477L 41.7085 42.9445L 41.7211 42.9329L 41.7335 42.921L 40.3497 41.477ZM 29.4993 47.3543L 29.9551 49.3016L 29.9698 49.2982L 29.9844 49.2946L 29.4993 47.3543ZM 13.6759 45.7719L 12.8178 47.5785L 12.8251 47.582L 12.8325 47.5854L 13.6759 45.7719ZM 2.93863 35.7128L 1.18284 36.6705L 1.18967 36.683L 1.19667 36.6954L 2.93863 35.7128ZM 0.226048 27.575L -1.75519 27.8483L -1.75306 27.8637L -1.75069 27.8791L 0.226048 27.575ZM 0.904194 17.6289L 2.82724 18.1783L 2.83474 18.1521L 2.84152 18.1256L 0.904194 17.6289ZM 7.79868 6.21344L 6.45117 4.73552L 6.44347 4.74255L 6.43584 4.74965L 7.79868 6.21344ZM 22.0195 2.09951C 25.0619 1.77084 28.011 2.16687 30.9741 3.23688L 32.3195 -0.530091C 28.9532 -1.72057 25.1209 -2.22873 21.6079 -1.87926L 22.0195 2.09951ZM 31.0143 3.25076C 35.4582 4.70339 39.2344 7.5863 41.8572 11.515L 45.1715 9.27562C 42.1431 4.84057 37.3294 1.16807 32.2793 -0.543973L 31.0143 3.25076ZM 41.8637 11.5247C 43.2414 13.525 44.2473 15.7476 44.9992 18.1223L 48.8109 16.9095C 47.9805 14.3111 46.7259 11.5606 45.165 9.26597L 41.8637 11.5247ZM 44.982 18.0653C 46.275 22.4962 46.0701 26.9777 44.5603 31.3367L 48.3457 32.6293C 50.0006 27.7203 50.2477 22.0295 48.8281 16.9664L 44.982 18.0653ZM 44.5616 31.3328C 43.4137 34.7198 41.524 37.5992 38.9659 40.033L 41.7335 42.921C 44.6005 40.1557 47.0058 36.4797 48.3444 32.6331L 44.5616 31.3328ZM 38.9909 40.0095C 36.1308 42.6785 32.841 44.474 29.0143 45.414L 29.9844 49.2946C 34.2955 48.2001 38.4652 45.9267 41.7085 42.9445L 38.9909 40.0095ZM 29.0436 45.4069C 24.0571 46.6018 19.0646 46.1036 14.5194 43.9585L 12.8325 47.5854C 18.0073 49.9613 24.3173 50.5933 29.9551 49.3016L 29.0436 45.4069ZM 14.534 43.9654C 10.2823 41.9725 6.99885 38.8864 4.68059 34.7301L 1.19667 36.6954C 3.85148 41.355 8.02766 45.2765 12.8178 47.5785L 14.534 43.9654ZM 4.69442 34.7551C 3.41614 32.428 2.62215 30.0437 2.20279 27.2709L -1.75069 27.8791C -1.26585 30.9836 -0.251464 34.0245 1.18284 36.6705L 4.69442 34.7551ZM 2.20729 27.3018C 1.77263 24.2247 1.97071 21.1346 2.82724 18.1783L -1.01885 17.0794C -1.97071 20.4525 -2.22473 24.3699 -1.75519 27.8483L 2.20729 27.3018ZM 2.84152 18.1256C 3.87179 14.011 6.06202 10.5399 9.16151 7.67722L 6.43584 4.74965C 2.97992 7.99027 0.197087 12.4309 -1.03313 17.1321L 2.84152 18.1256ZM 9.14618 7.69135C 12.7266 4.38975 17.1039 2.50143 21.9869 2.10261L 21.6404 -1.88236C 16.1252 -1.37699 10.5564 1.02962 6.45117 4.73552L 9.14618 7.69135Z"/>
<path id="path2_fill" d="M 10.0931 8.40761C 8.85719 7.24978 7.62131 6.09196 6.28243 4.83764C 7.62131 3.58333 8.85719 2.4255 10.1961 1.17119C 10.4021 0.978214 10.505 0.592272 10.2991 0.302815C 10.0931 -0.083128 9.47514 -0.0831283 9.16616 0.206329C 7.82729 1.46064 6.5914 2.61847 5.25252 3.87278C 3.91364 2.71496 2.67776 1.46064 1.33888 0.302815C 1.1329 0.109843 0.926916 0.013357 0.617944 0.109843C 0.308972 0.206328 -1.82948e-15 0.495787 -1.82948e-15 0.881729C -1.82948e-15 1.17119 0.308972 1.36416 0.514953 1.55713C 1.75084 2.71496 2.88374 3.7763 4.11962 4.93413L 4.11962 5.03061C 2.88374 6.28493 1.54486 7.44276 0.205981 8.69707C -1.99508e-07 8.89004 -1.82948e-15 9.1795 -1.82948e-15 9.37247C 0.102991 9.66193 0.514953 9.8549 0.823925 9.8549C 1.1329 9.8549 1.23589 9.56544 1.44187 9.46896C 2.67776 8.31113 3.91364 7.1533 5.14953 6.09196C 6.48841 7.24978 7.7243 8.5041 9.06318 9.75841C 9.26916 9.95138 9.57813 10.0479 9.78411 9.95139C 10.0931 9.8549 10.2991 9.56544 10.2991 9.27598C 10.505 8.69707 10.2991 8.5041 10.0931 8.40761Z"/>
<path id="path3_fill" d="M 8.75339 1.40869C 8.03245 0.636805 6.89956 0.154377 5.86965 0.0578911C 4.53077 -0.13508 3.1919 0.154376 2.059 0.926262C 0.411149 2.08409 -0.412776 4.20678 0.205167 6.13649C 0.514139 7.19783 1.23507 8.16269 2.26498 8.83809C 3.19189 9.417 4.42778 9.80295 5.56068 9.70646C 6.3846 9.60998 7.20853 9.41701 7.92946 9.03106C 8.44442 8.74161 8.95937 8.25918 9.37133 7.77675C 9.57731 7.58378 9.57731 7.29432 9.47432 7.10135C 9.37133 6.71541 8.85638 6.52243 8.44442 6.7154C 8.23843 6.81189 8.13544 7.10135 7.92946 7.19783C 7.41451 7.68026 6.89956 8.0662 6.17862 8.25918C 5.04573 8.54863 3.70685 8.35566 2.88292 7.58378C 2.16199 7.00486 1.64704 6.23298 1.54405 5.46109C 3.91283 5.46109 6.28161 5.46109 8.6504 5.46109C 9.06236 5.46109 9.37133 5.46109 9.6803 5.26812C 10.0923 4.97866 10.2982 4.49623 10.1953 4.11029C 9.98928 2.95246 9.47432 2.08409 8.75339 1.40869ZM 1.54405 4.0138C 1.75003 3.14543 2.36797 2.37355 3.0889 1.89112C 4.01582 1.3122 5.25171 1.11923 6.28161 1.50518C 7.41451 1.89112 8.34143 2.85598 8.6504 4.0138C 6.28161 4.0138 3.91283 4.0138 1.54405 4.0138Z"/>
<path id="path4_fill" d="M 9.9283 3.11166C 9.51633 2.05032 8.69241 1.18195 7.6625 0.603035C 6.73559 0.120607 5.60269 -0.072365 4.46979 0.0241207C 2.82194 0.217092 1.27708 1.27844 0.556149 2.62924C -0.0617944 3.78706 -0.164784 5.13786 0.247178 6.29569C 0.55615 7.26055 1.17409 8.03244 1.99802 8.61135C 2.92493 9.28675 4.05783 9.57621 5.08774 9.57621C 6.22064 9.57621 7.35353 9.19026 8.17746 8.61135C 9.10437 7.93595 9.72232 7.06758 10.0313 6.00623C 10.4433 5.13786 10.3403 4.07652 9.9283 3.11166ZM 8.17746 6.87461C 7.6625 7.55 6.83858 8.12892 5.91166 8.2254C 5.08774 8.41838 4.26381 8.32189 3.54288 7.93595C 2.51297 7.45352 1.79204 6.58515 1.58606 5.52381C 1.38007 4.55895 1.58606 3.59409 2.204 2.82221C 2.71895 2.14681 3.54288 1.66438 4.46979 1.47141C 5.19073 1.37492 6.01465 1.47141 6.73559 1.76086C 7.76549 2.24329 8.48643 3.11166 8.7954 4.17301C 9.00138 5.04138 8.7954 6.10272 8.17746 6.87461Z"/>
<path id="path5_fill" d="M 4.11962 0.892958C 4.22261 0.507016 4.01663 0.121073 3.60467 0.0245875C 2.88374 -0.0718982 2.05981 0.121073 1.44187 0.507016C 1.33888 0.121073 0.926915 -0.0718982 0.514952 0.0245875C 0.20598 0.121073 -7.85756e-07 0.410531 -7.85756e-07 0.699988C -7.85756e-07 3.40159 -7.85756e-07 6.0067 -7.85756e-07 8.7083C -7.85756e-07 9.09424 0.308972 9.48019 0.720934 9.3837C 1.1329 9.3837 1.44187 9.09424 1.44187 8.7083C 1.44187 7.16453 1.44187 5.62076 1.44187 4.07699C 1.44187 3.49807 1.44187 2.91916 1.54486 2.34024C 1.64785 1.9543 1.85383 1.66484 2.1628 1.47187C 2.57477 1.2789 2.98673 1.18242 3.50168 1.18242C 3.81065 1.2789 4.01663 1.18242 4.11962 0.892958Z"/>
<path id="path6_fill" d="M 0.988513 0.0376235C 0.57655 0.134109 0.267577 0.423566 0.0615955 0.809508C -0.0413952 1.19545 -0.0413944 1.67788 0.267577 1.96734C 0.576549 2.35328 1.19449 2.54625 1.60645 2.35328C 2.12141 2.16031 2.53337 1.67788 2.53337 1.09897C 2.53337 0.423567 1.70945 -0.155348 0.988513 0.0376235Z"/>
<path id="path7_stroke_2x" d="M 0.988513 0.0376235L 1.44459 1.98493L 1.47524 1.97775L 1.50564 1.96961L 0.988513 0.0376235ZM 0.0615955 0.809508L -1.70283 -0.132185L -1.81136 0.0711523L -1.87078 0.293844L 0.0615955 0.809508ZM 0.267577 1.96734L 1.82889 0.717411L 1.73942 0.605656L 1.63495 0.507782L 0.267577 1.96734ZM 1.60645 2.35328L 0.904642 0.480459L 0.830133 0.50838L 0.758077 0.542132L 1.60645 2.35328ZM 0.532435 -1.90968C -0.585358 -1.64788 -1.30502 -0.877565 -1.70283 -0.132185L 1.82603 1.7512C 1.83301 1.73812 1.8153 1.77693 1.75081 1.83231C 1.67986 1.89324 1.57396 1.95463 1.44459 1.98493L 0.532435 -1.90968ZM -1.87078 0.293844C -2.02539 0.873208 -2.24925 2.35003 -1.09979 3.42689L 1.63495 0.507782C 1.90741 0.763039 1.97879 1.05015 1.99451 1.1754C 2.00245 1.23857 1.9999 1.28042 1.99832 1.29738C 1.9995 1.3084 2.00184 1.3011 1.99397 1.32517L -1.87078 0.293844ZM -1.29373 3.21726C -0.907195 3.65466 -0.167133 4.12879 0.331015 4.29523C 0.898268 4.46305 1.68474 4.52516 2.45483 4.16443L 0.758077 0.542132C 1.11621 0.374375 1.38773 0.436479 1.46577 0.459569C 1.55735 0.486661 1.69408 0.549026 1.82889 0.717411L -1.29373 3.21726ZM 2.30827 4.2261C 3.44469 3.80024 4.53337 2.66993 4.53337 1.09897L 0.533372 1.09897C 0.533372 0.899568 0.606879 0.743389 0.679064 0.649754C 0.745406 0.563698 0.822607 0.5112 0.904642 0.480459L 2.30827 4.2261ZM 4.53337 1.09897C 4.53337 -0.0696039 3.84392 -0.934877 3.16987 -1.40162C 2.48096 -1.87865 1.49716 -2.16893 0.471381 -1.89436L 1.50564 1.96961C 1.2008 2.05121 0.989428 1.9539 0.892718 1.88693C 0.810863 1.83025 0.533372 1.59214 0.533372 1.09897L 4.53337 1.09897Z"/>
</defs>
</svg>
