<?xml version="1.0" encoding="UTF-8"?>
<!DOCTYPE svg PUBLIC "-//W3C//DTD SVG 1.1//EN" "http://www.w3.org/Graphics/SVG/1.1/DTD/svg11.dtd">
<!-- Creator: CorelDRAW X7 -->
<svg xmlns="http://www.w3.org/2000/svg" xml:space="preserve" width="2in" height="0.40278in" version="1.1" style="shape-rendering:geometricPrecision; text-rendering:geometricPrecision; image-rendering:optimizeQuality; fill-rule:evenodd; clip-rule:evenodd"
viewBox="0 0 2000 403"
 xmlns:xlink="http://www.w3.org/1999/xlink">
 <defs>
  <style type="text/css">
   <![CDATA[
    .fil0 {fill:#fff}
    .fil1 {fill:#fff}
   ]]>
  </style>
 </defs>
 <g id="Layer_x0020_1">
  <metadata id="CorelCorpID_0Corel-Layer"/>
  <g id="_2902944813296">
   <path class="fil0" d="M1849 -1c83,0 151,68 151,151 0,83 -68,151 -151,151l0 0 -151 0 0 -143 0 0c0,-3 0,-5 0,-8 0,-83 68,-151 151,-151l0 0zm-93 182c-2,0 -4,-1 -6,-2 -2,-2 -2,-3 -2,-5 0,-3 0,-4 2,-6 2,-1 4,-2 6,-2 3,0 5,1 6,2 2,2 3,3 3,6 0,2 -1,4 -3,5 -1,1 -4,2 -6,2l0 0zm54 -3c-3,2 -8,3 -14,3 -7,0 -13,-2 -17,-6 -5,-5 -7,-10 -7,-17 0,-8 2,-14 7,-19 5,-4 11,-7 19,-7 6,0 10,1 12,2l0 13c-3,-3 -6,-4 -10,-4 -4,0 -7,1 -10,4 -2,2 -3,6 -3,10 0,4 1,7 3,10 2,2 6,3 10,3 3,0 7,-1 10,-3l0 11zm32 3c-8,0 -14,-2 -19,-6 -4,-5 -6,-11 -6,-18 0,-8 2,-14 7,-18 4,-5 10,-7 18,-7 8,0 14,2 19,7 4,4 6,10 6,17 0,8 -2,14 -7,18 -4,5 -10,7 -18,7l0 0zm0 -38c-3,0 -6,1 -8,4 -2,2 -3,5 -3,10 0,9 4,13 11,13 7,0 10,-4 10,-14 0,-8 -3,-13 -10,-13l0 0zm108 37l-14 0 0 -27c0,-6 -2,-10 -7,-10 -3,0 -5,1 -6,3 -2,2 -2,5 -2,8l0 26 -15 0 0 -27c0,-6 -2,-10 -7,-10 -3,0 -5,1 -6,3 -1,2 -2,5 -2,8l0 26 -15 0 0 -47 15 0 0 8 0 0c1,-3 4,-5 6,-6 3,-2 6,-3 9,-3 7,0 11,3 14,9 3,-6 8,-9 15,-9 10,0 15,6 15,19l0 29z"/>
   <path class="fil0" d="M187 73c20,-4 42,-2 61,6 17,8 32,22 42,38 12,19 15,44 11,66 -4,26 -22,48 -44,62 -2,-13 -7,-26 -14,-37 9,-8 17,-19 19,-31 3,-15 1,-31 -8,-44 -8,-11 -19,-21 -33,-24 -14,-3 -30,-1 -42,7 -14,10 -24,25 -26,43 -13,0 -27,2 -39,7 -1,-19 4,-38 15,-53 14,-20 34,-35 58,-40l0 0zm-60 100c23,-6 49,-3 70,8 16,9 29,22 38,37 12,20 15,45 9,68 -3,16 -11,30 -23,41 -11,12 -25,22 -41,26 -9,3 -19,4 -28,4 -18,0 -37,0 -55,0 0,9 0,18 -5,26 -6,12 -20,21 -35,21 0,-47 0,-95 0,-142 0,-18 6,-36 16,-51 13,-18 32,-32 54,-38l0 0zm-13 50c-10,10 -17,24 -17,39 0,19 0,39 0,58 19,0 38,0 57,0 14,0 27,-6 37,-16 10,-10 16,-25 16,-40 1,-15 -6,-30 -17,-41 -10,-10 -24,-16 -38,-16 -14,0 -28,6 -38,16l0 0zm1 76c0,-15 0,-31 0,-46 13,0 26,0 40,0 0,9 -1,19 -6,27 -7,11 -20,20 -34,19l0 0zm-115 21c14,0 28,0 43,0 0,12 -1,25 0,37 -15,0 -29,0 -43,0 0,-12 0,-25 0,-37l0 0z"/>
   <path class="fil1" d="M1066 96l7 0c26,1 47,10 64,28 17,18 25,43 25,73 0,33 -8,58 -26,77l0 0c-17,19 -39,28 -67,29l-5 0c-27,-1 -49,-10 -66,-28 -17,-19 -26,-43 -26,-73 0,-32 9,-58 26,-77 17,-19 40,-28 68,-29zm-707 203l0 -200 60 0c22,0 40,6 53,16 12,11 18,26 18,46 0,19 -6,35 -19,47l0 0c-13,13 -31,19 -53,19l-27 0 0 72 -32 0zm1282 0l0 -28 -78 0 0 -59 68 0 0 -28 -68 0 0 -57 74 0 0 -28 -107 0 0 200 111 0zm-1226 -172l-24 0 0 73 22 0c14,0 24,-4 32,-10 7,-7 11,-16 11,-28 0,-24 -14,-35 -41,-35l0 0zm212 172l-18 -50 -78 0 -17 50 -36 0 74 -200 37 0 74 200 -36 0zm-54 -157c-1,-3 -2,-7 -3,-13l-1 0c0,5 -1,9 -2,13l-27 79 60 0 -27 -79zm162 85l0 72 -33 0 0 -72 -63 -128 37 0 39 86c0,1 2,5 4,12l0 0c1,-3 3,-7 5,-12l41 -86 35 0 -65 128zm200 -19c-13,13 -30,19 -53,19l-26 0 0 72 -33 0 0 -200 60 0c23,0 41,6 53,16 13,11 19,26 19,46 0,19 -7,35 -20,47l0 0zm-55 -81l-24 0 0 73 21 0c14,0 25,-4 32,-10 8,-7 11,-16 11,-28 0,-24 -13,-35 -40,-35l0 0zm232 18c-11,-13 -25,-20 -44,-20 -18,0 -33,7 -44,21 -12,13 -17,31 -17,54 0,22 5,40 16,53 11,14 26,21 44,21 19,0 33,-7 44,-20 11,-13 17,-31 17,-54 0,-24 -5,-42 -16,-55l0 0zm213 44c-4,4 -9,8 -14,11 -5,4 -11,6 -18,8l0 0c4,3 7,5 9,7 3,3 6,5 8,8 2,2 5,5 7,9 2,3 5,7 8,11l35 56 -38 0 -32 -53c-3,-5 -6,-9 -8,-13 -3,-3 -6,-6 -9,-8 -2,-3 -5,-4 -9,-5 -3,-1 -7,-2 -11,-2l-13 0 0 81 -33 0 0 -200 65 0c9,0 18,1 26,4 8,2 15,5 20,10 6,4 11,10 14,17 3,6 5,14 5,23 0,7 -1,14 -3,20 -2,6 -5,11 -9,16l0 0zm-32 -55c-6,-5 -14,-8 -26,-8l-27 0 0 65 27 0c5,0 10,-1 14,-2 4,-2 8,-4 11,-7 3,-3 6,-7 8,-11 1,-4 2,-9 2,-14 0,-10 -3,-17 -9,-23l0 0zm146 -7l0 172 -33 0 0 -172 -57 0 0 -28 147 0 0 28 -57 0z"/>
  </g>
 </g>
</svg>
