<?xml version="1.0" encoding="UTF-8"?>
<svg width="104px" height="104px" viewBox="0 0 104 104" version="1.1" xmlns="http://www.w3.org/2000/svg" xmlns:xlink="http://www.w3.org/1999/xlink">
    <!-- Generator: Sketch 41.2 (35397) - http://www.bohemiancoding.com/sketch -->
    <title>spinner</title>
    <desc>Created with Sketch.</desc>
    <defs></defs>
    <g id="Page-1" stroke="none" stroke-width="1" fill="none" fill-rule="evenodd">
        <g id="spinner" fill="#FFFFFF">
            <g id="Group" transform="translate(2.000000, 2.000000)">
                <path d="M53.89,96.129 C53.89,98.267 52.157,100 50.019,100 L49.982,100 C47.844,100 46.111,98.267 46.111,96.129 L46.111,78.49 C46.111,76.351 47.844,74.619 49.982,74.619 L50.019,74.619 C52.157,74.619 53.89,76.351 53.89,78.49 L53.89,96.129 Z" id="Shape"></path>
                <path d="M53.89,21.511 C53.89,23.649 52.157,25.382 50.019,25.382 L49.982,25.382 C47.844,25.382 46.111,23.649 46.111,21.511 L46.111,3.871 C46.11,1.733 47.844,0 49.981,0 L50.018,0 C52.156,0 53.889,1.733 53.889,3.871 L53.889,21.511 L53.89,21.511 Z" id="Shape"></path>
                <path d="M3.871,53.89 C1.733,53.89 0,52.156 0,50.019 L0,49.982 C0,47.844 1.733,46.111 3.871,46.111 L21.51,46.111 C23.648,46.111 25.381,47.844 25.381,49.982 L25.381,50.019 C25.381,52.157 23.648,53.89 21.51,53.89 L3.871,53.89 Z" id="Shape"></path>
                <path d="M78.489,53.89 C76.351,53.89 74.619,52.157 74.619,50.019 L74.619,49.982 C74.619,47.844 76.351,46.111 78.489,46.111 L96.129,46.111 C98.267,46.111 100,47.844 100,49.982 L100,50.019 C100,52.157 98.267,53.89 96.129,53.89 L78.489,53.89 Z" id="Shape"></path>
                <path d="M76.434,88.004 C77.502,89.856 76.869,92.224 75.017,93.292 L74.985,93.311 C73.133,94.38 70.765,93.746 69.697,91.894 L60.878,76.619 C59.809,74.767 60.442,72.4 62.295,71.331 L62.327,71.312 C64.178,70.243 66.546,70.877 67.615,72.729 L76.434,88.004 Z" id="Shape"></path>
                <path d="M39.124,23.383 C40.193,25.235 39.558,27.602 37.707,28.671 L37.675,28.69 C35.823,29.759 33.456,29.125 32.387,27.273 L23.568,11.997 C22.499,10.145 23.133,7.778 24.985,6.709 L25.017,6.691 C26.869,5.622 29.236,6.256 30.305,8.108 L39.124,23.383 Z" id="Shape"></path>
                <path d="M11.996,76.433 C10.144,77.502 7.777,76.868 6.708,75.016 L6.69,74.984 C5.621,73.132 6.255,70.764 8.107,69.696 L23.383,60.877 C25.235,59.808 27.602,60.441 28.671,62.294 L28.69,62.326 C29.759,64.177 29.125,66.544 27.273,67.613 L11.996,76.433 Z" id="Shape"></path>
                <path d="M76.617,39.124 C74.765,40.193 72.399,39.559 71.33,37.707 L71.311,37.675 C70.242,35.823 70.875,33.456 72.728,32.387 L88.003,23.567 C89.855,22.498 92.223,23.132 93.291,24.984 L93.311,25.016 C94.379,26.868 93.745,29.235 91.893,30.304 L76.617,39.124 Z" id="Shape"></path>
                <path d="M91.894,69.696 C93.746,70.764 94.38,73.133 93.311,74.984 L93.292,75.016 C92.224,76.867 89.855,77.501 88.004,76.433 L72.729,67.614 C70.877,66.545 70.243,64.177 71.312,62.326 L71.33,62.293 C72.399,60.441 74.768,59.808 76.619,60.877 L91.894,69.696 Z" id="Shape"></path>
                <path d="M27.272,32.387 C29.123,33.456 29.757,35.824 28.689,37.675 L28.67,37.707 C27.601,39.559 25.234,40.193 23.382,39.124 L8.106,30.304 C6.254,29.235 5.62,26.868 6.689,25.016 L6.708,24.984 C7.777,23.132 10.144,22.498 11.996,23.567 L27.272,32.387 Z" id="Shape"></path>
                <path d="M30.303,91.894 C29.235,93.746 26.867,94.38 25.015,93.312 L24.984,93.292 C23.132,92.224 22.498,89.855 23.567,88.005 L32.386,72.729 C33.455,70.877 35.823,70.243 37.674,71.312 L37.706,71.331 C39.558,72.4 40.192,74.768 39.123,76.618 L30.303,91.894 Z" id="Shape"></path>
                <path d="M67.613,27.272 C66.544,29.124 64.176,29.757 62.325,28.689 L62.294,28.67 C60.441,27.601 59.807,25.234 60.877,23.382 L69.695,8.106 C70.764,6.254 73.133,5.62 74.983,6.689 L75.016,6.707 C76.867,7.776 77.501,10.144 76.432,11.995 L67.613,27.272 Z" id="Shape"></path>
            </g>
        </g>
    </g>
</svg>