<?xml version="1.0" encoding="UTF-8"?>
<svg width="68px" height="68px" viewBox="0 0 68 68" version="1.1" xmlns="http://www.w3.org/2000/svg" xmlns:xlink="http://www.w3.org/1999/xlink">
    <!-- Generator: Sketch 41.2 (35397) - http://www.bohemiancoding.com/sketch -->
    <title>success</title>
    <desc>Created with Sketch.</desc>
    <defs></defs>
    <g id="Page-1" stroke="none" stroke-width="1" fill="none" fill-rule="evenodd">
        <g id="success" fill="#3BB75E">
            <path d="M34,66 C16.326888,66 2,51.673112 2,34 C2,16.326888 16.326888,2 34,2 C51.673112,2 66,16.326888 66,34 C65.9801605,51.6648877 51.6648877,65.9801605 34,66 Z M34,4 C17.4314575,4 4,17.4314575 4,34 C4,50.5685425 17.4314575,64 34,64 C50.5685425,64 64,50.5685425 64,34 C63.981263,17.4392249 50.5607751,4.01873704 34,4 L34,4 Z" id="Shape"></path>
            <path d="M26.893,47.063 C26.6278052,47.0629434 26.3734927,46.9575494 26.186,46.77 L16.275,36.859 C15.8960278,36.4666211 15.9014476,35.8429152 16.2871814,35.4571814 C16.6729152,35.0714476 17.2966211,35.0660278 17.689,35.445 L26.889,44.645 L49.311,22.23 C49.7033789,21.8510278 50.3270848,21.8564476 50.7128186,22.2421814 C51.0985524,22.6279152 51.1039722,23.2516211 50.725,23.644 L27.6,46.77 C27.4125073,46.9575494 27.1581948,47.0629434 26.893,47.063 L26.893,47.063 Z" id="Shape"></path>
        </g>
    </g>
</svg>