<svg xmlns="http://www.w3.org/2000/svg" viewBox="0 0 100 100">
    <path d="M94.4 32.6V15.2H5.6v69.6h88.8V32.6zm-2 50.2H7.6V32.6h84.8v50.2zm0-52.2H7.6V17.2h84.8v13.4z"/>
    <path d="M14 28.4c2.4 0 4.4-2 4.4-4.4s-2-4.4-4.4-4.4c-2.4 0-4.4 2-4.4 4.4s2 4.4 4.4 4.4zm0-6.8c1.3 0 2.4 1.1 2.4 2.4 0 1.3-1.1 2.4-2.4 2.4s-2.4-1.1-2.4-2.4c0-1.3 1.1-2.4 2.4-2.4zM24.4 28.4c2.4 0 4.4-2 4.4-4.4s-2-4.4-4.4-4.4c-2.4 0-4.4 2-4.4 4.4s1.9 4.4 4.4 4.4zm0-6.8c1.3 0 2.4 1.1 2.4 2.4 0 1.3-1.1 2.4-2.4 2.4S22 25.3 22 24c0-1.3 1-2.4 2.4-2.4zM34.7 28.4c2.4 0 4.4-2 4.4-4.4s-2-4.4-4.4-4.4c-2.4 0-4.4 2-4.4 4.4s2 4.4 4.4 4.4zm0-6.8c1.3 0 2.4 1.1 2.4 2.4 0 1.3-1.1 2.4-2.4 2.4s-2.4-1.1-2.4-2.4c0-1.3 1.1-2.4 2.4-2.4zM17.4 58.1h9.3c.5 6 5.5 10.7 11.7 10.7h4.4c.6 0 1-.4 1-1V46.4c0-.6-.4-1-1-1h-4.4c-6.1 0-11.1 4.7-11.7 10.7h-9.3c-.6 0-1 .4-1 1s.4 1 1 1zm21-10.7h3.4v19.4h-3.4c-5.3 0-9.7-4.4-9.7-9.7s4.3-9.7 9.7-9.7zM50.6 61.6c-.6 0-1 .4-1 1s.4 1 1 1h5.7v4.3c0 .6.4 1 1 1h4.4c6.1 0 11.1-4.7 11.7-10.7h9.3c.6 0 1-.4 1-1s-.4-1-1-1h-9.3c-.5-6-5.5-10.7-11.7-10.7h-4.4c-.6 0-1 .4-1 1v4.3h-5.7c-.6 0-1 .4-1 1s.4 1 1 1h5.7v8.9h-5.7zm7.6-14.2h3.4c5.3 0 9.7 4.4 9.7 9.7s-4.4 9.7-9.7 9.7h-3.4V47.4z"/>
</svg>
