<svg xmlns="http://www.w3.org/2000/svg" xmlns:xlink="http://www.w3.org/1999/xlink" version="1.1" x="0px" y="0px" viewBox="0 0 100 100" style="enable-background:new 0 0 100 100;" xml:space="preserve"><g><path d="M94.4,32.6V15.2H5.6v17.4v52.2h88.8V32.6z M92.4,82.8H7.6V32.6h84.8V82.8z M92.4,30.6H7.6V17.2h84.8V30.6z"></path><path d="M14,28.4c2.4,0,4.4-2,4.4-4.4s-2-4.4-4.4-4.4c-2.4,0-4.4,2-4.4,4.4S11.6,28.4,14,28.4z M14,21.6c1.3,0,2.4,1.1,2.4,2.4   c0,1.3-1.1,2.4-2.4,2.4s-2.4-1.1-2.4-2.4C11.6,22.7,12.7,21.6,14,21.6z"></path><path d="M24.4,28.4c2.4,0,4.4-2,4.4-4.4s-2-4.4-4.4-4.4c-2.4,0-4.4,2-4.4,4.4S21.9,28.4,24.4,28.4z M24.4,21.6   c1.3,0,2.4,1.1,2.4,2.4c0,1.3-1.1,2.4-2.4,2.4S22,25.3,22,24C22,22.7,23,21.6,24.4,21.6z"></path><path d="M34.7,28.4c2.4,0,4.4-2,4.4-4.4s-2-4.4-4.4-4.4c-2.4,0-4.4,2-4.4,4.4S32.3,28.4,34.7,28.4z M34.7,21.6   c1.3,0,2.4,1.1,2.4,2.4c0,1.3-1.1,2.4-2.4,2.4s-2.4-1.1-2.4-2.4C32.3,22.7,33.4,21.6,34.7,21.6z"></path><path d="M17.4,58.1h9.3c0.5,6,5.5,10.7,11.7,10.7h4.4c0.6,0,1-0.4,1-1V46.4c0-0.6-0.4-1-1-1h-4.4c-6.1,0-11.1,4.7-11.7,10.7h-9.3   c-0.6,0-1,0.4-1,1S16.8,58.1,17.4,58.1z M38.4,47.4h3.4v19.4h-3.4c-5.3,0-9.7-4.4-9.7-9.7S33,47.4,38.4,47.4z"></path><path d="M50.6,61.6c-0.6,0-1,0.4-1,1s0.4,1,1,1h5.7v4.3c0,0.6,0.4,1,1,1h4.4c6.1,0,11.1-4.7,11.7-10.7h9.3c0.6,0,1-0.4,1-1   s-0.4-1-1-1h-9.3c-0.5-6-5.5-10.7-11.7-10.7h-4.4c-0.6,0-1,0.4-1,1v4.3h-5.7c-0.6,0-1,0.4-1,1s0.4,1,1,1h5.7v8.9H50.6z M58.2,47.4   h3.4c5.3,0,9.7,4.4,9.7,9.7s-4.4,9.7-9.7,9.7h-3.4V47.4z"></path></g></svg>