<svg width="48" height="48" viewBox="0 0 48 48" xmlns="http://www.w3.org/2000/svg" xmlns:xlink="http://www.w3.org/1999/xlink" xmlns:figma="http://www.figma.com/figma/ns"><title>calculator</title><desc>Created using Figma</desc><g transform="translate(145 -35)" figma:type="canvas"><mask id="a"><path d="M-145 35h48v48h-48V35z" fill="#FFF"/></mask><g style="mix-blend-mode:normal" mask="url(#a)" figma:type="frame"><g style="mix-blend-mode:normal" figma:type="vector" transform="translate(-145 35)" fill="#3BB75E"><use xlink:href="#b" style="mix-blend-mode:normal"/><use xlink:href="#c" style="mix-blend-mode:normal"/><use xlink:href="#d" style="mix-blend-mode:normal"/><use xlink:href="#e" style="mix-blend-mode:normal"/><use xlink:href="#f" style="mix-blend-mode:normal"/><use xlink:href="#g" style="mix-blend-mode:normal"/></g></g></g><defs><path id="b" d="M42.936 0H5.064A5.07 5.07 0 0 0 0 5.064v37.872A5.07 5.07 0 0 0 5.064 48h37.872A5.07 5.07 0 0 0 48 42.936V5.064A5.07 5.07 0 0 0 42.936 0zM23.03 45.06a1 1 0 0 1-1 1H5.064a3.128 3.128 0 0 1-3.125-3.124V25.97a1 1 0 0 1 1-1H22.03a1 1 0 0 1 1 1v19.09zm0-23.03a1 1 0 0 1-1 1H2.94a1 1 0 0 1-1-1V5.064a3.128 3.128 0 0 1 3.124-3.125H22.03a1 1 0 0 1 1 1V22.03zm23.03 20.906a3.128 3.128 0 0 1-3.124 3.125H25.97a1 1 0 0 1-1-1V25.97a1 1 0 0 1 1-1h19.09a1 1 0 0 1 1 1v16.966zm0-20.906a1 1 0 0 1-1 1H25.97a1 1 0 0 1-1-1V2.94a1 1 0 0 1 1-1h16.966a3.128 3.128 0 0 1 3.125 3.124V22.03z"/><path id="c" d="M11.408 17.374a.97.97 0 1 0 1.94 0l-.001-2.878a1 1 0 0 1 1-1h2.879a.97.97 0 0 0 0-1.94h-2.88a1 1 0 0 1-1-1V7.677a.97.97 0 0 0-1.94 0l.002 2.88a1 1 0 0 1-1 1h-2.88a.97.97 0 0 0 0 1.94l2.88-.001a1 1 0 0 1 1 1v2.878z"/><path id="d" d="M8.263 39.536a.97.97 0 0 0 1.372 0L11.67 37.5a1 1 0 0 1 1.414 0l2.037 2.036a.97.97 0 1 0 1.371-1.371l-2.036-2.036a1 1 0 0 1 0-1.414l2.036-2.037a.97.97 0 0 0-1.371-1.371l-2.037 2.036a1 1 0 0 1-1.414 0l-2.035-2.036a.97.97 0 1 0-1.371 1.371l2.035 2.037a1 1 0 0 1 0 1.414l-2.036 2.036a.97.97 0 0 0 0 1.371z"/><path id="e" d="M41.576 12.526a.97.97 0 0 0-.97-.97H30.91a.97.97 0 0 0 0 1.94h9.697a.97.97 0 0 0 .97-.97z"/><path id="f" d="M41.576 32.503a.97.97 0 0 0-.97-.97H30.91a.97.97 0 0 0 0 1.94h9.697a.97.97 0 0 0 .97-.97z"/><path id="g" d="M41.576 38.341a.97.97 0 0 0-.97-.97H30.91a.97.97 0 0 0 0 1.94h9.697a.97.97 0 0 0 .97-.97z"/></defs></svg>