<svg width="48" height="48" viewBox="0 0 48 48" xmlns="http://www.w3.org/2000/svg" xmlns:xlink="http://www.w3.org/1999/xlink" xmlns:figma="http://www.figma.com/figma/ns"><title>card</title><desc>Created using Figma</desc><g transform="translate(321 45)" figma:type="canvas"><mask id="a"><path d="M-321-45h48V3h-48v-48z" fill="#FFF"/></mask><g style="mix-blend-mode:normal" mask="url(#a)" figma:type="frame"><g style="mix-blend-mode:normal" figma:type="vector" transform="translate(-321 -39)" fill="#3BB75E"><use xlink:href="#b" style="mix-blend-mode:normal"/><use xlink:href="#c" style="mix-blend-mode:normal"/><use xlink:href="#d" style="mix-blend-mode:normal"/><use xlink:href="#e" style="mix-blend-mode:normal"/><use xlink:href="#f" style="mix-blend-mode:normal"/><use xlink:href="#g" style="mix-blend-mode:normal"/><use xlink:href="#h" style="mix-blend-mode:normal"/><use xlink:href="#i" style="mix-blend-mode:normal"/></g></g></g><defs><path id="b" fill-rule="evenodd" d="M45 2H3a1 1 0 0 0-1 1v30a1 1 0 0 0 1 1h42a1 1 0 0 0 1-1V3a1 1 0 0 0-1-1zM3 0a3 3 0 0 0-3 3v30a3 3 0 0 0 3 3h42a3 3 0 0 0 3-3V3a3 3 0 0 0-3-3H3z"/><path id="c" fill-rule="evenodd" d="M16.976 27a9 9 0 1 0 0-18 9 9 0 0 0 0 18zm0 2c6.075 0 11-4.925 11-11s-4.925-11-11-11-11 4.925-11 11 4.925 11 11 11z"/><path id="d" fill-rule="evenodd" d="M25.404 25.069c-.432.514-.91.989-1.428 1.417a10.955 10.955 0 0 0 7 2.514c6.075 0 11-4.925 11-11s-4.925-11-11-11c-2.66 0-5.098.944-7 2.514.518.428.996.903 1.428 1.417A9 9 0 1 1 30.975 27a8.962 8.962 0 0 1-5.57-1.931z"/><path id="e" d="M24.248 18.89h-4.94a.539.539 0 1 1 0-1.079h4.94a.54.54 0 0 1 0 1.079z"/><path id="f" d="M23.752 16.42h-4.444a.539.539 0 1 1 0-1.079h4.444a.54.54 0 0 1 0 1.079z"/><path id="g" d="M23.752 21.36h-4.444a.539.539 0 1 1 0-1.079h4.444a.54.54 0 0 1 0 1.079z"/><path id="h" d="M22.765 14.446h-3.457a.54.54 0 1 1 0-1.079h3.457a.539.539 0 1 1 0 1.079z"/><path id="i" d="M22.765 23.334h-3.457a.54.54 0 1 1 0-1.079h3.457a.54.54 0 1 1 0 1.079z"/></defs></svg>