<svg width="48" height="48" viewBox="0 0 48 48" xmlns="http://www.w3.org/2000/svg" xmlns:xlink="http://www.w3.org/1999/xlink" xmlns:figma="http://www.figma.com/figma/ns"><title>cards</title><desc>Created using Figma</desc><g transform="translate(145 45)" figma:type="canvas"><mask id="a"><path d="M-145-45h48V3h-48v-48z" fill="#FFF"/></mask><g style="mix-blend-mode:normal" mask="url(#a)" figma:type="frame"><g style="mix-blend-mode:normal" figma:type="vector" transform="translate(-145 -42)" fill="#3BB75E"><use xlink:href="#b" style="mix-blend-mode:normal"/><use xlink:href="#c" style="mix-blend-mode:normal"/></g></g></g><defs><path id="b" d="M44.09 11.064h-2.427l-2.195-8.167A3.882 3.882 0 0 0 37.644.524a3.88 3.88 0 0 0-2.968-.388L2.897 8.68a3.89 3.89 0 0 0-2.373 1.824 3.882 3.882 0 0 0-.388 2.966l.458 1.705c.003.013-.001.027.003.04.004.016.014.028.02.044l1.343 5c.003.012 0 .024.002.038.005.014.014.025.019.039l3.534 13.146a3.886 3.886 0 0 0 1.766 2.312 3.91 3.91 0 0 0 3.901 3.814h32.907A3.916 3.916 0 0 0 48 35.697V14.975a3.913 3.913 0 0 0-3.91-3.91zm-4.477-1.687l-6.278 1.687h-14.33l19.642-5.281.966 3.594zm.4 1.489l.054.198h-.793l.739-.198zm-38.153.408a2.36 2.36 0 0 1 1.438-1.105l31.778-8.543a2.354 2.354 0 0 1 1.797.235c.549.315.942.825 1.105 1.436l.268.997-25.178 6.77h-1.885a3.89 3.89 0 0 0-2.874 1.28l-6.415 1.725-.269-1a2.344 2.344 0 0 1 .235-1.795zm5.412 3.7v3.097L3.26 19.149l-.966-3.592 5.058-1.359c-.05.251-.079.51-.079.777zM3.66 20.64l3.613-.972v14.017a2.325 2.325 0 0 1-.267-.601L3.659 20.639zm42.8 15.058a2.37 2.37 0 0 1-2.368 2.369H11.183a2.371 2.371 0 0 1-2.369-2.369V14.975a2.371 2.371 0 0 1 2.37-2.368H44.09a2.371 2.371 0 0 1 2.369 2.368v20.722z"/><path id="c" d="M20.075 16.464h-6.923a.772.772 0 0 0 0 1.543h6.922a.771.771 0 0 0 0-1.543z"/></defs></svg>