<svg width="12" height="12" viewBox="0 0 12 12" xmlns="http://www.w3.org/2000/svg" xmlns:xlink="http://www.w3.org/1999/xlink" xmlns:figma="http://www.figma.com/figma/ns"><title>card-small</title><desc>Created using Figma</desc><g transform="translate(-34 120)" figma:type="canvas"><mask id="a"><path d="M34-120h12v12H34v-12z" fill="#FFF"/></mask><g style="mix-blend-mode:normal" mask="url(#a)" figma:type="frame"><g style="mix-blend-mode:normal" figma:type="vector" transform="translate(34 -118)" fill="#3BB75E"><use xlink:href="#b" style="mix-blend-mode:normal"/><use xlink:href="#c" style="mix-blend-mode:normal"/><use xlink:href="#d" style="mix-blend-mode:normal"/><use xlink:href="#e" style="mix-blend-mode:normal"/><use xlink:href="#f" style="mix-blend-mode:normal"/><use xlink:href="#g" style="mix-blend-mode:normal"/><use xlink:href="#h" style="mix-blend-mode:normal"/><use xlink:href="#i" style="mix-blend-mode:normal"/></g></g></g><defs><path id="b" fill-rule="evenodd" d="M11.25.5H.75A.25.25 0 0 0 .5.75v7.5c0 .138.112.25.25.25h10.5a.25.25 0 0 0 .25-.25V.75a.25.25 0 0 0-.25-.25zM.75 0A.75.75 0 0 0 0 .75v7.5c0 .414.336.75.75.75h10.5a.75.75 0 0 0 .75-.75V.75a.75.75 0 0 0-.75-.75H.75z"/><path id="c" fill-rule="evenodd" d="M4.244 6.75a2.25 2.25 0 1 0 0-4.5 2.25 2.25 0 0 0 0 4.5zm0 .5a2.75 2.75 0 1 0 0-5.5 2.75 2.75 0 0 0 0 5.5z"/><path id="d" fill-rule="evenodd" d="M6.351 6.267a2.767 2.767 0 0 1-.357.354 2.75 2.75 0 1 0 0-4.243c.13.108.25.226.357.355a2.25 2.25 0 1 1 0 3.534z"/><path id="e" d="M6.062 4.722H4.827a.135.135 0 1 1 0-.27h1.235a.135.135 0 1 1 0 .27z"/><path id="f" d="M5.938 4.105H4.827a.135.135 0 1 1 0-.27h1.111a.135.135 0 0 1 0 .27z"/><path id="g" d="M5.938 5.34H4.827a.135.135 0 0 1 0-.27h1.111a.135.135 0 1 1 0 .27z"/><path id="h" d="M5.691 3.611h-.864a.135.135 0 1 1 0-.27h.864a.135.135 0 1 1 0 .27z"/><path id="i" d="M5.691 5.833h-.864a.135.135 0 1 1 0-.27h.864a.135.135 0 0 1 0 .27z"/></defs></svg>