<svg xmlns="http://www.w3.org/2000/svg" style="height:100%;width:100%" viewBox="-1 0 86 75">
  <path fill="#3BB75E" fill-rule="evenodd" stroke="#3BB75E" stroke-width=".5" d="M77 .39347c3.86071 0 7 3.13929 7 7V47.3935c0 3.8607-3.13929 7-7 7H66.53125l1.9375 18.875c.10473.83-1.14384 1.4202-1.71875.8125L47 54.3935h-8v4.0625c0 2.7204-2.23837 4.9375-4.96875 4.9375H18.5625L7.6875 74.081c-.5969.5857-1.82228-.05-1.6875-.875l1.71875-9.8125h-2.75C2.23838 63.3935 0 61.1764 0 58.456V39.331c0-2.7205 2.23838-4.93748 4.96875-4.93748H12V7.39347c0-3.86071 3.13929-7 7-7h58zm0 2H19c-2.78731 0-5 2.21269-5 5V47.3935c0 2.7873 2.21269 5 5 5h28.40625c.26406-.01.52897.098.71875.2812L66.1875 70.706l-1.78125-17.2188c-.0521-.5539.44366-1.0961 1-1.0937H77c2.78731 0 5-2.2127 5-5V7.39347c0-2.78731-2.21269-5-5-5zM12 36.3935H4.96875C3.3067 36.3935 2 37.6958 2 39.331v19.125c0 1.6352 1.3067 2.9375 2.96875 2.9375H8.9375c.57996-.01 1.0906.5834 1 1.1562l-1.40625 7.9375L17.5 61.6747c.18233-.1763.43383-.2792.6875-.2812h15.84375C35.69331 61.3935 37 60.0912 37 58.456v-4.0625H19c-3.86071 0-7-3.1393-7-7v-11z"/>
</svg>
