<svg width="72" height="72" viewBox="0 0 72 72" version="1.1" xmlns="http://www.w3.org/2000/svg" xmlns:xlink="http://www.w3.org/1999/xlink" xmlns:figma="http://www.figma.com/figma/ns">
<title>contact</title>
<desc>Created using Figma</desc>
<g id="Canvas" transform="translate(-350 205)" figma:type="canvas">
<mask id="mask0_alpha" mask-type="alpha">
<path d="M 350 -205L 422 -205L 422 -133L 350 -133L 350 -205Z" fill="#FFFFFF"/>
</mask>
<g id="contact" mask="url(#mask0_alpha)" figma:type="frame">
<g id="chat" figma:type="frame">
<g id="Vector" figma:type="vector">
<use xlink:href="#path0_fill" transform="translate(350 -201)" fill="#3BB75E"/>
<use xlink:href="#path1_stroke" transform="translate(350 -201)" fill="#3BB75E"/>
</g>
</g>
</g>
</g>
<defs>
<path id="path0_fill" fill-rule="evenodd" d="M 66 -9.11736e-09C 69.3092 -9.11736e-09 72 2.6749 72 5.96451L 72 40.0474C 72 43.337 69.3092 46.0119 66 46.0119L 57.0268 46.0119L 58.6875 62.0948C 58.7773 62.802 57.7071 63.3049 57.2143 62.7871L 40.2857 46.0119L 33.4286 46.0119L 33.4286 49.4735C 33.4286 51.7914 31.51 53.6806 29.1696 53.6806L 15.9107 53.6806L 6.58929 62.7871C 6.07766 63.2862 5.02733 62.7445 5.14286 62.0415L 6.61607 53.6806L 4.25893 53.6806C 1.91861 53.6806 0 51.7914 0 49.4735L 0 33.1776C 0 30.8595 1.91861 28.9705 4.25893 28.9705L 10.2857 28.9705L 10.2857 5.96451C 10.2857 2.6749 12.9765 -9.11736e-09 16.2857 -9.11736e-09L 66 -9.11736e-09L 66 -9.11736e-09ZM 66 1.70414L 16.2857 1.70414C 13.8966 1.70414 12 3.58952 12 5.96451L 12 40.0474C 12 42.4224 13.8966 44.3078 16.2857 44.3078L 40.6339 44.3078C 40.8603 44.2993 41.0873 44.3913 41.25 44.5474L 56.7321 59.9113L 55.2054 45.2397C 55.1607 44.7677 55.5856 44.3057 56.0625 44.3078L 66 44.3078C 68.3891 44.3078 70.2857 42.4224 70.2857 40.0474L 70.2857 5.96451C 70.2857 3.58952 68.3891 1.70414 66 1.70414ZM 10.2857 30.6746L 4.25893 30.6746C 2.83431 30.6746 1.71429 31.7843 1.71429 33.1776L 1.71429 49.4735C 1.71429 50.8668 2.83431 51.9764 4.25893 51.9764L 7.66071 51.9764C 8.15782 51.9679 8.59551 52.4735 8.51786 52.9616L 7.3125 59.7249L 15 52.216C 15.1563 52.0658 15.3719 51.9781 15.5893 51.9764L 29.1696 51.9764C 30.5943 51.9764 31.7143 50.8668 31.7143 49.4735L 31.7143 46.0119L 16.2857 46.0119C 12.9765 46.0119 10.2857 43.337 10.2857 40.0474L 10.2857 30.6746Z"/>
<path id="path1_stroke" d="M 57.0268 46.0119L 57.0268 45.7619L 56.7496 45.7619L 56.7781 46.0376L 57.0268 46.0119ZM 58.6875 62.0948L 58.4388 62.1205L 58.4395 62.1263L 58.6875 62.0948ZM 57.2143 62.7871L 57.3955 62.6147L 57.3903 62.6095L 57.2143 62.7871ZM 40.2857 46.0119L 40.4617 45.8343L 40.3886 45.7619L 40.2857 45.7619L 40.2857 46.0119ZM 33.4286 46.0119L 33.4286 45.7619L 33.1786 45.7619L 33.1786 46.0119L 33.4286 46.0119ZM 15.9107 53.6806L 15.9107 53.4306L 15.8089 53.4306L 15.736 53.5017L 15.9107 53.6806ZM 6.58929 62.7871L 6.76385 62.9661L 6.76399 62.9659L 6.58929 62.7871ZM 5.14286 62.0415L 4.89663 61.9981L 4.89617 62.001L 5.14286 62.0415ZM 6.61607 53.6806L 6.86228 53.724L 6.91397 53.4306L 6.61607 53.4306L 6.61607 53.6806ZM 10.2857 28.9705L 10.2857 29.2205L 10.5357 29.2205L 10.5357 28.9705L 10.2857 28.9705ZM 40.6339 44.3078L 40.6339 44.558L 40.6433 44.5576L 40.6339 44.3078ZM 41.25 44.5474L 41.4261 44.3699L 41.4231 44.367L 41.25 44.5474ZM 56.7321 59.9113L 56.556 60.0888L 57.0533 60.5823L 56.9808 59.8855L 56.7321 59.9113ZM 55.2054 45.2397L 54.9565 45.2632L 54.9567 45.2656L 55.2054 45.2397ZM 56.0625 44.3078L 56.0614 44.5578L 56.0625 44.5578L 56.0625 44.3078ZM 10.2857 30.6746L 10.5357 30.6746L 10.5357 30.4246L 10.2857 30.4246L 10.2857 30.6746ZM 7.66071 51.9764L 7.66071 52.2265L 7.665 52.2264L 7.66071 51.9764ZM 8.51786 52.9616L 8.76402 53.0055L 8.76475 53.0009L 8.51786 52.9616ZM 7.3125 59.7249L 7.06638 59.681L 6.92963 60.4484L 7.48719 59.9038L 7.3125 59.7249ZM 15 52.216L 14.8267 52.0358L 14.8253 52.0372L 15 52.216ZM 15.5893 51.9764L 15.5893 51.7264L 15.5873 51.7264L 15.5893 51.9764ZM 31.7143 46.0119L 31.9643 46.0119L 31.9643 45.7619L 31.7143 45.7619L 31.7143 46.0119ZM 66 0.25C 69.1725 0.25 71.75 2.81437 71.75 5.96451L 72.25 5.96451C 72.25 2.53543 69.4459 -0.25 66 -0.25L 66 0.25ZM 71.75 5.96451L 71.75 40.0474L 72.25 40.0474L 72.25 5.96451L 71.75 5.96451ZM 71.75 40.0474C 71.75 43.1975 69.1725 45.7619 66 45.7619L 66 46.2619C 69.4459 46.2619 72.25 43.4765 72.25 40.0474L 71.75 40.0474ZM 66 45.7619L 57.0268 45.7619L 57.0268 46.2619L 66 46.2619L 66 45.7619ZM 56.7781 46.0376L 58.4388 62.1205L 58.9362 62.0691L 57.2755 45.9862L 56.7781 46.0376ZM 58.4395 62.1263C 58.4659 62.3341 58.3229 62.5519 58.063 62.6741C 57.8033 62.7961 57.5416 62.7683 57.3954 62.6147L 57.0332 62.9594C 57.3798 63.3237 57.8995 63.3034 58.2757 63.1266C 58.6517 62.9499 58.9989 62.5627 58.9355 62.0633L 58.4395 62.1263ZM 57.3903 62.6095L 40.4617 45.8343L 40.1097 46.1895L 57.0383 62.9647L 57.3903 62.6095ZM 40.2857 45.7619L 33.4286 45.7619L 33.4286 46.2619L 40.2857 46.2619L 40.2857 45.7619ZM 33.1786 46.0119L 33.1786 49.4735L 33.6786 49.4735L 33.6786 46.0119L 33.1786 46.0119ZM 33.1786 49.4735C 33.1786 51.6503 31.375 53.4306 29.1696 53.4306L 29.1696 53.9306C 31.6449 53.9306 33.6786 51.9326 33.6786 49.4735L 33.1786 49.4735ZM 29.1696 53.4306L 15.9107 53.4306L 15.9107 53.9306L 29.1696 53.9306L 29.1696 53.4306ZM 15.736 53.5017L 6.41458 62.6083L 6.76399 62.9659L 16.0854 53.8594L 15.736 53.5017ZM 6.41472 62.6081C 6.26291 62.7562 6.00032 62.7743 5.74545 62.6429C 5.49038 62.5114 5.35561 62.2886 5.38955 62.0821L 4.89617 62.001C 4.81458 62.4974 5.14721 62.897 5.51633 63.0873C 5.88565 63.2777 6.40404 63.317 6.76385 62.9661L 6.41472 62.6081ZM 5.38906 62.0849L 6.86228 53.724L 6.36986 53.6372L 4.89665 61.9981L 5.38906 62.0849ZM 6.61607 53.4306L 4.25893 53.4306L 4.25893 53.9306L 6.61607 53.9306L 6.61607 53.4306ZM 4.25893 53.4306C 2.05355 53.4306 0.25 51.6503 0.25 49.4735L -0.25 49.4735C -0.25 51.9326 1.78367 53.9306 4.25893 53.9306L 4.25893 53.4306ZM 0.25 49.4735L 0.25 33.1776L -0.25 33.1776L -0.25 49.4735L 0.25 49.4735ZM 0.25 33.1776C 0.25 31.0007 2.05355 29.2205 4.25893 29.2205L 4.25893 28.7205C 1.78368 28.7205 -0.25 30.7183 -0.25 33.1776L 0.25 33.1776ZM 4.25893 29.2205L 10.2857 29.2205L 10.2857 28.7205L 4.25893 28.7205L 4.25893 29.2205ZM 10.5357 28.9705L 10.5357 5.96451L 10.0357 5.96451L 10.0357 28.9705L 10.5357 28.9705ZM 10.5357 5.96451C 10.5357 2.81437 13.1132 0.25 16.2857 0.25L 16.2857 -0.25C 12.8399 -0.25 10.0357 2.53543 10.0357 5.96451L 10.5357 5.96451ZM 16.2857 0.25L 66 0.25L 66 -0.25L 16.2857 -0.25L 16.2857 0.25ZM 66 1.45414L 16.2857 1.45414L 16.2857 1.95414L 66 1.95414L 66 1.45414ZM 16.2857 1.45414C 13.7599 1.45414 11.75 3.45005 11.75 5.96451L 12.25 5.96451C 12.25 3.72898 14.0333 1.95414 16.2857 1.95414L 16.2857 1.45414ZM 11.75 5.96451L 11.75 40.0474L 12.25 40.0474L 12.25 5.96451L 11.75 5.96451ZM 11.75 40.0474C 11.75 42.5619 13.7599 44.5578 16.2857 44.5578L 16.2857 44.0578C 14.0333 44.0578 12.25 42.2829 12.25 40.0474L 11.75 40.0474ZM 16.2857 44.5578L 40.6339 44.5578L 40.6339 44.0578L 16.2857 44.0578L 16.2857 44.5578ZM 40.6433 44.5576C 40.798 44.5518 40.9602 44.6158 41.0769 44.7278L 41.4231 44.367C 41.2145 44.1668 40.9226 44.0467 40.6245 44.058L 40.6433 44.5576ZM 41.0739 44.7248L 56.556 60.0888L 56.9082 59.7339L 41.4261 44.3699L 41.0739 44.7248ZM 56.9808 59.8855L 55.454 45.2138L 54.9567 45.2656L 56.4835 59.9372L 56.9808 59.8855ZM 55.4542 45.2161C 55.4237 44.8929 55.7307 44.5564 56.0614 44.5578L 56.0636 44.0578C 55.4405 44.0551 54.8977 44.6425 54.9565 45.2632L 55.4542 45.2161ZM 56.0625 44.5578L 66 44.5578L 66 44.0578L 56.0625 44.0578L 56.0625 44.5578ZM 66 44.5578C 68.5258 44.5578 70.5357 42.5619 70.5357 40.0474L 70.0357 40.0474C 70.0357 42.2829 68.2525 44.0578 66 44.0578L 66 44.5578ZM 70.5357 40.0474L 70.5357 5.96451L 70.0357 5.96451L 70.0357 40.0474L 70.5357 40.0474ZM 70.5357 5.96451C 70.5357 3.45005 68.5258 1.45414 66 1.45414L 66 1.95414C 68.2525 1.95414 70.0357 3.72898 70.0357 5.96451L 70.5357 5.96451ZM 10.2857 30.4246L 4.25893 30.4246L 4.25893 30.9246L 10.2857 30.9246L 10.2857 30.4246ZM 4.25893 30.4246C 2.69963 30.4246 1.46429 31.6428 1.46429 33.1776L 1.96429 33.1776C 1.96429 31.9257 2.969 30.9246 4.25893 30.9246L 4.25893 30.4246ZM 1.46429 33.1776L 1.46429 49.4735L 1.96429 49.4735L 1.96429 33.1776L 1.46429 33.1776ZM 1.46429 49.4735C 1.46429 51.0082 2.69963 52.2264 4.25893 52.2264L 4.25893 51.7264C 2.969 51.7264 1.96429 50.7253 1.96429 49.4735L 1.46429 49.4735ZM 4.25893 52.2264L 7.66071 52.2264L 7.66071 51.7264L 4.25893 51.7264L 4.25893 52.2264ZM 7.665 52.2264C 8.0067 52.2205 8.32418 52.5878 8.27096 52.9223L 8.76475 53.0009C 8.86685 52.3592 8.30894 51.7153 7.65643 51.7265L 7.665 52.2264ZM 8.27174 52.9177L 7.06638 59.681L 7.55862 59.7688L 8.76398 53.0055L 8.27174 52.9177ZM 7.48719 59.9038L 15.1747 52.3949L 14.8253 52.0372L 7.13781 59.5461L 7.48719 59.9038ZM 15.1732 52.3963C 15.2924 52.2755 15.4208 52.2233 15.5912 52.2264L 15.5873 51.7264C 15.3229 51.733 15.0201 51.8561 14.8268 52.0358L 15.1732 52.3963ZM 15.5893 52.2264L 29.1696 52.2264L 29.1696 51.7264L 15.5893 51.7264L 15.5893 52.2264ZM 29.1696 52.2264C 30.729 52.2264 31.9643 51.0082 31.9643 49.4735L 31.4643 49.4735C 31.4643 50.7253 30.4596 51.7264 29.1696 51.7264L 29.1696 52.2264ZM 31.9643 49.4735L 31.9643 46.0119L 31.4643 46.0119L 31.4643 49.4735L 31.9643 49.4735ZM 31.7143 45.7619L 16.2857 45.7619L 16.2857 46.2619L 31.7143 46.2619L 31.7143 45.7619ZM 16.2857 45.7619C 13.1132 45.7619 10.5357 43.1975 10.5357 40.0474L 10.0357 40.0474C 10.0357 43.4765 12.8399 46.2619 16.2857 46.2619L 16.2857 45.7619ZM 10.5357 40.0474L 10.5357 30.6746L 10.0357 30.6746L 10.0357 40.0474L 10.5357 40.0474Z"/>
</defs>
</svg>
