<svg width="46" height="46" viewBox="0 0 46 46" xmlns="http://www.w3.org/2000/svg" xmlns:xlink="http://www.w3.org/1999/xlink" xmlns:figma="http://www.figma.com/figma/ns"><title>Untitled</title><desc>Created using Figma</desc><g transform="translate(309 199)" figma:type="canvas"><path fill="#E5E5E5" d="M-309-199h46v46h-46z"/><mask id="a"><path d="M-309-199h46v46h-46v-46z" fill="#FFF"/></mask><g style="mix-blend-mode:normal" mask="url(#a)" figma:type="frame"><path d="M-309-199h46v46h-46v-46z" fill="#FFF"/><use xlink:href="#b" transform="translate(-309 -199)" fill="#3BB75E" style="mix-blend-mode:normal" figma:type="vector"/></g></g><defs><path id="b" d="M23 0C10.297 0 0 10.297 0 23s10.297 23 23 23 23-10.297 23-23S35.703 0 23 0zm10.969 12.75l2.812 2.844-19.093 19.093c-2.796-2.86-5.641-5.671-8.47-8.5l2.813-2.812 5.656 5.656L33.97 12.75z"/></defs></svg>