<svg width="48" height="48" viewBox="0 0 48 48" xmlns="http://www.w3.org/2000/svg" xmlns:xlink="http://www.w3.org/1999/xlink" xmlns:figma="http://www.figma.com/figma/ns"><title>cheers</title><desc>Created using Figma</desc><g transform="translate(-119 45)" figma:type="canvas"><mask id="a"><path d="M119-45h48V3h-48v-48z" fill="#FFF"/></mask><g style="mix-blend-mode:normal" mask="url(#a)" figma:type="frame"><use xlink:href="#b" transform="translate(121.425 -45)" fill="#3BB75E" style="mix-blend-mode:normal" figma:type="vector"/></g></g><defs><path id="b" d="M26.04 6.216l3.835-2.376a.886.886 0 1 1 .934 1.507l-3.834 2.376a.886.886 0 0 1-.934-1.508zm-1.89-.744a.886.886 0 0 0 .997-.76l.5-3.707A.887.887 0 1 0 23.89.768l-.5 3.707a.887.887 0 0 0 .76.997zm-5.77-3.377a.888.888 0 0 0-1.218 1.29l2.592 2.447a.885.885 0 0 0 1.253-.036.887.887 0 0 0-.036-1.254L18.38 2.095zm2.657 10.658c.113.206.14.448.075.674l-3.034 10.497c-1.07 3.7-4.247 6.285-7.727 6.285-.351 0-.701-.03-1.048-.083l-3.638 12.59 2.828.818A.886.886 0 1 1 8 45.238L.64 43.11a.887.887 0 0 1 .493-1.704l2.828.818 3.64-12.594c-1.584-.686-2.867-1.94-3.662-3.611-.912-1.92-1.073-4.163-.452-6.314l.089-.306-.016-.028.028-.015L6.521 9.21a.884.884 0 0 1 1.097-.605l12.888 3.724a.883.883 0 0 1 .53.424zm-4.643 10.614c-.884.214-1.596.354-2.258.354-1.293 0-2.431-.518-4.467-1.972-2.026-1.448-3.722-1.309-4.593-1.076-.353 1.585-.195 3.196.466 4.586.709 1.492 1.911 2.55 3.386 2.974.463.134.942.203 1.423.203 2.696 0 5.172-2.058 6.024-5.004l.019-.065zm2.769-9.58L7.979 10.555 5.6 18.79c1.296-.132 3.098.085 5.101 1.515 2.77 1.98 3.18 1.874 5.85 1.196l.413-.104 2.2-7.61zm23.556 32.16l-7.389 2.022a.887.887 0 0 1-.467-1.711l2.839-.777-3.46-12.642c-.314.044-.631.068-.949.068-3.525 0-6.705-2.63-7.734-6.396l-2.883-10.539a.887.887 0 0 1 .622-1.09l12.938-3.538a.889.889 0 0 1 1.09.621l2.883 10.539c.59 2.16.398 4.398-.544 6.306-.818 1.66-2.119 2.895-3.712 3.56l3.46 12.643 2.84-.777a.89.89 0 0 1 1.09.622.888.888 0 0 1-.624 1.089zm-16.013-22.85c2.67.677 3.081.782 5.85-1.196 2.075-1.481 3.934-1.661 5.237-1.5l-1.946-7.113L24.62 16.36l1.826 6.671.26.066zm7.942 7.854c1.48-.405 2.696-1.444 3.427-2.925.749-1.518.899-3.313.422-5.054l-.181-.663c-.823-.253-2.59-.491-4.727 1.036-2.037 1.454-3.175 1.971-4.47 1.971-.632 0-1.307-.126-2.136-.324l.287 1.05c.819 2.998 3.295 5.092 6.023 5.092.456 0 .91-.062 1.35-.182l.003-.001h.002z"/></defs></svg>