<svg width="48" height="48" viewBox="0 0 48 48" version="1.1" xmlns="http://www.w3.org/2000/svg" xmlns:xlink="http://www.w3.org/1999/xlink" xmlns:figma="http://www.figma.com/figma/ns">
<title>convenient</title>
<desc>Created using Figma</desc>
<g id="Canvas" transform="translate(320 -442)" figma:type="canvas">
<mask id="mask0_alpha" mask-type="alpha">
<path d="M -320 442L -272 442L -272 490L -320 490L -320 442Z" fill="#FFFFFF"/>
</mask>
<g id="convenient" mask="url(#mask0_alpha)" figma:type="frame">
<g id="Vector" figma:type="vector">
<use xlink:href="#path0_fill" transform="translate(-320.35 448.4)" fill="#3BB75E"/>
<use xlink:href="#path1_fill" transform="translate(-320.35 448.4)" fill="#3BB75E"/>
<use xlink:href="#path2_fill" transform="translate(-320.35 448.4)" fill="#3BB75E"/>
<use xlink:href="#path3_fill" transform="translate(-320.35 448.4)" fill="#3BB75E"/>
<use xlink:href="#path4_fill" transform="translate(-320.35 448.4)" fill="#3BB75E"/>
<use xlink:href="#path5_fill" transform="translate(-320.35 448.4)" fill="#3BB75E"/>
<use xlink:href="#path6_fill" transform="translate(-320.35 448.4)" fill="#3BB75E"/>
</g>
</g>
</g>
<defs>
<path id="path0_fill" d="M 25.4162 29.9772L 4.4476 29.9772C 2.72983 29.9772 1.36746 28.6148 1.36746 26.897L 1.36746 14.5173L 43.6008 14.5173L 43.6008 17.1828C 43.6008 17.4197 43.7785 17.5974 44.0155 17.5974C 44.2524 17.5974 44.4301 17.4197 44.4301 17.1828L 44.4301 4.4476C 44.4301 2.3152 42.7123 0.597429 40.5799 0.597429L 4.4476 0.597429C 2.3152 0.597429 0.597429 2.3152 0.597429 4.4476L 0.597429 26.897C 0.597429 29.0294 2.3152 30.7472 4.4476 30.7472L 25.4162 30.7472C 25.6531 30.7472 25.8308 30.5695 25.8308 30.3326C 25.8308 30.0956 25.6531 29.9772 25.4162 29.9772ZM 1.36746 13.7472L 1.36746 8.77163L 43.6008 8.77163L 43.6008 13.7472L 1.36746 13.7472ZM 4.4476 1.36746L 40.5207 1.36746C 42.2385 1.36746 43.6008 2.72983 43.6008 4.4476L 43.6008 7.94236L 1.36746 7.94236L 1.36746 4.4476C 1.36746 2.72983 2.72983 1.36746 4.4476 1.36746Z"/>
<path id="path1_fill" fill-rule="evenodd" d="M 0.350006 4.4476C 0.350006 2.17855 2.17855 0.350006 4.4476 0.350006L 40.5799 0.350006C 42.849 0.350006 44.6775 2.17855 44.6775 4.4476L 44.6775 17.1828C 44.6775 17.5563 44.3891 17.8448 44.0155 17.8448C 43.6419 17.8448 43.3534 17.5563 43.3534 17.1828L 43.3534 14.7647L 1.61488 14.7647L 1.61488 26.897C 1.61488 28.4782 2.86648 29.7297 4.4476 29.7297L 25.4162 29.7297C 25.5724 29.7297 25.7365 29.7685 25.8669 29.8728C 26.0048 29.9831 26.0783 30.1458 26.0783 30.3326C 26.0783 30.7062 25.7898 30.9946 25.4162 30.9946L 4.4476 30.9946C 2.17855 30.9946 0.350006 29.1661 0.350006 26.897L 0.350006 4.4476ZM 4.4476 0.844851C 2.45184 0.844851 0.844851 2.45184 0.844851 4.4476L 0.844851 26.897C 0.844851 28.8928 2.45184 30.4998 4.4476 30.4998L 25.4162 30.4998C 25.5165 30.4998 25.5834 30.4329 25.5834 30.3326C 25.5834 30.2825 25.568 30.2674 25.5578 30.2592C 25.5401 30.2451 25.4969 30.2246 25.4162 30.2246L 4.4476 30.2246C 2.59318 30.2246 1.12004 28.7514 1.12004 26.897L 1.12004 14.5173L 1.12004 14.2698L 1.36746 14.2698L 43.6008 14.2698L 43.8483 14.2698L 43.8483 14.5173L 43.8483 17.1828C 43.8483 17.283 43.9152 17.35 44.0155 17.35C 44.1158 17.35 44.1827 17.2831 44.1827 17.1828L 44.1827 4.4476C 44.1827 2.45184 42.5757 0.844851 40.5799 0.844851L 4.4476 0.844851ZM 4.4476 1.61488C 2.86648 1.61488 1.61488 2.86648 1.61488 4.4476L 1.61488 7.69494L 43.3534 7.69494L 43.3534 4.4476C 43.3534 2.86648 42.1018 1.61488 40.5207 1.61488L 4.4476 1.61488ZM 1.12004 4.4476C 1.12004 2.59318 2.59318 1.12004 4.4476 1.12004L 40.5207 1.12004C 42.3751 1.12004 43.8483 2.59318 43.8483 4.4476L 43.8483 7.94236L 43.8483 8.18979L 43.6008 8.18979L 1.36746 8.18979L 1.12004 8.18979L 1.12004 7.94236L 1.12004 4.4476ZM 1.12004 8.52421L 1.36746 8.52421L 43.6008 8.52421L 43.8483 8.52421L 43.8483 8.77163L 43.8483 13.7472L 43.8483 13.9947L 43.6008 13.9947L 1.36746 13.9947L 1.12004 13.9947L 1.12004 13.7472L 1.12004 8.77163L 1.12004 8.52421ZM 1.61488 9.01905L 1.61488 13.4998L 43.3534 13.4998L 43.3534 9.01905L 1.61488 9.01905Z"/>
<path id="path2_fill" d="M 39.0399 20.0852C 34.005 20.0852 29.9179 24.1723 29.9179 29.2071C 29.9179 34.242 34.005 38.2698 39.0399 38.2698C 44.0747 38.2698 48.1026 34.1827 48.1026 29.2071C 48.1026 24.2315 44.0155 20.0852 39.0399 20.0852ZM 39.0399 37.4998C 34.4789 37.4998 30.7472 33.7681 30.7472 29.2071C 30.7472 24.6462 34.4789 20.9145 39.0399 20.9145C 43.6008 20.9145 47.3325 24.6462 47.3325 29.2071C 47.3325 33.7681 43.6008 37.4998 39.0399 37.4998Z"/>
<path id="path3_fill" fill-rule="evenodd" d="M 29.6705 29.2071C 29.6705 24.0356 33.8684 19.8378 39.0399 19.8378C 44.1542 19.8378 48.35 24.097 48.35 29.2071C 48.35 34.3183 44.2124 38.5173 39.0399 38.5173C 33.8705 38.5173 29.6705 34.3807 29.6705 29.2071ZM 39.0399 20.3326C 34.1417 20.3326 30.1654 24.3089 30.1654 29.2071C 30.1654 34.1032 34.1396 38.0224 39.0399 38.0224C 43.937 38.0224 47.8552 34.0471 47.8552 29.2071C 47.8552 24.3661 43.8767 20.3326 39.0399 20.3326ZM 39.0399 21.1619C 34.6156 21.1619 30.9946 24.7828 30.9946 29.2071C 30.9946 33.6314 34.6156 37.2524 39.0399 37.2524C 43.4642 37.2524 47.0851 33.6314 47.0851 29.2071C 47.0851 24.7828 43.4642 21.1619 39.0399 21.1619ZM 30.4998 29.2071C 30.4998 24.5095 34.3423 20.667 39.0399 20.667C 43.7375 20.667 47.58 24.5095 47.58 29.2071C 47.58 33.9047 43.7375 37.7472 39.0399 37.7472C 34.3423 37.7472 30.4998 33.9047 30.4998 29.2071Z"/>
<path id="path4_fill" d="M 42.7123 25.7716C 42.5346 25.6531 42.2977 25.7123 42.1792 25.89L 38.8029 30.646L 35.8413 28.5555C 35.6636 28.3778 35.4266 28.3778 35.3082 28.5555C 35.1305 28.7332 35.1305 28.9702 35.3082 29.0886L 38.6252 31.5937C 38.6845 31.653 38.8029 31.7122 38.9214 31.7122C 38.9214 31.7122 38.9214 31.7122 38.9806 31.7122C 39.0991 31.7122 39.2176 31.653 39.2768 31.5345L 42.9493 26.3047C 42.9493 26.127 42.89 25.8308 42.7123 25.7716Z"/>
<path id="path5_fill" fill-rule="evenodd" d="M 42.8236 25.5493C 43.0013 25.6241 43.0885 25.7931 43.1304 25.9105C 43.1752 26.0401 43.1962 26.2005 43.1967 26.3047L 43.1967 26.3829L 43.1518 26.4469L 39.4884 31.6637C 39.3787 31.8648 39.1733 31.9596 38.9806 31.9596L 38.9288 31.9596L 38.9223 31.9596C 38.7425 31.9596 38.5692 31.8791 38.4648 31.7826L 35.1641 29.2899C 35.0103 29.1843 34.9275 29.0202 34.9275 28.8443C 34.9275 28.6788 34.9997 28.5216 35.1169 28.3974C 35.2227 28.2527 35.3821 28.1749 35.5525 28.1749C 35.7181 28.1749 35.8753 28.2472 35.9996 28.3645L 38.744 30.3016L 41.9756 25.7494C 42.1577 25.48 42.5264 25.371 42.8236 25.5493ZM 42.5751 25.9774C 42.5223 25.9423 42.4355 25.9517 42.3851 26.0273L 42.3811 26.0333L 39.0047 30.7892L 38.8618 30.9904L 38.6603 30.8481L 35.6986 28.7577L 35.6813 28.7455L 35.6663 28.7305C 35.6153 28.6795 35.572 28.6697 35.5525 28.6697C 35.5384 28.6697 35.5271 28.6732 35.514 28.6928L 35.5004 28.7132L 35.4831 28.7305C 35.4321 28.7815 35.4223 28.8248 35.4223 28.8443C 35.4223 28.8584 35.4258 28.8697 35.4454 28.8828L 35.4515 28.8868L 35.4573 28.8912L 38.7743 31.3963L 38.788 31.4066L 38.8002 31.4188C 38.8036 31.4222 38.8201 31.4356 38.8486 31.4478C 38.876 31.4595 38.902 31.4648 38.9214 31.4648L 38.9288 31.4648L 38.9806 31.4648C 38.9992 31.4648 39.0158 31.46 39.0282 31.4529C 39.0396 31.4464 39.0487 31.4374 39.0555 31.4238L 39.0637 31.4074L 39.0743 31.3923L 42.6989 26.2307C 42.6944 26.1803 42.684 26.1289 42.6644 26.0769C 42.6462 26.0258 42.6304 26.008 42.6262 26.0037L 42.6027 25.9958L 42.5751 25.9774Z"/>
<path id="path6_fill" fill-rule="evenodd" d="M 0 4.44759C 0 1.98524 1.98524 0 4.44759 0L 40.5799 0C 43.0423 0 45.0275 1.98524 45.0275 4.44759L 45.0275 17.1828C 45.0275 17.7496 44.5824 18.1948 44.0155 18.1948C 43.4486 18.1948 43.0034 17.7496 43.0034 17.1828L 43.0034 15.1147L 1.96488 15.1147L 1.96488 26.897C 1.96488 28.2848 3.05977 29.3797 4.44759 29.3797L 25.4162 29.3797C 25.6129 29.3821 25.8898 29.4538 26.0856 29.5995C 26.3139 29.7822 26.4283 30.0494 26.4283 30.3326C 26.4283 30.8994 25.9831 31.3446 25.4162 31.3446L 4.44759 31.3446C 1.98524 31.3446 0 29.3594 0 26.897L 0 4.44759ZM 1.96488 13.1498L 43.0034 13.1498L 43.0034 9.36905L 1.96488 9.36905L 1.96488 13.1498ZM 43.0034 7.34493L 43.0034 4.44759C 43.0034 3.05977 41.9085 1.96488 40.5207 1.96488L 4.44759 1.96488C 3.05977 1.96488 1.96488 3.05977 1.96488 4.44759L 1.96488 7.34493L 43.0034 7.34493ZM 29.3205 29.2071C 29.3205 23.8423 33.6751 19.4878 39.0399 19.4878C 44.3505 19.4878 48.7 23.9067 48.7 29.2071C 48.7 34.5101 44.4072 38.8672 39.0399 38.8672C 33.6802 38.8672 29.3205 34.577 29.3205 29.2071ZM 39.0399 21.5119C 34.8089 21.5119 31.3446 24.9761 31.3446 29.2071C 31.3446 33.4381 34.8089 36.9024 39.0399 36.9024C 43.2709 36.9024 46.7351 33.4381 46.7351 29.2071C 46.7351 24.9761 43.2709 21.5119 39.0399 21.5119ZM 42.9829 25.237C 43.2823 25.3742 43.4094 25.6511 43.46 25.7928L 43.4613 25.7963C 43.5158 25.9598 43.5454 26.1768 43.5467 26.3031L 43.5467 26.3047L 43.5467 26.3829L 43.5467 26.4935L 43.4831 26.584L 43.4382 26.648L 39.7849 31.8504C 39.6028 32.1667 39.2761 32.3096 38.9806 32.3096L 38.9288 32.3096L 38.9223 32.3096C 38.6552 32.3096 38.4058 32.1976 38.2418 32.0528L 34.9587 29.5734C 34.7137 29.4017 34.5775 29.1317 34.5775 28.8443C 34.5775 28.5825 34.6881 28.3487 34.8478 28.1729C 35.0204 27.9484 35.2788 27.8248 35.5525 27.8248C 35.8123 27.8248 36.0445 27.9338 36.2199 28.0915L 38.6607 29.8143L 41.6881 25.5497C 41.96 25.1514 42.5152 24.9714 42.9829 25.237ZM 38.9288 31.3605L 38.9322 31.3622L 38.9716 31.3622L 38.9738 31.3578L 38.9754 31.3547L 38.9798 31.3484L 38.9806 31.3472L 38.9904 31.3333L 39.1083 31.1654L 39.2501 30.9635L 38.9288 31.3605Z"/>
</defs>
</svg>
