<svg width="48" height="48" viewBox="0 0 48 48" xmlns="http://www.w3.org/2000/svg" xmlns:xlink="http://www.w3.org/1999/xlink" xmlns:figma="http://www.figma.com/figma/ns"><title>custom</title><desc>Created using Figma</desc><g transform="translate(233 -195)" figma:type="canvas"><mask id="a"><path d="M-233 195h48v48h-48v-48z" fill="#FFF"/></mask><g style="mix-blend-mode:normal" mask="url(#a)" figma:type="frame"><use xlink:href="#b" transform="translate(-233 200)" fill="#3BB75E" style="mix-blend-mode:normal" figma:type="vector"/><use xlink:href="#c" transform="translate(-212.879 219.953)" fill="#3BB75E" style="mix-blend-mode:normal" figma:type="vector"/><use xlink:href="#d" transform="translate(-232.998 201.714)" fill="#3BB75E" style="mix-blend-mode:normal" figma:type="vector"/><use xlink:href="#e" transform="rotate(90 -219.5 6.5)" fill="#3BB75E" style="mix-blend-mode:normal" figma:type="line"/><use xlink:href="#f" transform="translate(-206 219)" fill="#3BB75E" style="mix-blend-mode:normal" figma:type="line"/></g></g><defs><path id="b" d="M8.571 17.143a8.514 8.514 0 0 0 3.4-.708c.34.392.685.785 1.052 1.184.398-.41.805-.819 1.22-1.224-.254-.276-.513-.555-.748-.824a8.533 8.533 0 0 0 1.747-1.678l.89.708c.426-.393.86-.779 1.294-1.161l-1.248-.994c.596-1.17.965-2.47.965-3.875A8.57 8.57 0 0 0 8.57 0 8.57 8.57 0 0 0 0 8.571a8.57 8.57 0 0 0 8.571 8.572zm0-15.429a6.864 6.864 0 0 1 6.858 6.857A6.864 6.864 0 0 1 8.57 15.43 6.864 6.864 0 0 1 1.714 8.57a6.864 6.864 0 0 1 6.857-6.857z"/><path id="c" d="M4.107 1.095l16.46 13.11c-3.417-.669-9.914-3.513-18.092-10.027-.389-.31-.725-.607-1.095-.912L0 4.366c.465.386.926.772 1.406 1.154 10.368 8.26 20.683 12.552 23.043 9.59L5.481 0 4.107 1.095z"/><path id="d" d="M16.178 23.555L44.57.938c-2.36-2.964-12.677 1.329-23.044 9.59-3.785 3.015-7.045 6.139-9.555 9.038a8.4 8.4 0 0 0-1.776-.544 8.447 8.447 0 0 0-1.624-.164A8.57 8.57 0 0 0 0 27.429 8.57 8.57 0 0 0 8.571 36a8.57 8.57 0 0 0 8.572-8.571c0-.763-.132-1.491-.32-2.196a8.43 8.43 0 0 0-.645-1.678zm6.416-11.687C30.771 5.354 37.27 2.51 40.685 1.842L15.242 22.108a8.53 8.53 0 0 0-1.747-1.678c2.225-2.55 5.2-5.457 9.1-8.562zM8.57 34.286a6.864 6.864 0 0 1-6.857-6.857 6.864 6.864 0 0 1 6.857-6.857 6.864 6.864 0 0 1 6.857 6.857 6.864 6.864 0 0 1-6.857 6.857z"/><path id="e" d="M0 0h2.125v-2H0v2zm6.375 0h4.25v-2h-4.25v2zm8.5 0H17v-2h-2.125v2z"/><path id="f" d="M0 0h1.313v-2H0v2zm3.938 0h2.624v-2H3.938v2zm5.25 0h2.624v-2H9.188v2zm5.25 0h2.624v-2h-2.625v2zm5.25 0H21v-2h-1.313v2z"/></defs></svg>