<svg width="72" height="72" viewBox="0 0 72 72" xmlns="http://www.w3.org/2000/svg" xmlns:xlink="http://www.w3.org/1999/xlink" xmlns:figma="http://www.figma.com/figma/ns"><title>cv</title><desc>Created using Figma</desc><g transform="translate(-255 205)" figma:type="canvas"><mask id="a"><path d="M255-205h72v72h-72v-72z" fill="#FFF"/></mask><g style="mix-blend-mode:normal" mask="url(#a)" figma:type="frame" fill="#3BB75E"><use xlink:href="#b" transform="translate(265 -205)" style="mix-blend-mode:normal" figma:type="vector"/><use xlink:href="#c" transform="translate(278.747 -199.189)" style="mix-blend-mode:normal" figma:type="vector"/><use xlink:href="#d" transform="translate(271.866 -165.513)" style="mix-blend-mode:normal" figma:type="vector"/><use xlink:href="#e" transform="translate(271.866 -155.068)" style="mix-blend-mode:normal" figma:type="vector"/><use xlink:href="#f" transform="translate(281.04 -144.608)" style="mix-blend-mode:normal" figma:type="vector"/><use xlink:href="#g" transform="translate(285.613 -144.608)" style="mix-blend-mode:normal" figma:type="vector"/><use xlink:href="#g" transform="translate(276.453 -144.608)" style="mix-blend-mode:normal" figma:type="vector"/></g></g><defs><path id="b" d="M0 0v72h35.995L55 52.739V0H0zm2.28 2.324h50.413v48.77h-18.32v18.582H2.28V2.324zM51.083 53.42l-14.43 14.61V53.42h14.431z"/><path id="c" d="M13.746 27.865c7.58 0 13.747-6.25 13.747-13.933C27.493 6.25 21.326 0 13.747 0 6.166 0 0 6.25 0 13.932s6.167 13.933 13.746 13.933zM6.181 22.62c.084-4.168 3.44-7.526 7.565-7.526 4.126 0 7.496 3.358 7.58 7.525-2.028 1.815-4.67 2.92-7.58 2.92a11.255 11.255 0 0 1-7.565-2.92zm4.839-12.615c0-1.53 1.23-2.763 2.726-2.763 1.51 0 2.727 1.247 2.727 2.763 0 1.531-1.23 2.764-2.726 2.764-1.51 0-2.727-1.247-2.727-2.764zm2.726-7.682c6.321 0 11.454 5.216 11.454 11.608 0 2.353-.7 4.55-1.902 6.392-.783-3.118-3.007-5.655-5.916-6.831a5.09 5.09 0 0 0 1.385-3.487c0-2.806-2.252-5.088-5.02-5.088-2.77 0-5.02 2.282-5.02 5.088a5.11 5.11 0 0 0 1.384 3.487c-2.91 1.176-5.133 3.713-5.916 6.831a11.59 11.59 0 0 1-1.902-6.392c0-6.406 5.133-11.608 11.454-11.608z"/><path id="d" d="M41.254 0H0v2.324h41.254V0z"/><path id="e" d="M20.627 0H0v2.324h20.627V0z"/><path id="f" d="M2.293 0H0v2.324h2.293V0z"/><path id="g" d="M2.293 0H0v2.324h2.293V0z"/></defs></svg>