<svg width="48" height="48" viewBox="0 0 48 48" xmlns="http://www.w3.org/2000/svg" xmlns:xlink="http://www.w3.org/1999/xlink" xmlns:figma="http://www.figma.com/figma/ns"><title>date</title><desc>Created using Figma</desc><g transform="translate(321 -115)" figma:type="canvas"><mask id="a"><path d="M-321 115h48v48h-48v-48z" fill="#FFF"/></mask><g style="mix-blend-mode:normal" mask="url(#a)" figma:type="frame"><g style="mix-blend-mode:normal" figma:type="vector" transform="translate(-321 116.5)" fill="#3BB75E"><use xlink:href="#b" style="mix-blend-mode:normal"/><use xlink:href="#c" style="mix-blend-mode:normal"/><use xlink:href="#d" style="mix-blend-mode:normal"/><use xlink:href="#e" style="mix-blend-mode:normal"/><use xlink:href="#f" style="mix-blend-mode:normal"/><use xlink:href="#g" style="mix-blend-mode:normal"/><use xlink:href="#h" style="mix-blend-mode:normal"/><use xlink:href="#i" style="mix-blend-mode:normal"/><use xlink:href="#j" style="mix-blend-mode:normal"/><use xlink:href="#k" style="mix-blend-mode:normal"/><use xlink:href="#l" style="mix-blend-mode:normal"/><use xlink:href="#m" style="mix-blend-mode:normal"/><use xlink:href="#n" style="mix-blend-mode:normal"/><use xlink:href="#o" style="mix-blend-mode:normal"/><use xlink:href="#p" style="mix-blend-mode:normal"/></g></g></g><defs><path id="b" fill-rule="evenodd" d="M46 5H2v38h44V5zM2 3a2 2 0 0 0-2 2v38a2 2 0 0 0 2 2h44a2 2 0 0 0 2-2V5a2 2 0 0 0-2-2H2z"/><path id="c" fill-rule="evenodd" d="M10.5 0a1 1 0 0 1 1 1v6a1 1 0 1 1-2 0V1a1 1 0 0 1 1-1z"/><path id="d" fill-rule="evenodd" d="M37.5 0a1 1 0 0 1 1 1v6a1 1 0 1 1-2 0V1a1 1 0 0 1 1-1z"/><path id="e" d="M9.5 17.2c0-.11.09-.2.2-.2h1.6c.11 0 .2.09.2.2v1.6a.2.2 0 0 1-.2.2H9.7a.2.2 0 0 1-.2-.2v-1.6z"/><path id="f" d="M18.5 17.2c0-.11.09-.2.2-.2h1.6c.11 0 .2.09.2.2v1.6a.2.2 0 0 1-.2.2h-1.6a.2.2 0 0 1-.2-.2v-1.6z"/><path id="g" d="M27.5 17.2c0-.11.09-.2.2-.2h1.6c.11 0 .2.09.2.2v1.6a.2.2 0 0 1-.2.2h-1.6a.2.2 0 0 1-.2-.2v-1.6z"/><path id="h" d="M36.5 17.2c0-.11.09-.2.2-.2h1.6c.11 0 .2.09.2.2v1.6a.2.2 0 0 1-.2.2h-1.6a.2.2 0 0 1-.2-.2v-1.6z"/><path id="i" d="M9.5 24.2c0-.11.09-.2.2-.2h1.6c.11 0 .2.09.2.2v1.6a.2.2 0 0 1-.2.2H9.7a.2.2 0 0 1-.2-.2v-1.6z"/><path id="j" d="M18.5 24.2c0-.11.09-.2.2-.2h1.6c.11 0 .2.09.2.2v1.6a.2.2 0 0 1-.2.2h-1.6a.2.2 0 0 1-.2-.2v-1.6z"/><path id="k" d="M27.5 24.2c0-.11.09-.2.2-.2h1.6c.11 0 .2.09.2.2v1.6a.2.2 0 0 1-.2.2h-1.6a.2.2 0 0 1-.2-.2v-1.6z"/><path id="l" d="M36.5 24.2c0-.11.09-.2.2-.2h1.6c.11 0 .2.09.2.2v1.6a.2.2 0 0 1-.2.2h-1.6a.2.2 0 0 1-.2-.2v-1.6z"/><path id="m" d="M9.5 31.2c0-.11.09-.2.2-.2h1.6c.11 0 .2.09.2.2v1.6a.2.2 0 0 1-.2.2H9.7a.2.2 0 0 1-.2-.2v-1.6z"/><path id="n" d="M18.5 31.2c0-.11.09-.2.2-.2h1.6c.11 0 .2.09.2.2v1.6a.2.2 0 0 1-.2.2h-1.6a.2.2 0 0 1-.2-.2v-1.6z"/><path id="o" d="M27.5 31.2c0-.11.09-.2.2-.2h1.6c.11 0 .2.09.2.2v1.6a.2.2 0 0 1-.2.2h-1.6a.2.2 0 0 1-.2-.2v-1.6z"/><path id="p" d="M36.5 31.2c0-.11.09-.2.2-.2h1.6c.11 0 .2.09.2.2v1.6a.2.2 0 0 1-.2.2h-1.6a.2.2 0 0 1-.2-.2v-1.6z"/></defs></svg>