<svg width="12" height="12" viewBox="0 0 12 12" xmlns="http://www.w3.org/2000/svg" xmlns:xlink="http://www.w3.org/1999/xlink" xmlns:figma="http://www.figma.com/figma/ns"><title>date-small</title><desc>Created using Figma</desc><g transform="translate(-88 120)" figma:type="canvas"><mask id="a"><path d="M88-120h12v12H88v-12z" fill="#FFF"/></mask><g style="mix-blend-mode:normal" mask="url(#a)" figma:type="frame"><g style="mix-blend-mode:normal" figma:type="vector" transform="translate(88 -119.125)" fill="#3BB75E"><use xlink:href="#b" style="mix-blend-mode:normal"/><use xlink:href="#c" style="mix-blend-mode:normal"/><use xlink:href="#d" style="mix-blend-mode:normal"/><use xlink:href="#e" style="mix-blend-mode:normal"/><use xlink:href="#f" style="mix-blend-mode:normal"/><use xlink:href="#g" style="mix-blend-mode:normal"/><use xlink:href="#h" style="mix-blend-mode:normal"/><use xlink:href="#i" style="mix-blend-mode:normal"/><use xlink:href="#j" style="mix-blend-mode:normal"/><use xlink:href="#k" style="mix-blend-mode:normal"/><use xlink:href="#l" style="mix-blend-mode:normal"/><use xlink:href="#m" style="mix-blend-mode:normal"/><use xlink:href="#n" style="mix-blend-mode:normal"/><use xlink:href="#o" style="mix-blend-mode:normal"/><use xlink:href="#p" style="mix-blend-mode:normal"/></g></g></g><defs><path id="b" fill-rule="evenodd" d="M11.5 1.222H.5v9.29h11v-9.29zM.5.733c-.276 0-.5.22-.5.49v9.288c0 .27.224.489.5.489h11c.276 0 .5-.219.5-.489V1.222a.495.495 0 0 0-.5-.489H.5z"/><path id="c" fill-rule="evenodd" d="M2.625 0c.138 0 .25.11.25.244v1.467a.247.247 0 0 1-.25.245.247.247 0 0 1-.25-.245V.244c0-.135.112-.244.25-.244z"/><path id="d" fill-rule="evenodd" d="M9.375 0c.138 0 .25.11.25.244v1.467a.247.247 0 0 1-.25.245.247.247 0 0 1-.25-.245V.244c0-.135.112-.244.25-.244z"/><path id="e" d="M2.375 4.204a.05.05 0 0 1 .05-.048h.4a.05.05 0 0 1 .05.048v.392a.05.05 0 0 1-.05.048h-.4a.05.05 0 0 1-.05-.048v-.392z"/><path id="f" d="M4.625 4.204a.05.05 0 0 1 .05-.048h.4a.05.05 0 0 1 .05.048v.392a.05.05 0 0 1-.05.048h-.4a.05.05 0 0 1-.05-.048v-.392z"/><path id="g" d="M6.875 4.204a.05.05 0 0 1 .05-.048h.4a.05.05 0 0 1 .05.048v.392a.05.05 0 0 1-.05.048h-.4a.05.05 0 0 1-.05-.048v-.392z"/><path id="h" d="M9.125 4.204a.05.05 0 0 1 .05-.048h.4a.05.05 0 0 1 .05.048v.392a.05.05 0 0 1-.05.048h-.4a.05.05 0 0 1-.05-.048v-.392z"/><path id="i" d="M2.375 5.916a.05.05 0 0 1 .05-.05h.4a.05.05 0 0 1 .05.05v.39a.05.05 0 0 1-.05.05h-.4a.05.05 0 0 1-.05-.05v-.39z"/><path id="j" d="M4.625 5.916a.05.05 0 0 1 .05-.05h.4a.05.05 0 0 1 .05.05v.39a.05.05 0 0 1-.05.05h-.4a.05.05 0 0 1-.05-.05v-.39z"/><path id="k" d="M6.875 5.916a.05.05 0 0 1 .05-.05h.4a.05.05 0 0 1 .05.05v.39a.05.05 0 0 1-.05.05h-.4a.05.05 0 0 1-.05-.05v-.39z"/><path id="l" d="M9.125 5.916a.05.05 0 0 1 .05-.05h.4a.05.05 0 0 1 .05.05v.39a.05.05 0 0 1-.05.05h-.4a.05.05 0 0 1-.05-.05v-.39z"/><path id="m" d="M2.375 7.627a.05.05 0 0 1 .05-.05h.4a.05.05 0 0 1 .05.05v.39a.05.05 0 0 1-.05.05h-.4a.05.05 0 0 1-.05-.05v-.39z"/><path id="n" d="M4.625 7.627a.05.05 0 0 1 .05-.05h.4a.05.05 0 0 1 .05.05v.39a.05.05 0 0 1-.05.05h-.4a.05.05 0 0 1-.05-.05v-.39z"/><path id="o" d="M6.875 7.627a.05.05 0 0 1 .05-.05h.4a.05.05 0 0 1 .05.05v.39a.05.05 0 0 1-.05.05h-.4a.05.05 0 0 1-.05-.05v-.39z"/><path id="p" d="M9.125 7.627a.05.05 0 0 1 .05-.05h.4a.05.05 0 0 1 .05.05v.39a.05.05 0 0 1-.05.05h-.4a.05.05 0 0 1-.05-.05v-.39z"/></defs></svg>