<svg width="48" height="48" viewBox="0 0 48 48" xmlns="http://www.w3.org/2000/svg" xmlns:xlink="http://www.w3.org/1999/xlink" xmlns:figma="http://www.figma.com/figma/ns"><title>decision-tree</title><desc>Created using Figma</desc><g transform="translate(145 -195)" figma:type="canvas"><mask id="a"><path d="M-145 195h48v48h-48v-48z" fill="#FFF"/></mask><g style="mix-blend-mode:normal" mask="url(#a)" figma:type="frame"><use xlink:href="#b" transform="translate(-126.766 196.448)" fill="#3BB75E" style="mix-blend-mode:normal" figma:type="vector"/><use xlink:href="#c" transform="translate(-135.038 209.603)" fill="#3BB75E" style="mix-blend-mode:normal" figma:type="vector"/><use xlink:href="#d" transform="translate(-109.877 195)" fill="#3BB75E" style="mix-blend-mode:normal" figma:type="vector"/><use xlink:href="#e" transform="translate(-143.907 208.477)" fill="#3BB75E" style="mix-blend-mode:normal" figma:type="vector"/><use xlink:href="#f" transform="translate(-117.808 230.824)" fill="#3BB75E" style="mix-blend-mode:normal" figma:type="vector"/></g></g><defs><path id="b" d="M.287 10.488a.926.926 0 0 0 .657.28.926.926 0 0 0 .656-.28l3.8-3.8 3.798 3.8a.926.926 0 0 0 .656.28.926.926 0 0 0 .657-.28c.352-.352.352-.938 0-1.314L6.712 5.376l3.799-3.8c.352-.35.352-.937 0-1.312-.352-.352-.938-.352-1.313 0L5.399 4.063 1.577.287C1.225-.064.639-.064.264.287c-.352.352-.352.938 0 1.313l3.799 3.8-3.8 3.798a.9.9 0 0 0 .024 1.29z"/><path id="c" d="M36.768 5.282L31.75.264c-.352-.352-.938-.352-1.313 0l-5.018 5.018c-.352.352-.352.938 0 1.313a.926.926 0 0 0 .656.281c.235 0 .516-.093.704-.281l3.47-3.447V5c0 4.643-3.845 8.395-8.488 8.395H10.224C4.549 13.395 0 18.015 0 23.69v8.794a.92.92 0 0 0 .938.914c.516 0 .938-.422.938-.914v-8.794c0-4.643 3.681-8.418 8.324-8.418h11.537c5.651 0 10.365-4.62 10.365-10.27V3.147l3.376 3.447a.875.875 0 0 0 .633.281.837.837 0 0 0 .634-.281.907.907 0 0 0 .023-1.313z"/><path id="d" d="M5.933 11.865a5.94 5.94 0 0 0 5.932-5.932A5.924 5.924 0 0 0 5.933 0C2.65 0 0 2.697 0 5.956c0 3.26 2.673 5.91 5.933 5.91zm0-9.99a4.083 4.083 0 0 1 4.08 4.081 4.083 4.083 0 0 1-4.08 4.08 4.083 4.083 0 0 1-4.08-4.08 4.083 4.083 0 0 1 4.08-4.08z"/><path id="e" d="M9.174 10.511a.906.906 0 0 0 1.29-.023c.352-.352.352-.938 0-1.314L6.665 5.376l3.8-3.8c.35-.35.35-.937 0-1.312-.353-.352-.939-.352-1.314 0L5.352 4.063 1.577.31C1.225-.041.639-.041.264.31c-.352.351-.352.938 0 1.313l3.799 3.799-3.8 3.798c-.35.352-.35.938 0 1.313a.926.926 0 0 0 .657.282.926.926 0 0 0 .657-.282l3.799-3.798 3.798 3.775z"/><path id="f" d="M10.488.264c-.352-.352-.938-.352-1.314 0L5.376 4.063l-3.8-3.8c-.35-.35-.937-.35-1.312 0-.352.353-.352.939 0 1.314l3.799 3.799-3.8 3.798c-.35.352-.35.938 0 1.314a.926.926 0 0 0 .657.28.926.926 0 0 0 .657-.28l3.799-3.8 3.798 3.8a.926.926 0 0 0 .657.28.926.926 0 0 0 .657-.28c.351-.352.351-.938 0-1.314l-3.8-3.798 3.8-3.8c.375-.374.375-.96 0-1.312z"/></defs></svg>