<svg width="48" height="48" viewBox="0 0 48 48" xmlns="http://www.w3.org/2000/svg" xmlns:xlink="http://www.w3.org/1999/xlink" xmlns:figma="http://www.figma.com/figma/ns"><title>easy-integration</title><desc>Created using Figma</desc><g transform="translate(233 205)" figma:type="canvas"><mask id="a"><path d="M-233-205h48v48h-48v-48z" fill="#FFF"/></mask><g style="mix-blend-mode:normal" mask="url(#a)" figma:type="frame"><g style="mix-blend-mode:normal" figma:type="vector" transform="translate(-233 -205)" fill="#3BB75E"><use xlink:href="#b" style="mix-blend-mode:normal"/><use xlink:href="#c" style="mix-blend-mode:normal"/><use xlink:href="#d" style="mix-blend-mode:normal"/><use xlink:href="#e" style="mix-blend-mode:normal"/></g></g></g><defs><path id="b" fill-rule="evenodd" d="M35.998 30.232l-2-.026a16.021 16.021 0 0 1-.486 3.734l1.938.49c.345-1.363.53-2.77.548-4.198zm-1.856-8.205l-1.792.887c.557 1.126.98 2.315 1.257 3.547l1.951-.44a17.882 17.882 0 0 0-1.416-3.994zm-5.413-6.482l-1.194 1.606c1.011.75 1.93 1.619 2.74 2.585l1.533-1.284a18.099 18.099 0 0 0-3.08-2.907zm-7.963-3.334l-.305 1.977c1.25.193 2.466.533 3.625 1.01l.762-1.85a17.878 17.878 0 0 0-4.082-1.137zm-7.418.396l.515 1.933a15.961 15.961 0 0 1 2.963-.498l-.144-1.994a17.92 17.92 0 0 0-3.334.56z"/><path id="c" fill-rule="evenodd" d="M12.012 17.323l2 .074c.046-1.27.242-2.516.579-3.72l-1.926-.54c-.38 1.356-.6 2.758-.652 4.186zm1.653 8.249l1.815-.842a15.875 15.875 0 0 1-1.17-3.577l-1.96.392a17.871 17.871 0 0 0 1.316 4.027zm5.249 6.61l1.232-1.575a16.1 16.1 0 0 1-2.673-2.652L15.908 29.2a18.103 18.103 0 0 0 3.006 2.982zm7.864 3.53l.356-1.968a15.871 15.871 0 0 1-3.598-1.103l-.81 1.829c1.293.571 2.651.989 4.052 1.242zm7.931-.335l-.522-1.93a15.975 15.975 0 0 1-3.406.534l.096 1.998a17.983 17.983 0 0 0 3.832-.602z"/><path id="d" fill-rule="evenodd" d="M0 30c0 9.941 8.059 18 18 18a18.006 18.006 0 0 0 17.45-13.57l-1.939-.49A16.006 16.006 0 0 1 18 46C9.163 46 2 38.837 2 30a16.007 16.007 0 0 1 11.856-15.459l-.516-1.932A18.006 18.006 0 0 0 0 30z"/><path id="e" fill-rule="evenodd" d="M48 18c0-9.941-8.059-18-18-18a18.007 18.007 0 0 0-17.335 13.138l1.926.539A16.007 16.007 0 0 1 30 2c8.837 0 16 7.163 16 16 0 7.27-4.892 13.573-11.807 15.445l.522 1.93A18.006 18.006 0 0 0 48 18z"/></defs></svg>