<svg width="48" height="48" viewBox="0 0 48 48" xmlns="http://www.w3.org/2000/svg" xmlns:xlink="http://www.w3.org/1999/xlink" xmlns:figma="http://www.figma.com/figma/ns"><title>export</title><desc>Created using Figma</desc><g transform="translate(233 -115)" figma:type="canvas"><mask id="a"><path d="M-233 115h48v48h-48v-48z" fill="#FFF"/></mask><g style="mix-blend-mode:normal" mask="url(#a)" figma:type="frame"><use xlink:href="#b" transform="translate(-233 121.247)" fill="#3BB75E" style="mix-blend-mode:normal" figma:type="vector"/></g></g><defs><path id="b" d="M19.428 0C14.278 0 9.631.566 6.18 1.54c-1.726.486-3.149 1.065-4.232 1.79C.924 4.013.107 4.94.02 6.103v.018A1.196 1.196 0 0 0 0 6.3v20.62c0 1.26.812 2.244 1.876 3.08 1.063.835 2.483 1.564 4.214 2.201 3.461 1.276 8.144 2.166 13.338 2.166 3.754 0 7.04-.45 9.982-1.181a1.145 1.145 0 0 0 .872-.939 1.153 1.153 0 0 0-.959-1.318 1.145 1.145 0 0 0-.449.02c-2.767.688-5.873 1.127-9.446 1.127-4.935 0-9.404-.862-12.553-2.022-1.574-.58-2.807-1.23-3.589-1.844-.782-.614-1-1.121-1-1.289v-1.324c1.03.742 2.326 1.322 3.84 1.825 3.48 1.158 8.144 1.79 13.302 1.79 3.37 0 5.981-.066 8.786-.59a1.145 1.145 0 0 0 .9-1.34 1.148 1.148 0 0 0-1.329-.916c-2.59.484-5.018.555-8.357.555-4.971 0-9.46-.624-12.588-1.665-1.565-.52-2.78-1.16-3.536-1.79-.756-.63-1.018-1.157-1.018-1.7V20.37c1.036.761 2.303 1.387 3.84 1.898 3.48 1.157 8.144 1.79 13.302 1.79 4.304 0 7.39-.373 10.571-1.182a1.141 1.141 0 0 0 .847-.95 1.15 1.15 0 0 0-.973-1.294 1.14 1.14 0 0 0-.445.025c-3.007.764-5.825 1.11-10 1.11-4.971 0-9.46-.625-12.588-1.665-1.565-.52-2.78-1.16-3.536-1.79-.756-.63-1.018-1.159-1.018-1.7a1.154 1.154 0 0 0 0-.108v-1.217c1.03.743 2.326 1.322 3.84 1.826 3.48 1.157 8.144 1.79 13.302 1.79 5.159 0 9.822-.633 13.303-1.79 1.514-.504 2.81-1.083 3.84-1.826v1.897a1.15 1.15 0 0 0 .7 1.073 1.14 1.14 0 0 0 1.585-1.073v-5.727a1.131 1.131 0 0 0 0-.108V6.193a1.147 1.147 0 0 0-.018-.107c-.095-1.154-.91-2.076-1.928-2.757-1.084-.724-2.507-1.303-4.232-1.79C29.226.566 24.58 0 19.428 0zm0 2.291c4.979 0 9.466.56 12.625 1.45 1.579.445 2.826.994 3.589 1.503.762.51.928.89.928 1.057 0 .542-.261 1.07-1.018 1.7-.756.63-1.97 1.27-3.535 1.79-3.129 1.04-7.617 1.665-12.589 1.665-4.971 0-9.46-.625-12.588-1.665C5.275 9.27 4.06 8.63 3.304 8c-.756-.63-1.018-1.158-1.018-1.7 0-.168.167-.547.929-1.057.762-.51 2.01-1.058 3.59-1.503 3.158-.89 7.645-1.45 12.623-1.45zm-17.142 7.84c1.03.743 2.326 1.322 3.84 1.826 3.48 1.157 8.144 1.79 13.302 1.79 5.159 0 9.822-.633 13.303-1.79 1.514-.504 2.81-1.083 3.84-1.826v1.253a.433.433 0 0 0 0 .072c0 .542-.262 1.07-1.019 1.7-.756.63-1.97 1.27-3.535 1.79-3.129 1.04-7.617 1.664-12.589 1.664-4.971 0-9.46-.624-12.588-1.664-1.565-.52-2.78-1.16-3.536-1.79-.756-.63-1.018-1.158-1.018-1.7a1.152 1.152 0 0 0 0-.108v-1.217zm37.659 10.471a1.14 1.14 0 0 0-1.035.76 1.148 1.148 0 0 0 .32 1.245l4.68 4.313H32a1.143 1.143 0 0 0-1.207 1.2 1.148 1.148 0 0 0 1.206 1.091h11.91l-4.678 4.296a1.148 1.148 0 0 0 1.152 1.932c.142-.051.272-.13.383-.231l6.857-6.3a1.148 1.148 0 0 0 0-1.701l-6.857-6.3a1.143 1.143 0 0 0-.821-.305z"/></defs></svg>