<svg width="48" height="48" viewBox="0 0 48 48" version="1.1" xmlns="http://www.w3.org/2000/svg" xmlns:xlink="http://www.w3.org/1999/xlink" xmlns:figma="http://www.figma.com/figma/ns">
<title>flexible</title>
<desc>Created using Figma</desc>
<g id="Canvas" transform="translate(233 -185)" figma:type="canvas">
<mask id="mask0_alpha" mask-type="alpha">
<path d="M -233 185L -185 185L -185 233L -233 233L -233 185Z" fill="#FFFFFF"/>
</mask>
<g id="flexible" style="mix-blend-mode:normal;" mask="url(#mask0_alpha)" figma:type="frame">
<g id="Vector" style="mix-blend-mode:normal;" figma:type="vector">
<use xlink:href="#path0_fill" transform="translate(-233.009 185)" fill="#3BB75E" style="mix-blend-mode:normal;"/>
<use xlink:href="#path1_fill" transform="translate(-233.009 185)" fill="#3BB75E" style="mix-blend-mode:normal;"/>
<use xlink:href="#path2_fill" transform="translate(-233.009 185)" fill="#3BB75E" style="mix-blend-mode:normal;"/>
<use xlink:href="#path3_fill" transform="translate(-233.009 185)" fill="#3BB75E" style="mix-blend-mode:normal;"/>
</g>
</g>
</g>
<defs>
<path id="path0_fill" d="M 13.2936 33.849L 13.2653 31.7133C 13.2243 31.7133 13.1832 31.7127 13.1421 31.7127C 8.51457 31.7127 3.25489 31.9591 0.312528 34.9009C 0.111665 35.1017 0.000644488 35.37 2.75081e-06 35.6555C -0.000638986 35.9411 0.111023 36.2094 0.313812 36.4121C 0.515317 36.613 0.782922 36.7227 1.06849 36.7227C 1.35343 36.7227 1.62103 36.6124 1.82382 36.4109C 4.18669 34.0467 8.95031 33.8497 13.1588 33.8497C 13.2025 33.849 13.2487 33.849 13.2936 33.849Z"/>
<path id="path1_fill" d="M 36.4211 1.81227C 36.8364 1.39578 36.8357 0.719387 36.4205 0.302258C 36.0181 -0.100111 35.3174 -0.101394 34.9099 0.302258C 30.4299 4.78415 31.0838 10.1728 31.7159 15.3863C 32.3249 20.3931 32.8999 25.1221 29.0168 29.0059C 26.4954 31.5273 21.6541 31.7384 17.3141 31.7384C 17.2127 31.7384 17.1113 31.7365 17.0105 31.7365L 17.0105 33.8715C 17.1113 33.8715 17.2127 33.8741 17.3134 33.8741C 22.0815 33.8741 27.4272 33.6142 30.5255 30.5165C 35.1454 25.8973 34.4793 20.4233 33.8349 15.1283C 33.2388 10.2068 32.6753 5.55808 36.4211 1.81227Z"/>
<path id="path2_fill" d="M 18.9935 18.9839C 21.1356 16.8411 23.6307 15.8856 27.0826 15.8856C 28.3795 15.8856 29.7015 16.0133 31.0761 16.1775L 30.7719 13.9944C 29.5546 13.8577 28.3231 13.755 27.1038 13.755C 23.0769 13.755 20.0196 14.9364 17.4835 17.4739C 14.0335 20.9245 14.0868 26.9761 14.1381 32.8454C 14.1849 38.0999 14.2324 43.5335 11.5891 46.1775C 11.1733 46.5933 11.1733 47.2697 11.5891 47.6875C 11.79 47.889 12.0576 48 12.3438 48C 12.6287 48 12.8976 47.889 13.0985 47.6875C 16.3758 44.4108 16.3239 38.5203 16.2738 32.8152C 16.2257 27.4002 16.1756 21.8011 18.9935 18.9839Z"/>
<path id="path3_fill" d="M 47.6958 11.5789C 47.2928 11.1771 46.592 11.1758 46.1858 11.5795C 44.0334 13.7319 41.53 14.6919 38.0685 14.6919C 36.8755 14.6919 35.6607 14.5835 34.4067 14.4384L 34.6596 16.6133C 35.7858 16.7333 36.9204 16.8212 38.046 16.8212C 42.0845 16.8212 45.15 15.6346 47.6958 13.0895C 47.8973 12.888 48.009 12.6191 48.009 12.3329C 48.009 12.048 47.8973 11.7804 47.6958 11.5789Z"/>
</defs>
</svg>
