<svg width="48" height="48" viewBox="0 0 48 48" xmlns="http://www.w3.org/2000/svg" xmlns:xlink="http://www.w3.org/1999/xlink" xmlns:figma="http://www.figma.com/figma/ns"><title>infrastructure</title><desc>Created using Figma</desc><g transform="translate(233 45)" figma:type="canvas"><mask id="a"><path d="M-233-45h48V3h-48v-48z" fill="#FFF"/></mask><g style="mix-blend-mode:normal" mask="url(#a)" figma:type="frame"><g style="mix-blend-mode:normal" figma:type="vector" transform="translate(-233 -45)" fill="#3BB75E"><use xlink:href="#b" style="mix-blend-mode:normal"/><use xlink:href="#c" style="mix-blend-mode:normal"/><use xlink:href="#d" style="mix-blend-mode:normal"/><use xlink:href="#e" style="mix-blend-mode:normal"/></g></g></g><defs><path id="b" d="M6 9a1 1 0 0 1 1-1h14a1 1 0 1 1 0 2H7a1 1 0 0 1-1-1z"/><path id="c" d="M6 24a1 1 0 0 1 1-1h14a1 1 0 1 1 0 2H7a1 1 0 0 1-1-1z"/><path id="d" d="M6 39a1 1 0 0 1 1-1h14a1 1 0 1 1 0 2H7a1 1 0 0 1-1-1z"/><path id="e" d="M1 0a1 1 0 0 0-1 1v46a1 1 0 0 0 1 1h46a1 1 0 0 0 1-1V1a1 1 0 0 0-1-1H1zm44 2a1 1 0 0 1 1 1v11.97a1 1 0 0 1-1 1L3 16a1 1 0 0 1-1-1V3a1 1 0 0 1 1-1h42zm0 16a1 1 0 0 1 1 1v10.976a1 1 0 0 1-1 1L3 31a1 1 0 0 1-1-1V19.017a1 1 0 0 1 1-1L45 18zM3 45.983a1 1 0 0 1-1-1v-10.96a1 1 0 0 1 1-1L45 33a1 1 0 0 1 1 1v11a1 1 0 0 1-1 1l-42-.017z"/></defs></svg>