<svg width="48" height="48" viewBox="0 0 48 48" version="1.1" xmlns="http://www.w3.org/2000/svg" xmlns:xlink="http://www.w3.org/1999/xlink" xmlns:figma="http://www.figma.com/figma/ns">
<title>instalments</title>
<desc>Created using Figma</desc>
<g id="Canvas" transform="translate(57 -365)" figma:type="canvas">
<mask id="mask0_alpha" mask-type="alpha">
<path d="M -57 365L -9 365L -9 413L -57 413L -57 365Z" fill="#FFFFFF"/>
</mask>
<g id="instalments" mask="url(#mask0_alpha)" figma:type="frame">
<g id="Vector" figma:type="vector">
<use xlink:href="#path0_fill" transform="translate(-57 366)" fill="#3BB75E"/>
</g>
</g>
</g>
<defs>
<path id="path0_fill" d="M 24.4992 0.00122436C 23.9292 0.0278337 23.4351 0.570642 23.4619 1.14056C 23.4886 1.71047 24.0313 2.20468 24.6012 2.17786C 36.3348 2.17786 45.8234 11.6664 45.8234 23.4C 45.8234 35.1336 36.3348 44.6222 24.6012 44.6222C 12.8676 44.6222 3.37902 35.1336 3.37902 23.4C 3.37902 18.1928 5.78811 12.8026 9.09268 8.94583L 9.90892 15.3737C 9.945 15.6623 10.0943 15.9248 10.3239 16.1034C 10.5535 16.282 10.8446 16.3621 11.1333 16.326C 11.4219 16.2899 11.6844 16.1406 11.863 15.911C 12.0416 15.6814 12.1216 15.3903 12.0856 15.1016L 10.9972 6.39508C 10.9807 6.2484 10.9346 6.1066 10.8615 5.97831C 10.7885 5.85003 10.6901 5.73794 10.5724 5.64887C 10.4547 5.55979 10.3201 5.49559 10.1768 5.46016C 10.0335 5.42474 9.88452 5.41883 9.73887 5.44281C 9.72744 5.44828 9.7161 5.45395 9.70486 5.45981L 0.998328 7.09229C 0.846129 7.10493 0.698294 7.14946 0.564434 7.22298C 0.430573 7.29651 0.313684 7.39738 0.221366 7.51904C 0.129047 7.64071 0.0633656 7.78043 0.0285909 7.92915C -0.0061838 8.07786 -0.00927309 8.23222 0.0195238 8.38221C 0.0483207 8.53219 0.108359 8.67444 0.195736 8.79969C 0.283113 8.92495 0.395872 9.03042 0.526684 9.10924C 0.657495 9.18806 0.80343 9.23847 0.955002 9.25719C 1.10657 9.27592 1.26039 9.26253 1.40645 9.21791L 6.91605 8.19761C 3.56976 12.3461 1.20239 17.8317 1.20239 23.4C 1.20239 36.31 11.6913 46.7988 24.6012 46.7988C 37.5111 46.7988 48 36.31 48 23.4C 48 10.4901 37.5111 0.00122436 24.6012 0.00122436C 24.5672 -0.000408119 24.5331 -0.000408119 24.4992 0.00122436ZM 22.8497 8.58872C 22.5792 8.61845 22.3296 8.74842 22.1502 8.95301C 21.9708 9.15761 21.8746 9.42199 21.8804 9.69405L 21.8804 25.0325C 21.8804 25.3211 21.9951 25.5979 22.1992 25.802C 22.4033 26.0061 22.6801 26.1208 22.9687 26.1208L 34.8212 26.1208C 34.9654 26.1229 35.1086 26.0962 35.2424 26.0424C 35.3762 25.9887 35.498 25.9088 35.6007 25.8076C 35.7034 25.7063 35.785 25.5856 35.8406 25.4526C 35.8963 25.3195 35.925 25.1767 35.925 25.0325C 35.925 24.8883 35.8963 24.7455 35.8406 24.6124C 35.785 24.4794 35.7034 24.3587 35.6007 24.2575C 35.498 24.1562 35.3762 24.0764 35.2424 24.0226C 35.1086 23.9688 34.9654 23.9422 34.8212 23.9442L 24.057 23.9442L 24.057 9.69405C 24.0604 9.53912 24.0306 9.38526 23.9697 9.24277C 23.9088 9.10028 23.8181 8.97244 23.7038 8.8678C 23.5895 8.76316 23.4542 8.68413 23.3069 8.636C 23.1596 8.58787 23.0037 8.57175 22.8497 8.58872Z"/>
</defs>
</svg>
