<svg width="48" height="48" viewBox="0 0 48 48" xmlns="http://www.w3.org/2000/svg" xmlns:xlink="http://www.w3.org/1999/xlink" xmlns:figma="http://www.figma.com/figma/ns"><title>libraries</title><desc>Created using Figma</desc><g transform="translate(57 -115)" figma:type="canvas"><mask id="a"><path d="M-57 115h48v48h-48v-48z" fill="#FFF"/></mask><g style="mix-blend-mode:normal" mask="url(#a)" figma:type="frame" fill="#3BB75E"><g style="mix-blend-mode:normal" figma:type="vector" transform="translate(-55 115)"><use xlink:href="#b" style="mix-blend-mode:normal"/><use xlink:href="#c" style="mix-blend-mode:normal"/><use xlink:href="#d" style="mix-blend-mode:normal"/></g><g style="mix-blend-mode:normal" figma:type="vector" transform="translate(-55 141)"><use xlink:href="#b" style="mix-blend-mode:normal"/><use xlink:href="#c" style="mix-blend-mode:normal"/><use xlink:href="#d" style="mix-blend-mode:normal"/></g></g></g><defs><path id="b" fill-rule="evenodd" d="M2 8v12h40V8H2zM1 6a1 1 0 0 0-1 1v14a1 1 0 0 0 1 1h42a1 1 0 0 0 1-1V7a1 1 0 0 0-1-1H1z"/><path id="c" fill-rule="evenodd" d="M7 2v4h10V2H7zM6 0a1 1 0 0 0-1 1v6a1 1 0 0 0 1 1h12a1 1 0 0 0 1-1V1a1 1 0 0 0-1-1H6z"/><path id="d" fill-rule="evenodd" d="M27 2v4h10V2H27zm-1-2a1 1 0 0 0-1 1v6a1 1 0 0 0 1 1h12a1 1 0 0 0 1-1V1a1 1 0 0 0-1-1H26z"/></defs></svg>