<svg width="72" height="72" viewBox="0 0 72 72" xmlns="http://www.w3.org/2000/svg" xmlns:xlink="http://www.w3.org/1999/xlink" xmlns:figma="http://www.figma.com/figma/ns"><title>magic-hat</title><desc>Created using Figma</desc><g transform="translate(57 45)" figma:type="canvas"><mask id="a"><path d="M-57-45h72v72h-72v-72z" fill="#FFF"/></mask><g style="mix-blend-mode:normal" mask="url(#a)" figma:type="frame"><g style="mix-blend-mode:normal" figma:type="vector" transform="translate(-57 -45)" fill="#3BB75E"><use xlink:href="#b" style="mix-blend-mode:normal"/><use xlink:href="#c" style="mix-blend-mode:normal"/></g></g></g><defs><path id="b" fill-rule="evenodd" d="M36 70c18.778 0 34-15.222 34-34S54.778 2 36 2 2 17.222 2 36s15.222 34 34 34zm0 2c19.882 0 36-16.118 36-36S55.882 0 36 0 0 16.118 0 36s16.118 36 36 36z"/><path id="c" fill-rule="evenodd" d="M22.255 21.177a.732.732 0 0 1 .972-1.093l3.15 2.804a.731.731 0 1 1-.971 1.092l-3.151-2.803zm5.328-6.51a.731.731 0 1 1 1.371-.508l2.803 7.557a.73.73 0 1 1-1.37.509l-2.804-7.557zm17.98 9.253a.731.731 0 0 1 .06-1.032l3.151-2.804a.731.731 0 1 1 .972 1.093l-3.151 2.803a.73.73 0 0 1-1.033-.06zm-5.32-2.204l2.803-7.557a.731.731 0 1 1 1.371.509l-2.803 7.557a.732.732 0 1 1-1.371-.509zm-4.974-.721V11.73a.731.731 0 1 1 1.463 0v9.264a.731.731 0 1 1-1.463 0zm11.374 9.277c0 2.979-10.001 3.013-10.427 3.013-.425 0-10.427-.034-10.427-3.013a.731.731 0 0 1 1.461-.04c.082.139.335.303.742.473 1.15-.69 4.297-1.185 8.008-1.185 3.898 0 7.173.546 8.166 1.29.568-.206.917-.41 1.015-.579a.732.732 0 0 1 1.462.04zM36 59.537c-7.266 0-11.264-1.641-11.343-2.51l1.685-16.229a40.12 40.12 0 0 0 3.416.53c1.98.225 4.08.34 6.242.34 3.486 0 6.871-.31 9.659-.872l1.685 16.232c-.08.868-4.077 2.51-11.344 2.51zm0-24.058c-9.414 0-15.195-2.423-15.195-4.162 0-1.737 5.781-4.161 15.195-4.161 9.415 0 15.196 2.424 15.196 4.162s-5.781 4.16-15.196 4.16zm0-9.786c-8.075 0-16.658 1.971-16.658 5.624 0 1.97 2.495 3.449 6.057 4.395l-2.203 21.214-.003.075C23.193 59.748 29.832 61 36 61c6.17 0 12.808-1.252 12.808-3.998l-2.207-21.29c3.563-.946 6.057-2.425 6.057-4.395 0-3.653-8.582-5.624-16.658-5.624z"/></defs></svg>