<svg width="48" height="48" viewBox="0 0 48 48" xmlns="http://www.w3.org/2000/svg" xmlns:xlink="http://www.w3.org/1999/xlink" xmlns:figma="http://www.figma.com/figma/ns"><title>multi-business</title><desc>Created using Figma</desc><g transform="translate(145 -115)" figma:type="canvas"><mask id="a"><path d="M-145 115h48v48h-48v-48z" fill="#FFF"/></mask><g style="mix-blend-mode:normal" mask="url(#a)" figma:type="frame"><g style="mix-blend-mode:normal" figma:type="vector" transform="translate(-145 119)" fill="#3BB75E"><use xlink:href="#b" style="mix-blend-mode:normal"/><use xlink:href="#c" style="mix-blend-mode:normal"/><use xlink:href="#d" style="mix-blend-mode:normal"/><use xlink:href="#e" style="mix-blend-mode:normal"/></g></g></g><defs><path id="b" fill-rule="evenodd" d="M15 27.668H2v-18h8.435l3.414 2.94c.47.363 1.365.695 1.958.727H31v7.273h2v-8.273a1 1 0 0 0-1-1H15.807a1 1 0 0 1-.653-.243L11.46 7.91a1 1 0 0 0-.653-.242H1a1 1 0 0 0-1 1v20a1 1 0 0 0 1 1h14v-2z"/><path id="c" fill-rule="evenodd" d="M17 36.941h29V22.608H30.807c-.593-.032-1.488-.364-1.958-.727l-3.414-2.94H17v18zm-2 1v-20a1 1 0 0 1 1-1h9.806a1 1 0 0 1 .653.242l3.695 3.182a1 1 0 0 0 .653.243H47a1 1 0 0 1 1 1V37.94a1 1 0 0 1-1 1H16a1 1 0 0 1-1-1z"/><path id="d" fill-rule="evenodd" d="M36.603 3.084c-2.915-1.782-7.391-1.683-11.358 2.75a1 1 0 1 1-1.49-1.333C28.288-.565 33.812-.966 37.647 1.377c3.796 2.32 5.741 7.251 3.247 12.238a1 1 0 1 1-1.788-.894c2.006-4.013.451-7.832-2.503-9.637z"/><path id="e" fill-rule="evenodd" d="M37.053 8.774a1 1 0 0 1 1.341.447l1.642 3.282 3.221-.805a1 1 0 1 1 .486 1.94l-4 1a1 1 0 0 1-1.137-.523l-2-4a1 1 0 0 1 .447-1.341z"/></defs></svg>