<svg width="48" height="48" viewBox="0 0 48 48" xmlns="http://www.w3.org/2000/svg" xmlns:xlink="http://www.w3.org/1999/xlink" xmlns:figma="http://www.figma.com/figma/ns"><title>mullticurrency</title><desc>Created using Figma</desc><g transform="translate(57 205)" figma:type="canvas"><mask id="a"><path d="M-57-205h48v48h-48v-48z" fill="#FFF"/></mask><g style="mix-blend-mode:normal" mask="url(#a)" figma:type="frame"><g style="mix-blend-mode:normal" figma:type="vector" transform="translate(-56.52 -204.52)" fill="#3BB75E"><use xlink:href="#b" style="mix-blend-mode:normal"/><use xlink:href="#c" style="mix-blend-mode:normal"/><use xlink:href="#d" style="mix-blend-mode:normal"/><use xlink:href="#e" style="mix-blend-mode:normal"/><use xlink:href="#f" style="mix-blend-mode:normal"/></g></g></g><defs><path id="b" fill-rule="evenodd" d="M47.537 31.624c0 8.56-6.94 15.5-15.5 15.5-8.56 0-15.5-6.94-15.5-15.5 0-8.56 6.94-15.5 15.5-15.5 8.56 0 15.5 6.94 15.5 15.5zm-15.5 13.5c7.456 0 13.5-6.045 13.5-13.5 0-7.456-6.044-13.5-13.5-13.5s-13.5 6.044-13.5 13.5c0 7.455 6.044 13.5 13.5 13.5z"/><path id="c" fill-rule="evenodd" d="M14.546 2.008c-7.175.25-12.788 6.27-12.538 13.446.198 5.655 3.98 10.343 9.09 11.95a12.52 12.52 0 0 0 3.488.59 1 1 0 1 1-.062 2 15.384 15.384 0 0 1-4.027-.682C4.604 27.458.237 22.052.009 15.524-.28 7.244 6.197.298 14.477.009 22.756-.28 29.702 6.197 29.99 14.477a1 1 0 0 1-1.999.07c-.25-7.176-6.27-12.79-13.446-12.539z"/><path id="d" d="M35.761 35.59h-5.42a4.24 4.24 0 0 0 .869-2.484 5.137 5.137 0 0 0-.075-.827h2.144a.828.828 0 0 0 0-1.655h-2.592c-.041-.12-.082-.242-.124-.36a7.768 7.768 0 0 1-.595-2.537 2.28 2.28 0 0 1 2.483-2.069 4 4 0 0 1 2.72.994.827.827 0 0 0 1.185-1.156 5.672 5.672 0 0 0-3.905-1.493 3.904 3.904 0 0 0-4.138 3.724c.04.994.25 1.974.624 2.897h-.624a.828.828 0 0 0 0 1.655h1.135a3.9 3.9 0 0 1 .107.827 3.759 3.759 0 0 1-1.69 2.615.828.828 0 0 0 .448 1.523h7.448a.828.828 0 0 0 0-1.655z"/><path id="e" d="M19.382 17.45c0-2.243-2.062-3.172-4.032-3.933l.426-3.842a1.593 1.593 0 0 1 1.262 1.155.828.828 0 0 0 1.655 0 3.224 3.224 0 0 0-2.73-2.828l.104-.942a.828.828 0 0 0-.731-.914.844.844 0 0 0-.914.73l-.103.927c-2.502.035-4.179 1.35-4.179 3.303 0 1.903 1.687 2.796 3.423 3.492l-.51 4.594a2.278 2.278 0 0 1-1.947-1.741.828.828 0 0 0-1.655 0 3.87 3.87 0 0 0 3.418 3.397l-.103.925a.83.83 0 0 0 .824.92.829.829 0 0 0 .822-.736l.103-.927c2.735-.037 4.867-1.593 4.867-3.58zm-7.586-6.344c0-1.354 1.607-1.601 2.338-1.645l-.38 3.422c-1.211-.522-1.958-1.021-1.958-1.777zm2.904 8.258l.46-4.142c1.574.638 2.567 1.222 2.567 2.229 0 .973-1.386 1.823-3.027 1.913z"/><path id="f" d="M39.9 11.796a8.405 8.405 0 0 0-11.935-7.497.828.828 0 1 0 .698 1.502 6.634 6.634 0 0 1 2.82-.626 6.7 6.7 0 0 1 6.762 6.621h-3.31l4.138 4.966 4.138-4.966h-3.31z"/></defs></svg>