<svg width="48" height="48" viewBox="0 0 48 48" version="1.1" xmlns="http://www.w3.org/2000/svg" xmlns:xlink="http://www.w3.org/1999/xlink" xmlns:figma="http://www.figma.com/figma/ns">
<title>network</title>
<desc>Created using Figma</desc>
<g id="Canvas" transform="translate(321 -195)" figma:type="canvas">
<mask id="mask0_alpha" mask-type="alpha">
<path d="M -321 195L -273 195L -273 243L -321 243L -321 195Z" fill="#FFFFFF"/>
</mask>
<g id="network" style="mix-blend-mode:normal;" mask="url(#mask0_alpha)" figma:type="frame">
<g id="Ellipse 3 (Stroke)" style="mix-blend-mode:normal;" figma:type="vector">
<use xlink:href="#path0_fill" transform="translate(-307 214)" fill="#3BB75E" style="mix-blend-mode:normal;"/>
</g>
<g id="Ellipse 3 (Stroke)" style="mix-blend-mode:normal;" figma:type="vector">
<use xlink:href="#path1_fill" transform="translate(-285 225)" fill="#3BB75E" style="mix-blend-mode:normal;"/>
</g>
<g id="Ellipse 3 (Stroke)" style="mix-blend-mode:normal;" figma:type="vector">
<use xlink:href="#path1_fill" transform="translate(-321 231)" fill="#3BB75E" style="mix-blend-mode:normal;"/>
</g>
<g id="Ellipse 3 (Stroke)" style="mix-blend-mode:normal;" figma:type="vector">
<use xlink:href="#path2_fill" transform="translate(-321 200)" fill="#3BB75E" style="mix-blend-mode:normal;"/>
</g>
<g id="Ellipse 3 (Stroke)" style="mix-blend-mode:normal;" figma:type="vector">
<use xlink:href="#path2_fill" transform="translate(-284 205)" fill="#3BB75E" style="mix-blend-mode:normal;"/>
</g>
<g id="Ellipse 3 (Stroke)" style="mix-blend-mode:normal;" figma:type="vector">
<use xlink:href="#path2_fill" transform="translate(-297 195)" fill="#3BB75E" style="mix-blend-mode:normal;"/>
</g>
<g id="Line 5 (Stroke)" style="mix-blend-mode:normal;" figma:type="vector">
<use xlink:href="#path3_fill" transform="matrix(0.658505 -0.752577 0.752577 0.658505 -312.505 231.683)" fill="#3BB75E" style="mix-blend-mode:normal;"/>
</g>
<g id="Line 6 (Stroke)" style="mix-blend-mode:normal;" figma:type="vector">
<use xlink:href="#path4_fill" transform="matrix(-0.894427 -0.447214 0.447214 -0.894427 -282.894 229.789)" fill="#3BB75E" style="mix-blend-mode:normal;"/>
</g>
<g id="Line 7 (Stroke)" style="mix-blend-mode:normal;" figma:type="vector">
<use xlink:href="#path5_fill" transform="matrix(-0.707107 -0.707107 0.707107 -0.707107 -305.414 218.414)" fill="#3BB75E" style="mix-blend-mode:normal;"/>
</g>
<g id="Line 8 (Stroke)" style="mix-blend-mode:normal;" figma:type="vector">
<use xlink:href="#path6_fill" transform="matrix(0.413803 -0.910366 0.910366 0.413803 -298.821 214.172)" fill="#3BB75E" style="mix-blend-mode:normal;"/>
</g>
<g id="Line 9 (Stroke)" style="mix-blend-mode:normal;" figma:type="vector">
<use xlink:href="#path7_fill" transform="matrix(0.879292 -0.476283 0.476283 0.879292 -295.016 217.279)" fill="#3BB75E" style="mix-blend-mode:normal;"/>
</g>
</g>
</g>
<defs>
<path id="path0_fill" fill-rule="evenodd" d="M 7.5 13C 10.5376 13 13 10.5376 13 7.5C 13 4.46243 10.5376 2 7.5 2C 4.46243 2 2 4.46243 2 7.5C 2 10.5376 4.46243 13 7.5 13ZM 7.5 15C 11.6421 15 15 11.6421 15 7.5C 15 3.35786 11.6421 0 7.5 0C 3.35786 0 0 3.35786 0 7.5C 0 11.6421 3.35786 15 7.5 15Z"/>
<path id="path1_fill" fill-rule="evenodd" d="M 6 10C 8.20914 10 10 8.20914 10 6C 10 3.79086 8.20914 2 6 2C 3.79086 2 2 3.79086 2 6C 2 8.20914 3.79086 10 6 10ZM 6 12C 9.31371 12 12 9.31371 12 6C 12 2.68629 9.31371 0 6 0C 2.68629 0 0 2.68629 0 6C 0 9.31371 2.68629 12 6 12Z"/>
<path id="path2_fill" fill-rule="evenodd" d="M 5 8C 6.65685 8 8 6.65685 8 5C 8 3.34315 6.65685 2 5 2C 3.34315 2 2 3.34315 2 5C 2 6.65685 3.34315 8 5 8ZM 5 10C 7.76142 10 10 7.76142 10 5C 10 2.23858 7.76142 0 5 0C 2.23858 0 0 2.23858 0 5C 0 7.76142 2.23858 10 5 10Z"/>
<path id="path3_fill" fill-rule="evenodd" d="M 10.6301 2L 0 2L 0 0L 10.6301 0L 10.6301 2Z"/>
<path id="path4_fill" fill-rule="evenodd" d="M 11.1803 2L 0 2L 0 0L 11.1803 0L 11.1803 2Z"/>
<path id="path5_fill" fill-rule="evenodd" d="M 12.7279 2L 0 2L 0 0L 12.7279 0L 12.7279 2Z"/>
<path id="path6_fill" fill-rule="evenodd" d="M 12.083 2L 0 2L 0 0L 12.083 0L 12.083 2Z"/>
<path id="path7_fill" fill-rule="evenodd" d="M 13.7935 1.99465L 0.146157 2.99465L 0 0.999999L 13.6473 0L 13.7935 1.99465Z"/>
</defs>
</svg>
