<svg width="48" height="48" viewBox="0 0 48 48" xmlns="http://www.w3.org/2000/svg" xmlns:xlink="http://www.w3.org/1999/xlink" xmlns:figma="http://www.figma.com/figma/ns"><title>network</title><desc>Created using Figma</desc><g transform="translate(321 -195)" figma:type="canvas"><mask id="a"><path d="M-321 195h48v48h-48v-48z" fill="#FFF"/></mask><g style="mix-blend-mode:normal" mask="url(#a)" figma:type="frame"><use xlink:href="#b" transform="translate(-307 214)" fill="#3BB75E" style="mix-blend-mode:normal" figma:type="vector"/><use xlink:href="#c" transform="translate(-285 225)" fill="#3BB75E" style="mix-blend-mode:normal" figma:type="vector"/><use xlink:href="#c" transform="translate(-321 231)" fill="#3BB75E" style="mix-blend-mode:normal" figma:type="vector"/><use xlink:href="#d" transform="translate(-321 200)" fill="#3BB75E" style="mix-blend-mode:normal" figma:type="vector"/><use xlink:href="#d" transform="translate(-284 205)" fill="#3BB75E" style="mix-blend-mode:normal" figma:type="vector"/><use xlink:href="#d" transform="translate(-297 195)" fill="#3BB75E" style="mix-blend-mode:normal" figma:type="vector"/><use xlink:href="#e" transform="rotate(-48.814 99.036 460.186)" fill="#3BB75E" style="mix-blend-mode:normal" figma:type="vector"/><use xlink:href="#f" transform="rotate(-153.435 -114.324 148.286)" fill="#3BB75E" style="mix-blend-mode:normal" figma:type="vector"/><use xlink:href="#g" transform="rotate(-135 -107.472 172.46)" fill="#3BB75E" style="mix-blend-mode:normal" figma:type="vector"/><use xlink:href="#h" transform="rotate(-65.556 16.894 339.121)" fill="#3BB75E" style="mix-blend-mode:normal" figma:type="vector"/><use xlink:href="#i" transform="rotate(-28.443 281.156 690.669)" fill="#3BB75E" style="mix-blend-mode:normal" figma:type="vector"/></g></g><defs><path id="b" fill-rule="evenodd" d="M7.5 13a5.5 5.5 0 1 0 0-11 5.5 5.5 0 0 0 0 11zm0 2a7.5 7.5 0 1 0 0-15 7.5 7.5 0 0 0 0 15z"/><path id="c" fill-rule="evenodd" d="M6 10a4 4 0 1 0 0-8 4 4 0 0 0 0 8zm0 2A6 6 0 1 0 6 0a6 6 0 0 0 0 12z"/><path id="d" fill-rule="evenodd" d="M5 8a3 3 0 1 0 0-6 3 3 0 0 0 0 6zm0 2A5 5 0 1 0 5 0a5 5 0 0 0 0 10z"/><path id="e" fill-rule="evenodd" d="M10.63 2H0V0h10.63v2z"/><path id="f" fill-rule="evenodd" d="M11.18 2H0V0h11.18v2z"/><path id="g" fill-rule="evenodd" d="M12.728 2H0V0h12.728v2z"/><path id="h" fill-rule="evenodd" d="M12.083 2H0V0h12.083v2z"/><path id="i" fill-rule="evenodd" d="M13.793 1.995l-13.647 1L0 1l13.647-1 .146 1.995z"/></defs></svg>