<svg width="48" height="48" viewBox="0 0 48 48" xmlns="http://www.w3.org/2000/svg" xmlns:xlink="http://www.w3.org/1999/xlink" xmlns:figma="http://www.figma.com/figma/ns"><title>next-day-payouts</title><desc>Created using Figma</desc><g transform="translate(321 125)" figma:type="canvas"><mask id="a"><path d="M-321-125h48v48h-48v-48z" fill="#FFF"/></mask><g style="mix-blend-mode:normal" mask="url(#a)" figma:type="frame"><g style="mix-blend-mode:normal" figma:type="vector" transform="translate(-317.964 -125)" fill="#3BB75E"><use xlink:href="#b" style="mix-blend-mode:normal"/><use xlink:href="#c" style="mix-blend-mode:normal"/><use xlink:href="#d" style="mix-blend-mode:normal"/><use xlink:href="#e" style="mix-blend-mode:normal"/><use xlink:href="#f" style="mix-blend-mode:normal"/><use xlink:href="#g" style="mix-blend-mode:normal"/><use xlink:href="#h" style="mix-blend-mode:normal"/><use xlink:href="#i" style="mix-blend-mode:normal"/></g></g></g><defs><path id="b" fill-rule="evenodd" d="M29.79 15.961a.876.876 0 1 1 0-1.751h11.137a1 1 0 0 1 1 1v24.159c0 5.452-2.287 8.631-7.781 8.631-5.184 0-7.782-3.003-7.782-8.631V2.751a1 1 0 0 0-1-1H2.751a1 1 0 0 0-1 1v36.562c0 4.861 1.968 6.936 6.957 6.936h20.101c.197 0 .895.88 2.24 1.291 4.038 1.233 3.097.46 3.097.46H8.708C2.73 48 0 45.122 0 39.313V1a1 1 0 0 1 1-1h26.115a1 1 0 0 1 1 1v38.369c0 4.712 1.876 6.88 6.03 6.88 4.38 0 6.031-2.294 6.031-6.88V16.961a1 1 0 0 0-1-1h-9.385z"/><path id="c" fill-rule="evenodd" d="M4.39 34.18c0 .483.393.875.876.875h17.786a.876.876 0 0 0 0-1.751H5.266a.876.876 0 0 0-.875.876z"/><path id="d" fill-rule="evenodd" d="M37.777 22.785a.876.876 0 0 0 0-1.75h-7.904a.876.876 0 0 0 0 1.75h7.904z"/><path id="e" fill-rule="evenodd" d="M37.777 28.044a.876.876 0 1 0 0-1.751h-7.904a.876.876 0 1 0 0 1.75h7.904z"/><path id="f" fill-rule="evenodd" d="M37.777 33.302a.876.876 0 1 0 0-1.75h-7.904a.876.876 0 1 0 0 1.75h7.904z"/><path id="g" fill-rule="evenodd" d="M37.777 38.561a.876.876 0 0 0 0-1.751h-7.904a.876.876 0 0 0 0 1.751h7.904z"/><path id="h" fill-rule="evenodd" d="M23.052 40.314a.876.876 0 1 0 0-1.751H5.266a.876.876 0 1 0 0 1.75h17.786z"/><path id="i" d="M9.306 24.364l5.112-5.382c.588-.624 1.044-1.236 1.368-1.836.324-.6.486-1.23.486-1.89 0-.72-.204-1.284-.612-1.692-.396-.408-.96-.612-1.692-.612-.756 0-1.368.222-1.836.666-.456.444-.75 1.176-.882 2.196H9.792c.096-1.272.504-2.274 1.224-3.006.732-.744 1.716-1.116 2.952-1.116 1.2 0 2.148.324 2.844.972.696.648 1.044 1.53 1.044 2.646 0 .792-.234 1.578-.702 2.358-.468.768-1.098 1.542-1.89 2.322l-3.546 3.456h6.21v1.278H9.306v-.36z"/></defs></svg>