<svg width="48" height="48" viewBox="0 0 48 48" xmlns="http://www.w3.org/2000/svg" xmlns:xlink="http://www.w3.org/1999/xlink" xmlns:figma="http://www.figma.com/figma/ns"><title>people</title><desc>Created using Figma</desc><g transform="translate(145 205)" figma:type="canvas"><mask id="a"><path d="M-145-205h48v48h-48v-48z" fill="#FFF"/></mask><g style="mix-blend-mode:normal" mask="url(#a)" figma:type="frame"><use xlink:href="#b" transform="translate(-145 -200)" fill="#3BB75E" style="mix-blend-mode:normal" figma:type="vector-operation"/></g></g><defs><path id="b" fill-rule="evenodd" d="M27 10c0 3.597-1.769 6.948-4.552 8.71a17.46 17.46 0 0 1 6.296 3.38c1.026.861 2.343 1.307 3.689 1.378C30.919 22.151 30 20.13 30 18c0-3.663 2.717-7 6.5-7s6.5 3.337 6.5 7c0 2.178-.961 4.242-2.536 5.556C44.842 25.008 48 29.135 48 34v2a2 2 0 0 1-2-2 9 9 0 0 0-9.794-8.965c-2.225.194-2.814 2.792-2.106 4.91.584 1.745.9 3.613.9 5.555 0 .278-.229.5-.507.5h-1a.497.497 0 0 1-.493-.5C33 26.94 26.06 20 17.5 20 9.613 20 3.109 26.315 2.134 34.004 1.995 35.1 1.112 36 .007 36A17.853 17.853 0 0 1 0 35.5c0-8.203 5.644-15.088 13.261-16.983C10.646 16.71 9 13.47 9 10c0-5.264 3.787-10 9-10s9 4.736 9 10zm-2 0c0 4.418-3.134 8-7 8s-7-3.582-7-8 3.134-8 7-8 7 3.582 7 8zm16 8c0 2.761-2.015 5-4.5 5S32 20.761 32 18s2.015-5 4.5-5 4.5 2.239 4.5 5z"/></defs></svg>