<svg width="48" height="48" viewBox="0 0 48 48" xmlns="http://www.w3.org/2000/svg" xmlns:xlink="http://www.w3.org/1999/xlink" xmlns:figma="http://www.figma.com/figma/ns"><title>plugins</title><desc>Created using Figma</desc><g transform="translate(-31 -115)" figma:type="canvas"><mask id="a"><path d="M31 115h48v48H31v-48z" fill="#FFF"/></mask><g style="mix-blend-mode:normal" mask="url(#a)" figma:type="frame"><use xlink:href="#b" transform="rotate(-44.288 215.16 41.272)" fill="#3BB75E" style="mix-blend-mode:normal" figma:type="vector"/><use xlink:href="#c" transform="rotate(-44.288 189.276 -20.238)" fill="#3BB75E" style="mix-blend-mode:normal" figma:type="vector"/><g style="mix-blend-mode:normal" figma:type="vector-operation"><mask id="e"><path fill="#fff" transform="rotate(-45 198.1 28.774)" d="M-2-3h40v18H-2z"/><use xlink:href="#d" transform="rotate(-45 198.1 28.774)"/></mask><g mask="url(#e)"><use xlink:href="#f" transform="rotate(-45 198.1 28.774)" fill="#3BB75E" style="mix-blend-mode:normal"/></g></g><use xlink:href="#g" transform="rotate(-44.288 196.127 6.174)" fill="#3BB75E" style="mix-blend-mode:normal" figma:type="vector"/><use xlink:href="#g" transform="rotate(-44.288 204.77 2.53)" fill="#3BB75E" style="mix-blend-mode:normal" figma:type="vector"/></g></g><defs><path id="b" d="M-.002-.979a1 1 0 1 0 .004 2l-.004-2zM12.126 1a1 1 0 0 0-.003-2l.003 2zM.002 1.021L12.126 1l-.003-2-12.125.021.004 2z"/><path id="c" d="M-.009-.88a1 1 0 1 0 .018 2l-.018-2zM13.517 1a1 1 0 1 0-.018-2l.018 2zM.009 1.12L13.517 1l-.018-2L-.01-.88l.018 2z"/><path id="d" fill-rule="evenodd" d="M12 0H6.5a6.5 6.5 0 0 0 0 13H12V0zm12 13h5.5a6.5 6.5 0 0 0 0-13H24v13z"/><path id="f" d="M12 0h2a2 2 0 0 0-2-2v2zm0 13v2a2 2 0 0 0 2-2h-2zm12 0h-2a2 2 0 0 0 2 2v-2zm0-13v-2a2 2 0 0 0-2 2h2zM6.5 2H12v-4H6.5v4zM2 6.5A4.5 4.5 0 0 1 6.5 2v-4A8.5 8.5 0 0 0-2 6.5h4zM6.5 11A4.5 4.5 0 0 1 2 6.5h-4A8.5 8.5 0 0 0 6.5 15v-4zm5.5 0H6.5v4H12v-4zm2 2V0h-4v13h4zm15.5-2H24v4h5.5v-4zM34 6.5a4.5 4.5 0 0 1-4.5 4.5v4A8.5 8.5 0 0 0 38 6.5h-4zM29.5 2A4.5 4.5 0 0 1 34 6.5h4A8.5 8.5 0 0 0 29.5-2v4zM24 2h5.5v-4H24v4zm-2-2v13h4V0h-4z"/><path id="g" d="M-.024-.88a1 1 0 1 0 .048 2l-.048-2zM5.024 1a1 1 0 1 0-.048-2l.048 2zm-5 .12l5-.12-.048-2-5 .12.048 2z"/></defs></svg>