<svg width="72" height="72" viewBox="0 0 72 72" xmlns="http://www.w3.org/2000/svg" xmlns:xlink="http://www.w3.org/1999/xlink" xmlns:figma="http://www.figma.com/figma/ns"><title>price-tag</title><desc>Created using Figma</desc><g transform="translate(-143 205)" figma:type="canvas"><mask id="a"><path d="M143-205h72v72h-72v-72z" fill="#FFF"/></mask><g style="mix-blend-mode:normal" mask="url(#a)" figma:type="frame" fill="#3BB75E"><use xlink:href="#b" transform="translate(145 -191)" style="mix-blend-mode:normal" figma:type="vector"/><use xlink:href="#c" transform="translate(180.303 -180.199)" style="mix-blend-mode:normal" figma:type="vector"/><use xlink:href="#d" transform="translate(152.28 -191)" style="mix-blend-mode:normal" figma:type="vector"/><use xlink:href="#e" transform="translate(161.798 -203)" style="mix-blend-mode:normal" figma:type="vector-operation"/></g></g><defs><path id="b" d="M50.853 0H34.648a1.048 1.048 0 0 0 0 2.098h16.205c2.111 0 4.349 2.238 4.349 4.347V19.95c0 2.612 0 3.8-.566 4.934-.6 1.197-1.911 2.508-4.53 5.126L25.804 54.305c-1.84 1.841-3.582.321-3.912 0l-18.9-18.893c-.32-.333-1.845-2.078-.005-3.917l2.097-2.097L27.289 7.192a1.047 1.047 0 0 0 0-1.487 1.048 1.048 0 0 0-1.487 0c-.847.85-16.421 16.424-22.204 22.208l-2.091 2.095C.117 31.392-.327 33.09.24 34.795c.398 1.21 1.177 2.014 1.267 2.097l18.9 18.899c.084.09.881.863 2.096 1.268.483.161.959.239 1.435.239 1.202 0 2.361-.509 3.35-1.507l24.303-24.296c5.494-5.495 5.707-5.714 5.707-11.547V6.445C57.3 3.19 54.108 0 50.853 0z"/><path id="c" d="M6.446 10.801a4.354 4.354 0 0 1-4.349-4.348c0-.58-.47-1.056-1.049-1.056C.468 5.397 0 5.872 0 6.453a6.453 6.453 0 0 0 6.446 6.445c3.556 0 6.452-2.895 6.452-6.445A6.46 6.46 0 0 0 6.446 0a1.048 1.048 0 1 0 0 2.097 4.358 4.358 0 0 1 4.349 4.356 4.356 4.356 0 0 1-4.35 4.348z"/><path id="d" d="M2.066 21.002a1.053 1.053 0 0 0 1.022-1.304C1.46 13.2 1.879 7.752 4.22 4.749c1.377-1.756 3.372-2.65 5.945-2.65 6.291 0 19.144 11.475 23.562 15.895a1.05 1.05 0 0 0 1.487 0 1.061 1.061 0 0 0 0-1.487C34.54 15.832 18.604 0 10.164 0 6.962 0 4.33 1.196 2.568 3.455-.218 7.026-.758 12.977 1.05 20.206a1.05 1.05 0 0 0 1.017.796z"/><path id="e" fill-rule="evenodd" d="M26 52c14.36 0 26-11.64 26-26S40.36 0 26 0 0 11.64 0 26c0 1.24.087 2.46.255 3.654L1.702 27l.33.24A23.243 23.243 0 0 1 2 26C2 12.745 12.745 2 26 2s24 10.745 24 24c0 13.08-10.464 23.716-23.477 23.994l-1.768 1.977c.412.02.828.029 1.245.029z"/></defs></svg>