<svg width="48" height="48" viewBox="0 0 48 48" version="1.1" xmlns="http://www.w3.org/2000/svg" xmlns:xlink="http://www.w3.org/1999/xlink" xmlns:figma="http://www.figma.com/figma/ns">
<title>professional</title>
<desc>Created using Figma</desc>
<g id="Canvas" transform="translate(144 -442)" figma:type="canvas">
<mask id="mask0_alpha" mask-type="alpha">
<path d="M -144 442L -96 442L -96 490L -144 490L -144 442Z" fill="#FFFFFF"/>
</mask>
<g id="professional" mask="url(#mask0_alpha)" figma:type="frame">
<g id="Vector" figma:type="vector">
<use xlink:href="#path0_fill" transform="translate(-143 449)" fill="#3BB75E"/>
<mask id="mask1_outline_out">
<rect id="mask1_outline_inv" fill="white" x="-1" y="-1" width="48" height="36" transform="translate(-143 449)"/>
<use xlink:href="#path0_fill" fill="black" transform="translate(-143 449)"/>
</mask>
<g mask="url(#mask1_outline_out)">
<use xlink:href="#path1_stroke_2x" transform="translate(-143 449)" fill="#3BB75E"/>
</g>
</g>
</g>
</g>
<defs>
<path id="path0_fill" d="M 0.522727 0C 0.174434 0.0132252 0.00805 0.265388 0 0.520675L 0 33.8439C 5.22727e-05 34.1166 0.249027 34.3646 0.522727 34.3646L 45.4773 34.3646C 45.751 34.3646 45.9999 34.1166 46 33.8439L 46 0.520675C 45.9999 0.24806 45.751 2.60338e-05 45.4773 0L 0.522727 0ZM 1.04545 1.04135L 44.9545 1.04135L 44.9545 33.3233L 1.04545 33.3233L 1.04545 1.04135ZM 5.75 4.68608C 5.46135 4.68608 5.22727 4.9192 5.22727 5.20675C 5.22727 5.49431 5.46135 5.72743 5.75 5.72743L 40.25 5.72743C 40.5387 5.72743 40.7727 5.49431 40.7727 5.20675C 40.7727 4.9192 40.5387 4.68608 40.25 4.68608L 5.75 4.68608ZM 5.75 9.37216C 5.46135 9.37216 5.22727 9.60528 5.22727 9.89283C 5.22727 10.1804 5.46135 10.4135 5.75 10.4135L 40.25 10.4135C 40.5387 10.4135 40.7727 10.1804 40.7727 9.89283C 40.7727 9.60528 40.5387 9.37216 40.25 9.37216L 5.75 9.37216ZM 23 14.0582C 19.8306 14.0582 17.25 16.6287 17.25 19.7857C 17.25 20.0454 17.2814 20.2998 17.3153 20.5504L 13.1989 25.1552C 12.9487 25.4331 13.1389 25.9612 13.5093 26.0175L 16.2699 26.4731L 16.7273 29.2392C 16.7865 29.6316 17.3836 29.8015 17.642 29.4996L 21.3991 25.2853C 21.9059 25.4314 22.4467 25.5131 23 25.5131C 23.5577 25.5131 24.0905 25.4337 24.6009 25.2853L 28.358 29.4996C 28.6164 29.8015 29.2135 29.6316 29.2727 29.2392L 29.7301 26.4731L 32.4907 26.0175C 32.8611 25.9612 33.0513 25.4331 32.8011 25.1552L 28.6847 20.5504C 28.7186 20.2998 28.75 20.0454 28.75 19.7857C 28.75 16.6287 26.1694 14.0582 23 14.0582ZM 23 15.0996C 25.6044 15.0996 27.7045 17.1915 27.7045 19.7857C 27.7045 22.3799 25.6044 24.4717 23 24.4717C 20.3956 24.4717 18.2955 22.3799 18.2955 19.7857C 18.2955 17.1915 20.3956 15.0996 23 15.0996ZM 17.6094 21.787C 18.1104 23.1219 19.096 24.2273 20.3537 24.8785L 17.593 27.97L 17.25 25.9362C 17.2113 25.7224 17.0248 25.5436 16.8089 25.5131L 14.6201 25.1552L 17.6094 21.787ZM 28.3743 21.787L 31.3799 25.1552L 29.1911 25.5131C 28.9752 25.5439 28.7887 25.7224 28.75 25.9362L 28.407 27.97L 25.6463 24.8785C 26.8983 24.227 27.8745 23.1171 28.3743 21.787Z"/>
<path id="path1_stroke_2x" d="M 0.522727 0L 0.522727 -0.300216L 0.511344 -0.299784L 0.522727 0ZM 0 0.520675L -0.3 0.511216L -0.3 0.520675L 0 0.520675ZM 0 33.8439L -0.3 33.8439L -0.3 33.844L 0 33.8439ZM 0.522727 34.3646L 0.52267 34.6646L 0.522727 34.6646L 0.522727 34.3646ZM 45.4773 34.3646L 45.4773 34.6646L 45.4773 34.6646L 45.4773 34.3646ZM 46 33.8439L 46.3 33.844L 46.3 33.8439L 46 33.8439ZM 46 0.520675L 46.3 0.520675L 46.3 0.520618L 46 0.520675ZM 45.4773 0L 45.4773 -0.3L 45.4773 -0.3L 45.4773 0ZM 1.04545 1.04135L 1.04545 0.741351L 0.745455 0.741351L 0.745455 1.04135L 1.04545 1.04135ZM 44.9545 1.04135L 45.2545 1.04135L 45.2545 0.741351L 44.9545 0.741351L 44.9545 1.04135ZM 44.9545 33.3233L 44.9545 33.6233L 45.2545 33.6233L 45.2545 33.3233L 44.9545 33.3233ZM 1.04545 33.3233L 0.745455 33.3233L 0.745455 33.6233L 1.04545 33.6233L 1.04545 33.3233ZM 17.3153 20.5504L 17.539 20.7504L 17.6312 20.6472L 17.6126 20.5101L 17.3153 20.5504ZM 13.1989 25.1552L 13.4218 25.3559L 13.4225 25.3551L 13.1989 25.1552ZM 13.5093 26.0175L 13.5581 25.7215L 13.5543 25.7209L 13.5093 26.0175ZM 16.2699 26.4731L 16.5659 26.4242L 16.5308 26.2121L 16.3187 26.1771L 16.2699 26.4731ZM 16.7273 29.2392L 17.0239 29.1944L 17.0233 29.1903L 16.7273 29.2392ZM 17.642 29.4996L 17.4181 29.2999L 17.4141 29.3045L 17.642 29.4996ZM 21.3991 25.2853L 21.4823 24.9971L 21.3009 24.9448L 21.1752 25.0857L 21.3991 25.2853ZM 24.6009 25.2853L 24.8248 25.0857L 24.6988 24.9444L 24.5171 24.9973L 24.6009 25.2853ZM 28.358 29.4996L 28.5859 29.3044L 28.5819 29.2999L 28.358 29.4996ZM 29.2727 29.2392L 28.9767 29.1903L 28.9761 29.1944L 29.2727 29.2392ZM 29.7301 26.4731L 29.6813 26.1771L 29.4692 26.2121L 29.4341 26.4242L 29.7301 26.4731ZM 32.4907 26.0175L 32.4457 25.7209L 32.4419 25.7215L 32.4907 26.0175ZM 32.8011 25.1552L 32.5775 25.3551L 32.5782 25.3559L 32.8011 25.1552ZM 28.6847 20.5504L 28.3874 20.5101L 28.3688 20.6472L 28.461 20.7504L 28.6847 20.5504ZM 17.6094 21.787L 17.8902 21.6816L 17.7154 21.2156L 17.385 21.5879L 17.6094 21.787ZM 20.3537 24.8785L 20.5775 25.0783L 20.835 24.7899L 20.4916 24.6121L 20.3537 24.8785ZM 17.593 27.97L 17.2972 28.0199L 17.401 28.6355L 17.8168 28.1699L 17.593 27.97ZM 17.25 25.9362L 17.5458 25.8863L 17.5452 25.8828L 17.25 25.9362ZM 16.8089 25.5131L 16.7605 25.8093L 16.767 25.8102L 16.8089 25.5131ZM 14.6201 25.1552L 14.3957 24.956L 14.0342 25.3633L 14.5716 25.4512L 14.6201 25.1552ZM 28.3743 21.787L 28.5981 21.5873L 28.2679 21.2172L 28.0934 21.6815L 28.3743 21.787ZM 31.3799 25.1552L 31.4284 25.4512L 31.9675 25.3631L 31.6038 24.9554L 31.3799 25.1552ZM 29.1911 25.5131L 29.2333 25.8102L 29.2395 25.8092L 29.1911 25.5131ZM 28.75 25.9362L 28.4548 25.8827L 28.4542 25.8863L 28.75 25.9362ZM 28.407 27.97L 28.1832 28.1699L 28.599 28.6355L 28.7028 28.0199L 28.407 27.97ZM 25.6463 24.8785L 25.5078 24.6124L 25.1655 24.7905L 25.4225 25.0783L 25.6463 24.8785ZM 0.511344 -0.299784C 0.261263 -0.290288 0.0538874 -0.19162 -0.0901416 -0.0300914C -0.211263 0.114602 -0.291058 0.338937 -0.299851 0.51122L 0.299851 0.530131C 0.301997 0.462061 0.325091 0.405777 0.357687 0.36922C 0.385935 0.337539 0.435898 0.303513 0.534111 0.299784L 0.511344 -0.299784ZM -0.3 0.520675L -0.3 33.8439L 0.3 33.8439L 0.3 0.520675L -0.3 0.520675ZM -0.3 33.844C -0.299916 34.2834 0.0844429 34.6645 0.52267 34.6646L 0.522784 34.0646C 0.413612 34.0646 0.30002 33.9498 0.3 33.8439L -0.3 33.844ZM 0.522727 34.6646L 45.4773 34.6646L 45.4773 34.0646L 0.522727 34.0646L 0.522727 34.6646ZM 45.4773 34.6646C 45.9156 34.6645 46.2999 34.2834 46.3 33.844L 45.7 33.8439C 45.7 33.9498 45.5864 34.0646 45.4772 34.0646L 45.4773 34.6646ZM 46.3 33.8439L 46.3 0.520675L 45.7 0.520675L 45.7 33.8439L 46.3 33.8439ZM 46.3 0.520618C 46.2999 0.081279 45.9156 -0.299958 45.4773 -0.3L 45.4772 0.3C 45.5864 0.30001 45.7 0.414841 45.7 0.520733L 46.3 0.520618ZM 45.4773 -0.3L 0.522727 -0.3L 0.522727 0.3L 45.4773 0.3L 45.4773 -0.3ZM 1.04545 1.34135L 44.9545 1.34135L 44.9545 0.741351L 1.04545 0.741351L 1.04545 1.34135ZM 44.6545 1.04135L 44.6545 33.3233L 45.2545 33.3233L 45.2545 1.04135L 44.6545 1.04135ZM 44.9545 33.0233L 1.04545 33.0233L 1.04545 33.6233L 44.9545 33.6233L 44.9545 33.0233ZM 1.34545 33.3233L 1.34545 1.04135L 0.745455 1.04135L 0.745455 33.3233L 1.34545 33.3233ZM 5.75 4.38608C 5.29679 4.38608 4.92727 4.75238 4.92727 5.20675L 5.52727 5.20675C 5.52727 5.08601 5.62591 4.98608 5.75 4.98608L 5.75 4.38608ZM 4.92727 5.20675C 4.92727 5.66113 5.29679 6.02743 5.75 6.02743L 5.75 5.42743C 5.62591 5.42743 5.52727 5.3275 5.52727 5.20675L 4.92727 5.20675ZM 5.75 6.02743L 40.25 6.02743L 40.25 5.42743L 5.75 5.42743L 5.75 6.02743ZM 40.25 6.02743C 40.7033 6.02743 41.0727 5.66111 41.0727 5.20675L 40.4727 5.20675C 40.4727 5.32752 40.3741 5.42743 40.25 5.42743L 40.25 6.02743ZM 41.0727 5.20675C 41.0727 4.7524 40.7033 4.38608 40.25 4.38608L 40.25 4.98608C 40.3741 4.98608 40.4727 5.08599 40.4727 5.20675L 41.0727 5.20675ZM 40.25 4.38608L 5.75 4.38608L 5.75 4.98608L 40.25 4.98608L 40.25 4.38608ZM 5.75 9.07216C 5.29679 9.07216 4.92727 9.43846 4.92727 9.89283L 5.52727 9.89283C 5.52727 9.77209 5.62591 9.67216 5.75 9.67216L 5.75 9.07216ZM 4.92727 9.89283C 4.92727 10.3472 5.29679 10.7135 5.75 10.7135L 5.75 10.1135C 5.62591 10.1135 5.52727 10.0136 5.52727 9.89283L 4.92727 9.89283ZM 5.75 10.7135L 40.25 10.7135L 40.25 10.1135L 5.75 10.1135L 5.75 10.7135ZM 40.25 10.7135C 40.7033 10.7135 41.0727 10.3472 41.0727 9.89283L 40.4727 9.89283C 40.4727 10.0136 40.3741 10.1135 40.25 10.1135L 40.25 10.7135ZM 41.0727 9.89283C 41.0727 9.43848 40.7033 9.07216 40.25 9.07216L 40.25 9.67216C 40.3741 9.67216 40.4727 9.77207 40.4727 9.89283L 41.0727 9.89283ZM 40.25 9.07216L 5.75 9.07216L 5.75 9.67216L 40.25 9.67216L 40.25 9.07216ZM 23 13.7582C 19.666 13.7582 16.95 16.4619 16.95 19.7857L 17.55 19.7857C 17.55 16.7955 19.9952 14.3582 23 14.3582L 23 13.7582ZM 16.95 19.7857C 16.9506 20.0638 16.9838 20.3383 17.0181 20.5907L 17.6126 20.5101C 17.5789 20.2613 17.5494 20.027 17.55 19.7857L 16.95 19.7857ZM 17.0917 20.3505L 12.9752 24.9552L 13.4225 25.3551L 17.539 20.7504L 17.0917 20.3505ZM 12.9759 24.9545C 12.7577 25.1969 12.7499 25.5233 12.8391 25.771C 12.9283 26.0188 13.1422 26.2652 13.4642 26.3141L 13.5543 25.7209C 13.5059 25.7136 13.4396 25.6677 13.4036 25.5678C 13.3677 25.4679 13.3899 25.3913 13.4218 25.3559L 12.9759 24.9545ZM 13.4604 26.3135L 16.221 26.7691L 16.3187 26.1771L 13.5581 25.7215L 13.4604 26.3135ZM 15.9739 26.522L 16.4313 29.2882L 17.0233 29.1903L 16.5659 26.4242L 15.9739 26.522ZM 16.4306 29.284C 16.483 29.631 16.7637 29.8432 17.0278 29.9183C 17.2921 29.9935 17.6421 29.9609 17.87 29.6946L 17.4141 29.3045C 17.3835 29.3402 17.3058 29.3736 17.1921 29.3412C 17.0783 29.3089 17.0308 29.2399 17.0239 29.1944L 16.4306 29.284ZM 17.866 29.6992L 21.6231 25.485L 21.1752 25.0857L 17.4181 29.2999L 17.866 29.6992ZM 21.316 25.5736C 21.8418 25.7245 22.4243 25.8123 23 25.8131L 23 25.2131C 22.4692 25.214 21.97 25.1384 21.4823 24.9971L 21.316 25.5736ZM 23 25.8131C 23.5799 25.8123 24.1546 25.7267 24.6846 25.5734L 24.5171 24.9973C 24.0263 25.1406 23.5355 25.214 23 25.2131L 23 25.8131ZM 24.3769 25.485L 28.134 29.6992L 28.5819 29.2999L 24.8248 25.0857L 24.3769 25.485ZM 28.13 29.6946C 28.3579 29.9609 28.7079 29.9935 28.9722 29.9183C 29.2363 29.8432 29.517 29.631 29.5694 29.284L 28.9761 29.1944C 28.9692 29.2399 28.9217 29.3089 28.8079 29.3412C 28.6942 29.3736 28.6165 29.3402 28.5859 29.3045L 28.13 29.6946ZM 29.5687 29.2882L 30.0261 26.522L 29.4341 26.4242L 28.9767 29.1903L 29.5687 29.2882ZM 29.779 26.7691L 32.5396 26.3135L 32.4419 25.7215L 29.6813 26.1771L 29.779 26.7691ZM 32.5358 26.3141C 32.8578 26.2652 33.0717 26.0188 33.1609 25.771C 33.2501 25.5233 33.2423 25.1969 33.0241 24.9545L 32.5782 25.3559C 32.6101 25.3913 32.6323 25.4679 32.5964 25.5678C 32.5604 25.6677 32.494 25.7136 32.4457 25.7209L 32.5358 26.3141ZM 33.0248 24.9552L 28.9083 20.3505L 28.461 20.7504L 32.5775 25.3551L 33.0248 24.9552ZM 28.9819 20.5907C 29.0162 20.3383 29.0494 20.0638 29.05 19.7857L 28.45 19.7857C 28.4506 20.027 28.4211 20.2613 28.3874 20.5101L 28.9819 20.5907ZM 29.05 19.7857C 29.05 16.4619 26.334 13.7582 23 13.7582L 23 14.3582C 26.0048 14.3582 28.45 16.7955 28.45 19.7857L 29.05 19.7857ZM 23 15.3996C 25.4399 15.3996 27.4045 17.3583 27.4045 19.7857L 28.0045 19.7857C 28.0045 17.0247 25.769 14.7996 23 14.7996L 23 15.3996ZM 27.4045 19.7857C 27.4045 22.2131 25.4399 24.1717 23 24.1717L 23 24.7717C 25.769 24.7717 28.0045 22.5467 28.0045 19.7857L 27.4045 19.7857ZM 23 24.1717C 20.5601 24.1717 18.5955 22.2131 18.5955 19.7857L 17.9955 19.7857C 17.9955 22.5467 20.231 24.7717 23 24.7717L 23 24.1717ZM 18.5955 19.7857C 18.5955 17.3583 20.5601 15.3996 23 15.3996L 23 14.7996C 20.231 14.7996 17.9955 17.0247 17.9955 19.7857L 18.5955 19.7857ZM 17.3285 21.8924C 17.8536 23.277 18.912 24.4642 20.2157 25.1449L 20.4916 24.6121C 19.2799 23.9903 18.3671 22.9667 17.8902 21.6816L 17.3285 21.8924ZM 20.1299 24.6787L 17.3692 27.7702L 17.8168 28.1699L 20.5775 25.0783L 20.1299 24.6787ZM 17.8888 27.9201L 17.5458 25.8863L 16.9542 25.9861L 17.2972 28.0199L 17.8888 27.9201ZM 17.5452 25.8828C 17.4833 25.541 17.1942 25.2645 16.8508 25.2161L 16.767 25.8102C 16.8555 25.8227 16.9393 25.9039 16.9548 25.9896L 17.5452 25.8828ZM 16.8573 25.2171L 14.6685 24.8591L 14.5716 25.4512L 16.7605 25.8092L 16.8573 25.2171ZM 14.8444 25.3543L 17.8337 21.9862L 17.385 21.5879L 14.3957 24.956L 14.8444 25.3543ZM 28.1504 21.9868L 31.1561 25.3549L 31.6038 24.9554L 28.5981 21.5873L 28.1504 21.9868ZM 31.3315 24.8591L 29.1427 25.2171L 29.2395 25.8092L 31.4284 25.4512L 31.3315 24.8591ZM 29.1488 25.2161C 28.806 25.2649 28.5168 25.5407 28.4548 25.8827L 29.0452 25.9897C 29.0607 25.9041 29.1444 25.8228 29.2333 25.8101L 29.1488 25.2161ZM 28.4542 25.8863L 28.1112 27.9201L 28.7028 28.0199L 29.0458 25.9861L 28.4542 25.8863ZM 28.6308 27.7702L 25.8701 24.6787L 25.4225 25.0783L 28.1832 28.1699L 28.6308 27.7702ZM 25.7848 25.1446C 27.0833 24.4631 28.1318 23.2714 28.6551 21.8925L 28.0934 21.6815C 27.6173 22.9627 26.7133 23.9908 25.5078 24.6124L 25.7848 25.1446Z"/>
</defs>
</svg>
