<svg width="48" height="48" viewBox="0 0 48 48" xmlns="http://www.w3.org/2000/svg" xmlns:xlink="http://www.w3.org/1999/xlink" xmlns:figma="http://www.figma.com/figma/ns"><title>recurring-payments</title><desc>Created using Figma</desc><g transform="translate(233 125)" figma:type="canvas"><mask id="a"><path d="M-233-125h48v48h-48v-48z" fill="#FFF"/></mask><g style="mix-blend-mode:normal" mask="url(#a)" figma:type="frame"><use xlink:href="#b" transform="translate(-229 -122)" fill="#3BB75E" style="mix-blend-mode:normal" figma:type="vector"/></g></g><defs><path id="b" d="M38.874 33.829a1 1 0 0 0-1.623-1.168l1.623 1.168zm-1.623-24.49a1 1 0 1 0 1.623-1.168L37.252 9.34zM31.957 8.13a1 1 0 1 0 0 2v-2zm6.39 1v1h1v-1h-1zm1-6.847a1 1 0 1 0-2 0h2zM20.914 21c0-.048.039-.087.087-.087v2A1.913 1.913 0 0 0 22.913 21h-2zm.087-.087c.048 0 .087.039.087.087h-2c0 1.056.857 1.913 1.913 1.913v-2zm.087.087a.087.087 0 0 1-.087.087v-2A1.913 1.913 0 0 0 19.087 21h2zm-.087.087a.087.087 0 0 1-.087-.087h2A1.913 1.913 0 0 0 21 19.087v2zM21 41C9.954 41 1 32.046 1 21h-2c0 12.15 9.85 22 22 22v-2zM1 21C1 9.954 9.954 1 21 1v-2C8.85-1-1 8.85-1 21h2zm36.25 11.661C33.62 37.713 27.694 41 21 41v2c7.364 0 13.883-3.62 17.874-9.171l-1.623-1.168zM21 1c6.693 0 12.619 3.287 16.25 8.339l1.624-1.168C34.883 2.62 28.364-1 21-1v2zm10.956 9.13h6.392v-2h-6.392v2zm7.392-1V2.283h-2V9.13h2z"/></defs></svg>