<svg width="48" height="48" viewBox="0 0 48 48" version="1.1" xmlns="http://www.w3.org/2000/svg" xmlns:xlink="http://www.w3.org/1999/xlink" xmlns:figma="http://www.figma.com/figma/ns">
<title>reminders</title>
<desc>Created using Figma</desc>
<g id="Canvas" transform="translate(232 -365)" figma:type="canvas">
<mask id="mask0_alpha" mask-type="alpha">
<path d="M -232 365L -184 365L -184 413L -232 413L -232 365Z" fill="#FFFFFF"/>
</mask>
<g id="reminders" mask="url(#mask0_alpha)" figma:type="frame">
<g id="Vector" figma:type="vector">
<use xlink:href="#path0_fill" transform="translate(-231 365)" fill="#3BB75E"/>
</g>
</g>
</g>
<defs>
<path id="path0_fill" d="M 11.234 6.44282e-06C 10.67 6.44282e-06 10.2128 0.457247 10.2128 1.02128L 10.2128 6.79788C 8.74575 7.24354 7.65957 8.60757 7.65957 10.2128C 7.65957 12.1748 9.27201 13.7872 11.234 13.7872C 13.1961 13.7872 14.8085 12.1748 14.8085 10.2128C 14.8085 8.60757 13.7223 7.24354 12.2553 6.79788L 12.2553 1.02128C 12.2553 0.457247 11.7981 6.44282e-06 11.234 6.44282e-06ZM 30.6383 6.44282e-06C 30.0742 6.44282e-06 29.617 0.457247 29.617 1.02128L 29.617 6.79788C 28.15 7.24354 27.0638 8.60757 27.0638 10.2128C 27.0638 12.1748 28.6763 13.7872 30.6383 13.7872C 32.6003 13.7872 34.2128 12.1748 34.2128 10.2128C 34.2128 8.60757 33.1266 7.24354 31.6596 6.79788L 31.6596 1.02128C 31.6596 0.457247 31.2023 6.44282e-06 30.6383 6.44282e-06ZM 5.12231 3.06384C 2.30303 3.06384 -1.9618e-08 5.36689 -1.9618e-08 8.18617L -1.9618e-08 38.7925C -1.9618e-08 41.6118 2.30298 43.9149 5.12231 43.9149L 31.7393 43.9149C 33.1551 46.3553 35.7937 48 38.8085 48C 43.3087 48 46.9787 44.33 46.9787 39.8298C 46.9787 36.4118 44.8622 33.4659 41.8723 32.25L 41.8723 8.18617C 41.8723 5.36689 39.5692 3.06384 36.75 3.06384L 33.7021 3.06384C 33.1626 3.05623 32.6663 3.5455 32.6663 4.08511C 32.6663 4.62472 33.1626 5.11402 33.7021 5.10639L 36.75 5.10639C 38.4711 5.10639 39.8298 6.46506 39.8298 8.18617L 39.8298 15.3192L 2.04255 15.3192L 2.04255 8.18617C 2.04255 6.46506 3.40116 5.10639 5.12231 5.10639L 8.17021 5.10639C 8.70975 5.114 9.20604 4.62472 9.20604 4.08511C 9.20604 3.5455 8.70975 3.05621 8.17021 3.06384L 5.12231 3.06384ZM 14.2979 3.06384C 13.7338 3.06384 13.2766 3.52106 13.2766 4.08511C 13.2766 4.64916 13.7338 5.10639 14.2979 5.10639L 27.5745 5.10639C 28.1385 5.10639 28.5957 4.64916 28.5957 4.08511C 28.5957 3.52106 28.1385 3.06384 27.5745 3.06384L 14.2979 3.06384ZM 11.234 8.68085C 12.0922 8.68085 12.766 9.35462 12.766 10.2128C 12.766 11.0709 12.0922 11.7447 11.234 11.7447C 10.3759 11.7447 9.70212 11.0709 9.70212 10.2128C 9.70212 9.35462 10.3759 8.68085 11.234 8.68085ZM 30.6383 8.68085C 31.4965 8.68085 32.1702 9.35462 32.1702 10.2128C 32.1702 11.0709 31.4965 11.7447 30.6383 11.7447C 29.7802 11.7447 29.1064 11.0709 29.1064 10.2128C 29.1064 9.35462 29.7802 8.68085 30.6383 8.68085ZM 2.04255 17.3617L 39.8298 17.3617L 39.8298 31.7393C 39.4933 31.6969 39.1562 31.6596 38.8085 31.6596C 34.3083 31.6596 30.6383 35.3296 30.6383 39.8298C 30.6383 40.5363 30.7396 41.2177 30.9095 41.8723L 5.12231 41.8723C 3.40126 41.8723 2.04255 40.5137 2.04255 38.7925L 2.04255 17.3617ZM 38.8085 33.7021C 42.2048 33.7021 44.9362 36.4335 44.9362 39.8298C 44.9362 43.2261 42.2048 45.9574 38.8085 45.9574C 35.4122 45.9574 32.6808 43.2261 32.6808 39.8298C 32.6808 36.4335 35.4122 33.7021 38.8085 33.7021ZM 38.8085 34.7234C 38.2444 34.7234 37.7872 35.1806 37.7872 35.7447L 37.7872 39.8298C 37.7872 40.3938 38.2444 40.8511 38.8085 40.8511L 42.383 40.8511C 42.947 40.8511 43.4042 40.3938 43.4042 39.8298C 43.4042 39.2657 42.947 38.8085 42.383 38.8085L 39.8298 38.8085L 39.8298 35.7447C 39.8298 35.1806 39.3725 34.7234 38.8085 34.7234Z"/>
</defs>
</svg>
