<svg width="48" height="48" viewBox="0 0 48 48" xmlns="http://www.w3.org/2000/svg" xmlns:xlink="http://www.w3.org/1999/xlink" xmlns:figma="http://www.figma.com/figma/ns"><title>reporting</title><desc>Created using Figma</desc><g transform="translate(57 125)" figma:type="canvas"><mask id="a"><path d="M-57-125h48v48h-48v-48z" fill="#FFF"/></mask><g style="mix-blend-mode:normal" mask="url(#a)" figma:type="frame"><g style="mix-blend-mode:normal" figma:type="vector" transform="translate(-57 -120)" fill="#3BB75E"><use xlink:href="#b" style="mix-blend-mode:normal"/><use xlink:href="#c" style="mix-blend-mode:normal"/><use xlink:href="#d" style="mix-blend-mode:normal"/><use xlink:href="#e" style="mix-blend-mode:normal"/><use xlink:href="#f" style="mix-blend-mode:normal"/><use xlink:href="#g" style="mix-blend-mode:normal"/><use xlink:href="#h" style="mix-blend-mode:normal"/></g></g></g><defs><path id="b" d="M48 41.828a1 1 0 0 0-1-1H1a1 1 0 0 0-1 1V42a1 1 0 0 0 1 1h46a1 1 0 0 0 1-1v-.172z"/><path id="c" d="M8.727 35.312a1 1 0 0 0-1-1h-.182a1 1 0 0 0-1 1v2.344a1 1 0 0 0 1 1h.182a1 1 0 0 0 1-1v-2.344z"/><path id="d" d="M19.636 28.797a1 1 0 0 0-1-1h-.181a1 1 0 0 0-1 1v8.86a1 1 0 0 0 1 1h.181a1 1 0 0 0 1-1v-8.86z"/><path id="e" d="M30.546 20.109a1 1 0 0 0-1-1h-.182a1 1 0 0 0-1 1v17.547a1 1 0 0 0 1 1h.181a1 1 0 0 0 1-1V20.11z"/><path id="f" d="M41.455 9.25a1 1 0 0 0-1-1h-.182a1 1 0 0 0-1 1v28.406a1 1 0 0 0 1 1h.181a1 1 0 0 0 1-1V9.25z"/><path id="g" fill-rule="evenodd" d="M31.858.388a1 1 0 0 1 1.309.529l2.625 6.157a1 1 0 0 1-.53 1.314l-.166.07a1 1 0 0 1-1.31-.53l-1.775-4.163a1 1 0 0 0-1.31-.53l-4.188 1.77a1 1 0 0 1-1.31-.528l-.067-.16a1 1 0 0 1 .53-1.313L31.858.388z"/><path id="h" fill-rule="evenodd" d="M7.051 27.39a35.746 35.746 0 0 0 3.452-1.293 41.822 41.822 0 0 0 10.425-6.457c4.804-4.06 8.698-9.21 11.35-15.57l.031-.078a1 1 0 0 0-.541-1.309l-.167-.068a1 1 0 0 0-1.304.539l-.035.083c-2.514 6.032-6.198 10.904-10.746 14.747a39.652 39.652 0 0 1-9.88 6.12 33.578 33.578 0 0 1-3.24 1.214 16.6 16.6 0 0 1-1.182.333l-.086.02a1 1 0 0 0-.756 1.197l.038.168a1 1 0 0 0 1.194.754l.09-.02c.26-.058.722-.181 1.357-.38z"/></defs></svg>