<svg width="48" height="48" viewBox="0 0 48 48" xmlns="http://www.w3.org/2000/svg" xmlns:xlink="http://www.w3.org/1999/xlink" xmlns:figma="http://www.figma.com/figma/ns"><title>retry</title><desc>Created using Figma</desc><g transform="translate(321 -35)" figma:type="canvas"><mask id="a"><path d="M-321 35h48v48h-48V35z" fill="#FFF"/></mask><g style="mix-blend-mode:normal" mask="url(#a)" figma:type="frame"><use xlink:href="#b" transform="translate(-321 38)" fill="#3BB75E" style="mix-blend-mode:normal" figma:type="vector"/></g></g><defs><path id="b" d="M8.595 20.67l-3.454 3.5c-.216.218-.485.328-.701.328-.216 0-.54-.11-.702-.328l-3.455-3.5c-.377-.382-.377-1.039 0-1.476.378-.383 1.026-.383 1.458 0l1.673 1.695C3.414 9.35 12.698 0 24.087 0c.54 0 1.026.437 1.026 1.039 0 .11 0 .219-.055.274a.991.991 0 0 1-.97.765c-10.256 0-18.622 8.476-18.622 18.866l1.727-1.75c.377-.383 1.025-.383 1.457 0 .377.438.377 1.094-.055 1.476zM27.92 2.515h.216c.486 0 .918-.327.972-.82.108-.547-.217-1.093-.81-1.203a.99.99 0 0 0-1.187.82c-.11.547.216 1.094.81 1.203zm7.017 3.118c.162.11.378.218.593.218.325 0 .649-.164.81-.437.325-.493.217-1.094-.215-1.422-.486-.328-1.08-.22-1.404.219-.377.492-.269 1.093.216 1.422zm3.616 2.952c.27 0 .486-.11.702-.273.432-.383.432-1.04.054-1.477-.378-.437-1.025-.437-1.458-.055-.431.384-.431 1.04-.053 1.477.216.22.486.328.755.328zm3.185 6.344c.162.437.54.71.971.71.108 0 .216 0 .324-.054.54-.165.81-.766.649-1.313-.162-.546-.757-.82-1.296-.656-.54.22-.863.821-.648 1.313zM6.544 27.506c-.215-.547-.756-.82-1.295-.602-.54.219-.81.766-.593 1.313.161.437.54.656.97.656.108 0 .217 0 .378-.055.487-.219.756-.82.54-1.312zm34.438-15.584c.16 0 .377-.055.54-.165.485-.273.647-.93.378-1.421-.27-.493-.918-.656-1.404-.383-.485.274-.647.93-.378 1.422.161.328.54.547.864.547zm-9.393-8.204c.108.055.27.11.432.11a.997.997 0 0 0 .918-.602c.216-.547 0-1.148-.54-1.367-.54-.218-1.134 0-1.35.547-.215.438.002 1.094.54 1.312zM17.016 38.443a1.052 1.052 0 0 0-1.35.546 1.076 1.076 0 0 0 .54 1.367c.108.055.271.055.379.055.377 0 .81-.219.917-.656.27-.492.054-1.094-.486-1.312zm3.724 1.093c-.539-.11-1.08.273-1.187.82-.108.547.27 1.094.81 1.203h.161c.486 0 .918-.328 1.026-.874.109-.493-.27-1.04-.81-1.149zM9.189 34.068c-.431.382-.431 1.038-.054 1.476.216.219.486.328.756.328s.486-.109.702-.273c.432-.383.432-1.04 0-1.476-.324-.438-.972-.493-1.404-.055zm-2.32-3.39c-.487.328-.649.929-.325 1.42.216.33.54.493.864.493.162 0 .378-.055.54-.164.486-.329.594-.93.324-1.422-.324-.492-.918-.656-1.404-.328zm6.747 5.905c-.486-.328-1.08-.218-1.404.273-.324.493-.216 1.094.27 1.422.161.11.377.164.593.164.325 0 .648-.164.864-.438.27-.437.108-1.093-.323-1.42zm34.113-15.256l-3.455-3.5c-.377-.383-1.025-.383-1.458 0l-3.453 3.5c-.378.383-.378 1.039 0 1.476.216.22.485.329.701.329.216 0 .54-.11.702-.329l1.727-1.75c0 10.39-8.366 18.866-18.622 18.866-.54 0-1.026.437-1.026 1.04 0 .6.432 1.038 1.026 1.038 11.39 0 20.673-9.35 20.673-20.889l1.674 1.695c.216.22.485.329.701.329.216 0 .54-.11.702-.329.486-.437.486-1.094.108-1.476z"/></defs></svg>