<svg width="48" height="48" viewBox="0 0 48 48" xmlns="http://www.w3.org/2000/svg" xmlns:xlink="http://www.w3.org/1999/xlink" xmlns:figma="http://www.figma.com/figma/ns"><title>safe</title><desc>Created using Figma</desc><g transform="translate(57 45)" figma:type="canvas"><mask id="a"><path d="M-57-45h48V3h-48v-48z" fill="#FFF"/></mask><g style="mix-blend-mode:normal" mask="url(#a)" figma:type="frame"><g style="mix-blend-mode:normal" figma:type="vector" transform="translate(-55 -43)" fill="#3BB75E"><use xlink:href="#b" style="mix-blend-mode:normal"/><use xlink:href="#c" style="mix-blend-mode:normal"/><use xlink:href="#d" style="mix-blend-mode:normal"/><use xlink:href="#e" style="mix-blend-mode:normal"/><use xlink:href="#f" style="mix-blend-mode:normal"/><use xlink:href="#g" style="mix-blend-mode:normal"/><use xlink:href="#h" style="mix-blend-mode:normal"/></g></g></g><defs><path id="b" fill-rule="evenodd" d="M36 6H9a1 1 0 0 0-1 1v27a1 1 0 0 0 1 1h27a1 1 0 0 0 1-1V7a1 1 0 0 0-1-1zM9 4a3 3 0 0 0-3 3v27a3 3 0 0 0 3 3h27a3 3 0 0 0 3-3V7a3 3 0 0 0-3-3H9z"/><path id="c" fill-rule="evenodd" d="M4 12a1 1 0 0 1 1-1h4a1 1 0 1 1 0 2H5a1 1 0 0 1-1-1z"/><path id="d" fill-rule="evenodd" d="M4 30a1 1 0 0 1 1-1h4a1 1 0 1 1 0 2H5a1 1 0 0 1-1-1z"/><path id="e" fill-rule="evenodd" d="M41 2H3a1 1 0 0 0-1 1v35a1 1 0 0 0 1 1h38a1 1 0 0 0 1-1V3a1 1 0 0 0-1-1zM3 0a3 3 0 0 0-3 3v35a3 3 0 0 0 3 3h38a3 3 0 0 0 3-3V3a3 3 0 0 0-3-3H3z"/><path id="f" fill-rule="evenodd" d="M5 39a1 1 0 0 1 1 1v2h4v-2a1 1 0 1 1 2 0v3a1 1 0 0 1-1 1H5a1 1 0 0 1-1-1v-3a1 1 0 0 1 1-1z"/><path id="g" fill-rule="evenodd" d="M33 39a1 1 0 0 1 1 1v2h4v-2a1 1 0 1 1 2 0v3a1 1 0 0 1-1 1h-6a1 1 0 0 1-1-1v-3a1 1 0 0 1 1-1z"/><path id="h" d="M30.313 13.542l-.091-.069-.104-.046a7.83 7.83 0 1 0-.402 13.716h.104a7.819 7.819 0 0 0 .489-13.55l.005-.05zm-4.156.569c.825 0 1.641.167 2.4.493l-2.595 4.283c-.24.035-.467.134-.655.287l-4.909-.964a6.114 6.114 0 0 1 5.764-4.145l-.005.046zm-6.103 6.062v-.327l4.903.965a1.353 1.353 0 0 0 .918.689l2.297 4.415a6.097 6.097 0 0 1-8.118-5.742zm9.668 4.96l-2.297-4.426a1.315 1.315 0 0 0 0-.976l2.595-4.277a6.098 6.098 0 0 1-.315 9.686l.017-.006z"/></defs></svg>