<svg width="12" height="12" viewBox="0 0 12 12" xmlns="http://www.w3.org/2000/svg" xmlns:xlink="http://www.w3.org/1999/xlink" xmlns:figma="http://www.figma.com/figma/ns"><title>security-small</title><desc>Created using Figma</desc><g transform="translate(-52 120)" figma:type="canvas"><mask id="a"><path d="M52-120h12v12H52v-12z" fill="#FFF"/></mask><g style="mix-blend-mode:normal" mask="url(#a)" figma:type="frame"><g style="mix-blend-mode:normal" figma:type="vector" transform="translate(52.75 -120)" fill="#3BB75E"><use xlink:href="#b" style="mix-blend-mode:normal"/><use xlink:href="#c" style="mix-blend-mode:normal"/><use xlink:href="#d" style="mix-blend-mode:normal"/></g></g></g><defs><path id="b" d="M5.5 0h-.25A3.25 3.25 0 0 0 2 3.25V5h.5V3.25A2.75 2.75 0 0 1 5.25.5h.25a2.75 2.75 0 0 1 2.75 2.75V5h.5V3.25A3.25 3.25 0 0 0 5.5 0z"/><path id="c" fill-rule="evenodd" d="M5.25 9.75a1.25 1.25 0 1 0 0-2.5 1.25 1.25 0 0 0 0 2.5zM6 8.5a.75.75 0 1 1-1.5 0 .75.75 0 0 1 1.5 0z"/><path id="d" fill-rule="evenodd" d="M9.5 5H1a1 1 0 0 0-1 1v5a1 1 0 0 0 1 1h8.5a1 1 0 0 0 1-1V6a1 1 0 0 0-1-1zm-9 1a.5.5 0 0 1 .5-.5h8.5a.5.5 0 0 1 .5.5v5a.5.5 0 0 1-.5.5H1a.5.5 0 0 1-.5-.5V6z"/></defs></svg>