<svg width="48" height="48" viewBox="0 0 48 48" version="1.1" xmlns="http://www.w3.org/2000/svg" xmlns:xlink="http://www.w3.org/1999/xlink" xmlns:figma="http://www.figma.com/figma/ns">
<title>setup</title>
<desc>Created using Figma</desc>
<g id="Canvas" transform="translate(320 -365)" figma:type="canvas">
<mask id="mask0_alpha" mask-type="alpha">
<path d="M -320 365L -272 365L -272 413L -320 413L -320 365Z" fill="#FFFFFF"/>
</mask>
<g id="setup" mask="url(#mask0_alpha)" figma:type="frame">
<g id="Vector" figma:type="vector">
<use xlink:href="#path0_fill" transform="translate(-320 365)" fill="#3BB75E"/>
<use xlink:href="#path1_fill" transform="translate(-320 365)" fill="#3BB75E"/>
</g>
</g>
</g>
<defs>
<path id="path0_fill" d="M 23.9777 16.0328C 19.632 16.0328 16.0764 19.5738 16.0764 23.9016C 16.0764 28.2295 19.632 31.7705 23.9777 31.7705C 28.3233 31.7705 31.8789 28.2295 31.8789 23.9016C 31.8789 19.5738 28.3233 16.0328 23.9777 16.0328ZM 23.9777 29.8033C 20.7184 29.8033 18.0517 27.1475 18.0517 23.9016C 18.0517 20.6557 20.7184 18 23.9777 18C 27.2369 18 29.9036 20.6557 29.9036 23.9016C 29.9036 27.1475 27.2369 29.8033 23.9777 29.8033Z"/>
<path id="path1_fill" d="M 45.5084 26.0656L 43.7307 25.1803C 43.7307 24.7869 43.7307 24.2951 43.7307 23.9016C 43.7307 23.3115 43.7307 22.7213 43.6319 22.1311L 45.4097 21.1475C 47.385 20.2623 48.3726 18 47.4837 15.9344L 45.9035 12.2951C 45.5084 11.3115 44.7183 10.623 43.7307 10.2295C 42.743 9.83607 41.6566 9.83607 40.7677 10.2295L 38.7924 10.8197C 38.1011 10.0328 37.4097 9.34426 36.6196 8.65574L 37.2122 6.78689C 37.6072 5.80328 37.6072 4.72131 37.2122 3.7377C 36.8171 2.7541 36.027 2.06557 35.0393 1.67213L 31.2863 0.295082C 30.2986 -0.0983607 29.2122 -0.0983607 28.2246 0.295082C 27.2369 0.688525 26.5456 1.47541 26.1505 2.36066L 25.1628 4.22951C 24.1752 4.13115 23.1875 4.13115 22.1011 4.22951L 21.1135 2.45902C 20.2246 0.491803 17.953 -0.491803 15.8789 0.393443L 12.2246 1.96721C 10.2493 2.85246 9.26167 5.11475 10.1506 7.08197L 10.7431 9.04918C 9.95302 9.7377 9.26167 10.4262 8.57031 11.2131L 6.69377 10.623C 5.70612 10.2295 4.61971 10.2295 3.63206 10.623C 2.64441 11.0164 1.95305 11.8033 1.55799 12.7869L 0.274045 16.623C -0.516076 18.5902 0.471575 20.9508 2.34811 21.7377L 4.22465 22.7213C 4.22465 23.1148 4.22465 23.6066 4.22465 24C 4.22465 24.5902 4.22465 25.082 4.32341 25.7705L 2.54564 26.7541C 1.55799 27.1475 0.866635 27.9344 0.471575 28.918C 0.0765146 29.9016 0.0765146 30.9836 0.471575 31.9672L 2.05182 35.6066C 2.9407 37.5738 5.2123 38.5574 7.1876 37.6721L 9.1629 37.082C 9.85426 37.8689 10.5456 38.5574 11.3357 39.2459L 10.7431 41.1148C 9.95302 43.082 10.9407 45.4426 12.916 46.2295L 16.5703 47.7049C 17.0641 47.9016 17.5579 48 18.0518 48C 19.632 48 21.1135 47.1148 21.7061 45.6393L 22.6937 43.7705C 23.6814 43.8689 24.669 43.8689 25.7554 43.7705L 26.7431 45.541C 27.1381 46.5246 27.9283 47.2131 28.9159 47.6066C 29.9036 48 30.99 48 31.9776 47.6066L 35.6319 46.0328C 37.6072 45.1475 38.5949 42.8852 37.706 40.918L 37.1134 38.9508C 37.9035 38.2623 38.5949 37.5738 39.2862 36.7869L 41.1628 37.377C 43.2369 38.1639 45.5084 37.1803 46.2986 35.2131L 47.78 31.5738C 48.4714 29.2131 47.4837 26.9508 45.5084 26.0656ZM 45.8047 30.4918L 44.3233 34.1311C 44.1257 34.623 43.7307 35.0164 43.2369 35.2131C 42.743 35.4098 42.2492 35.4098 41.6566 35.2131L 38.99 34.4262C 38.5949 34.3279 38.1998 34.4262 37.9035 34.7213C 37.0146 35.8033 36.1258 36.7869 35.1381 37.5738C 34.8418 37.8689 34.7431 38.2623 34.8418 38.6557L 35.7307 41.3115C 35.9282 41.8033 35.9282 42.2951 35.7307 42.7869C 35.5332 43.2787 35.1381 43.6721 34.6443 43.8689L 30.99 45.4426C 30.4962 45.6393 30.0023 45.6393 29.5085 45.4426C 29.0147 45.2459 28.6196 44.8525 28.4221 44.2623L 27.1381 41.9016C 26.9406 41.5082 26.5456 41.3115 26.1505 41.4098C 24.5703 41.6066 23.4838 41.6066 22.1999 41.5082C 21.8048 41.5082 21.4098 41.7049 21.2122 42L 19.9283 44.5574C 19.5332 45.541 18.348 46.0328 17.3604 45.6393L 13.7061 44.1639C 12.7184 43.7705 12.2246 42.5902 12.6197 41.5082L 13.4098 38.8525C 13.5086 38.459 13.4098 38.0656 13.1135 37.7705C 12.0271 36.8852 11.0394 36 10.2493 35.0164C 10.0518 34.8197 9.75549 34.623 9.4592 34.623C 9.36043 34.623 9.26167 34.623 9.1629 34.623L 6.49624 35.5082C 5.50859 35.9016 4.32341 35.5082 3.92835 34.4262L 2.34811 30.7869C 2.15058 30.2951 2.15058 29.8033 2.34811 29.3115C 2.54564 28.8197 2.9407 28.4262 3.53329 28.2295L 5.90365 26.9508C 6.29871 26.7541 6.49624 26.3607 6.39748 25.9672C 6.19995 25.2787 6.19995 24.5902 6.19995 23.9016C 6.19995 23.3115 6.19995 22.7213 6.29871 22.1311C 6.29871 21.7377 6.10118 21.3443 5.80489 21.1475L 3.237 19.8689C 2.24935 19.4754 1.75552 18.2951 2.15058 17.3115L 3.63206 13.6721C 3.82959 13.1803 4.22465 12.7869 4.71847 12.5902C 5.2123 12.3934 5.70612 12.3934 6.29871 12.5902L 8.96537 13.377C 9.36043 13.4754 9.75549 13.377 10.0518 13.082C 10.9407 12 11.8296 11.0164 12.8172 10.2295C 13.1135 9.93443 13.2123 9.54098 13.1135 9.14754L 12.2246 6.4918C 12.0271 6 12.0271 5.5082 12.2246 5.01639C 12.4221 4.52459 12.8172 4.13115 13.311 3.93443L 16.9653 2.36066C 17.4592 2.16393 17.953 2.16393 18.4468 2.36066C 18.9406 2.55738 19.3357 2.95082 19.5332 3.54098L 20.8172 5.90164C 21.0147 6.29508 21.4098 6.4918 21.8048 6.39344C 23.3851 6.19672 24.4715 6.19672 25.7554 6.29508C 26.1505 6.29508 26.5455 6.09836 26.7431 5.80328L 28.027 3.2459C 28.2246 2.7541 28.6196 2.36066 29.1134 2.16393C 29.6073 1.96721 30.1011 1.96721 30.5949 2.16393L 34.2492 3.63934C 34.7431 3.83607 35.1381 4.22951 35.3356 4.72131C 35.5332 5.21311 35.5332 5.70492 35.3356 6.29508L 34.5455 8.95082C 34.4468 9.34426 34.5455 9.73771 34.8418 10.0328C 35.9282 10.918 36.9159 11.8033 37.706 12.7869C 38.0023 13.082 38.3974 13.1803 38.7924 13.082L 41.4591 12.1967C 41.9529 12 42.4467 12 42.9406 12.1967C 43.4344 12.3934 43.8294 12.7869 44.027 13.2787L 45.6072 16.918C 46.0023 17.9016 45.6072 19.082 44.5208 19.5738L 42.1504 20.8525C 41.7554 21.0492 41.5578 21.4426 41.6566 21.8361C 41.7554 22.5246 41.7554 23.2131 41.7554 23.9016C 41.7554 24.4918 41.7554 25.082 41.6566 25.6721C 41.6566 26.0656 41.8541 26.459 42.1504 26.6557L 44.6196 27.9344L 44.7183 27.9344C 45.706 28.3279 46.1998 29.5082 45.8047 30.4918Z"/>
</defs>
</svg>
