<svg width="48" height="48" viewBox="0 0 48 48" xmlns="http://www.w3.org/2000/svg" xmlns:xlink="http://www.w3.org/1999/xlink" xmlns:figma="http://www.figma.com/figma/ns"><title>split</title><desc>Created using Figma</desc><g transform="translate(233 -35)" figma:type="canvas"><mask id="a"><path d="M-233 35h48v48h-48V35z" fill="#FFF"/></mask><g style="mix-blend-mode:normal" mask="url(#a)" figma:type="frame"><g style="mix-blend-mode:normal" figma:type="vector" transform="translate(-228.79 38)" fill="#3BB75E"><use xlink:href="#b" style="mix-blend-mode:normal"/><use xlink:href="#c" style="mix-blend-mode:normal"/><use xlink:href="#d" style="mix-blend-mode:normal"/></g></g></g><defs><path id="b" fill-rule="evenodd" d="M1.587 4.203a1 1 0 0 0 0 1.414l1.398 1.4A1 1 0 0 0 4.4 5.603L3 4.203a1 1 0 0 0-1.413 0zm4.197 4.199a1 1 0 0 0 0 1.414l2.798 2.8a1 1 0 1 0 1.414-1.414l-2.798-2.8a1 1 0 0 0-1.414 0zm5.596 5.599a1 1 0 0 0 0 1.414l2.798 2.8a1 1 0 0 0 1.415-1.414L12.794 14a1 1 0 0 0-1.414 0zm5.597 5.599a1 1 0 0 0 0 1.414l2.797 2.8A1 1 0 1 0 21.19 22.4l-2.798-2.8a1 1 0 0 0-1.414 0zm5.596 5.599a1 1 0 0 0 0 1.414l2.798 2.8a1 1 0 0 0 1.414-1.414l-2.798-2.8a1 1 0 0 0-1.414 0zm5.596 5.599a1 1 0 0 0 0 1.414l2.798 2.8a1 1 0 0 0 1.415-1.414l-2.799-2.8a1 1 0 0 0-1.414 0zm5.597 5.599a1 1 0 0 0 0 1.414l1.398 1.4a1 1 0 1 0 1.415-1.414l-1.4-1.4a1 1 0 0 0-1.413 0z"/><path id="c" fill-rule="evenodd" d="M6.194 27.454a2 2 0 0 1 3.192 0l5.786 7.664c.995 1.318.055 3.206-1.596 3.206H2.004c-1.651 0-2.591-1.888-1.597-3.206l5.787-7.664zM7.79 28.66l-5.786 7.664h11.572L7.79 28.66z"/><path id="d" fill-rule="evenodd" d="M31.79 16a7 7 0 1 0 0-14 7 7 0 0 0 0 14zm0 2a9 9 0 1 0 0-18 9 9 0 0 0 0 18z"/></defs></svg>