<svg width="48" height="48" viewBox="0 0 48 48" xmlns="http://www.w3.org/2000/svg" xmlns:xlink="http://www.w3.org/1999/xlink" xmlns:figma="http://www.figma.com/figma/ns"><title>subscribe</title><desc>Created using Figma</desc><g transform="translate(57 -35)" figma:type="canvas"><mask id="a"><path d="M-57 35h48v48h-48V35z" fill="#FFF"/></mask><g style="mix-blend-mode:normal" mask="url(#a)" figma:type="frame"><g style="mix-blend-mode:normal" figma:type="vector" transform="translate(-56 35.552)" fill="#3BB75E"><use xlink:href="#b" style="mix-blend-mode:normal"/><use xlink:href="#c" style="mix-blend-mode:normal"/><use xlink:href="#d" style="mix-blend-mode:normal"/></g></g></g><defs><path id="b" fill-rule="evenodd" d="M36.8 16.194c0 8.462-5.518 16.195-13.289 16.195s-13.289-7.733-13.289-16.195S15.74 0 23.511 0 36.8 7.732 36.8 16.194zm-13.29 14.17c6.21 0 11.244-6.344 11.244-14.17S29.72 2.024 23.51 2.024s-11.244 6.344-11.244 14.17 5.034 14.17 11.244 14.17z"/><path id="c" fill-rule="evenodd" d="M16.355 32.54a1.01 1.01 0 0 1-.67 1.268l-.305-.966-.305-.966a1.024 1.024 0 0 1 1.28.665zm-1.28-.664l.305.966.305.966h-.002l-.004.002-.017.005-.068.022a99.564 99.564 0 0 0-1.225.387c-.813.26-1.923.622-3.13 1.031-2.42.82-5.167 1.807-6.647 2.541-1.17.58-2.291 2.273-2.51 3.851-.107.765.023 1.334.287 1.687.236.316.718.642 1.766.642h21.466l.001 1.012V46H4.135c-1.507 0-2.687-.496-3.409-1.461-.694-.928-.82-2.099-.67-3.168.291-2.09 1.725-4.446 3.622-5.385 1.587-.784 4.462-1.82 6.899-2.646a203.28 203.28 0 0 1 4.403-1.434l.07-.022.018-.006.005-.001h.002zm11.55 13.112c0 .56-.459 1.012-1.023 1.012v-2.024c.564 0 1.022.453 1.022 1.012z"/><path id="d" fill-rule="evenodd" d="M44.864 35.766h-5.906v-5.848c0-.6-.53-1.124-1.136-1.124-.606 0-1.136.525-1.136 1.124v5.848H30.78c-.606 0-1.136.525-1.136 1.125s.53 1.125 1.136 1.125h5.906v5.848c0 .6.53 1.124 1.136 1.124.606 0 1.136-.525 1.136-1.124v-5.848h5.906c.606 0 1.136-.525 1.136-1.125s-.53-1.125-1.136-1.125z"/></defs></svg>