<svg width="48" height="48" viewBox="0 0 48 48" version="1.1" xmlns="http://www.w3.org/2000/svg" xmlns:xlink="http://www.w3.org/1999/xlink" xmlns:figma="http://www.figma.com/figma/ns">
<title>track-invoices</title>
<desc>Created using Figma</desc>
<g id="Canvas" transform="translate(145 -365)" figma:type="canvas">
<mask id="mask0_alpha" mask-type="alpha">
<path d="M -145 365L -97 365L -97 413L -145 413L -145 365Z" fill="#FFFFFF"/>
</mask>
<g id="track-invoices" mask="url(#mask0_alpha)" figma:type="frame">
<g id="Vector" figma:type="vector">
<use xlink:href="#path0_fill" transform="translate(-141 365)" fill="#3BB75E"/>
<use xlink:href="#path1_fill" transform="translate(-141 365)" fill="#3BB75E"/>
<use xlink:href="#path2_fill" transform="translate(-141 365)" fill="#3BB75E"/>
<use xlink:href="#path3_fill" transform="translate(-141 365)" fill="#3BB75E"/>
<use xlink:href="#path4_fill" transform="translate(-141 365)" fill="#3BB75E"/>
<use xlink:href="#path5_fill" transform="translate(-141 365)" fill="#3BB75E"/>
<use xlink:href="#path6_fill" transform="translate(-141 365)" fill="#3BB75E"/>
</g>
</g>
</g>
<defs>
<path id="path0_fill" d="M 39.3727 45.6261L 38.5042 45.6261C 38.5042 45.8577 38.4463 46.0314 38.3305 46.1472C 38.2147 46.263 38.1568 46.263 38.0989 46.263L 2.14234 46.263C 2.08444 46.263 2.02654 46.263 1.91074 46.1472C 1.79493 46.0314 1.73703 45.8577 1.73703 45.6261L 1.73703 2.37394C 1.73703 2.14234 1.79493 1.96864 1.91074 1.85283C 2.02654 1.73703 2.08444 1.73703 2.14234 1.73703L 38.0989 1.73703C 38.1568 1.73703 38.2147 1.73703 38.3305 1.85283C 38.4463 1.96864 38.5042 2.14234 38.5042 2.37394L 38.5042 45.6261L 39.3727 45.6261L 40.2413 45.6261L 40.2413 2.37394C 40.2413 1.73703 40.0096 1.15802 39.6622 0.752714C 39.3148 0.289505 38.7358 0 38.0989 0L 2.14234 0C 1.50543 0 0.926417 0.347406 0.579011 0.752714C 0.231604 1.21592 0 1.79493 0 2.37394L 0 45.6261C 0 46.263 0.231604 46.842 0.579011 47.2473C 0.926417 47.7105 1.50543 48 2.14234 48L 38.0989 48C 38.7358 48 39.3148 47.6526 39.6622 47.2473C 40.0096 46.7841 40.2413 46.2051 40.2413 45.6261L 39.3727 45.6261Z"/>
<path id="path1_fill" d="M 8.14958 18.5862L 19.9614 18.5862C 20.4246 18.5862 20.8299 18.1809 20.8299 17.7177C 20.8299 17.2545 20.4246 16.8492 19.9614 16.8492L 8.14958 16.8492C 7.68637 16.8492 7.28107 17.2545 7.28107 17.7177C 7.28107 18.1809 7.62847 18.5862 8.14958 18.5862Z"/>
<path id="path2_fill" d="M 7.99036 29.7611L 32.3088 29.7611C 32.772 29.7611 33.1773 29.3558 33.1773 28.8926C 33.1773 28.4294 32.772 28.0241 32.3088 28.0241L 7.99036 28.0241C 7.52715 28.0241 7.12184 28.4294 7.12184 28.8926C 7.12184 29.3558 7.46925 29.7611 7.99036 29.7611Z"/>
<path id="path3_fill" d="M 7.99036 35.3197L 32.3088 35.3197C 32.772 35.3197 33.1773 34.9144 33.1773 34.4512C 33.1773 33.9879 32.772 33.5826 32.3088 33.5826L 7.99036 33.5826C 7.52715 33.5826 7.12184 33.9879 7.12184 34.4512C 7.12184 34.9723 7.46925 35.3197 7.99036 35.3197Z"/>
<path id="path4_fill" d="M 7.99036 24.1447L 32.3088 24.1447C 32.772 24.1447 33.1773 23.7394 33.1773 23.2762C 33.1773 22.813 32.772 22.4077 32.3088 22.4077L 7.99036 22.4077C 7.52715 22.4077 7.12184 22.813 7.12184 23.2762C 7.12184 23.7973 7.46925 24.1447 7.99036 24.1447Z"/>
<path id="path5_fill" d="M 7.99036 13.1447L 32.3088 13.1447C 32.772 13.1447 33.1773 12.7394 33.1773 12.2762C 33.1773 11.813 32.772 11.4077 32.3088 11.4077L 7.99036 11.4077C 7.52715 11.4077 7.12184 11.813 7.12184 12.2762C 7.12184 12.7973 7.46925 13.1447 7.99036 13.1447Z"/>
<path id="path6_fill" d="M 7.99036 40.9361L 32.3088 40.9361C 32.772 40.9361 33.1773 40.5308 33.1773 40.0676C 33.1773 39.6043 32.772 39.199 32.3088 39.199L 7.99036 39.199C 7.52715 39.199 7.12184 39.6043 7.12184 40.0676C 7.12184 40.5308 7.46925 40.9361 7.99036 40.9361Z"/>
</defs>
</svg>
