<svg width="48" height="48" viewBox="0 0 48 48" xmlns="http://www.w3.org/2000/svg" xmlns:xlink="http://www.w3.org/1999/xlink" xmlns:figma="http://www.figma.com/figma/ns"><title>ussd</title><desc>Created using Figma</desc><g transform="translate(-31 45)" figma:type="canvas"><mask id="a"><path d="M31-45h48V3H31v-48z" fill="#FFF"/></mask><g style="mix-blend-mode:normal" mask="url(#a)" figma:type="frame"><g style="mix-blend-mode:normal" figma:type="vector" transform="translate(38 -45)" fill="#3BB75E"><use xlink:href="#b" style="mix-blend-mode:normal"/><use xlink:href="#c" style="mix-blend-mode:normal"/><use xlink:href="#d" style="mix-blend-mode:normal"/><use xlink:href="#e" style="mix-blend-mode:normal"/></g></g></g><defs><path id="b" d="M12 40a1 1 0 1 0 0 2h6a1 1 0 1 0 0-2h-6z"/><path id="c" d="M26 14h-6a1 1 0 1 0 0 2h13a1 1 0 1 0 0-2h-7z"/><path id="d" d="M28 20h-8a1 1 0 1 0 0 2h13a1 1 0 1 0 0-2h-5z"/><path id="e" fill-rule="evenodd" d="M30 27v17a4 4 0 0 1-4 4H4a4 4 0 0 1-4-4V4a4 4 0 0 1 4-4h22a4 4 0 0 1 4 4v5h6.763a3 3 0 0 1 3 3v12a3 3 0 0 1-3 3H30zM4 2h22a2 2 0 0 1 2 2v5H16.763a3 3 0 0 0-3 3v12a3 3 0 0 0 3 3H18v6a1 1 0 0 0 1.832.555L24.202 27H28v17a2 2 0 0 1-2 2H4a2 2 0 0 1-2-2V4a2 2 0 0 1 2-2zm29 9h3.763a1 1 0 0 1 1 1v12a1 1 0 0 1-1 1H23.25l-.082-.055-.037.055H23v.197l-3 4.5V25h-3.237a1 1 0 0 1-1-1V12a1 1 0 0 1 1-1H33z"/></defs></svg>