<svg width="48" height="48" viewBox="0 0 48 48" version="1.1" xmlns="http://www.w3.org/2000/svg" xmlns:xlink="http://www.w3.org/1999/xlink" xmlns:figma="http://www.figma.com/figma/ns">
<title>webhooks</title>
<desc>Created using Figma</desc>
<g id="Canvas" transform="translate(-31 -35)" figma:type="canvas">
<mask id="mask0_alpha" mask-type="alpha">
<path d="M 31 35L 79 35L 79 83L 31 83L 31 35Z" fill="#FFFFFF"/>
</mask>
<g id="webhooks" style="mix-blend-mode:normal;" mask="url(#mask0_alpha)" figma:type="frame">
<g id="Vector" style="mix-blend-mode:normal;" figma:type="vector">
<use xlink:href="#path0_fill" transform="translate(35.5 39.5)" fill="#3BB75E" style="mix-blend-mode:normal;"/>
</g>
</g>
</g>
<defs>
<path id="path0_fill" d="M 28.7819 33.9434C 26.535 35.4497 23.9671 36.3641 21.2922 36.6331L 22.8436 34.051C 25.358 29.8552 26.749 25.1752 26.9095 20.4952L 36.5391 20.4952C 36.4856 21.0869 36.4321 21.6786 36.3786 22.2703C 36.2716 22.8621 36.1646 23.4 36.0041 23.9917C 35.8436 24.5834 36.1646 25.1752 36.7531 25.3366C 37.3416 25.4979 37.93 25.1752 38.0905 24.5834C 38.251 23.9379 38.4115 23.2924 38.5185 22.6469C 38.679 21.6248 38.786 20.549 38.786 19.4731C 38.786 14.2552 36.7531 9.36 33.0617 5.64828C 29.4239 1.99034 24.5556 -2.05204e-07 19.4198 -2.05204e-07L 19.3663 -2.05204e-07C 14.177 -2.05204e-07 9.30864 2.04414 5.61728 5.75586C 5.40329 5.97103 5.1893 6.18621 5.02881 6.40138C 1.76543 10.0055 1.02039e-07 14.6317 1.02039e-07 19.5269C 1.02039e-07 24.4759 1.87243 29.0483 4.92181 32.491C 4.97531 32.5986 5.0823 32.7062 5.2428 32.8138C 8.77366 36.6331 13.8025 39 19.3663 39C 23.1646 39 26.8025 37.9241 29.9588 35.8262C 30.4403 35.5034 30.6008 34.8579 30.2798 34.32C 29.9588 33.7283 29.3169 33.6207 28.7819 33.9434ZM 2.13992 20.4952L 11.823 20.4952C 11.93 22.9697 12.358 25.4441 13.107 27.811C 10.6996 28.4028 8.29218 29.2634 6.15226 30.4469C 3.85185 27.7034 2.40741 24.2607 2.13992 20.4952ZM 6.04527 8.39172C 8.29218 9.57517 10.6461 10.4897 13.0535 11.0276C 12.3045 13.4483 11.8765 15.9228 11.7695 18.3972L 2.13992 18.3972C 2.35391 14.6855 3.74486 11.189 6.04527 8.39172ZM 36.5926 18.3434L 26.9095 18.3434C 26.8025 15.869 26.3745 13.3945 25.6255 11.0276C 28.0329 10.4897 30.3868 9.57517 32.6337 8.39172C 34.9877 11.189 36.3786 14.6855 36.5926 18.3434ZM 19.3663 3.12L 21.0247 5.91724C 21.7202 7.0469 22.2551 8.17655 22.7901 9.36C 20.5432 9.62897 18.2428 9.62897 15.9959 9.36C 16.4774 8.17655 17.0658 6.9931 17.7613 5.91724L 19.3663 3.12ZM 19.3663 11.7269C 20.7572 11.7269 22.1481 11.6193 23.4856 11.4041C 24.2346 13.6634 24.6091 15.9766 24.716 18.3434L 13.963 18.3434C 14.07 15.9766 14.4979 13.6634 15.1934 11.4041C 16.5844 11.6193 17.9753 11.7269 19.3663 11.7269ZM 24.93 8.98345C 24.3416 7.53103 23.6461 6.13241 22.8436 4.78759L 21.2922 2.20552C 24.9835 2.63586 28.4074 4.19586 31.1358 6.77793C 29.1564 7.74621 27.07 8.49931 24.93 8.98345ZM 15.8889 4.78759C 15.0864 6.13241 14.3909 7.53103 13.8025 8.98345C 11.6626 8.49931 9.57613 7.8 7.59671 6.77793C 10.3251 4.19586 13.749 2.63586 17.4403 2.20552L 15.8889 4.78759ZM 13.8025 29.8552C 14.3909 31.3076 15.0864 32.7062 15.8889 34.051L 17.4403 36.6331C 13.6955 36.2028 10.2716 34.5352 7.65021 32.0607C 9.57613 31.0924 11.6626 30.3393 13.8025 29.8552ZM 15.9424 29.4786C 18.2428 29.1559 20.5432 29.1559 22.7366 29.4786C 22.2551 30.6621 21.6667 31.8455 20.9712 32.9752L 19.3663 35.7186L 17.7078 32.9214C 17.0123 31.8455 16.4774 30.6621 15.9424 29.4786ZM 23.5391 27.3807C 20.8642 26.9503 18.0288 26.9503 15.2469 27.3807C 14.4979 25.1214 14.1235 22.8083 14.0165 20.4952L 24.7695 20.4952C 24.6626 22.8083 24.2346 25.1752 23.5391 27.3807ZM 39 30.5007C 39 30.5545 39 30.6621 39 30.7159C 39 30.931 38.893 31.0924 38.7325 31.2538L 38.679 31.3076L 36.0041 33.9972C 35.7901 34.2124 35.5226 34.32 35.2551 34.32C 34.9877 34.32 34.7202 34.2124 34.5062 33.9972C 34.0782 33.5669 34.0782 32.9214 34.5062 32.491L 35.3621 31.6303L 29.9053 31.6303C 29.3169 31.6303 28.8354 31.1462 28.8354 30.5545C 28.8354 29.9628 29.3169 29.4786 29.9053 29.4786L 35.3621 29.4786L 34.5062 28.6179C 34.2922 28.4028 34.1852 28.1338 34.1852 27.8648C 34.1852 27.5959 34.2922 27.3269 34.5062 27.1117C 34.9342 26.6814 35.5761 26.6814 36.0041 27.1117L 38.679 29.8014C 38.893 30.0166 39 30.2317 39 30.5007Z"/>
</defs>
</svg>
