<svg width="48" height="48" viewBox="0 0 48 48" xmlns="http://www.w3.org/2000/svg" xmlns:xlink="http://www.w3.org/1999/xlink" xmlns:figma="http://www.figma.com/figma/ns"><title>webhooks</title><desc>Created using Figma</desc><g transform="translate(-31 -35)" figma:type="canvas"><mask id="a"><path d="M31 35h48v48H31V35z" fill="#FFF"/></mask><g style="mix-blend-mode:normal" mask="url(#a)" figma:type="frame" fill="#3BB75E"><use xlink:href="#b" transform="translate(31 44)" style="mix-blend-mode:normal" figma:type="vector-operation"/><use xlink:href="#c" transform="rotate(-41.009 104.861 -42.085)" style="mix-blend-mode:normal" figma:type="vector"/></g></g><defs><path id="b" fill-rule="evenodd" d="M27 1a1 1 0 0 1-1 1H3a1 1 0 0 0-1 1v33a1 1 0 0 0 1 1h33a1 1 0 0 0 1-1V13a1 1 0 1 1 2 0v25a1 1 0 0 1-1 1H1a1 1 0 0 1-1-1V1a1 1 0 0 1 1-1h25a1 1 0 0 1 1 1z"/><path id="c" d="M-.032.015a1 1 0 0 0 .064 1.999l-.064-2zm32 .669A1 1 0 0 0 31.92-.73l-6.567-6.154a1 1 0 1 0-1.367 1.46l5.837 5.47-5.47 5.837a1 1 0 0 0 1.46 1.368L31.966.684zM.031 2.014L31.27.999l-.065-1.998L-.032.015l.064 1.999z"/></defs></svg>