<svg width="72" height="72" viewBox="0 0 72 72" xmlns="http://www.w3.org/2000/svg" xmlns:xlink="http://www.w3.org/1999/xlink" xmlns:figma="http://www.figma.com/figma/ns">
    <title>
        wand
    </title>
    <desc>
        Created using Figma
    </desc>
    <g style="mix-blend-mode:normal" figma:type="frame">
        <use xlink:href="#a" transform="translate(27.553 25.62)" fill="#3BB75E" style="mix-blend-mode:normal" figma:type="vector"/>
        <use xlink:href="#b" transform="translate(1 1)" fill="#3BB75E" style="mix-blend-mode:normal" figma:type="vector"/>
    </g>
    <defs>
        <path id="a" d="M16.852 1.852l-3.414 3.413 1.06 1.061 3.414-3.414-1.06-1.06zm-3.385 12.164l3.414 3.413 1.06-1.06-3.413-3.414-1.06 1.06zM2.364 2.912l3.413 3.414 1.061-1.06-3.414-3.414-1.06 1.06zm6.903 12.053v4.828h1.5v-4.827h-1.5zM9.267 0v4.828h1.5V0h-1.5zM0 10.526h4.828v-1.5H0v1.5zm15.448 0h4.828v-1.5h-4.828v1.5z"/>
        <path id="b" d="M36.69 34.035l.383-.322-.31-.369-.38.296.307.395zm.81.965l.325.38.376-.322-.318-.38L37.5 35zm32 0c0 19.054-15.446 34.5-34.5 34.5v1c19.606 0 35.5-15.894 35.5-35.5h-1zM35 69.5C15.946 69.5.5 54.054.5 35h-1c0 19.606 15.894 35.5 35.5 35.5v-1zM.5 35C.5 15.946 15.946.5 35 .5v-1C15.394-.5-.5 15.394-.5 35h1zM35 .5C54.054.5 69.5 15.946 69.5 35h1C70.5 15.394 54.606-.5 35-.5v1zM8.226 56.814l28.77-22.385-.613-.79L7.61 56.026l.615.789zm2.12 3.043c4.924-4.698 11.791-10.815 17.432-15.761a1278.341 1278.341 0 0 1 9.847-8.545l.15-.128a52.2 52.2 0 0 0 .037-.032l.01-.008a.035.035 0 0 0 .002-.002c0-.001.001-.001-.324-.381l-.325-.38-.003.003-.01.008-.038.033-.15.128-.577.495a1282.359 1282.359 0 0 0-9.278 8.056c-5.644 4.95-12.527 11.08-17.464 15.79l.69.724zm27.537-25.178l-.81-.966-.766.643.81.965.766-.642z"/>
    </defs>
</svg>
