<svg width="60" height="61" viewBox="0 0 60 61" xmlns="http://www.w3.org/2000/svg" xmlns:xlink="http://www.w3.org/1999/xlink" xmlns:figma="http://www.figma.com/figma/ns"><title>logo</title><desc>Created using Figma</desc><g style="mix-blend-mode:normal;isolation:isolate" figma:type="frame" fill="#09A5DB"><g style="mix-blend-mode:normal;isolation:isolate" figma:type="frame"><use xlink:href="#a" transform="translate(0 .5)" style="mix-blend-mode:normal" figma:type="vector"/><use xlink:href="#b" transform="translate(0 32.402)" style="mix-blend-mode:normal" figma:type="vector"/><use xlink:href="#c" transform="translate(0 48.35)" style="mix-blend-mode:normal" figma:type="vector"/><use xlink:href="#d" transform="translate(0 16.45)" style="mix-blend-mode:normal" figma:type="vector"/></g><use xlink:href="#a" transform="translate(0 .5)" style="mix-blend-mode:normal" figma:type="vector"/></g><defs><path id="a" d="M53.686 0H3.158C1.414 0 0 1.44 0 3.216v5.717c0 1.776 1.414 3.217 3.158 3.217h50.528c1.743 0 3.157-1.441 3.157-3.217V3.216C56.843 1.44 55.429 0 53.686 0z"/><path id="b" d="M53.686 0H3.158C1.414 0 0 1.438 0 3.215v5.72c0 1.773 1.414 3.213 3.158 3.213h50.528c1.743 0 3.157-1.44 3.157-3.213v-5.72C56.843 1.438 55.429 0 53.686 0z"/><path id="c" d="M31.58 0H3.158C1.414 0 0 1.44 0 3.217v5.717c0 1.776 1.414 3.216 3.158 3.216H31.58c1.744 0 3.157-1.44 3.157-3.216V3.217C34.737 1.44 33.325 0 31.58 0z"/><path id="d" d="M56.843 0H3.158C1.414 0 0 1.44 0 3.215v5.72c0 1.774 1.414 3.215 3.158 3.215h53.685c1.745 0 3.157-1.441 3.157-3.215v-5.72C60 1.44 58.588 0 56.843 0z"/></defs></svg>