<svg width="140" height="25" viewBox="0 0 175 31" version="1.1" xmlns="http://www.w3.org/2000/svg" xmlns:xlink="http://www.w3.org/1999/xlink" xmlns:figma="http://www.figma.com/figma/ns">
    <title>Logo</title>
    <desc>Created using Figma</desc>
    <g id="Canvas" transform="translate(23 165)" figma:type="canvas">
        <g id="Logo" style="mix-blend-mode:normal;" figma:type="frame">
            <g id="Group" style="mix-blend-mode:normal;" figma:type="frame">
                <g id="Group" style="mix-blend-mode:normal;" figma:type="frame">
                    <g id="Vector" style="mix-blend-mode:normal;" figma:type="vector">
                        <use xlink:href="#path0_fill" transform="translate(-23 -164.072)" fill="#09A5DB" style="mix-blend-mode:normal;" />
                    </g>
                    <g id="Vector" style="mix-blend-mode:normal;" figma:type="vector">
                        <use xlink:href="#path1_fill" transform="translate(-23 -148.121)" fill="#09A5DB" style="mix-blend-mode:normal;" />
                    </g>
                    <g id="Vector" style="mix-blend-mode:normal;" figma:type="vector">
                        <use xlink:href="#path2_fill" transform="translate(-23 -140.147)" fill="#09A5DB" style="mix-blend-mode:normal;" />
                    </g>
                    <g id="Vector" style="mix-blend-mode:normal;" figma:type="vector">
                        <use xlink:href="#path3_fill" transform="translate(-23 -156.097)" fill="#09A5DB" style="mix-blend-mode:normal;" />
                    </g>
                </g>
                <g id="Vector" style="mix-blend-mode:normal;" figma:type="vector">
                    <use xlink:href="#path0_fill" transform="translate(-23 -164.072)" fill="#09A5DB" style="mix-blend-mode:normal;" />
                </g>
            </g>
            <g id="PS-HFL2-WHITE" style="mix-blend-mode:normal;" figma:type="frame">
                <g id="Group" style="mix-blend-mode:normal;" figma:type="frame">
                    <g id="Group" style="mix-blend-mode:normal;" figma:type="frame">
                        <g id="Group" style="mix-blend-mode:normal;" figma:type="frame">
                            <g id="Group" style="mix-blend-mode:normal;" figma:type="frame">
                                <g id="Group" style="mix-blend-mode:normal;" figma:type="frame">
                                    <g id="Vector" style="mix-blend-mode:normal;" figma:type="vector">
                                        <use xlink:href="#path4_fill" transform="translate(21.2647 -158.816)" fill="#FFFFFF" style="mix-blend-mode:normal;" />
                                    </g>
                                    <g id="Vector" style="mix-blend-mode:normal;" figma:type="vector">
                                        <use xlink:href="#path5_fill" transform="translate(39.0723 -158.816)" fill="#FFFFFF" style="mix-blend-mode:normal;" />
                                    </g>
                                    <g id="Vector" style="mix-blend-mode:normal;" figma:type="vector">
                                        <use xlink:href="#path6_fill" transform="translate(73.6655 -158.816)" fill="#FFFFFF" style="mix-blend-mode:normal;" />
                                    </g>
                                    <g id="Vector" style="mix-blend-mode:normal;" figma:type="vector">
                                        <use xlink:href="#path7_fill" transform="translate(88.3377 -163.072)" fill="#FFFFFF" style="mix-blend-mode:normal;" />
                                    </g>
                                    <g id="Vector" style="mix-blend-mode:normal;" figma:type="vector">
                                        <use xlink:href="#path8_fill" transform="translate(101.261 -158.816)" fill="#FFFFFF" style="mix-blend-mode:normal;" />
                                    </g>
                                    <g id="Vector" style="mix-blend-mode:normal;" figma:type="vector">
                                        <use xlink:href="#path9_fill" transform="translate(119.462 -158.816)" fill="#FFFFFF" style="mix-blend-mode:normal;" />
                                    </g>
                                    <g id="Vector" style="mix-blend-mode:normal;" figma:type="vector">
                                        <use xlink:href="#path10_fill" transform="translate(136.313 -165)" fill="#FFFFFF" style="mix-blend-mode:normal;" />
                                    </g>
                                    <g id="Vector" style="mix-blend-mode:normal;" figma:type="vector">
                                        <use xlink:href="#path11_fill" transform="translate(56.8047 -158.385)" fill="#FFFFFF" style="mix-blend-mode:normal;" />
                                    </g>
                                </g>
                            </g>
                        </g>
                    </g>
                </g>
            </g>
        </g>
    </g>
    <defs>
        <path id="path0_fill" d="M 27.3381 0L 1.60814 0C 0.719811 0 0 0.719867 0 1.60775L 0 4.46639C 0 5.35428 0.719811 6.07504 1.60814 6.07504L 27.3381 6.07504C 28.226 6.07504 28.9458 5.35434 28.9458 4.46639L 28.9458 1.60775C 28.9458 0.719867 28.2261 0 27.3381 0Z" />
        <path id="path1_fill" d="M 27.3381 -4.07896e-08L 1.60814 -4.07896e-08C 0.719811 -4.07896e-08 0 0.718865 0 1.60764L 0 4.46728C 0 5.35422 0.719811 6.07409 1.60814 6.07409L 27.3381 6.07409C 28.226 6.07409 28.9458 5.35422 28.9458 4.46728L 28.9458 1.60764C 28.9458 0.718865 28.2261 -4.07896e-08 27.3381 -4.07896e-08Z" />
        <path id="path2_fill" d="M 16.0811 -5.71054e-07L 1.60814 -5.71054e-07C 0.719811 -5.71054e-07 0 0.719811 0 1.60859L 0 4.46723C 0 5.35512 0.719811 6.07487 1.60814 6.07487L 16.0811 6.07487C 16.9694 6.07487 17.6892 5.35512 17.6892 4.46723L 17.6892 1.60859C 17.6892 0.719811 16.9694 -5.71054e-07 16.0811 -5.71054e-07Z" />
        <path id="path3_fill" d="M 28.9458 2.24343e-07L 1.60814 2.24343e-07C 0.719811 2.24343e-07 0 0.719811 0 1.6077L 0 4.46728C 0 5.35423 0.719811 6.07493 1.60814 6.07493L 28.9458 6.07493C 29.8346 6.07493 30.5535 5.35423 30.5535 4.46728L 30.5535 1.6077C 30.5536 0.719811 29.8346 2.24343e-07 28.9458 2.24343e-07Z" />
        <path id="path4_fill" d="M 14.4464 2.21319C 13.7492 1.50705 12.9343 0.949977 12.0248 0.570212C 11.1131 0.190037 10.1399 -1.06527e-07 9.12939 -1.06527e-07C 8.07251 -1.06527e-07 7.12896 0.195683 6.32926 0.592491C 5.7066 0.89618 5.17908 1.28169 4.76881 1.73066L 4.76881 1.29289C 4.76881 1.05983 4.68517 0.860759 4.53577 0.69485C 4.37363 0.517852 4.17409 0.430277 3.93541 0.430277L 0.833607 0.430277C 0.591221 0.430277 0.389727 0.517954 0.234987 0.69485C 0.080246 0.860759 -5.84063e-15 1.05993 -5.84063e-15 1.29289L -5.84063e-15 21.8243C -5.84063e-15 22.0554 0.0802466 22.2564 0.236837 22.4168C 0.397126 22.5733 0.591222 22.6513 0.83371 22.6513L 3.99695 22.6513C 4.2116 22.6513 4.40364 22.5733 4.57142 22.4168C 4.74302 22.2602 4.82871 22.0608 4.82871 21.8243L 4.82871 14.8166C 5.25193 15.2822 5.8149 15.6379 6.48596 15.8819C 7.33241 16.195 8.20105 16.346 9.0625 16.346C 10.0786 16.346 11.0627 16.1577 11.991 15.778C 12.9254 15.3884 13.7492 14.8333 14.4464 14.12C 15.1437 13.4083 15.7067 12.5328 16.1112 11.5383C 16.5287 10.5323 16.7301 9.39608 16.7301 8.1572C 16.7301 6.92232 16.5287 5.78405 16.1112 4.77833C 15.7066 3.78153 15.1437 2.91359 14.4464 2.21319ZM 11.6071 9.63078C 11.4299 10.0685 11.1803 10.4653 10.8632 10.7968C 10.5501 11.1283 10.177 11.3983 9.75595 11.5808C 9.33458 11.769 8.86101 11.8642 8.35199 11.8642C 7.86002 11.8642 7.3882 11.7635 6.95942 11.5808C 6.52706 11.3984 6.14288 11.1284 5.8186 10.7968C 5.49771 10.4653 5.24248 10.0684 5.06534 9.63078C 4.8882 9.18541 4.79511 8.70297 4.79511 8.18882C 4.79511 7.67466 4.8882 7.19213 5.06534 6.74347C 5.24248 6.30734 5.49771 5.91803 5.8186 5.59401C 6.14278 5.2662 6.52706 5.00542 6.96127 4.80779C 7.3958 4.61242 7.85992 4.5118 8.35189 4.5118C 8.86091 4.5118 9.32903 4.61231 9.75215 4.80779C 10.177 5.00542 10.5501 5.2662 10.8687 5.59032C 11.1802 5.91803 11.4299 6.30734 11.6071 6.74347C 11.7843 7.19213 11.8718 7.67466 11.8718 8.18882C 11.8718 8.70297 11.7842 9.18541 11.6071 9.63078Z" />
        <path id="path5_fill" d="M 15.9043 0.430277L 12.7684 0.430277C 12.5559 0.430277 12.3545 0.517955 12.1888 0.681708C 12.0228 0.856961 11.9351 1.05993 11.9351 1.29289L 11.9351 1.6709C 11.5826 1.24822 11.1036 0.886735 10.5145 0.592491C 9.7239 0.195786 8.79731 -1.06527e-07 7.76467 -1.06527e-07C 6.76913 -1.06527e-07 5.79209 0.190037 4.86765 0.570212C 3.93551 0.949977 3.0983 1.49955 2.3806 2.20744C 1.66474 2.91359 1.08318 3.77784 0.64876 4.77822C 0.218137 5.77656 -2.65904e-06 6.91852 -2.65904e-06 8.15709C -2.65904e-06 9.39587 0.218137 10.5322 0.64876 11.5382C 1.08329 12.5328 1.65735 13.4083 2.36571 14.1199C 3.07427 14.8332 3.90582 15.3883 4.83601 15.7779C 5.7626 16.1576 6.73944 16.3459 7.73488 16.3459C 8.76597 16.3459 9.69996 16.1464 10.4997 15.7553C 11.0907 15.4591 11.5752 15.0978 11.9352 14.6765L 11.9352 15.083C 11.9352 15.3175 12.0229 15.5225 12.1942 15.6752C 12.362 15.8336 12.5559 15.9119 12.7684 15.9119L 15.9043 15.9119C 16.1408 15.9119 16.3386 15.8336 16.4951 15.6714C 16.6536 15.5152 16.7357 15.3176 16.7357 15.0831L 16.7357 1.29289C 16.7357 1.05983 16.6555 0.860759 16.5007 0.69485C 16.3459 0.517852 16.1407 0.430277 15.9043 0.430277ZM 11.6705 9.61189C 11.4933 10.0684 11.2434 10.4577 10.934 10.7818C 10.6171 11.1096 10.2386 11.3705 9.81915 11.568C 9.39983 11.7634 8.92235 11.8642 8.41354 11.8642C 7.92507 11.8642 7.45519 11.7635 7.02457 11.568C 6.5921 11.3705 6.21531 11.1096 5.89658 10.7818C 5.58515 10.4653 5.33537 10.0685 5.15823 9.61189C 4.98314 9.15943 4.89365 8.67874 4.89365 8.18882C 4.89365 7.67466 4.98314 7.19213 5.15823 6.74347C 5.33537 6.30385 5.58505 5.91054 5.89658 5.59032C 6.21531 5.2662 6.59025 5.00542 7.02457 4.80779C 7.45509 4.61242 7.92507 4.5118 8.41354 4.5118C 8.92235 4.5118 9.39983 4.61231 9.81915 4.80779C 10.2386 5.00542 10.6171 5.2662 10.934 5.59032C 11.2434 5.91803 11.4933 6.30734 11.6705 6.74347C 11.8475 7.19213 11.9352 7.67466 11.9352 8.18882C 11.9352 8.67874 11.8474 9.15943 11.6705 9.61189Z" />
        <path id="path6_fill" d="M 12.597 7.76429C 12.161 7.38422 11.6372 7.07509 11.0554 6.84398C 10.4739 6.61298 9.85469 6.43044 9.20624 6.30734L 6.81424 5.8397C 6.20083 5.72615 5.77411 5.57174 5.53347 5.37595C 5.31913 5.20665 5.21268 5.01087 5.21268 4.77063C 5.21268 4.51919 5.36393 4.31037 5.65851 4.12598C 5.98279 3.92865 6.43386 3.82825 6.99323 3.82825C 7.61024 3.82825 8.2143 3.94908 8.77911 4.18737C 9.35143 4.42967 9.8885 4.70533 10.3565 5.01271C 11.0537 5.43765 11.6445 5.3816 12.0715 4.88972L 13.2198 3.584C 13.4548 3.32692 13.5778 3.04757 13.5778 2.76831C 13.5778 2.47551 13.4287 2.20744 13.1416 1.96361C 12.6551 1.54432 11.8851 1.09905 10.8541 0.665076C 9.82326 0.223608 8.52563 -5.01303e-08 6.99323 -5.01303e-08C 5.98834 -5.01303e-08 5.06 0.134288 4.23985 0.394857C 3.41385 0.65943 2.70734 1.02462 2.13492 1.47923C 1.55696 1.94482 1.10219 2.4868 0.790757 3.11101C 0.483331 3.72938 0.322941 4.40729 0.322941 5.11343C 0.322941 6.39687 0.718115 7.44181 1.49172 8.22239C 2.26552 8.98428 3.29815 9.50398 4.56783 9.75736L 7.05313 10.2884C 7.75943 10.428 8.29661 10.5884 8.64513 10.7668C 8.94711 10.9196 9.0925 11.1395 9.0925 11.447C 9.0925 11.7228 8.94722 11.9668 8.64883 12.1884C 8.33575 12.4267 7.84152 12.5442 7.18341 12.5442C 6.46581 12.5442 5.81151 12.3969 5.22234 12.1101C 4.63133 11.8214 4.09456 11.4729 3.62274 11.0611C 3.40111 10.8861 3.15677 10.7558 2.90133 10.6719C 2.60316 10.5861 2.26932 10.6776 1.8835 10.9719L 0.509632 12.0244C 0.110451 12.3559 -0.0573385 12.7564 0.0172576 13.2186C 0.0845584 13.6616 0.464835 14.12 1.17504 14.6399C 1.8089 15.0794 2.62186 15.48 3.60054 15.8226C 4.57913 16.1692 5.72591 16.3462 7.02703 16.3462C 8.07292 16.3462 9.04051 16.214 9.89056 15.9532C 10.7461 15.6811 11.4957 15.3179 12.1092 14.8522C 12.728 14.3847 13.2091 13.8108 13.5446 13.1589C 13.8783 12.5069 14.0422 11.7936 14.0422 11.0466C 14.0422 10.3182 13.9156 9.67544 13.6528 9.13531C 13.3912 8.60072 13.037 8.13882 12.597 7.76429Z" />
        <path id="path7_fill" d="M 11.6384 15.7665C 11.4671 15.4909 11.2267 15.3401 10.943 15.325C 10.6785 15.3102 10.4007 15.4033 10.1323 15.5839C 9.87505 15.7404 9.6381 15.8485 9.41267 15.9079C 9.19073 15.9715 9.00424 15.9938 8.85155 15.9938C 8.72096 15.9938 8.57002 15.979 8.40768 15.9377C 8.26239 15.9079 8.1133 15.8299 7.98085 15.7239C 7.84646 15.6174 7.73868 15.459 7.64353 15.2579C 7.55219 15.0531 7.50369 14.7773 7.50369 14.4291L 7.50369 8.79784L 11.5863 8.79784C 11.8213 8.79784 12.03 8.70831 12.2129 8.52957C 12.3898 8.35073 12.4775 8.15155 12.4775 7.93708L 12.4775 5.54925C 12.4775 5.3162 12.3897 5.10594 12.2073 4.93643C 12.0245 4.77422 11.8213 4.68654 11.5863 4.68654L 7.50369 4.68654L 7.50369 0.854908C 7.50369 0.601526 7.4216 0.389313 7.25 0.234594C 7.07677 0.0763843 6.88462 7.04958e-08 6.67604 7.04958e-08L 3.50488 7.04958e-08C 3.27554 7.04958e-08 3.07231 0.0763843 2.90083 0.234594C 2.73663 0.389313 2.64158 0.601526 2.64158 0.854908L 2.64158 4.68654L 0.831652 4.68654C 0.592759 4.68654 0.393529 4.77422 0.231184 4.95111C 0.082095 5.11702 -1.80614e-06 5.3162 -1.80614e-06 5.54915L -1.80614e-06 7.93718C -1.80614e-06 8.14785 0.082095 8.34703 0.231184 8.52208C 0.389727 8.70831 0.592759 8.79794 0.831652 8.79794L 2.64158 8.79794L 2.64158 15.4909C 2.64158 16.3849 2.80383 17.1542 3.11341 17.7877C 3.42289 18.4136 3.83111 18.9406 4.32513 19.3357C 4.81915 19.7306 5.39722 20.0343 6.04783 20.2241C 6.69659 20.4179 7.36005 20.5109 8.01271 20.5109C 8.91876 20.5109 9.7801 20.3713 10.5911 20.0976C 11.4002 19.8199 12.0805 19.3989 12.6213 18.8363C 12.9791 18.4211 13.0222 17.9627 12.7295 17.5065L 11.6384 15.7665Z" />
        <path id="path8_fill" d="M 15.9022 0.430277L 12.7684 0.430277C 12.5539 0.430277 12.3637 0.517955 12.1922 0.681708C 12.0248 0.856961 11.9406 1.05993 11.9406 1.29289L 11.9406 1.6709C 11.581 1.24822 11.1037 0.886735 10.5145 0.592491C 9.7241 0.195786 8.80131 -1.06527e-07 7.76097 -1.06527e-07C 6.77088 -1.06527e-07 5.79404 0.190037 4.8695 0.570212C 3.93746 0.949977 3.10026 1.49955 2.38266 2.20744C 1.66485 2.91359 1.08329 3.77784 0.650819 4.77822C 0.218141 5.77656 5.51877e-06 6.91852 5.51877e-06 8.15709C 5.51877e-06 9.39587 0.218141 10.5322 0.650819 11.5382C 1.08329 12.5328 1.65745 13.4083 2.36766 14.1199C 3.07242 14.8332 3.90571 15.3883 4.836 15.7779C 5.76434 16.1576 6.73748 16.3459 7.72747 16.3459C 8.76771 16.3459 9.70006 16.1464 10.4977 15.7553C 11.098 15.4591 11.5753 15.0978 11.9406 14.6765L 11.9406 15.083C 11.9406 15.3175 12.0248 15.5225 12.1962 15.6752C 12.3638 15.8336 12.5539 15.9119 12.7684 15.9119L 15.9022 15.9119C 16.1372 15.9119 16.3347 15.8336 16.497 15.6714C 16.6517 15.5152 16.7356 15.3176 16.7356 15.0831L 16.7356 1.29289C 16.7356 1.05983 16.6555 0.860759 16.5006 0.69485C 16.346 0.517852 16.1447 0.430277 15.9022 0.430277ZM 11.6683 9.61189C 11.4932 10.0684 11.2434 10.4577 10.9265 10.7818C 10.6152 11.1096 10.2402 11.3705 9.81349 11.568C 9.39222 11.7634 8.92605 11.8642 8.41323 11.8642C 7.92507 11.8642 7.45878 11.7635 7.02641 11.568C 6.59579 11.3705 6.21542 11.1096 5.89854 10.7818C 5.58731 10.4653 5.33732 10.0685 5.15844 9.61189C 4.98119 9.15943 4.89365 8.67874 4.89365 8.18882C 4.89365 7.67466 4.9813 7.19213 5.15844 6.74347C 5.33732 6.30385 5.58731 5.91054 5.89854 5.59032C 6.21542 5.2662 6.59569 5.00542 7.02641 4.80779C 7.45878 4.61242 7.92507 4.5118 8.41323 4.5118C 8.92605 4.5118 9.39222 4.61231 9.81349 4.80779C 10.2402 5.00542 10.6152 5.2662 10.9265 5.59032C 11.2434 5.91803 11.4932 6.30734 11.6683 6.74347C 11.8474 7.19213 11.9405 7.67466 11.9405 8.18882C 11.9406 8.67874 11.8474 9.15943 11.6683 9.61189Z" />
        <path id="path9_fill" d="M 14.9271 11.3054L 13.1283 9.9473C 12.7854 9.67523 12.4571 9.60069 12.1758 9.7162C 11.9204 9.81886 11.7037 9.97707 11.5173 10.1856C 11.0759 10.7072 10.6115 11.1208 10.1435 11.4096C 9.69029 11.6889 9.09589 11.8305 8.39298 11.8305C 7.87656 11.8305 7.4032 11.7375 6.98007 11.5512C 6.55849 11.3649 6.18942 11.1059 5.87265 10.7667C 5.56111 10.4354 5.31697 10.0387 5.14559 9.60069C 4.97749 9.15379 4.89591 8.68234 4.89591 8.18882C 4.89591 7.66717 4.97749 7.18648 5.14559 6.74347C 5.31132 6.30385 5.55577 5.91054 5.87265 5.59032C 6.18572 5.2662 6.5586 5.00542 6.98542 4.80779C 7.4032 4.61242 7.87656 4.5118 8.39298 4.5118C 9.09589 4.5118 9.6832 4.65708 10.1435 4.93828C 10.6115 5.22698 11.0759 5.63867 11.5212 6.16197C 11.7037 6.37079 11.9204 6.52715 12.1758 6.63157C 12.4627 6.74347 12.7854 6.66883 13.1208 6.40057L 14.918 5.04064C 15.1342 4.89537 15.2964 4.69434 15.3915 4.42607C 15.4883 4.15041 15.4696 3.87085 15.3114 3.5915C 14.657 2.55394 13.7229 1.68969 12.5298 1.01137C 11.3403 0.342805 9.91778 -5.01303e-08 8.32229 -5.01303e-08C 7.16821 -5.01303e-08 6.06458 0.214163 5.05948 0.633455C 4.0437 1.05429 3.15051 1.63384 2.40485 2.36401C 1.65345 3.09212 1.06264 3.96212 0.643111 4.96795C 0.220092 5.96834 -7.02389e-07 7.0524 -7.02389e-07 8.18871C -7.02389e-07 9.32123 0.220092 10.4037 0.643111 11.3983C 1.06264 12.3837 1.65355 13.2554 2.40485 13.9802C 3.15051 14.7066 4.0437 15.2915 5.05948 15.7143C 6.06458 16.1336 7.1681 16.3459 8.32229 16.3459C 9.91778 16.3459 11.3403 16.0049 12.5298 15.3289C 13.7229 14.6582 14.657 13.7921 15.3171 12.745C 15.4696 12.4694 15.4884 12.1954 15.3916 11.9311C 15.2964 11.6815 15.1416 11.4729 14.9271 11.3054Z" />
        <path id="path10_fill" d="M 14.7763 20.703L 9.81339 13.509L 14.0601 7.98205C 14.2822 7.66358 14.34 7.35804 14.2373 7.07119C 14.1628 6.86452 13.9633 6.61473 13.4487 6.61473L 10.0913 6.61473C 9.9031 6.61473 9.71649 6.66134 9.53946 6.74717C 9.34906 6.8292 9.17769 6.99675 9.0472 7.21646L 5.65431 11.9015L 4.8285 11.9015L 4.8285 0.830986C 4.8285 0.596187 4.74846 0.40266 4.59351 0.23675C 4.43877 0.0857269 4.23174 0 4.00066 0L 0.8594 0C 0.630063 0 0.426823 0.0857269 0.259033 0.234799C 0.0893938 0.395165 2.20751e-06 0.58859 2.20751e-06 0.830986L 2.20751e-06 21.2677C 2.20751e-06 21.5022 0.0892911 21.7072 0.259033 21.8598C 0.426823 22.0183 0.62996 22.0966 0.8594 22.0966L 4.00066 22.0966C 4.23174 22.0966 4.43877 22.0183 4.59351 21.8561C 4.74846 21.6999 4.8285 21.5023 4.8285 21.2678L 4.8285 15.8544L 5.7364 15.8544L 9.44236 21.4521C 9.7052 21.8805 10.0708 22.0965 10.5255 22.0965L 14.0418 22.0965C 14.5749 22.0965 14.7968 21.8466 14.8863 21.6343C 15.0129 21.3346 14.9755 21.0328 14.7763 20.703Z" />
        <path id="path11_fill" d="M 16.0091 8.77281e-08L 12.4967 8.77281e-08C 12.2023 8.77281e-08 11.9617 0.100819 11.7958 0.277714C 11.6412 0.441571 11.5366 0.639102 11.4883 0.847618L 8.89876 10.3869L 8.265 10.3869L 5.47782 0.851417C 5.43117 0.642901 5.33808 0.452761 5.21303 0.285209C 5.06394 0.100819 4.84961 8.77281e-08 4.58852 8.77281e-08L 0.951296 8.77281e-08C 0.479779 8.77281e-08 0.183349 0.149073 0.0733042 0.441571C -0.0234858 0.691154 -0.0234874 0.985398 0.0677541 1.28919L 4.51588 14.7123C 4.58853 14.9246 4.70411 15.1034 4.85906 15.2449C 5.02665 15.4033 5.24858 15.4817 5.52241 15.4817L 6.70475 15.4817L 6.82569 15.4817L 7.37016 15.4817L 7.40201 15.4817L 7.24726 15.9157L 6.79794 17.1694C 6.64885 17.5921 6.41582 17.9238 6.11363 18.1455C 5.81001 18.3709 5.47042 18.4824 5.07165 18.4824C 4.74357 18.4824 4.43203 18.4117 4.13016 18.2794C 3.82437 18.1398 3.54849 17.9831 3.30425 17.7988C 3.06947 17.6368 2.80274 17.5492 2.5137 17.536L 2.47651 17.536C 2.16908 17.536 1.90409 17.7039 1.68986 18.0298L 0.573179 19.6487C 0.116561 20.3471 0.369936 20.8035 0.662464 21.0569C 1.21649 21.571 1.90984 21.9714 2.72814 22.2583C 3.53729 22.5435 4.43214 22.6832 5.38298 22.6832C 6.99019 22.6832 8.3322 22.2546 9.36504 21.3885C 10.3904 20.5299 11.1474 19.36 11.6077 17.9012L 16.7681 1.28909C 16.8856 0.933345 16.8856 0.639 16.7793 0.398759C 16.6915 0.216012 16.4864 8.77281e-08 16.0091 8.77281e-08Z" />
    </defs>
</svg>
