<svg width="140" height="25" viewBox="0 0 175 31" xmlns="http://www.w3.org/2000/svg" xmlns:xlink="http://www.w3.org/1999/xlink" xmlns:figma="http://www.figma.com/figma/ns"><title>Logo</title><desc>Created using Figma</desc><g style="mix-blend-mode:normal" figma:type="frame"><g style="mix-blend-mode:normal" figma:type="frame" fill="#09A5DB"><g style="mix-blend-mode:normal" figma:type="frame"><use xlink:href="#a" transform="translate(0 .928)" style="mix-blend-mode:normal" figma:type="vector"/><use xlink:href="#b" transform="translate(0 16.879)" style="mix-blend-mode:normal" figma:type="vector"/><use xlink:href="#c" transform="translate(0 24.853)" style="mix-blend-mode:normal" figma:type="vector"/><use xlink:href="#d" transform="translate(0 8.903)" style="mix-blend-mode:normal" figma:type="vector"/></g><use xlink:href="#a" transform="translate(0 .928)" style="mix-blend-mode:normal" figma:type="vector"/></g><g style="mix-blend-mode:normal" figma:type="frame" fill="#FFF"><use xlink:href="#e" transform="translate(44.265 6.184)" style="mix-blend-mode:normal" figma:type="vector"/><use xlink:href="#f" transform="translate(62.072 6.184)" style="mix-blend-mode:normal" figma:type="vector"/><use xlink:href="#g" transform="translate(96.665 6.184)" style="mix-blend-mode:normal" figma:type="vector"/><use xlink:href="#h" transform="translate(111.338 1.928)" style="mix-blend-mode:normal" figma:type="vector"/><use xlink:href="#i" transform="translate(124.261 6.184)" style="mix-blend-mode:normal" figma:type="vector"/><use xlink:href="#j" transform="translate(142.462 6.184)" style="mix-blend-mode:normal" figma:type="vector"/><use xlink:href="#k" transform="translate(159.313)" style="mix-blend-mode:normal" figma:type="vector"/><use xlink:href="#l" transform="translate(79.805 6.615)" style="mix-blend-mode:normal" figma:type="vector"/></g></g><defs><path id="a" d="M27.338 0H1.608C.72 0 0 .72 0 1.608v2.858c0 .888.72 1.609 1.608 1.609h25.73c.888 0 1.608-.72 1.608-1.609V1.608C28.946.72 28.226 0 27.338 0z"/><path id="b" d="M27.338 0H1.608C.72 0 0 .719 0 1.608v2.86c0 .886.72 1.606 1.608 1.606h25.73c.888 0 1.608-.72 1.608-1.607v-2.86C28.946.72 28.226 0 27.338 0z"/><path id="c" d="M16.081 0H1.608C.72 0 0 .72 0 1.609v2.858c0 .888.72 1.608 1.608 1.608h14.473c.888 0 1.608-.72 1.608-1.608V1.61A1.607 1.607 0 0 0 16.081 0z"/><path id="d" d="M28.946 0H1.608C.72 0 0 .72 0 1.608v2.86c0 .886.72 1.607 1.608 1.607h27.338c.889 0 1.607-.72 1.607-1.608v-2.86C30.553.72 29.835 0 28.947 0z"/><path id="e" d="M14.446 2.213A7.406 7.406 0 0 0 12.025.57 7.477 7.477 0 0 0 9.129 0c-1.056 0-2 .196-2.8.592-.622.304-1.15.69-1.56 1.139v-.438a.87.87 0 0 0-.233-.598.78.78 0 0 0-.6-.265H.833a.76.76 0 0 0-.599.265.848.848 0 0 0-.235.598v20.531c0 .231.08.432.237.593.16.156.354.234.597.234h3.163a.82.82 0 0 0 .574-.234.77.77 0 0 0 .258-.593v-7.007c.423.465.986.82 1.657 1.065a7.408 7.408 0 0 0 2.577.464c1.016 0 2-.188 2.928-.568a7.372 7.372 0 0 0 2.455-1.658 7.949 7.949 0 0 0 1.665-2.582c.418-1.006.62-2.142.62-3.38 0-1.236-.202-2.374-.62-3.38-.404-.996-.967-1.864-1.665-2.565zm-2.839 7.418a3.675 3.675 0 0 1-.744 1.166 3.37 3.37 0 0 1-1.107.784 3.424 3.424 0 0 1-1.404.283 3.502 3.502 0 0 1-2.533-1.067 3.635 3.635 0 0 1-.754-1.166 3.875 3.875 0 0 1-.27-1.442c0-.514.093-.997.27-1.446.177-.436.433-.825.754-1.149a3.812 3.812 0 0 1 1.142-.786 3.356 3.356 0 0 1 1.39-.296c.51 0 .978.1 1.401.296a3.79 3.79 0 0 1 1.117.782 3.7 3.7 0 0 1 .738 1.153c.177.45.265.932.265 1.446 0 .514-.088.996-.265 1.442z"/><path id="f" d="M15.904.43h-3.136a.82.82 0 0 0-.58.252.865.865 0 0 0-.253.61v.379c-.352-.423-.831-.784-1.42-1.079C9.723.196 8.796 0 7.764 0c-.996 0-1.973.19-2.897.57-.932.38-1.77.93-2.487 1.637A8.117 8.117 0 0 0 .648 4.778C.219 5.777 0 6.918 0 8.158c0 1.238.218 2.374.649 3.38.434.995 1.008 1.87 1.717 2.582a7.595 7.595 0 0 0 2.47 1.658 7.61 7.61 0 0 0 2.899.568c1.031 0 1.965-.2 2.765-.59.59-.297 1.075-.658 1.435-1.08v.407c0 .235.088.44.26.592a.817.817 0 0 0 .573.237h3.136a.786.786 0 0 0 .591-.24.797.797 0 0 0 .24-.589V1.293a.848.848 0 0 0-.234-.598.765.765 0 0 0-.597-.265zm-4.233 9.182a3.525 3.525 0 0 1-.737 1.17 3.777 3.777 0 0 1-1.115.786c-.42.195-.897.296-1.405.296-.489 0-.959-.1-1.39-.296a3.697 3.697 0 0 1-1.127-.786 3.42 3.42 0 0 1-.739-1.17 3.935 3.935 0 0 1-.264-1.423c0-.514.09-.997.264-1.446.177-.44.427-.832.739-1.153a3.73 3.73 0 0 1 1.128-.782c.43-.196.9-.296 1.389-.296.508 0 .986.1 1.405.296.42.197.798.458 1.115.782.31.328.56.717.737 1.153.177.45.264.932.264 1.446 0 .49-.088.97-.264 1.423z"/><path id="g" d="M12.597 7.764a5.336 5.336 0 0 0-1.542-.92c-.581-.231-1.2-.414-1.849-.537L6.814 5.84c-.613-.114-1.04-.268-1.28-.464-.215-.17-.321-.365-.321-.605 0-.252.15-.46.446-.645.324-.197.775-.298 1.334-.298a4.57 4.57 0 0 1 1.786.36c.572.242 1.11.517 1.578.825.697.425 1.288.369 1.715-.123l1.148-1.306c.235-.257.358-.536.358-.816 0-.292-.15-.56-.436-.804-.487-.42-1.257-.865-2.288-1.299C9.824.224 8.526 0 6.994 0 5.987 0 5.06.134 4.24.395c-.826.264-1.533.63-2.105 1.084-.578.466-1.033 1.008-1.344 1.632a4.474 4.474 0 0 0-.468 2.002c0 1.284.395 2.329 1.169 3.11.774.761 1.806 1.281 3.076 1.534l2.485.531c.706.14 1.244.3 1.592.479.302.153.447.373.447.68 0 .276-.145.52-.443.741-.313.239-.807.356-1.466.356a4.425 4.425 0 0 1-1.96-.434 7.278 7.278 0 0 1-1.6-1.049 2.345 2.345 0 0 0-.722-.39c-.298-.085-.632.007-1.017.3L.51 12.025c-.4.332-.567.732-.493 1.195.068.443.448.901 1.158 1.42.634.44 1.447.841 2.426 1.184.978.346 2.125.523 3.426.523 1.046 0 2.014-.132 2.864-.393.855-.272 1.605-.635 2.218-1.1a4.96 4.96 0 0 0 1.436-1.694 4.594 4.594 0 0 0 .497-2.112c0-.729-.126-1.372-.39-1.912a4.22 4.22 0 0 0-1.055-1.37z"/><path id="h" d="M11.638 15.767c-.17-.276-.411-.427-.695-.442-.264-.015-.542.078-.81.259a2.753 2.753 0 0 1-.72.324 2.039 2.039 0 0 1-.561.086c-.131 0-.282-.015-.444-.056a1.04 1.04 0 0 1-.427-.214c-.135-.107-.242-.265-.337-.466-.092-.205-.14-.48-.14-.829V8.798h4.082c.235 0 .444-.09.627-.268.177-.18.264-.378.264-.593V5.55a.812.812 0 0 0-.27-.613.91.91 0 0 0-.62-.25H7.503V.856c0-.253-.082-.466-.254-.62A.831.831 0 0 0 6.676 0H3.505A.863.863 0 0 0 2.9.235a.83.83 0 0 0-.26.62v3.832H.832a.78.78 0 0 0-.6.264A.87.87 0 0 0 0 5.55v2.388c0 .21.082.41.231.585a.756.756 0 0 0 .6.276h1.81v6.693c0 .894.163 1.663.472 2.297.31.626.718 1.153 1.212 1.548a4.975 4.975 0 0 0 1.723.888 6.87 6.87 0 0 0 1.965.287c.906 0 1.767-.14 2.578-.413.81-.278 1.49-.7 2.03-1.262.358-.415.401-.873.108-1.33l-1.09-1.74z"/><path id="i" d="M15.902.43h-3.134a.818.818 0 0 0-.576.252.857.857 0 0 0-.251.61v.379c-.36-.423-.837-.784-1.427-1.079C9.724.196 8.802 0 7.761 0c-.99 0-1.967.19-2.891.57-.933.38-1.77.93-2.487 1.637A8.051 8.051 0 0 0 .651 4.778C.218 5.777 0 6.918 0 8.158c0 1.238.218 2.374.65 3.38.433.995 1.007 1.87 1.718 2.582a7.545 7.545 0 0 0 2.468 1.658 7.6 7.6 0 0 0 2.891.568c1.04 0 1.973-.2 2.77-.59.601-.297 1.078-.658 1.444-1.08v.407c0 .235.084.44.255.592a.808.808 0 0 0 .572.237h3.134a.806.806 0 0 0 .595-.24.81.81 0 0 0 .239-.589V1.293A.847.847 0 0 0 16.5.695a.76.76 0 0 0-.599-.265zm-4.234 9.182a3.39 3.39 0 0 1-.741 1.17 3.61 3.61 0 0 1-1.114.786 3.287 3.287 0 0 1-1.4.296c-.488 0-.954-.1-1.387-.296a3.696 3.696 0 0 1-1.127-.786 3.453 3.453 0 0 1-.74-1.17 3.89 3.89 0 0 1-.265-1.423c0-.514.087-.997.264-1.446a3.59 3.59 0 0 1 .74-1.153 3.752 3.752 0 0 1 1.128-.782 3.344 3.344 0 0 1 1.387-.296c.513 0 .98.1 1.4.296.427.197.802.458 1.114.782.316.328.566.717.741 1.153.18.45.273.932.273 1.446 0 .49-.094.97-.273 1.423z"/><path id="j" d="M14.927 11.305l-1.799-1.358c-.343-.272-.67-.346-.952-.23a1.75 1.75 0 0 0-.659.469c-.441.521-.905.935-1.373 1.224-.454.279-1.048.42-1.751.42-.516 0-.99-.092-1.413-.279a3.347 3.347 0 0 1-1.107-.784A3.621 3.621 0 0 1 5.146 9.6a3.978 3.978 0 0 1-.25-1.412c0-.522.081-1.003.25-1.446.165-.44.41-.832.727-1.153a3.683 3.683 0 0 1 1.112-.782 3.298 3.298 0 0 1 1.408-.296c.703 0 1.29.145 1.75.426.468.289.933.7 1.378 1.224.183.209.4.365.655.47.287.111.61.037.945-.231l1.797-1.36c.216-.146.378-.347.474-.615a.971.971 0 0 0-.08-.835c-.655-1.037-1.59-1.901-2.782-2.58C11.34.343 9.918 0 8.322 0A8.45 8.45 0 0 0 5.06.633a8.306 8.306 0 0 0-2.654 1.731A7.733 7.733 0 0 0 .643 4.968 8.227 8.227 0 0 0 0 8.188c0 1.133.22 2.216.643 3.21a7.815 7.815 0 0 0 1.762 2.582 8.448 8.448 0 0 0 5.917 2.366c1.596 0 3.018-.341 4.208-1.017 1.193-.67 2.127-1.537 2.787-2.584a.946.946 0 0 0 .075-.814 1.426 1.426 0 0 0-.465-.626z"/><path id="k" d="M14.776 20.703l-4.963-7.194 4.247-5.527c.222-.318.28-.624.177-.91-.074-.207-.274-.457-.788-.457H10.09c-.188 0-.375.046-.552.132-.19.082-.361.25-.492.47l-3.393 4.685H4.83V.83a.835.835 0 0 0-.235-.594A.837.837 0 0 0 4 0H.859a.89.89 0 0 0-.6.235A.783.783 0 0 0 0 .83v20.437c0 .234.09.44.259.592a.85.85 0 0 0 .6.237h3.142a.796.796 0 0 0 .593-.24.806.806 0 0 0 .234-.59v-5.413h.908l3.706 5.598c.263.428.629.644 1.083.644h3.517c.533 0 .755-.25.844-.462.127-.3.09-.601-.11-.931z"/><path id="l" d="M16.01 0h-3.513c-.295 0-.535.1-.701.278a1.24 1.24 0 0 0-.308.57l-2.59 9.539h-.633L5.478.85a1.49 1.49 0 0 0-.265-.566A.773.773 0 0 0 4.589 0H.95C.48 0 .183.15.073.442c-.096.25-.096.543-.005.847l4.448 13.423c.073.213.188.391.343.533.168.158.39.237.663.237h1.88l-.155.434-.45 1.253c-.148.423-.381.755-.683.976a1.685 1.685 0 0 1-1.042.337c-.328 0-.64-.07-.942-.203a4.384 4.384 0 0 1-.826-.48 1.49 1.49 0 0 0-.79-.263h-.037c-.308 0-.573.168-.787.494L.573 19.649c-.456.698-.203 1.154.09 1.408.553.514 1.247.914 2.065 1.201.81.286 1.704.425 2.655.425 1.607 0 2.95-.428 3.982-1.294 1.025-.86 1.782-2.029 2.243-3.488l5.16-16.612c.118-.356.118-.65.011-.89C16.692.216 16.486 0 16.01 0z"/></defs></svg>