<svg xmlns="http://www.w3.org/2000/svg" width="1" height="213"><path d="M0 0h1v1H0zm0 4h1v1H0zm0 4h1v1H0zm0 4h1v1H0zm0 4h1v1H0zm0 4h1v1H0zm0 4h1v1H0zm0 4h1v1H0zm0 4h1v1H0zm0 4h1v1H0zm0 4h1v1H0zm0 4h1v1H0zm0 4h1v1H0zm0 4h1v1H0zm0 4h1v1H0zm0 4h1v1H0zm0 4h1v1H0zm0 4h1v1H0zm0 4h1v1H0zm0 4h1v1H0zm0 4h1v1H0zm0 4h1v1H0zm0 4h1v1H0zm0 4h1v1H0zm0 4h1v1H0zm0 4h1v1H0zm0 4h1v1H0zm0 4h1v1H0zm0 4h1v1H0zm0 4h1v1H0zm0 4h1v1H0zm0 4h1v1H0zm0 4h1v1H0zm0 4h1v1H0zm0 4h1v1H0zm0 4h1v1H0zm0 4h1v1H0zm0 4h1v1H0zm0 4h1v1H0zm0 4h1v1H0zm0 4h1v1H0zm0 4h1v1H0zm0 4h1v1H0zm0 4h1v1H0zm0 4h1v1H0zm0 4h1v1H0zm0 4h1v1H0zm0 4h1v1H0zm0 4h1v1H0zm0 4h1v1H0zm0 4h1v1H0zm0 4h1v1H0zm0 4h1v1H0zm0 4h1v1H0z" fill-rule="evenodd"/></svg>