<svg width="48" height="48" viewBox="0 0 48 48" xmlns="http://www.w3.org/2000/svg" xmlns:xlink="http://www.w3.org/1999/xlink" xmlns:figma="http://www.figma.com/figma/ns">
    <title>
        nodejs
    </title>
    <desc>
        Created using Figma
    </desc>
    <g transform="translate(-300 -115)" figma:type="canvas">
        <mask id="a">
            <path d="M300 115h48v48h-48v-48z" fill="#FFF"/>
        </mask>
        <g style="mix-blend-mode:normal" mask="url(#a)" figma:type="frame">
            <use xlink:href="#b" transform="translate(302.701 115)" fill="#3BB75E" style="mix-blend-mode:normal" figma:type="vector"/>
        </g>
    </g>
    <defs>
        <path id="b" d="M21.299 48a3.867 3.867 0 0 1-1.852-.485l-5.865-3.484c-.882-.485-.441-.661-.176-.75 1.19-.396 1.41-.484 2.645-1.19.133-.088.31-.044.441.044l4.498 2.69c.177.088.397.088.53 0l17.594-10.187c.177-.088.265-.264.265-.485V13.825c0-.221-.088-.397-.265-.486L21.52 3.197c-.177-.088-.397-.088-.53 0L3.395 13.34c-.176.089-.264.31-.264.486v20.328c0 .177.088.397.265.486l4.806 2.778c2.602 1.322 4.233-.22 4.233-1.764V15.588c0-.264.22-.529.53-.529h2.249c.264 0 .529.22.529.53v20.064c0 3.483-1.896 5.512-5.204 5.512-1.014 0-1.808 0-4.057-1.102l-4.63-2.646A3.722 3.722 0 0 1 0 34.197V13.87c0-1.323.706-2.558 1.852-3.22L19.447.463c1.102-.617 2.602-.617 3.704 0l17.595 10.186a3.722 3.722 0 0 1 1.852 3.22v20.328a3.722 3.722 0 0 1-1.852 3.22L23.151 47.603A4.513 4.513 0 0 1 21.3 48zm5.424-13.979c-7.717 0-9.304-3.528-9.304-6.526 0-.265.22-.53.529-.53h2.293c.264 0 .485.177.485.442.352 2.337 1.367 3.483 6.041 3.483 3.704 0 5.292-.838 5.292-2.822 0-1.146-.441-1.984-6.218-2.558-4.807-.485-7.805-1.543-7.805-5.38 0-3.571 2.998-5.688 8.026-5.688 5.644 0 8.422 1.94 8.775 6.174a.711.711 0 0 1-.132.396c-.089.089-.22.177-.353.177h-2.293a.517.517 0 0 1-.485-.397c-.53-2.425-1.897-3.22-5.512-3.22-4.057 0-4.543 1.412-4.543 2.47 0 1.28.574 1.676 6.042 2.381 5.424.706 7.981 1.72 7.981 5.513-.044 3.88-3.219 6.085-8.819 6.085z"/>
    </defs>
</svg>
