<svg width="48" height="49" viewBox="0 0 48 49" xmlns="http://www.w3.org/2000/svg" xmlns:xlink="http://www.w3.org/1999/xlink" xmlns:figma="http://www.figma.com/figma/ns">
    <title>
        woocommerce
    </title>
    <desc>
        Created using Figma
    </desc>
    <g transform="translate(-119 -116)" figma:type="canvas">
        <mask id="a">
            <path d="M119 116.5h48v48h-48v-48z" fill="#FFF"/>
        </mask>
        <g style="mix-blend-mode:normal" figma:type="frame" mask="url(#a)">
            <use xlink:href="#b" transform="translate(124 130.5)" fill="#3BB75E" style="mix-blend-mode:normal" figma:type="vector"/>
            <use xlink:href="#c" transform="translate(151.88 132.176)" fill="#3BB75E" style="mix-blend-mode:normal" figma:type="vector"/>
            <use xlink:href="#d" transform="translate(141.22 132.176)" fill="#3BB75E" style="mix-blend-mode:normal" figma:type="vector"/>
            <g style="mix-blend-mode:normal" figma:type="vector">
                <mask id="f">
                    <use xlink:href="#e" fill="#fff" transform="translate(119 127.5)"/>
                </mask>
                <g mask="url(#f)">
                    <use xlink:href="#g" transform="translate(119 127.5)" fill="#3BB75E" style="mix-blend-mode:normal"/>
                </g>
            </g>
        </g>
    </g>
    <defs>
        <path id="b" d="M.286 1.135C.524.84.881.685 1.357.655c.867-.062 1.36.31 1.48 1.114.527 3.233 1.105 5.972 1.717 8.215l3.723-6.451c.34-.588.765-.898 1.275-.929.748-.046 1.207.387 1.394 1.3.425 2.058.97 3.806 1.616 5.291.442-3.93 1.19-6.76 2.244-8.51.255-.432.629-.649 1.122-.68.39-.03.748.078 1.071.31.323.232.493.526.527.881.017.279-.034.511-.17.743-.663 1.114-1.207 2.986-1.65 5.585-.424 2.522-.577 4.487-.475 5.895.034.386-.034.727-.204 1.02-.204.341-.51.527-.901.558-.442.03-.901-.155-1.343-.573-1.582-1.47-2.84-3.666-3.758-6.59a281.19 281.19 0 0 0-2.448 4.455c-1.003 1.748-1.853 2.646-2.567 2.692-.46.031-.85-.325-1.19-1.067C1.952 11.887 1.017 7.973.014 2.17c-.05-.402.034-.758.272-1.036z"/>
        <path id="c" d="M8.96 1.887C8.348.913 7.447.325 6.24.093A4.887 4.887 0 0 0 5.322 0C3.689 0 2.363.774 1.326 2.32A7.652 7.652 0 0 0 0 6.685c0 1.19.272 2.212.816 3.063.612.975 1.513 1.562 2.72 1.794.323.062.63.093.918.093 1.65 0 2.976-.773 3.996-2.32a7.736 7.736 0 0 0 1.326-4.379c0-1.206-.272-2.212-.816-3.048zM6.818 6.173c-.238 1.021-.663 1.78-1.292 2.29-.493.402-.953.572-1.378.495-.408-.078-.748-.402-1.003-1.006a3.62 3.62 0 0 1-.306-1.408c0-.386.034-.773.12-1.13a4.793 4.793 0 0 1 .9-1.84c.561-.758 1.157-1.068 1.769-.96.408.078.748.403 1.003 1.006.204.48.306.96.306 1.408 0 .402-.051.79-.12 1.145z"/>
        <path id="d" d="M8.96 1.887C8.348.913 7.43.325 6.24.093A4.887 4.887 0 0 0 5.322 0C3.689 0 2.363.774 1.326 2.32A7.652 7.652 0 0 0 0 6.685c0 1.19.272 2.212.816 3.063.612.975 1.513 1.562 2.72 1.794.323.062.63.093.918.093 1.65 0 2.976-.773 3.996-2.32a7.736 7.736 0 0 0 1.326-4.379c0-1.206-.272-2.212-.816-3.048zM6.818 6.173c-.238 1.021-.663 1.78-1.292 2.29-.493.402-.953.572-1.378.495-.408-.078-.748-.402-1.003-1.006a3.62 3.62 0 0 1-.306-1.408c0-.386.034-.773.12-1.13a4.793 4.793 0 0 1 .9-1.84c.561-.758 1.157-1.068 1.769-.96.408.078.748.403 1.003 1.006.204.48.306.96.306 1.408a4.9 4.9 0 0 1-.12 1.145z"/>
        <path id="e" fill-rule="evenodd" d="M4.455 0h39.07C45.999 0 48 1.821 48 4.071v13.572c0 2.25-2.002 4.071-4.474 4.071H29.514L31.438 26l-8.458-4.286H4.474C2.002 21.714 0 19.893 0 17.643V4.07C-.02 1.84 1.982 0 4.455 0z"/>
        <path id="g" d="M29.514 21.714v-2h-3.09l1.266 2.82 1.824-.82zM31.438 26l-.904 1.784 5.043 2.556-2.315-5.159-1.825.819zm-8.458-4.286l.904-1.784-.427-.216h-.477v2zM0 4.071h2v-.018l-2 .018zM4.455 2h39.07v-4H4.456v4zm39.07 0C45.076 2 46 3.1 46 4.071h4C50 .543 46.921-2 43.526-2v4zM46 4.071v13.572h4V4.07h-4zm0 13.572c0 .972-.925 2.071-2.474 2.071v4c3.395 0 6.474-2.543 6.474-6.071h-4zm-2.474 2.071H29.514v4h14.012v-4zm-15.836 2.82l1.923 4.285 3.65-1.638-1.924-4.286-3.65 1.638zm4.652 1.682l-8.458-4.286-1.808 3.568 8.457 4.286 1.809-3.568zm-9.362-4.502H4.474v4H22.98v-4zm-18.506 0c-1.55 0-2.474-1.1-2.474-2.071h-4c0 3.528 3.079 6.071 6.474 6.071v-4zM2 17.643V4.07h-4v13.572h4zm0-13.59C1.992 3.114 2.906 2 4.455 2v-4C1.059-2-2.031.566-2 4.089l4-.035z"/>
    </defs>
</svg>
