<svg width="890" height="850" viewBox="0 0 890 850" version="1.1" xmlns="http://www.w3.org/2000/svg" xmlns:xlink="http://www.w3.org/1999/xlink" xmlns:figma="http://www.figma.com/figma/ns">
<title>plans</title>
<desc>Created using Figma</desc>
<g id="Canvas" transform="translate(1130 -1169)" figma:type="canvas">
<mask id="mask0_alpha" mask-type="alpha">
<path d="M -1130 1169L -240 1169L -240 2019L -1130 2019L -1130 1169Z" fill="#FFFFFF"/>
</mask>
<g id="plans" style="mix-blend-mode:normal;" mask="url(#mask0_alpha)" figma:type="frame">
<g id="browser frame" style="mix-blend-mode:normal;" figma:type="frame">
<g id="Rectangle 5" style="mix-blend-mode:normal;" figma:type="rounded-rectangle">
<mask id="mask1_outline_ins">
<use xlink:href="#path0_fill" fill="white" transform="translate(-1129 1192)"/>
</mask>
<g mask="url(#mask1_outline_ins)">
<use xlink:href="#path1_stroke_2x" transform="translate(-1129 1192)" fill="#3BB75E" style="mix-blend-mode:normal;"/>
</g>
</g>
<g id="Line" style="mix-blend-mode:normal;" figma:type="line">
<use xlink:href="#path2_stroke" transform="translate(-1129 1261)" fill="#3BB75E" style="mix-blend-mode:normal;"/>
</g>
<g id="buttons" style="mix-blend-mode:normal;" figma:type="frame">
<g id="Ellipse" style="mix-blend-mode:normal;" figma:type="ellipse">
<use xlink:href="#path3_fill" transform="translate(-1110 1217)" fill="#3BB75E" style="mix-blend-mode:normal;"/>
</g>
<g id="Ellipse" style="mix-blend-mode:normal;" figma:type="ellipse">
<use xlink:href="#path3_fill" transform="translate(-1080 1217)" fill="#3BB75E" style="mix-blend-mode:normal;"/>
</g>
<g id="Ellipse" style="mix-blend-mode:normal;" figma:type="ellipse">
<use xlink:href="#path3_fill" transform="translate(-1050 1217)" fill="#3BB75E" style="mix-blend-mode:normal;"/>
</g>
</g>
</g>
<g id="Rectangle 6" style="mix-blend-mode:normal;" figma:type="rounded-rectangle">
<use xlink:href="#path4_fill" transform="translate(-1051 1336)" fill="#3BB75E" style="mix-blend-mode:normal;"/>
</g>
<g id="Rectangle 6" style="mix-blend-mode:normal;" figma:type="rounded-rectangle">
<use xlink:href="#path5_fill" transform="translate(-1051 1366)" fill="#3BB75E" style="mix-blend-mode:normal;"/>
</g>
<g id="Rectangle 6" style="mix-blend-mode:normal;" figma:type="rounded-rectangle">
<use xlink:href="#path6_fill" transform="translate(-1051 1396)" fill="#3BB75E" style="mix-blend-mode:normal;"/>
</g>
<g id="Vector" style="mix-blend-mode:normal;" figma:type="vector">
<use xlink:href="#path7_fill" transform="translate(-1051 1472)" fill="#3BB75E" style="mix-blend-mode:normal;"/>
<use xlink:href="#path8_fill" transform="translate(-1051 1472)" fill="#3BB75E" style="mix-blend-mode:normal;"/>
<use xlink:href="#path9_fill" transform="translate(-1051 1472)" fill="#3BB75E" style="mix-blend-mode:normal;"/>
<use xlink:href="#path10_fill" transform="translate(-1051 1472)" fill="#3BB75E" style="mix-blend-mode:normal;"/>
<use xlink:href="#path11_fill" transform="translate(-1051 1472)" fill="#3BB75E" style="mix-blend-mode:normal;"/>
<use xlink:href="#path12_fill" transform="translate(-1051 1472)" fill="#3BB75E" style="mix-blend-mode:normal;"/>
<use xlink:href="#path13_fill" transform="translate(-1051 1472)" fill="#3BB75E" style="mix-blend-mode:normal;"/>
<use xlink:href="#path14_fill" transform="translate(-1051 1472)" fill="#3BB75E" style="mix-blend-mode:normal;"/>
<use xlink:href="#path15_fill" transform="translate(-1051 1472)" fill="#3BB75E" style="mix-blend-mode:normal;"/>
<use xlink:href="#path16_fill" transform="translate(-1051 1472)" fill="#3BB75E" style="mix-blend-mode:normal;"/>
<use xlink:href="#path17_fill" transform="translate(-1051 1472)" fill="#3BB75E" style="mix-blend-mode:normal;"/>
<use xlink:href="#path18_fill" transform="translate(-1051 1472)" fill="#3BB75E" style="mix-blend-mode:normal;"/>
<use xlink:href="#path19_fill" transform="translate(-1051 1472)" fill="#3BB75E" style="mix-blend-mode:normal;"/>
<use xlink:href="#path20_fill" transform="translate(-1051 1472)" fill="#3BB75E" style="mix-blend-mode:normal;"/>
<use xlink:href="#path21_fill" transform="translate(-1051 1472)" fill="#3BB75E" style="mix-blend-mode:normal;"/>
<use xlink:href="#path22_fill" transform="translate(-1051 1472)" fill="#3BB75E" style="mix-blend-mode:normal;"/>
<use xlink:href="#path23_fill" transform="translate(-1051 1472)" fill="#3BB75E" style="mix-blend-mode:normal;"/>
<use xlink:href="#path24_fill" transform="translate(-1051 1472)" fill="#3BB75E" style="mix-blend-mode:normal;"/>
<use xlink:href="#path25_fill" transform="translate(-1051 1472)" fill="#3BB75E" style="mix-blend-mode:normal;"/>
<use xlink:href="#path26_fill" transform="translate(-1051 1472)" fill="#3BB75E" style="mix-blend-mode:normal;"/>
<use xlink:href="#path27_fill" transform="translate(-1051 1472)" fill="#3BB75E" style="mix-blend-mode:normal;"/>
<use xlink:href="#path28_fill" transform="translate(-1051 1472)" fill="#3BB75E" style="mix-blend-mode:normal;"/>
<use xlink:href="#path29_fill" transform="translate(-1051 1472)" fill="#3BB75E" style="mix-blend-mode:normal;"/>
<use xlink:href="#path30_fill" transform="translate(-1051 1472)" fill="#3BB75E" style="mix-blend-mode:normal;"/>
<use xlink:href="#path31_fill" transform="translate(-1051 1472)" fill="#3BB75E" style="mix-blend-mode:normal;"/>
<use xlink:href="#path32_fill" transform="translate(-1051 1472)" fill="#3BB75E" style="mix-blend-mode:normal;"/>
<use xlink:href="#path33_fill" transform="translate(-1051 1472)" fill="#3BB75E" style="mix-blend-mode:normal;"/>
<use xlink:href="#path34_fill" transform="translate(-1051 1472)" fill="#3BB75E" style="mix-blend-mode:normal;"/>
<use xlink:href="#path35_fill" transform="translate(-1051 1472)" fill="#3BB75E" style="mix-blend-mode:normal;"/>
<use xlink:href="#path36_fill" transform="translate(-1051 1472)" fill="#3BB75E" style="mix-blend-mode:normal;"/>
<use xlink:href="#path37_fill" transform="translate(-1051 1472)" fill="#3BB75E" style="mix-blend-mode:normal;"/>
<use xlink:href="#path38_fill" transform="translate(-1051 1472)" fill="#3BB75E" style="mix-blend-mode:normal;"/>
<use xlink:href="#path39_fill" transform="translate(-1051 1472)" fill="#3BB75E" style="mix-blend-mode:normal;"/>
<use xlink:href="#path40_fill" transform="translate(-1051 1472)" fill="#3BB75E" style="mix-blend-mode:normal;"/>
<use xlink:href="#path41_fill" transform="translate(-1051 1472)" fill="#3BB75E" style="mix-blend-mode:normal;"/>
<use xlink:href="#path42_fill" transform="translate(-1051 1472)" fill="#3BB75E" style="mix-blend-mode:normal;"/>
<use xlink:href="#path43_fill" transform="translate(-1051 1472)" fill="#3BB75E" style="mix-blend-mode:normal;"/>
<use xlink:href="#path44_fill" transform="translate(-1051 1472)" fill="#3BB75E" style="mix-blend-mode:normal;"/>
<use xlink:href="#path45_fill" transform="translate(-1051 1472)" fill="#3BB75E" style="mix-blend-mode:normal;"/>
<use xlink:href="#path46_fill" transform="translate(-1051 1472)" fill="#3BB75E" style="mix-blend-mode:normal;"/>
<use xlink:href="#path47_fill" transform="translate(-1051 1472)" fill="#3BB75E" style="mix-blend-mode:normal;"/>
<use xlink:href="#path48_fill" transform="translate(-1051 1472)" fill="#3BB75E" style="mix-blend-mode:normal;"/>
<use xlink:href="#path49_fill" transform="translate(-1051 1472)" fill="#3BB75E" style="mix-blend-mode:normal;"/>
<use xlink:href="#path50_fill" transform="translate(-1051 1472)" fill="#3BB75E" style="mix-blend-mode:normal;"/>
<use xlink:href="#path51_fill" transform="translate(-1051 1472)" fill="#3BB75E" style="mix-blend-mode:normal;"/>
<use xlink:href="#path52_fill" transform="translate(-1051 1472)" fill="#3BB75E" style="mix-blend-mode:normal;"/>
<use xlink:href="#path53_fill" transform="translate(-1051 1472)" fill="#3BB75E" style="mix-blend-mode:normal;"/>
<use xlink:href="#path54_fill" transform="translate(-1051 1472)" fill="#3BB75E" style="mix-blend-mode:normal;"/>
<use xlink:href="#path55_fill" transform="translate(-1051 1472)" fill="#3BB75E" style="mix-blend-mode:normal;"/>
<use xlink:href="#path56_fill" transform="translate(-1051 1472)" fill="#3BB75E" style="mix-blend-mode:normal;"/>
<use xlink:href="#path57_fill" transform="translate(-1051 1472)" fill="#3BB75E" style="mix-blend-mode:normal;"/>
<use xlink:href="#path58_fill" transform="translate(-1051 1472)" fill="#3BB75E" style="mix-blend-mode:normal;"/>
<use xlink:href="#path59_fill" transform="translate(-1051 1472)" fill="#3BB75E" style="mix-blend-mode:normal;"/>
<use xlink:href="#path60_fill" transform="translate(-1051 1472)" fill="#3BB75E" style="mix-blend-mode:normal;"/>
<use xlink:href="#path61_fill" transform="translate(-1051 1472)" fill="#3BB75E" style="mix-blend-mode:normal;"/>
<use xlink:href="#path62_fill" transform="translate(-1051 1472)" fill="#3BB75E" style="mix-blend-mode:normal;"/>
<use xlink:href="#path63_fill" transform="translate(-1051 1472)" fill="#3BB75E" style="mix-blend-mode:normal;"/>
<use xlink:href="#path64_fill" transform="translate(-1051 1472)" fill="#3BB75E" style="mix-blend-mode:normal;"/>
<use xlink:href="#path65_fill" transform="translate(-1051 1472)" fill="#3BB75E" style="mix-blend-mode:normal;"/>
<use xlink:href="#path66_fill" transform="translate(-1051 1472)" fill="#3BB75E" style="mix-blend-mode:normal;"/>
<use xlink:href="#path67_fill" transform="translate(-1051 1472)" fill="#3BB75E" style="mix-blend-mode:normal;"/>
<use xlink:href="#path68_fill" transform="translate(-1051 1472)" fill="#3BB75E" style="mix-blend-mode:normal;"/>
<use xlink:href="#path69_fill" transform="translate(-1051 1472)" fill="#3BB75E" style="mix-blend-mode:normal;"/>
<use xlink:href="#path70_fill" transform="translate(-1051 1472)" fill="#3BB75E" style="mix-blend-mode:normal;"/>
<use xlink:href="#path71_fill" transform="translate(-1051 1472)" fill="#3BB75E" style="mix-blend-mode:normal;"/>
<use xlink:href="#path72_fill" transform="translate(-1051 1472)" fill="#3BB75E" style="mix-blend-mode:normal;"/>
<use xlink:href="#path73_fill" transform="translate(-1051 1472)" fill="#3BB75E" style="mix-blend-mode:normal;"/>
<use xlink:href="#path74_fill" transform="translate(-1051 1472)" fill="#3BB75E" style="mix-blend-mode:normal;"/>
<use xlink:href="#path75_fill" transform="translate(-1051 1472)" fill="#3BB75E" style="mix-blend-mode:normal;"/>
<use xlink:href="#path76_fill" transform="translate(-1051 1472)" fill="#3BB75E" style="mix-blend-mode:normal;"/>
<use xlink:href="#path77_fill" transform="translate(-1051 1472)" fill="#3BB75E" style="mix-blend-mode:normal;"/>
<use xlink:href="#path78_fill" transform="translate(-1051 1472)" fill="#3BB75E" style="mix-blend-mode:normal;"/>
<use xlink:href="#path79_fill" transform="translate(-1051 1472)" fill="#3BB75E" style="mix-blend-mode:normal;"/>
<use xlink:href="#path80_fill" transform="translate(-1051 1472)" fill="#3BB75E" style="mix-blend-mode:normal;"/>
<use xlink:href="#path81_fill" transform="translate(-1051 1472)" fill="#3BB75E" style="mix-blend-mode:normal;"/>
<use xlink:href="#path82_fill" transform="translate(-1051 1472)" fill="#3BB75E" style="mix-blend-mode:normal;"/>
<use xlink:href="#path83_fill" transform="translate(-1051 1472)" fill="#3BB75E" style="mix-blend-mode:normal;"/>
<use xlink:href="#path84_fill" transform="translate(-1051 1472)" fill="#3BB75E" style="mix-blend-mode:normal;"/>
<use xlink:href="#path85_fill" transform="translate(-1051 1472)" fill="#3BB75E" style="mix-blend-mode:normal;"/>
<use xlink:href="#path86_fill" transform="translate(-1051 1472)" fill="#3BB75E" style="mix-blend-mode:normal;"/>
<use xlink:href="#path87_fill" transform="translate(-1051 1472)" fill="#3BB75E" style="mix-blend-mode:normal;"/>
<use xlink:href="#path88_fill" transform="translate(-1051 1472)" fill="#3BB75E" style="mix-blend-mode:normal;"/>
<use xlink:href="#path89_fill" transform="translate(-1051 1472)" fill="#3BB75E" style="mix-blend-mode:normal;"/>
<use xlink:href="#path90_fill" transform="translate(-1051 1472)" fill="#3BB75E" style="mix-blend-mode:normal;"/>
<use xlink:href="#path91_fill" transform="translate(-1051 1472)" fill="#3BB75E" style="mix-blend-mode:normal;"/>
<use xlink:href="#path92_fill" transform="translate(-1051 1472)" fill="#3BB75E" style="mix-blend-mode:normal;"/>
</g>
</g>
</g>
<defs>
<path id="path0_fill" d="M 0 5C 0 2.23858 2.23858 0 5 0L 883 0C 885.761 0 888 2.23858 888 5L 888 845C 888 847.761 885.761 850 883 850L 5 850C 2.23858 850 0 847.761 0 845L 0 5Z"/>
<path id="path1_stroke_2x" d="M 5 2L 883 2L 883 -2L 5 -2L 5 2ZM 886 5L 886 845L 890 845L 890 5L 886 5ZM 883 848L 5 848L 5 852L 883 852L 883 848ZM 2 845L 2 5L -2 5L -2 845L 2 845ZM 5 -2C 1.13401 -2 -2 1.13401 -2 5L 2 5C 2 3.34315 3.34315 2 5 2L 5 -2ZM 883 2C 884.657 2 886 3.34315 886 5L 890 5C 890 1.13401 886.866 -2 883 -2L 883 2ZM 886 845C 886 846.657 884.657 848 883 848L 883 852C 886.866 852 890 848.866 890 845L 886 845ZM 5 848C 3.34315 848 2 846.657 2 845L -2 845C -2 848.866 1.13401 852 5 852L 5 848Z"/>
<path id="path2_stroke" d="M 0 0L 888 0L 888 -2L 0 -2L 0 0Z"/>
<path id="path3_fill" d="M 16 8C 16 12.4183 12.4183 16 8 16C 3.58172 16 0 12.4183 0 8C 0 3.58172 3.58172 0 8 0C 12.4183 0 16 3.58172 16 8Z"/>
<path id="path4_fill" d="M 0 3C 0 1.34315 1.34315 0 3 0L 417 0C 418.657 0 420 1.34315 420 3L 420 9C 420 10.6569 418.657 12 417 12L 3 12C 1.34315 12 0 10.6569 0 9L 0 3Z"/>
<path id="path5_fill" d="M 0 3C 0 1.34315 1.34315 0 3 0L 691 0C 692.657 0 694 1.34315 694 3L 694 9C 694 10.6569 692.657 12 691 12L 3 12C 1.34315 12 0 10.6569 0 9L 0 3Z"/>
<path id="path6_fill" d="M 0 3C 0 1.34315 1.34315 0 3 0L 545 0C 546.657 0 548 1.34315 548 3L 548 9C 548 10.6569 546.657 12 545 12L 3 12C 1.34315 12 0 10.6569 0 9L 0 3Z"/>
<path id="path7_fill" fill-rule="evenodd" d="M 1.49447 49.1934L 1.49447 110.424L 471.506 110.424L 471.506 49.1934L 1.49447 49.1934ZM 0.747235 47.7C 0.334549 47.7 1.69902e-13 48.0343 1.69902e-13 48.4467L 1.69902e-13 111.17C 1.69902e-13 111.583 0.334549 111.917 0.747235 111.917L 472.253 111.917C 472.665 111.917 473 111.583 473 111.17L 473 48.4467C 473 48.0343 472.665 47.7 472.253 47.7L 0.747235 47.7Z"/>
<path id="path8_fill" d="M 2.42104 1.55914L 7.88184 1.55914C 8.79645 1.55914 9.65727 1.66666 10.4643 1.88171C 11.2892 2.07885 12.0066 2.41039 12.6163 2.87633C 13.2261 3.32436 13.7103 3.9068 14.0689 4.62364C 14.4276 5.32256 14.607 6.17381 14.607 7.17739L 14.607 7.28492C 14.607 8.30642 14.4276 9.1756 14.0689 9.89244C 13.7103 10.6093 13.2261 11.2007 12.6163 11.6666C 12.0066 12.1147 11.2892 12.4462 10.4643 12.6612C 9.65727 12.8584 8.79645 12.9569 7.88184 12.9569L 4.76138 12.9569L 4.76138 20.7795L 2.42104 20.7795L 2.42104 1.55914ZM 8.04324 11.1021C 9.42413 11.1021 10.4733 10.7795 11.1906 10.1344C 11.9079 9.47129 12.2666 8.52148 12.2666 7.28492L 12.2666 7.17739C 12.2666 5.81539 11.89 4.85661 11.1368 4.30106C 10.3836 3.72759 9.3524 3.44085 8.04324 3.44085L 4.76138 3.44085L 4.76138 11.1021L 8.04324 11.1021Z"/>
<path id="path9_fill" d="M 17.9441 0L 20.2037 0L 20.2037 20.7795L 17.9441 20.7795L 17.9441 0Z"/>
<path id="path10_fill" d="M 28.297 21.0214C 27.6514 21.0214 27.0416 20.9408 26.4678 20.7795C 25.8939 20.6182 25.3917 20.3673 24.9613 20.0268C 24.5489 19.6863 24.2171 19.2562 23.966 18.7365C 23.7329 18.2168 23.6163 17.5985 23.6163 16.8817C 23.6163 16.0752 23.8136 15.3942 24.2081 14.8387C 24.6027 14.2831 25.1227 13.8351 25.7683 13.4946C 26.4319 13.1541 27.1851 12.9121 28.028 12.7688C 28.8888 12.6075 29.7675 12.5268 30.6642 12.5268L 32.6818 12.5268L 32.6818 11.5053C 32.6818 10.3763 32.4486 9.56986 31.9824 9.08599C 31.5161 8.5842 30.7449 8.3333 29.6689 8.3333C 27.7321 8.3333 26.6561 9.17559 26.4409 10.8602L 24.2081 10.8602C 24.2799 10.0537 24.4771 9.37273 24.7999 8.81717C 25.1407 8.26162 25.5621 7.81359 26.0642 7.47309C 26.5843 7.11467 27.1582 6.86378 27.7859 6.72041C 28.4315 6.55912 29.095 6.47847 29.7765 6.47847C 30.458 6.47847 31.1036 6.55912 31.7133 6.72041C 32.341 6.86378 32.888 7.13259 33.3543 7.52686C 33.8206 7.9032 34.1972 8.41395 34.4841 9.05911C 34.771 9.70427 34.9145 10.5197 34.9145 11.5053L 34.9145 20.7795L 32.6818 20.7795L 32.6818 19.0053C 32.1617 19.6684 31.5609 20.1702 30.8794 20.5107C 30.198 20.8512 29.3371 21.0214 28.297 21.0214ZM 28.5122 19.2472C 29.104 19.2472 29.651 19.1756 30.1531 19.0322C 30.6732 18.8709 31.1126 18.6469 31.4712 18.3602C 31.8478 18.0734 32.1438 17.724 32.359 17.3118C 32.5742 16.8817 32.6818 16.3978 32.6818 15.8602L 32.6818 14.1129L 30.7449 14.1129C 30.0455 14.1129 29.3909 14.1666 28.7812 14.2741C 28.1894 14.3638 27.6693 14.5161 27.221 14.7311C 26.7906 14.9462 26.4498 15.2329 26.1987 15.5913C 25.9656 15.9318 25.849 16.362 25.849 16.8817C 25.849 17.6164 26.0463 18.1989 26.4409 18.629C 26.8354 19.0412 27.5258 19.2472 28.5122 19.2472Z"/>
<path id="path11_fill" d="M 39.3003 6.72041L 41.5331 6.72041L 41.5331 8.95158C 41.8559 8.2885 42.3939 7.71503 43.1471 7.23116C 43.9182 6.72937 44.8867 6.47847 46.0524 6.47847C 46.7876 6.47847 47.4512 6.586 48.043 6.80105C 48.6527 6.99818 49.1728 7.32972 49.6032 7.79567C 50.0516 8.2437 50.3923 8.82613 50.6254 9.54298C 50.8765 10.2598 51.002 11.129 51.002 12.1505L 51.002 20.7795L 48.7693 20.7795L 48.7693 11.9892C 48.7693 10.7527 48.5003 9.84764 47.9623 9.27416C 47.4243 8.70069 46.5904 8.41395 45.4605 8.41395C 44.9405 8.41395 44.4383 8.49459 43.9541 8.65588C 43.4878 8.81717 43.0754 9.05911 42.7167 9.38169C 42.358 9.70427 42.0711 10.1075 41.8559 10.5914C 41.6407 11.0752 41.5331 11.6308 41.5331 12.258L 41.5331 20.7795L 39.3003 20.7795L 39.3003 6.72041Z"/>
<path id="path12_fill" d="M 62.6581 1.55914L 65.6979 1.55914L 75.0593 17.4462L 75.0593 1.55914L 77.292 1.55914L 77.292 20.7795L 74.6019 20.7795L 64.8909 4.30106L 64.8909 20.7795L 62.6581 20.7795L 62.6581 1.55914Z"/>
<path id="path13_fill" d="M 85.4868 21.0214C 84.8412 21.0214 84.2314 20.9408 83.6575 20.7795C 83.0837 20.6182 82.5815 20.3673 82.1511 20.0268C 81.7386 19.6863 81.4069 19.2562 81.1558 18.7365C 80.9227 18.2168 80.8061 17.5985 80.8061 16.8817C 80.8061 16.0752 81.0033 15.3942 81.3979 14.8387C 81.7924 14.2831 82.3125 13.8351 82.9581 13.4946C 83.6217 13.1541 84.3749 12.9121 85.2178 12.7688C 86.0786 12.6075 86.9573 12.5268 87.854 12.5268L 89.8715 12.5268L 89.8715 11.5053C 89.8715 10.3763 89.6384 9.56986 89.1721 9.08599C 88.7059 8.5842 87.9347 8.3333 86.8587 8.3333C 84.9219 8.3333 83.8458 9.17559 83.6306 10.8602L 81.3979 10.8602C 81.4696 10.0537 81.6669 9.37273 81.9897 8.81717C 82.3304 8.26162 82.7519 7.81359 83.254 7.47309C 83.7741 7.11467 84.348 6.86378 84.9757 6.72041C 85.6213 6.55912 86.2848 6.47847 86.9663 6.47847C 87.6478 6.47847 88.2934 6.55912 88.9031 6.72041C 89.5308 6.86378 90.0778 7.13259 90.5441 7.52686C 91.0103 7.9032 91.3869 8.41395 91.6739 9.05911C 91.9608 9.70427 92.1043 10.5197 92.1043 11.5053L 92.1043 20.7795L 89.8715 20.7795L 89.8715 19.0053C 89.3515 19.6684 88.7507 20.1702 88.0692 20.5107C 87.3877 20.8512 86.5269 21.0214 85.4868 21.0214ZM 85.702 19.2472C 86.2938 19.2472 86.8408 19.1756 87.3429 19.0322C 87.863 18.8709 88.3023 18.6469 88.661 18.3602C 89.0376 18.0734 89.3335 17.724 89.5487 17.3118C 89.7639 16.8817 89.8715 16.3978 89.8715 15.8602L 89.8715 14.1129L 87.9347 14.1129C 87.2353 14.1129 86.5807 14.1666 85.971 14.2741C 85.3792 14.3638 84.8591 14.5161 84.4107 14.7311C 83.9803 14.9462 83.6396 15.2329 83.3885 15.5913C 83.1554 15.9318 83.0388 16.362 83.0388 16.8817C 83.0388 17.6164 83.2361 18.1989 83.6306 18.629C 84.0252 19.0412 84.7156 19.2472 85.702 19.2472Z"/>
<path id="path14_fill" d="M 96.4901 6.72041L 98.7228 6.72041L 98.7228 8.87094C 99.0456 8.20786 99.5657 7.64334 100.283 7.17739C 101.018 6.71145 101.897 6.47847 102.919 6.47847C 103.834 6.47847 104.659 6.68456 105.394 7.09675C 106.129 7.49101 106.676 8.16305 107.035 9.11287C 107.286 8.64692 107.591 8.25266 107.95 7.93008C 108.326 7.58958 108.73 7.3118 109.16 7.09675C 109.591 6.8817 110.039 6.72937 110.505 6.63976C 110.972 6.53224 111.42 6.47847 111.85 6.47847C 112.478 6.47847 113.079 6.57704 113.653 6.77417C 114.226 6.9713 114.729 7.29388 115.159 7.74191C 115.589 8.18994 115.93 8.77237 116.181 9.48921C 116.45 10.1881 116.585 11.0484 116.585 12.0699L 116.585 20.7795L 114.352 20.7795L 114.352 11.9086C 114.352 10.672 114.092 9.78491 113.572 9.24728C 113.07 8.69173 112.334 8.41395 111.366 8.41395C 110.918 8.41395 110.469 8.49459 110.021 8.65588C 109.573 8.79925 109.169 9.03223 108.811 9.35481C 108.47 9.65947 108.192 10.0537 107.977 10.5376C 107.761 11.0035 107.654 11.5501 107.654 12.1774L 107.654 20.7795L 105.421 20.7795L 105.421 11.9086C 105.421 10.672 105.161 9.78491 104.641 9.24728C 104.139 8.69173 103.404 8.41395 102.435 8.41395C 101.987 8.41395 101.538 8.49459 101.09 8.65588C 100.642 8.79925 100.238 9.03223 99.8796 9.35481C 99.5388 9.65947 99.2609 10.0537 99.0457 10.5376C 98.8304 11.0035 98.7228 11.5501 98.7228 12.1774L 98.7228 20.7795L 96.4901 20.7795L 96.4901 6.72041Z"/>
<path id="path15_fill" d="M 126.73 21.0214C 125.744 21.0214 124.829 20.8512 123.987 20.5107C 123.162 20.1702 122.444 19.6953 121.835 19.086C 121.225 18.4587 120.75 17.706 120.409 16.8279C 120.086 15.9498 119.925 14.9731 119.925 13.8978L 119.925 13.6827C 119.925 12.6254 120.086 11.6577 120.409 10.7795C 120.732 9.88348 121.18 9.12183 121.754 8.49459C 122.346 7.84943 123.045 7.35661 123.852 7.0161C 124.659 6.65768 125.547 6.47847 126.515 6.47847C 127.322 6.47847 128.102 6.61288 128.856 6.8817C 129.627 7.13259 130.308 7.53582 130.9 8.09137C 131.492 8.64692 131.958 9.37273 132.299 10.2688C 132.658 11.1469 132.837 12.2132 132.837 13.4677L 132.837 14.1935L 122.238 14.1935C 122.292 15.8064 122.695 17.043 123.449 17.9032C 124.202 18.7455 125.305 19.1666 126.757 19.1666C 128.963 19.1666 130.21 18.3512 130.497 16.7204L 132.729 16.7204C 132.478 18.1361 131.815 19.2114 130.739 19.9462C 129.663 20.663 128.327 21.0214 126.73 21.0214ZM 130.55 12.3924C 130.443 10.9408 130.03 9.9014 129.313 9.27416C 128.613 8.64692 127.681 8.3333 126.515 8.3333C 125.367 8.3333 124.426 8.70069 123.691 9.43545C 122.973 10.1523 122.516 11.138 122.319 12.3924L 130.55 12.3924Z"/>
<path id="path16_fill" d="M 34.9138 85.17C 35.9898 85.17 36.9493 84.9818 37.7922 84.6054C 38.653 84.2112 39.3793 83.6735 39.9711 82.9925C 40.5629 82.2936 41.0202 81.4603 41.343 80.4926C 41.6658 79.5248 41.8272 78.4585 41.8272 77.2936L 41.8272 77.0786C 41.8272 76.0033 41.6658 74.9908 41.343 74.041C 41.0382 73.0911 40.5898 72.2668 39.998 71.5679C 39.4062 70.8689 38.6799 70.3134 37.8191 69.9012C 36.9583 69.489 35.9719 69.2829 34.86 69.2829C 33.7481 69.2829 32.7528 69.48 31.8741 69.8743C 30.9953 70.2507 30.2511 70.7883 29.6413 71.4872C 29.0495 72.1861 28.5922 73.0195 28.2694 73.9872C 27.9645 74.937 27.8121 75.9854 27.8121 77.1323L 27.8121 77.3474C 27.8121 78.5123 27.9914 79.5786 28.3501 80.5463C 28.7267 81.4961 29.2289 82.3205 29.8565 83.0194C 30.5021 83.7004 31.2554 84.2291 32.1162 84.6054C 32.977 84.9818 33.9095 85.17 34.9138 85.17ZM 34.9138 87.1054C 33.4971 87.1054 32.1969 86.8545 31.0133 86.3527C 29.8476 85.833 28.8433 85.1341 28.0004 84.256C 27.1755 83.3778 26.5298 82.3474 26.0636 81.1646C 25.6152 79.9818 25.3911 78.7184 25.3911 77.3743L 25.3911 77.1592C 25.3911 75.7972 25.6152 74.5248 26.0636 73.342C 26.5298 72.1413 27.1755 71.1019 28.0004 70.2238C 28.8433 69.3456 29.8386 68.6557 30.9864 68.1539C 32.152 67.6521 33.4433 67.4012 34.86 67.4012C 36.2768 67.4012 37.559 67.6521 38.7068 68.1539C 39.8725 68.6557 40.8588 69.3456 41.6658 70.2238C 42.4908 71.1019 43.1274 72.1324 43.5758 73.3152C 44.0241 74.4979 44.2483 75.7614 44.2483 77.1055L 44.2483 77.3205C 44.2483 78.6825 44.0241 79.9549 43.5758 81.1377C 43.1274 82.3205 42.4908 83.3599 41.6658 84.256C 40.8588 85.1341 39.8814 85.833 38.7337 86.3527C 37.5859 86.8545 36.3126 87.1054 34.9138 87.1054Z"/>
<path id="path17_fill" d="M 52.7367 87.1054C 52.0372 87.1054 51.3827 87.0069 50.7729 86.8097C 50.1811 86.6126 49.67 86.299 49.2396 85.8689C 48.8092 85.4209 48.4684 84.8563 48.2174 84.1753C 47.9663 83.4943 47.8408 82.67 47.8408 81.7022L 47.8408 72.8044L 50.0735 72.8044L 50.0735 81.5947C 50.0735 82.8313 50.3335 83.7363 50.8536 84.3097C 51.3916 84.8832 52.2166 85.17 53.3285 85.17C 53.8306 85.17 54.3148 85.0893 54.7811 84.928C 55.2474 84.7667 55.6598 84.5248 56.0185 84.2022C 56.3772 83.8796 56.6641 83.4764 56.8793 82.9925C 57.0945 82.5087 57.2021 81.9531 57.2021 81.3259L 57.2021 72.8044L 59.4349 72.8044L 59.4349 86.8635L 57.2021 86.8635L 57.2021 84.6323C 56.8793 85.2954 56.3323 85.8778 55.5612 86.3796C 54.808 86.8635 53.8665 87.1054 52.7367 87.1054Z"/>
<path id="path18_fill" d="M 63.9474 72.8044L 66.1802 72.8044L 66.1802 75.3313C 66.6285 74.5428 67.1934 73.8976 67.8749 73.3958C 68.5743 72.8761 69.5517 72.5983 70.807 72.5625L 70.807 74.6592C 70.1076 74.6951 69.471 74.7847 68.8971 74.9281C 68.3232 75.0714 67.8301 75.3134 67.4176 75.6539C 67.023 75.9944 66.7182 76.4513 66.503 77.0248C 66.2878 77.5804 66.1802 78.2883 66.1802 79.1485L 66.1802 86.8635L 63.9474 86.8635L 63.9474 72.8044Z"/>
<path id="path19_fill" d="M 89.708 87.1054C 88.2374 87.1054 86.9193 86.8635 85.7536 86.3796C 84.6059 85.8958 83.6285 85.2237 82.8215 84.3635C 82.0324 83.4854 81.4316 82.4549 81.0191 81.2721C 80.6067 80.0714 80.4004 78.7721 80.4004 77.3743L 80.4004 77.1592C 80.4004 75.7614 80.6246 74.4621 81.0729 73.2614C 81.5213 72.0607 82.1579 71.0213 82.9829 70.1431C 83.8078 69.265 84.7852 68.584 85.915 68.1001C 87.0628 67.5983 88.3271 67.3474 89.708 67.3474C 90.6585 67.3474 91.5731 67.4639 92.4518 67.6969C 93.3306 67.9299 94.1197 68.2973 94.8191 68.799C 95.5364 69.2829 96.1282 69.9102 96.5945 70.6808C 97.0787 71.4514 97.3926 72.3743 97.536 73.4496L 95.1957 73.4496C 94.9267 71.9084 94.299 70.8152 93.3127 70.17C 92.3442 69.5248 91.1606 69.2023 89.7618 69.2023C 88.6678 69.2023 87.6905 69.3994 86.8296 69.7937C 85.9688 70.17 85.2425 70.7076 84.6507 71.4066C 84.0589 72.1055 83.6016 72.9388 83.2788 73.9066C 82.9739 74.8743 82.8215 75.9496 82.8215 77.1323L 82.8215 77.3474C 82.8215 78.5302 82.9649 79.6144 83.2519 80.6001C 83.5567 81.5678 83.9961 82.3922 84.57 83.0732C 85.1439 83.7542 85.8612 84.2829 86.722 84.6592C 87.5829 85.0355 88.5782 85.2237 89.708 85.2237C 90.7481 85.2237 91.6448 85.0624 92.398 84.7399C 93.1513 84.4173 93.77 83.9872 94.2542 83.4495C 94.7563 82.894 95.124 82.2488 95.3571 81.5141C 95.6082 80.7614 95.7427 79.9549 95.7606 79.0947L 90.1384 79.0947L 90.1384 77.1592L 98.0471 77.1592L 98.0471 78.584C 98.0471 79.9818 97.8409 81.2094 97.4284 82.2667C 97.0339 83.3241 96.469 84.2112 95.7337 84.928C 94.9984 85.6449 94.1197 86.1915 93.0974 86.5678C 92.0752 86.9262 90.9454 87.1054 89.708 87.1054Z"/>
<path id="path20_fill" d="M 105.599 85.4119L 100.084 72.8044L 102.478 72.8044L 106.782 82.885L 110.683 72.8044L 112.969 72.8044L 105.195 91.756L 102.935 91.756L 105.599 85.4119Z"/>
<path id="path21_fill" d="M 115.909 72.8044L 118.142 72.8044L 118.142 74.9549C 118.465 74.2919 118.985 73.7273 119.702 73.2614C 120.438 72.7954 121.316 72.5625 122.339 72.5625C 123.253 72.5625 124.078 72.7686 124.814 73.1807C 125.549 73.575 126.096 74.2471 126.454 75.1969C 126.706 74.7309 127.01 74.3367 127.369 74.0141C 127.746 73.6736 128.149 73.3958 128.58 73.1807C 129.01 72.9657 129.458 72.8134 129.925 72.7238C 130.391 72.6162 130.839 72.5625 131.27 72.5625C 131.897 72.5625 132.498 72.661 133.072 72.8582C 133.646 73.0553 134.148 73.3779 134.578 73.8259C 135.009 74.2739 135.35 74.8564 135.601 75.5732C 135.87 76.2721 136.004 77.1324 136.004 78.1539L 136.004 86.8635L 133.771 86.8635L 133.771 77.9926C 133.771 76.756 133.511 75.8689 132.991 75.3313C 132.489 74.7757 131.754 74.4979 130.785 74.4979C 130.337 74.4979 129.889 74.5786 129.44 74.7399C 128.992 74.8833 128.589 75.1162 128.23 75.4388C 127.889 75.7435 127.611 76.1377 127.396 76.6216C 127.181 77.0875 127.073 77.6341 127.073 78.2614L 127.073 86.8635L 124.84 86.8635L 124.84 77.9926C 124.84 76.756 124.58 75.8689 124.06 75.3313C 123.558 74.7757 122.823 74.4979 121.854 74.4979C 121.406 74.4979 120.958 74.5786 120.509 74.7399C 120.061 74.8833 119.658 75.1162 119.299 75.4388C 118.958 75.7435 118.68 76.1377 118.465 76.6216C 118.25 77.0875 118.142 77.6341 118.142 78.2614L 118.142 86.8635L 115.909 86.8635L 115.909 72.8044Z"/>
<path id="path22_fill" d="M 153.888 87.1054C 152.596 87.1054 151.503 86.9441 150.606 86.6216C 149.727 86.2811 149.001 85.833 148.427 85.2775C 147.853 84.7219 147.414 84.0768 147.109 83.342C 146.822 82.6072 146.634 81.8277 146.544 81.0033L 148.803 81.0033C 148.875 81.5768 149.001 82.1234 149.18 82.6431C 149.359 83.1449 149.637 83.5929 150.014 83.9872C 150.391 84.3635 150.884 84.6682 151.494 84.9011C 152.121 85.1162 152.919 85.2237 153.888 85.2237C 154.515 85.2237 155.089 85.1431 155.609 84.9818C 156.147 84.8026 156.614 84.5517 157.008 84.2291C 157.403 83.9065 157.708 83.5212 157.923 83.0732C 158.156 82.6252 158.272 82.1323 158.272 81.5947C 158.272 81.0571 158.201 80.5911 158.057 80.1969C 157.914 79.7847 157.663 79.4352 157.304 79.1485C 156.963 78.8617 156.488 78.6198 155.878 78.4227C 155.287 78.2255 154.533 78.0553 153.619 77.9119C 152.614 77.7506 151.709 77.5445 150.902 77.2936C 150.113 77.0427 149.44 76.7202 148.884 76.3259C 148.346 75.9137 147.925 75.4119 147.62 74.8205C 147.333 74.2112 147.189 73.4764 147.189 72.6162C 147.189 71.8815 147.342 71.2005 147.647 70.5732C 147.952 69.9281 148.373 69.3725 148.911 68.9066C 149.467 68.4406 150.122 68.0732 150.875 67.8044C 151.628 67.5356 152.462 67.4012 153.377 67.4012C 155.313 67.4012 156.847 67.8582 157.977 68.7722C 159.124 69.6682 159.797 70.9765 159.994 72.6969L 157.896 72.6969C 157.663 71.4782 157.187 70.6091 156.47 70.0894C 155.753 69.5517 154.722 69.2829 153.377 69.2829C 152.049 69.2829 151.045 69.5786 150.364 70.17C 149.7 70.7435 149.368 71.4872 149.368 72.4012C 149.368 72.8671 149.422 73.2883 149.53 73.6646C 149.655 74.023 149.88 74.3367 150.202 74.6055C 150.543 74.8743 151.009 75.1162 151.601 75.3313C 152.211 75.5284 153.009 75.6987 153.995 75.842C 155.071 76.0033 156.013 76.2184 156.82 76.4872C 157.627 76.756 158.308 77.1055 158.864 77.5356C 159.42 77.9657 159.833 78.4944 160.102 79.1216C 160.389 79.7488 160.532 80.5194 160.532 81.4334C 160.532 82.2399 160.362 82.9925 160.021 83.6915C 159.698 84.3725 159.241 84.9728 158.649 85.4925C 158.057 85.9943 157.349 86.3886 156.524 86.6753C 155.717 86.9621 154.838 87.1054 153.888 87.1054Z"/>
<path id="path23_fill" d="M 169.008 87.1054C 168.308 87.1054 167.654 87.0069 167.044 86.8097C 166.452 86.6126 165.941 86.299 165.511 85.8689C 165.08 85.4209 164.739 84.8563 164.488 84.1753C 164.237 83.4943 164.112 82.67 164.112 81.7022L 164.112 72.8044L 166.344 72.8044L 166.344 81.5947C 166.344 82.8313 166.605 83.7363 167.125 84.3097C 167.663 84.8832 168.488 85.17 169.599 85.17C 170.102 85.17 170.586 85.0893 171.052 84.928C 171.518 84.7667 171.931 84.5248 172.289 84.2022C 172.648 83.8796 172.935 83.4764 173.15 82.9925C 173.366 82.5087 173.473 81.9531 173.473 81.3259L 173.473 72.8044L 175.706 72.8044L 175.706 86.8635L 173.473 86.8635L 173.473 84.6323C 173.15 85.2954 172.603 85.8778 171.832 86.3796C 171.079 86.8635 170.137 87.1054 169.008 87.1054Z"/>
<path id="path24_fill" d="M 187.213 87.1054C 186.065 87.1054 185.087 86.8545 184.28 86.3527C 183.473 85.851 182.864 85.2506 182.451 84.5517L 182.451 86.8635L 180.218 86.8635L 180.218 66.084L 182.451 66.084L 182.451 75.17C 182.648 74.8295 182.908 74.5069 183.231 74.2023C 183.572 73.8797 183.949 73.6019 184.361 73.3689C 184.791 73.118 185.249 72.9209 185.733 72.7775C 186.217 72.6342 186.71 72.5625 187.213 72.5625C 188.127 72.5625 188.979 72.7238 189.768 73.0463C 190.557 73.3689 191.23 73.8349 191.786 74.4442C 192.359 75.0535 192.808 75.7972 193.131 76.6754C 193.453 77.5535 193.615 78.5392 193.615 79.6323L 193.615 79.8474C 193.615 80.9227 193.462 81.9083 193.158 82.8044C 192.853 83.6825 192.422 84.4441 191.866 85.0893C 191.31 85.7345 190.638 86.2363 189.849 86.5947C 189.06 86.9352 188.181 87.1054 187.213 87.1054ZM 186.997 85.2506C 188.396 85.2506 189.463 84.8026 190.198 83.9065C 190.934 82.9925 191.301 81.6753 191.301 79.9549L 191.301 79.7399C 191.301 78.8438 191.185 78.0642 190.952 77.4012C 190.719 76.7381 190.405 76.1915 190.01 75.7614C 189.634 75.3134 189.176 74.9818 188.638 74.7668C 188.118 74.5338 187.562 74.4173 186.97 74.4173C 186.325 74.4173 185.715 74.5248 185.141 74.7399C 184.585 74.9549 184.101 75.2865 183.689 75.7345C 183.276 76.1646 182.953 76.7202 182.72 77.4012C 182.487 78.0642 182.37 78.8438 182.37 79.7399L 182.37 79.9549C 182.37 81.747 182.801 83.0822 183.662 83.9603C 184.522 84.8205 185.634 85.2506 186.997 85.2506Z"/>
<path id="path25_fill" d="M 201.442 87.1054C 199.756 87.1054 198.429 86.7112 197.46 85.9226C 196.51 85.1162 195.999 83.9872 195.927 82.5356L 198.106 82.5356C 198.196 83.3778 198.483 84.0409 198.967 84.5248C 199.469 85.0087 200.285 85.2506 201.415 85.2506C 202.491 85.2506 203.271 85.0714 203.755 84.713C 204.239 84.3366 204.481 83.7721 204.481 83.0194C 204.481 82.2667 204.203 81.7381 203.647 81.4334C 203.109 81.1108 202.293 80.851 201.2 80.6538C 200.285 80.4926 199.514 80.3044 198.886 80.0893C 198.258 79.8564 197.756 79.5786 197.38 79.256C 197.003 78.9334 196.725 78.5481 196.546 78.1001C 196.384 77.6521 196.304 77.1234 196.304 76.5141C 196.304 75.8689 196.447 75.3044 196.734 74.8205C 197.021 74.3187 197.389 73.9066 197.837 73.584C 198.303 73.2435 198.814 72.9926 199.37 72.8313C 199.944 72.6521 200.509 72.5625 201.065 72.5625C 201.693 72.5625 202.293 72.6342 202.867 72.7775C 203.441 72.903 203.952 73.127 204.401 73.4496C 204.867 73.7721 205.253 74.1933 205.557 74.713C 205.862 75.2327 206.06 75.8689 206.149 76.6216L 203.997 76.6216C 203.836 75.851 203.522 75.2954 203.056 74.9549C 202.607 74.5965 201.935 74.4173 201.038 74.4173C 200.231 74.4173 199.585 74.6055 199.101 74.9818C 198.617 75.3402 198.375 75.8241 198.375 76.4334C 198.375 76.756 198.42 77.0338 198.509 77.2668C 198.617 77.4818 198.796 77.6789 199.047 77.8582C 199.299 78.0194 199.63 78.1718 200.043 78.3151C 200.473 78.4406 201.011 78.5571 201.657 78.6646C 202.392 78.79 203.056 78.9424 203.647 79.1216C 204.257 79.3008 204.777 79.5427 205.208 79.8474C 205.656 80.1341 205.997 80.5194 206.23 81.0033C 206.481 81.4692 206.607 82.0786 206.607 82.8313C 206.607 84.1216 206.176 85.161 205.315 85.9495C 204.454 86.7201 203.163 87.1054 201.442 87.1054Z"/>
<path id="path26_fill" d="M 215.846 87.1054C 214.86 87.1054 213.945 86.9441 213.102 86.6216C 212.277 86.2811 211.551 85.8062 210.923 85.1968C 210.313 84.5696 209.829 83.8169 209.471 82.9388C 209.13 82.0606 208.959 81.075 208.959 79.9818L 208.959 79.7668C 208.959 78.6915 209.139 77.7148 209.497 76.8367C 209.856 75.9406 210.34 75.1789 210.95 74.5517C 211.578 73.9245 212.304 73.4406 213.129 73.1001C 213.972 72.7417 214.86 72.5625 215.792 72.5625C 216.527 72.5625 217.236 72.6521 217.917 72.8313C 218.617 73.0105 219.235 73.2972 219.773 73.6915C 220.329 74.0678 220.796 74.5696 221.172 75.1969C 221.549 75.8241 221.791 76.5858 221.899 77.4818L 219.693 77.4818C 219.513 76.3707 219.056 75.5822 218.321 75.1162C 217.603 74.6503 216.761 74.4173 215.792 74.4173C 215.147 74.4173 214.546 74.5428 213.99 74.7936C 213.452 75.0445 212.977 75.403 212.564 75.8689C 212.17 76.3169 211.856 76.8725 211.623 77.5356C 211.389 78.1987 211.273 78.9424 211.273 79.7668L 211.273 79.9818C 211.273 81.7201 211.694 83.0373 212.537 83.9334C 213.398 84.8115 214.51 85.2506 215.873 85.2506C 216.375 85.2506 216.85 85.1789 217.299 85.0356C 217.765 84.8922 218.177 84.6771 218.536 84.3904C 218.913 84.1037 219.218 83.7452 219.451 83.3151C 219.702 82.885 219.854 82.3832 219.908 81.8098L 221.979 81.8098C 221.908 82.5624 221.701 83.2703 221.361 83.9334C 221.038 84.5786 220.607 85.1341 220.069 85.6001C 219.531 86.066 218.904 86.4334 218.186 86.7022C 217.469 86.971 216.689 87.1054 215.846 87.1054Z"/>
<path id="path27_fill" d="M 225.35 72.8044L 227.583 72.8044L 227.583 75.3313C 228.031 74.5428 228.596 73.8976 229.278 73.3958C 229.977 72.8761 230.955 72.5983 232.21 72.5625L 232.21 74.6592C 231.51 74.6951 230.874 74.7847 230.3 74.9281C 229.726 75.0714 229.233 75.3134 228.82 75.6539C 228.426 75.9944 228.121 76.4513 227.906 77.0248C 227.691 77.5804 227.583 78.2883 227.583 79.1485L 227.583 86.8635L 225.35 86.8635L 225.35 72.8044Z"/>
<path id="path28_fill" d="M 235.518 72.8044L 237.751 72.8044L 237.751 86.8635L 235.518 86.8635L 235.518 72.8044ZM 236.594 69.8743C 236.182 69.8743 235.832 69.7309 235.545 69.4442C 235.258 69.1575 235.115 68.808 235.115 68.3958C 235.115 67.9836 235.258 67.6342 235.545 67.3474C 235.832 67.0607 236.182 66.9173 236.594 66.9173C 237.007 66.9173 237.356 67.0607 237.643 67.3474C 237.93 67.6342 238.074 67.9836 238.074 68.3958C 238.074 68.808 237.93 69.1575 237.643 69.4442C 237.356 69.7309 237.007 69.8743 236.594 69.8743Z"/>
<path id="path29_fill" d="M 242.321 72.8044L 244.553 72.8044L 244.553 75.17C 244.751 74.8295 245.011 74.5069 245.334 74.2023C 245.674 73.8797 246.051 73.6019 246.463 73.3689C 246.894 73.118 247.351 72.9209 247.835 72.7775C 248.319 72.6342 248.813 72.5625 249.315 72.5625C 250.229 72.5625 251.081 72.7238 251.87 73.0463C 252.659 73.3689 253.332 73.8349 253.888 74.4442C 254.462 75.0535 254.91 75.7972 255.233 76.6754C 255.556 77.5535 255.717 78.5392 255.717 79.6323L 255.717 79.8474C 255.717 80.9227 255.565 81.9083 255.26 82.8044C 254.955 83.6825 254.525 84.4441 253.969 85.0893C 253.413 85.7345 252.74 86.2363 251.951 86.5947C 251.162 86.9352 250.283 87.1054 249.315 87.1054C 248.149 87.1054 247.163 86.8545 246.356 86.3527C 245.567 85.851 244.966 85.2506 244.553 84.5517L 244.553 91.756L 242.321 91.756L 242.321 72.8044ZM 249.1 85.2506C 250.498 85.2506 251.565 84.8026 252.301 83.9065C 253.036 82.9925 253.404 81.6753 253.404 79.9549L 253.404 79.7399C 253.404 78.8438 253.287 78.0642 253.054 77.4012C 252.821 76.7381 252.507 76.1915 252.112 75.7614C 251.736 75.3134 251.279 74.9818 250.741 74.7668C 250.22 74.5338 249.665 74.4173 249.073 74.4173C 248.427 74.4173 247.817 74.5248 247.243 74.7399C 246.688 74.9549 246.203 75.2865 245.791 75.7345C 245.378 76.1646 245.056 76.7202 244.822 77.4012C 244.589 78.0642 244.473 78.8438 244.473 79.7399L 244.473 79.9549C 244.473 81.747 244.903 83.0822 245.764 83.9603C 246.625 84.8205 247.737 85.2506 249.1 85.2506Z"/>
<path id="path30_fill" d="M 263.463 87.0517C 262.172 87.0517 261.213 86.7112 260.585 86.0302C 259.975 85.3492 259.67 84.4531 259.67 83.342L 259.67 74.6861L 257.653 74.6861L 257.653 72.8044L 259.67 72.8044L 259.67 69.6055L 261.903 69.6055L 261.903 72.8044L 265.185 72.8044L 265.185 74.6861L 261.903 74.6861L 261.903 83.127C 261.903 84.489 262.486 85.17 263.651 85.17C 264.01 85.17 264.324 85.1431 264.593 85.0893C 264.862 85.0355 265.122 84.9639 265.373 84.8743L 265.373 86.756C 265.14 86.8456 264.88 86.9173 264.593 86.971C 264.306 87.0248 263.929 87.0517 263.463 87.0517Z"/>
<path id="path31_fill" d="M 268.802 72.8044L 271.035 72.8044L 271.035 86.8635L 268.802 86.8635L 268.802 72.8044ZM 269.878 69.8743C 269.466 69.8743 269.116 69.7309 268.829 69.4442C 268.542 69.1575 268.399 68.808 268.399 68.3958C 268.399 67.9836 268.542 67.6342 268.829 67.3474C 269.116 67.0607 269.466 66.9173 269.878 66.9173C 270.291 66.9173 270.64 67.0607 270.927 67.3474C 271.214 67.6342 271.358 67.9836 271.358 68.3958C 271.358 68.808 271.214 69.1575 270.927 69.4442C 270.64 69.7309 270.291 69.8743 269.878 69.8743Z"/>
<path id="path32_fill" d="M 281.469 85.2506C 282.168 85.2506 282.805 85.1252 283.379 84.8743C 283.953 84.6234 284.437 84.2649 284.832 83.799C 285.226 83.333 285.531 82.7775 285.746 82.1323C 285.961 81.4693 286.069 80.7435 286.069 79.9549L 286.069 79.7668C 286.069 78.1359 285.648 76.8367 284.805 75.8689C 283.98 74.9012 282.868 74.4173 281.469 74.4173C 280.052 74.4173 278.931 74.9012 278.107 75.8689C 277.282 76.8187 276.869 78.109 276.869 79.7399L 276.869 79.9549C 276.869 81.5678 277.273 82.8581 278.08 83.8259C 278.905 84.7757 280.034 85.2506 281.469 85.2506ZM 281.442 87.1054C 280.438 87.1054 279.514 86.9262 278.671 86.5678C 277.829 86.2094 277.102 85.7165 276.492 85.0893C 275.883 84.4441 275.407 83.6825 275.067 82.8044C 274.726 81.9262 274.556 80.9764 274.556 79.9549L 274.556 79.7399C 274.556 78.6825 274.726 77.7148 275.067 76.8367C 275.425 75.9585 275.91 75.2058 276.519 74.5786C 277.129 73.9334 277.855 73.4406 278.698 73.1001C 279.559 72.7417 280.483 72.5625 281.469 72.5625C 282.473 72.5625 283.397 72.7417 284.24 73.1001C 285.083 73.4406 285.809 73.9245 286.419 74.5517C 287.029 75.1789 287.504 75.9316 287.844 76.8098C 288.203 77.6879 288.382 78.6556 288.382 79.713L 288.382 79.928C 288.382 80.9854 288.203 81.9531 287.844 82.8313C 287.504 83.7094 287.02 84.471 286.392 85.1162C 285.782 85.7434 285.056 86.2363 284.213 86.5947C 283.37 86.9352 282.446 87.1054 281.442 87.1054Z"/>
<path id="path33_fill" d="M 291.84 72.8044L 294.072 72.8044L 294.072 75.0356C 294.395 74.3725 294.933 73.799 295.686 73.3152C 296.458 72.8134 297.426 72.5625 298.592 72.5625C 299.327 72.5625 299.99 72.67 300.582 72.8851C 301.192 73.0822 301.712 73.4137 302.143 73.8797C 302.591 74.3277 302.932 74.9101 303.165 75.627C 303.416 76.3438 303.541 77.213 303.541 78.2345L 303.541 86.8635L 301.309 86.8635L 301.309 78.0732C 301.309 76.8367 301.04 75.9316 300.502 75.3582C 299.964 74.7847 299.13 74.4979 298 74.4979C 297.48 74.4979 296.978 74.5786 296.493 74.7399C 296.027 74.9012 295.615 75.1431 295.256 75.4657C 294.897 75.7883 294.61 76.1915 294.395 76.6754C 294.18 77.1592 294.072 77.7148 294.072 78.342L 294.072 86.8635L 291.84 86.8635L 291.84 72.8044Z"/>
<path id="path34_fill" fill-rule="evenodd" d="M 1.49447 206.376L 1.49447 267.607L 222.676 267.607L 222.676 206.376L 1.49447 206.376ZM 0.747235 204.883C 0.334549 204.883 0 205.217 0 205.63L 0 268.353C 0 268.766 0.334549 269.1 0.747235 269.1L 223.423 269.1C 223.836 269.1 224.171 268.766 224.171 268.353L 224.171 205.63C 224.171 205.217 223.836 204.883 223.423 204.883L 0.747235 204.883Z"/>
<path id="path35_fill" d="M 7.58593 158.369L 10.6526 158.369L 17.1625 177.589L 14.8491 177.589L 12.966 172.051L 5.03039 172.051L 3.17426 177.589L 0.968417 177.589L 7.58593 158.369ZM 5.676 170.197L 12.3473 170.197L 9.01166 160.304L 5.676 170.197Z"/>
<path id="path36_fill" d="M 20.3859 163.53L 22.6187 163.53L 22.6187 165.68C 22.9415 165.017 23.4616 164.453 24.1789 163.987C 24.9142 163.521 25.7929 163.288 26.8152 163.288C 27.7298 163.288 28.5547 163.494 29.29 163.906C 30.0253 164.301 30.5722 164.973 30.9309 165.922C 31.182 165.456 31.4869 165.062 31.8455 164.74C 32.2221 164.399 32.6257 164.121 33.0561 163.906C 33.4865 163.691 33.9348 163.539 34.4011 163.449C 34.8674 163.342 35.3157 163.288 35.7461 163.288C 36.3738 163.288 36.9746 163.387 37.5484 163.584C 38.1223 163.781 38.6245 164.103 39.0549 164.551C 39.4853 164.999 39.826 165.582 40.0771 166.299C 40.3461 166.998 40.4806 167.858 40.4806 168.879L 40.4806 177.589L 38.2479 177.589L 38.2479 168.718C 38.2479 167.482 37.9878 166.594 37.4677 166.057C 36.9656 165.501 36.2303 165.223 35.2619 165.223C 34.8136 165.223 34.3652 165.304 33.9169 165.465C 33.4685 165.609 33.065 165.842 32.7064 166.164C 32.3656 166.469 32.0876 166.863 31.8724 167.347C 31.6572 167.813 31.5496 168.36 31.5496 168.987L 31.5496 177.589L 29.3169 177.589L 29.3169 168.718C 29.3169 167.482 29.0569 166.594 28.5368 166.057C 28.0346 165.501 27.2994 165.223 26.3309 165.223C 25.8826 165.223 25.4343 165.304 24.9859 165.465C 24.5376 165.609 24.1341 165.842 23.7754 166.164C 23.4347 166.469 23.1567 166.863 22.9415 167.347C 22.7263 167.813 22.6187 168.36 22.6187 168.987L 22.6187 177.589L 20.3859 177.589L 20.3859 163.53Z"/>
<path id="path37_fill" d="M 50.7339 175.976C 51.4333 175.976 52.0699 175.851 52.6438 175.6C 53.2177 175.349 53.7019 174.99 54.0964 174.524C 54.491 174.059 54.7958 173.503 55.011 172.858C 55.2263 172.195 55.3339 171.469 55.3339 170.68L 55.3339 170.492C 55.3339 168.861 54.9124 167.562 54.0695 166.594C 53.2446 165.627 52.1327 165.143 50.7339 165.143C 49.3171 165.143 48.1963 165.627 47.3713 166.594C 46.5464 167.544 46.1339 168.835 46.1339 170.465L 46.1339 170.68C 46.1339 172.293 46.5374 173.584 47.3444 174.551C 48.1694 175.501 49.2992 175.976 50.7339 175.976ZM 50.707 177.831C 49.7027 177.831 48.7791 177.652 47.9362 177.293C 47.0933 176.935 46.367 176.442 45.7573 175.815C 45.1475 175.17 44.6723 174.408 44.3316 173.53C 43.9908 172.652 43.8205 171.702 43.8205 170.68L 43.8205 170.465C 43.8205 169.408 43.9908 168.44 44.3316 167.562C 44.6902 166.684 45.1744 165.931 45.7842 165.304C 46.3939 164.659 47.1202 164.166 47.9631 163.826C 48.8239 163.467 49.7475 163.288 50.7339 163.288C 51.7382 163.288 52.6617 163.467 53.5046 163.826C 54.3475 164.166 55.0738 164.65 55.6836 165.277C 56.2933 165.904 56.7685 166.657 57.1093 167.535C 57.468 168.413 57.6473 169.381 57.6473 170.438L 57.6473 170.654C 57.6473 171.711 57.468 172.679 57.1093 173.557C 56.7685 174.435 56.2843 175.197 55.6567 175.842C 55.0469 176.469 54.3206 176.962 53.4777 177.32C 52.6348 177.661 51.7113 177.831 50.707 177.831Z"/>
<path id="path38_fill" d="M 65.8658 177.831C 65.1664 177.831 64.5118 177.732 63.9021 177.535C 63.3103 177.338 62.7992 177.024 62.3688 176.594C 61.9383 176.146 61.5976 175.582 61.3465 174.901C 61.0955 174.22 60.9699 173.395 60.9699 172.428L 60.9699 163.53L 63.2027 163.53L 63.2027 172.32C 63.2027 173.557 63.4627 174.462 63.9828 175.035C 64.5208 175.609 65.3457 175.895 66.4576 175.895C 66.9598 175.895 67.444 175.815 67.9102 175.654C 68.3765 175.492 68.789 175.25 69.1477 174.928C 69.5063 174.605 69.7933 174.202 70.0085 173.718C 70.2237 173.234 70.3313 172.679 70.3313 172.051L 70.3313 163.53L 72.564 163.53L 72.564 177.589L 70.3313 177.589L 70.3313 175.358C 70.0085 176.021 69.4615 176.603 68.6904 177.105C 67.9371 177.589 66.9956 177.831 65.8658 177.831Z"/>
<path id="path39_fill" d="M 77.0766 163.53L 79.3093 163.53L 79.3093 165.761C 79.6321 165.098 80.1701 164.525 80.9233 164.041C 81.6945 163.539 82.6629 163.288 83.8286 163.288C 84.5639 163.288 85.2274 163.396 85.8192 163.611C 86.429 163.808 86.9491 164.139 87.3795 164.605C 87.8278 165.053 88.1685 165.636 88.4017 166.352C 88.6528 167.069 88.7783 167.939 88.7783 168.96L 88.7783 177.589L 86.5455 177.589L 86.5455 168.799C 86.5455 167.562 86.2765 166.657 85.7385 166.084C 85.2005 165.51 84.3666 165.223 83.2368 165.223C 82.7167 165.223 82.2146 165.304 81.7304 165.465C 81.2641 165.627 80.8516 165.869 80.4929 166.191C 80.1343 166.514 79.8473 166.917 79.6321 167.401C 79.4169 167.885 79.3093 168.44 79.3093 169.068L 79.3093 177.589L 77.0766 177.589L 77.0766 163.53Z"/>
<path id="path40_fill" d="M 97.431 177.777C 96.1398 177.777 95.1803 177.437 94.5526 176.756C 93.9429 176.075 93.638 175.179 93.638 174.068L 93.638 165.412L 91.6205 165.412L 91.6205 163.53L 93.638 163.53L 93.638 160.331L 95.8708 160.331L 95.8708 163.53L 99.1526 163.53L 99.1526 165.412L 95.8708 165.412L 95.8708 173.852C 95.8708 175.214 96.4536 175.895 97.6193 175.895C 97.978 175.895 98.2918 175.869 98.5608 175.815C 98.8298 175.761 99.0899 175.689 99.3409 175.6L 99.3409 177.481C 99.1078 177.571 98.8477 177.643 98.5608 177.697C 98.2739 177.75 97.8973 177.777 97.431 177.777Z"/>
<path id="path41_fill" d="M 26.3326 224.453L 29.3723 224.453L 38.7337 240.34L 38.7337 224.453L 40.9664 224.453L 40.9664 243.673L 38.2764 243.673L 28.5653 227.195L 28.5653 243.673L 26.3326 243.673L 26.3326 224.453Z"/>
<path id="path42_fill" d="M 54.1647 243.915C 52.6941 243.915 51.376 243.673 50.2103 243.189C 49.0626 242.705 48.0852 242.033 47.2782 241.173C 46.4891 240.295 45.8883 239.264 45.4758 238.082C 45.0634 236.881 44.8571 235.582 44.8571 234.184L 44.8571 233.969C 44.8571 232.571 45.0813 231.272 45.5296 230.071C 45.978 228.87 46.6146 227.831 47.4396 226.953C 48.2645 226.074 49.2419 225.393 50.3717 224.91C 51.5195 224.408 52.7838 224.157 54.1647 224.157C 55.1152 224.157 56.0298 224.273 56.9085 224.506C 57.7873 224.739 58.5764 225.107 59.2758 225.609C 59.9931 226.092 60.5849 226.72 61.0512 227.49C 61.5354 228.261 61.8493 229.184 61.9927 230.259L 59.6524 230.259C 59.3834 228.718 58.7557 227.625 57.7694 226.98C 56.8009 226.334 55.6173 226.012 54.2185 226.012C 53.1245 226.012 52.1472 226.209 51.2863 226.603C 50.4255 226.98 49.6992 227.517 49.1074 228.216C 48.5156 228.915 48.0583 229.748 47.7355 230.716C 47.4306 231.684 47.2782 232.759 47.2782 233.942L 47.2782 234.157C 47.2782 235.34 47.4216 236.424 47.7086 237.41C 48.0134 238.377 48.4528 239.202 49.0267 239.883C 49.6006 240.564 50.3179 241.092 51.1787 241.469C 52.0396 241.845 53.0349 242.033 54.1647 242.033C 55.2048 242.033 56.1015 241.872 56.8547 241.549C 57.6079 241.227 58.2267 240.797 58.7109 240.259C 59.213 239.703 59.5807 239.058 59.8138 238.324C 60.0649 237.571 60.1994 236.764 60.2173 235.904L 54.5951 235.904L 54.5951 233.969L 62.5038 233.969L 62.5038 235.393C 62.5038 236.791 62.2976 238.019 61.8851 239.076C 61.4906 240.134 60.9257 241.021 60.1904 241.738C 59.4551 242.454 58.5764 243.001 57.5541 243.377C 56.5319 243.736 55.4021 243.915 54.1647 243.915Z"/>
<path id="path43_fill" d="M 66.4206 224.453L 69.4603 224.453L 78.8217 240.34L 78.8217 224.453L 81.0544 224.453L 81.0544 243.673L 78.3644 243.673L 68.6533 227.195L 68.6533 243.673L 66.4206 243.673L 66.4206 224.453Z"/>
<path id="path44_fill" d="M 95.7766 226.764L 91.4725 229.856L 91.4725 227.678L 95.938 224.453L 98.1169 224.453L 98.1169 243.673L 95.7766 243.673L 95.7766 226.764Z"/>
<path id="path45_fill" d="M 101.772 246.227L 104.355 240.34L 106.534 241.361L 103.225 246.979L 101.772 246.227Z"/>
<path id="path46_fill" d="M 116.31 241.979C 117.996 241.979 119.26 241.352 120.103 240.098C 120.964 238.843 121.394 236.988 121.394 234.533L 121.394 233.458C 121.394 232.347 121.277 231.343 121.044 230.447C 120.811 229.533 120.47 228.754 120.022 228.109C 119.592 227.463 119.054 226.971 118.408 226.63C 117.78 226.272 117.063 226.092 116.256 226.092C 114.624 226.092 113.351 226.738 112.436 228.028C 111.522 229.3 111.064 231.128 111.064 233.512L 111.064 234.587C 111.064 237.042 111.531 238.888 112.463 240.125C 113.414 241.361 114.696 241.979 116.31 241.979ZM 116.31 243.915C 115.162 243.915 114.113 243.691 113.162 243.243C 112.23 242.795 111.432 242.168 110.768 241.361C 110.105 240.555 109.585 239.578 109.208 238.431C 108.849 237.284 108.67 236.012 108.67 234.614L 108.67 233.539C 108.67 232.123 108.84 230.841 109.181 229.695C 109.54 228.548 110.042 227.571 110.688 226.764C 111.351 225.94 112.149 225.313 113.082 224.883C 114.014 224.435 115.072 224.211 116.256 224.211C 117.44 224.211 118.498 224.435 119.43 224.883C 120.363 225.331 121.143 225.967 121.771 226.791C 122.416 227.616 122.909 228.592 123.25 229.721C 123.591 230.85 123.761 232.105 123.761 233.485L 123.761 234.56C 123.761 235.958 123.591 237.23 123.25 238.377C 122.927 239.524 122.443 240.51 121.798 241.334C 121.17 242.159 120.39 242.795 119.457 243.243C 118.543 243.691 117.493 243.915 116.31 243.915Z"/>
<path id="path47_fill" d="M 134.62 241.979C 136.306 241.979 137.57 241.352 138.413 240.098C 139.274 238.843 139.704 236.988 139.704 234.533L 139.704 233.458C 139.704 232.347 139.588 231.343 139.354 230.447C 139.121 229.533 138.781 228.754 138.332 228.109C 137.902 227.463 137.364 226.971 136.718 226.63C 136.091 226.272 135.373 226.092 134.566 226.092C 132.934 226.092 131.661 226.738 130.746 228.028C 129.832 229.3 129.374 231.128 129.374 233.512L 129.374 234.587C 129.374 237.042 129.841 238.888 130.773 240.125C 131.724 241.361 133.006 241.979 134.62 241.979ZM 134.62 243.915C 133.472 243.915 132.423 243.691 131.473 243.243C 130.54 242.795 129.742 242.168 129.079 241.361C 128.415 240.555 127.895 239.578 127.518 238.431C 127.16 237.284 126.98 236.012 126.98 234.614L 126.98 233.539C 126.98 232.123 127.151 230.841 127.491 229.695C 127.85 228.548 128.352 227.571 128.998 226.764C 129.661 225.94 130.459 225.313 131.392 224.883C 132.325 224.435 133.383 224.211 134.566 224.211C 135.75 224.211 136.808 224.435 137.74 224.883C 138.673 225.331 139.453 225.967 140.081 226.791C 140.726 227.616 141.22 228.592 141.56 229.721C 141.901 230.85 142.071 232.105 142.071 233.485L 142.071 234.56C 142.071 235.958 141.901 237.23 141.56 238.377C 141.238 239.524 140.753 240.51 140.108 241.334C 139.48 242.159 138.7 242.795 137.767 243.243C 136.853 243.691 135.804 243.915 134.62 243.915Z"/>
<path id="path48_fill" d="M 152.93 241.979C 154.616 241.979 155.88 241.352 156.723 240.098C 157.584 238.843 158.014 236.988 158.014 234.533L 158.014 233.458C 158.014 232.347 157.898 231.343 157.665 230.447C 157.432 229.533 157.091 228.754 156.642 228.109C 156.212 227.463 155.674 226.971 155.028 226.63C 154.401 226.272 153.683 226.092 152.876 226.092C 151.244 226.092 149.971 226.738 149.057 228.028C 148.142 229.3 147.685 231.128 147.685 233.512L 147.685 234.587C 147.685 237.042 148.151 238.888 149.083 240.125C 150.034 241.361 151.316 241.979 152.93 241.979ZM 152.93 243.915C 151.782 243.915 150.733 243.691 149.783 243.243C 148.85 242.795 148.052 242.168 147.389 241.361C 146.725 240.555 146.205 239.578 145.828 238.431C 145.47 237.284 145.29 236.012 145.29 234.614L 145.29 233.539C 145.29 232.123 145.461 230.841 145.802 229.695C 146.16 228.548 146.662 227.571 147.308 226.764C 147.972 225.94 148.77 225.313 149.702 224.883C 150.635 224.435 151.693 224.211 152.876 224.211C 154.06 224.211 155.118 224.435 156.051 224.883C 156.983 225.331 157.763 225.967 158.391 226.791C 159.037 227.616 159.53 228.592 159.871 229.721C 160.211 230.85 160.382 232.105 160.382 233.485L 160.382 234.56C 160.382 235.958 160.211 237.23 159.871 238.377C 159.548 239.524 159.064 240.51 158.418 241.334C 157.79 242.159 157.01 242.795 156.078 243.243C 155.163 243.691 154.114 243.915 152.93 243.915Z"/>
<path id="path49_fill" fill-rule="evenodd" d="M 248.082 206.376L 248.082 267.607L 469.264 267.607L 469.264 206.376L 248.082 206.376ZM 247.335 204.883C 246.922 204.883 246.588 205.217 246.588 205.63L 246.588 268.353C 246.588 268.766 246.922 269.1 247.335 269.1L 470.011 269.1C 470.424 269.1 470.758 268.766 470.758 268.353L 470.758 205.63C 470.758 205.217 470.424 204.883 470.011 204.883L 247.335 204.883Z"/>
<path id="path50_fill" d="M 249.143 158.369L 251.484 158.369L 251.484 177.589L 249.143 177.589L 249.143 158.369Z"/>
<path id="path51_fill" d="M 256.308 163.53L 258.541 163.53L 258.541 165.761C 258.864 165.098 259.402 164.525 260.155 164.041C 260.926 163.539 261.894 163.288 263.06 163.288C 263.795 163.288 264.459 163.395 265.051 163.611C 265.66 163.808 266.18 164.139 266.611 164.605C 267.059 165.053 267.4 165.636 267.633 166.352C 267.884 167.069 268.01 167.938 268.01 168.96L 268.01 177.589L 265.777 177.589L 265.777 168.799C 265.777 167.562 265.508 166.657 264.97 166.084C 264.432 165.51 263.598 165.223 262.468 165.223C 261.948 165.223 261.446 165.304 260.962 165.465C 260.496 165.627 260.083 165.869 259.724 166.191C 259.366 166.514 259.079 166.917 258.864 167.401C 258.648 167.885 258.541 168.44 258.541 169.068L 258.541 177.589L 256.308 177.589L 256.308 163.53Z"/>
<path id="path52_fill" d="M 276.662 177.777C 275.371 177.777 274.412 177.437 273.784 176.756C 273.174 176.075 272.869 175.179 272.869 174.067L 272.869 165.412L 270.852 165.412L 270.852 163.53L 272.869 163.53L 272.869 160.331L 275.102 160.331L 275.102 163.53L 278.384 163.53L 278.384 165.412L 275.102 165.412L 275.102 173.852C 275.102 175.214 275.685 175.895 276.851 175.895C 277.209 175.895 277.523 175.869 277.792 175.815C 278.061 175.761 278.321 175.689 278.572 175.6L 278.572 177.481C 278.339 177.571 278.079 177.643 277.792 177.697C 277.505 177.75 277.129 177.777 276.662 177.777Z"/>
<path id="path53_fill" d="M 287.704 177.831C 286.718 177.831 285.803 177.661 284.96 177.32C 284.135 176.98 283.418 176.505 282.808 175.895C 282.199 175.268 281.723 174.516 281.383 173.637C 281.06 172.759 280.898 171.783 280.898 170.707L 280.898 170.492C 280.898 169.435 281.06 168.467 281.383 167.589C 281.705 166.693 282.154 165.931 282.728 165.304C 283.319 164.659 284.019 164.166 284.826 163.826C 285.633 163.467 286.521 163.288 287.489 163.288C 288.296 163.288 289.076 163.422 289.829 163.691C 290.6 163.942 291.282 164.345 291.874 164.901C 292.466 165.456 292.932 166.182 293.273 167.078C 293.631 167.956 293.811 169.023 293.811 170.277L 293.811 171.003L 283.212 171.003C 283.266 172.616 283.669 173.852 284.422 174.713C 285.176 175.555 286.278 175.976 287.731 175.976C 289.937 175.976 291.183 175.161 291.47 173.53L 293.703 173.53C 293.452 174.946 292.788 176.021 291.712 176.756C 290.636 177.473 289.3 177.831 287.704 177.831ZM 291.524 169.202C 291.416 167.75 291.004 166.711 290.287 166.084C 289.587 165.456 288.655 165.143 287.489 165.143C 286.341 165.143 285.4 165.51 284.664 166.245C 283.947 166.962 283.49 167.947 283.293 169.202L 291.524 169.202Z"/>
<path id="path54_fill" d="M 297.237 163.53L 299.469 163.53L 299.469 166.057C 299.918 165.268 300.483 164.623 301.164 164.121C 301.864 163.602 302.841 163.324 304.096 163.288L 304.096 165.385C 303.397 165.421 302.76 165.51 302.186 165.654C 301.612 165.797 301.119 166.039 300.707 166.379C 300.312 166.72 300.007 167.177 299.792 167.75C 299.577 168.306 299.469 169.014 299.469 169.874L 299.469 177.589L 297.237 177.589L 297.237 163.53Z"/>
<path id="path55_fill" d="M 305.895 163.53L 308.316 163.53L 312.485 175.331L 316.601 163.53L 318.915 163.53L 313.857 177.589L 311.006 177.589L 305.895 163.53Z"/>
<path id="path56_fill" d="M 325.244 177.831C 324.599 177.831 323.989 177.75 323.415 177.589C 322.841 177.428 322.339 177.177 321.909 176.836C 321.496 176.496 321.164 176.066 320.913 175.546C 320.68 175.026 320.564 174.408 320.564 173.691C 320.564 172.885 320.761 172.204 321.155 171.648C 321.55 171.093 322.07 170.645 322.716 170.304C 323.379 169.964 324.132 169.722 324.975 169.578C 325.836 169.417 326.715 169.336 327.611 169.336L 329.629 169.336L 329.629 168.315C 329.629 167.186 329.396 166.379 328.93 165.895C 328.463 165.394 327.692 165.143 326.616 165.143C 324.679 165.143 323.603 165.985 323.388 167.67L 321.155 167.67C 321.227 166.863 321.424 166.182 321.747 165.627C 322.088 165.071 322.509 164.623 323.012 164.283C 323.532 163.924 324.105 163.673 324.733 163.53C 325.379 163.369 326.042 163.288 326.724 163.288C 327.405 163.288 328.051 163.369 328.661 163.53C 329.288 163.673 329.835 163.942 330.302 164.336C 330.768 164.713 331.144 165.223 331.431 165.869C 331.718 166.514 331.862 167.329 331.862 168.315L 331.862 177.589L 329.629 177.589L 329.629 175.815C 329.109 176.478 328.508 176.98 327.827 177.32C 327.145 177.661 326.284 177.831 325.244 177.831ZM 325.459 176.057C 326.051 176.057 326.598 175.985 327.1 175.842C 327.62 175.68 328.06 175.456 328.419 175.17C 328.795 174.883 329.091 174.533 329.306 174.121C 329.521 173.691 329.629 173.207 329.629 172.67L 329.629 170.922L 327.692 170.922C 326.993 170.922 326.338 170.976 325.728 171.084C 325.137 171.173 324.617 171.326 324.168 171.541C 323.738 171.756 323.397 172.042 323.146 172.401C 322.913 172.741 322.796 173.171 322.796 173.691C 322.796 174.426 322.994 175.008 323.388 175.438C 323.783 175.851 324.473 176.057 325.459 176.057Z"/>
<path id="path57_fill" d="M 336.301 156.809L 338.561 156.809L 338.561 177.589L 336.301 177.589L 336.301 156.809Z"/>
<path id="path58_fill" d="M 272.92 224.453L 276.175 224.453L 282.12 239.426L 287.877 224.453L 291.105 224.453L 291.105 243.673L 288.765 243.673L 288.765 227.49L 282.389 243.673L 281.663 243.673L 275.072 227.49L 275.072 243.673L 272.92 243.673L 272.92 224.453Z"/>
<path id="path59_fill" d="M 301.662 242.06C 302.361 242.06 302.998 241.935 303.572 241.684C 304.146 241.433 304.63 241.074 305.025 240.608C 305.419 240.143 305.724 239.587 305.939 238.942C 306.154 238.279 306.262 237.553 306.262 236.764L 306.262 236.576C 306.262 234.945 305.84 233.646 304.998 232.678C 304.173 231.711 303.061 231.227 301.662 231.227C 300.245 231.227 299.124 231.711 298.299 232.678C 297.474 233.628 297.062 234.919 297.062 236.549L 297.062 236.764C 297.062 238.377 297.465 239.668 298.272 240.635C 299.097 241.585 300.227 242.06 301.662 242.06ZM 301.635 243.915C 300.631 243.915 299.707 243.736 298.864 243.377C 298.021 243.019 297.295 242.526 296.685 241.899C 296.076 241.254 295.6 240.492 295.26 239.614C 294.919 238.736 294.749 237.786 294.749 236.764L 294.749 236.549C 294.749 235.492 294.919 234.524 295.26 233.646C 295.618 232.768 296.103 232.015 296.712 231.388C 297.322 230.743 298.048 230.25 298.891 229.91C 299.752 229.551 300.676 229.372 301.662 229.372C 302.666 229.372 303.59 229.551 304.433 229.91C 305.276 230.25 306.002 230.734 306.612 231.361C 307.221 231.988 307.697 232.741 308.037 233.619C 308.396 234.497 308.575 235.465 308.575 236.522L 308.575 236.738C 308.575 237.795 308.396 238.763 308.037 239.641C 307.697 240.519 307.212 241.281 306.585 241.926C 305.975 242.553 305.249 243.046 304.406 243.404C 303.563 243.745 302.639 243.915 301.635 243.915Z"/>
<path id="path60_fill" d="M 312.032 229.614L 314.265 229.614L 314.265 231.845C 314.588 231.182 315.126 230.609 315.879 230.125C 316.65 229.623 317.619 229.372 318.785 229.372C 319.52 229.372 320.183 229.479 320.775 229.695C 321.385 229.892 321.905 230.223 322.335 230.689C 322.784 231.137 323.124 231.72 323.358 232.436C 323.609 233.153 323.734 234.022 323.734 235.044L 323.734 243.673L 321.501 243.673L 321.501 234.883C 321.501 233.646 321.232 232.741 320.694 232.168C 320.156 231.594 319.323 231.307 318.193 231.307C 317.673 231.307 317.17 231.388 316.686 231.549C 316.22 231.711 315.808 231.953 315.449 232.275C 315.09 232.598 314.803 233.001 314.588 233.485C 314.373 233.969 314.265 234.524 314.265 235.152L 314.265 243.673L 312.032 243.673L 312.032 229.614Z"/>
<path id="path61_fill" d="M 332.387 243.861C 331.096 243.861 330.136 243.521 329.509 242.84C 328.899 242.159 328.594 241.263 328.594 240.151L 328.594 231.496L 326.576 231.496L 326.576 229.614L 328.594 229.614L 328.594 226.415L 330.827 226.415L 330.827 229.614L 334.109 229.614L 334.109 231.496L 330.827 231.496L 330.827 239.936C 330.827 241.298 331.41 241.979 332.575 241.979C 332.934 241.979 333.248 241.953 333.517 241.899C 333.786 241.845 334.046 241.773 334.297 241.684L 334.297 243.565C 334.064 243.655 333.804 243.727 333.517 243.781C 333.23 243.834 332.853 243.861 332.387 243.861Z"/>
<path id="path62_fill" d="M 337.672 222.893L 339.905 222.893L 339.905 231.845C 340.228 231.182 340.766 230.609 341.519 230.125C 342.29 229.623 343.258 229.372 344.424 229.372C 345.159 229.372 345.823 229.479 346.415 229.695C 347.024 229.892 347.544 230.223 347.975 230.689C 348.423 231.137 348.764 231.72 348.997 232.436C 349.248 233.153 349.374 234.022 349.374 235.044L 349.374 243.673L 347.141 243.673L 347.141 234.883C 347.141 233.646 346.872 232.741 346.334 232.168C 345.796 231.594 344.962 231.307 343.832 231.307C 343.312 231.307 342.81 231.388 342.326 231.549C 341.86 231.711 341.447 231.953 341.088 232.275C 340.73 232.598 340.443 233.001 340.228 233.485C 340.012 233.969 339.905 234.524 339.905 235.152L 339.905 243.673L 337.672 243.673L 337.672 222.893Z"/>
<path id="path63_fill" d="M 353.803 222.893L 356.063 222.893L 356.063 243.673L 353.803 243.673L 353.803 222.893Z"/>
<path id="path64_fill" d="M 364.559 242.221L 359.045 229.614L 361.439 229.614L 365.743 239.695L 369.644 229.614L 371.93 229.614L 364.156 248.565L 361.896 248.565L 364.559 242.221Z"/>
<path id="path65_fill" fill-rule="evenodd" d="M 442.363 243.712L 441.5 242.218L 436.755 234.005L 435.892 232.511L 437.618 232.511L 447.109 232.511L 448.835 232.511L 447.972 234.005L 443.226 242.218L 442.363 243.712ZM 442.363 240.725L 438.481 234.005L 446.246 234.005L 442.363 240.725Z"/>
<path id="path66_fill" d="M 40.3537 342.108C 38.9549 342.108 37.6995 341.884 36.5876 341.436C 35.4937 340.97 34.5522 340.315 33.7631 339.473C 32.9919 338.613 32.4001 337.582 31.9877 336.382C 31.5752 335.181 31.3689 333.846 31.3689 332.376L 31.3689 332.161C 31.3689 330.728 31.5931 329.419 32.0415 328.237C 32.4898 327.036 33.1175 325.996 33.9245 325.118C 34.7315 324.24 35.682 323.559 36.7759 323.075C 37.8878 322.591 39.0983 322.35 40.4075 322.35C 41.4118 322.35 42.3623 322.484 43.259 322.753C 44.1556 323.022 44.9537 323.416 45.6531 323.936C 46.3525 324.455 46.9264 325.109 47.3747 325.898C 47.8231 326.686 48.101 327.6 48.2086 328.64L 45.8952 328.64C 45.6441 327.17 45.0792 326.068 44.2005 325.333C 43.3397 324.581 42.0843 324.204 40.4344 324.204C 39.4481 324.204 38.5424 324.393 37.7175 324.769C 36.8925 325.145 36.1931 325.674 35.6192 326.355C 35.0453 327.036 34.597 327.869 34.2742 328.855C 33.9514 329.823 33.79 330.916 33.79 332.134L 33.79 332.35C 33.79 333.568 33.9424 334.67 34.2473 335.656C 34.5522 336.624 34.9826 337.448 35.5385 338.129C 36.1124 338.792 36.8028 339.303 37.6099 339.661C 38.4348 340.02 39.3673 340.199 40.4075 340.199C 41.9857 340.199 43.2859 339.814 44.3081 339.043C 45.3303 338.255 45.9669 337.072 46.218 335.495L 48.3969 335.495C 48.0562 337.717 47.1685 339.375 45.7338 340.468C 44.2991 341.561 42.5057 342.108 40.3537 342.108Z"/>
<path id="path67_fill" d="M 51.799 327.807L 54.0318 327.807L 54.0318 330.333C 54.4801 329.545 55.045 328.9 55.7265 328.398C 56.4259 327.878 57.4033 327.6 58.6586 327.565L 58.6586 329.661C 57.9592 329.697 57.3226 329.787 56.7487 329.93C 56.1748 330.074 55.6816 330.315 55.2692 330.656C 54.8746 330.996 54.5698 331.453 54.3546 332.027C 54.1394 332.582 54.0318 333.29 54.0318 334.151L 54.0318 341.866L 51.799 341.866L 51.799 327.807Z"/>
<path id="path68_fill" d="M 67.2756 342.108C 66.2893 342.108 65.3746 341.937 64.5318 341.597C 63.7068 341.256 62.9895 340.781 62.3797 340.172C 61.77 339.545 61.2947 338.792 60.954 337.914C 60.6312 337.036 60.4698 336.059 60.4698 334.984L 60.4698 334.769C 60.4698 333.712 60.6312 332.744 60.954 331.866C 61.2768 330.97 61.7251 330.208 62.299 329.581C 62.8908 328.936 63.5902 328.443 64.3973 328.102C 65.2043 327.744 66.092 327.565 67.0604 327.565C 67.8674 327.565 68.6475 327.699 69.4007 327.968C 70.1719 328.219 70.8534 328.622 71.4452 329.177C 72.037 329.733 72.5033 330.459 72.844 331.355C 73.2027 332.233 73.382 333.299 73.382 334.554L 73.382 335.28L 62.7832 335.28C 62.837 336.892 63.2405 338.129 63.9938 338.989C 64.747 339.832 65.8499 340.253 67.3025 340.253C 69.5083 340.253 70.7547 339.437 71.0417 337.806L 73.2744 337.806C 73.0233 339.222 72.3598 340.298 71.2838 341.032C 70.2078 341.749 68.8717 342.108 67.2756 342.108ZM 71.0955 333.479C 70.9879 332.027 70.5754 330.988 69.8581 330.36C 69.1586 329.733 68.2261 329.419 67.0604 329.419C 65.9127 329.419 64.9711 329.787 64.2359 330.522C 63.5185 331.238 63.0612 332.224 62.8639 333.479L 71.0955 333.479Z"/>
<path id="path69_fill" d="M 80.4634 342.108C 79.8177 342.108 79.208 342.027 78.6341 341.866C 78.0602 341.704 77.5581 341.453 77.1277 341.113C 76.7152 340.772 76.3835 340.342 76.1324 339.823C 75.8992 339.303 75.7827 338.685 75.7827 337.968C 75.7827 337.161 75.9799 336.48 76.3745 335.925C 76.769 335.369 77.2891 334.921 77.9347 334.581C 78.5983 334.24 79.3515 333.998 80.1944 333.855C 81.0552 333.694 81.9339 333.613 82.8306 333.613L 84.8481 333.613L 84.8481 332.591C 84.8481 331.462 84.615 330.656 84.1487 330.172C 83.6824 329.67 82.9113 329.419 81.8353 329.419C 79.8984 329.419 78.8224 330.262 78.6072 331.946L 76.3745 331.946C 76.4462 331.14 76.6435 330.459 76.9663 329.903C 77.307 329.348 77.7285 328.9 78.2306 328.559C 78.7507 328.201 79.3246 327.95 79.9522 327.807C 80.5979 327.645 81.2614 327.565 81.9429 327.565C 82.6244 327.565 83.27 327.645 83.8797 327.807C 84.5074 327.95 85.0544 328.219 85.5206 328.613C 85.9869 328.989 86.3635 329.5 86.6505 330.145C 86.9374 330.79 87.0809 331.606 87.0809 332.591L 87.0809 341.866L 84.8481 341.866L 84.8481 340.091C 84.3281 340.754 83.7273 341.256 83.0458 341.597C 82.3643 341.937 81.5035 342.108 80.4634 342.108ZM 80.6786 340.333C 81.2704 340.333 81.8173 340.262 82.3195 340.118C 82.8396 339.957 83.2789 339.733 83.6376 339.446C 84.0142 339.16 84.3101 338.81 84.5253 338.398C 84.7405 337.968 84.8481 337.484 84.8481 336.946L 84.8481 335.199L 82.9113 335.199C 82.2119 335.199 81.5573 335.253 80.9476 335.36C 80.3558 335.45 79.8357 335.602 79.3873 335.817C 78.9569 336.032 78.6162 336.319 78.3651 336.677C 78.132 337.018 78.0154 337.448 78.0154 337.968C 78.0154 338.703 78.2127 339.285 78.6072 339.715C 79.0018 340.127 79.6922 340.333 80.6786 340.333Z"/>
<path id="path70_fill" d="M 95.7439 342.054C 94.4527 342.054 93.4932 341.713 92.8655 341.032C 92.2558 340.351 91.9509 339.455 91.9509 338.344L 91.9509 329.688L 89.9334 329.688L 89.9334 327.807L 91.9509 327.807L 91.9509 324.608L 94.1837 324.608L 94.1837 327.807L 97.4655 327.807L 97.4655 329.688L 94.1837 329.688L 94.1837 338.129C 94.1837 339.491 94.7665 340.172 95.9322 340.172C 96.2909 340.172 96.6047 340.145 96.8737 340.091C 97.1427 340.038 97.4027 339.966 97.6538 339.876L 97.6538 341.758C 97.4207 341.848 97.1606 341.919 96.8737 341.973C 96.5868 342.027 96.2102 342.054 95.7439 342.054Z"/>
<path id="path71_fill" d="M 106.786 342.108C 105.799 342.108 104.885 341.937 104.042 341.597C 103.217 341.256 102.5 340.781 101.89 340.172C 101.28 339.545 100.805 338.792 100.464 337.914C 100.141 337.036 99.9799 336.059 99.9799 334.984L 99.9799 334.769C 99.9799 333.712 100.141 332.744 100.464 331.866C 100.787 330.97 101.235 330.208 101.809 329.581C 102.401 328.936 103.1 328.443 103.907 328.102C 104.714 327.744 105.602 327.565 106.57 327.565C 107.377 327.565 108.158 327.699 108.911 327.968C 109.682 328.219 110.363 328.622 110.955 329.177C 111.547 329.733 112.013 330.459 112.354 331.355C 112.713 332.233 112.892 333.299 112.892 334.554L 112.892 335.28L 102.293 335.28C 102.347 336.892 102.751 338.129 103.504 338.989C 104.257 339.832 105.36 340.253 106.813 340.253C 109.018 340.253 110.265 339.437 110.552 337.806L 112.784 337.806C 112.533 339.222 111.87 340.298 110.794 341.032C 109.718 341.749 108.382 342.108 106.786 342.108ZM 110.606 333.479C 110.498 332.027 110.085 330.988 109.368 330.36C 108.669 329.733 107.736 329.419 106.57 329.419C 105.423 329.419 104.481 329.787 103.746 330.522C 103.029 331.238 102.571 332.224 102.374 333.479L 110.606 333.479Z"/>
<path id="path72_fill" d="M 126.961 342.108C 126.316 342.108 125.706 342.027 125.132 341.866C 124.558 341.704 124.056 341.453 123.626 341.113C 123.213 340.772 122.881 340.342 122.63 339.823C 122.397 339.303 122.281 338.685 122.281 337.968C 122.281 337.161 122.478 336.48 122.872 335.925C 123.267 335.369 123.787 334.921 124.433 334.581C 125.096 334.24 125.849 333.998 126.692 333.855C 127.553 333.694 128.432 333.613 129.328 333.613L 131.346 333.613L 131.346 332.591C 131.346 331.462 131.113 330.656 130.647 330.172C 130.18 329.67 129.409 329.419 128.333 329.419C 126.396 329.419 125.32 330.262 125.105 331.946L 122.872 331.946C 122.944 331.14 123.141 330.459 123.464 329.903C 123.805 329.348 124.226 328.9 124.729 328.559C 125.249 328.201 125.822 327.95 126.45 327.807C 127.096 327.645 127.759 327.565 128.441 327.565C 129.122 327.565 129.768 327.645 130.378 327.807C 131.005 327.95 131.552 328.219 132.019 328.613C 132.485 328.989 132.861 329.5 133.148 330.145C 133.435 330.79 133.579 331.606 133.579 332.591L 133.579 341.866L 131.346 341.866L 131.346 340.091C 130.826 340.754 130.225 341.256 129.544 341.597C 128.862 341.937 128.001 342.108 126.961 342.108ZM 127.176 340.333C 127.768 340.333 128.315 340.262 128.817 340.118C 129.337 339.957 129.777 339.733 130.136 339.446C 130.512 339.16 130.808 338.81 131.023 338.398C 131.238 337.968 131.346 337.484 131.346 336.946L 131.346 335.199L 129.409 335.199C 128.71 335.199 128.055 335.253 127.445 335.36C 126.854 335.45 126.334 335.602 125.885 335.817C 125.455 336.032 125.114 336.319 124.863 336.677C 124.63 337.018 124.513 337.448 124.513 337.968C 124.513 338.703 124.711 339.285 125.105 339.715C 125.5 340.127 126.19 340.333 127.176 340.333Z"/>
<path id="path73_fill" d="M 145.084 327.807L 147.316 327.807L 147.316 330.172C 147.514 329.832 147.774 329.509 148.097 329.204C 148.437 328.882 148.814 328.604 149.226 328.371C 149.657 328.12 150.114 327.923 150.598 327.78C 151.083 327.636 151.576 327.565 152.078 327.565C 152.993 327.565 153.844 327.726 154.633 328.048C 155.423 328.371 156.095 328.837 156.651 329.446C 157.225 330.056 157.673 330.799 157.996 331.677C 158.319 332.556 158.48 333.541 158.48 334.634L 158.48 334.85C 158.48 335.925 158.328 336.91 158.023 337.806C 157.718 338.685 157.288 339.446 156.732 340.091C 156.176 340.737 155.503 341.238 154.714 341.597C 153.925 341.937 153.046 342.108 152.078 342.108C 150.912 342.108 149.926 341.857 149.119 341.355C 148.33 340.853 147.729 340.253 147.316 339.554L 147.316 346.758L 145.084 346.758L 145.084 327.807ZM 151.863 340.253C 153.261 340.253 154.329 339.805 155.064 338.909C 155.799 337.995 156.167 336.677 156.167 334.957L 156.167 334.742C 156.167 333.846 156.05 333.066 155.817 332.403C 155.584 331.74 155.27 331.194 154.876 330.763C 154.499 330.315 154.042 329.984 153.504 329.769C 152.984 329.536 152.428 329.419 151.836 329.419C 151.19 329.419 150.58 329.527 150.007 329.742C 149.451 329.957 148.966 330.289 148.554 330.737C 148.141 331.167 147.819 331.722 147.585 332.403C 147.352 333.066 147.236 333.846 147.236 334.742L 147.236 334.957C 147.236 336.749 147.666 338.084 148.527 338.962C 149.388 339.823 150.5 340.253 151.863 340.253Z"/>
<path id="path74_fill" d="M 165.473 342.108C 164.827 342.108 164.218 342.027 163.644 341.866C 163.07 341.704 162.568 341.453 162.137 341.113C 161.725 340.772 161.393 340.342 161.142 339.823C 160.909 339.303 160.792 338.685 160.792 337.968C 160.792 337.161 160.99 336.48 161.384 335.925C 161.779 335.369 162.299 334.921 162.944 334.581C 163.608 334.24 164.361 333.998 165.204 333.855C 166.065 333.694 166.944 333.613 167.84 333.613L 169.858 333.613L 169.858 332.591C 169.858 331.462 169.625 330.656 169.158 330.172C 168.692 329.67 167.921 329.419 166.845 329.419C 164.908 329.419 163.832 330.262 163.617 331.946L 161.384 331.946C 161.456 331.14 161.653 330.459 161.976 329.903C 162.317 329.348 162.738 328.9 163.24 328.559C 163.76 328.201 164.334 327.95 164.962 327.807C 165.608 327.645 166.271 327.565 166.953 327.565C 167.634 327.565 168.28 327.645 168.889 327.807C 169.517 327.95 170.064 328.219 170.53 328.613C 170.997 328.989 171.373 329.5 171.66 330.145C 171.947 330.79 172.091 331.606 172.091 332.591L 172.091 341.866L 169.858 341.866L 169.858 340.091C 169.338 340.754 168.737 341.256 168.056 341.597C 167.374 341.937 166.513 342.108 165.473 342.108ZM 165.688 340.333C 166.28 340.333 166.827 340.262 167.329 340.118C 167.849 339.957 168.289 339.733 168.647 339.446C 169.024 339.16 169.32 338.81 169.535 338.398C 169.75 337.968 169.858 337.484 169.858 336.946L 169.858 335.199L 167.921 335.199C 167.222 335.199 166.567 335.253 165.957 335.36C 165.365 335.45 164.845 335.602 164.397 335.817C 163.967 336.032 163.626 336.319 163.375 336.677C 163.142 337.018 163.025 337.448 163.025 337.968C 163.025 338.703 163.222 339.285 163.617 339.715C 164.011 340.127 164.702 340.333 165.688 340.333Z"/>
<path id="path75_fill" d="M 182.099 347C 181.058 347 180.153 346.883 179.382 346.651C 178.628 346.418 177.992 346.104 177.472 345.71C 176.97 345.333 176.575 344.876 176.288 344.339C 176.001 343.819 175.813 343.263 175.723 342.672L 178.01 342.672C 178.333 344.303 179.687 345.118 182.072 345.118C 183.471 345.118 184.573 344.778 185.38 344.097C 186.187 343.416 186.591 342.314 186.591 340.79L 186.591 338.747C 186.394 339.088 186.125 339.419 185.784 339.742C 185.461 340.065 185.094 340.351 184.681 340.602C 184.269 340.835 183.82 341.032 183.336 341.194C 182.852 341.337 182.35 341.409 181.83 341.409C 180.915 341.409 180.063 341.247 179.274 340.925C 178.485 340.584 177.803 340.118 177.23 339.527C 176.674 338.936 176.234 338.237 175.911 337.43C 175.589 336.606 175.427 335.71 175.427 334.742L 175.427 334.554C 175.427 333.604 175.589 332.708 175.911 331.866C 176.234 331.005 176.683 330.262 177.257 329.634C 177.83 328.989 178.521 328.488 179.328 328.129C 180.135 327.753 181.023 327.565 181.991 327.565C 183.175 327.565 184.134 327.815 184.869 328.317C 185.605 328.801 186.179 329.384 186.591 330.065L 186.591 327.807L 188.824 327.807L 188.824 340.925C 188.824 341.946 188.653 342.833 188.313 343.586C 187.972 344.357 187.506 344.993 186.914 345.495C 186.322 345.996 185.614 346.373 184.789 346.624C 183.982 346.875 183.085 347 182.099 347ZM 182.072 339.554C 182.717 339.554 183.318 339.446 183.874 339.231C 184.448 338.998 184.941 338.676 185.354 338.263C 185.766 337.833 186.089 337.314 186.322 336.704C 186.555 336.077 186.672 335.369 186.672 334.581L 186.672 334.393C 186.672 332.815 186.268 331.597 185.461 330.737C 184.672 329.858 183.587 329.419 182.206 329.419C 181.507 329.419 180.879 329.545 180.323 329.796C 179.767 330.029 179.301 330.369 178.924 330.817C 178.548 331.265 178.252 331.803 178.037 332.43C 177.839 333.039 177.741 333.712 177.741 334.446L 177.741 334.661C 177.741 335.432 177.857 336.122 178.09 336.731C 178.324 337.323 178.628 337.833 179.005 338.263C 179.4 338.676 179.857 338.998 180.377 339.231C 180.915 339.446 181.48 339.554 182.072 339.554Z"/>
<path id="path76_fill" d="M 199.098 342.108C 198.112 342.108 197.197 341.937 196.355 341.597C 195.53 341.256 194.812 340.781 194.203 340.172C 193.593 339.545 193.118 338.792 192.777 337.914C 192.454 337.036 192.293 336.059 192.293 334.984L 192.293 334.769C 192.293 333.712 192.454 332.744 192.777 331.866C 193.1 330.97 193.548 330.208 194.122 329.581C 194.714 328.936 195.413 328.443 196.22 328.102C 197.027 327.744 197.915 327.565 198.883 327.565C 199.69 327.565 200.47 327.699 201.224 327.968C 201.995 328.219 202.676 328.622 203.268 329.177C 203.86 329.733 204.326 330.459 204.667 331.355C 205.026 332.233 205.205 333.299 205.205 334.554L 205.205 335.28L 194.606 335.28C 194.66 336.892 195.063 338.129 195.817 338.989C 196.57 339.832 197.673 340.253 199.125 340.253C 201.331 340.253 202.578 339.437 202.865 337.806L 205.097 337.806C 204.846 339.222 204.183 340.298 203.107 341.032C 202.031 341.749 200.695 342.108 199.098 342.108ZM 202.918 333.479C 202.811 332.027 202.398 330.988 201.681 330.36C 200.981 329.733 200.049 329.419 198.883 329.419C 197.735 329.419 196.794 329.787 196.059 330.522C 195.341 331.238 194.884 332.224 194.687 333.479L 202.918 333.479Z"/>
<path id="path77_fill" d="M 216.234 329.688L 214.217 329.688L 214.217 327.807L 216.234 327.807L 216.234 325.522C 216.234 324.088 216.584 322.977 217.283 322.188C 217.983 321.4 219.032 321.005 220.431 321.005C 220.789 321.005 221.085 321.032 221.318 321.086C 221.552 321.122 221.812 321.185 222.099 321.274L 222.099 323.156C 221.901 323.066 221.659 322.995 221.372 322.941C 221.103 322.887 220.816 322.86 220.511 322.86C 219.776 322.86 219.247 323.084 218.924 323.532C 218.619 323.98 218.467 324.563 218.467 325.28L 218.467 327.807L 221.91 327.807L 221.91 329.688L 218.467 329.688L 218.467 341.866L 216.234 341.866L 216.234 329.688Z"/>
<path id="path78_fill" d="M 230.257 340.253C 230.957 340.253 231.593 340.127 232.167 339.876C 232.741 339.625 233.225 339.267 233.62 338.801C 234.014 338.335 234.319 337.78 234.534 337.134C 234.75 336.471 234.857 335.746 234.857 334.957L 234.857 334.769C 234.857 333.138 234.436 331.839 233.593 330.871C 232.768 329.903 231.656 329.419 230.257 329.419C 228.84 329.419 227.72 329.903 226.895 330.871C 226.07 331.821 225.657 333.111 225.657 334.742L 225.657 334.957C 225.657 336.57 226.061 337.86 226.868 338.828C 227.693 339.778 228.822 340.253 230.257 340.253ZM 230.23 342.108C 229.226 342.108 228.302 341.928 227.46 341.57C 226.617 341.211 225.89 340.719 225.281 340.091C 224.671 339.446 224.196 338.685 223.855 337.806C 223.514 336.928 223.344 335.979 223.344 334.957L 223.344 334.742C 223.344 333.685 223.514 332.717 223.855 331.839C 224.214 330.961 224.698 330.208 225.307 329.581C 225.917 328.936 226.644 328.443 227.486 328.102C 228.347 327.744 229.271 327.565 230.257 327.565C 231.261 327.565 232.185 327.744 233.028 328.102C 233.871 328.443 234.597 328.927 235.207 329.554C 235.817 330.181 236.292 330.934 236.633 331.812C 236.991 332.69 237.171 333.658 237.171 334.715L 237.171 334.93C 237.171 335.987 236.991 336.955 236.633 337.833C 236.292 338.711 235.808 339.473 235.18 340.118C 234.57 340.746 233.844 341.238 233.001 341.597C 232.158 341.937 231.235 342.108 230.23 342.108Z"/>
<path id="path79_fill" d="M 240.628 327.807L 242.86 327.807L 242.86 330.333C 243.309 329.545 243.874 328.9 244.555 328.398C 245.255 327.878 246.232 327.6 247.487 327.565L 247.487 329.661C 246.788 329.697 246.151 329.787 245.577 329.93C 245.004 330.074 244.51 330.315 244.098 330.656C 243.703 330.996 243.398 331.453 243.183 332.027C 242.968 332.582 242.86 333.29 242.86 334.151L 242.86 341.866L 240.628 341.866L 240.628 327.807Z"/>
<path id="path80_fill" d="M 257.861 327.807L 260.094 327.807L 260.094 329.957C 260.416 329.294 260.936 328.729 261.654 328.263C 262.389 327.798 263.268 327.565 264.29 327.565C 265.205 327.565 266.03 327.771 266.765 328.183C 267.5 328.577 268.047 329.249 268.406 330.199C 268.657 329.733 268.962 329.339 269.32 329.016C 269.697 328.676 270.101 328.398 270.531 328.183C 270.961 327.968 271.41 327.815 271.876 327.726C 272.342 327.618 272.791 327.565 273.221 327.565C 273.849 327.565 274.449 327.663 275.023 327.86C 275.597 328.057 276.099 328.38 276.53 328.828C 276.96 329.276 277.301 329.858 277.552 330.575C 277.821 331.274 277.955 332.134 277.955 333.156L 277.955 341.866L 275.723 341.866L 275.723 332.995C 275.723 331.758 275.463 330.871 274.943 330.333C 274.441 329.778 273.705 329.5 272.737 329.5C 272.288 329.5 271.84 329.581 271.392 329.742C 270.943 329.885 270.54 330.118 270.181 330.441C 269.841 330.746 269.563 331.14 269.347 331.624C 269.132 332.09 269.025 332.636 269.025 333.263L 269.025 341.866L 266.792 341.866L 266.792 332.995C 266.792 331.758 266.532 330.871 266.012 330.333C 265.51 329.778 264.774 329.5 263.806 329.5C 263.358 329.5 262.909 329.581 262.461 329.742C 262.012 329.885 261.609 330.118 261.25 330.441C 260.91 330.746 260.632 331.14 260.416 331.624C 260.201 332.09 260.094 332.636 260.094 333.263L 260.094 341.866L 257.861 341.866L 257.861 327.807Z"/>
<path id="path81_fill" d="M 285.878 340.414L 280.363 327.807L 282.757 327.807L 287.062 337.887L 290.962 327.807L 293.249 327.807L 285.474 346.758L 283.215 346.758L 285.878 340.414Z"/>
<path id="path82_fill" d="M 309.145 342.108C 308.159 342.108 307.244 341.946 306.401 341.624C 305.577 341.283 304.85 340.808 304.223 340.199C 303.613 339.572 303.129 338.819 302.77 337.941C 302.429 337.063 302.259 336.077 302.259 334.984L 302.259 334.769C 302.259 333.694 302.438 332.717 302.797 331.839C 303.155 330.943 303.64 330.181 304.249 329.554C 304.877 328.927 305.603 328.443 306.428 328.102C 307.271 327.744 308.159 327.565 309.092 327.565C 309.827 327.565 310.535 327.654 311.217 327.833C 311.916 328.013 312.535 328.299 313.073 328.694C 313.629 329.07 314.095 329.572 314.472 330.199C 314.848 330.826 315.09 331.588 315.198 332.484L 312.992 332.484C 312.813 331.373 312.355 330.584 311.62 330.118C 310.903 329.652 310.06 329.419 309.092 329.419C 308.446 329.419 307.845 329.545 307.289 329.796C 306.751 330.047 306.276 330.405 305.863 330.871C 305.469 331.319 305.155 331.875 304.922 332.538C 304.689 333.201 304.572 333.944 304.572 334.769L 304.572 334.984C 304.572 336.722 304.994 338.039 305.837 338.935C 306.697 339.814 307.809 340.253 309.172 340.253C 309.674 340.253 310.15 340.181 310.598 340.038C 311.064 339.894 311.477 339.679 311.835 339.392C 312.212 339.106 312.517 338.747 312.75 338.317C 313.001 337.887 313.154 337.385 313.207 336.812L 315.279 336.812C 315.207 337.565 315.001 338.272 314.66 338.935C 314.337 339.581 313.907 340.136 313.369 340.602C 312.831 341.068 312.203 341.435 311.486 341.704C 310.768 341.973 309.988 342.108 309.145 342.108Z"/>
<path id="path83_fill" d="M 323.411 342.108C 322.712 342.108 322.057 342.009 321.447 341.812C 320.855 341.615 320.344 341.301 319.914 340.871C 319.484 340.423 319.143 339.858 318.892 339.177C 318.641 338.496 318.515 337.672 318.515 336.704L 318.515 327.807L 320.748 327.807L 320.748 336.597C 320.748 337.833 321.008 338.738 321.528 339.312C 322.066 339.885 322.891 340.172 324.003 340.172C 324.505 340.172 324.989 340.091 325.455 339.93C 325.922 339.769 326.334 339.527 326.693 339.204C 327.052 338.882 327.338 338.479 327.554 337.995C 327.769 337.511 327.876 336.955 327.876 336.328L 327.876 327.807L 330.109 327.807L 330.109 341.866L 327.876 341.866L 327.876 339.634C 327.554 340.298 327.007 340.88 326.236 341.382C 325.482 341.866 324.541 342.108 323.411 342.108Z"/>
<path id="path84_fill" d="M 338.98 342.108C 337.294 342.108 335.967 341.713 334.998 340.925C 334.048 340.118 333.537 338.989 333.465 337.538L 335.644 337.538C 335.734 338.38 336.021 339.043 336.505 339.527C 337.007 340.011 337.823 340.253 338.953 340.253C 340.029 340.253 340.809 340.073 341.293 339.715C 341.777 339.339 342.019 338.774 342.019 338.022C 342.019 337.269 341.741 336.74 341.185 336.436C 340.647 336.113 339.832 335.853 338.738 335.656C 337.823 335.495 337.052 335.306 336.424 335.091C 335.796 334.858 335.294 334.581 334.918 334.258C 334.541 333.936 334.263 333.55 334.084 333.102C 333.922 332.654 333.842 332.126 333.842 331.516C 333.842 330.871 333.985 330.307 334.272 329.823C 334.559 329.321 334.927 328.909 335.375 328.586C 335.841 328.246 336.352 327.995 336.908 327.833C 337.482 327.654 338.047 327.565 338.603 327.565C 339.231 327.565 339.831 327.636 340.405 327.78C 340.979 327.905 341.49 328.129 341.939 328.452C 342.405 328.774 342.791 329.195 343.095 329.715C 343.4 330.235 343.598 330.871 343.687 331.624L 341.535 331.624C 341.374 330.853 341.06 330.298 340.594 329.957C 340.145 329.599 339.473 329.419 338.576 329.419C 337.769 329.419 337.124 329.608 336.639 329.984C 336.155 330.342 335.913 330.826 335.913 331.436C 335.913 331.758 335.958 332.036 336.047 332.269C 336.155 332.484 336.334 332.681 336.586 332.86C 336.837 333.022 337.168 333.174 337.581 333.317C 338.011 333.443 338.549 333.559 339.195 333.667C 339.93 333.792 340.594 333.944 341.185 334.124C 341.795 334.303 342.315 334.545 342.746 334.85C 343.194 335.136 343.535 335.522 343.768 336.005C 344.019 336.471 344.145 337.081 344.145 337.833C 344.145 339.124 343.714 340.163 342.853 340.952C 341.993 341.722 340.701 342.108 338.98 342.108Z"/>
<path id="path85_fill" d="M 351.824 342.054C 350.533 342.054 349.573 341.713 348.945 341.032C 348.336 340.351 348.031 339.455 348.031 338.344L 348.031 329.688L 346.013 329.688L 346.013 327.807L 348.031 327.807L 348.031 324.608L 350.264 324.608L 350.264 327.807L 353.545 327.807L 353.545 329.688L 350.264 329.688L 350.264 338.129C 350.264 339.491 350.846 340.172 352.012 340.172C 352.371 340.172 352.685 340.145 352.954 340.091C 353.223 340.038 353.483 339.966 353.734 339.876L 353.734 341.758C 353.501 341.848 353.241 341.919 352.954 341.973C 352.667 342.027 352.29 342.054 351.824 342.054Z"/>
<path id="path86_fill" d="M 362.973 340.253C 363.673 340.253 364.309 340.127 364.883 339.876C 365.457 339.625 365.941 339.267 366.336 338.801C 366.73 338.335 367.035 337.78 367.25 337.134C 367.466 336.471 367.573 335.746 367.573 334.957L 367.573 334.769C 367.573 333.138 367.152 331.839 366.309 330.871C 365.484 329.903 364.372 329.419 362.973 329.419C 361.556 329.419 360.436 329.903 359.611 330.871C 358.786 331.821 358.373 333.111 358.373 334.742L 358.373 334.957C 358.373 336.57 358.777 337.86 359.584 338.828C 360.409 339.778 361.539 340.253 362.973 340.253ZM 362.946 342.108C 361.942 342.108 361.018 341.928 360.176 341.57C 359.333 341.211 358.606 340.719 357.997 340.091C 357.387 339.446 356.912 338.685 356.571 337.806C 356.23 336.928 356.06 335.979 356.06 334.957L 356.06 334.742C 356.06 333.685 356.23 332.717 356.571 331.839C 356.93 330.961 357.414 330.208 358.023 329.581C 358.633 328.936 359.36 328.443 360.202 328.102C 361.063 327.744 361.987 327.565 362.973 327.565C 363.977 327.565 364.901 327.744 365.744 328.102C 366.587 328.443 367.313 328.927 367.923 329.554C 368.533 330.181 369.008 330.934 369.349 331.812C 369.707 332.69 369.887 333.658 369.887 334.715L 369.887 334.93C 369.887 335.987 369.707 336.955 369.349 337.833C 369.008 338.711 368.524 339.473 367.896 340.118C 367.286 340.746 366.56 341.238 365.717 341.597C 364.874 341.937 363.951 342.108 362.946 342.108Z"/>
<path id="path87_fill" d="M 373.344 327.807L 375.576 327.807L 375.576 329.957C 375.899 329.294 376.419 328.729 377.137 328.263C 377.872 327.798 378.751 327.565 379.773 327.565C 380.688 327.565 381.513 327.771 382.248 328.183C 382.983 328.577 383.53 329.249 383.889 330.199C 384.14 329.733 384.445 329.339 384.803 329.016C 385.18 328.676 385.583 328.398 386.014 328.183C 386.444 327.968 386.893 327.815 387.359 327.726C 387.825 327.618 388.273 327.565 388.704 327.565C 389.332 327.565 389.932 327.663 390.506 327.86C 391.08 328.057 391.582 328.38 392.013 328.828C 392.443 329.276 392.784 329.858 393.035 330.575C 393.304 331.274 393.438 332.134 393.438 333.156L 393.438 341.866L 391.206 341.866L 391.206 332.995C 391.206 331.758 390.946 330.871 390.426 330.333C 389.923 329.778 389.188 329.5 388.22 329.5C 387.771 329.5 387.323 329.581 386.875 329.742C 386.426 329.885 386.023 330.118 385.664 330.441C 385.323 330.746 385.045 331.14 384.83 331.624C 384.615 332.09 384.507 332.636 384.507 333.263L 384.507 341.866L 382.275 341.866L 382.275 332.995C 382.275 331.758 382.015 330.871 381.495 330.333C 380.992 329.778 380.257 329.5 379.289 329.5C 378.84 329.5 378.392 329.581 377.944 329.742C 377.495 329.885 377.092 330.118 376.733 330.441C 376.392 330.746 376.114 331.14 375.899 331.624C 375.684 332.09 375.576 332.636 375.576 333.263L 375.576 341.866L 373.344 341.866L 373.344 327.807Z"/>
<path id="path88_fill" d="M 403.584 342.108C 402.598 342.108 401.683 341.937 400.84 341.597C 400.015 341.256 399.298 340.781 398.688 340.172C 398.078 339.545 397.603 338.792 397.262 337.914C 396.94 337.036 396.778 336.059 396.778 334.984L 396.778 334.769C 396.778 333.712 396.94 332.744 397.262 331.866C 397.585 330.97 398.034 330.208 398.607 329.581C 399.199 328.936 399.899 328.443 400.706 328.102C 401.513 327.744 402.4 327.565 403.369 327.565C 404.176 327.565 404.956 327.699 405.709 327.968C 406.48 328.219 407.162 328.622 407.754 329.177C 408.345 329.733 408.812 330.459 409.152 331.355C 409.511 332.233 409.69 333.299 409.69 334.554L 409.69 335.28L 399.092 335.28C 399.145 336.892 399.549 338.129 400.302 338.989C 401.055 339.832 402.158 340.253 403.611 340.253C 405.817 340.253 407.063 339.437 407.35 337.806L 409.583 337.806C 409.332 339.222 408.668 340.298 407.592 341.032C 406.516 341.749 405.18 342.108 403.584 342.108ZM 407.404 333.479C 407.296 332.027 406.884 330.988 406.166 330.36C 405.467 329.733 404.535 329.419 403.369 329.419C 402.221 329.419 401.28 329.787 400.544 330.522C 399.827 331.238 399.37 332.224 399.172 333.479L 407.404 333.479Z"/>
<path id="path89_fill" d="M 413.116 327.807L 415.349 327.807L 415.349 330.333C 415.798 329.545 416.363 328.9 417.044 328.398C 417.743 327.878 418.721 327.6 419.976 327.565L 419.976 329.661C 419.277 329.697 418.64 329.787 418.066 329.93C 417.492 330.074 416.999 330.315 416.587 330.656C 416.192 330.996 415.887 331.453 415.672 332.027C 415.457 332.582 415.349 333.29 415.349 334.151L 415.349 341.866L 413.116 341.866L 413.116 327.807Z"/>
<path id="path90_fill" d="M 427.457 342.108C 425.771 342.108 424.444 341.713 423.476 340.925C 422.525 340.118 422.014 338.989 421.942 337.538L 424.121 337.538C 424.211 338.38 424.498 339.043 424.982 339.527C 425.484 340.011 426.3 340.253 427.43 340.253C 428.506 340.253 429.286 340.073 429.77 339.715C 430.255 339.339 430.497 338.774 430.497 338.022C 430.497 337.269 430.219 336.74 429.663 336.436C 429.125 336.113 428.309 335.853 427.215 335.656C 426.3 335.495 425.529 335.306 424.901 335.091C 424.274 334.858 423.772 334.581 423.395 334.258C 423.018 333.936 422.74 333.55 422.561 333.102C 422.4 332.654 422.319 332.126 422.319 331.516C 422.319 330.871 422.462 330.307 422.749 329.823C 423.036 329.321 423.404 328.909 423.852 328.586C 424.319 328.246 424.83 327.995 425.386 327.833C 425.96 327.654 426.524 327.565 427.08 327.565C 427.708 327.565 428.309 327.636 428.883 327.78C 429.457 327.905 429.968 328.129 430.416 328.452C 430.882 328.774 431.268 329.195 431.573 329.715C 431.878 330.235 432.075 330.871 432.165 331.624L 430.013 331.624C 429.851 330.853 429.537 330.298 429.071 329.957C 428.623 329.599 427.95 329.419 427.053 329.419C 426.246 329.419 425.601 329.608 425.117 329.984C 424.632 330.342 424.39 330.826 424.39 331.436C 424.39 331.758 424.435 332.036 424.525 332.269C 424.632 332.484 424.812 332.681 425.063 332.86C 425.314 333.022 425.646 333.174 426.058 333.317C 426.489 333.443 427.027 333.559 427.672 333.667C 428.407 333.792 429.071 333.944 429.663 334.124C 430.273 334.303 430.793 334.545 431.223 334.85C 431.671 335.136 432.012 335.522 432.245 336.005C 432.496 336.471 432.622 337.081 432.622 337.833C 432.622 339.124 432.191 340.163 431.331 340.952C 430.47 341.722 429.179 342.108 427.457 342.108Z"/>
<path id="path91_fill" fill-rule="evenodd" d="M 22.4171 321.37L 1.49447 321.37L 1.49447 342.278L 22.4171 342.278L 22.4171 321.37ZM 1.49447 319.876L 1.69902e-13 319.876L 1.69902e-13 321.37L 1.69902e-13 342.278L 1.69902e-13 343.771L 1.49447 343.771L 22.4171 343.771L 23.9115 343.771L 23.9115 342.278L 23.9115 321.37L 23.9115 319.876L 22.4171 319.876L 1.49447 319.876Z"/>
<path id="path92_fill" d="M 6.72512 326.597L 17.9336 326.597L 17.9336 337.798L 6.72512 337.798L 6.72512 326.597Z"/>
</defs>
</svg>
