<svg width="551" height="689" viewBox="0 0 551 689" version="1.1" xmlns="http://www.w3.org/2000/svg" xmlns:xlink="http://www.w3.org/1999/xlink" xmlns:figma="http://www.figma.com/figma/ns">
<title>right-corner</title>
<desc>Created using Figma</desc>
<g id="Canvas" transform="translate(-299 91)" figma:type="canvas">
<g id="right-corner" style="mix-blend-mode:normal;" figma:type="frame">
<g id="Canvas" style="mix-blend-mode:normal;" figma:type="frame">
<g id="Intersect" style="mix-blend-mode:normal;isolation:isolate;" figma:type="frame">
<g id="Vector" style="mix-blend-mode:normal;isolation:isolate;" figma:type="vector">
<use xlink:href="#path0_fill" transform="matrix(-1 0 0 1 301.74 -91)" fill="#C4C4C4" style="mix-blend-mode:normal;"/>
</g>
<g id="Vector" style="mix-blend-mode:normal;isolation:isolate;" figma:type="vector">
<use xlink:href="#path1_fill" transform="matrix(-1 0 0 1 445.926 -91)" fill="#C4C4C4" style="mix-blend-mode:normal;"/>
</g>
<g id="Vector" style="mix-blend-mode:normal;isolation:isolate;" figma:type="vector">
<use xlink:href="#path2_fill" transform="matrix(-1 0 0 1 455.539 -91)" fill="#C4C4C4" style="mix-blend-mode:normal;"/>
</g>
<g id="Vector" style="mix-blend-mode:normal;isolation:isolate;" figma:type="vector">
<use xlink:href="#path3_fill" transform="matrix(-1 0 0 1 465.151 -91)" fill="#C4C4C4" style="mix-blend-mode:normal;"/>
</g>
<g id="Vector" style="mix-blend-mode:normal;isolation:isolate;" figma:type="vector">
<use xlink:href="#path4_fill" transform="matrix(-1 0 0 1 474.764 -91)" fill="#C4C4C4" style="mix-blend-mode:normal;"/>
</g>
<g id="Vector" style="mix-blend-mode:normal;isolation:isolate;" figma:type="vector">
<use xlink:href="#path5_fill" transform="matrix(-1 0 0 1 484.375 -91)" fill="#C4C4C4" style="mix-blend-mode:normal;"/>
</g>
<g id="Vector" style="mix-blend-mode:normal;isolation:isolate;" figma:type="vector">
<use xlink:href="#path6_fill" transform="matrix(-1 0 0 1 493.988 -91)" fill="#C4C4C4" style="mix-blend-mode:normal;"/>
</g>
<g id="Vector" style="mix-blend-mode:normal;isolation:isolate;" figma:type="vector">
<use xlink:href="#path7_fill" transform="matrix(-1 0 0 1 503.601 -91)" fill="#C4C4C4" style="mix-blend-mode:normal;"/>
</g>
<g id="Vector" style="mix-blend-mode:normal;isolation:isolate;" figma:type="vector">
<use xlink:href="#path8_fill" transform="matrix(-1 0 0 1 513.213 -91)" fill="#C4C4C4" style="mix-blend-mode:normal;"/>
</g>
<g id="Vector" style="mix-blend-mode:normal;isolation:isolate;" figma:type="vector">
<use xlink:href="#path9_fill" transform="matrix(-1 0 0 1 522.825 -91)" fill="#C4C4C4" style="mix-blend-mode:normal;"/>
</g>
<g id="Vector" style="mix-blend-mode:normal;isolation:isolate;" figma:type="vector">
<use xlink:href="#path10_fill" transform="matrix(-1 0 0 1 532.438 -91)" fill="#C4C4C4" style="mix-blend-mode:normal;"/>
</g>
<g id="Vector" style="mix-blend-mode:normal;isolation:isolate;" figma:type="vector">
<use xlink:href="#path11_fill" transform="matrix(-1 0 0 1 542.05 -91)" fill="#C4C4C4" style="mix-blend-mode:normal;"/>
</g>
<g id="Vector" style="mix-blend-mode:normal;isolation:isolate;" figma:type="vector">
<use xlink:href="#path12_fill" transform="matrix(-1 0 0 1 551.662 -91)" fill="#C4C4C4" style="mix-blend-mode:normal;"/>
</g>
<g id="Vector" style="mix-blend-mode:normal;isolation:isolate;" figma:type="vector">
<use xlink:href="#path13_fill" transform="matrix(-1 0 0 1 561.275 -91)" fill="#C4C4C4" style="mix-blend-mode:normal;"/>
</g>
<g id="Vector" style="mix-blend-mode:normal;isolation:isolate;" figma:type="vector">
<use xlink:href="#path14_fill" transform="matrix(-1 0 0 1 570.887 -91)" fill="#C4C4C4" style="mix-blend-mode:normal;"/>
</g>
<g id="Vector" style="mix-blend-mode:normal;isolation:isolate;" figma:type="vector">
<use xlink:href="#path15_fill" transform="matrix(-1 0 0 1 580.5 -91)" fill="#C4C4C4" style="mix-blend-mode:normal;"/>
</g>
<g id="Vector" style="mix-blend-mode:normal;isolation:isolate;" figma:type="vector">
<use xlink:href="#path16_fill" transform="matrix(-1 0 0 1 590.112 -91)" fill="#C4C4C4" style="mix-blend-mode:normal;"/>
</g>
<g id="Vector" style="mix-blend-mode:normal;isolation:isolate;" figma:type="vector">
<use xlink:href="#path17_fill" transform="matrix(-1 0 0 1 599.724 -91)" fill="#C4C4C4" style="mix-blend-mode:normal;"/>
</g>
<g id="Vector" style="mix-blend-mode:normal;isolation:isolate;" figma:type="vector">
<use xlink:href="#path18_fill" transform="matrix(-1 0 0 1 609.337 -91)" fill="#C4C4C4" style="mix-blend-mode:normal;"/>
</g>
<g id="Vector" style="mix-blend-mode:normal;isolation:isolate;" figma:type="vector">
<use xlink:href="#path19_fill" transform="matrix(-1 0 0 1 618.949 -91)" fill="#C4C4C4" style="mix-blend-mode:normal;"/>
</g>
<g id="Vector" style="mix-blend-mode:normal;isolation:isolate;" figma:type="vector">
<use xlink:href="#path20_fill" transform="matrix(-1 0 0 1 628.562 -91)" fill="#C4C4C4" style="mix-blend-mode:normal;"/>
</g>
<g id="Vector" style="mix-blend-mode:normal;isolation:isolate;" figma:type="vector">
<use xlink:href="#path21_fill" transform="matrix(-1 0 0 1 638.174 -91)" fill="#C4C4C4" style="mix-blend-mode:normal;"/>
</g>
<g id="Vector" style="mix-blend-mode:normal;isolation:isolate;" figma:type="vector">
<use xlink:href="#path22_fill" transform="matrix(-1 0 0 1 647.786 -91)" fill="#C4C4C4" style="mix-blend-mode:normal;"/>
</g>
<g id="Vector" style="mix-blend-mode:normal;isolation:isolate;" figma:type="vector">
<use xlink:href="#path23_fill" transform="matrix(-1 0 0 1 657.398 -91)" fill="#C4C4C4" style="mix-blend-mode:normal;"/>
</g>
<g id="Vector" style="mix-blend-mode:normal;isolation:isolate;" figma:type="vector">
<use xlink:href="#path24_fill" transform="matrix(-1 0 0 1 667.011 -91)" fill="#C4C4C4" style="mix-blend-mode:normal;"/>
</g>
<g id="Vector" style="mix-blend-mode:normal;isolation:isolate;" figma:type="vector">
<use xlink:href="#path25_fill" transform="matrix(-1 0 0 1 676.623 -91)" fill="#C4C4C4" style="mix-blend-mode:normal;"/>
</g>
<g id="Vector" style="mix-blend-mode:normal;isolation:isolate;" figma:type="vector">
<use xlink:href="#path26_fill" transform="matrix(-1 0 0 1 686.237 -91)" fill="#C4C4C4" style="mix-blend-mode:normal;"/>
</g>
<g id="Vector" style="mix-blend-mode:normal;isolation:isolate;" figma:type="vector">
<use xlink:href="#path27_fill" transform="matrix(-1 0 0 1 695.848 -91)" fill="#C4C4C4" style="mix-blend-mode:normal;"/>
</g>
<g id="Vector" style="mix-blend-mode:normal;isolation:isolate;" figma:type="vector">
<use xlink:href="#path28_fill" transform="matrix(-1 0 0 1 705.46 -91)" fill="#C4C4C4" style="mix-blend-mode:normal;"/>
</g>
<g id="Vector" style="mix-blend-mode:normal;isolation:isolate;" figma:type="vector">
<use xlink:href="#path29_fill" transform="matrix(-1 0 0 1 715.073 -91)" fill="#C4C4C4" style="mix-blend-mode:normal;"/>
</g>
<g id="Vector" style="mix-blend-mode:normal;isolation:isolate;" figma:type="vector">
<use xlink:href="#path30_fill" transform="matrix(-1 0 0 1 724.685 -91)" fill="#C4C4C4" style="mix-blend-mode:normal;"/>
</g>
<g id="Vector" style="mix-blend-mode:normal;isolation:isolate;" figma:type="vector">
<use xlink:href="#path31_fill" transform="matrix(-1 0 0 1 734.298 -91)" fill="#C4C4C4" style="mix-blend-mode:normal;"/>
</g>
<g id="Vector" style="mix-blend-mode:normal;isolation:isolate;" figma:type="vector">
<use xlink:href="#path32_fill" transform="matrix(-1 0 0 1 743.91 -91)" fill="#C4C4C4" style="mix-blend-mode:normal;"/>
</g>
<g id="Vector" style="mix-blend-mode:normal;isolation:isolate;" figma:type="vector">
<use xlink:href="#path33_fill" transform="matrix(-1 0 0 1 753.522 -91)" fill="#C4C4C4" style="mix-blend-mode:normal;"/>
</g>
<g id="Vector" style="mix-blend-mode:normal;isolation:isolate;" figma:type="vector">
<use xlink:href="#path34_fill" transform="matrix(-1 0 0 1 763.135 -91)" fill="#C4C4C4" style="mix-blend-mode:normal;"/>
</g>
<g id="Vector" style="mix-blend-mode:normal;isolation:isolate;" figma:type="vector">
<use xlink:href="#path35_fill" transform="matrix(-1 0 0 1 772.747 -91)" fill="#C4C4C4" style="mix-blend-mode:normal;"/>
</g>
<g id="Vector" style="mix-blend-mode:normal;isolation:isolate;" figma:type="vector">
<use xlink:href="#path36_fill" transform="matrix(-1 0 0 1 782.36 -91)" fill="#C4C4C4" style="mix-blend-mode:normal;"/>
</g>
<g id="Vector" style="mix-blend-mode:normal;isolation:isolate;" figma:type="vector">
<use xlink:href="#path37_fill" transform="matrix(-1 0 0 1 791.972 -91)" fill="#C4C4C4" style="mix-blend-mode:normal;"/>
</g>
<g id="Vector" style="mix-blend-mode:normal;isolation:isolate;" figma:type="vector">
<use xlink:href="#path38_fill" transform="matrix(-1 0 0 1 801.584 -91)" fill="#C4C4C4" style="mix-blend-mode:normal;"/>
</g>
<g id="Vector" style="mix-blend-mode:normal;isolation:isolate;" figma:type="vector">
<use xlink:href="#path39_fill" transform="matrix(-1 0 0 1 811.197 -91)" fill="#C4C4C4" style="mix-blend-mode:normal;"/>
</g>
<g id="Vector" style="mix-blend-mode:normal;isolation:isolate;" figma:type="vector">
<use xlink:href="#path40_fill" transform="matrix(-1 0 0 1 820.809 -91)" fill="#C4C4C4" style="mix-blend-mode:normal;"/>
</g>
<g id="Vector" style="mix-blend-mode:normal;isolation:isolate;" figma:type="vector">
<use xlink:href="#path41_fill" transform="matrix(-1 0 0 1 830.422 -91)" fill="#C4C4C4" style="mix-blend-mode:normal;"/>
</g>
<g id="Vector" style="mix-blend-mode:normal;isolation:isolate;" figma:type="vector">
<use xlink:href="#path42_fill" transform="matrix(-1 0 0 1 840.034 -91)" fill="#C4C4C4" style="mix-blend-mode:normal;"/>
</g>
<g id="Vector" style="mix-blend-mode:normal;isolation:isolate;" figma:type="vector">
<use xlink:href="#path43_fill" transform="matrix(-1 0 0 1 849.646 -91)" fill="#C4C4C4" style="mix-blend-mode:normal;"/>
</g>
<g id="Vector" style="mix-blend-mode:normal;isolation:isolate;" figma:type="vector">
<use xlink:href="#path44_fill" transform="matrix(-1 0 0 1 436.313 -91)" fill="#C4C4C4" style="mix-blend-mode:normal;"/>
</g>
<g id="Vector" style="mix-blend-mode:normal;isolation:isolate;" figma:type="vector">
<use xlink:href="#path45_fill" transform="matrix(-1 0 0 1 426.702 -91)" fill="#C4C4C4" style="mix-blend-mode:normal;"/>
</g>
<g id="Vector" style="mix-blend-mode:normal;isolation:isolate;" figma:type="vector">
<use xlink:href="#path46_fill" transform="matrix(-1 0 0 1 417.089 -91)" fill="#C4C4C4" style="mix-blend-mode:normal;"/>
</g>
<g id="Vector" style="mix-blend-mode:normal;isolation:isolate;" figma:type="vector">
<use xlink:href="#path47_fill" transform="matrix(-1 0 0 1 407.477 -91)" fill="#C4C4C4" style="mix-blend-mode:normal;"/>
</g>
<g id="Vector" style="mix-blend-mode:normal;isolation:isolate;" figma:type="vector">
<use xlink:href="#path48_fill" transform="matrix(-1 0 0 1 397.864 -91)" fill="#C4C4C4" style="mix-blend-mode:normal;"/>
</g>
<g id="Vector" style="mix-blend-mode:normal;isolation:isolate;" figma:type="vector">
<use xlink:href="#path49_fill" transform="matrix(-1 0 0 1 388.252 -91)" fill="#C4C4C4" style="mix-blend-mode:normal;"/>
</g>
<g id="Vector" style="mix-blend-mode:normal;isolation:isolate;" figma:type="vector">
<use xlink:href="#path50_fill" transform="matrix(-1 0 0 1 378.64 -91)" fill="#C4C4C4" style="mix-blend-mode:normal;"/>
</g>
<g id="Vector" style="mix-blend-mode:normal;isolation:isolate;" figma:type="vector">
<use xlink:href="#path51_fill" transform="matrix(-1 0 0 1 369.028 -91)" fill="#C4C4C4" style="mix-blend-mode:normal;"/>
</g>
<g id="Vector" style="mix-blend-mode:normal;isolation:isolate;" figma:type="vector">
<use xlink:href="#path52_fill" transform="matrix(-1 0 0 1 359.415 -91)" fill="#C4C4C4" style="mix-blend-mode:normal;"/>
</g>
<g id="Vector" style="mix-blend-mode:normal;isolation:isolate;" figma:type="vector">
<use xlink:href="#path53_fill" transform="matrix(-1 0 0 1 349.802 -91)" fill="#C4C4C4" style="mix-blend-mode:normal;"/>
</g>
<g id="Vector" style="mix-blend-mode:normal;isolation:isolate;" figma:type="vector">
<use xlink:href="#path54_fill" transform="matrix(-1 0 0 1 340.19 -91)" fill="#C4C4C4" style="mix-blend-mode:normal;"/>
</g>
<g id="Vector" style="mix-blend-mode:normal;isolation:isolate;" figma:type="vector">
<use xlink:href="#path55_fill" transform="matrix(-1 0 0 1 330.578 -91)" fill="#C4C4C4" style="mix-blend-mode:normal;"/>
</g>
<g id="Vector" style="mix-blend-mode:normal;isolation:isolate;" figma:type="vector">
<use xlink:href="#path56_fill" transform="matrix(-1 0 0 1 320.965 -91)" fill="#C4C4C4" style="mix-blend-mode:normal;"/>
</g>
<g id="Vector" style="mix-blend-mode:normal;isolation:isolate;" figma:type="vector">
<use xlink:href="#path57_fill" transform="matrix(-1 0 0 1 311.353 -91)" fill="#C4C4C4" style="mix-blend-mode:normal;"/>
</g>
</g>
</g>
</g>
</g>
<defs>
<path id="path0_fill" d="M 1.27997 0L 2.74 1.82491L 2.74 3.42566L 5.85938e-06 0L 1.27997 0Z"/>
<path id="path1_fill" d="M 1.28 0L 146.926 182.098L 146.926 183.699L 1.2207e-06 0L 1.28 0Z"/>
<path id="path2_fill" d="M 1.281 0L 156.539 194.117L 156.539 195.718L -5.37109e-06 0L 1.281 0Z"/>
<path id="path3_fill" d="M 1.27999 0L 166.151 206.135L 166.151 207.736L -4.88281e-06 0L 1.27999 0Z"/>
<path id="path4_fill" d="M 1.282 0L 175.764 218.153L 175.764 219.755L -1.14746e-05 0L 1.282 0Z"/>
<path id="path5_fill" d="M 1.27999 0L 185.375 230.171L 185.375 231.773L -3.90625e-06 0L 1.27999 0Z"/>
<path id="path6_fill" d="M 1.27999 0L 194.988 242.19L 194.988 243.791L -1.0498e-05 0L 1.27999 0Z"/>
<path id="path7_fill" d="M 1.28099 0L 204.601 254.208L 204.601 255.809L 1.34277e-05 0L 1.28099 0Z"/>
<path id="path8_fill" d="M 1.28001 0L 214.213 266.226L 214.213 267.827L 1.3916e-05 0L 1.28001 0Z"/>
<path id="path9_fill" d="M 1.28099 0L 223.825 278.244L 223.825 279.845L 1.44043e-05 0L 1.28099 0Z"/>
<path id="path10_fill" d="M 1.28101 0L 233.438 290.263L 233.438 291.864L 7.8125e-06 0L 1.28101 0Z"/>
<path id="path11_fill" d="M 1.28001 0L 243.05 302.281L 243.05 303.882L 8.30078e-06 0L 1.28001 0Z"/>
<path id="path12_fill" d="M 1.28001 0L 252.662 314.299L 252.662 315.9L 8.78906e-06 0L 1.28001 0Z"/>
<path id="path13_fill" d="M 1.28101 0L 262.275 326.317L 262.275 327.919L 2.19727e-06 0L 1.28101 0Z"/>
<path id="path14_fill" d="M 1.28101 0L 271.887 338.336L 271.887 339.937L 2.68555e-06 0L 1.28101 0Z"/>
<path id="path15_fill" d="M 1.281 0L 281.5 350.354L 281.5 351.955L -3.90625e-06 0L 1.281 0Z"/>
<path id="path16_fill" d="M 1.281 0L 291.112 362.372L 291.112 363.973L -3.41797e-06 0L 1.281 0Z"/>
<path id="path17_fill" d="M 1.28 0L 300.724 374.391L 300.724 375.991L -2.92969e-06 0L 1.28 0Z"/>
<path id="path18_fill" d="M 1.281 0L 310.337 386.409L 310.337 388.01L 5.7373e-06 0L 1.281 0Z"/>
<path id="path19_fill" d="M 1.281 0L 319.949 398.427L 319.949 400.028L 6.22559e-06 0L 1.281 0Z"/>
<path id="path20_fill" d="M 1.28101 0L 329.562 410.445L 329.562 412.046L -3.66211e-07 0L 1.28101 0Z"/>
<path id="path21_fill" d="M 1.28101 0L 339.174 422.463L 339.174 424.065L 1.2207e-07 0L 1.28101 0Z"/>
<path id="path22_fill" d="M 1.28 0L 348.786 434.482L 348.786 436.083L 6.10352e-07 0L 1.28 0Z"/>
<path id="path23_fill" d="M 1.28 0L 358.398 446.5L 358.398 448.101L 1.09863e-06 0L 1.28 0Z"/>
<path id="path24_fill" d="M 1.281 0L 368.011 458.518L 368.011 460.119L -5.49316e-06 0L 1.281 0Z"/>
<path id="path25_fill" d="M 1.27999 0L 377.623 470.537L 377.623 472.137L -5.00488e-06 0L 1.27999 0Z"/>
<path id="path26_fill" d="M 1.28099 0L 387.236 482.555L 387.236 484.156L 3.66211e-06 0L 1.28099 0Z"/>
<path id="path27_fill" d="M 1.28099 0L 396.848 494.573L 396.848 496.174L 4.15039e-06 0L 1.28099 0Z"/>
<path id="path28_fill" d="M 1.28 0L 406.46 506.591L 406.46 508.192L 4.63867e-06 0L 1.28 0Z"/>
<path id="path29_fill" d="M 1.281 0L 416.073 518.609L 416.073 520.211L -1.95313e-06 0L 1.281 0Z"/>
<path id="path30_fill" d="M 1.28 0L 425.685 530.628L 425.685 532.229L -1.46484e-06 0L 1.28 0Z"/>
<path id="path31_fill" d="M 1.281 0L 435.298 542.646L 435.298 544.247L -4.27246e-07 0L 1.281 0Z"/>
<path id="path32_fill" d="M 1.281 0L 444.91 554.664L 444.91 556.265L 6.10352e-08 0L 1.281 0Z"/>
<path id="path33_fill" d="M 1.2803 0L 454.522 566.683L 454.522 568.283L 5.49316e-07 0L 1.2803 0Z"/>
<path id="path34_fill" d="M 1.2808 0L 464.135 578.701L 464.135 580.302L -4.88281e-08 0L 1.2808 0Z"/>
<path id="path35_fill" d="M 1.2803 0L 473.747 590.719L 473.747 592.32L 2.89307e-06 0L 1.2803 0Z"/>
<path id="path36_fill" d="M 1.2803 0L 483.359 602.737L 483.359 604.338L -1.79443e-06 0L 1.2803 0Z"/>
<path id="path37_fill" d="M 1.2808 0L 492.972 614.755L 492.972 616.357L 1.14746e-06 0L 1.2808 0Z"/>
<path id="path38_fill" d="M 1.2803 0L 502.584 626.773L 502.584 628.375L 2.74658e-07 0L 1.2803 0Z"/>
<path id="path39_fill" d="M 1.2808 0L 512.197 638.792L 512.197 640.393L -3.23486e-07 0L 1.2808 0Z"/>
<path id="path40_fill" d="M 1.2803 0L 521.809 650.81L 521.809 652.411L 7.1106e-07 0L 1.2803 0Z"/>
<path id="path41_fill" d="M 1.2803 0L 531.421 662.829L 531.421 664.43L -1.61743e-07 0L 1.2803 0Z"/>
<path id="path42_fill" d="M 1.2808 0L 541.034 674.847L 541.034 676.448L -8.08716e-08 0L 1.2808 0Z"/>
<path id="path43_fill" d="M 1.28027 0L 550.646 686.865L 550.646 688.466L 0 0L 1.28027 0Z"/>
<path id="path44_fill" d="M 7.8125e-06 0L 1.28001 0L 137.313 170.08L 137.313 171.681L 7.8125e-06 0Z"/>
<path id="path45_fill" d="M 127.702 159.663L 2.44141e-07 0L 1.28101 0L 127.702 158.062L 127.702 159.663Z"/>
<path id="path46_fill" d="M 118.089 147.645L 6.83594e-06 0L 1.28001 0L 118.089 146.044L 118.089 147.645Z"/>
<path id="path47_fill" d="M 108.477 135.626L 6.34766e-06 0L 1.28101 0L 108.477 134.025L 108.477 135.626Z"/>
<path id="path48_fill" d="M 98.864 123.608L 1.29395e-05 0L 1.28001 0L 98.864 122.007L 98.864 123.608Z"/>
<path id="path49_fill" d="M 89.252 111.59L 1.24512e-05 0L 1.28099 0L 89.252 109.989L 89.252 111.59Z"/>
<path id="path50_fill" d="M 79.64 99.5718L 1.19629e-05 0L 1.28099 0L 79.64 97.9706L 79.64 99.5718Z"/>
<path id="path51_fill" d="M 70.027 87.5537L -1.19629e-05 0L 1.27999 0L 70.027 85.9523L 70.027 87.5537Z"/>
<path id="path52_fill" d="M 60.415 75.5351L -1.24512e-05 0L 1.28099 0L 60.415 73.9343L 60.415 75.5351Z"/>
<path id="path53_fill" d="M 50.802 63.5171L -5.85938e-06 0L 1.27999 0L 50.802 61.9159L 50.802 63.5171Z"/>
<path id="path54_fill" d="M 41.19 51.4987L -6.34766e-06 0L 1.281 0L 41.19 49.8976L 41.19 51.4987Z"/>
<path id="path55_fill" d="M 31.578 39.4804L -6.83594e-06 0L 1.281 0L 31.578 37.8796L 31.578 39.4804Z"/>
<path id="path56_fill" d="M 21.965 27.4624L 3.02734e-05 0L 1.28 0L 21.965 25.8612L 21.965 27.4624Z"/>
<path id="path57_fill" d="M 12.353 15.4439L 2.97852e-05 0L 1.28097 0L 12.353 13.843L 12.353 15.4439Z"/>
</defs>
</svg>
