<svg width="551" height="689" viewBox="0 0 551 689" version="1.1" xmlns="http://www.w3.org/2000/svg" xmlns:xlink="http://www.w3.org/1999/xlink" xmlns:figma="http://www.figma.com/figma/ns">
<title>Intersect</title>
<desc>Created using Figma</desc>
<g id="Canvas" transform="translate(-4916 -139)" figma:type="canvas">
<g id="Intersect" style="mix-blend-mode:normal;" figma:type="vector">
<use xlink:href="#path0_fill" transform="translate(4916.35 139)" fill="#C4C4C4" style="mix-blend-mode:normal;"/>
<use xlink:href="#path1_fill" transform="translate(4916.35 139)" fill="#C4C4C4" style="mix-blend-mode:normal;"/>
<use xlink:href="#path2_fill" transform="translate(4916.35 139)" fill="#C4C4C4" style="mix-blend-mode:normal;"/>
<use xlink:href="#path3_fill" transform="translate(4916.35 139)" fill="#C4C4C4" style="mix-blend-mode:normal;"/>
<use xlink:href="#path4_fill" transform="translate(4916.35 139)" fill="#C4C4C4" style="mix-blend-mode:normal;"/>
<use xlink:href="#path5_fill" transform="translate(4916.35 139)" fill="#C4C4C4" style="mix-blend-mode:normal;"/>
<use xlink:href="#path6_fill" transform="translate(4916.35 139)" fill="#C4C4C4" style="mix-blend-mode:normal;"/>
<use xlink:href="#path7_fill" transform="translate(4916.35 139)" fill="#C4C4C4" style="mix-blend-mode:normal;"/>
<use xlink:href="#path8_fill" transform="translate(4916.35 139)" fill="#C4C4C4" style="mix-blend-mode:normal;"/>
<use xlink:href="#path9_fill" transform="translate(4916.35 139)" fill="#C4C4C4" style="mix-blend-mode:normal;"/>
<use xlink:href="#path10_fill" transform="translate(4916.35 139)" fill="#C4C4C4" style="mix-blend-mode:normal;"/>
<use xlink:href="#path11_fill" transform="translate(4916.35 139)" fill="#C4C4C4" style="mix-blend-mode:normal;"/>
<use xlink:href="#path12_fill" transform="translate(4916.35 139)" fill="#C4C4C4" style="mix-blend-mode:normal;"/>
<use xlink:href="#path13_fill" transform="translate(4916.35 139)" fill="#C4C4C4" style="mix-blend-mode:normal;"/>
<use xlink:href="#path14_fill" transform="translate(4916.35 139)" fill="#C4C4C4" style="mix-blend-mode:normal;"/>
<use xlink:href="#path15_fill" transform="translate(4916.35 139)" fill="#C4C4C4" style="mix-blend-mode:normal;"/>
<use xlink:href="#path16_fill" transform="translate(4916.35 139)" fill="#C4C4C4" style="mix-blend-mode:normal;"/>
<use xlink:href="#path17_fill" transform="translate(4916.35 139)" fill="#C4C4C4" style="mix-blend-mode:normal;"/>
<use xlink:href="#path18_fill" transform="translate(4916.35 139)" fill="#C4C4C4" style="mix-blend-mode:normal;"/>
<use xlink:href="#path19_fill" transform="translate(4916.35 139)" fill="#C4C4C4" style="mix-blend-mode:normal;"/>
<use xlink:href="#path20_fill" transform="translate(4916.35 139)" fill="#C4C4C4" style="mix-blend-mode:normal;"/>
<use xlink:href="#path21_fill" transform="translate(4916.35 139)" fill="#C4C4C4" style="mix-blend-mode:normal;"/>
<use xlink:href="#path22_fill" transform="translate(4916.35 139)" fill="#C4C4C4" style="mix-blend-mode:normal;"/>
<use xlink:href="#path23_fill" transform="translate(4916.35 139)" fill="#C4C4C4" style="mix-blend-mode:normal;"/>
<use xlink:href="#path24_fill" transform="translate(4916.35 139)" fill="#C4C4C4" style="mix-blend-mode:normal;"/>
<use xlink:href="#path25_fill" transform="translate(4916.35 139)" fill="#C4C4C4" style="mix-blend-mode:normal;"/>
<use xlink:href="#path26_fill" transform="translate(4916.35 139)" fill="#C4C4C4" style="mix-blend-mode:normal;"/>
<use xlink:href="#path27_fill" transform="translate(4916.35 139)" fill="#C4C4C4" style="mix-blend-mode:normal;"/>
<use xlink:href="#path28_fill" transform="translate(4916.35 139)" fill="#C4C4C4" style="mix-blend-mode:normal;"/>
<use xlink:href="#path29_fill" transform="translate(4916.35 139)" fill="#C4C4C4" style="mix-blend-mode:normal;"/>
<use xlink:href="#path30_fill" transform="translate(4916.35 139)" fill="#C4C4C4" style="mix-blend-mode:normal;"/>
<use xlink:href="#path31_fill" transform="translate(4916.35 139)" fill="#C4C4C4" style="mix-blend-mode:normal;"/>
<use xlink:href="#path32_fill" transform="translate(4916.35 139)" fill="#C4C4C4" style="mix-blend-mode:normal;"/>
<use xlink:href="#path33_fill" transform="translate(4916.35 139)" fill="#C4C4C4" style="mix-blend-mode:normal;"/>
<use xlink:href="#path34_fill" transform="translate(4916.35 139)" fill="#C4C4C4" style="mix-blend-mode:normal;"/>
<use xlink:href="#path35_fill" transform="translate(4916.35 139)" fill="#C4C4C4" style="mix-blend-mode:normal;"/>
<use xlink:href="#path36_fill" transform="translate(4916.35 139)" fill="#C4C4C4" style="mix-blend-mode:normal;"/>
<use xlink:href="#path37_fill" transform="translate(4916.35 139)" fill="#C4C4C4" style="mix-blend-mode:normal;"/>
<use xlink:href="#path38_fill" transform="translate(4916.35 139)" fill="#C4C4C4" style="mix-blend-mode:normal;"/>
<use xlink:href="#path39_fill" transform="translate(4916.35 139)" fill="#C4C4C4" style="mix-blend-mode:normal;"/>
<use xlink:href="#path40_fill" transform="translate(4916.35 139)" fill="#C4C4C4" style="mix-blend-mode:normal;"/>
<use xlink:href="#path41_fill" transform="translate(4916.35 139)" fill="#C4C4C4" style="mix-blend-mode:normal;"/>
<use xlink:href="#path42_fill" transform="translate(4916.35 139)" fill="#C4C4C4" style="mix-blend-mode:normal;"/>
<use xlink:href="#path43_fill" transform="translate(4916.35 139)" fill="#C4C4C4" style="mix-blend-mode:normal;"/>
<use xlink:href="#path44_fill" transform="translate(4916.35 139)" fill="#C4C4C4" style="mix-blend-mode:normal;"/>
<use xlink:href="#path45_fill" transform="translate(4916.35 139)" fill="#C4C4C4" style="mix-blend-mode:normal;"/>
<use xlink:href="#path46_fill" transform="translate(4916.35 139)" fill="#C4C4C4" style="mix-blend-mode:normal;"/>
<use xlink:href="#path47_fill" transform="translate(4916.35 139)" fill="#C4C4C4" style="mix-blend-mode:normal;"/>
<use xlink:href="#path48_fill" transform="translate(4916.35 139)" fill="#C4C4C4" style="mix-blend-mode:normal;"/>
<use xlink:href="#path49_fill" transform="translate(4916.35 139)" fill="#C4C4C4" style="mix-blend-mode:normal;"/>
<use xlink:href="#path50_fill" transform="translate(4916.35 139)" fill="#C4C4C4" style="mix-blend-mode:normal;"/>
<use xlink:href="#path51_fill" transform="translate(4916.35 139)" fill="#C4C4C4" style="mix-blend-mode:normal;"/>
<use xlink:href="#path52_fill" transform="translate(4916.35 139)" fill="#C4C4C4" style="mix-blend-mode:normal;"/>
<use xlink:href="#path53_fill" transform="translate(4916.35 139)" fill="#C4C4C4" style="mix-blend-mode:normal;"/>
<use xlink:href="#path54_fill" transform="translate(4916.35 139)" fill="#C4C4C4" style="mix-blend-mode:normal;"/>
<use xlink:href="#path55_fill" transform="translate(4916.35 139)" fill="#C4C4C4" style="mix-blend-mode:normal;"/>
<use xlink:href="#path56_fill" transform="translate(4916.35 139)" fill="#C4C4C4" style="mix-blend-mode:normal;"/>
<use xlink:href="#path57_fill" transform="translate(4916.35 139)" fill="#C4C4C4" style="mix-blend-mode:normal;"/>
</g>
</g>
<defs>
<path id="path0_fill" d="M 549.186 0L 550.646 1.82491L 550.646 3.42566L 547.906 0L 549.186 0Z"/>
<path id="path1_fill" d="M 405 0L 550.646 182.098L 550.646 183.699L 403.72 0L 405 0Z"/>
<path id="path2_fill" d="M 395.388 0L 550.646 194.117L 550.646 195.718L 394.107 0L 395.388 0Z"/>
<path id="path3_fill" d="M 385.775 0L 550.646 206.135L 550.646 207.736L 384.495 0L 385.775 0Z"/>
<path id="path4_fill" d="M 376.164 0L 550.646 218.153L 550.646 219.755L 374.882 0L 376.164 0Z"/>
<path id="path5_fill" d="M 366.551 0L 550.646 230.171L 550.646 231.773L 365.271 0L 366.551 0Z"/>
<path id="path6_fill" d="M 356.938 0L 550.646 242.19L 550.646 243.791L 355.658 0L 356.938 0Z"/>
<path id="path7_fill" d="M 347.326 0L 550.646 254.208L 550.646 255.809L 346.045 0L 347.326 0Z"/>
<path id="path8_fill" d="M 337.713 0L 550.646 266.226L 550.646 267.827L 336.433 0L 337.713 0Z"/>
<path id="path9_fill" d="M 328.102 0L 550.646 278.244L 550.646 279.845L 326.821 0L 328.102 0Z"/>
<path id="path10_fill" d="M 318.489 0L 550.646 290.263L 550.646 291.864L 317.208 0L 318.489 0Z"/>
<path id="path11_fill" d="M 308.876 0L 550.646 302.281L 550.646 303.882L 307.596 0L 308.876 0Z"/>
<path id="path12_fill" d="M 299.264 0L 550.646 314.299L 550.646 315.9L 297.984 0L 299.264 0Z"/>
<path id="path13_fill" d="M 289.652 0L 550.646 326.317L 550.646 327.919L 288.371 0L 289.652 0Z"/>
<path id="path14_fill" d="M 280.04 0L 550.646 338.336L 550.646 339.937L 278.759 0L 280.04 0Z"/>
<path id="path15_fill" d="M 270.427 0L 550.646 350.354L 550.646 351.955L 269.146 0L 270.427 0Z"/>
<path id="path16_fill" d="M 260.815 0L 550.646 362.372L 550.646 363.973L 259.534 0L 260.815 0Z"/>
<path id="path17_fill" d="M 251.202 0L 550.646 374.391L 550.646 375.991L 249.922 0L 251.202 0Z"/>
<path id="path18_fill" d="M 241.59 0L 550.646 386.409L 550.646 388.01L 240.309 0L 241.59 0Z"/>
<path id="path19_fill" d="M 231.978 0L 550.646 398.427L 550.646 400.028L 230.697 0L 231.978 0Z"/>
<path id="path20_fill" d="M 222.365 0L 550.646 410.445L 550.646 412.046L 221.084 0L 222.365 0Z"/>
<path id="path21_fill" d="M 212.753 0L 550.646 422.463L 550.646 424.065L 211.472 0L 212.753 0Z"/>
<path id="path22_fill" d="M 203.14 0L 550.646 434.482L 550.646 436.083L 201.86 0L 203.14 0Z"/>
<path id="path23_fill" d="M 193.528 0L 550.646 446.5L 550.646 448.101L 192.248 0L 193.528 0Z"/>
<path id="path24_fill" d="M 183.916 0L 550.646 458.518L 550.646 460.119L 182.635 0L 183.916 0Z"/>
<path id="path25_fill" d="M 174.303 0L 550.646 470.537L 550.646 472.137L 173.023 0L 174.303 0Z"/>
<path id="path26_fill" d="M 164.691 0L 550.646 482.555L 550.646 484.156L 163.41 0L 164.691 0Z"/>
<path id="path27_fill" d="M 155.079 0L 550.646 494.573L 550.646 496.174L 153.798 0L 155.079 0Z"/>
<path id="path28_fill" d="M 145.466 0L 550.646 506.591L 550.646 508.192L 144.186 0L 145.466 0Z"/>
<path id="path29_fill" d="M 135.854 0L 550.646 518.609L 550.646 520.211L 134.573 0L 135.854 0Z"/>
<path id="path30_fill" d="M 126.241 0L 550.646 530.628L 550.646 532.229L 124.961 0L 126.241 0Z"/>
<path id="path31_fill" d="M 116.629 0L 550.646 542.646L 550.646 544.247L 115.348 0L 116.629 0Z"/>
<path id="path32_fill" d="M 107.017 0L 550.646 554.664L 550.646 556.265L 105.736 0L 107.017 0Z"/>
<path id="path33_fill" d="M 97.4043 0L 550.646 566.683L 550.646 568.283L 96.124 0L 97.4043 0Z"/>
<path id="path34_fill" d="M 87.792 0L 550.646 578.701L 550.646 580.302L 86.5112 0L 87.792 0Z"/>
<path id="path35_fill" d="M 78.1792 0L 550.646 590.719L 550.646 592.32L 76.8989 0L 78.1792 0Z"/>
<path id="path36_fill" d="M 68.5669 0L 550.646 602.737L 550.646 604.338L 67.2866 0L 68.5669 0Z"/>
<path id="path37_fill" d="M 58.9551 0L 550.646 614.755L 550.646 616.357L 57.6743 0L 58.9551 0Z"/>
<path id="path38_fill" d="M 49.3423 0L 550.646 626.773L 550.646 628.375L 48.062 0L 49.3423 0Z"/>
<path id="path39_fill" d="M 39.73 0L 550.646 638.792L 550.646 640.393L 38.4492 0L 39.73 0Z"/>
<path id="path40_fill" d="M 30.1172 0L 550.646 650.81L 550.646 652.411L 28.8369 0L 30.1172 0Z"/>
<path id="path41_fill" d="M 20.5049 0L 550.646 662.829L 550.646 664.43L 19.2246 0L 20.5049 0Z"/>
<path id="path42_fill" d="M 10.8931 0L 550.646 674.847L 550.646 676.448L 9.6123 0L 10.8931 0Z"/>
<path id="path43_fill" d="M 1.28027 0L 550.646 686.865L 550.646 688.466L 0 0L 1.28027 0Z"/>
<path id="path44_fill" d="M 413.333 0L 414.613 0L 550.646 170.08L 550.646 171.681L 413.333 0Z"/>
<path id="path45_fill" d="M 550.646 159.663L 422.944 0L 424.225 0L 550.646 158.062L 550.646 159.663Z"/>
<path id="path46_fill" d="M 550.646 147.645L 432.557 0L 433.837 0L 550.646 146.044L 550.646 147.645Z"/>
<path id="path47_fill" d="M 550.646 135.626L 442.169 0L 443.45 0L 550.646 134.025L 550.646 135.626Z"/>
<path id="path48_fill" d="M 550.646 123.608L 451.782 0L 453.062 0L 550.646 122.007L 550.646 123.608Z"/>
<path id="path49_fill" d="M 550.646 111.59L 461.394 0L 462.675 0L 550.646 109.989L 550.646 111.59Z"/>
<path id="path50_fill" d="M 550.646 99.5718L 471.006 0L 472.287 0L 550.646 97.9706L 550.646 99.5718Z"/>
<path id="path51_fill" d="M 550.646 87.5537L 480.619 0L 481.899 0L 550.646 85.9523L 550.646 87.5537Z"/>
<path id="path52_fill" d="M 550.646 75.5351L 490.231 0L 491.512 0L 550.646 73.9343L 550.646 75.5351Z"/>
<path id="path53_fill" d="M 550.646 63.5171L 499.844 0L 501.124 0L 550.646 61.9159L 550.646 63.5171Z"/>
<path id="path54_fill" d="M 550.646 51.4987L 509.456 0L 510.737 0L 550.646 49.8976L 550.646 51.4987Z"/>
<path id="path55_fill" d="M 550.646 39.4804L 519.068 0L 520.349 0L 550.646 37.8796L 550.646 39.4804Z"/>
<path id="path56_fill" d="M 550.646 27.4624L 528.681 0L 529.961 0L 550.646 25.8612L 550.646 27.4624Z"/>
<path id="path57_fill" d="M 550.646 15.4439L 538.293 0L 539.574 0L 550.646 13.843L 550.646 15.4439Z"/>
</defs>
</svg>
